G04 EAGLE Gerber RS-274X export*
G75*
%MOMM*%
%FSLAX34Y34*%
%LPD*%
%INBottom Copper*%
%IPPOS*%
%AMOC8*
5,1,8,0,0,1.08239X$1,22.5*%
G01*
%ADD10P,1.539592X8X22.500000*%
%ADD11C,1.422400*%
%ADD12P,1.374635X8X292.500000*%
%ADD13C,1.270000*%
%ADD14P,2.089446X8X22.500000*%
%ADD15C,0.756400*%
%ADD16C,0.152400*%

G36*
X165122Y2290D02*
X165122Y2290D01*
X165160Y2289D01*
X168656Y2564D01*
X168662Y2566D01*
X168668Y2565D01*
X168832Y2599D01*
X175483Y4760D01*
X175515Y4777D01*
X175549Y4785D01*
X175695Y4868D01*
X181353Y8979D01*
X181378Y9004D01*
X181408Y9023D01*
X181521Y9147D01*
X185632Y14805D01*
X185648Y14837D01*
X185671Y14864D01*
X185740Y15017D01*
X187901Y21668D01*
X187902Y21674D01*
X187904Y21679D01*
X187936Y21844D01*
X188211Y25340D01*
X188209Y25362D01*
X188213Y25400D01*
X188213Y91881D01*
X190495Y97389D01*
X194711Y101605D01*
X200219Y103887D01*
X241300Y103887D01*
X241326Y103891D01*
X241375Y103890D01*
X243258Y104076D01*
X243285Y104083D01*
X243313Y104083D01*
X243474Y104130D01*
X246954Y105571D01*
X247009Y105606D01*
X247070Y105632D01*
X247135Y105684D01*
X247163Y105701D01*
X247175Y105716D01*
X247201Y105736D01*
X249864Y108399D01*
X249902Y108452D01*
X249948Y108499D01*
X249988Y108572D01*
X250007Y108599D01*
X250013Y108618D01*
X250029Y108646D01*
X251470Y112126D01*
X251476Y112153D01*
X251489Y112178D01*
X251524Y112342D01*
X251710Y114225D01*
X251708Y114252D01*
X251713Y114300D01*
X251713Y226064D01*
X251702Y226135D01*
X251700Y226207D01*
X251682Y226256D01*
X251674Y226307D01*
X251640Y226371D01*
X251615Y226438D01*
X251583Y226479D01*
X251558Y226525D01*
X251506Y226574D01*
X251462Y226630D01*
X251418Y226658D01*
X251380Y226694D01*
X251315Y226724D01*
X251255Y226763D01*
X251204Y226776D01*
X251157Y226798D01*
X251086Y226805D01*
X251016Y226823D01*
X250964Y226819D01*
X250913Y226825D01*
X250842Y226809D01*
X250771Y226804D01*
X250723Y226784D01*
X250672Y226772D01*
X250611Y226736D01*
X250545Y226708D01*
X250489Y226663D01*
X250461Y226646D01*
X250446Y226628D01*
X250414Y226603D01*
X245298Y221487D01*
X242823Y221487D01*
X242823Y230378D01*
X242820Y230398D01*
X242822Y230417D01*
X242800Y230519D01*
X242783Y230621D01*
X242774Y230638D01*
X242770Y230658D01*
X242717Y230747D01*
X242668Y230838D01*
X242654Y230852D01*
X242644Y230869D01*
X242565Y230936D01*
X242490Y231007D01*
X242472Y231016D01*
X242457Y231029D01*
X242361Y231067D01*
X242267Y231111D01*
X242247Y231113D01*
X242229Y231121D01*
X242062Y231139D01*
X241299Y231139D01*
X241299Y231141D01*
X242062Y231141D01*
X242082Y231144D01*
X242101Y231142D01*
X242203Y231164D01*
X242305Y231181D01*
X242322Y231190D01*
X242342Y231194D01*
X242431Y231247D01*
X242522Y231296D01*
X242536Y231310D01*
X242553Y231320D01*
X242620Y231399D01*
X242691Y231474D01*
X242700Y231492D01*
X242713Y231507D01*
X242752Y231603D01*
X242795Y231697D01*
X242797Y231717D01*
X242805Y231735D01*
X242823Y231902D01*
X242823Y240793D01*
X245298Y240793D01*
X250414Y235677D01*
X250472Y235635D01*
X250524Y235586D01*
X250571Y235564D01*
X250613Y235534D01*
X250682Y235513D01*
X250747Y235482D01*
X250799Y235477D01*
X250849Y235461D01*
X250920Y235463D01*
X250991Y235455D01*
X251042Y235466D01*
X251094Y235468D01*
X251162Y235492D01*
X251232Y235508D01*
X251277Y235534D01*
X251325Y235552D01*
X251381Y235597D01*
X251443Y235634D01*
X251477Y235673D01*
X251517Y235706D01*
X251556Y235766D01*
X251603Y235821D01*
X251622Y235869D01*
X251650Y235913D01*
X251668Y235982D01*
X251695Y236049D01*
X251703Y236120D01*
X251711Y236151D01*
X251709Y236175D01*
X251713Y236216D01*
X251713Y276864D01*
X251702Y276935D01*
X251700Y277007D01*
X251682Y277056D01*
X251674Y277107D01*
X251640Y277171D01*
X251615Y277238D01*
X251583Y277279D01*
X251558Y277325D01*
X251506Y277374D01*
X251462Y277430D01*
X251418Y277458D01*
X251380Y277494D01*
X251315Y277524D01*
X251255Y277563D01*
X251204Y277576D01*
X251157Y277598D01*
X251086Y277605D01*
X251016Y277623D01*
X250964Y277619D01*
X250913Y277625D01*
X250842Y277609D01*
X250771Y277604D01*
X250723Y277584D01*
X250672Y277572D01*
X250611Y277536D01*
X250545Y277508D01*
X250489Y277463D01*
X250461Y277446D01*
X250446Y277428D01*
X250414Y277403D01*
X245298Y272287D01*
X242823Y272287D01*
X242823Y281178D01*
X242820Y281198D01*
X242822Y281217D01*
X242800Y281319D01*
X242783Y281421D01*
X242774Y281438D01*
X242770Y281458D01*
X242717Y281547D01*
X242668Y281638D01*
X242654Y281652D01*
X242644Y281669D01*
X242565Y281736D01*
X242490Y281807D01*
X242472Y281816D01*
X242457Y281829D01*
X242361Y281867D01*
X242267Y281911D01*
X242247Y281913D01*
X242229Y281921D01*
X242062Y281939D01*
X241299Y281939D01*
X241299Y281941D01*
X242062Y281941D01*
X242082Y281944D01*
X242101Y281942D01*
X242203Y281964D01*
X242305Y281981D01*
X242322Y281990D01*
X242342Y281994D01*
X242431Y282047D01*
X242522Y282096D01*
X242536Y282110D01*
X242553Y282120D01*
X242620Y282199D01*
X242691Y282274D01*
X242700Y282292D01*
X242713Y282307D01*
X242752Y282403D01*
X242795Y282497D01*
X242797Y282517D01*
X242805Y282535D01*
X242823Y282702D01*
X242823Y291593D01*
X245298Y291593D01*
X250414Y286477D01*
X250472Y286435D01*
X250524Y286386D01*
X250571Y286364D01*
X250613Y286334D01*
X250682Y286313D01*
X250747Y286282D01*
X250799Y286277D01*
X250849Y286261D01*
X250920Y286263D01*
X250991Y286255D01*
X251042Y286266D01*
X251094Y286268D01*
X251162Y286292D01*
X251232Y286308D01*
X251277Y286334D01*
X251325Y286352D01*
X251381Y286397D01*
X251443Y286434D01*
X251477Y286473D01*
X251517Y286506D01*
X251556Y286566D01*
X251603Y286621D01*
X251622Y286669D01*
X251650Y286713D01*
X251668Y286782D01*
X251695Y286849D01*
X251703Y286920D01*
X251711Y286951D01*
X251709Y286975D01*
X251713Y287016D01*
X251713Y292100D01*
X251709Y292126D01*
X251710Y292175D01*
X251524Y294058D01*
X251517Y294085D01*
X251517Y294113D01*
X251470Y294274D01*
X250029Y297754D01*
X249994Y297809D01*
X249968Y297870D01*
X249916Y297935D01*
X249899Y297963D01*
X249884Y297975D01*
X249864Y298001D01*
X247201Y300664D01*
X247148Y300702D01*
X247101Y300748D01*
X247028Y300788D01*
X247001Y300807D01*
X246982Y300813D01*
X246954Y300829D01*
X243474Y302270D01*
X243447Y302276D01*
X243422Y302289D01*
X243258Y302324D01*
X241375Y302510D01*
X241348Y302508D01*
X241300Y302513D01*
X-60960Y302513D01*
X-60986Y302509D01*
X-61035Y302510D01*
X-62918Y302324D01*
X-62945Y302317D01*
X-62973Y302317D01*
X-63134Y302270D01*
X-66614Y300829D01*
X-66669Y300794D01*
X-66730Y300768D01*
X-66795Y300716D01*
X-66823Y300699D01*
X-66835Y300684D01*
X-66861Y300664D01*
X-69524Y298001D01*
X-69562Y297948D01*
X-69608Y297901D01*
X-69648Y297828D01*
X-69667Y297801D01*
X-69673Y297782D01*
X-69689Y297754D01*
X-71130Y294274D01*
X-71136Y294247D01*
X-71149Y294222D01*
X-71184Y294058D01*
X-71370Y292175D01*
X-71368Y292148D01*
X-71373Y292100D01*
X-71373Y288119D01*
X-71362Y288048D01*
X-71360Y287976D01*
X-71342Y287927D01*
X-71334Y287876D01*
X-71300Y287813D01*
X-71275Y287745D01*
X-71243Y287705D01*
X-71218Y287659D01*
X-71166Y287609D01*
X-71122Y287553D01*
X-71078Y287525D01*
X-71040Y287489D01*
X-70975Y287459D01*
X-70915Y287420D01*
X-70864Y287408D01*
X-70817Y287386D01*
X-70746Y287378D01*
X-70676Y287360D01*
X-70624Y287364D01*
X-70573Y287358D01*
X-70502Y287374D01*
X-70431Y287379D01*
X-70383Y287400D01*
X-70332Y287411D01*
X-70271Y287448D01*
X-70205Y287476D01*
X-70149Y287520D01*
X-70121Y287537D01*
X-70106Y287555D01*
X-70074Y287580D01*
X-67077Y290577D01*
X-59923Y290577D01*
X-54863Y285517D01*
X-54863Y278363D01*
X-59923Y273303D01*
X-67077Y273303D01*
X-70074Y276300D01*
X-70132Y276341D01*
X-70184Y276391D01*
X-70231Y276413D01*
X-70273Y276443D01*
X-70342Y276464D01*
X-70407Y276494D01*
X-70459Y276500D01*
X-70509Y276515D01*
X-70580Y276514D01*
X-70651Y276522D01*
X-70702Y276510D01*
X-70754Y276509D01*
X-70822Y276484D01*
X-70892Y276469D01*
X-70937Y276443D01*
X-70985Y276425D01*
X-71041Y276380D01*
X-71103Y276343D01*
X-71137Y276304D01*
X-71177Y276271D01*
X-71216Y276211D01*
X-71263Y276156D01*
X-71282Y276108D01*
X-71310Y276064D01*
X-71328Y275995D01*
X-71355Y275928D01*
X-71363Y275857D01*
X-71371Y275826D01*
X-71369Y275802D01*
X-71373Y275761D01*
X-71373Y262719D01*
X-71362Y262648D01*
X-71360Y262576D01*
X-71342Y262527D01*
X-71334Y262476D01*
X-71300Y262413D01*
X-71275Y262345D01*
X-71243Y262305D01*
X-71218Y262259D01*
X-71166Y262209D01*
X-71122Y262153D01*
X-71078Y262125D01*
X-71040Y262089D01*
X-70975Y262059D01*
X-70915Y262020D01*
X-70864Y262008D01*
X-70817Y261986D01*
X-70746Y261978D01*
X-70676Y261960D01*
X-70624Y261964D01*
X-70573Y261958D01*
X-70502Y261974D01*
X-70431Y261979D01*
X-70383Y262000D01*
X-70332Y262011D01*
X-70271Y262048D01*
X-70205Y262076D01*
X-70149Y262120D01*
X-70121Y262137D01*
X-70106Y262155D01*
X-70074Y262180D01*
X-67077Y265177D01*
X-59923Y265177D01*
X-54863Y260117D01*
X-54863Y252963D01*
X-59923Y247903D01*
X-67077Y247903D01*
X-70074Y250900D01*
X-70132Y250941D01*
X-70184Y250991D01*
X-70231Y251013D01*
X-70273Y251043D01*
X-70342Y251064D01*
X-70407Y251094D01*
X-70459Y251100D01*
X-70509Y251115D01*
X-70580Y251114D01*
X-70651Y251122D01*
X-70702Y251110D01*
X-70754Y251109D01*
X-70822Y251084D01*
X-70892Y251069D01*
X-70937Y251043D01*
X-70985Y251025D01*
X-71041Y250980D01*
X-71103Y250943D01*
X-71137Y250904D01*
X-71177Y250871D01*
X-71216Y250811D01*
X-71263Y250756D01*
X-71282Y250708D01*
X-71310Y250664D01*
X-71328Y250595D01*
X-71355Y250528D01*
X-71363Y250457D01*
X-71371Y250426D01*
X-71369Y250402D01*
X-71373Y250361D01*
X-71373Y237319D01*
X-71362Y237248D01*
X-71360Y237176D01*
X-71342Y237127D01*
X-71334Y237076D01*
X-71300Y237013D01*
X-71275Y236945D01*
X-71243Y236905D01*
X-71218Y236859D01*
X-71166Y236809D01*
X-71122Y236753D01*
X-71078Y236725D01*
X-71040Y236689D01*
X-70975Y236659D01*
X-70915Y236620D01*
X-70864Y236608D01*
X-70817Y236586D01*
X-70746Y236578D01*
X-70676Y236560D01*
X-70624Y236564D01*
X-70573Y236558D01*
X-70502Y236574D01*
X-70431Y236579D01*
X-70383Y236600D01*
X-70332Y236611D01*
X-70271Y236648D01*
X-70205Y236676D01*
X-70149Y236720D01*
X-70121Y236737D01*
X-70106Y236755D01*
X-70074Y236780D01*
X-67077Y239777D01*
X-59923Y239777D01*
X-54863Y234717D01*
X-54863Y227563D01*
X-55111Y227315D01*
X-55122Y227299D01*
X-55138Y227287D01*
X-55194Y227199D01*
X-55254Y227115D01*
X-55260Y227096D01*
X-55271Y227080D01*
X-55296Y226979D01*
X-55327Y226880D01*
X-55326Y226860D01*
X-55331Y226841D01*
X-55323Y226738D01*
X-55320Y226634D01*
X-55313Y226616D01*
X-55312Y226596D01*
X-55271Y226501D01*
X-55236Y226403D01*
X-55223Y226388D01*
X-55215Y226370D01*
X-55111Y226239D01*
X-50037Y221165D01*
X-50037Y160775D01*
X-50023Y160684D01*
X-50015Y160594D01*
X-50003Y160564D01*
X-49998Y160532D01*
X-49955Y160451D01*
X-49919Y160367D01*
X-49893Y160335D01*
X-49882Y160314D01*
X-49859Y160292D01*
X-49814Y160236D01*
X3772Y106650D01*
X4288Y106134D01*
X4346Y106092D01*
X4398Y106043D01*
X4445Y106021D01*
X4487Y105991D01*
X4556Y105970D01*
X4621Y105939D01*
X4673Y105934D01*
X4723Y105918D01*
X4794Y105920D01*
X4865Y105912D01*
X4916Y105923D01*
X4968Y105925D01*
X5036Y105949D01*
X5106Y105964D01*
X5151Y105991D01*
X5199Y106009D01*
X5255Y106054D01*
X5317Y106091D01*
X5351Y106130D01*
X5391Y106163D01*
X5430Y106223D01*
X5477Y106278D01*
X5496Y106326D01*
X5524Y106370D01*
X5542Y106439D01*
X5569Y106506D01*
X5577Y106577D01*
X5585Y106608D01*
X5583Y106632D01*
X5587Y106672D01*
X5587Y118117D01*
X5573Y118208D01*
X5565Y118298D01*
X5553Y118328D01*
X5548Y118360D01*
X5505Y118441D01*
X5469Y118525D01*
X5443Y118557D01*
X5432Y118578D01*
X5409Y118600D01*
X5364Y118656D01*
X-38570Y162590D01*
X-40133Y164153D01*
X-40133Y196342D01*
X-40136Y196362D01*
X-40134Y196381D01*
X-40156Y196483D01*
X-40172Y196585D01*
X-40182Y196602D01*
X-40186Y196622D01*
X-40239Y196711D01*
X-40288Y196802D01*
X-40302Y196816D01*
X-40312Y196833D01*
X-40391Y196900D01*
X-40466Y196972D01*
X-40484Y196980D01*
X-40499Y196993D01*
X-40595Y197032D01*
X-40689Y197075D01*
X-40709Y197077D01*
X-40727Y197085D01*
X-40894Y197103D01*
X-41677Y197103D01*
X-46737Y202163D01*
X-46737Y209317D01*
X-41677Y214377D01*
X-34523Y214377D01*
X-29494Y209348D01*
X-29436Y209307D01*
X-29384Y209257D01*
X-29337Y209235D01*
X-29295Y209205D01*
X-29226Y209184D01*
X-29161Y209154D01*
X-29109Y209148D01*
X-29059Y209133D01*
X-28988Y209134D01*
X-28917Y209126D01*
X-28866Y209138D01*
X-28814Y209139D01*
X-28746Y209164D01*
X-28676Y209179D01*
X-28631Y209205D01*
X-28583Y209223D01*
X-28527Y209268D01*
X-28465Y209305D01*
X-28431Y209344D01*
X-28391Y209377D01*
X-28352Y209437D01*
X-28305Y209492D01*
X-28286Y209540D01*
X-28258Y209584D01*
X-28240Y209653D01*
X-28213Y209720D01*
X-28205Y209791D01*
X-28197Y209822D01*
X-28199Y209846D01*
X-28195Y209887D01*
X-28195Y218447D01*
X-28209Y218538D01*
X-28217Y218628D01*
X-28229Y218658D01*
X-28234Y218690D01*
X-28277Y218771D01*
X-28313Y218855D01*
X-28339Y218887D01*
X-28350Y218908D01*
X-28373Y218930D01*
X-28418Y218986D01*
X-32691Y223259D01*
X-32707Y223270D01*
X-32719Y223286D01*
X-32806Y223342D01*
X-32890Y223402D01*
X-32909Y223408D01*
X-32926Y223419D01*
X-33027Y223444D01*
X-33125Y223475D01*
X-33145Y223474D01*
X-33165Y223479D01*
X-33268Y223471D01*
X-33371Y223468D01*
X-33390Y223461D01*
X-33410Y223460D01*
X-33505Y223419D01*
X-33602Y223384D01*
X-33618Y223371D01*
X-33636Y223363D01*
X-33767Y223259D01*
X-34523Y222503D01*
X-41677Y222503D01*
X-46737Y227563D01*
X-46737Y234717D01*
X-41677Y239777D01*
X-34523Y239777D01*
X-29463Y234717D01*
X-29463Y227560D01*
X-29468Y227553D01*
X-29484Y227541D01*
X-29540Y227453D01*
X-29600Y227369D01*
X-29606Y227350D01*
X-29617Y227334D01*
X-29642Y227233D01*
X-29673Y227134D01*
X-29672Y227114D01*
X-29677Y227095D01*
X-29669Y226992D01*
X-29666Y226888D01*
X-29659Y226870D01*
X-29658Y226850D01*
X-29617Y226755D01*
X-29582Y226657D01*
X-29569Y226642D01*
X-29561Y226624D01*
X-29457Y226493D01*
X-23621Y220657D01*
X-23621Y159505D01*
X-23607Y159414D01*
X-23599Y159324D01*
X-23587Y159294D01*
X-23582Y159262D01*
X-23539Y159181D01*
X-23503Y159097D01*
X-23477Y159065D01*
X-23466Y159044D01*
X-23443Y159022D01*
X-23398Y158966D01*
X12162Y123406D01*
X12220Y123364D01*
X12272Y123315D01*
X12319Y123293D01*
X12361Y123263D01*
X12430Y123242D01*
X12495Y123211D01*
X12547Y123206D01*
X12597Y123190D01*
X12668Y123192D01*
X12739Y123184D01*
X12790Y123195D01*
X12842Y123197D01*
X12910Y123221D01*
X12980Y123236D01*
X13025Y123263D01*
X13073Y123281D01*
X13129Y123326D01*
X13191Y123363D01*
X13225Y123402D01*
X13265Y123435D01*
X13304Y123495D01*
X13351Y123550D01*
X13370Y123598D01*
X13398Y123642D01*
X13416Y123711D01*
X13443Y123778D01*
X13451Y123849D01*
X13459Y123880D01*
X13457Y123904D01*
X13461Y123944D01*
X13461Y128531D01*
X13447Y128622D01*
X13439Y128712D01*
X13427Y128742D01*
X13422Y128774D01*
X13379Y128855D01*
X13343Y128939D01*
X13317Y128971D01*
X13306Y128992D01*
X13283Y129014D01*
X13238Y129070D01*
X-13170Y155478D01*
X-14733Y157041D01*
X-14733Y196342D01*
X-14736Y196362D01*
X-14734Y196381D01*
X-14756Y196483D01*
X-14772Y196585D01*
X-14782Y196602D01*
X-14786Y196622D01*
X-14839Y196711D01*
X-14888Y196802D01*
X-14902Y196816D01*
X-14912Y196833D01*
X-14991Y196900D01*
X-15066Y196972D01*
X-15084Y196980D01*
X-15099Y196993D01*
X-15195Y197032D01*
X-15289Y197075D01*
X-15309Y197077D01*
X-15327Y197085D01*
X-15494Y197103D01*
X-16277Y197103D01*
X-21337Y202163D01*
X-21337Y209317D01*
X-16277Y214377D01*
X-9123Y214377D01*
X-4063Y209317D01*
X-4063Y202163D01*
X-9123Y197103D01*
X-9398Y197103D01*
X-9418Y197100D01*
X-9437Y197102D01*
X-9539Y197080D01*
X-9641Y197064D01*
X-9658Y197054D01*
X-9678Y197050D01*
X-9767Y196997D01*
X-9858Y196948D01*
X-9872Y196934D01*
X-9889Y196924D01*
X-9956Y196845D01*
X-10028Y196770D01*
X-10036Y196752D01*
X-10049Y196737D01*
X-10088Y196641D01*
X-10131Y196547D01*
X-10133Y196527D01*
X-10141Y196509D01*
X-10159Y196342D01*
X-10159Y159251D01*
X-10145Y159160D01*
X-10137Y159070D01*
X-10125Y159040D01*
X-10120Y159008D01*
X-10077Y158927D01*
X-10041Y158843D01*
X-10015Y158811D01*
X-10004Y158790D01*
X-9981Y158768D01*
X-9936Y158712D01*
X17242Y131534D01*
X17300Y131492D01*
X17352Y131443D01*
X17399Y131421D01*
X17441Y131391D01*
X17510Y131370D01*
X17575Y131339D01*
X17627Y131334D01*
X17677Y131318D01*
X17748Y131320D01*
X17819Y131312D01*
X17870Y131323D01*
X17922Y131325D01*
X17990Y131349D01*
X18060Y131364D01*
X18105Y131391D01*
X18153Y131409D01*
X18209Y131454D01*
X18271Y131491D01*
X18305Y131530D01*
X18345Y131563D01*
X18384Y131623D01*
X18431Y131678D01*
X18450Y131726D01*
X18478Y131770D01*
X18496Y131839D01*
X18523Y131906D01*
X18531Y131977D01*
X18539Y132008D01*
X18537Y132032D01*
X18541Y132072D01*
X18541Y137929D01*
X18527Y138020D01*
X18519Y138110D01*
X18507Y138140D01*
X18502Y138172D01*
X18459Y138253D01*
X18423Y138337D01*
X18397Y138369D01*
X18386Y138390D01*
X18363Y138412D01*
X18318Y138468D01*
X-724Y157510D01*
X-2287Y159073D01*
X-2287Y217431D01*
X-2301Y217522D01*
X-2309Y217612D01*
X-2321Y217642D01*
X-2326Y217674D01*
X-2369Y217755D01*
X-2405Y217839D01*
X-2431Y217871D01*
X-2442Y217892D01*
X-2465Y217914D01*
X-2510Y217970D01*
X-7545Y223005D01*
X-7561Y223016D01*
X-7573Y223032D01*
X-7660Y223088D01*
X-7744Y223148D01*
X-7763Y223154D01*
X-7780Y223165D01*
X-7881Y223190D01*
X-7979Y223221D01*
X-7999Y223220D01*
X-8019Y223225D01*
X-8122Y223217D01*
X-8225Y223214D01*
X-8244Y223207D01*
X-8264Y223206D01*
X-8359Y223165D01*
X-8456Y223130D01*
X-8472Y223117D01*
X-8490Y223109D01*
X-8621Y223005D01*
X-9123Y222503D01*
X-16277Y222503D01*
X-21337Y227563D01*
X-21337Y234717D01*
X-16277Y239777D01*
X-9123Y239777D01*
X-4063Y234717D01*
X-4063Y227563D01*
X-4311Y227315D01*
X-4322Y227299D01*
X-4338Y227287D01*
X-4394Y227199D01*
X-4454Y227115D01*
X-4460Y227096D01*
X-4471Y227080D01*
X-4496Y226979D01*
X-4527Y226880D01*
X-4526Y226860D01*
X-4531Y226841D01*
X-4523Y226738D01*
X-4520Y226634D01*
X-4513Y226616D01*
X-4512Y226596D01*
X-4471Y226501D01*
X-4436Y226403D01*
X-4423Y226388D01*
X-4415Y226370D01*
X-4311Y226239D01*
X2287Y219641D01*
X2287Y161282D01*
X2301Y161192D01*
X2309Y161101D01*
X2321Y161072D01*
X2326Y161040D01*
X2369Y160959D01*
X2405Y160875D01*
X2431Y160843D01*
X2442Y160822D01*
X2465Y160800D01*
X2510Y160744D01*
X23115Y140139D01*
X23115Y76962D01*
X23118Y76942D01*
X23116Y76923D01*
X23138Y76821D01*
X23154Y76719D01*
X23164Y76702D01*
X23168Y76682D01*
X23221Y76593D01*
X23270Y76502D01*
X23284Y76488D01*
X23294Y76471D01*
X23373Y76404D01*
X23448Y76332D01*
X23466Y76324D01*
X23481Y76311D01*
X23577Y76272D01*
X23671Y76229D01*
X23691Y76227D01*
X23709Y76219D01*
X23876Y76201D01*
X24638Y76201D01*
X24658Y76204D01*
X24677Y76202D01*
X24779Y76224D01*
X24881Y76240D01*
X24898Y76250D01*
X24918Y76254D01*
X25007Y76307D01*
X25098Y76356D01*
X25112Y76370D01*
X25129Y76380D01*
X25196Y76459D01*
X25268Y76534D01*
X25276Y76552D01*
X25289Y76567D01*
X25328Y76663D01*
X25371Y76757D01*
X25373Y76777D01*
X25381Y76795D01*
X25399Y76962D01*
X25399Y146565D01*
X25385Y146656D01*
X25377Y146746D01*
X25365Y146776D01*
X25360Y146808D01*
X25317Y146889D01*
X25281Y146973D01*
X25255Y147005D01*
X25244Y147026D01*
X25221Y147048D01*
X25176Y147104D01*
X10413Y161867D01*
X10413Y196342D01*
X10410Y196362D01*
X10412Y196381D01*
X10390Y196483D01*
X10374Y196585D01*
X10364Y196602D01*
X10360Y196622D01*
X10307Y196711D01*
X10258Y196802D01*
X10244Y196816D01*
X10234Y196833D01*
X10155Y196900D01*
X10080Y196972D01*
X10062Y196980D01*
X10047Y196993D01*
X9951Y197032D01*
X9857Y197075D01*
X9837Y197077D01*
X9819Y197085D01*
X9652Y197103D01*
X9123Y197103D01*
X4063Y202163D01*
X4063Y209317D01*
X9123Y214377D01*
X16277Y214377D01*
X21337Y209317D01*
X21337Y202163D01*
X16277Y197103D01*
X15748Y197103D01*
X15728Y197100D01*
X15709Y197102D01*
X15607Y197080D01*
X15505Y197064D01*
X15488Y197054D01*
X15468Y197050D01*
X15379Y196997D01*
X15288Y196948D01*
X15274Y196934D01*
X15257Y196924D01*
X15190Y196845D01*
X15118Y196770D01*
X15110Y196752D01*
X15097Y196737D01*
X15058Y196641D01*
X15015Y196547D01*
X15013Y196527D01*
X15005Y196509D01*
X14987Y196342D01*
X14987Y164077D01*
X15001Y163986D01*
X15009Y163896D01*
X15021Y163866D01*
X15026Y163834D01*
X15069Y163753D01*
X15105Y163669D01*
X15131Y163637D01*
X15142Y163616D01*
X15165Y163594D01*
X15210Y163538D01*
X29973Y148775D01*
X29973Y79965D01*
X29987Y79875D01*
X29995Y79784D01*
X30007Y79754D01*
X30012Y79723D01*
X30055Y79642D01*
X30091Y79558D01*
X30117Y79526D01*
X30128Y79505D01*
X30151Y79483D01*
X30196Y79427D01*
X30958Y78665D01*
X31016Y78623D01*
X31068Y78574D01*
X31115Y78552D01*
X31157Y78521D01*
X31226Y78500D01*
X31291Y78470D01*
X31343Y78464D01*
X31393Y78449D01*
X31464Y78451D01*
X31535Y78443D01*
X31586Y78454D01*
X31638Y78455D01*
X31706Y78480D01*
X31776Y78495D01*
X31821Y78522D01*
X31869Y78540D01*
X31925Y78585D01*
X31987Y78621D01*
X32021Y78661D01*
X32061Y78694D01*
X32100Y78754D01*
X32147Y78808D01*
X32166Y78857D01*
X32194Y78901D01*
X32212Y78970D01*
X32239Y79037D01*
X32247Y79108D01*
X32255Y79139D01*
X32253Y79162D01*
X32257Y79203D01*
X32257Y156217D01*
X32243Y156308D01*
X32235Y156398D01*
X32223Y156428D01*
X32218Y156460D01*
X32175Y156541D01*
X32139Y156625D01*
X32113Y156657D01*
X32102Y156678D01*
X32079Y156700D01*
X32034Y156756D01*
X22859Y165931D01*
X22859Y218447D01*
X22845Y218538D01*
X22837Y218628D01*
X22825Y218658D01*
X22820Y218690D01*
X22777Y218771D01*
X22741Y218855D01*
X22715Y218887D01*
X22704Y218908D01*
X22681Y218930D01*
X22636Y218986D01*
X18236Y223386D01*
X18220Y223397D01*
X18208Y223413D01*
X18121Y223469D01*
X18037Y223529D01*
X18018Y223535D01*
X18001Y223546D01*
X17900Y223571D01*
X17802Y223602D01*
X17782Y223601D01*
X17762Y223606D01*
X17659Y223598D01*
X17556Y223595D01*
X17537Y223588D01*
X17517Y223587D01*
X17422Y223546D01*
X17325Y223511D01*
X17309Y223498D01*
X17291Y223490D01*
X17160Y223386D01*
X16277Y222503D01*
X9123Y222503D01*
X4063Y227563D01*
X4063Y234717D01*
X9123Y239777D01*
X16277Y239777D01*
X21337Y234717D01*
X21337Y227510D01*
X21327Y227497D01*
X21321Y227477D01*
X21310Y227461D01*
X21285Y227360D01*
X21254Y227261D01*
X21255Y227242D01*
X21250Y227222D01*
X21258Y227119D01*
X21261Y227016D01*
X21268Y226997D01*
X21269Y226977D01*
X21310Y226882D01*
X21345Y226785D01*
X21358Y226769D01*
X21366Y226751D01*
X21470Y226620D01*
X27433Y220657D01*
X27433Y168141D01*
X27447Y168050D01*
X27455Y167960D01*
X27467Y167930D01*
X27472Y167898D01*
X27515Y167817D01*
X27551Y167733D01*
X27577Y167701D01*
X27588Y167680D01*
X27611Y167658D01*
X27656Y167602D01*
X36831Y158427D01*
X36831Y77418D01*
X36845Y77328D01*
X36853Y77237D01*
X36865Y77207D01*
X36870Y77175D01*
X36913Y77095D01*
X36949Y77011D01*
X36975Y76978D01*
X36986Y76958D01*
X37009Y76936D01*
X37054Y76880D01*
X40356Y73578D01*
X40414Y73536D01*
X40466Y73486D01*
X40513Y73464D01*
X40555Y73434D01*
X40624Y73413D01*
X40689Y73383D01*
X40741Y73377D01*
X40791Y73362D01*
X40862Y73364D01*
X40933Y73356D01*
X40984Y73367D01*
X41036Y73368D01*
X41104Y73393D01*
X41174Y73408D01*
X41219Y73435D01*
X41267Y73452D01*
X41323Y73497D01*
X41385Y73534D01*
X41419Y73574D01*
X41459Y73606D01*
X41498Y73666D01*
X41545Y73721D01*
X41564Y73769D01*
X41592Y73813D01*
X41610Y73883D01*
X41637Y73949D01*
X41645Y74020D01*
X41653Y74052D01*
X41651Y74075D01*
X41655Y74116D01*
X41655Y194317D01*
X41641Y194408D01*
X41633Y194498D01*
X41621Y194528D01*
X41616Y194560D01*
X41573Y194641D01*
X41537Y194725D01*
X41511Y194757D01*
X41500Y194778D01*
X41477Y194800D01*
X41432Y194856D01*
X39408Y196880D01*
X39334Y196933D01*
X39264Y196993D01*
X39234Y197005D01*
X39208Y197024D01*
X39121Y197051D01*
X39036Y197085D01*
X38995Y197089D01*
X38973Y197096D01*
X38941Y197095D01*
X38870Y197103D01*
X34523Y197103D01*
X29463Y202163D01*
X29463Y209317D01*
X34523Y214377D01*
X41677Y214377D01*
X45436Y210618D01*
X45494Y210577D01*
X45546Y210527D01*
X45593Y210505D01*
X45635Y210475D01*
X45704Y210454D01*
X45769Y210424D01*
X45821Y210418D01*
X45871Y210403D01*
X45942Y210404D01*
X46013Y210396D01*
X46064Y210408D01*
X46116Y210409D01*
X46184Y210434D01*
X46254Y210449D01*
X46299Y210475D01*
X46347Y210493D01*
X46403Y210538D01*
X46465Y210575D01*
X46499Y210614D01*
X46539Y210647D01*
X46578Y210707D01*
X46625Y210762D01*
X46644Y210810D01*
X46672Y210854D01*
X46690Y210923D01*
X46717Y210990D01*
X46725Y211061D01*
X46733Y211092D01*
X46731Y211116D01*
X46735Y211157D01*
X46735Y219209D01*
X46721Y219300D01*
X46713Y219390D01*
X46701Y219420D01*
X46696Y219452D01*
X46653Y219533D01*
X46617Y219617D01*
X46591Y219649D01*
X46580Y219670D01*
X46557Y219692D01*
X46512Y219748D01*
X43255Y223005D01*
X43239Y223016D01*
X43227Y223032D01*
X43140Y223088D01*
X43056Y223148D01*
X43037Y223154D01*
X43020Y223165D01*
X42919Y223190D01*
X42821Y223221D01*
X42801Y223220D01*
X42781Y223225D01*
X42678Y223217D01*
X42575Y223214D01*
X42556Y223207D01*
X42536Y223206D01*
X42441Y223165D01*
X42344Y223130D01*
X42328Y223117D01*
X42310Y223109D01*
X42179Y223005D01*
X41677Y222503D01*
X34523Y222503D01*
X29463Y227563D01*
X29463Y234717D01*
X34523Y239777D01*
X41677Y239777D01*
X46737Y234717D01*
X46737Y227563D01*
X46489Y227315D01*
X46478Y227299D01*
X46462Y227287D01*
X46406Y227199D01*
X46346Y227115D01*
X46340Y227096D01*
X46329Y227080D01*
X46304Y226979D01*
X46273Y226880D01*
X46274Y226860D01*
X46269Y226841D01*
X46277Y226738D01*
X46280Y226634D01*
X46287Y226616D01*
X46288Y226596D01*
X46329Y226501D01*
X46364Y226403D01*
X46377Y226388D01*
X46385Y226370D01*
X46489Y226239D01*
X51309Y221419D01*
X51309Y77523D01*
X51323Y77433D01*
X51331Y77342D01*
X51343Y77312D01*
X51348Y77281D01*
X51391Y77200D01*
X51427Y77116D01*
X51453Y77084D01*
X51464Y77063D01*
X51487Y77041D01*
X51532Y76985D01*
X55088Y73429D01*
X55146Y73387D01*
X55198Y73338D01*
X55245Y73316D01*
X55287Y73285D01*
X55356Y73264D01*
X55421Y73234D01*
X55473Y73228D01*
X55523Y73213D01*
X55594Y73215D01*
X55665Y73207D01*
X55716Y73218D01*
X55768Y73219D01*
X55836Y73244D01*
X55906Y73259D01*
X55951Y73286D01*
X55999Y73304D01*
X56055Y73349D01*
X56117Y73385D01*
X56151Y73425D01*
X56191Y73458D01*
X56230Y73518D01*
X56277Y73572D01*
X56296Y73621D01*
X56324Y73664D01*
X56342Y73734D01*
X56369Y73800D01*
X56377Y73872D01*
X56385Y73903D01*
X56383Y73926D01*
X56387Y73967D01*
X56387Y192717D01*
X59810Y196140D01*
X59821Y196156D01*
X59837Y196168D01*
X59893Y196255D01*
X59953Y196339D01*
X59959Y196358D01*
X59970Y196375D01*
X59995Y196476D01*
X60026Y196574D01*
X60025Y196594D01*
X60030Y196614D01*
X60022Y196717D01*
X60019Y196820D01*
X60012Y196839D01*
X60011Y196859D01*
X59970Y196954D01*
X59935Y197051D01*
X59922Y197067D01*
X59914Y197085D01*
X59810Y197216D01*
X54863Y202163D01*
X54863Y209317D01*
X59923Y214377D01*
X67077Y214377D01*
X71090Y210364D01*
X71148Y210323D01*
X71200Y210273D01*
X71247Y210251D01*
X71289Y210221D01*
X71358Y210200D01*
X71423Y210170D01*
X71475Y210164D01*
X71525Y210149D01*
X71596Y210150D01*
X71667Y210142D01*
X71718Y210154D01*
X71770Y210155D01*
X71838Y210180D01*
X71908Y210195D01*
X71953Y210221D01*
X72001Y210239D01*
X72057Y210284D01*
X72119Y210321D01*
X72153Y210360D01*
X72193Y210393D01*
X72232Y210453D01*
X72279Y210508D01*
X72298Y210556D01*
X72326Y210600D01*
X72344Y210669D01*
X72371Y210736D01*
X72379Y210807D01*
X72387Y210838D01*
X72385Y210862D01*
X72389Y210903D01*
X72389Y218955D01*
X72375Y219046D01*
X72367Y219136D01*
X72355Y219166D01*
X72350Y219198D01*
X72307Y219279D01*
X72271Y219363D01*
X72245Y219395D01*
X72234Y219416D01*
X72211Y219438D01*
X72166Y219494D01*
X68655Y223005D01*
X68639Y223016D01*
X68627Y223032D01*
X68540Y223088D01*
X68456Y223148D01*
X68437Y223154D01*
X68420Y223165D01*
X68319Y223190D01*
X68221Y223221D01*
X68201Y223220D01*
X68181Y223225D01*
X68078Y223217D01*
X67975Y223214D01*
X67956Y223207D01*
X67936Y223206D01*
X67841Y223165D01*
X67744Y223130D01*
X67728Y223117D01*
X67710Y223109D01*
X67579Y223005D01*
X67077Y222503D01*
X59923Y222503D01*
X54863Y227563D01*
X54863Y234717D01*
X59923Y239777D01*
X67077Y239777D01*
X72137Y234717D01*
X72137Y227563D01*
X71889Y227315D01*
X71878Y227299D01*
X71862Y227287D01*
X71806Y227199D01*
X71746Y227115D01*
X71740Y227096D01*
X71729Y227080D01*
X71704Y226979D01*
X71673Y226880D01*
X71674Y226860D01*
X71669Y226841D01*
X71677Y226738D01*
X71680Y226634D01*
X71687Y226616D01*
X71688Y226596D01*
X71729Y226501D01*
X71764Y226403D01*
X71777Y226388D01*
X71785Y226370D01*
X71889Y226239D01*
X76963Y221165D01*
X76963Y198614D01*
X69566Y191217D01*
X69513Y191143D01*
X69453Y191074D01*
X69441Y191043D01*
X69422Y191017D01*
X69395Y190930D01*
X69361Y190845D01*
X69357Y190804D01*
X69350Y190782D01*
X69351Y190750D01*
X69343Y190679D01*
X69343Y68201D01*
X69357Y68111D01*
X69365Y68020D01*
X69377Y67990D01*
X69382Y67958D01*
X69425Y67878D01*
X69461Y67794D01*
X69487Y67762D01*
X69498Y67741D01*
X69521Y67719D01*
X69566Y67663D01*
X72106Y65123D01*
X72164Y65081D01*
X72216Y65032D01*
X72263Y65010D01*
X72305Y64979D01*
X72374Y64958D01*
X72439Y64928D01*
X72491Y64922D01*
X72541Y64907D01*
X72612Y64909D01*
X72683Y64901D01*
X72734Y64912D01*
X72786Y64913D01*
X72854Y64938D01*
X72924Y64953D01*
X72969Y64980D01*
X73017Y64998D01*
X73073Y65043D01*
X73135Y65079D01*
X73169Y65119D01*
X73209Y65151D01*
X73248Y65212D01*
X73295Y65266D01*
X73314Y65314D01*
X73342Y65358D01*
X73360Y65428D01*
X73387Y65494D01*
X73395Y65566D01*
X73403Y65597D01*
X73401Y65620D01*
X73405Y65661D01*
X73405Y192717D01*
X81019Y200331D01*
X81030Y200347D01*
X81046Y200359D01*
X81102Y200446D01*
X81162Y200530D01*
X81168Y200549D01*
X81179Y200566D01*
X81204Y200667D01*
X81235Y200765D01*
X81234Y200785D01*
X81239Y200805D01*
X81231Y200908D01*
X81228Y201011D01*
X81221Y201030D01*
X81220Y201050D01*
X81179Y201145D01*
X81144Y201242D01*
X81131Y201258D01*
X81123Y201276D01*
X81019Y201407D01*
X80263Y202163D01*
X80263Y209317D01*
X85323Y214377D01*
X92477Y214377D01*
X95220Y211634D01*
X95278Y211593D01*
X95330Y211543D01*
X95377Y211521D01*
X95419Y211491D01*
X95488Y211470D01*
X95553Y211440D01*
X95605Y211434D01*
X95655Y211419D01*
X95726Y211420D01*
X95797Y211412D01*
X95848Y211424D01*
X95900Y211425D01*
X95968Y211450D01*
X96038Y211465D01*
X96083Y211491D01*
X96131Y211509D01*
X96187Y211554D01*
X96249Y211591D01*
X96283Y211630D01*
X96323Y211663D01*
X96362Y211723D01*
X96409Y211778D01*
X96428Y211826D01*
X96456Y211870D01*
X96474Y211939D01*
X96501Y212006D01*
X96509Y212077D01*
X96517Y212108D01*
X96515Y212132D01*
X96519Y212173D01*
X96519Y219209D01*
X96505Y219300D01*
X96497Y219390D01*
X96485Y219420D01*
X96480Y219452D01*
X96437Y219533D01*
X96401Y219617D01*
X96375Y219649D01*
X96364Y219670D01*
X96341Y219692D01*
X96296Y219748D01*
X93547Y222497D01*
X93531Y222508D01*
X93519Y222524D01*
X93432Y222580D01*
X93348Y222640D01*
X93329Y222646D01*
X93312Y222657D01*
X93212Y222682D01*
X93113Y222713D01*
X93093Y222712D01*
X93073Y222717D01*
X92970Y222709D01*
X92867Y222706D01*
X92848Y222699D01*
X92828Y222698D01*
X92733Y222657D01*
X92636Y222622D01*
X92620Y222609D01*
X92602Y222601D01*
X92479Y222503D01*
X85323Y222503D01*
X80263Y227563D01*
X80263Y234717D01*
X85323Y239777D01*
X92477Y239777D01*
X97537Y234717D01*
X97537Y227563D01*
X96781Y226807D01*
X96770Y226791D01*
X96754Y226779D01*
X96698Y226691D01*
X96638Y226607D01*
X96632Y226588D01*
X96621Y226572D01*
X96596Y226471D01*
X96565Y226372D01*
X96566Y226352D01*
X96561Y226333D01*
X96569Y226230D01*
X96572Y226126D01*
X96579Y226108D01*
X96580Y226088D01*
X96621Y225993D01*
X96656Y225895D01*
X96669Y225880D01*
X96677Y225862D01*
X96781Y225731D01*
X101093Y221419D01*
X101093Y198443D01*
X87854Y185204D01*
X87801Y185130D01*
X87741Y185060D01*
X87729Y185030D01*
X87710Y185004D01*
X87683Y184917D01*
X87649Y184832D01*
X87645Y184791D01*
X87638Y184769D01*
X87639Y184737D01*
X87631Y184665D01*
X87631Y62805D01*
X87645Y62715D01*
X87653Y62624D01*
X87665Y62594D01*
X87670Y62562D01*
X87713Y62482D01*
X87749Y62398D01*
X87775Y62366D01*
X87786Y62345D01*
X87809Y62323D01*
X87854Y62267D01*
X88750Y61371D01*
X88766Y61359D01*
X88778Y61344D01*
X88866Y61288D01*
X88949Y61228D01*
X88968Y61222D01*
X88985Y61211D01*
X89086Y61186D01*
X89184Y61155D01*
X89204Y61156D01*
X89224Y61151D01*
X89327Y61159D01*
X89430Y61162D01*
X89449Y61168D01*
X89469Y61170D01*
X89564Y61210D01*
X89661Y61246D01*
X89677Y61258D01*
X89695Y61266D01*
X89826Y61371D01*
X92232Y63777D01*
X92285Y63851D01*
X92345Y63921D01*
X92357Y63951D01*
X92376Y63977D01*
X92403Y64064D01*
X92437Y64149D01*
X92441Y64190D01*
X92448Y64212D01*
X92447Y64244D01*
X92455Y64316D01*
X92455Y186621D01*
X106292Y200458D01*
X106303Y200474D01*
X106319Y200486D01*
X106349Y200534D01*
X106360Y200545D01*
X106369Y200564D01*
X106375Y200573D01*
X106435Y200657D01*
X106441Y200676D01*
X106452Y200693D01*
X106477Y200794D01*
X106508Y200892D01*
X106507Y200912D01*
X106512Y200932D01*
X106504Y201035D01*
X106501Y201138D01*
X106494Y201157D01*
X106493Y201177D01*
X106452Y201272D01*
X106417Y201369D01*
X106404Y201385D01*
X106396Y201403D01*
X106292Y201534D01*
X105663Y202163D01*
X105663Y209317D01*
X110723Y214377D01*
X117877Y214377D01*
X120874Y211380D01*
X120932Y211339D01*
X120984Y211289D01*
X121031Y211267D01*
X121073Y211237D01*
X121142Y211216D01*
X121207Y211186D01*
X121259Y211180D01*
X121309Y211165D01*
X121380Y211166D01*
X121451Y211158D01*
X121502Y211170D01*
X121554Y211171D01*
X121622Y211196D01*
X121692Y211211D01*
X121737Y211237D01*
X121785Y211255D01*
X121841Y211300D01*
X121903Y211337D01*
X121937Y211376D01*
X121977Y211409D01*
X122016Y211469D01*
X122063Y211524D01*
X122082Y211572D01*
X122110Y211616D01*
X122128Y211685D01*
X122155Y211752D01*
X122163Y211823D01*
X122171Y211854D01*
X122169Y211878D01*
X122173Y211919D01*
X122173Y218701D01*
X122159Y218792D01*
X122151Y218882D01*
X122139Y218912D01*
X122134Y218944D01*
X122091Y219025D01*
X122055Y219109D01*
X122029Y219141D01*
X122018Y219162D01*
X121995Y219184D01*
X121950Y219240D01*
X118820Y222370D01*
X118804Y222381D01*
X118792Y222397D01*
X118704Y222453D01*
X118621Y222513D01*
X118602Y222519D01*
X118585Y222530D01*
X118484Y222555D01*
X118386Y222586D01*
X118366Y222585D01*
X118346Y222590D01*
X118243Y222582D01*
X118140Y222579D01*
X118121Y222572D01*
X118101Y222571D01*
X118006Y222530D01*
X117932Y222503D01*
X110723Y222503D01*
X105663Y227563D01*
X105663Y234717D01*
X110723Y239777D01*
X117877Y239777D01*
X122937Y234717D01*
X122937Y227563D01*
X122054Y226680D01*
X122043Y226664D01*
X122027Y226652D01*
X121971Y226564D01*
X121911Y226480D01*
X121905Y226461D01*
X121894Y226445D01*
X121869Y226344D01*
X121838Y226245D01*
X121839Y226225D01*
X121834Y226206D01*
X121842Y226103D01*
X121845Y225999D01*
X121852Y225981D01*
X121853Y225961D01*
X121894Y225866D01*
X121929Y225768D01*
X121942Y225753D01*
X121950Y225735D01*
X122054Y225604D01*
X126747Y220911D01*
X126747Y193363D01*
X104110Y170726D01*
X104057Y170652D01*
X103997Y170582D01*
X103985Y170552D01*
X103966Y170526D01*
X103939Y170439D01*
X103905Y170354D01*
X103901Y170313D01*
X103894Y170291D01*
X103895Y170259D01*
X103887Y170187D01*
X103887Y59010D01*
X103898Y58939D01*
X103900Y58867D01*
X103918Y58818D01*
X103926Y58767D01*
X103960Y58704D01*
X103985Y58636D01*
X104017Y58596D01*
X104042Y58550D01*
X104094Y58500D01*
X104138Y58444D01*
X104182Y58416D01*
X104220Y58380D01*
X104285Y58350D01*
X104345Y58311D01*
X104396Y58299D01*
X104443Y58277D01*
X104514Y58269D01*
X104584Y58251D01*
X104636Y58255D01*
X104687Y58250D01*
X104758Y58265D01*
X104829Y58270D01*
X104877Y58291D01*
X104928Y58302D01*
X104989Y58339D01*
X105055Y58367D01*
X105111Y58412D01*
X105139Y58428D01*
X105154Y58446D01*
X105186Y58471D01*
X105470Y58755D01*
X105664Y58755D01*
X105684Y58758D01*
X105703Y58756D01*
X105805Y58778D01*
X105907Y58795D01*
X105924Y58804D01*
X105944Y58808D01*
X106033Y58862D01*
X106124Y58910D01*
X106138Y58924D01*
X106155Y58935D01*
X106222Y59013D01*
X106294Y59088D01*
X106302Y59106D01*
X106315Y59121D01*
X106354Y59218D01*
X106397Y59311D01*
X106399Y59331D01*
X106407Y59350D01*
X106425Y59516D01*
X106425Y170619D01*
X107988Y172182D01*
X133978Y198172D01*
X133989Y198188D01*
X134005Y198200D01*
X134035Y198247D01*
X134048Y198261D01*
X134059Y198285D01*
X134061Y198288D01*
X134121Y198371D01*
X134127Y198390D01*
X134138Y198407D01*
X134163Y198508D01*
X134194Y198606D01*
X134193Y198626D01*
X134198Y198646D01*
X134190Y198749D01*
X134187Y198852D01*
X134180Y198871D01*
X134179Y198891D01*
X134138Y198986D01*
X134103Y199083D01*
X134090Y199099D01*
X134082Y199117D01*
X133978Y199248D01*
X131063Y202163D01*
X131063Y209317D01*
X136123Y214377D01*
X143277Y214377D01*
X146782Y210872D01*
X146840Y210831D01*
X146892Y210781D01*
X146939Y210759D01*
X146981Y210729D01*
X147050Y210708D01*
X147115Y210678D01*
X147167Y210672D01*
X147217Y210657D01*
X147288Y210658D01*
X147359Y210650D01*
X147410Y210662D01*
X147462Y210663D01*
X147530Y210688D01*
X147600Y210703D01*
X147645Y210729D01*
X147693Y210747D01*
X147749Y210792D01*
X147811Y210829D01*
X147845Y210868D01*
X147885Y210901D01*
X147924Y210961D01*
X147971Y211016D01*
X147990Y211064D01*
X148018Y211108D01*
X148036Y211177D01*
X148063Y211244D01*
X148071Y211315D01*
X148079Y211346D01*
X148077Y211370D01*
X148081Y211411D01*
X148081Y218701D01*
X148067Y218792D01*
X148059Y218882D01*
X148047Y218912D01*
X148042Y218944D01*
X147999Y219025D01*
X147963Y219109D01*
X147937Y219141D01*
X147926Y219162D01*
X147903Y219184D01*
X147858Y219240D01*
X144474Y222624D01*
X144458Y222635D01*
X144446Y222651D01*
X144358Y222707D01*
X144275Y222767D01*
X144256Y222773D01*
X144239Y222784D01*
X144138Y222809D01*
X144040Y222840D01*
X144020Y222839D01*
X144000Y222844D01*
X143897Y222836D01*
X143794Y222833D01*
X143775Y222826D01*
X143755Y222825D01*
X143660Y222784D01*
X143563Y222749D01*
X143547Y222736D01*
X143529Y222728D01*
X143398Y222624D01*
X143277Y222503D01*
X136123Y222503D01*
X131063Y227563D01*
X131063Y234717D01*
X136123Y239777D01*
X143277Y239777D01*
X148337Y234717D01*
X148337Y227563D01*
X147708Y226934D01*
X147697Y226918D01*
X147681Y226906D01*
X147625Y226818D01*
X147565Y226734D01*
X147559Y226715D01*
X147548Y226699D01*
X147523Y226598D01*
X147492Y226499D01*
X147493Y226479D01*
X147488Y226460D01*
X147496Y226357D01*
X147499Y226253D01*
X147506Y226235D01*
X147507Y226215D01*
X147548Y226120D01*
X147583Y226022D01*
X147596Y226007D01*
X147604Y225989D01*
X147708Y225858D01*
X152655Y220911D01*
X152655Y195572D01*
X152666Y195502D01*
X152668Y195430D01*
X152686Y195381D01*
X152694Y195330D01*
X152728Y195266D01*
X152753Y195199D01*
X152785Y195158D01*
X152810Y195112D01*
X152861Y195063D01*
X152906Y195007D01*
X152950Y194979D01*
X152988Y194943D01*
X153053Y194913D01*
X153113Y194874D01*
X153164Y194861D01*
X153211Y194839D01*
X153282Y194831D01*
X153352Y194814D01*
X153404Y194818D01*
X153455Y194812D01*
X153526Y194827D01*
X153597Y194833D01*
X153645Y194853D01*
X153696Y194864D01*
X153757Y194901D01*
X153823Y194929D01*
X153879Y194974D01*
X153907Y194991D01*
X153922Y195008D01*
X153954Y195034D01*
X158235Y199315D01*
X158246Y199331D01*
X158262Y199343D01*
X158318Y199431D01*
X158378Y199514D01*
X158384Y199533D01*
X158395Y199550D01*
X158420Y199651D01*
X158451Y199749D01*
X158450Y199769D01*
X158455Y199789D01*
X158447Y199892D01*
X158444Y199995D01*
X158437Y200014D01*
X158436Y200034D01*
X158395Y200129D01*
X158360Y200226D01*
X158347Y200242D01*
X158339Y200260D01*
X158235Y200391D01*
X156463Y202163D01*
X156463Y209317D01*
X161523Y214377D01*
X168677Y214377D01*
X173579Y209475D01*
X173637Y209434D01*
X173689Y209384D01*
X173736Y209362D01*
X173778Y209332D01*
X173847Y209311D01*
X173912Y209281D01*
X173964Y209275D01*
X174014Y209260D01*
X174085Y209261D01*
X174156Y209253D01*
X174207Y209265D01*
X174259Y209266D01*
X174327Y209291D01*
X174397Y209306D01*
X174442Y209332D01*
X174490Y209350D01*
X174546Y209395D01*
X174608Y209432D01*
X174642Y209471D01*
X174682Y209504D01*
X174721Y209564D01*
X174768Y209619D01*
X174787Y209667D01*
X174815Y209711D01*
X174833Y209780D01*
X174860Y209847D01*
X174868Y209918D01*
X174876Y209949D01*
X174874Y209973D01*
X174878Y210014D01*
X174878Y216288D01*
X174864Y216379D01*
X174856Y216469D01*
X174844Y216499D01*
X174839Y216531D01*
X174796Y216612D01*
X174760Y216696D01*
X174734Y216728D01*
X174723Y216749D01*
X174700Y216771D01*
X174655Y216827D01*
X169202Y222280D01*
X169128Y222333D01*
X169058Y222393D01*
X169028Y222405D01*
X169002Y222424D01*
X168915Y222451D01*
X168830Y222485D01*
X168789Y222489D01*
X168767Y222496D01*
X168735Y222495D01*
X168663Y222503D01*
X161523Y222503D01*
X156463Y227563D01*
X156463Y234717D01*
X161523Y239777D01*
X168677Y239777D01*
X173737Y234717D01*
X173737Y227563D01*
X172600Y226426D01*
X172589Y226410D01*
X172573Y226398D01*
X172517Y226310D01*
X172457Y226226D01*
X172451Y226207D01*
X172440Y226191D01*
X172415Y226090D01*
X172384Y225991D01*
X172385Y225971D01*
X172380Y225952D01*
X172388Y225849D01*
X172391Y225745D01*
X172398Y225727D01*
X172399Y225707D01*
X172440Y225612D01*
X172475Y225514D01*
X172488Y225499D01*
X172496Y225481D01*
X172600Y225350D01*
X179452Y218498D01*
X179452Y197477D01*
X179463Y197407D01*
X179465Y197335D01*
X179483Y197286D01*
X179491Y197235D01*
X179525Y197171D01*
X179550Y197104D01*
X179582Y197063D01*
X179607Y197017D01*
X179659Y196968D01*
X179703Y196912D01*
X179747Y196884D01*
X179785Y196848D01*
X179850Y196818D01*
X179910Y196779D01*
X179961Y196766D01*
X180008Y196744D01*
X180079Y196736D01*
X180149Y196719D01*
X180201Y196723D01*
X180252Y196717D01*
X180323Y196732D01*
X180394Y196738D01*
X180442Y196758D01*
X180493Y196769D01*
X180554Y196806D01*
X180620Y196834D01*
X180676Y196879D01*
X180704Y196896D01*
X180719Y196913D01*
X180751Y196939D01*
X183381Y199569D01*
X183392Y199585D01*
X183408Y199597D01*
X183464Y199684D01*
X183524Y199768D01*
X183530Y199787D01*
X183541Y199804D01*
X183566Y199904D01*
X183597Y200003D01*
X183596Y200023D01*
X183601Y200043D01*
X183593Y200146D01*
X183590Y200249D01*
X183583Y200268D01*
X183582Y200288D01*
X183541Y200383D01*
X183506Y200480D01*
X183493Y200496D01*
X183485Y200514D01*
X183381Y200645D01*
X181863Y202163D01*
X181863Y209317D01*
X186923Y214377D01*
X194077Y214377D01*
X199137Y209317D01*
X199137Y202163D01*
X194077Y197103D01*
X187699Y197103D01*
X187608Y197089D01*
X187518Y197081D01*
X187488Y197069D01*
X187456Y197064D01*
X187375Y197021D01*
X187291Y196985D01*
X187259Y196959D01*
X187238Y196948D01*
X187216Y196925D01*
X187160Y196880D01*
X146782Y156502D01*
X146729Y156428D01*
X146669Y156358D01*
X146657Y156328D01*
X146638Y156302D01*
X146611Y156215D01*
X146577Y156130D01*
X146573Y156089D01*
X146566Y156067D01*
X146567Y156035D01*
X146559Y155963D01*
X146559Y155694D01*
X146570Y155624D01*
X146572Y155552D01*
X146590Y155503D01*
X146598Y155452D01*
X146632Y155388D01*
X146657Y155321D01*
X146689Y155280D01*
X146714Y155234D01*
X146765Y155185D01*
X146810Y155129D01*
X146854Y155101D01*
X146892Y155065D01*
X146957Y155035D01*
X147017Y154996D01*
X147068Y154983D01*
X147115Y154961D01*
X147186Y154953D01*
X147256Y154936D01*
X147308Y154940D01*
X147359Y154934D01*
X147430Y154949D01*
X147501Y154955D01*
X147549Y154975D01*
X147600Y154986D01*
X147661Y155023D01*
X147727Y155051D01*
X147783Y155096D01*
X147811Y155113D01*
X147826Y155130D01*
X147858Y155156D01*
X185958Y193256D01*
X187521Y194819D01*
X196349Y194819D01*
X196440Y194833D01*
X196530Y194841D01*
X196560Y194853D01*
X196592Y194858D01*
X196673Y194901D01*
X196757Y194937D01*
X196789Y194963D01*
X196810Y194974D01*
X196832Y194997D01*
X196888Y195042D01*
X200690Y198844D01*
X200743Y198918D01*
X200803Y198988D01*
X200815Y199018D01*
X200834Y199044D01*
X200861Y199131D01*
X200895Y199216D01*
X200899Y199257D01*
X200906Y199279D01*
X200905Y199311D01*
X200913Y199383D01*
X200913Y216415D01*
X200899Y216506D01*
X200891Y216596D01*
X200879Y216626D01*
X200874Y216658D01*
X200831Y216739D01*
X200795Y216823D01*
X200769Y216855D01*
X200758Y216876D01*
X200735Y216898D01*
X200690Y216954D01*
X195147Y222497D01*
X195131Y222508D01*
X195119Y222524D01*
X195032Y222580D01*
X194948Y222640D01*
X194929Y222646D01*
X194912Y222657D01*
X194811Y222682D01*
X194713Y222713D01*
X194693Y222712D01*
X194673Y222717D01*
X194570Y222709D01*
X194467Y222706D01*
X194448Y222699D01*
X194428Y222698D01*
X194333Y222657D01*
X194236Y222622D01*
X194220Y222609D01*
X194202Y222601D01*
X194079Y222503D01*
X186923Y222503D01*
X181863Y227563D01*
X181863Y234717D01*
X186923Y239777D01*
X194077Y239777D01*
X199137Y234717D01*
X199137Y227563D01*
X198381Y226807D01*
X198370Y226791D01*
X198354Y226779D01*
X198298Y226691D01*
X198238Y226607D01*
X198232Y226588D01*
X198221Y226572D01*
X198196Y226471D01*
X198165Y226372D01*
X198166Y226352D01*
X198161Y226333D01*
X198169Y226230D01*
X198172Y226126D01*
X198179Y226108D01*
X198180Y226088D01*
X198221Y225993D01*
X198256Y225895D01*
X198269Y225880D01*
X198277Y225862D01*
X198381Y225731D01*
X205487Y218625D01*
X205487Y200398D01*
X205498Y200328D01*
X205500Y200256D01*
X205518Y200207D01*
X205526Y200156D01*
X205560Y200092D01*
X205585Y200025D01*
X205617Y199984D01*
X205642Y199938D01*
X205694Y199889D01*
X205738Y199833D01*
X205782Y199805D01*
X205820Y199769D01*
X205885Y199739D01*
X205945Y199700D01*
X205996Y199687D01*
X206043Y199665D01*
X206114Y199657D01*
X206184Y199640D01*
X206236Y199644D01*
X206287Y199638D01*
X206358Y199653D01*
X206429Y199659D01*
X206477Y199679D01*
X206528Y199690D01*
X206589Y199727D01*
X206655Y199755D01*
X206711Y199800D01*
X206739Y199817D01*
X206754Y199834D01*
X206786Y199860D01*
X207638Y200712D01*
X207649Y200728D01*
X207665Y200740D01*
X207721Y200827D01*
X207781Y200911D01*
X207787Y200930D01*
X207798Y200947D01*
X207823Y201047D01*
X207854Y201146D01*
X207853Y201166D01*
X207858Y201186D01*
X207850Y201289D01*
X207847Y201392D01*
X207840Y201411D01*
X207839Y201431D01*
X207798Y201526D01*
X207763Y201623D01*
X207750Y201639D01*
X207742Y201657D01*
X207638Y201788D01*
X207263Y202163D01*
X207263Y209317D01*
X212323Y214377D01*
X219477Y214377D01*
X224537Y209317D01*
X224537Y202163D01*
X219477Y197103D01*
X212323Y197103D01*
X211948Y197478D01*
X211932Y197489D01*
X211920Y197505D01*
X211832Y197561D01*
X211748Y197621D01*
X211729Y197627D01*
X211713Y197638D01*
X211612Y197663D01*
X211513Y197694D01*
X211493Y197693D01*
X211474Y197698D01*
X211371Y197690D01*
X211267Y197687D01*
X211249Y197680D01*
X211229Y197679D01*
X211134Y197638D01*
X211036Y197603D01*
X211021Y197590D01*
X211003Y197583D01*
X210872Y197478D01*
X208242Y194848D01*
X208200Y194790D01*
X208151Y194738D01*
X208129Y194691D01*
X208099Y194649D01*
X208078Y194580D01*
X208047Y194515D01*
X208042Y194463D01*
X208026Y194413D01*
X208028Y194342D01*
X208020Y194271D01*
X208031Y194220D01*
X208033Y194168D01*
X208057Y194100D01*
X208072Y194030D01*
X208099Y193985D01*
X208117Y193937D01*
X208162Y193881D01*
X208199Y193819D01*
X208238Y193785D01*
X208271Y193745D01*
X208331Y193706D01*
X208386Y193659D01*
X208434Y193640D01*
X208478Y193612D01*
X208547Y193594D01*
X208614Y193567D01*
X208685Y193559D01*
X208716Y193551D01*
X208740Y193553D01*
X208780Y193549D01*
X218193Y193549D01*
X218284Y193563D01*
X218374Y193571D01*
X218404Y193583D01*
X218436Y193588D01*
X218517Y193631D01*
X218601Y193667D01*
X218633Y193693D01*
X218654Y193704D01*
X218676Y193727D01*
X218732Y193772D01*
X226852Y201892D01*
X226905Y201966D01*
X226965Y202036D01*
X226977Y202066D01*
X226996Y202092D01*
X227023Y202179D01*
X227057Y202264D01*
X227061Y202305D01*
X227068Y202327D01*
X227067Y202359D01*
X227075Y202431D01*
X227075Y217685D01*
X227061Y217776D01*
X227053Y217866D01*
X227041Y217896D01*
X227036Y217928D01*
X226993Y218009D01*
X226957Y218093D01*
X226931Y218125D01*
X226920Y218146D01*
X226897Y218168D01*
X226852Y218224D01*
X221563Y223513D01*
X221547Y223524D01*
X221535Y223540D01*
X221447Y223596D01*
X221364Y223656D01*
X221345Y223662D01*
X221328Y223673D01*
X221227Y223698D01*
X221129Y223729D01*
X221109Y223728D01*
X221089Y223733D01*
X220986Y223725D01*
X220883Y223722D01*
X220864Y223715D01*
X220844Y223714D01*
X220749Y223673D01*
X220652Y223638D01*
X220636Y223625D01*
X220618Y223617D01*
X220487Y223513D01*
X219477Y222503D01*
X212323Y222503D01*
X207263Y227563D01*
X207263Y234717D01*
X212323Y239777D01*
X219477Y239777D01*
X224537Y234717D01*
X224537Y227323D01*
X224551Y227232D01*
X224559Y227142D01*
X224571Y227112D01*
X224576Y227080D01*
X224619Y226999D01*
X224655Y226915D01*
X224681Y226883D01*
X224692Y226862D01*
X224715Y226840D01*
X224760Y226784D01*
X231649Y219895D01*
X231649Y210141D01*
X231660Y210070D01*
X231662Y209998D01*
X231680Y209949D01*
X231688Y209898D01*
X231722Y209835D01*
X231747Y209767D01*
X231779Y209727D01*
X231804Y209681D01*
X231856Y209631D01*
X231900Y209575D01*
X231944Y209547D01*
X231982Y209511D01*
X232047Y209481D01*
X232107Y209442D01*
X232158Y209430D01*
X232205Y209408D01*
X232276Y209400D01*
X232346Y209382D01*
X232398Y209386D01*
X232449Y209380D01*
X232520Y209396D01*
X232591Y209401D01*
X232639Y209422D01*
X232690Y209433D01*
X232751Y209470D01*
X232817Y209498D01*
X232873Y209542D01*
X232901Y209559D01*
X232916Y209577D01*
X232948Y209602D01*
X237723Y214377D01*
X244877Y214377D01*
X249937Y209317D01*
X249937Y202163D01*
X244877Y197103D01*
X237723Y197103D01*
X232948Y201878D01*
X232890Y201919D01*
X232838Y201969D01*
X232791Y201991D01*
X232749Y202021D01*
X232680Y202042D01*
X232615Y202072D01*
X232563Y202078D01*
X232513Y202093D01*
X232442Y202092D01*
X232371Y202100D01*
X232320Y202088D01*
X232268Y202087D01*
X232200Y202062D01*
X232130Y202047D01*
X232085Y202021D01*
X232037Y202003D01*
X231981Y201958D01*
X231919Y201921D01*
X231885Y201882D01*
X231845Y201849D01*
X231806Y201789D01*
X231759Y201734D01*
X231740Y201686D01*
X231712Y201642D01*
X231694Y201573D01*
X231667Y201506D01*
X231659Y201435D01*
X231651Y201404D01*
X231653Y201380D01*
X231649Y201339D01*
X231649Y200221D01*
X220403Y188975D01*
X207812Y188975D01*
X207721Y188961D01*
X207631Y188953D01*
X207601Y188941D01*
X207569Y188936D01*
X207488Y188893D01*
X207404Y188857D01*
X207372Y188831D01*
X207351Y188820D01*
X207329Y188797D01*
X207273Y188752D01*
X180294Y161773D01*
X180252Y161715D01*
X180203Y161663D01*
X180181Y161615D01*
X180150Y161573D01*
X180129Y161505D01*
X180099Y161440D01*
X180093Y161388D01*
X180078Y161338D01*
X180080Y161266D01*
X180072Y161195D01*
X180083Y161144D01*
X180084Y161092D01*
X180109Y161025D01*
X180124Y160955D01*
X180151Y160910D01*
X180169Y160861D01*
X180214Y160805D01*
X180250Y160744D01*
X180290Y160710D01*
X180323Y160669D01*
X180383Y160631D01*
X180437Y160584D01*
X180486Y160564D01*
X180530Y160536D01*
X180599Y160519D01*
X180666Y160492D01*
X180737Y160484D01*
X180768Y160476D01*
X180791Y160478D01*
X180832Y160473D01*
X183781Y160473D01*
X186889Y157365D01*
X186889Y152969D01*
X184374Y150453D01*
X184321Y150379D01*
X184261Y150309D01*
X184249Y150279D01*
X184230Y150253D01*
X184203Y150166D01*
X184169Y150081D01*
X184165Y150040D01*
X184158Y150018D01*
X184159Y149986D01*
X184151Y149915D01*
X184151Y23691D01*
X182588Y22128D01*
X164046Y3586D01*
X164004Y3528D01*
X163955Y3476D01*
X163933Y3429D01*
X163903Y3387D01*
X163882Y3318D01*
X163851Y3253D01*
X163846Y3201D01*
X163830Y3151D01*
X163832Y3080D01*
X163824Y3009D01*
X163835Y2958D01*
X163837Y2906D01*
X163861Y2838D01*
X163876Y2768D01*
X163903Y2724D01*
X163921Y2675D01*
X163966Y2619D01*
X164003Y2557D01*
X164042Y2523D01*
X164075Y2483D01*
X164135Y2444D01*
X164190Y2397D01*
X164238Y2378D01*
X164282Y2350D01*
X164351Y2332D01*
X164418Y2305D01*
X164489Y2297D01*
X164520Y2289D01*
X164544Y2291D01*
X164584Y2287D01*
X165100Y2287D01*
X165122Y2290D01*
G37*
G36*
X47068Y2298D02*
X47068Y2298D01*
X47140Y2300D01*
X47189Y2318D01*
X47240Y2326D01*
X47304Y2360D01*
X47371Y2385D01*
X47412Y2417D01*
X47458Y2442D01*
X47507Y2494D01*
X47563Y2538D01*
X47591Y2582D01*
X47627Y2620D01*
X47657Y2685D01*
X47696Y2745D01*
X47709Y2796D01*
X47731Y2843D01*
X47739Y2914D01*
X47756Y2984D01*
X47752Y3036D01*
X47758Y3087D01*
X47743Y3158D01*
X47737Y3229D01*
X47717Y3277D01*
X47706Y3328D01*
X47669Y3389D01*
X47641Y3455D01*
X47596Y3511D01*
X47579Y3539D01*
X47562Y3554D01*
X47536Y3586D01*
X41663Y9459D01*
X41645Y9472D01*
X41631Y9489D01*
X41547Y9543D01*
X41516Y9569D01*
X41503Y9574D01*
X41463Y9603D01*
X41442Y9609D01*
X41424Y9621D01*
X41329Y9644D01*
X41288Y9661D01*
X41267Y9663D01*
X41228Y9675D01*
X41206Y9675D01*
X41185Y9680D01*
X41145Y9677D01*
X41121Y9679D01*
X36410Y9679D01*
X33301Y12788D01*
X33301Y13915D01*
X33290Y13986D01*
X33288Y14058D01*
X33270Y14107D01*
X33262Y14158D01*
X33228Y14221D01*
X33203Y14289D01*
X33171Y14329D01*
X33146Y14375D01*
X33094Y14425D01*
X33050Y14481D01*
X33006Y14509D01*
X32968Y14545D01*
X32903Y14575D01*
X32843Y14614D01*
X32792Y14626D01*
X32745Y14648D01*
X32674Y14656D01*
X32604Y14674D01*
X32552Y14670D01*
X32501Y14675D01*
X32430Y14660D01*
X32359Y14655D01*
X32311Y14634D01*
X32260Y14623D01*
X32199Y14586D01*
X32133Y14558D01*
X32077Y14514D01*
X32049Y14497D01*
X32034Y14479D01*
X32002Y14454D01*
X30800Y13252D01*
X27626Y11937D01*
X24190Y11937D01*
X21016Y13252D01*
X18586Y15682D01*
X17271Y18856D01*
X17271Y36516D01*
X18586Y39690D01*
X21016Y42120D01*
X21380Y42271D01*
X21419Y42295D01*
X21462Y42311D01*
X21523Y42359D01*
X21589Y42400D01*
X21618Y42436D01*
X21654Y42464D01*
X21696Y42530D01*
X21746Y42590D01*
X21762Y42633D01*
X21787Y42671D01*
X21806Y42747D01*
X21834Y42819D01*
X21836Y42865D01*
X21847Y42910D01*
X21841Y42987D01*
X21844Y43065D01*
X21832Y43109D01*
X21828Y43155D01*
X21798Y43226D01*
X21776Y43301D01*
X21750Y43339D01*
X21732Y43381D01*
X21646Y43488D01*
X21636Y43503D01*
X21632Y43506D01*
X21627Y43512D01*
X19839Y45300D01*
X19839Y49558D01*
X19836Y49578D01*
X19838Y49597D01*
X19816Y49699D01*
X19800Y49801D01*
X19790Y49818D01*
X19786Y49838D01*
X19733Y49927D01*
X19684Y50018D01*
X19670Y50032D01*
X19660Y50049D01*
X19581Y50116D01*
X19506Y50188D01*
X19488Y50196D01*
X19473Y50209D01*
X19377Y50248D01*
X19283Y50291D01*
X19263Y50293D01*
X19245Y50301D01*
X19078Y50319D01*
X18376Y50319D01*
X15579Y53116D01*
X15505Y53169D01*
X15435Y53229D01*
X15405Y53241D01*
X15379Y53260D01*
X15292Y53287D01*
X15207Y53321D01*
X15166Y53325D01*
X15144Y53332D01*
X15112Y53331D01*
X15041Y53339D01*
X8959Y53339D01*
X-3557Y65855D01*
X-3557Y100845D01*
X-3571Y100936D01*
X-3579Y101026D01*
X-3591Y101056D01*
X-3596Y101088D01*
X-3639Y101169D01*
X-3675Y101253D01*
X-3701Y101285D01*
X-3712Y101306D01*
X-3735Y101328D01*
X-3780Y101384D01*
X-65787Y163391D01*
X-65787Y196342D01*
X-65790Y196362D01*
X-65788Y196381D01*
X-65810Y196483D01*
X-65826Y196585D01*
X-65836Y196602D01*
X-65840Y196622D01*
X-65893Y196711D01*
X-65942Y196802D01*
X-65956Y196816D01*
X-65966Y196833D01*
X-66045Y196900D01*
X-66120Y196972D01*
X-66138Y196980D01*
X-66153Y196993D01*
X-66249Y197032D01*
X-66343Y197075D01*
X-66363Y197077D01*
X-66381Y197085D01*
X-66548Y197103D01*
X-67077Y197103D01*
X-70074Y200100D01*
X-70132Y200141D01*
X-70184Y200191D01*
X-70231Y200213D01*
X-70273Y200243D01*
X-70342Y200264D01*
X-70407Y200294D01*
X-70459Y200300D01*
X-70509Y200315D01*
X-70580Y200314D01*
X-70651Y200322D01*
X-70702Y200310D01*
X-70754Y200309D01*
X-70822Y200284D01*
X-70892Y200269D01*
X-70937Y200243D01*
X-70985Y200225D01*
X-71041Y200180D01*
X-71103Y200143D01*
X-71137Y200104D01*
X-71177Y200071D01*
X-71216Y200011D01*
X-71263Y199956D01*
X-71282Y199908D01*
X-71310Y199864D01*
X-71328Y199795D01*
X-71355Y199728D01*
X-71363Y199657D01*
X-71371Y199626D01*
X-71369Y199602D01*
X-71373Y199561D01*
X-71373Y114300D01*
X-71369Y114274D01*
X-71370Y114225D01*
X-71184Y112342D01*
X-71177Y112315D01*
X-71177Y112287D01*
X-71130Y112126D01*
X-69689Y108646D01*
X-69654Y108591D01*
X-69628Y108530D01*
X-69576Y108465D01*
X-69559Y108437D01*
X-69544Y108425D01*
X-69524Y108399D01*
X-66861Y105736D01*
X-66808Y105698D01*
X-66761Y105652D01*
X-66688Y105612D01*
X-66661Y105593D01*
X-66642Y105587D01*
X-66614Y105571D01*
X-63134Y104130D01*
X-63107Y104124D01*
X-63082Y104111D01*
X-62918Y104076D01*
X-61035Y103890D01*
X-61008Y103892D01*
X-60960Y103887D01*
X-17339Y103887D01*
X-11831Y101605D01*
X-7615Y97389D01*
X-5333Y91881D01*
X-5333Y22860D01*
X-5330Y22838D01*
X-5331Y22800D01*
X-5087Y19701D01*
X-5086Y19695D01*
X-5086Y19690D01*
X-5052Y19525D01*
X-3137Y13630D01*
X-3120Y13598D01*
X-3112Y13564D01*
X-3029Y13418D01*
X615Y8403D01*
X640Y8378D01*
X659Y8348D01*
X783Y8235D01*
X5798Y4591D01*
X5830Y4575D01*
X5857Y4552D01*
X6010Y4483D01*
X11905Y2568D01*
X11911Y2567D01*
X11916Y2564D01*
X12081Y2533D01*
X15180Y2289D01*
X15202Y2291D01*
X15240Y2287D01*
X46998Y2287D01*
X47068Y2298D01*
G37*
G36*
X145871Y12204D02*
X145871Y12204D01*
X145943Y12206D01*
X145992Y12224D01*
X146043Y12232D01*
X146107Y12266D01*
X146174Y12291D01*
X146215Y12323D01*
X146261Y12348D01*
X146310Y12400D01*
X146366Y12444D01*
X146394Y12488D01*
X146430Y12526D01*
X146460Y12591D01*
X146499Y12651D01*
X146512Y12702D01*
X146534Y12749D01*
X146541Y12820D01*
X146559Y12890D01*
X146555Y12942D01*
X146561Y12993D01*
X146545Y13064D01*
X146540Y13135D01*
X146519Y13183D01*
X146508Y13234D01*
X146472Y13295D01*
X146444Y13361D01*
X146399Y13417D01*
X146382Y13445D01*
X146364Y13460D01*
X146339Y13492D01*
X145545Y14286D01*
X144652Y15515D01*
X143962Y16869D01*
X143493Y18314D01*
X143255Y19814D01*
X143255Y26163D01*
X152146Y26163D01*
X152166Y26166D01*
X152185Y26164D01*
X152287Y26186D01*
X152389Y26203D01*
X152406Y26212D01*
X152426Y26216D01*
X152515Y26269D01*
X152606Y26318D01*
X152620Y26332D01*
X152637Y26342D01*
X152704Y26421D01*
X152775Y26496D01*
X152784Y26514D01*
X152797Y26529D01*
X152835Y26625D01*
X152879Y26719D01*
X152881Y26739D01*
X152889Y26757D01*
X152907Y26924D01*
X152907Y27687D01*
X152909Y27687D01*
X152909Y26924D01*
X152912Y26904D01*
X152910Y26885D01*
X152932Y26783D01*
X152949Y26681D01*
X152958Y26664D01*
X152962Y26644D01*
X153015Y26555D01*
X153064Y26464D01*
X153078Y26450D01*
X153088Y26433D01*
X153167Y26366D01*
X153242Y26295D01*
X153260Y26286D01*
X153275Y26273D01*
X153371Y26234D01*
X153465Y26191D01*
X153485Y26189D01*
X153503Y26181D01*
X153670Y26163D01*
X162561Y26163D01*
X162561Y19814D01*
X162436Y19028D01*
X162436Y19020D01*
X162434Y19012D01*
X162437Y18896D01*
X162437Y18782D01*
X162440Y18774D01*
X162440Y18766D01*
X162480Y18657D01*
X162517Y18549D01*
X162522Y18543D01*
X162525Y18535D01*
X162597Y18445D01*
X162667Y18354D01*
X162673Y18349D01*
X162678Y18343D01*
X162776Y18281D01*
X162871Y18216D01*
X162879Y18214D01*
X162885Y18210D01*
X162997Y18182D01*
X163108Y18151D01*
X163116Y18152D01*
X163124Y18150D01*
X163238Y18159D01*
X163354Y18165D01*
X163361Y18168D01*
X163369Y18169D01*
X163474Y18214D01*
X163582Y18257D01*
X163588Y18262D01*
X163595Y18265D01*
X163726Y18370D01*
X166654Y21298D01*
X166707Y21372D01*
X166767Y21442D01*
X166779Y21472D01*
X166798Y21498D01*
X166825Y21585D01*
X166859Y21670D01*
X166863Y21711D01*
X166870Y21733D01*
X166869Y21765D01*
X166877Y21837D01*
X166877Y133659D01*
X166863Y133749D01*
X166855Y133840D01*
X166843Y133869D01*
X166838Y133901D01*
X166795Y133982D01*
X166759Y134066D01*
X166733Y134098D01*
X166722Y134119D01*
X166699Y134141D01*
X166654Y134197D01*
X163857Y136994D01*
X163857Y141390D01*
X166966Y144499D01*
X169700Y144499D01*
X169720Y144502D01*
X169739Y144500D01*
X169841Y144522D01*
X169943Y144538D01*
X169960Y144548D01*
X169980Y144552D01*
X170069Y144605D01*
X170160Y144654D01*
X170174Y144668D01*
X170191Y144678D01*
X170258Y144757D01*
X170330Y144832D01*
X170338Y144850D01*
X170351Y144865D01*
X170390Y144961D01*
X170433Y145055D01*
X170435Y145075D01*
X170443Y145093D01*
X170461Y145260D01*
X170461Y149010D01*
X173570Y152119D01*
X175515Y152119D01*
X175534Y152122D01*
X175554Y152120D01*
X175655Y152142D01*
X175758Y152158D01*
X175775Y152168D01*
X175795Y152172D01*
X175884Y152225D01*
X175975Y152274D01*
X175989Y152288D01*
X176006Y152298D01*
X176073Y152377D01*
X176144Y152452D01*
X176153Y152470D01*
X176166Y152485D01*
X176204Y152581D01*
X176248Y152675D01*
X176250Y152695D01*
X176258Y152713D01*
X176276Y152880D01*
X176276Y155917D01*
X176264Y155988D01*
X176263Y156060D01*
X176245Y156109D01*
X176236Y156160D01*
X176203Y156223D01*
X176178Y156291D01*
X176146Y156331D01*
X176121Y156377D01*
X176069Y156427D01*
X176024Y156483D01*
X175981Y156511D01*
X175943Y156547D01*
X175878Y156577D01*
X175818Y156616D01*
X175767Y156628D01*
X175720Y156650D01*
X175649Y156658D01*
X175579Y156676D01*
X175527Y156672D01*
X175475Y156677D01*
X175405Y156662D01*
X175334Y156657D01*
X175286Y156636D01*
X175235Y156625D01*
X175173Y156588D01*
X175107Y156560D01*
X175052Y156516D01*
X175024Y156499D01*
X175009Y156481D01*
X174976Y156456D01*
X161006Y142485D01*
X160953Y142411D01*
X160893Y142341D01*
X160881Y142311D01*
X160862Y142285D01*
X160835Y142198D01*
X160801Y142113D01*
X160797Y142072D01*
X160790Y142050D01*
X160791Y142018D01*
X160783Y141946D01*
X160783Y77895D01*
X147044Y64156D01*
X146991Y64082D01*
X146931Y64012D01*
X146919Y63982D01*
X146900Y63956D01*
X146873Y63869D01*
X146839Y63784D01*
X146835Y63743D01*
X146828Y63721D01*
X146829Y63689D01*
X146821Y63617D01*
X146821Y59662D01*
X143976Y56817D01*
X143965Y56801D01*
X143949Y56789D01*
X143893Y56702D01*
X143833Y56618D01*
X143827Y56599D01*
X143816Y56582D01*
X143791Y56481D01*
X143760Y56383D01*
X143761Y56363D01*
X143756Y56343D01*
X143764Y56240D01*
X143767Y56137D01*
X143774Y56118D01*
X143775Y56098D01*
X143816Y56003D01*
X143851Y55906D01*
X143864Y55890D01*
X143872Y55872D01*
X143976Y55741D01*
X144747Y54970D01*
X144747Y50574D01*
X141639Y47465D01*
X138212Y47465D01*
X138192Y47462D01*
X138173Y47464D01*
X138071Y47442D01*
X137969Y47425D01*
X137952Y47416D01*
X137932Y47412D01*
X137843Y47359D01*
X137752Y47310D01*
X137738Y47296D01*
X137721Y47286D01*
X137654Y47207D01*
X137582Y47132D01*
X137574Y47114D01*
X137561Y47099D01*
X137522Y47003D01*
X137479Y46909D01*
X137477Y46889D01*
X137469Y46871D01*
X137451Y46704D01*
X137451Y45018D01*
X134329Y41896D01*
X134306Y41896D01*
X134257Y41878D01*
X134206Y41870D01*
X134143Y41836D01*
X134075Y41811D01*
X134035Y41779D01*
X133989Y41754D01*
X133939Y41702D01*
X133883Y41658D01*
X133855Y41614D01*
X133819Y41576D01*
X133789Y41511D01*
X133750Y41451D01*
X133738Y41400D01*
X133716Y41353D01*
X133708Y41282D01*
X133690Y41212D01*
X133694Y41160D01*
X133689Y41109D01*
X133704Y41038D01*
X133709Y40967D01*
X133730Y40919D01*
X133741Y40868D01*
X133778Y40807D01*
X133806Y40741D01*
X133850Y40685D01*
X133867Y40657D01*
X133885Y40642D01*
X133910Y40610D01*
X134830Y39690D01*
X136145Y36516D01*
X136145Y18856D01*
X134830Y15682D01*
X132640Y13492D01*
X132599Y13434D01*
X132549Y13382D01*
X132527Y13335D01*
X132497Y13293D01*
X132476Y13224D01*
X132446Y13159D01*
X132440Y13107D01*
X132425Y13057D01*
X132426Y12986D01*
X132419Y12915D01*
X132430Y12864D01*
X132431Y12812D01*
X132456Y12744D01*
X132471Y12674D01*
X132497Y12629D01*
X132515Y12581D01*
X132560Y12525D01*
X132597Y12463D01*
X132637Y12429D01*
X132669Y12389D01*
X132729Y12350D01*
X132784Y12303D01*
X132832Y12284D01*
X132876Y12256D01*
X132945Y12238D01*
X133012Y12211D01*
X133083Y12203D01*
X133115Y12195D01*
X133138Y12197D01*
X133179Y12193D01*
X145800Y12193D01*
X145871Y12204D01*
G37*
%LPC*%
G36*
X-60256Y109473D02*
X-60256Y109473D01*
X-66803Y116020D01*
X-66803Y125280D01*
X-60256Y131827D01*
X-50996Y131827D01*
X-44449Y125280D01*
X-44449Y116020D01*
X-50996Y109473D01*
X-60256Y109473D01*
G37*
%LPD*%
%LPC*%
G36*
X-41677Y273303D02*
X-41677Y273303D01*
X-46737Y278363D01*
X-46737Y285517D01*
X-41677Y290577D01*
X-34523Y290577D01*
X-29463Y285517D01*
X-29463Y278363D01*
X-34523Y273303D01*
X-41677Y273303D01*
G37*
%LPD*%
%LPC*%
G36*
X59923Y273303D02*
X59923Y273303D01*
X54863Y278363D01*
X54863Y285517D01*
X59923Y290577D01*
X67077Y290577D01*
X72137Y285517D01*
X72137Y278363D01*
X67077Y273303D01*
X59923Y273303D01*
G37*
%LPD*%
%LPC*%
G36*
X9123Y273303D02*
X9123Y273303D01*
X4063Y278363D01*
X4063Y285517D01*
X9123Y290577D01*
X16277Y290577D01*
X21337Y285517D01*
X21337Y278363D01*
X16277Y273303D01*
X9123Y273303D01*
G37*
%LPD*%
%LPC*%
G36*
X212323Y273303D02*
X212323Y273303D01*
X207263Y278363D01*
X207263Y285517D01*
X212323Y290577D01*
X219477Y290577D01*
X224537Y285517D01*
X224537Y278363D01*
X219477Y273303D01*
X212323Y273303D01*
G37*
%LPD*%
%LPC*%
G36*
X186923Y273303D02*
X186923Y273303D01*
X181863Y278363D01*
X181863Y285517D01*
X186923Y290577D01*
X194077Y290577D01*
X199137Y285517D01*
X199137Y278363D01*
X194077Y273303D01*
X186923Y273303D01*
G37*
%LPD*%
%LPC*%
G36*
X161523Y273303D02*
X161523Y273303D01*
X156463Y278363D01*
X156463Y285517D01*
X161523Y290577D01*
X168677Y290577D01*
X173737Y285517D01*
X173737Y278363D01*
X168677Y273303D01*
X161523Y273303D01*
G37*
%LPD*%
%LPC*%
G36*
X136123Y273303D02*
X136123Y273303D01*
X131063Y278363D01*
X131063Y285517D01*
X136123Y290577D01*
X143277Y290577D01*
X148337Y285517D01*
X148337Y278363D01*
X143277Y273303D01*
X136123Y273303D01*
G37*
%LPD*%
%LPC*%
G36*
X110723Y273303D02*
X110723Y273303D01*
X105663Y278363D01*
X105663Y285517D01*
X110723Y290577D01*
X117877Y290577D01*
X122937Y285517D01*
X122937Y278363D01*
X117877Y273303D01*
X110723Y273303D01*
G37*
%LPD*%
%LPC*%
G36*
X85323Y273303D02*
X85323Y273303D01*
X80263Y278363D01*
X80263Y285517D01*
X85323Y290577D01*
X92477Y290577D01*
X97537Y285517D01*
X97537Y278363D01*
X92477Y273303D01*
X85323Y273303D01*
G37*
%LPD*%
%LPC*%
G36*
X34523Y273303D02*
X34523Y273303D01*
X29463Y278363D01*
X29463Y285517D01*
X34523Y290577D01*
X41677Y290577D01*
X46737Y285517D01*
X46737Y278363D01*
X41677Y273303D01*
X34523Y273303D01*
G37*
%LPD*%
%LPC*%
G36*
X186923Y247903D02*
X186923Y247903D01*
X181863Y252963D01*
X181863Y260117D01*
X186923Y265177D01*
X194077Y265177D01*
X199137Y260117D01*
X199137Y252963D01*
X194077Y247903D01*
X186923Y247903D01*
G37*
%LPD*%
%LPC*%
G36*
X237723Y247903D02*
X237723Y247903D01*
X232663Y252963D01*
X232663Y260117D01*
X237723Y265177D01*
X244877Y265177D01*
X249937Y260117D01*
X249937Y252963D01*
X244877Y247903D01*
X237723Y247903D01*
G37*
%LPD*%
%LPC*%
G36*
X59923Y247903D02*
X59923Y247903D01*
X54863Y252963D01*
X54863Y260117D01*
X59923Y265177D01*
X67077Y265177D01*
X72137Y260117D01*
X72137Y252963D01*
X67077Y247903D01*
X59923Y247903D01*
G37*
%LPD*%
%LPC*%
G36*
X-41677Y247903D02*
X-41677Y247903D01*
X-46737Y252963D01*
X-46737Y260117D01*
X-41677Y265177D01*
X-34523Y265177D01*
X-29463Y260117D01*
X-29463Y252963D01*
X-34523Y247903D01*
X-41677Y247903D01*
G37*
%LPD*%
%LPC*%
G36*
X161523Y247903D02*
X161523Y247903D01*
X156463Y252963D01*
X156463Y260117D01*
X161523Y265177D01*
X168677Y265177D01*
X173737Y260117D01*
X173737Y252963D01*
X168677Y247903D01*
X161523Y247903D01*
G37*
%LPD*%
%LPC*%
G36*
X-16277Y247903D02*
X-16277Y247903D01*
X-21337Y252963D01*
X-21337Y260117D01*
X-16277Y265177D01*
X-9123Y265177D01*
X-4063Y260117D01*
X-4063Y252963D01*
X-9123Y247903D01*
X-16277Y247903D01*
G37*
%LPD*%
%LPC*%
G36*
X34523Y247903D02*
X34523Y247903D01*
X29463Y252963D01*
X29463Y260117D01*
X34523Y265177D01*
X41677Y265177D01*
X46737Y260117D01*
X46737Y252963D01*
X41677Y247903D01*
X34523Y247903D01*
G37*
%LPD*%
%LPC*%
G36*
X9123Y247903D02*
X9123Y247903D01*
X4063Y252963D01*
X4063Y260117D01*
X9123Y265177D01*
X16277Y265177D01*
X21337Y260117D01*
X21337Y252963D01*
X16277Y247903D01*
X9123Y247903D01*
G37*
%LPD*%
%LPC*%
G36*
X85323Y247903D02*
X85323Y247903D01*
X80263Y252963D01*
X80263Y260117D01*
X85323Y265177D01*
X92477Y265177D01*
X97537Y260117D01*
X97537Y252963D01*
X92477Y247903D01*
X85323Y247903D01*
G37*
%LPD*%
%LPC*%
G36*
X110723Y247903D02*
X110723Y247903D01*
X105663Y252963D01*
X105663Y260117D01*
X110723Y265177D01*
X117877Y265177D01*
X122937Y260117D01*
X122937Y252963D01*
X117877Y247903D01*
X110723Y247903D01*
G37*
%LPD*%
%LPC*%
G36*
X212323Y247903D02*
X212323Y247903D01*
X207263Y252963D01*
X207263Y260117D01*
X212323Y265177D01*
X219477Y265177D01*
X224537Y260117D01*
X224537Y252963D01*
X219477Y247903D01*
X212323Y247903D01*
G37*
%LPD*%
%LPC*%
G36*
X136123Y247903D02*
X136123Y247903D01*
X131063Y252963D01*
X131063Y260117D01*
X136123Y265177D01*
X143277Y265177D01*
X148337Y260117D01*
X148337Y252963D01*
X143277Y247903D01*
X136123Y247903D01*
G37*
%LPD*%
%LPC*%
G36*
X-16277Y273303D02*
X-16277Y273303D01*
X-21337Y278363D01*
X-21337Y285517D01*
X-16277Y290577D01*
X-9123Y290577D01*
X-4063Y285517D01*
X-4063Y278363D01*
X-9123Y273303D01*
X-16277Y273303D01*
G37*
%LPD*%
%LPC*%
G36*
X204682Y129793D02*
X204682Y129793D01*
X201787Y130992D01*
X199572Y133207D01*
X198373Y136102D01*
X198373Y139234D01*
X199572Y142129D01*
X201787Y144344D01*
X204682Y145543D01*
X207814Y145543D01*
X210709Y144344D01*
X212924Y142129D01*
X214123Y139234D01*
X214123Y136102D01*
X212924Y133207D01*
X210709Y130992D01*
X207814Y129793D01*
X204682Y129793D01*
G37*
%LPD*%
%LPC*%
G36*
X154431Y29209D02*
X154431Y29209D01*
X154431Y44330D01*
X155168Y44213D01*
X156613Y43744D01*
X157967Y43054D01*
X159196Y42161D01*
X160271Y41086D01*
X161164Y39857D01*
X161854Y38503D01*
X162323Y37058D01*
X162561Y35558D01*
X162561Y29209D01*
X154431Y29209D01*
G37*
%LPD*%
%LPC*%
G36*
X143255Y29209D02*
X143255Y29209D01*
X143255Y35558D01*
X143493Y37058D01*
X143962Y38503D01*
X144652Y39857D01*
X145545Y41086D01*
X146620Y42161D01*
X147849Y43054D01*
X149203Y43744D01*
X150648Y44213D01*
X151385Y44330D01*
X151385Y29209D01*
X143255Y29209D01*
G37*
%LPD*%
%LPC*%
G36*
X231647Y283463D02*
X231647Y283463D01*
X231647Y285938D01*
X237302Y291593D01*
X239777Y291593D01*
X239777Y283463D01*
X231647Y283463D01*
G37*
%LPD*%
%LPC*%
G36*
X231647Y232663D02*
X231647Y232663D01*
X231647Y235138D01*
X237302Y240793D01*
X239777Y240793D01*
X239777Y232663D01*
X231647Y232663D01*
G37*
%LPD*%
%LPC*%
G36*
X237302Y221487D02*
X237302Y221487D01*
X231647Y227142D01*
X231647Y229617D01*
X239777Y229617D01*
X239777Y221487D01*
X237302Y221487D01*
G37*
%LPD*%
%LPC*%
G36*
X237302Y272287D02*
X237302Y272287D01*
X231647Y277942D01*
X231647Y280417D01*
X239777Y280417D01*
X239777Y272287D01*
X237302Y272287D01*
G37*
%LPD*%
%LPC*%
G36*
X207771Y118871D02*
X207771Y118871D01*
X207771Y126239D01*
X209931Y126239D01*
X215139Y121031D01*
X215139Y118871D01*
X207771Y118871D01*
G37*
%LPD*%
%LPC*%
G36*
X197357Y118871D02*
X197357Y118871D01*
X197357Y121031D01*
X202565Y126239D01*
X204725Y126239D01*
X204725Y118871D01*
X197357Y118871D01*
G37*
%LPD*%
%LPC*%
G36*
X207771Y108457D02*
X207771Y108457D01*
X207771Y115825D01*
X215139Y115825D01*
X215139Y113665D01*
X209931Y108457D01*
X207771Y108457D01*
G37*
%LPD*%
%LPC*%
G36*
X202565Y108457D02*
X202565Y108457D01*
X197357Y113665D01*
X197357Y115825D01*
X204725Y115825D01*
X204725Y108457D01*
X202565Y108457D01*
G37*
%LPD*%
%LPC*%
G36*
X206247Y117347D02*
X206247Y117347D01*
X206247Y117349D01*
X206249Y117349D01*
X206249Y117347D01*
X206247Y117347D01*
G37*
%LPD*%
D10*
X-63500Y256540D03*
X-63500Y281940D03*
X-38100Y256540D03*
X-38100Y281940D03*
X-12700Y256540D03*
X-12700Y281940D03*
X12700Y256540D03*
X12700Y281940D03*
X38100Y256540D03*
X38100Y281940D03*
X63500Y256540D03*
X63500Y281940D03*
X88900Y256540D03*
X88900Y281940D03*
X114300Y256540D03*
X114300Y281940D03*
X139700Y256540D03*
X139700Y281940D03*
X165100Y256540D03*
X165100Y281940D03*
X190500Y256540D03*
X190500Y281940D03*
X215900Y256540D03*
X215900Y281940D03*
X241300Y256540D03*
X241300Y281940D03*
X-63500Y205740D03*
X-63500Y231140D03*
X-38100Y205740D03*
X-38100Y231140D03*
X-12700Y205740D03*
X-12700Y231140D03*
X12700Y205740D03*
X12700Y231140D03*
X38100Y205740D03*
X38100Y231140D03*
X63500Y205740D03*
X63500Y231140D03*
X88900Y205740D03*
X88900Y231140D03*
X114300Y205740D03*
X114300Y231140D03*
X139700Y205740D03*
X139700Y231140D03*
X165100Y205740D03*
X165100Y231140D03*
X190500Y205740D03*
X190500Y231140D03*
X215900Y205740D03*
X215900Y231140D03*
X241300Y205740D03*
X241300Y231140D03*
D11*
X152908Y34798D02*
X152908Y20574D01*
X127508Y20574D02*
X127508Y34798D01*
X102108Y34798D02*
X102108Y20574D01*
X76708Y20574D02*
X76708Y34798D01*
X51308Y34798D02*
X51308Y20574D01*
X25908Y20574D02*
X25908Y34798D01*
D12*
X206248Y117348D03*
D13*
X206248Y137668D03*
D14*
X-55626Y120650D03*
D15*
X89662Y15748D03*
D16*
X158496Y9906D02*
X169164Y20574D01*
X158496Y9906D02*
X95504Y9906D01*
X89662Y15748D01*
X169164Y20574D02*
X169164Y139192D01*
D15*
X169164Y139192D03*
X64008Y15240D03*
D16*
X159627Y6719D02*
X175260Y22352D01*
X159627Y6719D02*
X72529Y6719D01*
X64008Y15240D01*
X175260Y146304D02*
X175768Y146812D01*
X175260Y146304D02*
X175260Y22352D01*
D15*
X175768Y146812D03*
X38608Y14986D03*
D16*
X160782Y3556D02*
X181864Y24638D01*
X160782Y3556D02*
X50800Y3556D01*
X39370Y14986D01*
X38608Y14986D01*
D15*
X181583Y155167D03*
D16*
X181837Y155167D02*
X181864Y155140D01*
X181837Y155167D02*
X181583Y155167D01*
X181864Y155140D02*
X181864Y24638D01*
D15*
X2032Y18288D03*
X-31242Y112522D03*
X237236Y115570D03*
X141514Y61860D03*
D16*
X158496Y78842D01*
X158496Y143209D01*
X206549Y191262D02*
X219456Y191262D01*
X229362Y201168D01*
X206549Y191262D02*
X158496Y143209D01*
X229362Y201168D02*
X229362Y218948D01*
X217170Y231140D02*
X215900Y231140D01*
X217170Y231140D02*
X229362Y218948D01*
D15*
X132144Y47216D03*
D16*
X132144Y53057D01*
X132398Y53311D01*
X132398Y69279D01*
X149098Y85979D01*
X188468Y192532D02*
X197612Y192532D01*
X203200Y198120D01*
X149098Y153162D02*
X149098Y85979D01*
X149098Y153162D02*
X188468Y192532D01*
X203200Y198120D02*
X203200Y217678D01*
X190500Y230378D02*
X190500Y231140D01*
X190500Y230378D02*
X203200Y217678D01*
D15*
X139440Y52772D03*
D16*
X135446Y56766D01*
X135446Y68016D01*
X151504Y84074D01*
X152146Y84074D01*
X172719Y163521D02*
X173681Y163521D01*
X172719Y163521D02*
X152146Y142948D01*
X152146Y84074D01*
X173681Y163521D02*
X215900Y205740D01*
D15*
X110136Y44360D03*
D16*
X110136Y47335D01*
X113736Y50935D01*
X113736Y79248D01*
X125730Y91242D01*
X150368Y196596D02*
X150368Y219964D01*
X125730Y171958D02*
X125730Y91242D01*
X125730Y171958D02*
X150368Y196596D01*
X139700Y230632D02*
X139700Y231140D01*
X139700Y230632D02*
X150368Y219964D01*
D15*
X101048Y47216D03*
D16*
X101048Y54312D01*
X101600Y54864D01*
X101600Y171450D01*
X124460Y194310D01*
X124460Y219964D01*
X114300Y230124D02*
X114300Y231140D01*
X114300Y230124D02*
X124460Y219964D01*
D15*
X107668Y53448D03*
D16*
X108712Y54492D01*
X108712Y169672D01*
X139700Y200660D02*
X139700Y205740D01*
X139700Y200660D02*
X108712Y169672D01*
D15*
X63878Y37722D03*
D16*
X64554Y42668D02*
X64554Y47695D01*
X62729Y49520D01*
X63878Y41993D02*
X63878Y37722D01*
X63878Y41993D02*
X64554Y42668D01*
X47746Y73227D02*
X43942Y73227D01*
X62729Y58243D02*
X62729Y49520D01*
X62729Y58243D02*
X47746Y73227D01*
X43942Y73227D02*
X43942Y195580D01*
X38100Y201422D02*
X38100Y205740D01*
X38100Y201422D02*
X43942Y195580D01*
D15*
X53613Y53161D03*
D16*
X53613Y58738D01*
X45221Y67131D01*
X39258Y67131D02*
X29427Y76962D01*
X27686Y76962D01*
X39258Y67131D02*
X45221Y67131D01*
X27686Y76962D02*
X27686Y147828D01*
X12700Y162814D01*
X12700Y205740D01*
D15*
X58486Y45182D03*
D16*
X59681Y50648D02*
X59681Y56981D01*
X46483Y70179D01*
X58486Y49453D02*
X58486Y45182D01*
X58486Y49453D02*
X59681Y50648D01*
X40521Y70179D02*
X34544Y76155D01*
X40521Y70179D02*
X46483Y70179D01*
X34544Y76155D02*
X34544Y157480D01*
X25146Y166878D01*
X25146Y219710D01*
X13716Y231140D02*
X12700Y231140D01*
X13716Y231140D02*
X25146Y219710D01*
D15*
X34544Y47752D03*
D16*
X29972Y52324D01*
X9906Y64770D02*
X7874Y66802D01*
X29972Y59175D02*
X29972Y52324D01*
X29972Y59175D02*
X24377Y64770D01*
X9906Y64770D01*
X7874Y66802D02*
X7874Y119380D01*
X-37846Y165100D01*
X-37846Y205486D02*
X-38100Y205740D01*
X-37846Y205486D02*
X-37846Y165100D01*
D15*
X20574Y55626D03*
D16*
X9906Y55626D01*
X-1270Y66802D02*
X-1270Y102108D01*
X-1270Y66802D02*
X9906Y55626D01*
X-1270Y102108D02*
X-63500Y164338D01*
X-63500Y205740D01*
D15*
X25146Y47498D03*
D16*
X26670Y49022D02*
X26670Y58166D01*
X26670Y49022D02*
X25146Y47498D01*
X26670Y58166D02*
X23114Y61722D01*
X8636Y61722D01*
X3048Y67310D01*
X3048Y104140D02*
X-52324Y159512D01*
X-52324Y220218D01*
X3048Y104140D02*
X3048Y67310D01*
X-63246Y231140D02*
X-63500Y231140D01*
X-63246Y231140D02*
X-52324Y220218D01*
D15*
X126330Y55824D03*
D16*
X126358Y55852D01*
X126358Y70732D02*
X144272Y88646D01*
X126358Y70732D02*
X126358Y55852D01*
X144272Y88646D02*
X144272Y157226D01*
X190500Y203454D02*
X190500Y205740D01*
X190500Y203454D02*
X144272Y157226D01*
D15*
X115090Y36462D03*
D16*
X115090Y40733D01*
X116784Y42427D01*
X116784Y74112D01*
X133096Y90424D01*
X133096Y170942D01*
X165100Y202946D02*
X165100Y205740D01*
X165100Y202946D02*
X133096Y170942D01*
D15*
X123056Y46736D03*
D16*
X120008Y49784D01*
X120008Y71240D01*
X139192Y90424D01*
X139192Y167386D02*
X161036Y189230D01*
X171196Y189230D01*
X177165Y195199D01*
X177165Y217551D01*
X139192Y167386D02*
X139192Y90424D01*
X165100Y229616D02*
X165100Y231140D01*
X165100Y229616D02*
X177165Y217551D01*
D15*
X95008Y59048D03*
D16*
X94742Y59048D01*
X94742Y185674D01*
X114300Y205232D02*
X114300Y205740D01*
X114300Y205232D02*
X94742Y185674D01*
D15*
X87250Y41818D03*
D16*
X85864Y49730D02*
X83352Y52242D01*
X85864Y43204D02*
X87250Y41818D01*
X85864Y43204D02*
X85864Y49730D01*
X83352Y59224D02*
X78012Y64564D01*
X75692Y64564D01*
X83352Y59224D02*
X83352Y52242D01*
X75692Y64564D02*
X75692Y191770D01*
X88900Y204978D02*
X88900Y205740D01*
X88900Y204978D02*
X75692Y191770D01*
D15*
X91960Y49960D03*
D16*
X86400Y55520D01*
X86400Y60487D01*
X85344Y61543D01*
X85344Y185928D02*
X98806Y199390D01*
X98806Y220472D01*
X95758Y223520D01*
X95250Y224028D01*
X85344Y185928D02*
X85344Y61543D01*
X95250Y224028D02*
X88900Y230378D01*
X88900Y231140D01*
D15*
X79796Y47216D03*
D16*
X80304Y52934D02*
X80304Y57961D01*
X76750Y61516D01*
X72479Y61516D01*
X79796Y52426D02*
X79796Y47216D01*
X79796Y52426D02*
X80304Y52934D01*
X72479Y61516D02*
X67056Y66939D01*
X67056Y191941D01*
X74676Y199561D01*
X74676Y220218D01*
X63754Y231140D02*
X63500Y231140D01*
X63754Y231140D02*
X74676Y220218D01*
D15*
X70708Y46360D03*
D16*
X65777Y51291D01*
X65777Y59506D02*
X49022Y76261D01*
X65777Y59506D02*
X65777Y51291D01*
X49022Y76261D02*
X49022Y220472D01*
X38354Y231140D02*
X38100Y231140D01*
X38354Y231140D02*
X49022Y220472D01*
D15*
X74236Y55448D03*
D16*
X58674Y71010D01*
X58674Y191770D01*
X63500Y196596D02*
X63500Y205740D01*
X63500Y196596D02*
X58674Y191770D01*
D15*
X46706Y47216D03*
D16*
X47512Y55501D02*
X47512Y60528D01*
X43958Y64083D01*
X37996Y64083D01*
X46706Y54695D02*
X46706Y47216D01*
X46706Y54695D02*
X47512Y55501D01*
X37996Y64083D02*
X28164Y73914D01*
X20828Y73914D01*
X20828Y139192D01*
X0Y160020D01*
X0Y218694D01*
X-12446Y231140D02*
X-12700Y231140D01*
X-12446Y231140D02*
X0Y218694D01*
D15*
X38890Y39246D03*
D16*
X38890Y43517D01*
X40612Y45239D01*
X40612Y50266D01*
X37058Y53820D01*
X33020Y53820D01*
X33020Y60437D01*
X25639Y67818D01*
X11938Y67818D01*
X11938Y120396D01*
X-25908Y158242D01*
X-25908Y219710D01*
X-37338Y231140D02*
X-38100Y231140D01*
X-37338Y231140D02*
X-25908Y219710D01*
D15*
X41444Y58015D03*
D16*
X26902Y70866D02*
X15748Y70866D01*
X39753Y58015D02*
X41444Y58015D01*
X39753Y58015D02*
X26902Y70866D01*
X15748Y70866D02*
X15748Y129794D01*
X-12446Y157988D01*
X-12446Y205486D02*
X-12700Y205740D01*
X-12446Y205486D02*
X-12446Y157988D01*
M02*
