G04 EAGLE Gerber RS-274X export*
G75*
%MOMM*%
%FSLAX34Y34*%
%LPD*%
%INTop Copper*%
%IPPOS*%
%AMOC8*
5,1,8,0,0,1.08239X$1,22.5*%
G01*
%ADD10R,0.252475X1.655431*%
%ADD11R,4.700000X3.610000*%
%ADD12P,1.539592X8X22.500000*%
%ADD13C,1.422400*%
%ADD14R,1.100000X1.000000*%
%ADD15P,1.374635X8X292.500000*%
%ADD16C,1.270000*%
%ADD17P,2.089446X8X22.500000*%
%ADD18C,0.152400*%
%ADD19C,0.756400*%

G36*
X165122Y2290D02*
X165122Y2290D01*
X165160Y2289D01*
X168656Y2564D01*
X168662Y2566D01*
X168668Y2565D01*
X168832Y2599D01*
X175483Y4760D01*
X175515Y4777D01*
X175549Y4785D01*
X175695Y4868D01*
X181353Y8979D01*
X181378Y9004D01*
X181408Y9023D01*
X181521Y9147D01*
X185632Y14805D01*
X185648Y14837D01*
X185671Y14864D01*
X185740Y15017D01*
X187901Y21668D01*
X187902Y21674D01*
X187904Y21679D01*
X187936Y21844D01*
X188211Y25340D01*
X188209Y25362D01*
X188213Y25400D01*
X188213Y91881D01*
X190495Y97389D01*
X194711Y101605D01*
X200219Y103887D01*
X241300Y103887D01*
X241326Y103891D01*
X241375Y103890D01*
X243258Y104076D01*
X243285Y104083D01*
X243313Y104083D01*
X243474Y104130D01*
X246954Y105571D01*
X247009Y105606D01*
X247070Y105632D01*
X247135Y105684D01*
X247163Y105701D01*
X247175Y105716D01*
X247201Y105736D01*
X249864Y108399D01*
X249902Y108452D01*
X249948Y108499D01*
X249988Y108572D01*
X250007Y108599D01*
X250013Y108618D01*
X250029Y108646D01*
X251470Y112126D01*
X251476Y112153D01*
X251489Y112178D01*
X251524Y112342D01*
X251710Y114225D01*
X251708Y114252D01*
X251713Y114300D01*
X251713Y193048D01*
X251702Y193118D01*
X251700Y193190D01*
X251682Y193239D01*
X251674Y193290D01*
X251640Y193354D01*
X251615Y193421D01*
X251583Y193462D01*
X251558Y193508D01*
X251506Y193557D01*
X251462Y193613D01*
X251418Y193641D01*
X251380Y193677D01*
X251315Y193707D01*
X251255Y193746D01*
X251204Y193759D01*
X251157Y193781D01*
X251086Y193789D01*
X251016Y193806D01*
X250964Y193802D01*
X250913Y193808D01*
X250842Y193793D01*
X250771Y193787D01*
X250723Y193767D01*
X250672Y193756D01*
X250611Y193719D01*
X250545Y193691D01*
X250489Y193646D01*
X250461Y193629D01*
X250446Y193612D01*
X250414Y193586D01*
X242024Y185196D01*
X203443Y146615D01*
X203386Y146536D01*
X203324Y146461D01*
X203314Y146436D01*
X203299Y146415D01*
X203271Y146322D01*
X203236Y146231D01*
X203234Y146205D01*
X203227Y146180D01*
X203229Y146083D01*
X203225Y145985D01*
X203232Y145960D01*
X203233Y145934D01*
X203267Y145843D01*
X203294Y145749D01*
X203309Y145728D01*
X203318Y145703D01*
X203379Y145627D01*
X203434Y145547D01*
X203455Y145531D01*
X203471Y145511D01*
X203553Y145458D01*
X203631Y145400D01*
X203656Y145392D01*
X203678Y145378D01*
X203773Y145354D01*
X203865Y145324D01*
X203891Y145324D01*
X203917Y145318D01*
X204014Y145326D01*
X204111Y145326D01*
X204143Y145336D01*
X204162Y145337D01*
X204192Y145350D01*
X204272Y145373D01*
X204682Y145543D01*
X207814Y145543D01*
X210709Y144344D01*
X212924Y142129D01*
X214123Y139234D01*
X214123Y136102D01*
X212924Y133207D01*
X210709Y130992D01*
X207814Y129793D01*
X204682Y129793D01*
X201787Y130992D01*
X199572Y133207D01*
X198866Y134911D01*
X198805Y135011D01*
X198745Y135111D01*
X198740Y135115D01*
X198737Y135120D01*
X198647Y135195D01*
X198558Y135271D01*
X198552Y135273D01*
X198547Y135277D01*
X198439Y135319D01*
X198330Y135363D01*
X198322Y135364D01*
X198318Y135365D01*
X198299Y135366D01*
X198163Y135381D01*
X192525Y135381D01*
X192434Y135367D01*
X192344Y135359D01*
X192314Y135347D01*
X192282Y135342D01*
X192201Y135299D01*
X192117Y135263D01*
X192085Y135237D01*
X192064Y135226D01*
X192042Y135203D01*
X191986Y135158D01*
X149672Y92844D01*
X149619Y92770D01*
X149559Y92700D01*
X149547Y92670D01*
X149528Y92644D01*
X149501Y92557D01*
X149467Y92472D01*
X149463Y92431D01*
X149456Y92409D01*
X149457Y92377D01*
X149449Y92305D01*
X149449Y88109D01*
X149452Y88090D01*
X149450Y88070D01*
X149472Y87969D01*
X149488Y87867D01*
X149498Y87849D01*
X149502Y87829D01*
X149555Y87740D01*
X149604Y87649D01*
X149618Y87635D01*
X149628Y87618D01*
X149707Y87551D01*
X149782Y87480D01*
X149800Y87471D01*
X149815Y87458D01*
X149911Y87420D01*
X150005Y87376D01*
X150025Y87374D01*
X150043Y87367D01*
X150210Y87348D01*
X153516Y87348D01*
X153606Y87363D01*
X153697Y87370D01*
X153727Y87383D01*
X153759Y87388D01*
X153839Y87431D01*
X153923Y87466D01*
X153955Y87492D01*
X153976Y87503D01*
X153998Y87526D01*
X154054Y87571D01*
X154340Y87856D01*
X154919Y88191D01*
X155565Y88364D01*
X156401Y88364D01*
X156401Y77546D01*
X156401Y68910D01*
X156404Y68890D01*
X156402Y68871D01*
X156424Y68769D01*
X156440Y68667D01*
X156450Y68650D01*
X156454Y68630D01*
X156507Y68541D01*
X156555Y68450D01*
X156570Y68436D01*
X156580Y68419D01*
X156659Y68352D01*
X156734Y68281D01*
X156752Y68272D01*
X156767Y68259D01*
X156863Y68221D01*
X156957Y68177D01*
X156977Y68175D01*
X156995Y68167D01*
X157162Y68149D01*
X157182Y68152D01*
X157201Y68150D01*
X157202Y68150D01*
X157303Y68172D01*
X157405Y68189D01*
X157422Y68198D01*
X157442Y68202D01*
X157531Y68255D01*
X157622Y68304D01*
X157636Y68318D01*
X157653Y68328D01*
X157720Y68407D01*
X157792Y68482D01*
X157800Y68500D01*
X157813Y68515D01*
X157852Y68611D01*
X157895Y68705D01*
X157897Y68725D01*
X157905Y68743D01*
X157923Y68910D01*
X157923Y76785D01*
X160965Y76785D01*
X160965Y68910D01*
X160968Y68890D01*
X160966Y68871D01*
X160988Y68769D01*
X161005Y68667D01*
X161014Y68650D01*
X161018Y68630D01*
X161072Y68541D01*
X161120Y68450D01*
X161134Y68436D01*
X161145Y68419D01*
X161223Y68352D01*
X161298Y68281D01*
X161316Y68272D01*
X161331Y68259D01*
X161428Y68221D01*
X161521Y68177D01*
X161541Y68175D01*
X161560Y68167D01*
X161726Y68149D01*
X162415Y68149D01*
X164085Y66479D01*
X164085Y65960D01*
X164088Y65940D01*
X164086Y65921D01*
X164108Y65819D01*
X164124Y65717D01*
X164134Y65700D01*
X164138Y65680D01*
X164191Y65591D01*
X164240Y65500D01*
X164254Y65486D01*
X164264Y65469D01*
X164343Y65402D01*
X164418Y65330D01*
X164436Y65322D01*
X164451Y65309D01*
X164547Y65270D01*
X164641Y65227D01*
X164661Y65225D01*
X164679Y65217D01*
X164846Y65199D01*
X168267Y65199D01*
X168267Y58420D01*
X168270Y58400D01*
X168268Y58381D01*
X168290Y58279D01*
X168307Y58177D01*
X168316Y58160D01*
X168320Y58140D01*
X168373Y58051D01*
X168422Y57960D01*
X168436Y57946D01*
X168446Y57929D01*
X168525Y57862D01*
X168600Y57791D01*
X168618Y57782D01*
X168633Y57769D01*
X168729Y57730D01*
X168823Y57687D01*
X168843Y57685D01*
X168861Y57677D01*
X169028Y57659D01*
X169791Y57659D01*
X169791Y57657D01*
X169028Y57657D01*
X169008Y57654D01*
X168989Y57656D01*
X168887Y57634D01*
X168785Y57617D01*
X168768Y57608D01*
X168748Y57604D01*
X168659Y57551D01*
X168568Y57502D01*
X168554Y57488D01*
X168537Y57478D01*
X168470Y57399D01*
X168399Y57324D01*
X168390Y57306D01*
X168377Y57291D01*
X168338Y57195D01*
X168295Y57101D01*
X168293Y57081D01*
X168285Y57063D01*
X168267Y56896D01*
X168267Y50117D01*
X164156Y50117D01*
X164066Y50103D01*
X163975Y50095D01*
X163946Y50083D01*
X163914Y50078D01*
X163833Y50035D01*
X163749Y49999D01*
X163717Y49973D01*
X163696Y49962D01*
X163674Y49939D01*
X163618Y49894D01*
X159482Y45758D01*
X157908Y44185D01*
X157862Y44120D01*
X157808Y44061D01*
X157791Y44021D01*
X157765Y43985D01*
X157741Y43909D01*
X157709Y43836D01*
X157706Y43792D01*
X157693Y43750D01*
X157695Y43670D01*
X157687Y43591D01*
X157698Y43548D01*
X157699Y43504D01*
X157726Y43429D01*
X157745Y43352D01*
X157768Y43314D01*
X157783Y43273D01*
X157833Y43211D01*
X157875Y43143D01*
X157919Y43104D01*
X157937Y43081D01*
X157960Y43066D01*
X157999Y43030D01*
X159196Y42161D01*
X160271Y41086D01*
X161164Y39857D01*
X161854Y38503D01*
X162323Y37058D01*
X162561Y35558D01*
X162561Y29209D01*
X153670Y29209D01*
X153650Y29206D01*
X153631Y29208D01*
X153529Y29186D01*
X153427Y29169D01*
X153410Y29160D01*
X153390Y29156D01*
X153301Y29103D01*
X153210Y29054D01*
X153196Y29040D01*
X153179Y29030D01*
X153112Y28951D01*
X153041Y28876D01*
X153032Y28858D01*
X153019Y28843D01*
X152981Y28747D01*
X152937Y28653D01*
X152935Y28633D01*
X152927Y28615D01*
X152909Y28448D01*
X152909Y27685D01*
X152146Y27685D01*
X152126Y27682D01*
X152107Y27684D01*
X152005Y27662D01*
X151903Y27645D01*
X151886Y27636D01*
X151866Y27632D01*
X151777Y27579D01*
X151686Y27530D01*
X151672Y27516D01*
X151655Y27506D01*
X151588Y27427D01*
X151517Y27352D01*
X151508Y27334D01*
X151495Y27319D01*
X151456Y27223D01*
X151413Y27129D01*
X151411Y27109D01*
X151403Y27091D01*
X151385Y26924D01*
X151385Y11042D01*
X150648Y11159D01*
X149203Y11628D01*
X147849Y12318D01*
X146620Y13211D01*
X145545Y14286D01*
X144652Y15515D01*
X143935Y16922D01*
X143901Y16969D01*
X143870Y17029D01*
X143866Y17034D01*
X143862Y17040D01*
X143817Y17082D01*
X143790Y17120D01*
X143747Y17150D01*
X143695Y17201D01*
X143689Y17204D01*
X143684Y17209D01*
X143623Y17237D01*
X143588Y17262D01*
X143544Y17275D01*
X143474Y17309D01*
X143467Y17310D01*
X143461Y17313D01*
X143390Y17321D01*
X143353Y17332D01*
X143310Y17330D01*
X143230Y17340D01*
X143223Y17339D01*
X143217Y17340D01*
X143144Y17324D01*
X143107Y17323D01*
X143069Y17308D01*
X142989Y17292D01*
X142983Y17289D01*
X142976Y17288D01*
X142912Y17249D01*
X142877Y17236D01*
X142845Y17210D01*
X142775Y17170D01*
X142771Y17165D01*
X142765Y17161D01*
X142717Y17106D01*
X142686Y17080D01*
X142663Y17043D01*
X142612Y16986D01*
X142610Y16980D01*
X142605Y16974D01*
X142579Y16909D01*
X142555Y16872D01*
X142544Y16825D01*
X142516Y16759D01*
X142516Y16753D01*
X142513Y16746D01*
X142503Y16654D01*
X142498Y16633D01*
X142499Y16619D01*
X142495Y16580D01*
X142495Y10483D01*
X138615Y6603D01*
X104717Y6603D01*
X99821Y11499D01*
X99821Y11664D01*
X99802Y11779D01*
X99785Y11895D01*
X99783Y11901D01*
X99782Y11907D01*
X99727Y12010D01*
X99674Y12114D01*
X99669Y12119D01*
X99666Y12124D01*
X99582Y12204D01*
X99498Y12287D01*
X99492Y12290D01*
X99488Y12294D01*
X99471Y12302D01*
X99351Y12368D01*
X97216Y13252D01*
X96268Y14200D01*
X96210Y14241D01*
X96158Y14291D01*
X96111Y14313D01*
X96069Y14343D01*
X96000Y14364D01*
X95935Y14394D01*
X95883Y14400D01*
X95833Y14415D01*
X95762Y14414D01*
X95691Y14421D01*
X95640Y14410D01*
X95588Y14409D01*
X95520Y14384D01*
X95450Y14369D01*
X95405Y14343D01*
X95357Y14325D01*
X95301Y14280D01*
X95239Y14243D01*
X95205Y14203D01*
X95165Y14171D01*
X95126Y14111D01*
X95079Y14056D01*
X95060Y14008D01*
X95032Y13964D01*
X95014Y13895D01*
X94987Y13828D01*
X94979Y13757D01*
X94971Y13726D01*
X94973Y13702D01*
X94969Y13661D01*
X94969Y13550D01*
X91860Y10441D01*
X87464Y10441D01*
X84355Y13550D01*
X84355Y14169D01*
X84344Y14240D01*
X84342Y14312D01*
X84324Y14361D01*
X84316Y14412D01*
X84282Y14475D01*
X84257Y14543D01*
X84225Y14583D01*
X84200Y14629D01*
X84148Y14679D01*
X84104Y14735D01*
X84060Y14763D01*
X84022Y14799D01*
X83957Y14829D01*
X83897Y14868D01*
X83846Y14880D01*
X83799Y14902D01*
X83728Y14910D01*
X83658Y14928D01*
X83606Y14924D01*
X83555Y14929D01*
X83484Y14914D01*
X83413Y14909D01*
X83365Y14888D01*
X83314Y14877D01*
X83253Y14840D01*
X83187Y14812D01*
X83131Y14768D01*
X83103Y14751D01*
X83088Y14733D01*
X83056Y14708D01*
X81600Y13252D01*
X78426Y11937D01*
X74990Y11937D01*
X71816Y13252D01*
X70614Y14454D01*
X70556Y14495D01*
X70504Y14545D01*
X70457Y14567D01*
X70415Y14597D01*
X70346Y14618D01*
X70281Y14648D01*
X70229Y14654D01*
X70179Y14669D01*
X70108Y14668D01*
X70037Y14675D01*
X69986Y14664D01*
X69934Y14663D01*
X69866Y14638D01*
X69796Y14623D01*
X69751Y14597D01*
X69703Y14579D01*
X69647Y14534D01*
X69585Y14497D01*
X69551Y14457D01*
X69511Y14425D01*
X69472Y14365D01*
X69425Y14310D01*
X69406Y14262D01*
X69378Y14218D01*
X69360Y14149D01*
X69333Y14082D01*
X69325Y14011D01*
X69317Y13979D01*
X69319Y13956D01*
X69315Y13915D01*
X69315Y13042D01*
X66206Y9933D01*
X61810Y9933D01*
X58701Y13042D01*
X58701Y13915D01*
X58690Y13986D01*
X58688Y14058D01*
X58670Y14107D01*
X58662Y14158D01*
X58628Y14221D01*
X58603Y14289D01*
X58571Y14329D01*
X58546Y14375D01*
X58494Y14425D01*
X58450Y14481D01*
X58406Y14509D01*
X58368Y14545D01*
X58303Y14575D01*
X58243Y14614D01*
X58192Y14626D01*
X58145Y14648D01*
X58074Y14656D01*
X58004Y14674D01*
X57952Y14670D01*
X57901Y14675D01*
X57830Y14660D01*
X57759Y14655D01*
X57711Y14634D01*
X57660Y14623D01*
X57599Y14586D01*
X57533Y14558D01*
X57477Y14514D01*
X57449Y14497D01*
X57434Y14479D01*
X57402Y14454D01*
X56200Y13252D01*
X53026Y11937D01*
X49590Y11937D01*
X46416Y13252D01*
X45214Y14454D01*
X45156Y14495D01*
X45104Y14545D01*
X45057Y14567D01*
X45015Y14597D01*
X44946Y14618D01*
X44881Y14648D01*
X44829Y14654D01*
X44779Y14669D01*
X44708Y14668D01*
X44637Y14675D01*
X44586Y14664D01*
X44534Y14663D01*
X44466Y14638D01*
X44396Y14623D01*
X44351Y14597D01*
X44303Y14579D01*
X44247Y14534D01*
X44185Y14497D01*
X44151Y14457D01*
X44111Y14425D01*
X44072Y14365D01*
X44025Y14310D01*
X44006Y14262D01*
X43978Y14218D01*
X43960Y14149D01*
X43933Y14082D01*
X43925Y14011D01*
X43917Y13979D01*
X43919Y13956D01*
X43915Y13915D01*
X43915Y12788D01*
X40806Y9679D01*
X36410Y9679D01*
X33301Y12788D01*
X33301Y13915D01*
X33290Y13986D01*
X33288Y14058D01*
X33270Y14107D01*
X33262Y14158D01*
X33228Y14221D01*
X33203Y14289D01*
X33171Y14329D01*
X33146Y14375D01*
X33094Y14425D01*
X33050Y14481D01*
X33006Y14509D01*
X32968Y14545D01*
X32903Y14575D01*
X32843Y14614D01*
X32792Y14626D01*
X32745Y14648D01*
X32674Y14656D01*
X32604Y14674D01*
X32552Y14670D01*
X32501Y14675D01*
X32430Y14660D01*
X32359Y14655D01*
X32311Y14634D01*
X32260Y14623D01*
X32199Y14586D01*
X32133Y14558D01*
X32077Y14514D01*
X32049Y14497D01*
X32034Y14479D01*
X32002Y14454D01*
X30800Y13252D01*
X27626Y11937D01*
X24190Y11937D01*
X21016Y13252D01*
X18586Y15682D01*
X17271Y18856D01*
X17271Y36516D01*
X18586Y39690D01*
X21016Y42120D01*
X21380Y42271D01*
X21419Y42295D01*
X21462Y42311D01*
X21523Y42359D01*
X21589Y42400D01*
X21618Y42436D01*
X21654Y42464D01*
X21696Y42530D01*
X21746Y42590D01*
X21762Y42633D01*
X21787Y42671D01*
X21806Y42747D01*
X21834Y42819D01*
X21836Y42865D01*
X21847Y42910D01*
X21841Y42987D01*
X21844Y43065D01*
X21832Y43109D01*
X21828Y43155D01*
X21798Y43226D01*
X21776Y43301D01*
X21750Y43339D01*
X21732Y43381D01*
X21646Y43488D01*
X21636Y43503D01*
X21632Y43506D01*
X21627Y43512D01*
X19839Y45300D01*
X19839Y49558D01*
X19836Y49578D01*
X19838Y49597D01*
X19816Y49699D01*
X19800Y49801D01*
X19790Y49818D01*
X19786Y49838D01*
X19733Y49927D01*
X19684Y50018D01*
X19670Y50032D01*
X19660Y50049D01*
X19581Y50116D01*
X19506Y50188D01*
X19488Y50196D01*
X19473Y50209D01*
X19377Y50248D01*
X19283Y50291D01*
X19263Y50293D01*
X19245Y50301D01*
X19078Y50319D01*
X18376Y50319D01*
X15267Y53428D01*
X15267Y57824D01*
X18415Y60972D01*
X18418Y60972D01*
X18499Y61015D01*
X18583Y61051D01*
X18615Y61077D01*
X18635Y61088D01*
X18658Y61111D01*
X18714Y61156D01*
X19834Y62276D01*
X22987Y65429D01*
X23028Y65487D01*
X23078Y65539D01*
X23100Y65586D01*
X23130Y65628D01*
X23151Y65697D01*
X23181Y65762D01*
X23187Y65814D01*
X23203Y65864D01*
X23201Y65935D01*
X23209Y66006D01*
X23198Y66057D01*
X23196Y66109D01*
X23172Y66177D01*
X23156Y66247D01*
X23130Y66291D01*
X23112Y66340D01*
X23067Y66396D01*
X23030Y66458D01*
X22991Y66492D01*
X22958Y66532D01*
X22923Y66555D01*
X22923Y77546D01*
X22923Y88364D01*
X23759Y88364D01*
X24405Y88191D01*
X24984Y87856D01*
X25270Y87571D01*
X25344Y87518D01*
X25413Y87458D01*
X25443Y87446D01*
X25470Y87427D01*
X25557Y87401D01*
X25641Y87367D01*
X25682Y87362D01*
X25705Y87355D01*
X25737Y87356D01*
X25808Y87348D01*
X29056Y87348D01*
X29124Y87280D01*
X29140Y87269D01*
X29152Y87253D01*
X29239Y87197D01*
X29323Y87137D01*
X29342Y87131D01*
X29359Y87120D01*
X29460Y87095D01*
X29558Y87064D01*
X29578Y87065D01*
X29598Y87060D01*
X29701Y87068D01*
X29804Y87071D01*
X29823Y87078D01*
X29843Y87079D01*
X29938Y87120D01*
X30035Y87155D01*
X30051Y87168D01*
X30069Y87175D01*
X30200Y87280D01*
X30268Y87348D01*
X34056Y87348D01*
X34124Y87280D01*
X34140Y87269D01*
X34152Y87253D01*
X34239Y87197D01*
X34323Y87137D01*
X34342Y87131D01*
X34359Y87120D01*
X34460Y87095D01*
X34558Y87064D01*
X34578Y87065D01*
X34598Y87060D01*
X34701Y87068D01*
X34804Y87071D01*
X34823Y87078D01*
X34843Y87079D01*
X34938Y87120D01*
X35035Y87155D01*
X35051Y87168D01*
X35069Y87175D01*
X35200Y87280D01*
X35268Y87348D01*
X39056Y87348D01*
X39124Y87280D01*
X39140Y87269D01*
X39152Y87253D01*
X39239Y87197D01*
X39323Y87137D01*
X39342Y87131D01*
X39359Y87120D01*
X39460Y87095D01*
X39558Y87064D01*
X39578Y87065D01*
X39598Y87060D01*
X39701Y87068D01*
X39804Y87071D01*
X39823Y87078D01*
X39843Y87079D01*
X39938Y87120D01*
X40035Y87155D01*
X40051Y87168D01*
X40069Y87175D01*
X40200Y87280D01*
X40268Y87348D01*
X44056Y87348D01*
X44124Y87280D01*
X44140Y87269D01*
X44152Y87253D01*
X44239Y87197D01*
X44323Y87137D01*
X44342Y87131D01*
X44359Y87120D01*
X44460Y87095D01*
X44558Y87064D01*
X44578Y87065D01*
X44598Y87060D01*
X44701Y87068D01*
X44804Y87071D01*
X44823Y87078D01*
X44843Y87079D01*
X44938Y87120D01*
X45035Y87155D01*
X45051Y87168D01*
X45069Y87175D01*
X45200Y87280D01*
X45268Y87348D01*
X49056Y87348D01*
X49124Y87280D01*
X49140Y87269D01*
X49152Y87253D01*
X49239Y87197D01*
X49323Y87137D01*
X49342Y87131D01*
X49359Y87120D01*
X49460Y87095D01*
X49558Y87064D01*
X49578Y87065D01*
X49598Y87060D01*
X49701Y87068D01*
X49804Y87071D01*
X49823Y87078D01*
X49843Y87079D01*
X49938Y87120D01*
X50035Y87155D01*
X50051Y87168D01*
X50069Y87175D01*
X50200Y87280D01*
X50268Y87348D01*
X54056Y87348D01*
X54124Y87280D01*
X54140Y87269D01*
X54152Y87253D01*
X54239Y87197D01*
X54323Y87137D01*
X54342Y87131D01*
X54359Y87120D01*
X54460Y87095D01*
X54558Y87064D01*
X54578Y87065D01*
X54598Y87060D01*
X54701Y87068D01*
X54804Y87071D01*
X54823Y87078D01*
X54843Y87079D01*
X54938Y87120D01*
X55035Y87155D01*
X55051Y87168D01*
X55069Y87175D01*
X55200Y87280D01*
X55268Y87348D01*
X59056Y87348D01*
X59124Y87280D01*
X59140Y87269D01*
X59152Y87253D01*
X59239Y87197D01*
X59323Y87137D01*
X59342Y87131D01*
X59359Y87120D01*
X59460Y87095D01*
X59558Y87064D01*
X59578Y87065D01*
X59598Y87060D01*
X59701Y87068D01*
X59804Y87071D01*
X59823Y87078D01*
X59843Y87079D01*
X59938Y87120D01*
X60035Y87155D01*
X60051Y87168D01*
X60069Y87175D01*
X60200Y87280D01*
X60268Y87348D01*
X64056Y87348D01*
X64124Y87280D01*
X64140Y87269D01*
X64152Y87253D01*
X64239Y87197D01*
X64323Y87137D01*
X64342Y87131D01*
X64359Y87120D01*
X64460Y87095D01*
X64558Y87064D01*
X64578Y87065D01*
X64598Y87060D01*
X64701Y87068D01*
X64804Y87071D01*
X64823Y87078D01*
X64843Y87079D01*
X64938Y87120D01*
X65035Y87155D01*
X65051Y87168D01*
X65069Y87175D01*
X65200Y87280D01*
X65268Y87348D01*
X69056Y87348D01*
X69124Y87280D01*
X69140Y87269D01*
X69152Y87253D01*
X69239Y87197D01*
X69323Y87137D01*
X69342Y87131D01*
X69359Y87120D01*
X69460Y87095D01*
X69558Y87064D01*
X69578Y87065D01*
X69598Y87060D01*
X69701Y87068D01*
X69804Y87071D01*
X69823Y87078D01*
X69843Y87079D01*
X69938Y87120D01*
X70035Y87155D01*
X70051Y87168D01*
X70069Y87175D01*
X70200Y87280D01*
X70268Y87348D01*
X74056Y87348D01*
X74124Y87280D01*
X74140Y87269D01*
X74152Y87253D01*
X74240Y87197D01*
X74323Y87137D01*
X74342Y87131D01*
X74359Y87120D01*
X74460Y87095D01*
X74559Y87064D01*
X74579Y87065D01*
X74598Y87060D01*
X74701Y87068D01*
X74804Y87071D01*
X74823Y87078D01*
X74843Y87079D01*
X74938Y87120D01*
X75035Y87155D01*
X75051Y87168D01*
X75069Y87175D01*
X75200Y87280D01*
X75268Y87348D01*
X79056Y87348D01*
X79124Y87280D01*
X79140Y87269D01*
X79152Y87253D01*
X79239Y87197D01*
X79323Y87137D01*
X79342Y87131D01*
X79359Y87120D01*
X79460Y87095D01*
X79558Y87064D01*
X79578Y87065D01*
X79598Y87060D01*
X79701Y87068D01*
X79804Y87071D01*
X79823Y87078D01*
X79843Y87079D01*
X79938Y87120D01*
X80035Y87155D01*
X80051Y87168D01*
X80069Y87175D01*
X80200Y87280D01*
X80268Y87348D01*
X84056Y87348D01*
X84124Y87280D01*
X84140Y87269D01*
X84152Y87253D01*
X84239Y87197D01*
X84323Y87137D01*
X84342Y87131D01*
X84359Y87120D01*
X84460Y87095D01*
X84558Y87064D01*
X84578Y87065D01*
X84598Y87060D01*
X84701Y87068D01*
X84804Y87071D01*
X84823Y87078D01*
X84843Y87079D01*
X84938Y87120D01*
X85035Y87155D01*
X85051Y87168D01*
X85069Y87175D01*
X85200Y87280D01*
X85268Y87348D01*
X89056Y87348D01*
X89124Y87280D01*
X89140Y87269D01*
X89152Y87253D01*
X89239Y87197D01*
X89323Y87137D01*
X89342Y87131D01*
X89359Y87120D01*
X89460Y87095D01*
X89558Y87064D01*
X89578Y87065D01*
X89598Y87060D01*
X89701Y87068D01*
X89804Y87071D01*
X89823Y87078D01*
X89843Y87079D01*
X89938Y87120D01*
X90035Y87155D01*
X90051Y87168D01*
X90069Y87175D01*
X90200Y87280D01*
X90268Y87348D01*
X94056Y87348D01*
X94124Y87280D01*
X94140Y87269D01*
X94152Y87253D01*
X94239Y87197D01*
X94323Y87137D01*
X94342Y87131D01*
X94359Y87120D01*
X94460Y87095D01*
X94558Y87064D01*
X94578Y87065D01*
X94598Y87060D01*
X94701Y87068D01*
X94804Y87071D01*
X94823Y87078D01*
X94843Y87079D01*
X94938Y87120D01*
X95035Y87155D01*
X95051Y87168D01*
X95069Y87175D01*
X95200Y87280D01*
X95268Y87348D01*
X99056Y87348D01*
X99124Y87280D01*
X99140Y87269D01*
X99152Y87253D01*
X99239Y87197D01*
X99323Y87137D01*
X99342Y87131D01*
X99359Y87120D01*
X99460Y87095D01*
X99558Y87064D01*
X99578Y87065D01*
X99598Y87060D01*
X99701Y87068D01*
X99804Y87071D01*
X99823Y87078D01*
X99843Y87079D01*
X99938Y87120D01*
X100035Y87155D01*
X100051Y87168D01*
X100069Y87175D01*
X100200Y87280D01*
X100268Y87348D01*
X104056Y87348D01*
X104124Y87280D01*
X104140Y87269D01*
X104152Y87253D01*
X104239Y87197D01*
X104323Y87137D01*
X104342Y87131D01*
X104359Y87120D01*
X104460Y87095D01*
X104558Y87064D01*
X104578Y87065D01*
X104598Y87060D01*
X104701Y87068D01*
X104804Y87071D01*
X104823Y87078D01*
X104843Y87079D01*
X104938Y87120D01*
X105035Y87155D01*
X105051Y87168D01*
X105069Y87175D01*
X105200Y87280D01*
X105268Y87348D01*
X109056Y87348D01*
X109124Y87280D01*
X109140Y87269D01*
X109152Y87253D01*
X109239Y87197D01*
X109323Y87137D01*
X109342Y87131D01*
X109359Y87120D01*
X109460Y87095D01*
X109558Y87064D01*
X109578Y87065D01*
X109598Y87060D01*
X109701Y87068D01*
X109804Y87071D01*
X109823Y87078D01*
X109843Y87079D01*
X109938Y87120D01*
X110035Y87155D01*
X110051Y87168D01*
X110069Y87175D01*
X110200Y87280D01*
X110268Y87348D01*
X114056Y87348D01*
X114124Y87280D01*
X114140Y87269D01*
X114152Y87253D01*
X114239Y87197D01*
X114323Y87137D01*
X114342Y87131D01*
X114359Y87120D01*
X114460Y87095D01*
X114558Y87064D01*
X114578Y87065D01*
X114598Y87060D01*
X114701Y87068D01*
X114804Y87071D01*
X114823Y87078D01*
X114843Y87079D01*
X114938Y87120D01*
X115035Y87155D01*
X115051Y87168D01*
X115069Y87175D01*
X115200Y87280D01*
X115268Y87348D01*
X119056Y87348D01*
X119124Y87280D01*
X119140Y87269D01*
X119152Y87253D01*
X119239Y87197D01*
X119323Y87137D01*
X119342Y87131D01*
X119359Y87120D01*
X119460Y87095D01*
X119558Y87064D01*
X119578Y87065D01*
X119598Y87060D01*
X119701Y87068D01*
X119804Y87071D01*
X119823Y87078D01*
X119843Y87079D01*
X119938Y87120D01*
X120035Y87155D01*
X120051Y87168D01*
X120069Y87175D01*
X120200Y87280D01*
X120268Y87348D01*
X124056Y87348D01*
X124124Y87280D01*
X124140Y87269D01*
X124152Y87253D01*
X124239Y87197D01*
X124323Y87137D01*
X124342Y87131D01*
X124359Y87120D01*
X124460Y87095D01*
X124558Y87064D01*
X124578Y87065D01*
X124598Y87060D01*
X124701Y87068D01*
X124804Y87071D01*
X124823Y87078D01*
X124843Y87079D01*
X124938Y87120D01*
X125035Y87155D01*
X125051Y87168D01*
X125069Y87175D01*
X125200Y87280D01*
X125268Y87348D01*
X129056Y87348D01*
X129124Y87280D01*
X129140Y87269D01*
X129152Y87253D01*
X129239Y87197D01*
X129323Y87137D01*
X129342Y87131D01*
X129359Y87120D01*
X129460Y87095D01*
X129558Y87064D01*
X129578Y87065D01*
X129598Y87060D01*
X129701Y87068D01*
X129804Y87071D01*
X129823Y87078D01*
X129843Y87079D01*
X129938Y87120D01*
X130035Y87155D01*
X130051Y87168D01*
X130069Y87175D01*
X130200Y87280D01*
X130268Y87348D01*
X134056Y87348D01*
X134124Y87280D01*
X134140Y87269D01*
X134152Y87253D01*
X134239Y87197D01*
X134323Y87137D01*
X134342Y87131D01*
X134359Y87120D01*
X134460Y87095D01*
X134558Y87064D01*
X134578Y87065D01*
X134598Y87060D01*
X134701Y87068D01*
X134804Y87071D01*
X134823Y87078D01*
X134843Y87079D01*
X134938Y87120D01*
X135035Y87155D01*
X135051Y87168D01*
X135069Y87175D01*
X135200Y87280D01*
X135268Y87348D01*
X139056Y87348D01*
X139124Y87280D01*
X139140Y87269D01*
X139152Y87253D01*
X139239Y87197D01*
X139323Y87137D01*
X139342Y87131D01*
X139359Y87120D01*
X139460Y87095D01*
X139558Y87064D01*
X139578Y87065D01*
X139598Y87060D01*
X139701Y87068D01*
X139804Y87071D01*
X139823Y87078D01*
X139843Y87079D01*
X139938Y87120D01*
X140035Y87155D01*
X140051Y87168D01*
X140069Y87175D01*
X140200Y87280D01*
X140268Y87348D01*
X144114Y87348D01*
X144134Y87351D01*
X144153Y87349D01*
X144255Y87371D01*
X144357Y87388D01*
X144374Y87397D01*
X144394Y87401D01*
X144483Y87455D01*
X144574Y87503D01*
X144588Y87517D01*
X144605Y87528D01*
X144672Y87606D01*
X144744Y87681D01*
X144752Y87699D01*
X144765Y87714D01*
X144804Y87811D01*
X144847Y87904D01*
X144849Y87924D01*
X144857Y87943D01*
X144875Y88109D01*
X144875Y94515D01*
X238790Y188430D01*
X238843Y188504D01*
X238903Y188574D01*
X238915Y188604D01*
X238934Y188630D01*
X238961Y188717D01*
X238995Y188802D01*
X238999Y188843D01*
X239006Y188865D01*
X239005Y188897D01*
X239013Y188969D01*
X239013Y196342D01*
X239010Y196362D01*
X239012Y196381D01*
X238990Y196483D01*
X238974Y196585D01*
X238964Y196602D01*
X238960Y196622D01*
X238907Y196711D01*
X238858Y196802D01*
X238844Y196816D01*
X238834Y196833D01*
X238755Y196900D01*
X238680Y196972D01*
X238662Y196980D01*
X238647Y196993D01*
X238551Y197032D01*
X238457Y197075D01*
X238437Y197077D01*
X238419Y197085D01*
X238252Y197103D01*
X237723Y197103D01*
X235234Y199592D01*
X235176Y199633D01*
X235124Y199683D01*
X235077Y199705D01*
X235035Y199735D01*
X234966Y199756D01*
X234901Y199786D01*
X234849Y199792D01*
X234799Y199807D01*
X234728Y199806D01*
X234657Y199814D01*
X234606Y199802D01*
X234554Y199801D01*
X234486Y199776D01*
X234416Y199761D01*
X234371Y199735D01*
X234323Y199717D01*
X234267Y199672D01*
X234205Y199635D01*
X234171Y199596D01*
X234131Y199563D01*
X234092Y199503D01*
X234045Y199448D01*
X234026Y199400D01*
X233998Y199356D01*
X233980Y199287D01*
X233953Y199220D01*
X233945Y199149D01*
X233937Y199118D01*
X233939Y199094D01*
X233935Y199053D01*
X233935Y198196D01*
X218872Y183133D01*
X187168Y183133D01*
X187078Y183119D01*
X186987Y183111D01*
X186957Y183099D01*
X186925Y183094D01*
X186845Y183051D01*
X186761Y183015D01*
X186729Y182989D01*
X186708Y182978D01*
X186686Y182955D01*
X186630Y182910D01*
X180249Y176529D01*
X161492Y176529D01*
X161402Y176515D01*
X161311Y176507D01*
X161281Y176495D01*
X161249Y176490D01*
X161168Y176447D01*
X161085Y176411D01*
X161052Y176385D01*
X161032Y176374D01*
X161010Y176351D01*
X160954Y176306D01*
X154319Y169671D01*
X147313Y169671D01*
X147223Y169657D01*
X147132Y169649D01*
X147102Y169637D01*
X147070Y169632D01*
X146989Y169589D01*
X146905Y169553D01*
X146873Y169527D01*
X146852Y169516D01*
X146830Y169493D01*
X146774Y169448D01*
X146012Y168686D01*
X145970Y168628D01*
X145921Y168576D01*
X145899Y168529D01*
X145869Y168487D01*
X145848Y168418D01*
X145817Y168353D01*
X145812Y168301D01*
X145796Y168251D01*
X145798Y168180D01*
X145790Y168109D01*
X145801Y168058D01*
X145803Y168006D01*
X145827Y167938D01*
X145842Y167868D01*
X145869Y167823D01*
X145887Y167775D01*
X145932Y167719D01*
X145969Y167657D01*
X146008Y167623D01*
X146041Y167583D01*
X146101Y167544D01*
X146156Y167497D01*
X146204Y167478D01*
X146248Y167450D01*
X146317Y167432D01*
X146384Y167405D01*
X146455Y167397D01*
X146486Y167389D01*
X146510Y167391D01*
X146550Y167387D01*
X172878Y167387D01*
X179568Y160696D01*
X179642Y160643D01*
X179712Y160584D01*
X179742Y160572D01*
X179768Y160553D01*
X179855Y160526D01*
X179940Y160492D01*
X179981Y160487D01*
X180003Y160481D01*
X180035Y160481D01*
X180107Y160473D01*
X183781Y160473D01*
X186889Y157365D01*
X186889Y152969D01*
X183781Y149860D01*
X181836Y149860D01*
X181816Y149857D01*
X181797Y149859D01*
X181695Y149837D01*
X181593Y149820D01*
X181576Y149811D01*
X181556Y149807D01*
X181467Y149754D01*
X181376Y149705D01*
X181362Y149691D01*
X181345Y149681D01*
X181278Y149602D01*
X181206Y149527D01*
X181198Y149509D01*
X181185Y149494D01*
X181146Y149397D01*
X181103Y149304D01*
X181101Y149284D01*
X181093Y149265D01*
X181075Y149099D01*
X181075Y144614D01*
X177966Y141505D01*
X175232Y141505D01*
X175212Y141502D01*
X175193Y141504D01*
X175091Y141482D01*
X174989Y141466D01*
X174972Y141456D01*
X174952Y141452D01*
X174863Y141399D01*
X174772Y141350D01*
X174758Y141336D01*
X174741Y141326D01*
X174674Y141247D01*
X174602Y141172D01*
X174594Y141154D01*
X174581Y141139D01*
X174542Y141043D01*
X174499Y140949D01*
X174497Y140929D01*
X174489Y140911D01*
X174471Y140744D01*
X174471Y136994D01*
X171362Y133885D01*
X166966Y133885D01*
X164169Y136682D01*
X164095Y136735D01*
X164025Y136795D01*
X163995Y136807D01*
X163969Y136826D01*
X163882Y136853D01*
X163797Y136887D01*
X163756Y136891D01*
X163734Y136898D01*
X163702Y136897D01*
X163631Y136905D01*
X161359Y136905D01*
X157235Y141029D01*
X157161Y141082D01*
X157092Y141142D01*
X157062Y141154D01*
X157035Y141173D01*
X156948Y141199D01*
X156864Y141233D01*
X156823Y141238D01*
X156800Y141245D01*
X156768Y141244D01*
X156697Y141252D01*
X155268Y141252D01*
X155200Y141320D01*
X155184Y141331D01*
X155172Y141347D01*
X155085Y141403D01*
X155001Y141463D01*
X154982Y141469D01*
X154965Y141480D01*
X154864Y141505D01*
X154766Y141536D01*
X154746Y141535D01*
X154726Y141540D01*
X154623Y141532D01*
X154520Y141529D01*
X154501Y141522D01*
X154481Y141521D01*
X154386Y141480D01*
X154289Y141445D01*
X154273Y141432D01*
X154255Y141425D01*
X154124Y141320D01*
X154056Y141252D01*
X150268Y141252D01*
X150200Y141320D01*
X150184Y141331D01*
X150172Y141347D01*
X150085Y141403D01*
X150001Y141463D01*
X149982Y141469D01*
X149965Y141480D01*
X149864Y141505D01*
X149766Y141536D01*
X149746Y141535D01*
X149726Y141540D01*
X149623Y141532D01*
X149520Y141529D01*
X149501Y141522D01*
X149481Y141521D01*
X149386Y141480D01*
X149289Y141445D01*
X149273Y141432D01*
X149255Y141425D01*
X149124Y141320D01*
X149056Y141252D01*
X145268Y141252D01*
X145200Y141320D01*
X145184Y141331D01*
X145172Y141347D01*
X145085Y141403D01*
X145001Y141463D01*
X144982Y141469D01*
X144965Y141480D01*
X144864Y141505D01*
X144766Y141536D01*
X144746Y141535D01*
X144726Y141540D01*
X144623Y141532D01*
X144520Y141529D01*
X144501Y141522D01*
X144481Y141521D01*
X144386Y141480D01*
X144289Y141445D01*
X144273Y141432D01*
X144255Y141425D01*
X144124Y141320D01*
X144056Y141252D01*
X140268Y141252D01*
X140200Y141320D01*
X140184Y141331D01*
X140172Y141347D01*
X140085Y141403D01*
X140001Y141463D01*
X139982Y141469D01*
X139965Y141480D01*
X139864Y141505D01*
X139766Y141536D01*
X139746Y141535D01*
X139726Y141540D01*
X139623Y141532D01*
X139520Y141529D01*
X139501Y141522D01*
X139481Y141521D01*
X139386Y141480D01*
X139289Y141445D01*
X139273Y141432D01*
X139255Y141425D01*
X139124Y141320D01*
X139056Y141252D01*
X135268Y141252D01*
X135200Y141320D01*
X135184Y141331D01*
X135172Y141347D01*
X135085Y141403D01*
X135001Y141463D01*
X134982Y141469D01*
X134965Y141480D01*
X134864Y141505D01*
X134766Y141536D01*
X134746Y141535D01*
X134726Y141540D01*
X134623Y141532D01*
X134520Y141529D01*
X134501Y141522D01*
X134481Y141521D01*
X134386Y141480D01*
X134289Y141445D01*
X134273Y141432D01*
X134255Y141425D01*
X134124Y141320D01*
X134056Y141252D01*
X130268Y141252D01*
X130200Y141320D01*
X130184Y141331D01*
X130172Y141347D01*
X130085Y141403D01*
X130001Y141463D01*
X129982Y141469D01*
X129965Y141480D01*
X129864Y141505D01*
X129766Y141536D01*
X129746Y141535D01*
X129726Y141540D01*
X129623Y141532D01*
X129520Y141529D01*
X129501Y141522D01*
X129481Y141521D01*
X129386Y141480D01*
X129289Y141445D01*
X129273Y141432D01*
X129255Y141425D01*
X129124Y141320D01*
X129056Y141252D01*
X125268Y141252D01*
X125200Y141320D01*
X125184Y141331D01*
X125172Y141347D01*
X125084Y141403D01*
X125001Y141463D01*
X124982Y141469D01*
X124965Y141480D01*
X124864Y141505D01*
X124765Y141536D01*
X124745Y141535D01*
X124726Y141540D01*
X124623Y141532D01*
X124520Y141529D01*
X124501Y141522D01*
X124481Y141521D01*
X124386Y141480D01*
X124289Y141445D01*
X124273Y141432D01*
X124255Y141425D01*
X124124Y141320D01*
X124056Y141252D01*
X120268Y141252D01*
X120200Y141320D01*
X120184Y141331D01*
X120172Y141347D01*
X120085Y141403D01*
X120001Y141463D01*
X119982Y141469D01*
X119965Y141480D01*
X119864Y141505D01*
X119766Y141536D01*
X119746Y141535D01*
X119726Y141540D01*
X119623Y141532D01*
X119520Y141529D01*
X119501Y141522D01*
X119481Y141521D01*
X119386Y141480D01*
X119289Y141445D01*
X119273Y141432D01*
X119255Y141425D01*
X119124Y141320D01*
X119056Y141252D01*
X115268Y141252D01*
X115200Y141320D01*
X115184Y141331D01*
X115172Y141347D01*
X115085Y141403D01*
X115001Y141463D01*
X114982Y141469D01*
X114965Y141480D01*
X114864Y141505D01*
X114766Y141536D01*
X114746Y141535D01*
X114726Y141540D01*
X114623Y141532D01*
X114520Y141529D01*
X114501Y141522D01*
X114481Y141521D01*
X114386Y141480D01*
X114289Y141445D01*
X114273Y141432D01*
X114255Y141425D01*
X114124Y141320D01*
X114056Y141252D01*
X110268Y141252D01*
X110200Y141320D01*
X110184Y141331D01*
X110172Y141347D01*
X110085Y141403D01*
X110001Y141463D01*
X109982Y141469D01*
X109965Y141480D01*
X109864Y141505D01*
X109766Y141536D01*
X109746Y141535D01*
X109726Y141540D01*
X109623Y141532D01*
X109520Y141529D01*
X109501Y141522D01*
X109481Y141521D01*
X109386Y141480D01*
X109289Y141445D01*
X109273Y141432D01*
X109255Y141425D01*
X109124Y141320D01*
X109056Y141252D01*
X105268Y141252D01*
X105200Y141320D01*
X105184Y141331D01*
X105172Y141347D01*
X105085Y141403D01*
X105001Y141463D01*
X104982Y141469D01*
X104965Y141480D01*
X104864Y141505D01*
X104766Y141536D01*
X104746Y141535D01*
X104726Y141540D01*
X104623Y141532D01*
X104520Y141529D01*
X104501Y141522D01*
X104481Y141521D01*
X104386Y141480D01*
X104289Y141445D01*
X104273Y141432D01*
X104255Y141425D01*
X104124Y141320D01*
X104056Y141252D01*
X100268Y141252D01*
X100200Y141320D01*
X100184Y141331D01*
X100172Y141347D01*
X100085Y141403D01*
X100001Y141463D01*
X99982Y141469D01*
X99965Y141480D01*
X99864Y141505D01*
X99766Y141536D01*
X99746Y141535D01*
X99726Y141540D01*
X99623Y141532D01*
X99520Y141529D01*
X99501Y141522D01*
X99481Y141521D01*
X99386Y141480D01*
X99289Y141445D01*
X99273Y141432D01*
X99255Y141425D01*
X99124Y141320D01*
X99056Y141252D01*
X95268Y141252D01*
X95200Y141320D01*
X95184Y141331D01*
X95172Y141347D01*
X95085Y141403D01*
X95001Y141463D01*
X94982Y141469D01*
X94965Y141480D01*
X94864Y141505D01*
X94766Y141536D01*
X94746Y141535D01*
X94726Y141540D01*
X94623Y141532D01*
X94520Y141529D01*
X94501Y141522D01*
X94481Y141521D01*
X94386Y141480D01*
X94289Y141445D01*
X94273Y141432D01*
X94255Y141425D01*
X94124Y141320D01*
X94056Y141252D01*
X90268Y141252D01*
X90200Y141320D01*
X90184Y141331D01*
X90172Y141347D01*
X90085Y141403D01*
X90001Y141463D01*
X89982Y141469D01*
X89965Y141480D01*
X89864Y141505D01*
X89766Y141536D01*
X89746Y141535D01*
X89726Y141540D01*
X89623Y141532D01*
X89520Y141529D01*
X89501Y141522D01*
X89481Y141521D01*
X89386Y141480D01*
X89289Y141445D01*
X89273Y141432D01*
X89255Y141425D01*
X89124Y141320D01*
X89056Y141252D01*
X85268Y141252D01*
X85200Y141320D01*
X85184Y141331D01*
X85172Y141347D01*
X85085Y141403D01*
X85001Y141463D01*
X84982Y141469D01*
X84965Y141480D01*
X84864Y141505D01*
X84766Y141536D01*
X84746Y141535D01*
X84726Y141540D01*
X84623Y141532D01*
X84520Y141529D01*
X84501Y141522D01*
X84481Y141521D01*
X84386Y141480D01*
X84289Y141445D01*
X84273Y141432D01*
X84255Y141425D01*
X84124Y141320D01*
X84056Y141252D01*
X80268Y141252D01*
X80200Y141320D01*
X80184Y141331D01*
X80172Y141347D01*
X80085Y141403D01*
X80001Y141463D01*
X79982Y141469D01*
X79965Y141480D01*
X79864Y141505D01*
X79766Y141536D01*
X79746Y141535D01*
X79726Y141540D01*
X79623Y141532D01*
X79520Y141529D01*
X79501Y141522D01*
X79481Y141521D01*
X79386Y141480D01*
X79289Y141445D01*
X79273Y141432D01*
X79255Y141425D01*
X79124Y141320D01*
X79056Y141252D01*
X75268Y141252D01*
X75200Y141320D01*
X75184Y141331D01*
X75172Y141347D01*
X75085Y141403D01*
X75001Y141463D01*
X74982Y141469D01*
X74965Y141480D01*
X74864Y141505D01*
X74766Y141536D01*
X74746Y141535D01*
X74726Y141540D01*
X74623Y141532D01*
X74520Y141529D01*
X74501Y141522D01*
X74481Y141521D01*
X74386Y141480D01*
X74289Y141445D01*
X74273Y141432D01*
X74255Y141425D01*
X74124Y141320D01*
X74056Y141252D01*
X70268Y141252D01*
X70200Y141320D01*
X70184Y141331D01*
X70172Y141347D01*
X70085Y141403D01*
X70001Y141463D01*
X69982Y141469D01*
X69965Y141480D01*
X69864Y141505D01*
X69766Y141536D01*
X69746Y141535D01*
X69726Y141540D01*
X69623Y141532D01*
X69520Y141529D01*
X69501Y141522D01*
X69481Y141521D01*
X69386Y141480D01*
X69289Y141445D01*
X69273Y141432D01*
X69255Y141425D01*
X69124Y141320D01*
X69056Y141252D01*
X65268Y141252D01*
X65200Y141320D01*
X65184Y141331D01*
X65172Y141347D01*
X65085Y141403D01*
X65001Y141463D01*
X64982Y141469D01*
X64965Y141480D01*
X64864Y141505D01*
X64766Y141536D01*
X64746Y141535D01*
X64726Y141540D01*
X64623Y141532D01*
X64520Y141529D01*
X64501Y141522D01*
X64481Y141521D01*
X64386Y141480D01*
X64289Y141445D01*
X64273Y141432D01*
X64255Y141425D01*
X64124Y141320D01*
X64056Y141252D01*
X60268Y141252D01*
X60200Y141320D01*
X60184Y141331D01*
X60172Y141347D01*
X60085Y141403D01*
X60001Y141463D01*
X59982Y141469D01*
X59965Y141480D01*
X59864Y141505D01*
X59766Y141536D01*
X59746Y141535D01*
X59726Y141540D01*
X59623Y141532D01*
X59520Y141529D01*
X59501Y141522D01*
X59481Y141521D01*
X59386Y141480D01*
X59289Y141445D01*
X59273Y141432D01*
X59255Y141425D01*
X59124Y141320D01*
X59056Y141252D01*
X55268Y141252D01*
X55200Y141320D01*
X55184Y141331D01*
X55172Y141347D01*
X55085Y141403D01*
X55001Y141463D01*
X54982Y141469D01*
X54965Y141480D01*
X54864Y141505D01*
X54766Y141536D01*
X54746Y141535D01*
X54726Y141540D01*
X54623Y141532D01*
X54520Y141529D01*
X54501Y141522D01*
X54481Y141521D01*
X54386Y141480D01*
X54289Y141445D01*
X54273Y141432D01*
X54255Y141425D01*
X54124Y141320D01*
X54056Y141252D01*
X50268Y141252D01*
X50200Y141320D01*
X50184Y141331D01*
X50172Y141347D01*
X50085Y141403D01*
X50001Y141463D01*
X49982Y141469D01*
X49965Y141480D01*
X49864Y141505D01*
X49766Y141536D01*
X49746Y141535D01*
X49726Y141540D01*
X49623Y141532D01*
X49520Y141529D01*
X49501Y141522D01*
X49481Y141521D01*
X49386Y141480D01*
X49289Y141445D01*
X49273Y141432D01*
X49255Y141425D01*
X49124Y141320D01*
X49056Y141252D01*
X45268Y141252D01*
X45200Y141320D01*
X45184Y141331D01*
X45172Y141347D01*
X45085Y141403D01*
X45001Y141463D01*
X44982Y141469D01*
X44965Y141480D01*
X44864Y141505D01*
X44766Y141536D01*
X44746Y141535D01*
X44726Y141540D01*
X44623Y141532D01*
X44520Y141529D01*
X44501Y141522D01*
X44481Y141521D01*
X44386Y141480D01*
X44289Y141445D01*
X44273Y141432D01*
X44255Y141425D01*
X44124Y141320D01*
X44056Y141252D01*
X40268Y141252D01*
X40200Y141320D01*
X40184Y141331D01*
X40172Y141347D01*
X40085Y141403D01*
X40001Y141463D01*
X39982Y141469D01*
X39965Y141480D01*
X39864Y141505D01*
X39766Y141536D01*
X39746Y141535D01*
X39726Y141540D01*
X39623Y141532D01*
X39520Y141529D01*
X39501Y141522D01*
X39481Y141521D01*
X39386Y141480D01*
X39289Y141445D01*
X39273Y141432D01*
X39255Y141425D01*
X39124Y141320D01*
X39056Y141252D01*
X35268Y141252D01*
X35200Y141320D01*
X35184Y141331D01*
X35172Y141347D01*
X35085Y141403D01*
X35001Y141463D01*
X34982Y141469D01*
X34965Y141480D01*
X34864Y141505D01*
X34766Y141536D01*
X34746Y141535D01*
X34726Y141540D01*
X34623Y141532D01*
X34520Y141529D01*
X34501Y141522D01*
X34481Y141521D01*
X34386Y141480D01*
X34289Y141445D01*
X34273Y141432D01*
X34255Y141425D01*
X34124Y141320D01*
X34056Y141252D01*
X30268Y141252D01*
X30200Y141320D01*
X30184Y141331D01*
X30172Y141347D01*
X30085Y141403D01*
X30001Y141463D01*
X29982Y141469D01*
X29965Y141480D01*
X29864Y141505D01*
X29766Y141536D01*
X29746Y141535D01*
X29726Y141540D01*
X29623Y141532D01*
X29520Y141529D01*
X29501Y141522D01*
X29481Y141521D01*
X29386Y141480D01*
X29289Y141445D01*
X29273Y141432D01*
X29255Y141425D01*
X29124Y141320D01*
X29056Y141252D01*
X25268Y141252D01*
X25200Y141320D01*
X25184Y141331D01*
X25172Y141347D01*
X25085Y141403D01*
X25001Y141463D01*
X24982Y141469D01*
X24965Y141480D01*
X24864Y141505D01*
X24766Y141536D01*
X24746Y141535D01*
X24726Y141540D01*
X24623Y141532D01*
X24520Y141529D01*
X24501Y141522D01*
X24481Y141521D01*
X24386Y141480D01*
X24289Y141445D01*
X24273Y141432D01*
X24255Y141425D01*
X24124Y141320D01*
X24056Y141252D01*
X20268Y141252D01*
X19375Y142145D01*
X19375Y156464D01*
X19372Y156484D01*
X19374Y156503D01*
X19352Y156605D01*
X19335Y156707D01*
X19326Y156724D01*
X19322Y156744D01*
X19268Y156833D01*
X19220Y156924D01*
X19206Y156938D01*
X19195Y156955D01*
X19117Y157022D01*
X19042Y157094D01*
X19024Y157102D01*
X19009Y157115D01*
X18912Y157154D01*
X18819Y157197D01*
X18799Y157199D01*
X18780Y157207D01*
X18614Y157225D01*
X-49791Y157225D01*
X-49882Y157211D01*
X-49972Y157203D01*
X-50002Y157191D01*
X-50034Y157186D01*
X-50115Y157143D01*
X-50199Y157107D01*
X-50231Y157081D01*
X-50252Y157070D01*
X-50274Y157047D01*
X-50330Y157002D01*
X-53116Y154216D01*
X-53169Y154142D01*
X-53229Y154072D01*
X-53241Y154042D01*
X-53260Y154016D01*
X-53287Y153929D01*
X-53321Y153844D01*
X-53325Y153803D01*
X-53332Y153781D01*
X-53331Y153749D01*
X-53339Y153677D01*
X-53339Y132588D01*
X-53336Y132568D01*
X-53338Y132549D01*
X-53316Y132447D01*
X-53300Y132345D01*
X-53290Y132328D01*
X-53286Y132308D01*
X-53233Y132219D01*
X-53184Y132128D01*
X-53170Y132114D01*
X-53160Y132097D01*
X-53081Y132030D01*
X-53006Y131958D01*
X-52988Y131950D01*
X-52973Y131937D01*
X-52877Y131898D01*
X-52783Y131855D01*
X-52763Y131853D01*
X-52745Y131845D01*
X-52578Y131827D01*
X-50996Y131827D01*
X-44449Y125280D01*
X-44449Y116020D01*
X-50996Y109473D01*
X-60256Y109473D01*
X-66803Y116020D01*
X-66803Y125280D01*
X-60256Y131827D01*
X-58674Y131827D01*
X-58654Y131830D01*
X-58635Y131828D01*
X-58533Y131850D01*
X-58431Y131866D01*
X-58414Y131876D01*
X-58394Y131880D01*
X-58305Y131933D01*
X-58214Y131982D01*
X-58200Y131996D01*
X-58183Y132006D01*
X-58116Y132085D01*
X-58044Y132160D01*
X-58036Y132178D01*
X-58023Y132193D01*
X-57984Y132289D01*
X-57941Y132383D01*
X-57939Y132403D01*
X-57931Y132421D01*
X-57913Y132588D01*
X-57913Y155887D01*
X-52001Y161799D01*
X-31742Y161799D01*
X-31672Y161810D01*
X-31600Y161812D01*
X-31551Y161830D01*
X-31500Y161838D01*
X-31436Y161872D01*
X-31369Y161897D01*
X-31328Y161929D01*
X-31282Y161954D01*
X-31233Y162006D01*
X-31177Y162050D01*
X-31149Y162094D01*
X-31113Y162132D01*
X-31083Y162197D01*
X-31044Y162257D01*
X-31031Y162308D01*
X-31009Y162355D01*
X-31001Y162426D01*
X-30984Y162496D01*
X-30988Y162548D01*
X-30982Y162599D01*
X-30997Y162670D01*
X-31003Y162741D01*
X-31023Y162789D01*
X-31034Y162840D01*
X-31071Y162901D01*
X-31099Y162967D01*
X-31144Y163023D01*
X-31161Y163051D01*
X-31178Y163066D01*
X-31204Y163098D01*
X-53810Y185704D01*
X-55373Y187267D01*
X-55373Y199815D01*
X-55384Y199886D01*
X-55386Y199958D01*
X-55404Y200007D01*
X-55412Y200058D01*
X-55446Y200121D01*
X-55471Y200189D01*
X-55503Y200229D01*
X-55528Y200275D01*
X-55580Y200325D01*
X-55624Y200381D01*
X-55668Y200409D01*
X-55706Y200445D01*
X-55771Y200475D01*
X-55831Y200514D01*
X-55882Y200526D01*
X-55929Y200548D01*
X-56000Y200556D01*
X-56070Y200574D01*
X-56122Y200570D01*
X-56173Y200576D01*
X-56244Y200560D01*
X-56315Y200555D01*
X-56363Y200534D01*
X-56414Y200523D01*
X-56475Y200486D01*
X-56541Y200458D01*
X-56597Y200414D01*
X-56625Y200397D01*
X-56640Y200379D01*
X-56672Y200354D01*
X-59923Y197103D01*
X-67077Y197103D01*
X-70074Y200100D01*
X-70132Y200141D01*
X-70184Y200191D01*
X-70231Y200213D01*
X-70273Y200243D01*
X-70342Y200264D01*
X-70407Y200294D01*
X-70459Y200300D01*
X-70509Y200315D01*
X-70580Y200314D01*
X-70651Y200322D01*
X-70702Y200310D01*
X-70754Y200309D01*
X-70822Y200284D01*
X-70892Y200269D01*
X-70937Y200243D01*
X-70985Y200225D01*
X-71041Y200180D01*
X-71103Y200143D01*
X-71137Y200104D01*
X-71177Y200071D01*
X-71216Y200011D01*
X-71263Y199956D01*
X-71282Y199908D01*
X-71310Y199864D01*
X-71328Y199795D01*
X-71355Y199728D01*
X-71363Y199657D01*
X-71371Y199626D01*
X-71369Y199602D01*
X-71373Y199561D01*
X-71373Y114300D01*
X-71369Y114274D01*
X-71370Y114225D01*
X-71184Y112342D01*
X-71177Y112315D01*
X-71177Y112287D01*
X-71130Y112126D01*
X-69689Y108646D01*
X-69654Y108591D01*
X-69628Y108530D01*
X-69576Y108465D01*
X-69559Y108437D01*
X-69544Y108425D01*
X-69524Y108399D01*
X-66861Y105736D01*
X-66808Y105698D01*
X-66761Y105652D01*
X-66688Y105612D01*
X-66661Y105593D01*
X-66642Y105587D01*
X-66614Y105571D01*
X-63134Y104130D01*
X-63107Y104124D01*
X-63082Y104111D01*
X-62918Y104076D01*
X-61035Y103890D01*
X-61008Y103892D01*
X-60960Y103887D01*
X-17339Y103887D01*
X-11831Y101605D01*
X-7615Y97389D01*
X-5333Y91881D01*
X-5333Y22860D01*
X-5330Y22838D01*
X-5331Y22800D01*
X-5087Y19701D01*
X-5086Y19695D01*
X-5086Y19690D01*
X-5052Y19525D01*
X-3137Y13630D01*
X-3120Y13598D01*
X-3112Y13564D01*
X-3029Y13418D01*
X615Y8403D01*
X640Y8378D01*
X659Y8348D01*
X783Y8235D01*
X5798Y4591D01*
X5830Y4575D01*
X5857Y4552D01*
X6010Y4483D01*
X11905Y2568D01*
X11911Y2567D01*
X11916Y2564D01*
X12081Y2533D01*
X15180Y2289D01*
X15202Y2291D01*
X15240Y2287D01*
X165100Y2287D01*
X165122Y2290D01*
G37*
G36*
X100166Y245623D02*
X100166Y245623D01*
X100218Y245625D01*
X100286Y245649D01*
X100356Y245664D01*
X100401Y245691D01*
X100449Y245709D01*
X100505Y245754D01*
X100567Y245791D01*
X100601Y245830D01*
X100641Y245863D01*
X100680Y245923D01*
X100727Y245978D01*
X100746Y246026D01*
X100774Y246070D01*
X100792Y246139D01*
X100819Y246206D01*
X100827Y246277D01*
X100835Y246308D01*
X100833Y246332D01*
X100837Y246372D01*
X100837Y266199D01*
X100823Y266290D01*
X100815Y266380D01*
X100803Y266410D01*
X100798Y266442D01*
X100755Y266523D01*
X100719Y266607D01*
X100693Y266639D01*
X100682Y266660D01*
X100659Y266682D01*
X100614Y266738D01*
X93801Y273551D01*
X93785Y273562D01*
X93773Y273578D01*
X93686Y273634D01*
X93602Y273694D01*
X93583Y273700D01*
X93566Y273711D01*
X93465Y273736D01*
X93367Y273767D01*
X93347Y273766D01*
X93327Y273771D01*
X93224Y273763D01*
X93121Y273760D01*
X93102Y273753D01*
X93082Y273752D01*
X92987Y273711D01*
X92890Y273676D01*
X92874Y273663D01*
X92856Y273655D01*
X92725Y273551D01*
X92477Y273303D01*
X85323Y273303D01*
X80263Y278363D01*
X80263Y285517D01*
X85323Y290577D01*
X92477Y290577D01*
X97537Y285517D01*
X97537Y278363D01*
X97035Y277861D01*
X97024Y277845D01*
X97008Y277833D01*
X96952Y277745D01*
X96892Y277661D01*
X96886Y277642D01*
X96875Y277626D01*
X96850Y277525D01*
X96819Y277426D01*
X96820Y277406D01*
X96815Y277387D01*
X96823Y277284D01*
X96826Y277180D01*
X96833Y277162D01*
X96834Y277142D01*
X96875Y277047D01*
X96910Y276949D01*
X96923Y276934D01*
X96931Y276916D01*
X97035Y276785D01*
X105411Y268409D01*
X105411Y261703D01*
X105422Y261632D01*
X105424Y261560D01*
X105442Y261511D01*
X105450Y261460D01*
X105484Y261397D01*
X105509Y261329D01*
X105541Y261289D01*
X105566Y261243D01*
X105618Y261193D01*
X105662Y261137D01*
X105706Y261109D01*
X105744Y261073D01*
X105809Y261043D01*
X105869Y261004D01*
X105920Y260992D01*
X105967Y260970D01*
X106038Y260962D01*
X106108Y260944D01*
X106160Y260948D01*
X106211Y260942D01*
X106282Y260958D01*
X106353Y260963D01*
X106401Y260984D01*
X106452Y260995D01*
X106513Y261032D01*
X106579Y261060D01*
X106635Y261104D01*
X106663Y261121D01*
X106678Y261139D01*
X106710Y261164D01*
X110723Y265177D01*
X117877Y265177D01*
X122937Y260117D01*
X122937Y252963D01*
X121927Y251953D01*
X121916Y251937D01*
X121900Y251925D01*
X121844Y251837D01*
X121784Y251753D01*
X121778Y251734D01*
X121767Y251718D01*
X121742Y251617D01*
X121711Y251518D01*
X121712Y251498D01*
X121707Y251479D01*
X121715Y251376D01*
X121718Y251272D01*
X121725Y251254D01*
X121726Y251234D01*
X121767Y251139D01*
X121802Y251041D01*
X121815Y251026D01*
X121822Y251008D01*
X121927Y250877D01*
X125446Y247358D01*
X125504Y247316D01*
X125556Y247267D01*
X125603Y247245D01*
X125645Y247215D01*
X125714Y247194D01*
X125779Y247163D01*
X125831Y247158D01*
X125881Y247142D01*
X125952Y247144D01*
X126023Y247136D01*
X126074Y247147D01*
X126126Y247149D01*
X126194Y247173D01*
X126264Y247188D01*
X126309Y247215D01*
X126357Y247233D01*
X126413Y247278D01*
X126475Y247315D01*
X126509Y247354D01*
X126549Y247387D01*
X126588Y247447D01*
X126635Y247502D01*
X126654Y247550D01*
X126682Y247594D01*
X126700Y247663D01*
X126727Y247730D01*
X126735Y247801D01*
X126743Y247832D01*
X126741Y247856D01*
X126745Y247896D01*
X126745Y266453D01*
X126743Y266468D01*
X126744Y266480D01*
X126731Y266542D01*
X126731Y266544D01*
X126723Y266634D01*
X126711Y266664D01*
X126706Y266696D01*
X126663Y266777D01*
X126627Y266861D01*
X126601Y266893D01*
X126590Y266914D01*
X126567Y266936D01*
X126522Y266992D01*
X119582Y273932D01*
X119566Y273943D01*
X119554Y273959D01*
X119467Y274015D01*
X119383Y274075D01*
X119364Y274081D01*
X119347Y274092D01*
X119246Y274117D01*
X119148Y274148D01*
X119128Y274147D01*
X119108Y274152D01*
X119005Y274144D01*
X118902Y274141D01*
X118883Y274134D01*
X118863Y274133D01*
X118768Y274092D01*
X118671Y274057D01*
X118655Y274044D01*
X118637Y274036D01*
X118506Y273932D01*
X117877Y273303D01*
X110723Y273303D01*
X105663Y278363D01*
X105663Y285517D01*
X110723Y290577D01*
X117877Y290577D01*
X122937Y285517D01*
X122937Y278363D01*
X122816Y278242D01*
X122805Y278226D01*
X122789Y278214D01*
X122733Y278126D01*
X122673Y278042D01*
X122667Y278023D01*
X122656Y278007D01*
X122631Y277906D01*
X122600Y277807D01*
X122601Y277787D01*
X122596Y277768D01*
X122604Y277665D01*
X122607Y277562D01*
X122614Y277543D01*
X122615Y277523D01*
X122656Y277428D01*
X122691Y277330D01*
X122704Y277315D01*
X122712Y277297D01*
X122816Y277166D01*
X131319Y268663D01*
X131319Y262211D01*
X131330Y262140D01*
X131332Y262068D01*
X131350Y262019D01*
X131358Y261968D01*
X131392Y261905D01*
X131417Y261837D01*
X131449Y261797D01*
X131474Y261751D01*
X131526Y261701D01*
X131570Y261645D01*
X131614Y261617D01*
X131652Y261581D01*
X131717Y261551D01*
X131777Y261512D01*
X131828Y261500D01*
X131875Y261478D01*
X131946Y261470D01*
X132016Y261452D01*
X132068Y261456D01*
X132119Y261450D01*
X132190Y261466D01*
X132261Y261471D01*
X132309Y261492D01*
X132360Y261503D01*
X132421Y261540D01*
X132487Y261568D01*
X132543Y261612D01*
X132571Y261629D01*
X132586Y261647D01*
X132618Y261672D01*
X136123Y265177D01*
X143277Y265177D01*
X148337Y260117D01*
X148337Y252963D01*
X146819Y251445D01*
X146808Y251429D01*
X146792Y251417D01*
X146736Y251329D01*
X146676Y251245D01*
X146670Y251226D01*
X146659Y251210D01*
X146634Y251109D01*
X146603Y251010D01*
X146604Y250990D01*
X146599Y250971D01*
X146607Y250868D01*
X146610Y250764D01*
X146617Y250746D01*
X146618Y250726D01*
X146659Y250631D01*
X146694Y250533D01*
X146707Y250518D01*
X146714Y250500D01*
X146819Y250369D01*
X150338Y246850D01*
X150396Y246808D01*
X150448Y246759D01*
X150495Y246737D01*
X150537Y246707D01*
X150606Y246686D01*
X150671Y246655D01*
X150723Y246650D01*
X150773Y246634D01*
X150844Y246636D01*
X150915Y246628D01*
X150966Y246639D01*
X151018Y246641D01*
X151086Y246665D01*
X151156Y246680D01*
X151201Y246707D01*
X151249Y246725D01*
X151305Y246770D01*
X151367Y246807D01*
X151401Y246846D01*
X151441Y246879D01*
X151480Y246939D01*
X151527Y246994D01*
X151546Y247042D01*
X151574Y247086D01*
X151592Y247155D01*
X151619Y247222D01*
X151627Y247293D01*
X151635Y247324D01*
X151633Y247348D01*
X151637Y247388D01*
X151637Y267724D01*
X151623Y267814D01*
X151615Y267905D01*
X151603Y267934D01*
X151598Y267966D01*
X151555Y268047D01*
X151519Y268131D01*
X151493Y268163D01*
X151482Y268184D01*
X151459Y268206D01*
X151414Y268262D01*
X145363Y274313D01*
X145347Y274324D01*
X145335Y274340D01*
X145247Y274396D01*
X145164Y274456D01*
X145145Y274462D01*
X145128Y274473D01*
X145027Y274498D01*
X144929Y274529D01*
X144909Y274528D01*
X144889Y274533D01*
X144786Y274525D01*
X144683Y274522D01*
X144664Y274515D01*
X144644Y274514D01*
X144549Y274473D01*
X144452Y274438D01*
X144436Y274425D01*
X144418Y274417D01*
X144287Y274313D01*
X143277Y273303D01*
X136123Y273303D01*
X131063Y278363D01*
X131063Y285517D01*
X136123Y290577D01*
X143277Y290577D01*
X148337Y285517D01*
X148337Y278122D01*
X148351Y278032D01*
X148359Y277941D01*
X148371Y277912D01*
X148376Y277880D01*
X148419Y277799D01*
X148455Y277715D01*
X148481Y277683D01*
X148492Y277662D01*
X148515Y277640D01*
X148560Y277584D01*
X154648Y271496D01*
X156211Y269933D01*
X156211Y261703D01*
X156222Y261632D01*
X156224Y261560D01*
X156242Y261511D01*
X156250Y261460D01*
X156284Y261397D01*
X156309Y261329D01*
X156341Y261289D01*
X156366Y261243D01*
X156418Y261193D01*
X156462Y261137D01*
X156506Y261109D01*
X156544Y261073D01*
X156609Y261043D01*
X156669Y261004D01*
X156720Y260992D01*
X156767Y260970D01*
X156838Y260962D01*
X156908Y260944D01*
X156960Y260948D01*
X157011Y260942D01*
X157082Y260958D01*
X157153Y260963D01*
X157201Y260984D01*
X157252Y260995D01*
X157313Y261032D01*
X157379Y261060D01*
X157435Y261104D01*
X157463Y261121D01*
X157478Y261139D01*
X157510Y261164D01*
X161523Y265177D01*
X168677Y265177D01*
X173737Y260117D01*
X173737Y252963D01*
X173108Y252334D01*
X173097Y252318D01*
X173081Y252306D01*
X173025Y252218D01*
X172965Y252134D01*
X172959Y252115D01*
X172948Y252099D01*
X172923Y251998D01*
X172892Y251899D01*
X172893Y251879D01*
X172888Y251860D01*
X172896Y251757D01*
X172899Y251653D01*
X172906Y251635D01*
X172907Y251615D01*
X172948Y251520D01*
X172983Y251422D01*
X172996Y251407D01*
X173003Y251389D01*
X173108Y251258D01*
X175992Y248374D01*
X176050Y248332D01*
X176102Y248283D01*
X176149Y248261D01*
X176191Y248231D01*
X176260Y248210D01*
X176325Y248179D01*
X176377Y248174D01*
X176427Y248158D01*
X176498Y248160D01*
X176569Y248152D01*
X176620Y248163D01*
X176672Y248165D01*
X176740Y248189D01*
X176810Y248204D01*
X176855Y248231D01*
X176903Y248249D01*
X176959Y248294D01*
X177021Y248331D01*
X177055Y248370D01*
X177095Y248403D01*
X177134Y248463D01*
X177181Y248518D01*
X177200Y248566D01*
X177228Y248610D01*
X177246Y248679D01*
X177273Y248746D01*
X177281Y248817D01*
X177289Y248848D01*
X177287Y248872D01*
X177291Y248912D01*
X177291Y267215D01*
X177289Y267230D01*
X177290Y267241D01*
X177277Y267300D01*
X177277Y267306D01*
X177269Y267396D01*
X177257Y267426D01*
X177252Y267458D01*
X177209Y267539D01*
X177173Y267623D01*
X177147Y267655D01*
X177136Y267676D01*
X177113Y267698D01*
X177068Y267754D01*
X170636Y274186D01*
X170620Y274197D01*
X170608Y274213D01*
X170521Y274269D01*
X170437Y274329D01*
X170418Y274335D01*
X170401Y274346D01*
X170300Y274371D01*
X170202Y274402D01*
X170182Y274401D01*
X170162Y274406D01*
X170059Y274398D01*
X169956Y274395D01*
X169937Y274388D01*
X169917Y274387D01*
X169822Y274346D01*
X169725Y274311D01*
X169709Y274298D01*
X169691Y274290D01*
X169560Y274186D01*
X168677Y273303D01*
X161523Y273303D01*
X156463Y278363D01*
X156463Y285517D01*
X161523Y290577D01*
X168677Y290577D01*
X173737Y285517D01*
X173737Y278310D01*
X173727Y278297D01*
X173721Y278277D01*
X173710Y278261D01*
X173685Y278160D01*
X173654Y278061D01*
X173655Y278042D01*
X173650Y278022D01*
X173658Y277919D01*
X173661Y277816D01*
X173668Y277797D01*
X173669Y277777D01*
X173710Y277682D01*
X173745Y277585D01*
X173758Y277569D01*
X173766Y277551D01*
X173870Y277420D01*
X181865Y269425D01*
X181865Y261957D01*
X181876Y261886D01*
X181878Y261814D01*
X181896Y261765D01*
X181904Y261714D01*
X181938Y261651D01*
X181963Y261583D01*
X181995Y261543D01*
X182020Y261497D01*
X182072Y261447D01*
X182116Y261391D01*
X182160Y261363D01*
X182198Y261327D01*
X182263Y261297D01*
X182323Y261258D01*
X182374Y261246D01*
X182421Y261224D01*
X182492Y261216D01*
X182562Y261198D01*
X182614Y261202D01*
X182665Y261196D01*
X182736Y261212D01*
X182807Y261217D01*
X182855Y261238D01*
X182906Y261249D01*
X182967Y261286D01*
X183033Y261314D01*
X183089Y261358D01*
X183117Y261375D01*
X183132Y261393D01*
X183164Y261418D01*
X186923Y265177D01*
X194077Y265177D01*
X199137Y260117D01*
X199137Y252963D01*
X198000Y251826D01*
X197989Y251810D01*
X197973Y251798D01*
X197917Y251710D01*
X197857Y251626D01*
X197851Y251607D01*
X197840Y251591D01*
X197815Y251490D01*
X197784Y251391D01*
X197785Y251371D01*
X197780Y251352D01*
X197788Y251249D01*
X197791Y251145D01*
X197798Y251127D01*
X197799Y251107D01*
X197840Y251012D01*
X197875Y250914D01*
X197888Y250899D01*
X197896Y250881D01*
X198000Y250750D01*
X202154Y246596D01*
X202212Y246554D01*
X202264Y246505D01*
X202311Y246483D01*
X202353Y246453D01*
X202422Y246432D01*
X202487Y246401D01*
X202539Y246396D01*
X202589Y246380D01*
X202660Y246382D01*
X202731Y246374D01*
X202782Y246385D01*
X202834Y246387D01*
X202902Y246411D01*
X202972Y246426D01*
X203016Y246453D01*
X203065Y246471D01*
X203121Y246516D01*
X203183Y246553D01*
X203217Y246592D01*
X203257Y246625D01*
X203296Y246685D01*
X203343Y246740D01*
X203362Y246788D01*
X203390Y246832D01*
X203408Y246901D01*
X203435Y246968D01*
X203443Y247039D01*
X203451Y247070D01*
X203449Y247094D01*
X203453Y247134D01*
X203453Y265437D01*
X203439Y265528D01*
X203431Y265618D01*
X203419Y265648D01*
X203414Y265680D01*
X203371Y265761D01*
X203335Y265845D01*
X203309Y265877D01*
X203298Y265898D01*
X203275Y265920D01*
X203230Y265976D01*
X195528Y273678D01*
X195512Y273689D01*
X195500Y273705D01*
X195413Y273761D01*
X195329Y273821D01*
X195310Y273827D01*
X195293Y273838D01*
X195192Y273863D01*
X195094Y273894D01*
X195074Y273893D01*
X195054Y273898D01*
X194951Y273890D01*
X194848Y273887D01*
X194829Y273880D01*
X194809Y273879D01*
X194714Y273838D01*
X194617Y273803D01*
X194601Y273790D01*
X194583Y273782D01*
X194452Y273678D01*
X194077Y273303D01*
X186923Y273303D01*
X181863Y278363D01*
X181863Y285517D01*
X186923Y290577D01*
X194077Y290577D01*
X199137Y285517D01*
X199137Y278363D01*
X198762Y277988D01*
X198751Y277972D01*
X198735Y277960D01*
X198679Y277872D01*
X198619Y277788D01*
X198613Y277769D01*
X198602Y277753D01*
X198577Y277652D01*
X198546Y277553D01*
X198547Y277533D01*
X198542Y277514D01*
X198550Y277411D01*
X198553Y277307D01*
X198560Y277289D01*
X198561Y277269D01*
X198602Y277174D01*
X198637Y277076D01*
X198650Y277061D01*
X198658Y277043D01*
X198762Y276912D01*
X208027Y267647D01*
X208027Y262719D01*
X208038Y262648D01*
X208040Y262576D01*
X208058Y262527D01*
X208066Y262476D01*
X208100Y262413D01*
X208125Y262345D01*
X208157Y262305D01*
X208182Y262259D01*
X208234Y262209D01*
X208278Y262153D01*
X208322Y262125D01*
X208360Y262089D01*
X208425Y262059D01*
X208485Y262020D01*
X208536Y262008D01*
X208583Y261986D01*
X208654Y261978D01*
X208724Y261960D01*
X208776Y261964D01*
X208827Y261958D01*
X208898Y261974D01*
X208969Y261979D01*
X209017Y262000D01*
X209068Y262011D01*
X209129Y262048D01*
X209195Y262076D01*
X209251Y262120D01*
X209279Y262137D01*
X209294Y262155D01*
X209326Y262180D01*
X212323Y265177D01*
X219477Y265177D01*
X224537Y260117D01*
X224537Y252963D01*
X224162Y252588D01*
X224151Y252572D01*
X224135Y252560D01*
X224079Y252472D01*
X224019Y252388D01*
X224013Y252369D01*
X224002Y252353D01*
X223977Y252252D01*
X223946Y252153D01*
X223947Y252133D01*
X223942Y252114D01*
X223950Y252011D01*
X223953Y251907D01*
X223960Y251889D01*
X223961Y251869D01*
X224002Y251774D01*
X224037Y251676D01*
X224050Y251661D01*
X224058Y251643D01*
X224162Y251512D01*
X228062Y247612D01*
X228120Y247570D01*
X228172Y247521D01*
X228219Y247499D01*
X228261Y247469D01*
X228330Y247448D01*
X228395Y247417D01*
X228447Y247412D01*
X228497Y247396D01*
X228568Y247398D01*
X228639Y247390D01*
X228690Y247401D01*
X228742Y247403D01*
X228810Y247427D01*
X228880Y247442D01*
X228925Y247469D01*
X228973Y247487D01*
X229029Y247532D01*
X229091Y247569D01*
X229125Y247608D01*
X229165Y247641D01*
X229204Y247701D01*
X229251Y247756D01*
X229270Y247804D01*
X229298Y247848D01*
X229316Y247917D01*
X229343Y247984D01*
X229351Y248055D01*
X229359Y248086D01*
X229357Y248110D01*
X229361Y248150D01*
X229361Y265183D01*
X229347Y265274D01*
X229339Y265364D01*
X229327Y265394D01*
X229322Y265426D01*
X229279Y265507D01*
X229243Y265591D01*
X229217Y265623D01*
X229206Y265644D01*
X229183Y265666D01*
X229138Y265722D01*
X221055Y273805D01*
X221039Y273816D01*
X221027Y273832D01*
X220940Y273888D01*
X220856Y273948D01*
X220837Y273954D01*
X220820Y273965D01*
X220719Y273990D01*
X220621Y274021D01*
X220601Y274020D01*
X220581Y274025D01*
X220478Y274017D01*
X220375Y274014D01*
X220356Y274007D01*
X220336Y274006D01*
X220241Y273965D01*
X220144Y273930D01*
X220128Y273917D01*
X220110Y273909D01*
X219979Y273805D01*
X219477Y273303D01*
X212323Y273303D01*
X207263Y278363D01*
X207263Y285517D01*
X212323Y290577D01*
X219477Y290577D01*
X224537Y285517D01*
X224537Y278363D01*
X224289Y278115D01*
X224278Y278099D01*
X224262Y278087D01*
X224206Y277999D01*
X224146Y277915D01*
X224140Y277896D01*
X224129Y277880D01*
X224104Y277779D01*
X224073Y277680D01*
X224074Y277660D01*
X224069Y277641D01*
X224077Y277538D01*
X224080Y277434D01*
X224087Y277416D01*
X224088Y277396D01*
X224129Y277301D01*
X224164Y277203D01*
X224177Y277188D01*
X224185Y277170D01*
X224289Y277039D01*
X233935Y267393D01*
X233935Y263227D01*
X233946Y263156D01*
X233948Y263084D01*
X233966Y263035D01*
X233974Y262984D01*
X234008Y262921D01*
X234033Y262853D01*
X234065Y262813D01*
X234090Y262767D01*
X234142Y262717D01*
X234186Y262661D01*
X234230Y262633D01*
X234268Y262597D01*
X234333Y262567D01*
X234393Y262528D01*
X234444Y262516D01*
X234491Y262494D01*
X234562Y262486D01*
X234632Y262468D01*
X234684Y262472D01*
X234735Y262466D01*
X234806Y262482D01*
X234877Y262487D01*
X234925Y262508D01*
X234976Y262519D01*
X235037Y262556D01*
X235103Y262584D01*
X235159Y262628D01*
X235187Y262645D01*
X235202Y262663D01*
X235234Y262688D01*
X237723Y265177D01*
X244877Y265177D01*
X249937Y260117D01*
X249937Y252963D01*
X249562Y252588D01*
X249551Y252572D01*
X249535Y252560D01*
X249479Y252472D01*
X249419Y252388D01*
X249413Y252369D01*
X249402Y252353D01*
X249377Y252252D01*
X249346Y252153D01*
X249347Y252133D01*
X249342Y252114D01*
X249350Y252011D01*
X249353Y251907D01*
X249360Y251889D01*
X249361Y251869D01*
X249402Y251773D01*
X249437Y251676D01*
X249450Y251661D01*
X249457Y251643D01*
X249562Y251512D01*
X250414Y250660D01*
X250472Y250618D01*
X250524Y250569D01*
X250571Y250547D01*
X250613Y250517D01*
X250682Y250496D01*
X250747Y250465D01*
X250799Y250460D01*
X250849Y250444D01*
X250920Y250446D01*
X250991Y250438D01*
X251042Y250449D01*
X251094Y250451D01*
X251162Y250475D01*
X251232Y250490D01*
X251277Y250517D01*
X251325Y250535D01*
X251381Y250580D01*
X251443Y250617D01*
X251477Y250656D01*
X251517Y250689D01*
X251556Y250749D01*
X251603Y250804D01*
X251622Y250852D01*
X251650Y250896D01*
X251668Y250965D01*
X251695Y251032D01*
X251703Y251103D01*
X251711Y251134D01*
X251709Y251158D01*
X251713Y251198D01*
X251713Y276864D01*
X251702Y276935D01*
X251700Y277007D01*
X251682Y277056D01*
X251674Y277107D01*
X251640Y277171D01*
X251615Y277238D01*
X251583Y277279D01*
X251558Y277325D01*
X251506Y277374D01*
X251462Y277430D01*
X251418Y277458D01*
X251380Y277494D01*
X251315Y277524D01*
X251255Y277563D01*
X251204Y277576D01*
X251157Y277598D01*
X251086Y277605D01*
X251016Y277623D01*
X250964Y277619D01*
X250913Y277625D01*
X250842Y277609D01*
X250771Y277604D01*
X250723Y277584D01*
X250672Y277572D01*
X250611Y277536D01*
X250545Y277508D01*
X250489Y277463D01*
X250461Y277446D01*
X250446Y277428D01*
X250414Y277403D01*
X245298Y272287D01*
X242823Y272287D01*
X242823Y281178D01*
X242820Y281198D01*
X242822Y281217D01*
X242800Y281319D01*
X242783Y281421D01*
X242774Y281438D01*
X242770Y281458D01*
X242717Y281547D01*
X242668Y281638D01*
X242654Y281652D01*
X242644Y281669D01*
X242565Y281736D01*
X242490Y281807D01*
X242472Y281816D01*
X242457Y281829D01*
X242361Y281867D01*
X242267Y281911D01*
X242247Y281913D01*
X242229Y281921D01*
X242062Y281939D01*
X241299Y281939D01*
X241299Y281941D01*
X242062Y281941D01*
X242082Y281944D01*
X242101Y281942D01*
X242203Y281964D01*
X242305Y281981D01*
X242322Y281990D01*
X242342Y281994D01*
X242431Y282047D01*
X242522Y282096D01*
X242536Y282110D01*
X242553Y282120D01*
X242620Y282199D01*
X242691Y282274D01*
X242700Y282292D01*
X242713Y282307D01*
X242752Y282403D01*
X242795Y282497D01*
X242797Y282517D01*
X242805Y282535D01*
X242823Y282702D01*
X242823Y291593D01*
X245298Y291593D01*
X250414Y286477D01*
X250472Y286435D01*
X250524Y286386D01*
X250571Y286364D01*
X250613Y286334D01*
X250682Y286313D01*
X250747Y286282D01*
X250799Y286277D01*
X250849Y286261D01*
X250920Y286263D01*
X250991Y286255D01*
X251042Y286266D01*
X251094Y286268D01*
X251162Y286292D01*
X251232Y286308D01*
X251277Y286334D01*
X251325Y286352D01*
X251381Y286397D01*
X251443Y286434D01*
X251477Y286473D01*
X251517Y286506D01*
X251556Y286566D01*
X251603Y286621D01*
X251622Y286669D01*
X251650Y286713D01*
X251668Y286782D01*
X251695Y286849D01*
X251703Y286920D01*
X251711Y286951D01*
X251709Y286975D01*
X251713Y287016D01*
X251713Y292100D01*
X251709Y292126D01*
X251710Y292175D01*
X251524Y294058D01*
X251517Y294085D01*
X251517Y294113D01*
X251470Y294274D01*
X250029Y297754D01*
X249994Y297809D01*
X249968Y297870D01*
X249916Y297935D01*
X249899Y297963D01*
X249884Y297975D01*
X249864Y298001D01*
X247201Y300664D01*
X247148Y300702D01*
X247101Y300748D01*
X247028Y300788D01*
X247001Y300807D01*
X246982Y300813D01*
X246954Y300829D01*
X243474Y302270D01*
X243447Y302276D01*
X243422Y302289D01*
X243258Y302324D01*
X241375Y302510D01*
X241348Y302508D01*
X241300Y302513D01*
X-60960Y302513D01*
X-60986Y302509D01*
X-61035Y302510D01*
X-62918Y302324D01*
X-62945Y302317D01*
X-62973Y302317D01*
X-63134Y302270D01*
X-66614Y300829D01*
X-66669Y300794D01*
X-66730Y300768D01*
X-66795Y300716D01*
X-66823Y300699D01*
X-66835Y300684D01*
X-66861Y300664D01*
X-69524Y298001D01*
X-69562Y297948D01*
X-69608Y297901D01*
X-69648Y297828D01*
X-69667Y297801D01*
X-69673Y297782D01*
X-69689Y297754D01*
X-71130Y294274D01*
X-71136Y294247D01*
X-71149Y294222D01*
X-71184Y294058D01*
X-71370Y292175D01*
X-71368Y292148D01*
X-71373Y292100D01*
X-71373Y288119D01*
X-71362Y288048D01*
X-71360Y287976D01*
X-71342Y287927D01*
X-71334Y287876D01*
X-71300Y287813D01*
X-71275Y287745D01*
X-71243Y287705D01*
X-71218Y287659D01*
X-71166Y287609D01*
X-71122Y287553D01*
X-71078Y287525D01*
X-71040Y287489D01*
X-70975Y287459D01*
X-70915Y287420D01*
X-70864Y287408D01*
X-70817Y287386D01*
X-70746Y287378D01*
X-70676Y287360D01*
X-70624Y287364D01*
X-70573Y287358D01*
X-70502Y287374D01*
X-70431Y287379D01*
X-70383Y287400D01*
X-70332Y287411D01*
X-70271Y287448D01*
X-70205Y287476D01*
X-70149Y287520D01*
X-70121Y287537D01*
X-70106Y287555D01*
X-70074Y287580D01*
X-67077Y290577D01*
X-59923Y290577D01*
X-54863Y285517D01*
X-54863Y280409D01*
X-54849Y280318D01*
X-54841Y280228D01*
X-54829Y280198D01*
X-54824Y280166D01*
X-54781Y280085D01*
X-54745Y280001D01*
X-54719Y279969D01*
X-54708Y279948D01*
X-54685Y279926D01*
X-54640Y279870D01*
X-47243Y272473D01*
X-47243Y261449D01*
X-47232Y261378D01*
X-47230Y261306D01*
X-47212Y261257D01*
X-47204Y261206D01*
X-47170Y261143D01*
X-47145Y261075D01*
X-47113Y261035D01*
X-47088Y260989D01*
X-47036Y260939D01*
X-46992Y260883D01*
X-46948Y260855D01*
X-46910Y260819D01*
X-46845Y260789D01*
X-46785Y260750D01*
X-46734Y260738D01*
X-46687Y260716D01*
X-46616Y260708D01*
X-46546Y260690D01*
X-46494Y260694D01*
X-46443Y260688D01*
X-46372Y260704D01*
X-46301Y260709D01*
X-46253Y260730D01*
X-46202Y260741D01*
X-46141Y260778D01*
X-46075Y260806D01*
X-46019Y260850D01*
X-45991Y260867D01*
X-45976Y260885D01*
X-45944Y260910D01*
X-41677Y265177D01*
X-34523Y265177D01*
X-29463Y260117D01*
X-29463Y252963D01*
X-29838Y252588D01*
X-29849Y252572D01*
X-29865Y252560D01*
X-29921Y252472D01*
X-29981Y252388D01*
X-29987Y252369D01*
X-29998Y252353D01*
X-30023Y252252D01*
X-30054Y252153D01*
X-30053Y252133D01*
X-30058Y252114D01*
X-30050Y252011D01*
X-30047Y251907D01*
X-30040Y251889D01*
X-30039Y251869D01*
X-29998Y251774D01*
X-29963Y251676D01*
X-29950Y251661D01*
X-29942Y251643D01*
X-29838Y251512D01*
X-27970Y249644D01*
X-27912Y249602D01*
X-27860Y249553D01*
X-27813Y249531D01*
X-27771Y249501D01*
X-27702Y249480D01*
X-27637Y249449D01*
X-27585Y249444D01*
X-27535Y249428D01*
X-27464Y249430D01*
X-27393Y249422D01*
X-27342Y249433D01*
X-27290Y249435D01*
X-27222Y249459D01*
X-27152Y249474D01*
X-27108Y249501D01*
X-27059Y249519D01*
X-27003Y249564D01*
X-26941Y249601D01*
X-26907Y249640D01*
X-26867Y249673D01*
X-26828Y249733D01*
X-26781Y249788D01*
X-26762Y249836D01*
X-26734Y249880D01*
X-26716Y249949D01*
X-26689Y250016D01*
X-26681Y250087D01*
X-26673Y250118D01*
X-26675Y250142D01*
X-26671Y250182D01*
X-26671Y266707D01*
X-26685Y266798D01*
X-26693Y266888D01*
X-26705Y266918D01*
X-26710Y266950D01*
X-26753Y267031D01*
X-26789Y267115D01*
X-26815Y267147D01*
X-26826Y267168D01*
X-26849Y267190D01*
X-26894Y267246D01*
X-33199Y273551D01*
X-33215Y273562D01*
X-33227Y273578D01*
X-33314Y273634D01*
X-33398Y273694D01*
X-33417Y273700D01*
X-33434Y273711D01*
X-33535Y273736D01*
X-33633Y273767D01*
X-33653Y273766D01*
X-33673Y273771D01*
X-33776Y273763D01*
X-33879Y273760D01*
X-33898Y273753D01*
X-33918Y273752D01*
X-34013Y273711D01*
X-34110Y273676D01*
X-34126Y273663D01*
X-34144Y273655D01*
X-34275Y273551D01*
X-34523Y273303D01*
X-41677Y273303D01*
X-46737Y278363D01*
X-46737Y285517D01*
X-41677Y290577D01*
X-34523Y290577D01*
X-29463Y285517D01*
X-29463Y278363D01*
X-29965Y277861D01*
X-29976Y277845D01*
X-29992Y277833D01*
X-30048Y277745D01*
X-30108Y277661D01*
X-30114Y277642D01*
X-30125Y277626D01*
X-30150Y277525D01*
X-30181Y277426D01*
X-30180Y277406D01*
X-30185Y277387D01*
X-30177Y277284D01*
X-30174Y277180D01*
X-30167Y277162D01*
X-30166Y277142D01*
X-30125Y277047D01*
X-30090Y276949D01*
X-30077Y276934D01*
X-30069Y276916D01*
X-29965Y276785D01*
X-22097Y268917D01*
X-22097Y261195D01*
X-22086Y261124D01*
X-22084Y261052D01*
X-22066Y261003D01*
X-22058Y260952D01*
X-22024Y260889D01*
X-21999Y260821D01*
X-21967Y260781D01*
X-21942Y260735D01*
X-21890Y260685D01*
X-21846Y260629D01*
X-21802Y260601D01*
X-21764Y260565D01*
X-21699Y260535D01*
X-21639Y260496D01*
X-21588Y260484D01*
X-21541Y260462D01*
X-21470Y260454D01*
X-21400Y260436D01*
X-21348Y260440D01*
X-21297Y260434D01*
X-21226Y260450D01*
X-21155Y260455D01*
X-21107Y260476D01*
X-21056Y260487D01*
X-20995Y260524D01*
X-20929Y260552D01*
X-20873Y260596D01*
X-20845Y260613D01*
X-20830Y260631D01*
X-20798Y260656D01*
X-16277Y265177D01*
X-9123Y265177D01*
X-4063Y260117D01*
X-4063Y252963D01*
X-4311Y252715D01*
X-4322Y252699D01*
X-4338Y252687D01*
X-4394Y252599D01*
X-4454Y252515D01*
X-4460Y252496D01*
X-4471Y252480D01*
X-4496Y252379D01*
X-4527Y252280D01*
X-4526Y252260D01*
X-4531Y252241D01*
X-4523Y252138D01*
X-4520Y252034D01*
X-4513Y252016D01*
X-4512Y251996D01*
X-4471Y251901D01*
X-4436Y251803D01*
X-4423Y251788D01*
X-4415Y251770D01*
X-4311Y251639D01*
X-2570Y249898D01*
X-2512Y249856D01*
X-2460Y249807D01*
X-2413Y249785D01*
X-2371Y249755D01*
X-2302Y249734D01*
X-2237Y249703D01*
X-2185Y249698D01*
X-2135Y249682D01*
X-2064Y249684D01*
X-1993Y249676D01*
X-1942Y249687D01*
X-1890Y249689D01*
X-1822Y249713D01*
X-1752Y249728D01*
X-1708Y249755D01*
X-1659Y249773D01*
X-1603Y249818D01*
X-1541Y249855D01*
X-1507Y249894D01*
X-1467Y249927D01*
X-1428Y249987D01*
X-1381Y250042D01*
X-1362Y250090D01*
X-1334Y250134D01*
X-1316Y250203D01*
X-1289Y250270D01*
X-1281Y250341D01*
X-1273Y250372D01*
X-1275Y250396D01*
X-1271Y250436D01*
X-1271Y269247D01*
X-1285Y269338D01*
X-1293Y269428D01*
X-1305Y269458D01*
X-1310Y269490D01*
X-1353Y269571D01*
X-1389Y269655D01*
X-1415Y269687D01*
X-1426Y269708D01*
X-1449Y269730D01*
X-1494Y269786D01*
X-6529Y274821D01*
X-6545Y274832D01*
X-6557Y274848D01*
X-6644Y274904D01*
X-6728Y274964D01*
X-6747Y274970D01*
X-6764Y274981D01*
X-6865Y275006D01*
X-6963Y275037D01*
X-6983Y275036D01*
X-7003Y275041D01*
X-7106Y275033D01*
X-7209Y275030D01*
X-7228Y275023D01*
X-7248Y275022D01*
X-7343Y274981D01*
X-7440Y274946D01*
X-7456Y274933D01*
X-7474Y274925D01*
X-7605Y274821D01*
X-9123Y273303D01*
X-16277Y273303D01*
X-21337Y278363D01*
X-21337Y285517D01*
X-16277Y290577D01*
X-9123Y290577D01*
X-4063Y285517D01*
X-4063Y279139D01*
X-4049Y279048D01*
X-4041Y278958D01*
X-4029Y278928D01*
X-4024Y278896D01*
X-3981Y278815D01*
X-3945Y278731D01*
X-3919Y278699D01*
X-3908Y278678D01*
X-3885Y278656D01*
X-3840Y278600D01*
X3303Y271457D01*
X3303Y261195D01*
X3314Y261124D01*
X3316Y261052D01*
X3334Y261003D01*
X3342Y260952D01*
X3376Y260889D01*
X3401Y260821D01*
X3433Y260781D01*
X3458Y260735D01*
X3510Y260685D01*
X3554Y260629D01*
X3598Y260601D01*
X3636Y260565D01*
X3701Y260535D01*
X3761Y260496D01*
X3812Y260484D01*
X3859Y260462D01*
X3930Y260454D01*
X4000Y260436D01*
X4052Y260440D01*
X4103Y260434D01*
X4174Y260450D01*
X4245Y260455D01*
X4293Y260476D01*
X4344Y260487D01*
X4405Y260524D01*
X4471Y260552D01*
X4527Y260596D01*
X4555Y260613D01*
X4570Y260631D01*
X4602Y260656D01*
X9123Y265177D01*
X16277Y265177D01*
X21337Y260117D01*
X21337Y252963D01*
X19819Y251445D01*
X19808Y251429D01*
X19792Y251417D01*
X19736Y251329D01*
X19676Y251245D01*
X19670Y251226D01*
X19659Y251210D01*
X19634Y251109D01*
X19603Y251010D01*
X19604Y250990D01*
X19599Y250971D01*
X19607Y250868D01*
X19610Y250764D01*
X19617Y250746D01*
X19618Y250726D01*
X19659Y250631D01*
X19694Y250533D01*
X19707Y250518D01*
X19715Y250500D01*
X19819Y250369D01*
X23338Y246850D01*
X23396Y246808D01*
X23448Y246759D01*
X23495Y246737D01*
X23537Y246707D01*
X23606Y246686D01*
X23671Y246655D01*
X23723Y246650D01*
X23773Y246634D01*
X23844Y246636D01*
X23915Y246628D01*
X23966Y246639D01*
X24018Y246641D01*
X24086Y246665D01*
X24156Y246680D01*
X24200Y246707D01*
X24249Y246725D01*
X24305Y246770D01*
X24367Y246807D01*
X24401Y246846D01*
X24441Y246879D01*
X24480Y246939D01*
X24527Y246994D01*
X24546Y247042D01*
X24574Y247086D01*
X24592Y247155D01*
X24619Y247222D01*
X24627Y247293D01*
X24635Y247324D01*
X24633Y247348D01*
X24637Y247388D01*
X24637Y269247D01*
X24623Y269338D01*
X24615Y269428D01*
X24603Y269458D01*
X24598Y269490D01*
X24555Y269571D01*
X24519Y269655D01*
X24493Y269687D01*
X24482Y269708D01*
X24459Y269730D01*
X24414Y269786D01*
X19125Y275075D01*
X19109Y275086D01*
X19097Y275102D01*
X19010Y275158D01*
X18926Y275218D01*
X18907Y275224D01*
X18890Y275235D01*
X18789Y275260D01*
X18691Y275291D01*
X18671Y275290D01*
X18651Y275295D01*
X18548Y275287D01*
X18445Y275284D01*
X18426Y275277D01*
X18406Y275276D01*
X18311Y275235D01*
X18214Y275200D01*
X18198Y275187D01*
X18180Y275179D01*
X18049Y275075D01*
X16277Y273303D01*
X9123Y273303D01*
X4063Y278363D01*
X4063Y285517D01*
X9123Y290577D01*
X16277Y290577D01*
X21337Y285517D01*
X21337Y279646D01*
X21351Y279556D01*
X21359Y279465D01*
X21371Y279436D01*
X21376Y279404D01*
X21419Y279323D01*
X21455Y279239D01*
X21481Y279207D01*
X21492Y279186D01*
X21515Y279164D01*
X21560Y279108D01*
X29211Y271457D01*
X29211Y261703D01*
X29222Y261632D01*
X29224Y261560D01*
X29242Y261511D01*
X29250Y261460D01*
X29284Y261397D01*
X29309Y261329D01*
X29341Y261289D01*
X29366Y261243D01*
X29418Y261193D01*
X29462Y261137D01*
X29506Y261109D01*
X29544Y261073D01*
X29609Y261043D01*
X29669Y261004D01*
X29720Y260992D01*
X29767Y260970D01*
X29838Y260962D01*
X29908Y260944D01*
X29960Y260948D01*
X30011Y260942D01*
X30082Y260958D01*
X30153Y260963D01*
X30201Y260984D01*
X30252Y260995D01*
X30313Y261032D01*
X30379Y261060D01*
X30435Y261104D01*
X30463Y261121D01*
X30478Y261139D01*
X30510Y261164D01*
X34523Y265177D01*
X41677Y265177D01*
X46737Y260117D01*
X46737Y252963D01*
X45346Y251572D01*
X45335Y251556D01*
X45319Y251544D01*
X45263Y251456D01*
X45203Y251372D01*
X45197Y251353D01*
X45186Y251337D01*
X45161Y251236D01*
X45130Y251137D01*
X45131Y251117D01*
X45126Y251098D01*
X45134Y250995D01*
X45137Y250891D01*
X45144Y250873D01*
X45145Y250853D01*
X45186Y250758D01*
X45221Y250660D01*
X45234Y250645D01*
X45242Y250627D01*
X45346Y250496D01*
X48738Y247104D01*
X48796Y247062D01*
X48848Y247013D01*
X48895Y246991D01*
X48937Y246961D01*
X49006Y246940D01*
X49071Y246909D01*
X49123Y246904D01*
X49173Y246888D01*
X49244Y246890D01*
X49315Y246882D01*
X49366Y246893D01*
X49418Y246895D01*
X49486Y246919D01*
X49556Y246934D01*
X49600Y246961D01*
X49649Y246979D01*
X49705Y247024D01*
X49767Y247061D01*
X49801Y247100D01*
X49841Y247133D01*
X49880Y247193D01*
X49927Y247248D01*
X49946Y247296D01*
X49974Y247340D01*
X49992Y247409D01*
X50019Y247476D01*
X50027Y247547D01*
X50035Y247578D01*
X50033Y247602D01*
X50037Y247642D01*
X50037Y267215D01*
X50035Y267230D01*
X50036Y267241D01*
X50023Y267300D01*
X50023Y267306D01*
X50015Y267396D01*
X50003Y267426D01*
X49998Y267458D01*
X49955Y267539D01*
X49919Y267623D01*
X49893Y267655D01*
X49882Y267676D01*
X49859Y267698D01*
X49814Y267754D01*
X43509Y274059D01*
X43493Y274070D01*
X43481Y274086D01*
X43394Y274142D01*
X43310Y274202D01*
X43291Y274208D01*
X43274Y274219D01*
X43173Y274244D01*
X43075Y274275D01*
X43055Y274274D01*
X43035Y274279D01*
X42932Y274271D01*
X42829Y274268D01*
X42810Y274261D01*
X42790Y274260D01*
X42695Y274219D01*
X42598Y274184D01*
X42582Y274171D01*
X42564Y274163D01*
X42433Y274059D01*
X41677Y273303D01*
X34523Y273303D01*
X29463Y278363D01*
X29463Y285517D01*
X34523Y290577D01*
X41677Y290577D01*
X46737Y285517D01*
X46737Y278360D01*
X46732Y278353D01*
X46716Y278341D01*
X46685Y278292D01*
X46680Y278287D01*
X46677Y278279D01*
X46660Y278253D01*
X46600Y278169D01*
X46594Y278150D01*
X46583Y278134D01*
X46558Y278033D01*
X46527Y277934D01*
X46528Y277914D01*
X46523Y277895D01*
X46531Y277792D01*
X46534Y277688D01*
X46541Y277670D01*
X46542Y277650D01*
X46583Y277555D01*
X46618Y277457D01*
X46631Y277442D01*
X46639Y277424D01*
X46743Y277293D01*
X54611Y269425D01*
X54611Y261703D01*
X54622Y261632D01*
X54624Y261560D01*
X54642Y261511D01*
X54650Y261460D01*
X54684Y261397D01*
X54709Y261329D01*
X54741Y261289D01*
X54766Y261243D01*
X54818Y261193D01*
X54862Y261137D01*
X54906Y261109D01*
X54944Y261073D01*
X55009Y261043D01*
X55069Y261004D01*
X55120Y260992D01*
X55167Y260970D01*
X55238Y260962D01*
X55308Y260944D01*
X55360Y260948D01*
X55411Y260942D01*
X55482Y260958D01*
X55553Y260963D01*
X55601Y260984D01*
X55652Y260995D01*
X55713Y261032D01*
X55779Y261060D01*
X55835Y261104D01*
X55863Y261121D01*
X55878Y261139D01*
X55910Y261164D01*
X59923Y265177D01*
X67077Y265177D01*
X72137Y260117D01*
X72137Y252963D01*
X71381Y252207D01*
X71370Y252191D01*
X71354Y252179D01*
X71298Y252091D01*
X71238Y252007D01*
X71232Y251988D01*
X71221Y251972D01*
X71196Y251871D01*
X71165Y251772D01*
X71166Y251752D01*
X71161Y251733D01*
X71169Y251630D01*
X71172Y251526D01*
X71179Y251508D01*
X71180Y251488D01*
X71221Y251393D01*
X71256Y251295D01*
X71269Y251280D01*
X71276Y251262D01*
X71381Y251131D01*
X73884Y248628D01*
X73942Y248586D01*
X73994Y248537D01*
X74041Y248515D01*
X74083Y248485D01*
X74152Y248464D01*
X74217Y248433D01*
X74269Y248428D01*
X74319Y248412D01*
X74390Y248414D01*
X74461Y248406D01*
X74512Y248417D01*
X74564Y248419D01*
X74632Y248443D01*
X74702Y248458D01*
X74747Y248485D01*
X74795Y248503D01*
X74851Y248548D01*
X74913Y248585D01*
X74947Y248624D01*
X74987Y248657D01*
X75026Y248717D01*
X75073Y248772D01*
X75092Y248820D01*
X75120Y248864D01*
X75138Y248933D01*
X75165Y249000D01*
X75173Y249071D01*
X75181Y249102D01*
X75179Y249126D01*
X75183Y249166D01*
X75183Y268232D01*
X75169Y268322D01*
X75161Y268413D01*
X75149Y268442D01*
X75144Y268474D01*
X75101Y268555D01*
X75065Y268639D01*
X75039Y268671D01*
X75028Y268692D01*
X75005Y268714D01*
X74960Y268770D01*
X69290Y274440D01*
X69274Y274451D01*
X69262Y274467D01*
X69174Y274523D01*
X69091Y274583D01*
X69072Y274589D01*
X69055Y274600D01*
X68954Y274625D01*
X68856Y274656D01*
X68836Y274655D01*
X68816Y274660D01*
X68713Y274652D01*
X68610Y274649D01*
X68591Y274642D01*
X68571Y274641D01*
X68476Y274600D01*
X68379Y274565D01*
X68363Y274552D01*
X68345Y274544D01*
X68214Y274440D01*
X67077Y273303D01*
X59923Y273303D01*
X54863Y278363D01*
X54863Y285517D01*
X59923Y290577D01*
X67077Y290577D01*
X72137Y285517D01*
X72137Y278377D01*
X72151Y278286D01*
X72159Y278196D01*
X72171Y278166D01*
X72176Y278134D01*
X72219Y278053D01*
X72255Y277969D01*
X72281Y277937D01*
X72292Y277916D01*
X72315Y277894D01*
X72360Y277838D01*
X78194Y272004D01*
X79757Y270441D01*
X79757Y261449D01*
X79768Y261378D01*
X79770Y261306D01*
X79788Y261257D01*
X79796Y261206D01*
X79830Y261143D01*
X79855Y261075D01*
X79887Y261035D01*
X79912Y260989D01*
X79964Y260939D01*
X80008Y260883D01*
X80052Y260855D01*
X80090Y260819D01*
X80155Y260789D01*
X80215Y260750D01*
X80266Y260738D01*
X80313Y260716D01*
X80384Y260708D01*
X80454Y260690D01*
X80506Y260694D01*
X80557Y260688D01*
X80628Y260704D01*
X80699Y260709D01*
X80747Y260730D01*
X80798Y260741D01*
X80859Y260778D01*
X80925Y260806D01*
X80981Y260850D01*
X81009Y260867D01*
X81024Y260885D01*
X81056Y260910D01*
X85323Y265177D01*
X92477Y265177D01*
X97537Y260117D01*
X97537Y252963D01*
X95511Y250937D01*
X95500Y250921D01*
X95484Y250909D01*
X95428Y250821D01*
X95368Y250737D01*
X95362Y250718D01*
X95351Y250702D01*
X95326Y250601D01*
X95295Y250502D01*
X95296Y250482D01*
X95291Y250463D01*
X95299Y250360D01*
X95302Y250256D01*
X95309Y250238D01*
X95310Y250218D01*
X95351Y250123D01*
X95386Y250025D01*
X95399Y250010D01*
X95407Y249992D01*
X95511Y249861D01*
X99538Y245834D01*
X99596Y245792D01*
X99648Y245743D01*
X99695Y245721D01*
X99737Y245691D01*
X99806Y245670D01*
X99871Y245639D01*
X99923Y245634D01*
X99973Y245618D01*
X100044Y245620D01*
X100115Y245612D01*
X100166Y245623D01*
G37*
%LPC*%
G36*
X91185Y115823D02*
X91185Y115823D01*
X91185Y134891D01*
X113496Y134891D01*
X114143Y134718D01*
X114722Y134383D01*
X115195Y133910D01*
X115530Y133331D01*
X115703Y132684D01*
X115703Y115823D01*
X91185Y115823D01*
G37*
%LPD*%
%LPC*%
G36*
X63621Y115823D02*
X63621Y115823D01*
X63621Y132684D01*
X63794Y133331D01*
X64129Y133910D01*
X64602Y134383D01*
X65181Y134718D01*
X65828Y134891D01*
X88139Y134891D01*
X88139Y115823D01*
X63621Y115823D01*
G37*
%LPD*%
%LPC*%
G36*
X91185Y93709D02*
X91185Y93709D01*
X91185Y112777D01*
X115703Y112777D01*
X115703Y95916D01*
X115530Y95269D01*
X115195Y94690D01*
X114722Y94217D01*
X114143Y93882D01*
X113496Y93709D01*
X91185Y93709D01*
G37*
%LPD*%
%LPC*%
G36*
X65828Y93709D02*
X65828Y93709D01*
X65181Y93882D01*
X64602Y94217D01*
X64129Y94690D01*
X63794Y95269D01*
X63621Y95916D01*
X63621Y112777D01*
X88139Y112777D01*
X88139Y93709D01*
X65828Y93709D01*
G37*
%LPD*%
G36*
X234806Y211682D02*
X234806Y211682D01*
X234877Y211687D01*
X234925Y211708D01*
X234976Y211719D01*
X235037Y211756D01*
X235103Y211784D01*
X235159Y211828D01*
X235187Y211845D01*
X235202Y211863D01*
X235234Y211888D01*
X237723Y214377D01*
X244877Y214377D01*
X247112Y212142D01*
X247170Y212101D01*
X247222Y212051D01*
X247269Y212029D01*
X247311Y211999D01*
X247380Y211978D01*
X247445Y211948D01*
X247497Y211942D01*
X247547Y211927D01*
X247618Y211928D01*
X247689Y211920D01*
X247740Y211932D01*
X247792Y211933D01*
X247860Y211958D01*
X247930Y211973D01*
X247975Y211999D01*
X248023Y212017D01*
X248079Y212062D01*
X248141Y212099D01*
X248175Y212138D01*
X248215Y212171D01*
X248254Y212231D01*
X248301Y212286D01*
X248320Y212334D01*
X248348Y212378D01*
X248366Y212447D01*
X248393Y212514D01*
X248401Y212585D01*
X248409Y212616D01*
X248407Y212640D01*
X248411Y212681D01*
X248411Y222762D01*
X248400Y222833D01*
X248398Y222905D01*
X248380Y222954D01*
X248372Y223005D01*
X248338Y223069D01*
X248313Y223136D01*
X248281Y223177D01*
X248256Y223223D01*
X248204Y223272D01*
X248160Y223328D01*
X248116Y223356D01*
X248078Y223392D01*
X248013Y223422D01*
X247953Y223461D01*
X247902Y223474D01*
X247855Y223496D01*
X247784Y223503D01*
X247714Y223521D01*
X247662Y223517D01*
X247611Y223523D01*
X247540Y223507D01*
X247469Y223502D01*
X247421Y223482D01*
X247370Y223470D01*
X247309Y223434D01*
X247243Y223406D01*
X247187Y223361D01*
X247159Y223344D01*
X247144Y223326D01*
X247112Y223301D01*
X245298Y221487D01*
X242823Y221487D01*
X242823Y230378D01*
X242820Y230398D01*
X242822Y230417D01*
X242800Y230519D01*
X242783Y230621D01*
X242774Y230638D01*
X242770Y230658D01*
X242717Y230747D01*
X242668Y230838D01*
X242654Y230852D01*
X242644Y230869D01*
X242565Y230936D01*
X242490Y231007D01*
X242472Y231016D01*
X242457Y231029D01*
X242361Y231067D01*
X242267Y231111D01*
X242247Y231113D01*
X242229Y231121D01*
X242062Y231139D01*
X240538Y231139D01*
X240518Y231136D01*
X240499Y231138D01*
X240397Y231116D01*
X240295Y231099D01*
X240278Y231090D01*
X240258Y231086D01*
X240169Y231033D01*
X240078Y230984D01*
X240064Y230970D01*
X240047Y230960D01*
X239980Y230881D01*
X239909Y230806D01*
X239900Y230788D01*
X239887Y230773D01*
X239848Y230677D01*
X239805Y230583D01*
X239803Y230563D01*
X239795Y230545D01*
X239777Y230378D01*
X239777Y221487D01*
X237302Y221487D01*
X235234Y223555D01*
X235176Y223597D01*
X235124Y223646D01*
X235077Y223668D01*
X235035Y223698D01*
X234966Y223719D01*
X234901Y223750D01*
X234849Y223755D01*
X234799Y223771D01*
X234728Y223769D01*
X234657Y223777D01*
X234606Y223766D01*
X234554Y223764D01*
X234486Y223740D01*
X234416Y223724D01*
X234371Y223698D01*
X234323Y223680D01*
X234267Y223635D01*
X234205Y223598D01*
X234171Y223559D01*
X234131Y223526D01*
X234092Y223466D01*
X234045Y223411D01*
X234026Y223363D01*
X233998Y223319D01*
X233980Y223250D01*
X233953Y223183D01*
X233945Y223112D01*
X233937Y223081D01*
X233939Y223057D01*
X233935Y223016D01*
X233935Y212427D01*
X233946Y212356D01*
X233948Y212284D01*
X233966Y212235D01*
X233974Y212184D01*
X234008Y212121D01*
X234033Y212053D01*
X234065Y212013D01*
X234090Y211967D01*
X234142Y211917D01*
X234186Y211861D01*
X234230Y211833D01*
X234268Y211797D01*
X234333Y211767D01*
X234393Y211728D01*
X234444Y211716D01*
X234491Y211694D01*
X234562Y211686D01*
X234632Y211668D01*
X234684Y211672D01*
X234735Y211666D01*
X234806Y211682D01*
G37*
G36*
X242082Y231144D02*
X242082Y231144D01*
X242101Y231142D01*
X242203Y231164D01*
X242305Y231181D01*
X242322Y231190D01*
X242342Y231194D01*
X242431Y231247D01*
X242522Y231296D01*
X242536Y231310D01*
X242553Y231320D01*
X242620Y231399D01*
X242691Y231474D01*
X242700Y231492D01*
X242713Y231507D01*
X242752Y231603D01*
X242795Y231697D01*
X242797Y231717D01*
X242805Y231735D01*
X242823Y231902D01*
X242823Y240793D01*
X245298Y240793D01*
X247112Y238979D01*
X247170Y238937D01*
X247222Y238888D01*
X247269Y238866D01*
X247311Y238836D01*
X247380Y238815D01*
X247445Y238784D01*
X247497Y238779D01*
X247547Y238763D01*
X247618Y238765D01*
X247689Y238757D01*
X247740Y238768D01*
X247792Y238770D01*
X247860Y238794D01*
X247930Y238810D01*
X247975Y238836D01*
X248023Y238854D01*
X248079Y238899D01*
X248141Y238936D01*
X248175Y238975D01*
X248215Y239008D01*
X248254Y239068D01*
X248301Y239123D01*
X248320Y239171D01*
X248348Y239215D01*
X248366Y239284D01*
X248393Y239351D01*
X248401Y239422D01*
X248409Y239453D01*
X248407Y239477D01*
X248411Y239518D01*
X248411Y245879D01*
X248397Y245970D01*
X248389Y246060D01*
X248377Y246090D01*
X248372Y246122D01*
X248353Y246158D01*
X248351Y246167D01*
X248328Y246204D01*
X248293Y246287D01*
X248267Y246319D01*
X248256Y246340D01*
X248235Y246360D01*
X248225Y246378D01*
X248211Y246389D01*
X248188Y246418D01*
X246328Y248278D01*
X246312Y248289D01*
X246300Y248305D01*
X246213Y248361D01*
X246129Y248421D01*
X246110Y248427D01*
X246093Y248438D01*
X245992Y248463D01*
X245894Y248494D01*
X245874Y248493D01*
X245854Y248498D01*
X245751Y248490D01*
X245648Y248487D01*
X245629Y248480D01*
X245609Y248479D01*
X245514Y248438D01*
X245417Y248403D01*
X245401Y248390D01*
X245383Y248382D01*
X245252Y248278D01*
X244877Y247903D01*
X237723Y247903D01*
X235234Y250392D01*
X235176Y250433D01*
X235124Y250483D01*
X235077Y250505D01*
X235035Y250535D01*
X234966Y250556D01*
X234901Y250586D01*
X234849Y250592D01*
X234799Y250607D01*
X234728Y250606D01*
X234657Y250614D01*
X234606Y250602D01*
X234554Y250601D01*
X234486Y250576D01*
X234416Y250561D01*
X234371Y250535D01*
X234323Y250517D01*
X234267Y250472D01*
X234205Y250435D01*
X234171Y250396D01*
X234131Y250363D01*
X234092Y250303D01*
X234045Y250248D01*
X234026Y250200D01*
X233998Y250156D01*
X233980Y250087D01*
X233953Y250020D01*
X233945Y249949D01*
X233937Y249918D01*
X233939Y249894D01*
X233935Y249853D01*
X233935Y239264D01*
X233946Y239193D01*
X233948Y239121D01*
X233966Y239072D01*
X233974Y239021D01*
X234008Y238957D01*
X234033Y238890D01*
X234065Y238849D01*
X234090Y238803D01*
X234142Y238754D01*
X234186Y238698D01*
X234230Y238670D01*
X234268Y238634D01*
X234333Y238604D01*
X234393Y238565D01*
X234444Y238552D01*
X234491Y238530D01*
X234562Y238523D01*
X234632Y238505D01*
X234684Y238509D01*
X234735Y238503D01*
X234806Y238519D01*
X234877Y238524D01*
X234925Y238544D01*
X234976Y238556D01*
X235037Y238592D01*
X235103Y238620D01*
X235159Y238665D01*
X235187Y238682D01*
X235202Y238700D01*
X235234Y238725D01*
X237302Y240793D01*
X239777Y240793D01*
X239777Y231902D01*
X239780Y231882D01*
X239778Y231863D01*
X239800Y231761D01*
X239817Y231659D01*
X239826Y231642D01*
X239830Y231622D01*
X239883Y231533D01*
X239932Y231442D01*
X239946Y231428D01*
X239956Y231411D01*
X240035Y231344D01*
X240110Y231273D01*
X240128Y231264D01*
X240143Y231251D01*
X240239Y231213D01*
X240333Y231169D01*
X240353Y231167D01*
X240371Y231159D01*
X240538Y231141D01*
X242062Y231141D01*
X242082Y231144D01*
G37*
%LPC*%
G36*
X154431Y26163D02*
X154431Y26163D01*
X162561Y26163D01*
X162561Y19814D01*
X162323Y18314D01*
X161854Y16869D01*
X161164Y15515D01*
X160271Y14286D01*
X159196Y13211D01*
X157967Y12318D01*
X156613Y11628D01*
X155168Y11159D01*
X154431Y11042D01*
X154431Y26163D01*
G37*
%LPD*%
%LPC*%
G36*
X231647Y283463D02*
X231647Y283463D01*
X231647Y285938D01*
X237302Y291593D01*
X239777Y291593D01*
X239777Y283463D01*
X231647Y283463D01*
G37*
%LPD*%
%LPC*%
G36*
X237302Y272287D02*
X237302Y272287D01*
X231647Y277942D01*
X231647Y280417D01*
X239777Y280417D01*
X239777Y272287D01*
X237302Y272287D01*
G37*
%LPD*%
%LPC*%
G36*
X207771Y118871D02*
X207771Y118871D01*
X207771Y126239D01*
X209931Y126239D01*
X215139Y121031D01*
X215139Y118871D01*
X207771Y118871D01*
G37*
%LPD*%
%LPC*%
G36*
X197357Y118871D02*
X197357Y118871D01*
X197357Y121031D01*
X202565Y126239D01*
X204725Y126239D01*
X204725Y118871D01*
X197357Y118871D01*
G37*
%LPD*%
%LPC*%
G36*
X207771Y108457D02*
X207771Y108457D01*
X207771Y115825D01*
X215139Y115825D01*
X215139Y113665D01*
X209931Y108457D01*
X207771Y108457D01*
G37*
%LPD*%
%LPC*%
G36*
X202565Y108457D02*
X202565Y108457D01*
X197357Y113665D01*
X197357Y115825D01*
X204725Y115825D01*
X204725Y108457D01*
X202565Y108457D01*
G37*
%LPD*%
%LPC*%
G36*
X171313Y59181D02*
X171313Y59181D01*
X171313Y65199D01*
X175624Y65199D01*
X176271Y65026D01*
X176850Y64691D01*
X177323Y64218D01*
X177658Y63639D01*
X177831Y62992D01*
X177831Y59181D01*
X171313Y59181D01*
G37*
%LPD*%
%LPC*%
G36*
X171313Y50117D02*
X171313Y50117D01*
X171313Y56135D01*
X177831Y56135D01*
X177831Y52323D01*
X177658Y51677D01*
X177323Y51098D01*
X176850Y50625D01*
X176271Y50290D01*
X175624Y50117D01*
X171313Y50117D01*
G37*
%LPD*%
%LPC*%
G36*
X157923Y78308D02*
X157923Y78308D01*
X157923Y88364D01*
X158759Y88364D01*
X159405Y88191D01*
X159984Y87856D01*
X160457Y87383D01*
X160792Y86804D01*
X160965Y86158D01*
X160965Y78308D01*
X157923Y78308D01*
G37*
%LPD*%
%LPC*%
G36*
X18359Y78308D02*
X18359Y78308D01*
X18359Y86158D01*
X18532Y86804D01*
X18867Y87383D01*
X19340Y87856D01*
X19919Y88191D01*
X20565Y88364D01*
X21401Y88364D01*
X21401Y78308D01*
X18359Y78308D01*
G37*
%LPD*%
%LPC*%
G36*
X20565Y66728D02*
X20565Y66728D01*
X19919Y66901D01*
X19340Y67236D01*
X18867Y67709D01*
X18532Y68288D01*
X18359Y68935D01*
X18359Y76785D01*
X21401Y76785D01*
X21401Y66728D01*
X20565Y66728D01*
G37*
%LPD*%
%LPC*%
G36*
X206247Y117347D02*
X206247Y117347D01*
X206247Y117349D01*
X206249Y117349D01*
X206249Y117347D01*
X206247Y117347D01*
G37*
%LPD*%
%LPC*%
G36*
X89661Y114299D02*
X89661Y114299D01*
X89661Y114301D01*
X89663Y114301D01*
X89663Y114299D01*
X89661Y114299D01*
G37*
%LPD*%
D10*
X157162Y151054D03*
X152162Y151054D03*
X147162Y151054D03*
X142162Y151054D03*
X137162Y151054D03*
X132162Y151054D03*
X127162Y151054D03*
X122162Y151054D03*
X117162Y151054D03*
X112162Y151054D03*
X107162Y151054D03*
X102162Y151054D03*
X97162Y151054D03*
X92162Y151054D03*
X87162Y151054D03*
X82162Y151054D03*
X77162Y151054D03*
X72162Y151054D03*
X67162Y151054D03*
X62162Y151054D03*
X57162Y151054D03*
X52162Y151054D03*
X47162Y151054D03*
X42162Y151054D03*
X37162Y151054D03*
X32162Y151054D03*
X27162Y151054D03*
X22162Y151054D03*
X22162Y77546D03*
X27162Y77546D03*
X32162Y77546D03*
X37162Y77546D03*
X42162Y77546D03*
X47162Y77546D03*
X52162Y77546D03*
X57162Y77546D03*
X62162Y77546D03*
X67162Y77546D03*
X72162Y77546D03*
X77162Y77546D03*
X82162Y77546D03*
X87162Y77546D03*
X92162Y77546D03*
X97162Y77546D03*
X102162Y77546D03*
X107162Y77546D03*
X112162Y77546D03*
X117162Y77546D03*
X122162Y77546D03*
X127162Y77546D03*
X132162Y77546D03*
X137162Y77546D03*
X142162Y77546D03*
X147162Y77546D03*
X152162Y77546D03*
X157162Y77546D03*
D11*
X89662Y114300D03*
D12*
X-63500Y256540D03*
X-63500Y281940D03*
X-38100Y256540D03*
X-38100Y281940D03*
X-12700Y256540D03*
X-12700Y281940D03*
X12700Y256540D03*
X12700Y281940D03*
X38100Y256540D03*
X38100Y281940D03*
X63500Y256540D03*
X63500Y281940D03*
X88900Y256540D03*
X88900Y281940D03*
X114300Y256540D03*
X114300Y281940D03*
X139700Y256540D03*
X139700Y281940D03*
X165100Y256540D03*
X165100Y281940D03*
X190500Y256540D03*
X190500Y281940D03*
X215900Y256540D03*
X215900Y281940D03*
X241300Y256540D03*
X241300Y281940D03*
X-63500Y205740D03*
X-63500Y231140D03*
X-38100Y205740D03*
X-38100Y231140D03*
X-12700Y205740D03*
X-12700Y231140D03*
X12700Y205740D03*
X12700Y231140D03*
X38100Y205740D03*
X38100Y231140D03*
X63500Y205740D03*
X63500Y231140D03*
X88900Y205740D03*
X88900Y231140D03*
X114300Y205740D03*
X114300Y231140D03*
X139700Y205740D03*
X139700Y231140D03*
X165100Y205740D03*
X165100Y231140D03*
X190500Y205740D03*
X190500Y231140D03*
X215900Y205740D03*
X215900Y231140D03*
X241300Y205740D03*
X241300Y231140D03*
D13*
X152908Y34798D02*
X152908Y20574D01*
X127508Y20574D02*
X127508Y34798D01*
X102108Y34798D02*
X102108Y20574D01*
X76708Y20574D02*
X76708Y34798D01*
X51308Y34798D02*
X51308Y20574D01*
X25908Y20574D02*
X25908Y34798D01*
D14*
X152790Y57658D03*
X169790Y57658D03*
D15*
X206248Y117348D03*
D16*
X206248Y137668D03*
D17*
X-55626Y120650D03*
D18*
X127508Y32258D02*
X127508Y27686D01*
X148686Y58674D02*
X148686Y67640D01*
X148686Y58674D02*
X148686Y53436D01*
X148686Y67640D02*
X147162Y69164D01*
X147162Y77546D01*
X148686Y53436D02*
X127508Y32258D01*
X149702Y57658D02*
X152790Y57658D01*
X149702Y57658D02*
X148686Y58674D01*
X147162Y77546D02*
X147162Y93568D01*
X191262Y137668D02*
X206248Y137668D01*
X191262Y137668D02*
X147162Y93568D01*
X191262Y137668D02*
X241300Y187706D01*
X241300Y205740D01*
X250698Y197104D02*
X241300Y187706D01*
X250698Y197104D02*
X250698Y247142D01*
X241300Y256540D01*
X77724Y27686D02*
X89662Y15748D01*
X77724Y27686D02*
X76708Y27686D01*
D19*
X89662Y15748D03*
X169164Y139192D03*
D18*
X162306Y139192D01*
X157162Y144336D01*
X157162Y151054D01*
X64008Y15240D02*
X63754Y15240D01*
X51308Y27686D01*
D19*
X64008Y15240D03*
X175768Y146812D03*
D18*
X160528Y162052D01*
X152162Y162052D01*
X152162Y151054D01*
X25908Y27686D02*
X38608Y14986D01*
D19*
X38608Y14986D03*
X181583Y155167D03*
D18*
X181583Y155448D01*
X171931Y165100D01*
X147090Y165100D01*
X147090Y151126D01*
X147162Y151054D01*
X161468Y65862D02*
X161798Y65532D01*
X161468Y65862D02*
X152162Y65862D01*
X152162Y77546D01*
X161798Y65532D02*
X161798Y51308D01*
X156972Y46482D01*
X148336Y46482D01*
X140208Y38354D01*
X140208Y11430D01*
X137668Y8890D01*
X105664Y8890D02*
X102108Y12446D01*
X102108Y27686D01*
X105664Y8890D02*
X137668Y8890D01*
X171894Y63888D02*
X165856Y69926D01*
X157162Y69926D01*
X157162Y77546D01*
X171894Y63888D02*
X171894Y57404D01*
X171894Y46672D01*
X152908Y27686D01*
X22162Y66358D02*
X22162Y77546D01*
X20828Y5842D02*
X144272Y5842D01*
X152908Y14478D01*
X152908Y27686D01*
X22162Y66358D02*
X12446Y56642D01*
X12446Y14224D01*
X20828Y5842D01*
D19*
X2032Y18288D03*
X-31242Y112522D03*
X237236Y115570D03*
D18*
X171640Y57658D02*
X169790Y57658D01*
X171640Y57658D02*
X171894Y57404D01*
X122162Y151054D02*
X122162Y166619D01*
X139693Y184150D02*
X148321Y184150D01*
X155179Y191008D01*
X172459Y191008D02*
X179578Y198127D01*
X139693Y184150D02*
X122162Y166619D01*
X155179Y191008D02*
X172459Y191008D01*
X179578Y198127D02*
X179578Y268478D01*
X166116Y281940D02*
X165100Y281940D01*
X166116Y281940D02*
X179578Y268478D01*
X117162Y165930D02*
X117162Y151054D01*
X138430Y187198D02*
X147059Y187198D01*
X153917Y194056D02*
X170434Y194056D01*
X153917Y194056D02*
X147059Y187198D01*
X170434Y194056D02*
X175768Y199390D01*
X138430Y187198D02*
X117162Y165930D01*
X175768Y199390D02*
X175768Y245364D01*
X165100Y256032D02*
X165100Y256540D01*
X165100Y256032D02*
X175768Y245364D01*
X127162Y167040D02*
X127162Y151054D01*
X141224Y181102D02*
X149584Y181102D01*
X156442Y187960D01*
X182626Y195072D02*
X194818Y195072D01*
X202184Y202438D01*
X141224Y181102D02*
X127162Y167040D01*
X156442Y187960D02*
X175514Y187960D01*
X182626Y195072D01*
X202184Y202438D02*
X202184Y243332D01*
X190500Y255016D02*
X190500Y256540D01*
X190500Y255016D02*
X202184Y243332D01*
X92162Y182332D02*
X92162Y151054D01*
X92162Y182332D02*
X103124Y193294D01*
X103124Y267462D01*
X88900Y281686D02*
X88900Y281940D01*
X88900Y281686D02*
X103124Y267462D01*
X87162Y182666D02*
X87162Y151054D01*
X99314Y194818D02*
X99314Y242824D01*
X99314Y194818D02*
X87162Y182666D01*
X88900Y253238D02*
X88900Y256540D01*
X88900Y253238D02*
X99314Y242824D01*
X97162Y167520D02*
X97162Y151054D01*
X97162Y167520D02*
X125476Y195834D01*
X125476Y244094D01*
X114300Y255270D02*
X114300Y256540D01*
X114300Y255270D02*
X125476Y244094D01*
X77162Y181664D02*
X77162Y151054D01*
X77162Y181664D02*
X73406Y185420D01*
X73406Y245872D01*
X63500Y255778D02*
X63500Y256540D01*
X63500Y255778D02*
X73406Y245872D01*
X72162Y167106D02*
X72162Y151054D01*
X72162Y167106D02*
X52324Y186944D01*
X52324Y268478D01*
X38862Y281940D02*
X38100Y281940D01*
X38862Y281940D02*
X52324Y268478D01*
X82162Y181236D02*
X82162Y151054D01*
X82162Y181236D02*
X77470Y185928D01*
X77470Y269494D01*
X65024Y281940D02*
X63500Y281940D01*
X65024Y281940D02*
X77470Y269494D01*
X47234Y163832D02*
X47234Y151126D01*
X47162Y151054D01*
X47234Y163832D02*
X33775Y177292D01*
X3048Y177292D01*
X-2540Y182880D01*
X-2540Y246634D01*
X-12446Y256540D02*
X-12700Y256540D01*
X-12446Y256540D02*
X-2540Y246634D01*
X42162Y164594D02*
X42162Y151054D01*
X42162Y164594D02*
X32512Y174244D01*
X-18288Y174244D01*
X-24384Y180340D01*
X-24384Y267970D01*
X-38100Y281686D02*
X-38100Y281940D01*
X-38100Y281686D02*
X-24384Y267970D01*
X52234Y163143D02*
X52234Y151126D01*
X52162Y151054D01*
X52234Y163143D02*
X35037Y180340D01*
X5842Y180340D01*
X1016Y185166D01*
X1016Y270510D01*
X-10414Y281940D02*
X-12700Y281940D01*
X-10414Y281940D02*
X1016Y270510D01*
X137162Y168419D02*
X137162Y151054D01*
X143749Y175006D02*
X152109Y175006D01*
X158967Y181864D01*
X178039Y181864D02*
X184643Y188468D01*
X216662Y188468D01*
X227584Y199390D01*
X227584Y244856D01*
X143749Y175006D02*
X137162Y168419D01*
X158967Y181864D02*
X178039Y181864D01*
X227584Y244856D02*
X215900Y256540D01*
X132162Y167729D02*
X132162Y151054D01*
X142487Y178054D02*
X150846Y178054D01*
X157704Y184912D01*
X176777Y184912D02*
X183889Y192024D01*
X196081Y192024D01*
X205740Y201683D01*
X205740Y266700D01*
X190500Y281940D01*
X142487Y178054D02*
X132162Y167729D01*
X157704Y184912D02*
X176777Y184912D01*
X142162Y168070D02*
X142162Y151054D01*
X142162Y168070D02*
X146050Y171958D01*
X153371Y171958D01*
X160229Y178816D01*
X179302Y178816D02*
X185906Y185420D01*
X179302Y178816D02*
X160229Y178816D01*
X185906Y185420D02*
X217925Y185420D01*
X231648Y199143D01*
X231648Y266446D01*
X216154Y281940D02*
X215900Y281940D01*
X216154Y281940D02*
X231648Y266446D01*
X107162Y165836D02*
X107162Y151054D01*
X134874Y193548D02*
X143764Y193548D01*
X150114Y199898D01*
X134874Y193548D02*
X107162Y165836D01*
X150114Y199898D02*
X150114Y243840D01*
X139700Y254254D02*
X139700Y256540D01*
X139700Y254254D02*
X150114Y243840D01*
X102162Y166932D02*
X102162Y151054D01*
X102162Y166932D02*
X129032Y193802D01*
X129032Y267716D01*
X114808Y281940D02*
X114300Y281940D01*
X114808Y281940D02*
X129032Y267716D01*
X112162Y165248D02*
X112162Y151054D01*
X145796Y190246D02*
X153924Y198374D01*
X153924Y268986D01*
X137160Y190246D02*
X112162Y165248D01*
X137160Y190246D02*
X145796Y190246D01*
X140970Y281940D02*
X139700Y281940D01*
X140970Y281940D02*
X153924Y268986D01*
X62162Y162882D02*
X62162Y151054D01*
X38608Y186436D02*
X34036Y186436D01*
X26924Y193548D01*
X26924Y270510D01*
X38608Y186436D02*
X62162Y162882D01*
X15494Y281940D02*
X12700Y281940D01*
X15494Y281940D02*
X26924Y270510D01*
X57162Y163310D02*
X57162Y151054D01*
X37084Y183388D02*
X31750Y183388D01*
X23622Y191516D01*
X37084Y183388D02*
X57162Y163310D01*
X23622Y191516D02*
X23622Y243332D01*
X12700Y254254D02*
X12700Y256540D01*
X12700Y254254D02*
X23622Y243332D01*
X67162Y166518D02*
X67162Y151054D01*
X67162Y166518D02*
X48768Y184912D01*
X48768Y243840D01*
X38100Y254508D02*
X38100Y256540D01*
X38100Y254508D02*
X48768Y243840D01*
X32162Y162402D02*
X32162Y151054D01*
X26924Y167640D02*
X-26924Y167640D01*
X-49530Y190246D01*
X26924Y167640D02*
X32162Y162402D01*
X-49530Y190246D02*
X-49530Y271526D01*
X-59944Y281940D02*
X-63500Y281940D01*
X-59944Y281940D02*
X-49530Y271526D01*
X27162Y161814D02*
X27162Y151054D01*
X24892Y164084D02*
X-28956Y164084D01*
X-53086Y188214D01*
X24892Y164084D02*
X27162Y161814D01*
X-53086Y188214D02*
X-53086Y246888D01*
X-62738Y256540D02*
X-63500Y256540D01*
X-62738Y256540D02*
X-53086Y246888D01*
X37162Y163244D02*
X37162Y151054D01*
X29210Y171196D02*
X-21336Y171196D01*
X-28194Y178054D01*
X29210Y171196D02*
X37162Y163244D01*
X-28194Y178054D02*
X-28194Y246634D01*
X-38100Y256540D01*
X142162Y77546D02*
X142162Y62508D01*
X141514Y61860D01*
D19*
X141514Y61860D03*
X132144Y47216D03*
D18*
X132162Y58574D02*
X132162Y77546D01*
X132162Y58574D02*
X132398Y58338D01*
X132398Y47470D01*
X132144Y47216D01*
X137162Y69090D02*
X137162Y77546D01*
X137162Y69090D02*
X135446Y67374D01*
D19*
X139440Y52772D03*
D18*
X135446Y56766D01*
X135446Y67374D01*
X112162Y60838D02*
X112162Y77546D01*
D19*
X110136Y44360D03*
D18*
X113736Y59264D02*
X112162Y60838D01*
X113736Y59264D02*
X113736Y47960D01*
X110136Y44360D01*
X102162Y68910D02*
X102162Y77546D01*
X102162Y68910D02*
X101146Y67894D01*
X101146Y47314D01*
X101048Y47216D01*
D19*
X101048Y47216D03*
D18*
X107162Y53954D02*
X107162Y77546D01*
X107162Y53954D02*
X107668Y53448D01*
D19*
X107668Y53448D03*
D18*
X67162Y69708D02*
X67162Y77546D01*
X67162Y69708D02*
X64640Y67186D01*
X64640Y38484D01*
X63878Y37722D01*
D19*
X63878Y37722D03*
D18*
X57162Y69665D02*
X57162Y77546D01*
X57162Y69665D02*
X54629Y67131D01*
X54629Y53161D01*
X53613Y53161D01*
D19*
X53613Y53161D03*
D18*
X62416Y77292D02*
X62162Y77546D01*
X62416Y77292D02*
X62416Y69672D01*
X59876Y67132D01*
X59876Y46572D01*
X58486Y45182D01*
D19*
X58486Y45182D03*
D18*
X37162Y66624D02*
X37162Y77546D01*
X37162Y66624D02*
X30812Y60274D01*
X30812Y51484D01*
X34544Y47752D01*
D19*
X34544Y47752D03*
D18*
X27162Y66370D02*
X27162Y77546D01*
X27162Y66370D02*
X20558Y59766D01*
X20558Y55642D01*
X20574Y55626D01*
D19*
X20574Y55626D03*
D18*
X32162Y66624D02*
X32162Y77546D01*
X32162Y66624D02*
X26828Y61290D01*
X26828Y49180D01*
X25146Y47498D01*
D19*
X25146Y47498D03*
D18*
X127162Y56656D02*
X127162Y77546D01*
X127162Y56656D02*
X126330Y55824D01*
D19*
X126330Y55824D03*
D18*
X117162Y68902D02*
X117162Y77546D01*
X117162Y68902D02*
X116784Y68524D01*
D19*
X115090Y36462D03*
D18*
X116784Y38156D01*
X116784Y68524D01*
X122162Y69418D02*
X122162Y77546D01*
X122162Y69418D02*
X120262Y67518D01*
X120262Y49530D01*
X123056Y46736D01*
D19*
X123056Y46736D03*
D18*
X97068Y61108D02*
X95008Y59048D01*
X97068Y61108D02*
X97068Y68163D01*
X97162Y68257D02*
X97162Y77546D01*
X97162Y68257D02*
X97068Y68163D01*
D19*
X95008Y59048D03*
D18*
X87162Y66878D02*
X87162Y77546D01*
X87162Y66878D02*
X85892Y65608D01*
X85892Y43176D01*
X87250Y41818D01*
D19*
X87250Y41818D03*
D18*
X92162Y67568D02*
X92162Y77546D01*
X92162Y67568D02*
X88940Y64346D01*
X88940Y52980D02*
X91960Y49960D01*
D19*
X91960Y49960D03*
D18*
X88940Y52980D02*
X88940Y64346D01*
D19*
X79796Y47216D03*
D18*
X82162Y54792D02*
X82162Y77546D01*
X82162Y54792D02*
X79796Y52426D01*
X79796Y47216D01*
X72162Y68642D02*
X72162Y77546D01*
X72162Y68642D02*
X68168Y64648D01*
X68168Y48900D01*
X70708Y46360D01*
D19*
X70708Y46360D03*
D18*
X74236Y55448D02*
X77162Y58374D01*
X77162Y77546D01*
D19*
X74236Y55448D03*
D18*
X52162Y69672D02*
X52162Y77546D01*
X52162Y69672D02*
X48606Y66116D01*
X48606Y56736D01*
X46706Y54836D01*
X46706Y47216D01*
D19*
X46706Y47216D03*
D18*
X40638Y48260D02*
X40638Y40994D01*
X38890Y39246D01*
D19*
X38890Y39246D03*
D18*
X40638Y48260D02*
X40612Y48286D01*
X40612Y50266D01*
X34544Y56334D01*
X34544Y59696D02*
X42162Y67314D01*
X34544Y59696D02*
X34544Y56334D01*
X42162Y67314D02*
X42162Y77546D01*
X47162Y77546D02*
X47162Y69164D01*
X45384Y67386D01*
X45384Y65354D01*
X41320Y61290D01*
X41320Y58139D01*
X41444Y58015D01*
D19*
X41444Y58015D03*
D18*
X22162Y151054D02*
X22162Y158178D01*
X20828Y159512D01*
X-51054Y159512D01*
X-55626Y154940D02*
X-55626Y120650D01*
X-55626Y154940D02*
X-51054Y159512D01*
M02*
