G04 EAGLE Gerber RS-274X export*
G75*
%MOMM*%
%FSLAX34Y34*%
%LPD*%
%IN*%
%IPPOS*%
%AMOC8*
5,1,8,0,0,1.08239X$1,22.5*%
G01*
%ADD10C,0.254000*%


D10*
X-73660Y114300D02*
X-73612Y113193D01*
X-73467Y112095D01*
X-73227Y111013D01*
X-72894Y109956D01*
X-72470Y108933D01*
X-71959Y107950D01*
X-71363Y107016D01*
X-70689Y106137D01*
X-69940Y105320D01*
X-69123Y104571D01*
X-68244Y103897D01*
X-67310Y103301D01*
X-66327Y102790D01*
X-65304Y102366D01*
X-64247Y102033D01*
X-63165Y101793D01*
X-62067Y101648D01*
X-60960Y101600D01*
X-20320Y101600D01*
X-19213Y101552D01*
X-18115Y101407D01*
X-17033Y101167D01*
X-15976Y100834D01*
X-14953Y100410D01*
X-13970Y99899D01*
X-13036Y99303D01*
X-12157Y98629D01*
X-11340Y97880D01*
X-10591Y97063D01*
X-9917Y96184D01*
X-9321Y95250D01*
X-8810Y94267D01*
X-8386Y93244D01*
X-8053Y92187D01*
X-7813Y91105D01*
X-7668Y90007D01*
X-7620Y88900D01*
X-7620Y22860D01*
X-7533Y20868D01*
X-7273Y18890D01*
X-6841Y16943D01*
X-6241Y15041D01*
X-5478Y13199D01*
X-4557Y11430D01*
X-3486Y9748D01*
X-2272Y8166D01*
X-924Y6696D01*
X546Y5348D01*
X2128Y4134D01*
X3810Y3063D01*
X5579Y2142D01*
X7421Y1379D01*
X9323Y779D01*
X11270Y347D01*
X13248Y87D01*
X15240Y0D01*
X165100Y0D01*
X167314Y97D01*
X169511Y386D01*
X171674Y865D01*
X173787Y1532D01*
X175835Y2380D01*
X177800Y3403D01*
X179669Y4594D01*
X181427Y5942D01*
X183061Y7440D01*
X184558Y9073D01*
X185906Y10831D01*
X187097Y12700D01*
X188120Y14666D01*
X188968Y16713D01*
X189635Y18826D01*
X190114Y20989D01*
X190403Y23186D01*
X190500Y25400D01*
X190500Y88900D01*
X190548Y90007D01*
X190693Y91105D01*
X190933Y92187D01*
X191266Y93244D01*
X191690Y94267D01*
X192201Y95250D01*
X192797Y96184D01*
X193471Y97063D01*
X194220Y97880D01*
X195037Y98629D01*
X195916Y99303D01*
X196850Y99899D01*
X197833Y100410D01*
X198856Y100834D01*
X199913Y101167D01*
X200995Y101407D01*
X202093Y101552D01*
X203200Y101600D01*
X241300Y101600D01*
X242407Y101648D01*
X243505Y101793D01*
X244587Y102033D01*
X245644Y102366D01*
X246667Y102790D01*
X247650Y103301D01*
X248584Y103897D01*
X249463Y104571D01*
X250280Y105320D01*
X251029Y106137D01*
X251703Y107016D01*
X252299Y107950D01*
X252810Y108933D01*
X253234Y109956D01*
X253567Y111013D01*
X253807Y112095D01*
X253952Y113193D01*
X254000Y114300D01*
X254000Y292100D01*
X253952Y293207D01*
X253807Y294305D01*
X253567Y295387D01*
X253234Y296444D01*
X252810Y297467D01*
X252299Y298450D01*
X251703Y299384D01*
X251029Y300263D01*
X250280Y301080D01*
X249463Y301829D01*
X248584Y302503D01*
X247650Y303099D01*
X246667Y303610D01*
X245644Y304034D01*
X244587Y304367D01*
X243505Y304607D01*
X242407Y304752D01*
X241300Y304800D01*
X-60960Y304800D01*
X-62067Y304752D01*
X-63165Y304607D01*
X-64247Y304367D01*
X-65304Y304034D01*
X-66327Y303610D01*
X-67310Y303099D01*
X-68244Y302503D01*
X-69123Y301829D01*
X-69940Y301080D01*
X-70689Y300263D01*
X-71363Y299384D01*
X-71959Y298450D01*
X-72470Y297467D01*
X-72894Y296444D01*
X-73227Y295387D01*
X-73467Y294305D01*
X-73612Y293207D01*
X-73660Y292100D01*
X-73660Y114300D01*
M02*
