G04 EAGLE Gerber RS-274X export*
G75*
%MOMM*%
%FSLAX34Y34*%
%LPD*%
%INSilkscreen Bottom*%
%IPPOS*%
%AMOC8*
5,1,8,0,0,1.08239X$1,22.5*%
G01*
%ADD10C,0.076200*%


D10*
X128482Y124841D02*
X128482Y119112D01*
X128484Y119034D01*
X128489Y118956D01*
X128499Y118879D01*
X128512Y118802D01*
X128528Y118726D01*
X128548Y118651D01*
X128572Y118577D01*
X128599Y118504D01*
X128630Y118432D01*
X128664Y118362D01*
X128701Y118294D01*
X128742Y118227D01*
X128786Y118162D01*
X128832Y118100D01*
X128882Y118040D01*
X128934Y117982D01*
X128989Y117927D01*
X129047Y117875D01*
X129107Y117825D01*
X129169Y117779D01*
X129234Y117735D01*
X129301Y117694D01*
X129369Y117657D01*
X129439Y117623D01*
X129511Y117592D01*
X129584Y117565D01*
X129658Y117541D01*
X129733Y117521D01*
X129809Y117505D01*
X129886Y117492D01*
X129963Y117482D01*
X130041Y117477D01*
X130119Y117475D01*
X130937Y117475D01*
X125126Y119112D02*
X125126Y120749D01*
X125124Y120828D01*
X125118Y120907D01*
X125109Y120986D01*
X125096Y121064D01*
X125078Y121141D01*
X125058Y121217D01*
X125033Y121292D01*
X125005Y121366D01*
X124974Y121439D01*
X124938Y121510D01*
X124900Y121579D01*
X124858Y121646D01*
X124813Y121711D01*
X124765Y121774D01*
X124714Y121835D01*
X124660Y121892D01*
X124604Y121948D01*
X124545Y122000D01*
X124483Y122050D01*
X124419Y122096D01*
X124353Y122140D01*
X124285Y122180D01*
X124215Y122216D01*
X124143Y122250D01*
X124069Y122280D01*
X123995Y122306D01*
X123919Y122329D01*
X123842Y122347D01*
X123765Y122363D01*
X123686Y122374D01*
X123608Y122382D01*
X123529Y122386D01*
X123449Y122386D01*
X123370Y122382D01*
X123292Y122374D01*
X123213Y122363D01*
X123136Y122347D01*
X123059Y122329D01*
X122983Y122306D01*
X122909Y122280D01*
X122835Y122250D01*
X122763Y122216D01*
X122693Y122180D01*
X122625Y122140D01*
X122559Y122096D01*
X122495Y122050D01*
X122433Y122000D01*
X122374Y121948D01*
X122318Y121892D01*
X122264Y121835D01*
X122213Y121774D01*
X122165Y121711D01*
X122120Y121646D01*
X122078Y121579D01*
X122040Y121510D01*
X122004Y121439D01*
X121973Y121366D01*
X121945Y121292D01*
X121920Y121217D01*
X121900Y121141D01*
X121882Y121064D01*
X121869Y120986D01*
X121860Y120907D01*
X121854Y120828D01*
X121852Y120749D01*
X121852Y119112D01*
X121854Y119033D01*
X121860Y118954D01*
X121869Y118875D01*
X121882Y118797D01*
X121900Y118720D01*
X121920Y118644D01*
X121945Y118569D01*
X121973Y118495D01*
X122004Y118422D01*
X122040Y118351D01*
X122078Y118282D01*
X122120Y118215D01*
X122165Y118150D01*
X122213Y118087D01*
X122264Y118026D01*
X122318Y117969D01*
X122374Y117913D01*
X122433Y117861D01*
X122495Y117811D01*
X122559Y117765D01*
X122625Y117721D01*
X122693Y117681D01*
X122763Y117645D01*
X122835Y117611D01*
X122909Y117581D01*
X122983Y117555D01*
X123059Y117532D01*
X123136Y117514D01*
X123213Y117498D01*
X123292Y117487D01*
X123370Y117479D01*
X123449Y117475D01*
X123529Y117475D01*
X123608Y117479D01*
X123686Y117487D01*
X123765Y117498D01*
X123842Y117514D01*
X123919Y117532D01*
X123995Y117555D01*
X124069Y117581D01*
X124143Y117611D01*
X124215Y117645D01*
X124285Y117681D01*
X124353Y117721D01*
X124419Y117765D01*
X124483Y117811D01*
X124545Y117861D01*
X124604Y117913D01*
X124660Y117969D01*
X124714Y118026D01*
X124765Y118087D01*
X124813Y118150D01*
X124858Y118215D01*
X124900Y118282D01*
X124938Y118351D01*
X124974Y118422D01*
X125005Y118495D01*
X125033Y118569D01*
X125058Y118644D01*
X125078Y118720D01*
X125096Y118797D01*
X125109Y118875D01*
X125118Y118954D01*
X125124Y119033D01*
X125126Y119112D01*
X118172Y120340D02*
X116126Y119521D01*
X118172Y120340D02*
X118231Y120365D01*
X118288Y120394D01*
X118343Y120427D01*
X118396Y120463D01*
X118447Y120501D01*
X118495Y120543D01*
X118541Y120588D01*
X118584Y120635D01*
X118624Y120685D01*
X118661Y120737D01*
X118695Y120792D01*
X118726Y120848D01*
X118753Y120906D01*
X118776Y120966D01*
X118796Y121026D01*
X118812Y121088D01*
X118825Y121151D01*
X118833Y121215D01*
X118838Y121278D01*
X118839Y121342D01*
X118836Y121406D01*
X118829Y121470D01*
X118818Y121533D01*
X118804Y121595D01*
X118786Y121657D01*
X118764Y121717D01*
X118739Y121776D01*
X118710Y121833D01*
X118677Y121888D01*
X118642Y121941D01*
X118603Y121992D01*
X118561Y122041D01*
X118517Y122087D01*
X118469Y122130D01*
X118420Y122170D01*
X118367Y122207D01*
X118313Y122241D01*
X118257Y122272D01*
X118199Y122299D01*
X118140Y122323D01*
X118079Y122342D01*
X118017Y122359D01*
X117954Y122371D01*
X117891Y122380D01*
X117827Y122385D01*
X117763Y122386D01*
X117627Y122382D01*
X117492Y122374D01*
X117356Y122362D01*
X117222Y122346D01*
X117087Y122326D01*
X116954Y122303D01*
X116821Y122275D01*
X116689Y122244D01*
X116558Y122209D01*
X116428Y122170D01*
X116299Y122127D01*
X116172Y122080D01*
X116046Y122030D01*
X115921Y121976D01*
X116126Y119521D02*
X116067Y119496D01*
X116010Y119467D01*
X115955Y119434D01*
X115902Y119398D01*
X115851Y119360D01*
X115803Y119318D01*
X115757Y119273D01*
X115714Y119226D01*
X115674Y119176D01*
X115637Y119124D01*
X115603Y119069D01*
X115572Y119013D01*
X115545Y118955D01*
X115522Y118895D01*
X115502Y118835D01*
X115486Y118773D01*
X115473Y118710D01*
X115465Y118646D01*
X115460Y118583D01*
X115459Y118519D01*
X115462Y118455D01*
X115469Y118391D01*
X115480Y118328D01*
X115494Y118266D01*
X115512Y118204D01*
X115534Y118144D01*
X115559Y118085D01*
X115588Y118028D01*
X115621Y117973D01*
X115656Y117920D01*
X115695Y117869D01*
X115737Y117820D01*
X115781Y117774D01*
X115829Y117731D01*
X115878Y117691D01*
X115931Y117654D01*
X115985Y117620D01*
X116041Y117589D01*
X116099Y117562D01*
X116158Y117538D01*
X116219Y117519D01*
X116281Y117502D01*
X116344Y117490D01*
X116407Y117481D01*
X116471Y117476D01*
X116535Y117475D01*
X116699Y117479D01*
X116863Y117487D01*
X117027Y117499D01*
X117190Y117515D01*
X117353Y117535D01*
X117516Y117558D01*
X117677Y117586D01*
X117839Y117617D01*
X117999Y117652D01*
X118158Y117691D01*
X118317Y117734D01*
X118474Y117780D01*
X118631Y117830D01*
X118786Y117884D01*
X112202Y117475D02*
X112202Y124841D01*
X112202Y122386D02*
X110156Y122386D01*
X110087Y122384D01*
X110019Y122378D01*
X109950Y122369D01*
X109883Y122355D01*
X109816Y122338D01*
X109750Y122317D01*
X109686Y122293D01*
X109623Y122264D01*
X109562Y122233D01*
X109503Y122198D01*
X109445Y122160D01*
X109390Y122118D01*
X109338Y122074D01*
X109288Y122026D01*
X109240Y121976D01*
X109196Y121924D01*
X109155Y121869D01*
X109116Y121811D01*
X109081Y121752D01*
X109050Y121691D01*
X109021Y121628D01*
X108997Y121564D01*
X108976Y121498D01*
X108959Y121431D01*
X108945Y121364D01*
X108936Y121296D01*
X108930Y121227D01*
X108928Y121158D01*
X108928Y117475D01*
X105375Y118703D02*
X105375Y122386D01*
X105375Y118703D02*
X105373Y118634D01*
X105367Y118566D01*
X105358Y118497D01*
X105344Y118430D01*
X105327Y118363D01*
X105306Y118297D01*
X105282Y118233D01*
X105253Y118170D01*
X105222Y118109D01*
X105187Y118050D01*
X105149Y117992D01*
X105107Y117937D01*
X105063Y117885D01*
X105015Y117835D01*
X104965Y117787D01*
X104913Y117743D01*
X104858Y117702D01*
X104800Y117663D01*
X104741Y117628D01*
X104680Y117597D01*
X104617Y117568D01*
X104553Y117544D01*
X104487Y117523D01*
X104420Y117506D01*
X104353Y117492D01*
X104285Y117483D01*
X104216Y117477D01*
X104147Y117475D01*
X102101Y117475D01*
X102101Y122386D01*
X97400Y120340D02*
X95558Y120340D01*
X97400Y120339D02*
X97475Y120337D01*
X97550Y120331D01*
X97624Y120321D01*
X97698Y120308D01*
X97771Y120290D01*
X97843Y120269D01*
X97913Y120244D01*
X97982Y120215D01*
X98050Y120183D01*
X98116Y120147D01*
X98180Y120108D01*
X98242Y120066D01*
X98301Y120020D01*
X98358Y119971D01*
X98413Y119920D01*
X98464Y119865D01*
X98513Y119808D01*
X98559Y119749D01*
X98601Y119687D01*
X98640Y119623D01*
X98676Y119557D01*
X98708Y119489D01*
X98737Y119420D01*
X98762Y119350D01*
X98783Y119278D01*
X98801Y119205D01*
X98814Y119131D01*
X98824Y119057D01*
X98830Y118982D01*
X98832Y118907D01*
X98830Y118832D01*
X98824Y118757D01*
X98814Y118683D01*
X98801Y118609D01*
X98783Y118536D01*
X98762Y118464D01*
X98737Y118394D01*
X98708Y118325D01*
X98676Y118257D01*
X98640Y118191D01*
X98601Y118127D01*
X98559Y118065D01*
X98513Y118006D01*
X98464Y117949D01*
X98413Y117894D01*
X98358Y117843D01*
X98301Y117794D01*
X98242Y117748D01*
X98180Y117706D01*
X98116Y117667D01*
X98050Y117631D01*
X97982Y117599D01*
X97913Y117570D01*
X97843Y117545D01*
X97771Y117524D01*
X97698Y117506D01*
X97624Y117493D01*
X97550Y117483D01*
X97475Y117477D01*
X97400Y117475D01*
X95558Y117475D01*
X95558Y121158D01*
X95560Y121227D01*
X95566Y121295D01*
X95575Y121364D01*
X95589Y121431D01*
X95606Y121498D01*
X95627Y121564D01*
X95651Y121628D01*
X95680Y121691D01*
X95711Y121752D01*
X95746Y121811D01*
X95784Y121869D01*
X95826Y121924D01*
X95870Y121976D01*
X95918Y122026D01*
X95968Y122074D01*
X96020Y122118D01*
X96075Y122160D01*
X96133Y122198D01*
X96192Y122233D01*
X96253Y122264D01*
X96316Y122293D01*
X96380Y122317D01*
X96446Y122338D01*
X96513Y122355D01*
X96580Y122369D01*
X96649Y122378D01*
X96717Y122384D01*
X96786Y122386D01*
X98423Y122386D01*
X87866Y121567D02*
X85820Y121567D01*
X85731Y121565D01*
X85642Y121559D01*
X85553Y121549D01*
X85465Y121536D01*
X85377Y121519D01*
X85290Y121497D01*
X85205Y121472D01*
X85120Y121444D01*
X85037Y121411D01*
X84955Y121375D01*
X84875Y121336D01*
X84797Y121293D01*
X84721Y121247D01*
X84646Y121197D01*
X84574Y121144D01*
X84505Y121088D01*
X84438Y121029D01*
X84373Y120968D01*
X84312Y120903D01*
X84253Y120836D01*
X84197Y120767D01*
X84144Y120695D01*
X84094Y120620D01*
X84048Y120544D01*
X84005Y120466D01*
X83966Y120386D01*
X83930Y120304D01*
X83897Y120221D01*
X83869Y120136D01*
X83844Y120051D01*
X83822Y119964D01*
X83805Y119876D01*
X83792Y119788D01*
X83782Y119699D01*
X83776Y119610D01*
X83774Y119521D01*
X83776Y119432D01*
X83782Y119343D01*
X83792Y119254D01*
X83805Y119166D01*
X83822Y119078D01*
X83844Y118991D01*
X83869Y118906D01*
X83897Y118821D01*
X83930Y118738D01*
X83966Y118656D01*
X84005Y118576D01*
X84048Y118498D01*
X84094Y118422D01*
X84144Y118347D01*
X84197Y118275D01*
X84253Y118206D01*
X84312Y118139D01*
X84373Y118074D01*
X84438Y118013D01*
X84505Y117954D01*
X84574Y117898D01*
X84646Y117845D01*
X84721Y117795D01*
X84797Y117749D01*
X84875Y117706D01*
X84955Y117667D01*
X85037Y117631D01*
X85120Y117598D01*
X85205Y117570D01*
X85290Y117545D01*
X85377Y117523D01*
X85465Y117506D01*
X85553Y117493D01*
X85642Y117483D01*
X85731Y117477D01*
X85820Y117475D01*
X87866Y117475D01*
X87866Y124841D01*
X85820Y124841D01*
X85741Y124839D01*
X85662Y124833D01*
X85583Y124824D01*
X85505Y124811D01*
X85428Y124793D01*
X85352Y124773D01*
X85277Y124748D01*
X85203Y124720D01*
X85130Y124689D01*
X85059Y124653D01*
X84990Y124615D01*
X84923Y124573D01*
X84858Y124528D01*
X84795Y124480D01*
X84734Y124429D01*
X84677Y124375D01*
X84621Y124319D01*
X84569Y124260D01*
X84519Y124198D01*
X84473Y124134D01*
X84429Y124068D01*
X84389Y124000D01*
X84353Y123930D01*
X84319Y123858D01*
X84289Y123784D01*
X84263Y123710D01*
X84240Y123634D01*
X84222Y123557D01*
X84206Y123480D01*
X84195Y123401D01*
X84187Y123323D01*
X84183Y123244D01*
X84183Y123164D01*
X84187Y123085D01*
X84195Y123007D01*
X84206Y122928D01*
X84222Y122851D01*
X84240Y122774D01*
X84263Y122698D01*
X84289Y122624D01*
X84319Y122550D01*
X84353Y122478D01*
X84389Y122408D01*
X84429Y122340D01*
X84473Y122274D01*
X84519Y122210D01*
X84569Y122148D01*
X84621Y122089D01*
X84677Y122033D01*
X84734Y121979D01*
X84795Y121928D01*
X84858Y121880D01*
X84923Y121835D01*
X84990Y121793D01*
X85059Y121755D01*
X85130Y121719D01*
X85203Y121688D01*
X85277Y121660D01*
X85352Y121635D01*
X85428Y121615D01*
X85505Y121597D01*
X85583Y121584D01*
X85662Y121575D01*
X85741Y121569D01*
X85820Y121567D01*
X80701Y122386D02*
X80701Y117475D01*
X80701Y122386D02*
X78245Y122386D01*
X78245Y121567D01*
X74643Y117475D02*
X72596Y117475D01*
X74643Y117475D02*
X74712Y117477D01*
X74780Y117483D01*
X74849Y117492D01*
X74916Y117506D01*
X74983Y117523D01*
X75049Y117544D01*
X75113Y117568D01*
X75176Y117597D01*
X75237Y117628D01*
X75296Y117663D01*
X75354Y117701D01*
X75409Y117743D01*
X75461Y117787D01*
X75511Y117835D01*
X75559Y117885D01*
X75603Y117937D01*
X75645Y117992D01*
X75683Y118050D01*
X75718Y118109D01*
X75749Y118170D01*
X75778Y118233D01*
X75802Y118297D01*
X75823Y118363D01*
X75840Y118430D01*
X75854Y118497D01*
X75863Y118566D01*
X75869Y118634D01*
X75871Y118703D01*
X75870Y118703D02*
X75870Y120749D01*
X75868Y120828D01*
X75862Y120907D01*
X75853Y120986D01*
X75840Y121064D01*
X75822Y121141D01*
X75802Y121217D01*
X75777Y121292D01*
X75749Y121366D01*
X75718Y121439D01*
X75682Y121510D01*
X75644Y121579D01*
X75602Y121646D01*
X75557Y121711D01*
X75509Y121774D01*
X75458Y121835D01*
X75404Y121892D01*
X75348Y121948D01*
X75289Y122000D01*
X75227Y122050D01*
X75163Y122096D01*
X75097Y122140D01*
X75029Y122180D01*
X74959Y122216D01*
X74887Y122250D01*
X74813Y122280D01*
X74739Y122306D01*
X74663Y122329D01*
X74586Y122347D01*
X74509Y122363D01*
X74430Y122374D01*
X74352Y122382D01*
X74273Y122386D01*
X74193Y122386D01*
X74114Y122382D01*
X74036Y122374D01*
X73957Y122363D01*
X73880Y122347D01*
X73803Y122329D01*
X73727Y122306D01*
X73653Y122280D01*
X73579Y122250D01*
X73507Y122216D01*
X73437Y122180D01*
X73369Y122140D01*
X73303Y122096D01*
X73239Y122050D01*
X73177Y122000D01*
X73118Y121948D01*
X73062Y121892D01*
X73008Y121835D01*
X72957Y121774D01*
X72909Y121711D01*
X72864Y121646D01*
X72822Y121579D01*
X72784Y121510D01*
X72748Y121439D01*
X72717Y121366D01*
X72689Y121292D01*
X72664Y121217D01*
X72644Y121141D01*
X72626Y121064D01*
X72613Y120986D01*
X72604Y120907D01*
X72598Y120828D01*
X72596Y120749D01*
X72596Y119930D01*
X75870Y119930D01*
X69617Y122386D02*
X68390Y117475D01*
X67162Y120749D01*
X65934Y117475D01*
X64707Y122386D01*
X61114Y120340D02*
X59068Y119521D01*
X61114Y120340D02*
X61173Y120365D01*
X61230Y120394D01*
X61285Y120427D01*
X61338Y120463D01*
X61389Y120501D01*
X61437Y120543D01*
X61483Y120588D01*
X61526Y120635D01*
X61566Y120685D01*
X61603Y120737D01*
X61637Y120792D01*
X61668Y120848D01*
X61695Y120906D01*
X61718Y120966D01*
X61738Y121026D01*
X61754Y121088D01*
X61767Y121151D01*
X61775Y121215D01*
X61780Y121278D01*
X61781Y121342D01*
X61778Y121406D01*
X61771Y121470D01*
X61760Y121533D01*
X61746Y121595D01*
X61728Y121657D01*
X61706Y121717D01*
X61681Y121776D01*
X61652Y121833D01*
X61619Y121888D01*
X61584Y121941D01*
X61545Y121992D01*
X61503Y122041D01*
X61459Y122087D01*
X61411Y122130D01*
X61362Y122170D01*
X61309Y122207D01*
X61255Y122241D01*
X61199Y122272D01*
X61141Y122299D01*
X61082Y122323D01*
X61021Y122342D01*
X60959Y122359D01*
X60896Y122371D01*
X60833Y122380D01*
X60769Y122385D01*
X60705Y122386D01*
X60569Y122382D01*
X60434Y122374D01*
X60298Y122362D01*
X60164Y122346D01*
X60029Y122326D01*
X59896Y122303D01*
X59763Y122275D01*
X59631Y122244D01*
X59500Y122209D01*
X59370Y122170D01*
X59241Y122127D01*
X59114Y122080D01*
X58988Y122030D01*
X58863Y121976D01*
X59068Y119521D02*
X59009Y119496D01*
X58952Y119467D01*
X58897Y119434D01*
X58844Y119398D01*
X58793Y119360D01*
X58745Y119318D01*
X58699Y119273D01*
X58656Y119226D01*
X58616Y119176D01*
X58579Y119124D01*
X58545Y119069D01*
X58514Y119013D01*
X58487Y118955D01*
X58464Y118895D01*
X58444Y118835D01*
X58428Y118773D01*
X58415Y118710D01*
X58407Y118646D01*
X58402Y118583D01*
X58401Y118519D01*
X58404Y118455D01*
X58411Y118391D01*
X58422Y118328D01*
X58436Y118266D01*
X58454Y118204D01*
X58476Y118144D01*
X58501Y118085D01*
X58530Y118028D01*
X58563Y117973D01*
X58598Y117920D01*
X58637Y117869D01*
X58679Y117820D01*
X58723Y117774D01*
X58771Y117731D01*
X58820Y117691D01*
X58873Y117654D01*
X58927Y117620D01*
X58983Y117589D01*
X59041Y117562D01*
X59100Y117538D01*
X59161Y117519D01*
X59223Y117502D01*
X59286Y117490D01*
X59349Y117481D01*
X59413Y117476D01*
X59477Y117475D01*
X59641Y117479D01*
X59805Y117487D01*
X59969Y117499D01*
X60132Y117515D01*
X60295Y117535D01*
X60458Y117558D01*
X60619Y117586D01*
X60781Y117617D01*
X60941Y117652D01*
X61100Y117691D01*
X61259Y117734D01*
X61416Y117780D01*
X61573Y117830D01*
X61728Y117884D01*
X56018Y122386D02*
X53563Y122386D01*
X55200Y124841D02*
X55200Y118703D01*
X55198Y118634D01*
X55192Y118566D01*
X55183Y118497D01*
X55169Y118430D01*
X55152Y118363D01*
X55131Y118297D01*
X55107Y118233D01*
X55078Y118170D01*
X55047Y118109D01*
X55012Y118050D01*
X54974Y117992D01*
X54932Y117937D01*
X54888Y117885D01*
X54840Y117835D01*
X54790Y117787D01*
X54738Y117743D01*
X54683Y117702D01*
X54625Y117663D01*
X54566Y117628D01*
X54505Y117597D01*
X54442Y117568D01*
X54378Y117544D01*
X54312Y117523D01*
X54245Y117506D01*
X54178Y117492D01*
X54110Y117483D01*
X54041Y117477D01*
X53972Y117475D01*
X53563Y117475D01*
X49527Y117475D02*
X47481Y117475D01*
X49527Y117475D02*
X49596Y117477D01*
X49664Y117483D01*
X49733Y117492D01*
X49800Y117506D01*
X49867Y117523D01*
X49933Y117544D01*
X49997Y117568D01*
X50060Y117597D01*
X50121Y117628D01*
X50180Y117663D01*
X50238Y117701D01*
X50293Y117743D01*
X50345Y117787D01*
X50395Y117835D01*
X50443Y117885D01*
X50487Y117937D01*
X50529Y117992D01*
X50567Y118050D01*
X50602Y118109D01*
X50633Y118170D01*
X50662Y118233D01*
X50686Y118297D01*
X50707Y118363D01*
X50724Y118430D01*
X50738Y118497D01*
X50747Y118566D01*
X50753Y118634D01*
X50755Y118703D01*
X50755Y120749D01*
X50753Y120828D01*
X50747Y120907D01*
X50738Y120986D01*
X50725Y121064D01*
X50707Y121141D01*
X50687Y121217D01*
X50662Y121292D01*
X50634Y121366D01*
X50603Y121439D01*
X50567Y121510D01*
X50529Y121579D01*
X50487Y121646D01*
X50442Y121711D01*
X50394Y121774D01*
X50343Y121835D01*
X50289Y121892D01*
X50233Y121948D01*
X50174Y122000D01*
X50112Y122050D01*
X50048Y122096D01*
X49982Y122140D01*
X49914Y122180D01*
X49844Y122216D01*
X49772Y122250D01*
X49698Y122280D01*
X49624Y122306D01*
X49548Y122329D01*
X49471Y122347D01*
X49394Y122363D01*
X49315Y122374D01*
X49237Y122382D01*
X49158Y122386D01*
X49078Y122386D01*
X48999Y122382D01*
X48921Y122374D01*
X48842Y122363D01*
X48765Y122347D01*
X48688Y122329D01*
X48612Y122306D01*
X48538Y122280D01*
X48464Y122250D01*
X48392Y122216D01*
X48322Y122180D01*
X48254Y122140D01*
X48188Y122096D01*
X48124Y122050D01*
X48062Y122000D01*
X48003Y121948D01*
X47947Y121892D01*
X47893Y121835D01*
X47842Y121774D01*
X47794Y121711D01*
X47749Y121646D01*
X47707Y121579D01*
X47669Y121510D01*
X47633Y121439D01*
X47602Y121366D01*
X47574Y121292D01*
X47549Y121217D01*
X47529Y121141D01*
X47511Y121064D01*
X47498Y120986D01*
X47489Y120907D01*
X47483Y120828D01*
X47481Y120749D01*
X47481Y119930D01*
X50755Y119930D01*
X44125Y117475D02*
X44125Y122386D01*
X41670Y122386D01*
X41670Y121567D01*
X117613Y112649D02*
X117613Y105283D01*
X115157Y108557D02*
X117613Y112649D01*
X115157Y108557D02*
X112702Y112649D01*
X112702Y105283D01*
X108574Y105283D02*
X108574Y112649D01*
X109392Y105283D02*
X107755Y105283D01*
X107755Y112649D02*
X109392Y112649D01*
X103209Y112649D02*
X103209Y105283D01*
X105255Y112649D02*
X101163Y112649D01*
X94267Y112649D02*
X94267Y105283D01*
X90993Y105283D01*
X88335Y105283D02*
X88335Y110194D01*
X88540Y112240D02*
X88540Y112649D01*
X88130Y112649D01*
X88130Y112240D01*
X88540Y112240D01*
X84102Y105283D02*
X82465Y105283D01*
X84102Y105283D02*
X84171Y105285D01*
X84239Y105291D01*
X84308Y105300D01*
X84375Y105314D01*
X84442Y105331D01*
X84508Y105352D01*
X84572Y105376D01*
X84635Y105405D01*
X84696Y105436D01*
X84755Y105471D01*
X84813Y105509D01*
X84868Y105551D01*
X84920Y105595D01*
X84970Y105643D01*
X85018Y105693D01*
X85062Y105745D01*
X85104Y105800D01*
X85142Y105858D01*
X85177Y105917D01*
X85208Y105978D01*
X85237Y106041D01*
X85261Y106105D01*
X85282Y106171D01*
X85299Y106238D01*
X85313Y106305D01*
X85322Y106374D01*
X85328Y106442D01*
X85330Y106511D01*
X85330Y108966D01*
X85328Y109035D01*
X85322Y109103D01*
X85313Y109172D01*
X85299Y109239D01*
X85282Y109306D01*
X85261Y109372D01*
X85237Y109436D01*
X85208Y109499D01*
X85177Y109560D01*
X85142Y109619D01*
X85104Y109677D01*
X85062Y109732D01*
X85018Y109784D01*
X84970Y109834D01*
X84920Y109882D01*
X84868Y109926D01*
X84813Y109968D01*
X84755Y110006D01*
X84696Y110041D01*
X84635Y110072D01*
X84572Y110101D01*
X84508Y110125D01*
X84442Y110146D01*
X84375Y110163D01*
X84308Y110177D01*
X84239Y110186D01*
X84171Y110192D01*
X84102Y110194D01*
X82465Y110194D01*
X78503Y105283D02*
X76457Y105283D01*
X78503Y105283D02*
X78572Y105285D01*
X78640Y105291D01*
X78709Y105300D01*
X78776Y105314D01*
X78843Y105331D01*
X78909Y105352D01*
X78973Y105376D01*
X79036Y105405D01*
X79097Y105436D01*
X79156Y105471D01*
X79214Y105509D01*
X79269Y105551D01*
X79321Y105595D01*
X79371Y105643D01*
X79419Y105693D01*
X79463Y105745D01*
X79505Y105800D01*
X79543Y105858D01*
X79578Y105917D01*
X79609Y105978D01*
X79638Y106041D01*
X79662Y106105D01*
X79683Y106171D01*
X79700Y106238D01*
X79714Y106305D01*
X79723Y106374D01*
X79729Y106442D01*
X79731Y106511D01*
X79731Y108557D01*
X79729Y108636D01*
X79723Y108715D01*
X79714Y108794D01*
X79701Y108872D01*
X79683Y108949D01*
X79663Y109025D01*
X79638Y109100D01*
X79610Y109174D01*
X79579Y109247D01*
X79543Y109318D01*
X79505Y109387D01*
X79463Y109454D01*
X79418Y109519D01*
X79370Y109582D01*
X79319Y109643D01*
X79265Y109700D01*
X79209Y109756D01*
X79150Y109808D01*
X79088Y109858D01*
X79024Y109904D01*
X78958Y109948D01*
X78890Y109988D01*
X78820Y110024D01*
X78748Y110058D01*
X78674Y110088D01*
X78600Y110114D01*
X78524Y110137D01*
X78447Y110155D01*
X78370Y110171D01*
X78291Y110182D01*
X78213Y110190D01*
X78134Y110194D01*
X78054Y110194D01*
X77975Y110190D01*
X77897Y110182D01*
X77818Y110171D01*
X77741Y110155D01*
X77664Y110137D01*
X77588Y110114D01*
X77514Y110088D01*
X77440Y110058D01*
X77368Y110024D01*
X77298Y109988D01*
X77230Y109948D01*
X77164Y109904D01*
X77100Y109858D01*
X77038Y109808D01*
X76979Y109756D01*
X76923Y109700D01*
X76869Y109643D01*
X76818Y109582D01*
X76770Y109519D01*
X76725Y109454D01*
X76683Y109387D01*
X76645Y109318D01*
X76609Y109247D01*
X76578Y109174D01*
X76550Y109100D01*
X76525Y109025D01*
X76505Y108949D01*
X76487Y108872D01*
X76474Y108794D01*
X76465Y108715D01*
X76459Y108636D01*
X76457Y108557D01*
X76457Y107738D01*
X79731Y107738D01*
X73147Y105283D02*
X73147Y110194D01*
X71101Y110194D01*
X71032Y110192D01*
X70964Y110186D01*
X70895Y110177D01*
X70828Y110163D01*
X70761Y110146D01*
X70695Y110125D01*
X70631Y110101D01*
X70568Y110072D01*
X70507Y110041D01*
X70448Y110006D01*
X70390Y109968D01*
X70335Y109926D01*
X70283Y109882D01*
X70233Y109834D01*
X70185Y109784D01*
X70141Y109732D01*
X70100Y109677D01*
X70061Y109619D01*
X70026Y109560D01*
X69995Y109499D01*
X69966Y109436D01*
X69942Y109372D01*
X69921Y109306D01*
X69904Y109239D01*
X69890Y109172D01*
X69881Y109104D01*
X69875Y109035D01*
X69873Y108966D01*
X69873Y105283D01*
X65950Y108148D02*
X63904Y107329D01*
X65950Y108148D02*
X66009Y108173D01*
X66066Y108202D01*
X66121Y108235D01*
X66174Y108271D01*
X66225Y108309D01*
X66273Y108351D01*
X66319Y108396D01*
X66362Y108443D01*
X66402Y108493D01*
X66439Y108545D01*
X66473Y108600D01*
X66504Y108656D01*
X66531Y108714D01*
X66554Y108774D01*
X66574Y108834D01*
X66590Y108896D01*
X66603Y108959D01*
X66611Y109023D01*
X66616Y109086D01*
X66617Y109150D01*
X66614Y109214D01*
X66607Y109278D01*
X66596Y109341D01*
X66582Y109403D01*
X66564Y109465D01*
X66542Y109525D01*
X66517Y109584D01*
X66488Y109641D01*
X66455Y109696D01*
X66420Y109749D01*
X66381Y109800D01*
X66339Y109849D01*
X66295Y109895D01*
X66247Y109938D01*
X66198Y109978D01*
X66145Y110015D01*
X66091Y110049D01*
X66035Y110080D01*
X65977Y110107D01*
X65918Y110131D01*
X65857Y110150D01*
X65795Y110167D01*
X65732Y110179D01*
X65669Y110188D01*
X65605Y110193D01*
X65541Y110194D01*
X65405Y110190D01*
X65270Y110182D01*
X65134Y110170D01*
X65000Y110154D01*
X64865Y110134D01*
X64732Y110111D01*
X64599Y110083D01*
X64467Y110052D01*
X64336Y110017D01*
X64206Y109978D01*
X64077Y109935D01*
X63950Y109888D01*
X63824Y109838D01*
X63699Y109784D01*
X63904Y107329D02*
X63845Y107304D01*
X63788Y107275D01*
X63733Y107242D01*
X63680Y107206D01*
X63629Y107168D01*
X63581Y107126D01*
X63535Y107081D01*
X63492Y107034D01*
X63452Y106984D01*
X63415Y106932D01*
X63381Y106877D01*
X63350Y106821D01*
X63323Y106763D01*
X63300Y106703D01*
X63280Y106643D01*
X63264Y106581D01*
X63251Y106518D01*
X63243Y106454D01*
X63238Y106391D01*
X63237Y106327D01*
X63240Y106263D01*
X63247Y106199D01*
X63258Y106136D01*
X63272Y106074D01*
X63290Y106012D01*
X63312Y105952D01*
X63337Y105893D01*
X63366Y105836D01*
X63399Y105781D01*
X63434Y105728D01*
X63473Y105677D01*
X63515Y105628D01*
X63559Y105582D01*
X63607Y105539D01*
X63656Y105499D01*
X63709Y105462D01*
X63763Y105428D01*
X63819Y105397D01*
X63877Y105370D01*
X63936Y105346D01*
X63997Y105327D01*
X64059Y105310D01*
X64122Y105298D01*
X64185Y105289D01*
X64249Y105284D01*
X64313Y105283D01*
X64477Y105287D01*
X64641Y105295D01*
X64805Y105307D01*
X64968Y105323D01*
X65131Y105343D01*
X65294Y105366D01*
X65455Y105394D01*
X65617Y105425D01*
X65777Y105460D01*
X65936Y105499D01*
X66095Y105542D01*
X66252Y105588D01*
X66409Y105638D01*
X66564Y105692D01*
X58996Y105283D02*
X56950Y105283D01*
X58996Y105283D02*
X59065Y105285D01*
X59133Y105291D01*
X59202Y105300D01*
X59269Y105314D01*
X59336Y105331D01*
X59402Y105352D01*
X59466Y105376D01*
X59529Y105405D01*
X59590Y105436D01*
X59649Y105471D01*
X59707Y105509D01*
X59762Y105551D01*
X59814Y105595D01*
X59864Y105643D01*
X59912Y105693D01*
X59956Y105745D01*
X59998Y105800D01*
X60036Y105858D01*
X60071Y105917D01*
X60102Y105978D01*
X60131Y106041D01*
X60155Y106105D01*
X60176Y106171D01*
X60193Y106238D01*
X60207Y106305D01*
X60216Y106374D01*
X60222Y106442D01*
X60224Y106511D01*
X60224Y108557D01*
X60222Y108636D01*
X60216Y108715D01*
X60207Y108794D01*
X60194Y108872D01*
X60176Y108949D01*
X60156Y109025D01*
X60131Y109100D01*
X60103Y109174D01*
X60072Y109247D01*
X60036Y109318D01*
X59998Y109387D01*
X59956Y109454D01*
X59911Y109519D01*
X59863Y109582D01*
X59812Y109643D01*
X59758Y109700D01*
X59702Y109756D01*
X59643Y109808D01*
X59581Y109858D01*
X59517Y109904D01*
X59451Y109948D01*
X59383Y109988D01*
X59313Y110024D01*
X59241Y110058D01*
X59167Y110088D01*
X59093Y110114D01*
X59017Y110137D01*
X58940Y110155D01*
X58863Y110171D01*
X58784Y110182D01*
X58706Y110190D01*
X58627Y110194D01*
X58547Y110194D01*
X58468Y110190D01*
X58390Y110182D01*
X58311Y110171D01*
X58234Y110155D01*
X58157Y110137D01*
X58081Y110114D01*
X58007Y110088D01*
X57933Y110058D01*
X57861Y110024D01*
X57791Y109988D01*
X57723Y109948D01*
X57657Y109904D01*
X57593Y109858D01*
X57531Y109808D01*
X57472Y109756D01*
X57416Y109700D01*
X57362Y109643D01*
X57311Y109582D01*
X57263Y109519D01*
X57218Y109454D01*
X57176Y109387D01*
X57138Y109318D01*
X57102Y109247D01*
X57071Y109174D01*
X57043Y109100D01*
X57018Y109025D01*
X56998Y108949D01*
X56980Y108872D01*
X56967Y108794D01*
X56958Y108715D01*
X56952Y108636D01*
X56950Y108557D01*
X56950Y107738D01*
X60224Y107738D01*
M02*
