G04 EAGLE Gerber RS-274X export*
G75*
%MOMM*%
%FSLAX34Y34*%
%LPD*%
%INSolderpaste Top*%
%IPPOS*%
%AMOC8*
5,1,8,0,0,1.08239X$1,22.5*%
G01*
%ADD10R,0.252475X1.655431*%
%ADD11R,1.100000X1.000000*%

G36*
X107480Y101809D02*
X107480Y101809D01*
X107482Y101808D01*
X107525Y101828D01*
X107568Y101846D01*
X107569Y101848D01*
X107571Y101849D01*
X107604Y101934D01*
X107604Y126666D01*
X107603Y126668D01*
X107604Y126670D01*
X107584Y126713D01*
X107566Y126756D01*
X107564Y126757D01*
X107563Y126759D01*
X107478Y126792D01*
X92504Y126792D01*
X92502Y126791D01*
X92500Y126792D01*
X92457Y126772D01*
X92413Y126754D01*
X92413Y126752D01*
X92411Y126751D01*
X92378Y126666D01*
X92378Y101934D01*
X92379Y101932D01*
X92378Y101930D01*
X92398Y101887D01*
X92416Y101844D01*
X92418Y101843D01*
X92419Y101841D01*
X92504Y101808D01*
X107478Y101808D01*
X107480Y101809D01*
G37*
G36*
X86822Y101809D02*
X86822Y101809D01*
X86824Y101808D01*
X86867Y101828D01*
X86911Y101846D01*
X86911Y101848D01*
X86913Y101849D01*
X86946Y101934D01*
X86946Y126666D01*
X86945Y126668D01*
X86946Y126670D01*
X86926Y126713D01*
X86908Y126756D01*
X86906Y126757D01*
X86905Y126759D01*
X86820Y126792D01*
X71846Y126792D01*
X71844Y126791D01*
X71842Y126792D01*
X71799Y126772D01*
X71756Y126754D01*
X71755Y126752D01*
X71753Y126751D01*
X71720Y126666D01*
X71720Y101934D01*
X71721Y101932D01*
X71720Y101930D01*
X71740Y101887D01*
X71758Y101844D01*
X71760Y101843D01*
X71761Y101841D01*
X71846Y101808D01*
X86820Y101808D01*
X86822Y101809D01*
G37*
D10*
X157162Y151054D03*
X152162Y151054D03*
X147162Y151054D03*
X142162Y151054D03*
X137162Y151054D03*
X132162Y151054D03*
X127162Y151054D03*
X122162Y151054D03*
X117162Y151054D03*
X112162Y151054D03*
X107162Y151054D03*
X102162Y151054D03*
X97162Y151054D03*
X92162Y151054D03*
X87162Y151054D03*
X82162Y151054D03*
X77162Y151054D03*
X72162Y151054D03*
X67162Y151054D03*
X62162Y151054D03*
X57162Y151054D03*
X52162Y151054D03*
X47162Y151054D03*
X42162Y151054D03*
X37162Y151054D03*
X32162Y151054D03*
X27162Y151054D03*
X22162Y151054D03*
X22162Y77546D03*
X27162Y77546D03*
X32162Y77546D03*
X37162Y77546D03*
X42162Y77546D03*
X47162Y77546D03*
X52162Y77546D03*
X57162Y77546D03*
X62162Y77546D03*
X67162Y77546D03*
X72162Y77546D03*
X77162Y77546D03*
X82162Y77546D03*
X87162Y77546D03*
X92162Y77546D03*
X97162Y77546D03*
X102162Y77546D03*
X107162Y77546D03*
X112162Y77546D03*
X117162Y77546D03*
X122162Y77546D03*
X127162Y77546D03*
X132162Y77546D03*
X137162Y77546D03*
X142162Y77546D03*
X147162Y77546D03*
X152162Y77546D03*
X157162Y77546D03*
D11*
X152790Y57658D03*
X169790Y57658D03*
M02*
