M48
;GenerationSoftware,Autodesk,EAGLE,9.6.2*%
;CreationDate,2023-03-28T15:49:05Z*%
FMAT,2
ICI,OFF
METRIC,TZ,000.000
T5C0.350
T4C0.813
T3C0.914
T2C1.016
T1C3.000
%
G90
M71
T1
X169100Y8400
X-24500Y15800
X-24600Y2400
X169100Y28000
X169100Y23400
X-12200Y15900
X169100Y3500
X-24500Y31200
T2
X49657Y4318
X25959Y4267
X44552Y4293
X49733Y27940
X44628Y27915
X31064Y4293
X67818Y27965
X25933Y28042
X160071Y4191
X154965Y4166
X160198Y27737
X155092Y27711
X141300Y4013
X136195Y3988
X31115Y27991
X123139Y3912
X118034Y3886
X123393Y27965
X118288Y27940
X104343Y4115
X99238Y4089
X104673Y28118
X99568Y28092
X86487Y4039
X81382Y4013
X86462Y27965
X81356Y27940
X67640Y4115
X62535Y4089
X62713Y27940
X136449Y27965
X141554Y27991
T3
X-15939Y14585
X-18479Y17125
X-15939Y17125
X-18479Y19665
X-15939Y19665
X-18479Y22205
X-15939Y22205
X-18479Y24745
X-15939Y24745
X-18479Y27285
X-15939Y27285
X-15939Y6965
X-8616Y4575
X-6076Y4575
X-8616Y7115
X-6076Y7115
X-8616Y9655
X-6076Y9655
X-8616Y12195
X-6076Y12195
X-8616Y14735
X-6076Y14735
X-8616Y17275
X-6076Y17275
X-8616Y19815
X-6076Y19815
X-8616Y22355
X-6076Y22355
X-8616Y24895
X-6076Y24895
X-8616Y27435
X-6076Y27435
X-18479Y4425
X-15939Y4425
X-18479Y6965
X-18479Y9505
X-15939Y9505
X-18479Y12045
X-15939Y12045
X-18479Y14585
T4
X21133Y6934
X115443Y4140
X115443Y6680
X113208Y6553
X113208Y1473
X133858Y28219
X133858Y30759
X131623Y30632
X133604Y4242
X133604Y6782
X131369Y6655
X131369Y1575
X39726Y6960
X21133Y1854
X23368Y4521
X21052Y26032
X42037Y28169
X42037Y30709
X39802Y30582
X39802Y25502
X21052Y31112
X23338Y30709
X41961Y4547
X41961Y7087
X152502Y27965
X39726Y1880
X23338Y28169
X150266Y30378
X60122Y28194
X60122Y30734
X57887Y30607
X57887Y25527
X150266Y25298
X23368Y7061
X59944Y4343
X59944Y6883
X57709Y6756
X57709Y1676
X152375Y4420
X152375Y6960
X78765Y28194
X78765Y30734
X76530Y30607
X76530Y25527
X150139Y6833
X150139Y1753
X78791Y4267
X78791Y6807
X76556Y6680
X76556Y1600
X131623Y25552
X152502Y30505
X96977Y28346
X96977Y30886
X94742Y30759
X94742Y25679
X96647Y4343
X96647Y6883
X94412Y6756
X94412Y1676
X115697Y28194
X115697Y30734
X113462Y30607
X113462Y25527
T5
X161773Y34950
X151638Y32741
X132893Y32690
X114656Y33045
X95707Y32842
X77673Y33020
X59182Y32791
X40767Y33045
X20955Y33096
X15697Y8357
X39599Y9322
X-21311Y15926
X22530Y9195
X129550Y1006
X148219Y980
X111308Y569
X92334Y239
X74910Y3236
X56114Y3312
X129845Y27364
X111938Y27127
X56210Y24823
X161519Y-3150
X151155Y8763
X38354Y24506
X37775Y3338
X92913Y27356
X74422Y24755
X132690Y8941
X114148Y9093
X19690Y3490
X21011Y24133
X-20625Y-1016
X-20041Y34493
X95910Y9144
X77546Y9398
X58979Y9423
X148519Y25944
M30