G04 EAGLE Gerber RS-274X export*
G75*
%MOMM*%
%FSLAX34Y34*%
%LPD*%
%INSoldermask Bottom*%
%IPPOS*%
%AMOC8*
5,1,8,0,0,1.08239X$1,22.5*%
G01*
%ADD10C,3.203200*%
%ADD11C,1.727200*%
%ADD12R,0.803200X0.803200*%
%ADD13P,1.759533X8X112.500000*%
%ADD14C,0.959600*%


D10*
X-245000Y312000D03*
X-122000Y159000D03*
X-245000Y158000D03*
X-246000Y24000D03*
X1691000Y280000D03*
X1691000Y234000D03*
X1691000Y84000D03*
X1691000Y35000D03*
D11*
X321818Y320294D02*
X321818Y335534D01*
X296418Y335534D02*
X296418Y320294D01*
X271018Y320294D02*
X271018Y335534D01*
X245618Y335534D02*
X245618Y320294D01*
X245618Y240284D02*
X245618Y225044D01*
X271018Y225044D02*
X271018Y240284D01*
X296418Y240284D02*
X296418Y225044D01*
X321818Y225044D02*
X321818Y240284D01*
D12*
X349250Y274384D03*
X349250Y282384D03*
D11*
X511302Y320040D02*
X511302Y335280D01*
X485902Y335280D02*
X485902Y320040D01*
X460502Y320040D02*
X460502Y335280D01*
X435102Y335280D02*
X435102Y320040D01*
X435102Y240030D02*
X435102Y224790D01*
X460502Y224790D02*
X460502Y240030D01*
X485902Y240030D02*
X485902Y224790D01*
X511302Y224790D02*
X511302Y240030D01*
D12*
X537210Y277178D03*
X537210Y285178D03*
D11*
X689864Y319786D02*
X689864Y335026D01*
X664464Y335026D02*
X664464Y319786D01*
X639064Y319786D02*
X639064Y335026D01*
X613664Y335026D02*
X613664Y319786D01*
X613664Y239776D02*
X613664Y224536D01*
X639064Y224536D02*
X639064Y239776D01*
X664464Y239776D02*
X664464Y224536D01*
X689864Y224536D02*
X689864Y239776D01*
D12*
X717550Y272606D03*
X717550Y280606D03*
D11*
X879348Y319532D02*
X879348Y334772D01*
X853948Y334772D02*
X853948Y319532D01*
X828548Y319532D02*
X828548Y334772D01*
X803148Y334772D02*
X803148Y319532D01*
X803656Y239522D02*
X803656Y224282D01*
X829056Y224282D02*
X829056Y239522D01*
X854456Y239522D02*
X854456Y224282D01*
X879856Y224282D02*
X879856Y239522D01*
D12*
X905002Y275908D03*
X905002Y283908D03*
D11*
X1057656Y319024D02*
X1057656Y334264D01*
X1032256Y334264D02*
X1032256Y319024D01*
X1006856Y319024D02*
X1006856Y334264D01*
X981456Y334264D02*
X981456Y319024D01*
X981456Y239014D02*
X981456Y223774D01*
X1006856Y223774D02*
X1006856Y239014D01*
X1032256Y239014D02*
X1032256Y223774D01*
X1057656Y223774D02*
X1057656Y239014D01*
D12*
X1084580Y273114D03*
X1084580Y281114D03*
D11*
X1247140Y318770D02*
X1247140Y334010D01*
X1221740Y334010D02*
X1221740Y318770D01*
X1196340Y318770D02*
X1196340Y334010D01*
X1170940Y334010D02*
X1170940Y318770D01*
X1170940Y238760D02*
X1170940Y223520D01*
X1196340Y223520D02*
X1196340Y238760D01*
X1221740Y238760D02*
X1221740Y223520D01*
X1247140Y223520D02*
X1247140Y238760D01*
D12*
X1272794Y274892D03*
X1272794Y282892D03*
D11*
X1425448Y318262D02*
X1425448Y333502D01*
X1400048Y333502D02*
X1400048Y318262D01*
X1374648Y318262D02*
X1374648Y333502D01*
X1349248Y333502D02*
X1349248Y318262D01*
X1349248Y238252D02*
X1349248Y223012D01*
X1374648Y223012D02*
X1374648Y238252D01*
X1400048Y238252D02*
X1400048Y223012D01*
X1425448Y223012D02*
X1425448Y238252D01*
D12*
X1451864Y274638D03*
X1451864Y282638D03*
D11*
X319786Y95504D02*
X319786Y80264D01*
X294386Y80264D02*
X294386Y95504D01*
X268986Y95504D02*
X268986Y80264D01*
X243586Y80264D02*
X243586Y95504D01*
X243586Y254D02*
X243586Y-14986D01*
X268986Y-14986D02*
X268986Y254D01*
X294386Y254D02*
X294386Y-14986D01*
X319786Y-14986D02*
X319786Y254D01*
D12*
X347472Y39434D03*
X347472Y47434D03*
D11*
X509270Y80264D02*
X509270Y95504D01*
X483870Y95504D02*
X483870Y80264D01*
X458470Y80264D02*
X458470Y95504D01*
X433070Y95504D02*
X433070Y80264D01*
X433070Y254D02*
X433070Y-14986D01*
X458470Y-14986D02*
X458470Y254D01*
X483870Y254D02*
X483870Y-14986D01*
X509270Y-14986D02*
X509270Y254D01*
D12*
X535178Y32322D03*
X535178Y40322D03*
D11*
X687832Y80264D02*
X687832Y95504D01*
X662432Y95504D02*
X662432Y80264D01*
X637032Y80264D02*
X637032Y95504D01*
X611632Y95504D02*
X611632Y80264D01*
X611632Y0D02*
X611632Y-15240D01*
X637032Y-15240D02*
X637032Y0D01*
X662432Y0D02*
X662432Y-15240D01*
X687832Y-15240D02*
X687832Y0D01*
D12*
X715772Y34100D03*
X715772Y42100D03*
D11*
X877316Y79756D02*
X877316Y94996D01*
X851916Y94996D02*
X851916Y79756D01*
X826516Y79756D02*
X826516Y94996D01*
X801116Y94996D02*
X801116Y79756D01*
X801116Y-254D02*
X801116Y-15494D01*
X826516Y-15494D02*
X826516Y-254D01*
X851916Y-254D02*
X851916Y-15494D01*
X877316Y-15494D02*
X877316Y-254D01*
D12*
X902970Y33846D03*
X902970Y41846D03*
D11*
X1055624Y80010D02*
X1055624Y95250D01*
X1030224Y95250D02*
X1030224Y80010D01*
X1004824Y80010D02*
X1004824Y95250D01*
X979424Y95250D02*
X979424Y80010D01*
X979424Y0D02*
X979424Y-15240D01*
X1004824Y-15240D02*
X1004824Y0D01*
X1030224Y0D02*
X1030224Y-15240D01*
X1055624Y-15240D02*
X1055624Y0D01*
D12*
X1082294Y35116D03*
X1082294Y43116D03*
D11*
X1245108Y79756D02*
X1245108Y94996D01*
X1219708Y94996D02*
X1219708Y79756D01*
X1194308Y79756D02*
X1194308Y94996D01*
X1168908Y94996D02*
X1168908Y79756D01*
X1168908Y0D02*
X1168908Y-15240D01*
X1194308Y-15240D02*
X1194308Y0D01*
X1219708Y0D02*
X1219708Y-15240D01*
X1245108Y-15240D02*
X1245108Y0D01*
D12*
X1271270Y35370D03*
X1271270Y43370D03*
D11*
X1423416Y80010D02*
X1423416Y95250D01*
X1398016Y95250D02*
X1398016Y80010D01*
X1372616Y80010D02*
X1372616Y95250D01*
X1347216Y95250D02*
X1347216Y80010D01*
X1347216Y0D02*
X1347216Y-15240D01*
X1372616Y-15240D02*
X1372616Y0D01*
X1398016Y0D02*
X1398016Y-15240D01*
X1423416Y-15240D02*
X1423416Y0D01*
D12*
X1449832Y34100D03*
X1449832Y42100D03*
D11*
X1614068Y75921D02*
X1614068Y91161D01*
X1588668Y91161D02*
X1588668Y75921D01*
X1563268Y75921D02*
X1563268Y91161D01*
X1537868Y91161D02*
X1537868Y75921D01*
X1538122Y-4597D02*
X1538122Y-19837D01*
X1563522Y-19837D02*
X1563522Y-4597D01*
X1588922Y-4597D02*
X1588922Y-19837D01*
X1614322Y-19837D02*
X1614322Y-4597D01*
D12*
X1641754Y30519D03*
X1641754Y38519D03*
D11*
X1614627Y321462D02*
X1614627Y336702D01*
X1589227Y336702D02*
X1589227Y321462D01*
X1563827Y321462D02*
X1563827Y336702D01*
X1538427Y336702D02*
X1538427Y321462D01*
X1538427Y241452D02*
X1538427Y226212D01*
X1563827Y226212D02*
X1563827Y241452D01*
X1589227Y241452D02*
X1589227Y226212D01*
X1614627Y226212D02*
X1614627Y241452D01*
D12*
X1641551Y276314D03*
X1641551Y284314D03*
D13*
X-86157Y45745D03*
X-60757Y45745D03*
X-86157Y71145D03*
X-60757Y71145D03*
X-86157Y96545D03*
X-60757Y96545D03*
X-86157Y121945D03*
X-60757Y121945D03*
X-86157Y147345D03*
X-60757Y147345D03*
X-86157Y172745D03*
X-60757Y172745D03*
X-86157Y198145D03*
X-60757Y198145D03*
X-86157Y223545D03*
X-60757Y223545D03*
X-86157Y248945D03*
X-60757Y248945D03*
X-86157Y274345D03*
X-60757Y274345D03*
X-184785Y44247D03*
X-159385Y44247D03*
X-184785Y69647D03*
X-159385Y69647D03*
X-184785Y95047D03*
X-159385Y95047D03*
X-184785Y120447D03*
X-159385Y120447D03*
X-184785Y145847D03*
X-159385Y145847D03*
X-184785Y171247D03*
X-159385Y171247D03*
X-184785Y196647D03*
X-159385Y196647D03*
X-184785Y222047D03*
X-159385Y222047D03*
X-184785Y247447D03*
X-159385Y247447D03*
X-184785Y272847D03*
X-159385Y272847D03*
D14*
X337566Y328267D03*
X-213106Y159258D03*
X1663192Y345440D03*
X1484122Y277622D03*
X1299972Y289052D03*
X1113282Y277622D03*
X934974Y278384D03*
X749808Y286004D03*
X565658Y284226D03*
X381508Y277114D03*
X145542Y278892D03*
X62230Y55626D03*
X123444Y56896D03*
X381000Y68326D03*
X562610Y45212D03*
X744728Y54864D03*
X927354Y43434D03*
X1116330Y45720D03*
X1300480Y0D03*
X1486662Y-16002D03*
X1665478Y-43180D03*
X-200406Y344932D03*
X-206248Y-10160D03*
X527304Y328013D03*
X706120Y327759D03*
X896762Y327294D03*
X1073150Y326997D03*
X1263142Y326743D03*
X1442212Y326235D03*
X1630629Y329562D03*
X336042Y88364D03*
X522732Y88110D03*
X701802Y88110D03*
X892810Y87856D03*
X1070864Y88110D03*
X1259586Y87856D03*
X1644294Y79985D03*
X339423Y232585D03*
X528653Y232077D03*
X704342Y231676D03*
X895604Y231422D03*
X1075261Y231315D03*
X1261364Y230660D03*
X1440942Y230152D03*
X336804Y-7719D03*
X525780Y-7973D03*
X703326Y-7973D03*
X892048Y-8227D03*
X1072134Y-7973D03*
X1258570Y-8227D03*
X1439418Y-7973D03*
X1631800Y-12423D03*
X1631137Y233479D03*
X1439418Y88110D03*
M02*
