G04 EAGLE Gerber RS-274X export*
G75*
%MOMM*%
%FSLAX34Y34*%
%LPD*%
%IN*%
%IPPOS*%
%AMOC8*
5,1,8,0,0,1.08239X$1,22.5*%
G01*
%ADD10C,0.254000*%


D10*
X134620Y-571500D02*
X558800Y-995680D01*
X1132840Y-995680D01*
X1546860Y-584200D01*
X1546860Y363220D01*
X1490980Y419100D01*
X193040Y419100D01*
X134620Y360680D01*
X134620Y-571500D01*
X232474Y-480695D02*
X330899Y-480695D01*
X330899Y-414020D01*
X232474Y-414020D01*
X232474Y-480695D01*
X1338136Y-242824D02*
X1436561Y-242824D01*
X1436561Y-176149D01*
X1338136Y-176149D01*
X1338136Y-242824D01*
X792036Y246126D02*
X890461Y246126D01*
X890461Y312801D01*
X792036Y312801D01*
X792036Y246126D01*
X1338136Y244856D02*
X1436561Y244856D01*
X1436561Y311531D01*
X1338136Y311531D01*
X1338136Y244856D01*
X232474Y6985D02*
X330899Y6985D01*
X330899Y73660D01*
X232474Y73660D01*
X232474Y6985D01*
X792036Y-241554D02*
X890461Y-241554D01*
X890461Y-174879D01*
X792036Y-174879D01*
X792036Y-241554D01*
X970344Y-242062D02*
X1068769Y-242062D01*
X1068769Y-175387D01*
X970344Y-175387D01*
X970344Y-242062D01*
X1159828Y-242316D02*
X1258253Y-242316D01*
X1258253Y-175641D01*
X1159828Y-175641D01*
X1159828Y-242316D01*
X234506Y246888D02*
X332931Y246888D01*
X332931Y313563D01*
X234506Y313563D01*
X234506Y246888D01*
X423990Y246634D02*
X522415Y246634D01*
X522415Y313309D01*
X423990Y313309D01*
X423990Y246634D01*
X1159828Y245364D02*
X1258253Y245364D01*
X1258253Y312039D01*
X1159828Y312039D01*
X1159828Y245364D01*
X970344Y245618D02*
X1068769Y245618D01*
X1068769Y312293D01*
X970344Y312293D01*
X970344Y245618D01*
X423990Y-241046D02*
X522415Y-241046D01*
X522415Y-174371D01*
X423990Y-174371D01*
X423990Y-241046D01*
X234506Y-240792D02*
X332931Y-240792D01*
X332931Y-174117D01*
X234506Y-174117D01*
X234506Y-240792D01*
X421958Y-480949D02*
X520383Y-480949D01*
X520383Y-414274D01*
X421958Y-414274D01*
X421958Y-480949D01*
X421958Y6731D02*
X520383Y6731D01*
X520383Y73406D01*
X421958Y73406D01*
X421958Y6731D01*
X1336104Y-480949D02*
X1434529Y-480949D01*
X1434529Y-414274D01*
X1336104Y-414274D01*
X1336104Y-480949D01*
X1157796Y-481203D02*
X1256221Y-481203D01*
X1256221Y-414528D01*
X1157796Y-414528D01*
X1157796Y-481203D01*
X968312Y-480949D02*
X1066737Y-480949D01*
X1066737Y-414274D01*
X968312Y-414274D01*
X968312Y-480949D01*
X790004Y-481203D02*
X888429Y-481203D01*
X888429Y-414528D01*
X790004Y-414528D01*
X790004Y-481203D01*
X600520Y-480949D02*
X698945Y-480949D01*
X698945Y-414274D01*
X600520Y-414274D01*
X600520Y-480949D01*
X600520Y6731D02*
X698945Y6731D01*
X698945Y73406D01*
X600520Y73406D01*
X600520Y6731D01*
X790004Y6477D02*
X888429Y6477D01*
X888429Y73152D01*
X790004Y73152D01*
X790004Y6477D01*
X968312Y6731D02*
X1066737Y6731D01*
X1066737Y73406D01*
X968312Y73406D01*
X968312Y6731D01*
X1157796Y6477D02*
X1256221Y6477D01*
X1256221Y73152D01*
X1157796Y73152D01*
X1157796Y6477D01*
X1336104Y6731D02*
X1434529Y6731D01*
X1434529Y73406D01*
X1336104Y73406D01*
X1336104Y6731D01*
X602552Y-241300D02*
X700977Y-241300D01*
X700977Y-174625D01*
X602552Y-174625D01*
X602552Y-241300D01*
X602552Y246380D02*
X700977Y246380D01*
X700977Y313055D01*
X602552Y313055D01*
X602552Y246380D01*
M02*
