G04 EAGLE Gerber RS-274X export*
G75*
%MOMM*%
%FSLAX34Y34*%
%LPD*%
%INSolderpaste Top*%
%IPPOS*%
%AMOC8*
5,1,8,0,0,1.08239X$1,22.5*%
G01*
%ADD10R,1.200000X1.400000*%


D10*
X179564Y170434D03*
X209564Y170434D03*
X179818Y148336D03*
X209818Y148336D03*
X362698Y170180D03*
X392698Y170180D03*
X362698Y148082D03*
X392698Y148082D03*
X546086Y170688D03*
X576086Y170688D03*
X546086Y148082D03*
X576086Y148082D03*
X731252Y170434D03*
X761252Y170434D03*
X731252Y148336D03*
X761252Y148336D03*
X913878Y170180D03*
X943878Y170180D03*
X913878Y148336D03*
X943878Y148336D03*
X1099298Y170434D03*
X1129298Y170434D03*
X1099298Y148336D03*
X1129298Y148336D03*
X1282432Y170180D03*
X1312432Y170180D03*
X1282432Y148082D03*
X1312432Y148082D03*
X1468106Y170180D03*
X1498106Y170180D03*
X1468106Y147828D03*
X1498106Y147828D03*
X179818Y-73660D03*
X209818Y-73660D03*
X179818Y-96012D03*
X209818Y-96012D03*
X363206Y-73406D03*
X393206Y-73406D03*
X363714Y-95758D03*
X393714Y-95758D03*
X545578Y-73406D03*
X575578Y-73406D03*
X545578Y-95504D03*
X575578Y-95504D03*
X730998Y-73152D03*
X760998Y-73152D03*
X730998Y-95250D03*
X760998Y-95250D03*
X914386Y-73660D03*
X944386Y-73660D03*
X914386Y-95504D03*
X944386Y-95504D03*
X1096758Y-73660D03*
X1126758Y-73660D03*
X1096758Y-95504D03*
X1126758Y-95504D03*
X1282178Y-73406D03*
X1312178Y-73406D03*
X1282178Y-95504D03*
X1312178Y-95504D03*
X1467852Y-73406D03*
X1497852Y-73406D03*
X1467852Y-95250D03*
X1497852Y-95250D03*
X179818Y-314706D03*
X209818Y-314706D03*
X179818Y-336804D03*
X209818Y-336804D03*
X360412Y-314198D03*
X390412Y-314198D03*
X360412Y-336550D03*
X390412Y-336550D03*
X545578Y-317754D03*
X575578Y-317754D03*
X545578Y-339598D03*
X575578Y-339598D03*
X731252Y-317754D03*
X761252Y-317754D03*
X731506Y-339852D03*
X761506Y-339852D03*
X914132Y-317500D03*
X944132Y-317500D03*
X914132Y-339344D03*
X944132Y-339344D03*
X1096758Y-320040D03*
X1126758Y-320040D03*
X1096758Y-341884D03*
X1126758Y-341884D03*
X1282178Y-317500D03*
X1312178Y-317500D03*
X1282178Y-339344D03*
X1312178Y-339344D03*
X1467598Y-315214D03*
X1497598Y-315214D03*
X1467598Y-337312D03*
X1497598Y-337312D03*
M02*
