G04 EAGLE Gerber RS-274X export*
G75*
%MOMM*%
%FSLAX34Y34*%
%LPD*%
%INSilkscreen Bottom*%
%IPPOS*%
%AMOC8*
5,1,8,0,0,1.08239X$1,22.5*%
G01*
%ADD10C,0.203200*%
%ADD11C,0.050800*%


D10*
X1219056Y172491D02*
X1219056Y154316D01*
X1219058Y154173D01*
X1219064Y154030D01*
X1219074Y153887D01*
X1219088Y153745D01*
X1219105Y153603D01*
X1219127Y153461D01*
X1219152Y153320D01*
X1219182Y153180D01*
X1219215Y153041D01*
X1219252Y152903D01*
X1219293Y152766D01*
X1219337Y152630D01*
X1219386Y152495D01*
X1219438Y152362D01*
X1219493Y152230D01*
X1219553Y152100D01*
X1219616Y151971D01*
X1219682Y151844D01*
X1219752Y151720D01*
X1219825Y151597D01*
X1219902Y151476D01*
X1219982Y151357D01*
X1220065Y151241D01*
X1220151Y151126D01*
X1220240Y151015D01*
X1220333Y150905D01*
X1220428Y150799D01*
X1220527Y150695D01*
X1220628Y150594D01*
X1220732Y150495D01*
X1220838Y150400D01*
X1220948Y150307D01*
X1221059Y150218D01*
X1221174Y150132D01*
X1221290Y150049D01*
X1221409Y149969D01*
X1221530Y149892D01*
X1221653Y149819D01*
X1221777Y149749D01*
X1221904Y149683D01*
X1222033Y149620D01*
X1222163Y149560D01*
X1222295Y149505D01*
X1222428Y149453D01*
X1222563Y149404D01*
X1222699Y149360D01*
X1222836Y149319D01*
X1222974Y149282D01*
X1223113Y149249D01*
X1223253Y149219D01*
X1223394Y149194D01*
X1223536Y149172D01*
X1223678Y149155D01*
X1223820Y149141D01*
X1223963Y149131D01*
X1224106Y149125D01*
X1224249Y149123D01*
X1226845Y149123D01*
X1210493Y155615D02*
X1210493Y166000D01*
X1210491Y166159D01*
X1210485Y166318D01*
X1210475Y166478D01*
X1210462Y166636D01*
X1210444Y166795D01*
X1210423Y166952D01*
X1210397Y167110D01*
X1210368Y167266D01*
X1210335Y167422D01*
X1210298Y167577D01*
X1210258Y167731D01*
X1210213Y167884D01*
X1210165Y168036D01*
X1210114Y168187D01*
X1210058Y168336D01*
X1209999Y168484D01*
X1209936Y168630D01*
X1209870Y168775D01*
X1209800Y168918D01*
X1209727Y169060D01*
X1209650Y169199D01*
X1209570Y169337D01*
X1209486Y169473D01*
X1209399Y169606D01*
X1209309Y169738D01*
X1209216Y169867D01*
X1209119Y169993D01*
X1209020Y170118D01*
X1208917Y170240D01*
X1208812Y170359D01*
X1208703Y170476D01*
X1208592Y170590D01*
X1208478Y170701D01*
X1208361Y170810D01*
X1208242Y170915D01*
X1208120Y171018D01*
X1207995Y171117D01*
X1207869Y171214D01*
X1207740Y171307D01*
X1207608Y171397D01*
X1207475Y171484D01*
X1207339Y171568D01*
X1207201Y171648D01*
X1207062Y171725D01*
X1206920Y171798D01*
X1206777Y171868D01*
X1206632Y171934D01*
X1206486Y171997D01*
X1206338Y172056D01*
X1206189Y172112D01*
X1206038Y172163D01*
X1205886Y172211D01*
X1205733Y172256D01*
X1205579Y172296D01*
X1205424Y172333D01*
X1205268Y172366D01*
X1205112Y172395D01*
X1204954Y172421D01*
X1204797Y172442D01*
X1204638Y172460D01*
X1204480Y172473D01*
X1204320Y172483D01*
X1204161Y172489D01*
X1204002Y172491D01*
X1203843Y172489D01*
X1203684Y172483D01*
X1203524Y172473D01*
X1203366Y172460D01*
X1203207Y172442D01*
X1203050Y172421D01*
X1202892Y172395D01*
X1202736Y172366D01*
X1202580Y172333D01*
X1202425Y172296D01*
X1202271Y172256D01*
X1202118Y172211D01*
X1201966Y172163D01*
X1201815Y172112D01*
X1201666Y172056D01*
X1201518Y171997D01*
X1201372Y171934D01*
X1201227Y171868D01*
X1201084Y171798D01*
X1200942Y171725D01*
X1200803Y171648D01*
X1200665Y171568D01*
X1200529Y171484D01*
X1200396Y171397D01*
X1200264Y171307D01*
X1200135Y171214D01*
X1200009Y171117D01*
X1199884Y171018D01*
X1199762Y170915D01*
X1199643Y170810D01*
X1199526Y170701D01*
X1199412Y170590D01*
X1199301Y170476D01*
X1199192Y170359D01*
X1199087Y170240D01*
X1198984Y170118D01*
X1198885Y169993D01*
X1198788Y169867D01*
X1198695Y169738D01*
X1198605Y169606D01*
X1198518Y169473D01*
X1198434Y169337D01*
X1198354Y169199D01*
X1198277Y169060D01*
X1198204Y168918D01*
X1198134Y168775D01*
X1198068Y168630D01*
X1198005Y168484D01*
X1197946Y168336D01*
X1197890Y168187D01*
X1197839Y168036D01*
X1197791Y167884D01*
X1197746Y167731D01*
X1197706Y167577D01*
X1197669Y167422D01*
X1197636Y167266D01*
X1197607Y167110D01*
X1197581Y166952D01*
X1197560Y166795D01*
X1197542Y166636D01*
X1197529Y166478D01*
X1197519Y166318D01*
X1197513Y166159D01*
X1197511Y166000D01*
X1197511Y155615D01*
X1197513Y155456D01*
X1197519Y155297D01*
X1197529Y155137D01*
X1197542Y154979D01*
X1197560Y154820D01*
X1197581Y154663D01*
X1197607Y154505D01*
X1197636Y154349D01*
X1197669Y154193D01*
X1197706Y154038D01*
X1197746Y153884D01*
X1197791Y153731D01*
X1197839Y153579D01*
X1197890Y153428D01*
X1197946Y153279D01*
X1198005Y153131D01*
X1198068Y152985D01*
X1198134Y152840D01*
X1198204Y152697D01*
X1198277Y152555D01*
X1198354Y152416D01*
X1198434Y152278D01*
X1198518Y152142D01*
X1198605Y152009D01*
X1198695Y151877D01*
X1198788Y151748D01*
X1198885Y151622D01*
X1198984Y151497D01*
X1199087Y151375D01*
X1199192Y151256D01*
X1199301Y151139D01*
X1199412Y151025D01*
X1199526Y150914D01*
X1199643Y150805D01*
X1199762Y150700D01*
X1199884Y150597D01*
X1200009Y150498D01*
X1200135Y150401D01*
X1200264Y150308D01*
X1200396Y150218D01*
X1200529Y150131D01*
X1200665Y150047D01*
X1200803Y149967D01*
X1200942Y149890D01*
X1201084Y149817D01*
X1201227Y149747D01*
X1201372Y149681D01*
X1201518Y149618D01*
X1201666Y149559D01*
X1201815Y149503D01*
X1201966Y149452D01*
X1202118Y149404D01*
X1202271Y149359D01*
X1202425Y149319D01*
X1202580Y149282D01*
X1202736Y149249D01*
X1202892Y149220D01*
X1203050Y149194D01*
X1203207Y149173D01*
X1203366Y149155D01*
X1203524Y149142D01*
X1203684Y149132D01*
X1203843Y149126D01*
X1204002Y149124D01*
X1204161Y149126D01*
X1204320Y149132D01*
X1204480Y149142D01*
X1204638Y149155D01*
X1204797Y149173D01*
X1204954Y149194D01*
X1205112Y149220D01*
X1205268Y149249D01*
X1205424Y149282D01*
X1205579Y149319D01*
X1205733Y149359D01*
X1205886Y149404D01*
X1206038Y149452D01*
X1206189Y149503D01*
X1206338Y149559D01*
X1206486Y149618D01*
X1206632Y149681D01*
X1206777Y149747D01*
X1206920Y149817D01*
X1207062Y149890D01*
X1207201Y149967D01*
X1207339Y150047D01*
X1207475Y150131D01*
X1207608Y150218D01*
X1207740Y150308D01*
X1207869Y150401D01*
X1207995Y150498D01*
X1208120Y150597D01*
X1208242Y150700D01*
X1208361Y150805D01*
X1208478Y150914D01*
X1208592Y151025D01*
X1208703Y151139D01*
X1208812Y151256D01*
X1208917Y151375D01*
X1209020Y151497D01*
X1209119Y151622D01*
X1209216Y151748D01*
X1209309Y151877D01*
X1209399Y152009D01*
X1209486Y152142D01*
X1209570Y152278D01*
X1209650Y152416D01*
X1209727Y152555D01*
X1209800Y152697D01*
X1209870Y152840D01*
X1209936Y152985D01*
X1209999Y153131D01*
X1210058Y153279D01*
X1210114Y153428D01*
X1210165Y153579D01*
X1210213Y153731D01*
X1210258Y153884D01*
X1210298Y154038D01*
X1210335Y154193D01*
X1210368Y154349D01*
X1210397Y154505D01*
X1210423Y154663D01*
X1210444Y154820D01*
X1210462Y154979D01*
X1210475Y155137D01*
X1210485Y155297D01*
X1210491Y155456D01*
X1210493Y155615D01*
X1182521Y149123D02*
X1182378Y149125D01*
X1182235Y149131D01*
X1182092Y149141D01*
X1181950Y149155D01*
X1181808Y149172D01*
X1181666Y149194D01*
X1181525Y149219D01*
X1181385Y149249D01*
X1181246Y149282D01*
X1181108Y149319D01*
X1180971Y149360D01*
X1180835Y149404D01*
X1180700Y149453D01*
X1180567Y149505D01*
X1180435Y149560D01*
X1180305Y149620D01*
X1180176Y149683D01*
X1180049Y149749D01*
X1179925Y149819D01*
X1179802Y149892D01*
X1179681Y149969D01*
X1179562Y150048D01*
X1179446Y150132D01*
X1179331Y150218D01*
X1179220Y150307D01*
X1179110Y150400D01*
X1179004Y150495D01*
X1178900Y150594D01*
X1178799Y150695D01*
X1178700Y150799D01*
X1178605Y150905D01*
X1178512Y151015D01*
X1178423Y151126D01*
X1178337Y151241D01*
X1178254Y151357D01*
X1178174Y151476D01*
X1178097Y151597D01*
X1178024Y151719D01*
X1177954Y151844D01*
X1177888Y151971D01*
X1177825Y152100D01*
X1177765Y152230D01*
X1177710Y152362D01*
X1177658Y152495D01*
X1177609Y152630D01*
X1177565Y152766D01*
X1177524Y152903D01*
X1177487Y153041D01*
X1177454Y153180D01*
X1177424Y153320D01*
X1177399Y153461D01*
X1177377Y153603D01*
X1177360Y153745D01*
X1177346Y153887D01*
X1177336Y154030D01*
X1177330Y154173D01*
X1177328Y154316D01*
X1182521Y149124D02*
X1182784Y149127D01*
X1183046Y149137D01*
X1183308Y149152D01*
X1183569Y149174D01*
X1183830Y149202D01*
X1184090Y149237D01*
X1184350Y149278D01*
X1184608Y149324D01*
X1184865Y149377D01*
X1185121Y149437D01*
X1185375Y149502D01*
X1185628Y149573D01*
X1185878Y149650D01*
X1186127Y149734D01*
X1186374Y149823D01*
X1186619Y149918D01*
X1186861Y150019D01*
X1187101Y150126D01*
X1187338Y150238D01*
X1187572Y150356D01*
X1187804Y150480D01*
X1188032Y150609D01*
X1188258Y150744D01*
X1188480Y150884D01*
X1188698Y151029D01*
X1188914Y151179D01*
X1189125Y151335D01*
X1189333Y151495D01*
X1189536Y151661D01*
X1189736Y151831D01*
X1189932Y152006D01*
X1190123Y152185D01*
X1190310Y152369D01*
X1189662Y167299D02*
X1189660Y167442D01*
X1189654Y167585D01*
X1189644Y167728D01*
X1189630Y167870D01*
X1189613Y168012D01*
X1189591Y168154D01*
X1189566Y168295D01*
X1189536Y168435D01*
X1189503Y168574D01*
X1189466Y168712D01*
X1189425Y168849D01*
X1189381Y168985D01*
X1189332Y169120D01*
X1189280Y169253D01*
X1189225Y169385D01*
X1189165Y169515D01*
X1189102Y169644D01*
X1189036Y169771D01*
X1188966Y169896D01*
X1188893Y170018D01*
X1188816Y170139D01*
X1188736Y170258D01*
X1188653Y170374D01*
X1188567Y170489D01*
X1188478Y170600D01*
X1188385Y170710D01*
X1188290Y170816D01*
X1188191Y170920D01*
X1188090Y171021D01*
X1187986Y171120D01*
X1187880Y171215D01*
X1187770Y171308D01*
X1187659Y171397D01*
X1187544Y171483D01*
X1187428Y171566D01*
X1187309Y171646D01*
X1187188Y171723D01*
X1187066Y171796D01*
X1186941Y171866D01*
X1186814Y171932D01*
X1186685Y171995D01*
X1186555Y172055D01*
X1186423Y172110D01*
X1186290Y172162D01*
X1186155Y172211D01*
X1186019Y172255D01*
X1185882Y172296D01*
X1185744Y172333D01*
X1185605Y172366D01*
X1185465Y172396D01*
X1185324Y172421D01*
X1185182Y172443D01*
X1185040Y172460D01*
X1184898Y172474D01*
X1184755Y172484D01*
X1184612Y172490D01*
X1184469Y172492D01*
X1184237Y172489D01*
X1184005Y172481D01*
X1183773Y172467D01*
X1183542Y172448D01*
X1183311Y172423D01*
X1183081Y172393D01*
X1182852Y172357D01*
X1182624Y172316D01*
X1182396Y172269D01*
X1182170Y172217D01*
X1181945Y172159D01*
X1181722Y172096D01*
X1181500Y172028D01*
X1181280Y171955D01*
X1181062Y171876D01*
X1180845Y171793D01*
X1180631Y171704D01*
X1180419Y171610D01*
X1180209Y171511D01*
X1180001Y171407D01*
X1179797Y171298D01*
X1179594Y171184D01*
X1179395Y171065D01*
X1179198Y170942D01*
X1179005Y170814D01*
X1178814Y170682D01*
X1178627Y170545D01*
X1187065Y162755D02*
X1187188Y162830D01*
X1187309Y162908D01*
X1187428Y162990D01*
X1187544Y163074D01*
X1187658Y163162D01*
X1187770Y163253D01*
X1187880Y163347D01*
X1187986Y163444D01*
X1188090Y163544D01*
X1188191Y163646D01*
X1188290Y163752D01*
X1188385Y163860D01*
X1188478Y163970D01*
X1188567Y164083D01*
X1188653Y164199D01*
X1188737Y164316D01*
X1188816Y164436D01*
X1188893Y164558D01*
X1188966Y164682D01*
X1189036Y164808D01*
X1189102Y164936D01*
X1189165Y165066D01*
X1189224Y165197D01*
X1189280Y165330D01*
X1189332Y165465D01*
X1189380Y165601D01*
X1189425Y165738D01*
X1189465Y165876D01*
X1189502Y166015D01*
X1189536Y166155D01*
X1189565Y166296D01*
X1189590Y166438D01*
X1189612Y166581D01*
X1189630Y166724D01*
X1189643Y166867D01*
X1189653Y167011D01*
X1189659Y167155D01*
X1189661Y167299D01*
X1179924Y158860D02*
X1179801Y158785D01*
X1179680Y158707D01*
X1179561Y158625D01*
X1179445Y158541D01*
X1179331Y158453D01*
X1179219Y158362D01*
X1179110Y158268D01*
X1179003Y158171D01*
X1178899Y158071D01*
X1178798Y157969D01*
X1178699Y157863D01*
X1178604Y157755D01*
X1178511Y157645D01*
X1178422Y157532D01*
X1178336Y157417D01*
X1178253Y157299D01*
X1178173Y157179D01*
X1178096Y157057D01*
X1178023Y156933D01*
X1177953Y156807D01*
X1177887Y156679D01*
X1177824Y156549D01*
X1177765Y156418D01*
X1177709Y156285D01*
X1177657Y156150D01*
X1177609Y156014D01*
X1177564Y155877D01*
X1177524Y155739D01*
X1177487Y155600D01*
X1177454Y155460D01*
X1177424Y155319D01*
X1177399Y155177D01*
X1177377Y155034D01*
X1177359Y154891D01*
X1177346Y154748D01*
X1177336Y154604D01*
X1177330Y154460D01*
X1177328Y154316D01*
X1179925Y158860D02*
X1187065Y162755D01*
X1169432Y172491D02*
X1169432Y149123D01*
X1169432Y162106D02*
X1156450Y162106D01*
X1156450Y172491D02*
X1156450Y149123D01*
X1147161Y155615D02*
X1147161Y172491D01*
X1147161Y155615D02*
X1147159Y155456D01*
X1147153Y155297D01*
X1147143Y155137D01*
X1147130Y154979D01*
X1147112Y154820D01*
X1147091Y154663D01*
X1147065Y154505D01*
X1147036Y154349D01*
X1147003Y154193D01*
X1146966Y154038D01*
X1146926Y153884D01*
X1146881Y153731D01*
X1146833Y153579D01*
X1146782Y153428D01*
X1146726Y153279D01*
X1146667Y153131D01*
X1146604Y152985D01*
X1146538Y152840D01*
X1146468Y152697D01*
X1146395Y152555D01*
X1146318Y152416D01*
X1146238Y152278D01*
X1146154Y152142D01*
X1146067Y152009D01*
X1145977Y151877D01*
X1145884Y151748D01*
X1145787Y151622D01*
X1145688Y151497D01*
X1145585Y151375D01*
X1145480Y151256D01*
X1145371Y151139D01*
X1145260Y151025D01*
X1145146Y150914D01*
X1145029Y150805D01*
X1144910Y150700D01*
X1144788Y150597D01*
X1144663Y150498D01*
X1144537Y150401D01*
X1144408Y150308D01*
X1144276Y150218D01*
X1144143Y150131D01*
X1144007Y150047D01*
X1143869Y149967D01*
X1143730Y149890D01*
X1143588Y149817D01*
X1143445Y149747D01*
X1143300Y149681D01*
X1143154Y149618D01*
X1143006Y149559D01*
X1142857Y149503D01*
X1142706Y149452D01*
X1142554Y149404D01*
X1142401Y149359D01*
X1142247Y149319D01*
X1142092Y149282D01*
X1141936Y149249D01*
X1141780Y149220D01*
X1141622Y149194D01*
X1141465Y149173D01*
X1141306Y149155D01*
X1141148Y149142D01*
X1140988Y149132D01*
X1140829Y149126D01*
X1140670Y149124D01*
X1140511Y149126D01*
X1140352Y149132D01*
X1140192Y149142D01*
X1140034Y149155D01*
X1139875Y149173D01*
X1139718Y149194D01*
X1139560Y149220D01*
X1139404Y149249D01*
X1139248Y149282D01*
X1139093Y149319D01*
X1138939Y149359D01*
X1138786Y149404D01*
X1138634Y149452D01*
X1138483Y149503D01*
X1138334Y149559D01*
X1138186Y149618D01*
X1138040Y149681D01*
X1137895Y149747D01*
X1137752Y149817D01*
X1137610Y149890D01*
X1137471Y149967D01*
X1137333Y150047D01*
X1137197Y150131D01*
X1137064Y150218D01*
X1136932Y150308D01*
X1136803Y150401D01*
X1136677Y150498D01*
X1136552Y150597D01*
X1136430Y150700D01*
X1136311Y150805D01*
X1136194Y150914D01*
X1136080Y151025D01*
X1135969Y151139D01*
X1135860Y151256D01*
X1135755Y151375D01*
X1135652Y151497D01*
X1135553Y151622D01*
X1135456Y151748D01*
X1135363Y151877D01*
X1135273Y152009D01*
X1135186Y152142D01*
X1135102Y152278D01*
X1135022Y152416D01*
X1134945Y152555D01*
X1134872Y152697D01*
X1134802Y152840D01*
X1134736Y152985D01*
X1134673Y153131D01*
X1134614Y153279D01*
X1134558Y153428D01*
X1134507Y153579D01*
X1134459Y153731D01*
X1134414Y153884D01*
X1134374Y154038D01*
X1134337Y154193D01*
X1134304Y154349D01*
X1134275Y154505D01*
X1134249Y154663D01*
X1134228Y154820D01*
X1134210Y154979D01*
X1134197Y155137D01*
X1134187Y155297D01*
X1134181Y155456D01*
X1134179Y155615D01*
X1134179Y172491D01*
X1119095Y172491D02*
X1126885Y149123D01*
X1111306Y149123D02*
X1119095Y172491D01*
X1113253Y154965D02*
X1124937Y154965D01*
X1092729Y162106D02*
X1086238Y162106D01*
X1086079Y162104D01*
X1085920Y162098D01*
X1085760Y162088D01*
X1085602Y162075D01*
X1085443Y162057D01*
X1085286Y162036D01*
X1085128Y162010D01*
X1084972Y161981D01*
X1084816Y161948D01*
X1084661Y161911D01*
X1084507Y161871D01*
X1084354Y161826D01*
X1084202Y161778D01*
X1084051Y161727D01*
X1083902Y161671D01*
X1083754Y161612D01*
X1083608Y161549D01*
X1083463Y161483D01*
X1083320Y161413D01*
X1083178Y161340D01*
X1083039Y161263D01*
X1082901Y161183D01*
X1082765Y161099D01*
X1082632Y161012D01*
X1082500Y160922D01*
X1082371Y160829D01*
X1082245Y160732D01*
X1082120Y160633D01*
X1081998Y160530D01*
X1081879Y160425D01*
X1081762Y160316D01*
X1081648Y160205D01*
X1081537Y160091D01*
X1081428Y159974D01*
X1081323Y159855D01*
X1081220Y159733D01*
X1081121Y159608D01*
X1081024Y159482D01*
X1080931Y159353D01*
X1080841Y159221D01*
X1080754Y159088D01*
X1080670Y158952D01*
X1080590Y158814D01*
X1080513Y158675D01*
X1080440Y158533D01*
X1080370Y158390D01*
X1080304Y158245D01*
X1080241Y158099D01*
X1080182Y157951D01*
X1080126Y157802D01*
X1080075Y157651D01*
X1080027Y157499D01*
X1079982Y157346D01*
X1079942Y157192D01*
X1079905Y157037D01*
X1079872Y156881D01*
X1079843Y156725D01*
X1079817Y156567D01*
X1079796Y156410D01*
X1079778Y156251D01*
X1079765Y156093D01*
X1079755Y155933D01*
X1079749Y155774D01*
X1079747Y155615D01*
X1079749Y155456D01*
X1079755Y155297D01*
X1079765Y155137D01*
X1079778Y154979D01*
X1079796Y154820D01*
X1079817Y154663D01*
X1079843Y154505D01*
X1079872Y154349D01*
X1079905Y154193D01*
X1079942Y154038D01*
X1079982Y153884D01*
X1080027Y153731D01*
X1080075Y153579D01*
X1080126Y153428D01*
X1080182Y153279D01*
X1080241Y153131D01*
X1080304Y152985D01*
X1080370Y152840D01*
X1080440Y152697D01*
X1080513Y152555D01*
X1080590Y152416D01*
X1080670Y152278D01*
X1080754Y152142D01*
X1080841Y152009D01*
X1080931Y151877D01*
X1081024Y151748D01*
X1081121Y151622D01*
X1081220Y151497D01*
X1081323Y151375D01*
X1081428Y151256D01*
X1081537Y151139D01*
X1081648Y151025D01*
X1081762Y150914D01*
X1081879Y150805D01*
X1081998Y150700D01*
X1082120Y150597D01*
X1082245Y150498D01*
X1082371Y150401D01*
X1082500Y150308D01*
X1082632Y150218D01*
X1082765Y150131D01*
X1082901Y150047D01*
X1083039Y149967D01*
X1083178Y149890D01*
X1083320Y149817D01*
X1083463Y149747D01*
X1083608Y149681D01*
X1083754Y149618D01*
X1083902Y149559D01*
X1084051Y149503D01*
X1084202Y149452D01*
X1084354Y149404D01*
X1084507Y149359D01*
X1084661Y149319D01*
X1084816Y149282D01*
X1084972Y149249D01*
X1085128Y149220D01*
X1085286Y149194D01*
X1085443Y149173D01*
X1085602Y149155D01*
X1085760Y149142D01*
X1085920Y149132D01*
X1086079Y149126D01*
X1086238Y149124D01*
X1086238Y149123D02*
X1092729Y149123D01*
X1092729Y172491D01*
X1086238Y172491D01*
X1086238Y172492D02*
X1086095Y172490D01*
X1085952Y172484D01*
X1085809Y172474D01*
X1085667Y172460D01*
X1085525Y172443D01*
X1085383Y172421D01*
X1085242Y172396D01*
X1085102Y172366D01*
X1084963Y172333D01*
X1084825Y172296D01*
X1084688Y172255D01*
X1084552Y172211D01*
X1084417Y172162D01*
X1084284Y172110D01*
X1084152Y172055D01*
X1084022Y171995D01*
X1083893Y171932D01*
X1083766Y171866D01*
X1083642Y171796D01*
X1083519Y171723D01*
X1083398Y171646D01*
X1083279Y171566D01*
X1083163Y171483D01*
X1083048Y171397D01*
X1082937Y171308D01*
X1082827Y171215D01*
X1082721Y171120D01*
X1082617Y171021D01*
X1082516Y170920D01*
X1082417Y170816D01*
X1082322Y170710D01*
X1082229Y170600D01*
X1082140Y170489D01*
X1082054Y170374D01*
X1081971Y170258D01*
X1081891Y170139D01*
X1081814Y170018D01*
X1081741Y169896D01*
X1081671Y169771D01*
X1081605Y169644D01*
X1081542Y169515D01*
X1081482Y169385D01*
X1081427Y169253D01*
X1081375Y169120D01*
X1081326Y168985D01*
X1081282Y168849D01*
X1081241Y168712D01*
X1081204Y168574D01*
X1081171Y168435D01*
X1081141Y168295D01*
X1081116Y168154D01*
X1081094Y168012D01*
X1081077Y167870D01*
X1081063Y167728D01*
X1081053Y167585D01*
X1081047Y167442D01*
X1081045Y167299D01*
X1081047Y167156D01*
X1081053Y167013D01*
X1081063Y166870D01*
X1081077Y166728D01*
X1081094Y166586D01*
X1081116Y166444D01*
X1081141Y166303D01*
X1081171Y166163D01*
X1081204Y166024D01*
X1081241Y165886D01*
X1081282Y165749D01*
X1081326Y165613D01*
X1081375Y165478D01*
X1081427Y165345D01*
X1081482Y165213D01*
X1081542Y165083D01*
X1081605Y164954D01*
X1081671Y164827D01*
X1081741Y164703D01*
X1081814Y164580D01*
X1081891Y164459D01*
X1081971Y164340D01*
X1082054Y164224D01*
X1082140Y164109D01*
X1082229Y163998D01*
X1082322Y163888D01*
X1082417Y163782D01*
X1082516Y163678D01*
X1082617Y163577D01*
X1082721Y163478D01*
X1082827Y163383D01*
X1082937Y163290D01*
X1083048Y163201D01*
X1083163Y163115D01*
X1083279Y163032D01*
X1083398Y162952D01*
X1083519Y162875D01*
X1083642Y162802D01*
X1083766Y162732D01*
X1083893Y162666D01*
X1084022Y162603D01*
X1084152Y162543D01*
X1084284Y162488D01*
X1084417Y162436D01*
X1084552Y162387D01*
X1084688Y162343D01*
X1084825Y162302D01*
X1084963Y162265D01*
X1085102Y162232D01*
X1085242Y162202D01*
X1085383Y162177D01*
X1085525Y162155D01*
X1085667Y162138D01*
X1085809Y162124D01*
X1085952Y162114D01*
X1086095Y162108D01*
X1086238Y162106D01*
X1071934Y172491D02*
X1071934Y149123D01*
X1071934Y172491D02*
X1065443Y172491D01*
X1065284Y172489D01*
X1065125Y172483D01*
X1064965Y172473D01*
X1064807Y172460D01*
X1064648Y172442D01*
X1064491Y172421D01*
X1064333Y172395D01*
X1064177Y172366D01*
X1064021Y172333D01*
X1063866Y172296D01*
X1063712Y172256D01*
X1063559Y172211D01*
X1063407Y172163D01*
X1063256Y172112D01*
X1063107Y172056D01*
X1062959Y171997D01*
X1062813Y171934D01*
X1062668Y171868D01*
X1062525Y171798D01*
X1062383Y171725D01*
X1062244Y171648D01*
X1062106Y171568D01*
X1061970Y171484D01*
X1061837Y171397D01*
X1061705Y171307D01*
X1061576Y171214D01*
X1061450Y171117D01*
X1061325Y171018D01*
X1061203Y170915D01*
X1061084Y170810D01*
X1060967Y170701D01*
X1060853Y170590D01*
X1060742Y170476D01*
X1060633Y170359D01*
X1060528Y170240D01*
X1060425Y170118D01*
X1060326Y169993D01*
X1060229Y169867D01*
X1060136Y169738D01*
X1060046Y169606D01*
X1059959Y169473D01*
X1059875Y169337D01*
X1059795Y169199D01*
X1059718Y169060D01*
X1059645Y168918D01*
X1059575Y168775D01*
X1059509Y168630D01*
X1059446Y168484D01*
X1059387Y168336D01*
X1059331Y168187D01*
X1059280Y168036D01*
X1059232Y167884D01*
X1059187Y167731D01*
X1059147Y167577D01*
X1059110Y167422D01*
X1059077Y167266D01*
X1059048Y167110D01*
X1059022Y166952D01*
X1059001Y166795D01*
X1058983Y166636D01*
X1058970Y166478D01*
X1058960Y166318D01*
X1058954Y166159D01*
X1058952Y166000D01*
X1058954Y165841D01*
X1058960Y165682D01*
X1058970Y165522D01*
X1058983Y165364D01*
X1059001Y165205D01*
X1059022Y165048D01*
X1059048Y164890D01*
X1059077Y164734D01*
X1059110Y164578D01*
X1059147Y164423D01*
X1059187Y164269D01*
X1059232Y164116D01*
X1059280Y163964D01*
X1059331Y163813D01*
X1059387Y163664D01*
X1059446Y163516D01*
X1059509Y163370D01*
X1059575Y163225D01*
X1059645Y163082D01*
X1059718Y162940D01*
X1059795Y162801D01*
X1059875Y162663D01*
X1059959Y162527D01*
X1060046Y162394D01*
X1060136Y162262D01*
X1060229Y162133D01*
X1060326Y162007D01*
X1060425Y161882D01*
X1060528Y161760D01*
X1060633Y161641D01*
X1060742Y161524D01*
X1060853Y161410D01*
X1060967Y161299D01*
X1061084Y161190D01*
X1061203Y161085D01*
X1061325Y160982D01*
X1061450Y160883D01*
X1061576Y160786D01*
X1061705Y160693D01*
X1061837Y160603D01*
X1061970Y160516D01*
X1062106Y160432D01*
X1062244Y160352D01*
X1062383Y160275D01*
X1062525Y160202D01*
X1062668Y160132D01*
X1062813Y160066D01*
X1062959Y160003D01*
X1063107Y159944D01*
X1063256Y159888D01*
X1063407Y159837D01*
X1063559Y159789D01*
X1063712Y159744D01*
X1063866Y159704D01*
X1064021Y159667D01*
X1064177Y159634D01*
X1064333Y159605D01*
X1064491Y159579D01*
X1064648Y159558D01*
X1064807Y159540D01*
X1064965Y159527D01*
X1065125Y159517D01*
X1065284Y159511D01*
X1065443Y159509D01*
X1071934Y159509D01*
X1064145Y159509D02*
X1058952Y149123D01*
X1050399Y149123D02*
X1040013Y149123D01*
X1050399Y149123D02*
X1050399Y172491D01*
X1040013Y172491D01*
X1042609Y162106D02*
X1050399Y162106D01*
X1034135Y172491D02*
X1028942Y149123D01*
X1023749Y164702D01*
X1018556Y149123D01*
X1013363Y172491D01*
X994291Y154316D02*
X994293Y154173D01*
X994299Y154030D01*
X994309Y153887D01*
X994323Y153745D01*
X994340Y153603D01*
X994362Y153461D01*
X994387Y153320D01*
X994417Y153180D01*
X994450Y153041D01*
X994487Y152903D01*
X994528Y152766D01*
X994572Y152630D01*
X994621Y152495D01*
X994673Y152362D01*
X994728Y152230D01*
X994788Y152100D01*
X994851Y151971D01*
X994917Y151844D01*
X994987Y151719D01*
X995060Y151597D01*
X995137Y151476D01*
X995217Y151357D01*
X995300Y151241D01*
X995386Y151126D01*
X995475Y151015D01*
X995568Y150905D01*
X995663Y150799D01*
X995762Y150695D01*
X995863Y150594D01*
X995967Y150495D01*
X996073Y150400D01*
X996183Y150307D01*
X996294Y150218D01*
X996409Y150132D01*
X996525Y150048D01*
X996644Y149969D01*
X996765Y149892D01*
X996888Y149819D01*
X997012Y149749D01*
X997139Y149683D01*
X997268Y149620D01*
X997398Y149560D01*
X997530Y149505D01*
X997663Y149453D01*
X997798Y149404D01*
X997934Y149360D01*
X998071Y149319D01*
X998209Y149282D01*
X998348Y149249D01*
X998488Y149219D01*
X998629Y149194D01*
X998771Y149172D01*
X998913Y149155D01*
X999055Y149141D01*
X999198Y149131D01*
X999341Y149125D01*
X999484Y149123D01*
X999484Y149124D02*
X999747Y149127D01*
X1000009Y149137D01*
X1000271Y149152D01*
X1000532Y149174D01*
X1000793Y149202D01*
X1001053Y149237D01*
X1001313Y149278D01*
X1001571Y149324D01*
X1001828Y149377D01*
X1002084Y149437D01*
X1002338Y149502D01*
X1002591Y149573D01*
X1002841Y149650D01*
X1003090Y149734D01*
X1003337Y149823D01*
X1003582Y149918D01*
X1003824Y150019D01*
X1004064Y150126D01*
X1004301Y150238D01*
X1004535Y150356D01*
X1004767Y150480D01*
X1004995Y150609D01*
X1005221Y150744D01*
X1005443Y150884D01*
X1005661Y151029D01*
X1005877Y151179D01*
X1006088Y151335D01*
X1006296Y151495D01*
X1006499Y151661D01*
X1006699Y151831D01*
X1006895Y152006D01*
X1007086Y152185D01*
X1007273Y152369D01*
X1006624Y167299D02*
X1006622Y167442D01*
X1006616Y167585D01*
X1006606Y167728D01*
X1006592Y167870D01*
X1006575Y168012D01*
X1006553Y168154D01*
X1006528Y168295D01*
X1006498Y168435D01*
X1006465Y168574D01*
X1006428Y168712D01*
X1006387Y168849D01*
X1006343Y168985D01*
X1006294Y169120D01*
X1006242Y169253D01*
X1006187Y169385D01*
X1006127Y169515D01*
X1006064Y169644D01*
X1005998Y169771D01*
X1005928Y169896D01*
X1005855Y170018D01*
X1005778Y170139D01*
X1005698Y170258D01*
X1005615Y170374D01*
X1005529Y170489D01*
X1005440Y170600D01*
X1005347Y170710D01*
X1005252Y170816D01*
X1005153Y170920D01*
X1005052Y171021D01*
X1004948Y171120D01*
X1004842Y171215D01*
X1004732Y171308D01*
X1004621Y171397D01*
X1004506Y171483D01*
X1004390Y171566D01*
X1004271Y171646D01*
X1004150Y171723D01*
X1004028Y171796D01*
X1003903Y171866D01*
X1003776Y171932D01*
X1003647Y171995D01*
X1003517Y172055D01*
X1003385Y172110D01*
X1003252Y172162D01*
X1003117Y172211D01*
X1002981Y172255D01*
X1002844Y172296D01*
X1002706Y172333D01*
X1002567Y172366D01*
X1002427Y172396D01*
X1002286Y172421D01*
X1002144Y172443D01*
X1002002Y172460D01*
X1001860Y172474D01*
X1001717Y172484D01*
X1001574Y172490D01*
X1001431Y172492D01*
X1001199Y172489D01*
X1000967Y172481D01*
X1000735Y172467D01*
X1000504Y172448D01*
X1000273Y172423D01*
X1000043Y172393D01*
X999814Y172357D01*
X999586Y172316D01*
X999358Y172269D01*
X999132Y172217D01*
X998907Y172159D01*
X998684Y172096D01*
X998462Y172028D01*
X998242Y171955D01*
X998024Y171876D01*
X997807Y171793D01*
X997593Y171704D01*
X997381Y171610D01*
X997171Y171511D01*
X996963Y171407D01*
X996759Y171298D01*
X996556Y171184D01*
X996357Y171065D01*
X996160Y170942D01*
X995967Y170814D01*
X995776Y170682D01*
X995589Y170545D01*
X1004028Y162755D02*
X1004151Y162830D01*
X1004272Y162908D01*
X1004391Y162990D01*
X1004507Y163074D01*
X1004621Y163162D01*
X1004733Y163253D01*
X1004843Y163347D01*
X1004949Y163444D01*
X1005053Y163544D01*
X1005154Y163646D01*
X1005253Y163752D01*
X1005348Y163860D01*
X1005441Y163970D01*
X1005530Y164083D01*
X1005616Y164199D01*
X1005700Y164316D01*
X1005779Y164436D01*
X1005856Y164558D01*
X1005929Y164682D01*
X1005999Y164808D01*
X1006065Y164936D01*
X1006128Y165066D01*
X1006187Y165197D01*
X1006243Y165330D01*
X1006295Y165465D01*
X1006343Y165601D01*
X1006388Y165738D01*
X1006428Y165876D01*
X1006465Y166015D01*
X1006499Y166155D01*
X1006528Y166296D01*
X1006553Y166438D01*
X1006575Y166581D01*
X1006593Y166724D01*
X1006606Y166867D01*
X1006616Y167011D01*
X1006622Y167155D01*
X1006624Y167299D01*
X996887Y158860D02*
X996764Y158785D01*
X996643Y158707D01*
X996524Y158625D01*
X996408Y158541D01*
X996294Y158453D01*
X996182Y158362D01*
X996073Y158268D01*
X995966Y158171D01*
X995862Y158071D01*
X995761Y157969D01*
X995662Y157863D01*
X995567Y157755D01*
X995474Y157645D01*
X995385Y157532D01*
X995299Y157417D01*
X995216Y157299D01*
X995136Y157179D01*
X995059Y157057D01*
X994986Y156933D01*
X994916Y156807D01*
X994850Y156679D01*
X994787Y156549D01*
X994728Y156418D01*
X994672Y156285D01*
X994620Y156150D01*
X994572Y156014D01*
X994527Y155877D01*
X994487Y155739D01*
X994450Y155600D01*
X994417Y155460D01*
X994387Y155319D01*
X994362Y155177D01*
X994340Y155034D01*
X994322Y154891D01*
X994309Y154748D01*
X994299Y154604D01*
X994293Y154460D01*
X994291Y154316D01*
X996888Y158860D02*
X1004028Y162755D01*
X981991Y172491D02*
X981991Y149123D01*
X975500Y172491D02*
X988483Y172491D01*
X968275Y149123D02*
X957890Y149123D01*
X968275Y149123D02*
X968275Y172491D01*
X957890Y172491D01*
X960486Y162106D02*
X968275Y162106D01*
X950141Y172491D02*
X950141Y149123D01*
X950141Y172491D02*
X943650Y172491D01*
X943491Y172489D01*
X943332Y172483D01*
X943172Y172473D01*
X943014Y172460D01*
X942855Y172442D01*
X942698Y172421D01*
X942540Y172395D01*
X942384Y172366D01*
X942228Y172333D01*
X942073Y172296D01*
X941919Y172256D01*
X941766Y172211D01*
X941614Y172163D01*
X941463Y172112D01*
X941314Y172056D01*
X941166Y171997D01*
X941020Y171934D01*
X940875Y171868D01*
X940732Y171798D01*
X940590Y171725D01*
X940451Y171648D01*
X940313Y171568D01*
X940177Y171484D01*
X940044Y171397D01*
X939912Y171307D01*
X939783Y171214D01*
X939657Y171117D01*
X939532Y171018D01*
X939410Y170915D01*
X939291Y170810D01*
X939174Y170701D01*
X939060Y170590D01*
X938949Y170476D01*
X938840Y170359D01*
X938735Y170240D01*
X938632Y170118D01*
X938533Y169993D01*
X938436Y169867D01*
X938343Y169738D01*
X938253Y169606D01*
X938166Y169473D01*
X938082Y169337D01*
X938002Y169199D01*
X937925Y169060D01*
X937852Y168918D01*
X937782Y168775D01*
X937716Y168630D01*
X937653Y168484D01*
X937594Y168336D01*
X937538Y168187D01*
X937487Y168036D01*
X937439Y167884D01*
X937394Y167731D01*
X937354Y167577D01*
X937317Y167422D01*
X937284Y167266D01*
X937255Y167110D01*
X937229Y166952D01*
X937208Y166795D01*
X937190Y166636D01*
X937177Y166478D01*
X937167Y166318D01*
X937161Y166159D01*
X937159Y166000D01*
X937161Y165841D01*
X937167Y165682D01*
X937177Y165522D01*
X937190Y165364D01*
X937208Y165205D01*
X937229Y165048D01*
X937255Y164890D01*
X937284Y164734D01*
X937317Y164578D01*
X937354Y164423D01*
X937394Y164269D01*
X937439Y164116D01*
X937487Y163964D01*
X937538Y163813D01*
X937594Y163664D01*
X937653Y163516D01*
X937716Y163370D01*
X937782Y163225D01*
X937852Y163082D01*
X937925Y162940D01*
X938002Y162801D01*
X938082Y162663D01*
X938166Y162527D01*
X938253Y162394D01*
X938343Y162262D01*
X938436Y162133D01*
X938533Y162007D01*
X938632Y161882D01*
X938735Y161760D01*
X938840Y161641D01*
X938949Y161524D01*
X939060Y161410D01*
X939174Y161299D01*
X939291Y161190D01*
X939410Y161085D01*
X939532Y160982D01*
X939657Y160883D01*
X939783Y160786D01*
X939912Y160693D01*
X940044Y160603D01*
X940177Y160516D01*
X940313Y160432D01*
X940451Y160352D01*
X940590Y160275D01*
X940732Y160202D01*
X940875Y160132D01*
X941020Y160066D01*
X941166Y160003D01*
X941314Y159944D01*
X941463Y159888D01*
X941614Y159837D01*
X941766Y159789D01*
X941919Y159744D01*
X942073Y159704D01*
X942228Y159667D01*
X942384Y159634D01*
X942540Y159605D01*
X942698Y159579D01*
X942855Y159558D01*
X943014Y159540D01*
X943172Y159527D01*
X943332Y159517D01*
X943491Y159511D01*
X943650Y159509D01*
X950141Y159509D01*
X942352Y159509D02*
X937159Y149123D01*
X917750Y160807D02*
X917744Y161342D01*
X917724Y161876D01*
X917692Y162410D01*
X917647Y162943D01*
X917589Y163474D01*
X917519Y164004D01*
X917436Y164533D01*
X917340Y165059D01*
X917231Y165582D01*
X917110Y166103D01*
X916976Y166621D01*
X916830Y167135D01*
X916672Y167646D01*
X916501Y168153D01*
X916319Y168655D01*
X916124Y169153D01*
X915917Y169647D01*
X915699Y170135D01*
X915468Y170617D01*
X915227Y171094D01*
X914974Y171565D01*
X914709Y172030D01*
X914434Y172488D01*
X914147Y172940D01*
X913850Y173384D01*
X913542Y173822D01*
X913224Y174251D01*
X912896Y174673D01*
X912557Y175087D01*
X917750Y160807D02*
X917744Y160272D01*
X917724Y159738D01*
X917692Y159204D01*
X917647Y158671D01*
X917589Y158140D01*
X917519Y157610D01*
X917436Y157081D01*
X917340Y156555D01*
X917231Y156032D01*
X917110Y155511D01*
X916976Y154993D01*
X916830Y154479D01*
X916672Y153968D01*
X916501Y153461D01*
X916319Y152959D01*
X916124Y152461D01*
X915917Y151967D01*
X915699Y151479D01*
X915468Y150997D01*
X915227Y150520D01*
X914974Y150049D01*
X914709Y149584D01*
X914434Y149126D01*
X914147Y148674D01*
X913850Y148230D01*
X913542Y147792D01*
X913224Y147363D01*
X912896Y146941D01*
X912557Y146527D01*
X904178Y149123D02*
X904178Y172491D01*
X896389Y159509D01*
X888599Y172491D01*
X888599Y149123D01*
X877598Y149123D02*
X877598Y172491D01*
X880194Y149123D02*
X875001Y149123D01*
X875001Y172491D02*
X880194Y172491D01*
X862287Y172491D02*
X862287Y149123D01*
X868778Y172491D02*
X855796Y172491D01*
X837435Y172491D02*
X837435Y149123D01*
X827050Y149123D01*
X817745Y149123D02*
X817745Y172491D01*
X820342Y149123D02*
X815149Y149123D01*
X815149Y172491D02*
X820342Y172491D01*
X802364Y149123D02*
X797171Y149123D01*
X802364Y149123D02*
X802507Y149125D01*
X802650Y149131D01*
X802793Y149141D01*
X802935Y149155D01*
X803077Y149172D01*
X803219Y149194D01*
X803360Y149219D01*
X803500Y149249D01*
X803639Y149282D01*
X803777Y149319D01*
X803914Y149360D01*
X804050Y149404D01*
X804185Y149453D01*
X804318Y149505D01*
X804450Y149560D01*
X804580Y149620D01*
X804709Y149683D01*
X804836Y149749D01*
X804961Y149819D01*
X805083Y149892D01*
X805204Y149969D01*
X805323Y150049D01*
X805439Y150132D01*
X805554Y150218D01*
X805665Y150307D01*
X805775Y150400D01*
X805881Y150495D01*
X805985Y150594D01*
X806086Y150695D01*
X806185Y150799D01*
X806280Y150905D01*
X806373Y151015D01*
X806462Y151126D01*
X806548Y151241D01*
X806631Y151357D01*
X806711Y151476D01*
X806788Y151597D01*
X806861Y151719D01*
X806931Y151844D01*
X806997Y151971D01*
X807060Y152100D01*
X807120Y152230D01*
X807175Y152362D01*
X807227Y152495D01*
X807276Y152630D01*
X807320Y152766D01*
X807361Y152903D01*
X807398Y153041D01*
X807431Y153180D01*
X807461Y153320D01*
X807486Y153461D01*
X807508Y153603D01*
X807525Y153745D01*
X807539Y153887D01*
X807549Y154030D01*
X807555Y154173D01*
X807557Y154316D01*
X807557Y167299D01*
X807555Y167442D01*
X807549Y167585D01*
X807539Y167728D01*
X807525Y167870D01*
X807508Y168012D01*
X807486Y168154D01*
X807461Y168295D01*
X807431Y168435D01*
X807398Y168574D01*
X807361Y168712D01*
X807320Y168849D01*
X807276Y168985D01*
X807227Y169120D01*
X807175Y169253D01*
X807120Y169385D01*
X807060Y169515D01*
X806997Y169644D01*
X806931Y169771D01*
X806861Y169896D01*
X806788Y170018D01*
X806711Y170139D01*
X806631Y170258D01*
X806548Y170374D01*
X806462Y170489D01*
X806373Y170600D01*
X806280Y170710D01*
X806185Y170816D01*
X806086Y170920D01*
X805985Y171021D01*
X805881Y171120D01*
X805775Y171215D01*
X805665Y171308D01*
X805554Y171397D01*
X805439Y171483D01*
X805323Y171566D01*
X805204Y171646D01*
X805083Y171723D01*
X804961Y171796D01*
X804836Y171866D01*
X804709Y171932D01*
X804580Y171995D01*
X804450Y172055D01*
X804318Y172110D01*
X804185Y172162D01*
X804050Y172211D01*
X803914Y172255D01*
X803777Y172296D01*
X803639Y172333D01*
X803500Y172366D01*
X803360Y172396D01*
X803219Y172421D01*
X803077Y172443D01*
X802935Y172460D01*
X802793Y172474D01*
X802650Y172484D01*
X802507Y172490D01*
X802364Y172492D01*
X802364Y172491D02*
X797171Y172491D01*
X789414Y149123D02*
X779028Y149123D01*
X789414Y149123D02*
X789414Y172491D01*
X779028Y172491D01*
X781625Y162106D02*
X789414Y162106D01*
X771344Y172491D02*
X771344Y149123D01*
X758361Y149123D02*
X771344Y172491D01*
X758361Y172491D02*
X758361Y149123D01*
X742675Y149123D02*
X742532Y149125D01*
X742389Y149131D01*
X742246Y149141D01*
X742104Y149155D01*
X741962Y149172D01*
X741820Y149194D01*
X741679Y149219D01*
X741539Y149249D01*
X741400Y149282D01*
X741262Y149319D01*
X741125Y149360D01*
X740989Y149404D01*
X740854Y149453D01*
X740721Y149505D01*
X740589Y149560D01*
X740459Y149620D01*
X740330Y149683D01*
X740203Y149749D01*
X740079Y149819D01*
X739956Y149892D01*
X739835Y149969D01*
X739716Y150048D01*
X739600Y150132D01*
X739485Y150218D01*
X739374Y150307D01*
X739264Y150400D01*
X739158Y150495D01*
X739054Y150594D01*
X738953Y150695D01*
X738854Y150799D01*
X738759Y150905D01*
X738666Y151015D01*
X738577Y151126D01*
X738491Y151241D01*
X738408Y151357D01*
X738328Y151476D01*
X738251Y151597D01*
X738178Y151719D01*
X738108Y151844D01*
X738042Y151971D01*
X737979Y152100D01*
X737919Y152230D01*
X737864Y152362D01*
X737812Y152495D01*
X737763Y152630D01*
X737719Y152766D01*
X737678Y152903D01*
X737641Y153041D01*
X737608Y153180D01*
X737578Y153320D01*
X737553Y153461D01*
X737531Y153603D01*
X737514Y153745D01*
X737500Y153887D01*
X737490Y154030D01*
X737484Y154173D01*
X737482Y154316D01*
X742675Y149124D02*
X742938Y149127D01*
X743200Y149137D01*
X743462Y149152D01*
X743723Y149174D01*
X743984Y149202D01*
X744244Y149237D01*
X744504Y149278D01*
X744762Y149324D01*
X745019Y149377D01*
X745275Y149437D01*
X745529Y149502D01*
X745782Y149573D01*
X746032Y149650D01*
X746281Y149734D01*
X746528Y149823D01*
X746773Y149918D01*
X747015Y150019D01*
X747255Y150126D01*
X747492Y150238D01*
X747726Y150356D01*
X747958Y150480D01*
X748186Y150609D01*
X748412Y150744D01*
X748634Y150884D01*
X748852Y151029D01*
X749068Y151179D01*
X749279Y151335D01*
X749487Y151495D01*
X749690Y151661D01*
X749890Y151831D01*
X750086Y152006D01*
X750277Y152185D01*
X750464Y152369D01*
X749816Y167299D02*
X749814Y167442D01*
X749808Y167585D01*
X749798Y167728D01*
X749784Y167870D01*
X749767Y168012D01*
X749745Y168154D01*
X749720Y168295D01*
X749690Y168435D01*
X749657Y168574D01*
X749620Y168712D01*
X749579Y168849D01*
X749535Y168985D01*
X749486Y169120D01*
X749434Y169253D01*
X749379Y169385D01*
X749319Y169515D01*
X749256Y169644D01*
X749190Y169771D01*
X749120Y169896D01*
X749047Y170018D01*
X748970Y170139D01*
X748890Y170258D01*
X748807Y170374D01*
X748721Y170489D01*
X748632Y170600D01*
X748539Y170710D01*
X748444Y170816D01*
X748345Y170920D01*
X748244Y171021D01*
X748140Y171120D01*
X748034Y171215D01*
X747924Y171308D01*
X747813Y171397D01*
X747698Y171483D01*
X747582Y171566D01*
X747463Y171646D01*
X747342Y171723D01*
X747220Y171796D01*
X747095Y171866D01*
X746968Y171932D01*
X746839Y171995D01*
X746709Y172055D01*
X746577Y172110D01*
X746444Y172162D01*
X746309Y172211D01*
X746173Y172255D01*
X746036Y172296D01*
X745898Y172333D01*
X745759Y172366D01*
X745619Y172396D01*
X745478Y172421D01*
X745336Y172443D01*
X745194Y172460D01*
X745052Y172474D01*
X744909Y172484D01*
X744766Y172490D01*
X744623Y172492D01*
X744391Y172489D01*
X744159Y172481D01*
X743927Y172467D01*
X743696Y172448D01*
X743465Y172423D01*
X743235Y172393D01*
X743006Y172357D01*
X742778Y172316D01*
X742550Y172269D01*
X742324Y172217D01*
X742099Y172159D01*
X741876Y172096D01*
X741654Y172028D01*
X741434Y171955D01*
X741216Y171876D01*
X740999Y171793D01*
X740785Y171704D01*
X740573Y171610D01*
X740363Y171511D01*
X740155Y171407D01*
X739951Y171298D01*
X739748Y171184D01*
X739549Y171065D01*
X739352Y170942D01*
X739159Y170814D01*
X738968Y170682D01*
X738781Y170545D01*
X747220Y162755D02*
X747343Y162830D01*
X747464Y162908D01*
X747583Y162990D01*
X747699Y163074D01*
X747813Y163162D01*
X747925Y163253D01*
X748035Y163347D01*
X748141Y163444D01*
X748245Y163544D01*
X748346Y163646D01*
X748445Y163752D01*
X748540Y163860D01*
X748633Y163970D01*
X748722Y164083D01*
X748808Y164199D01*
X748892Y164316D01*
X748971Y164436D01*
X749048Y164558D01*
X749121Y164682D01*
X749191Y164808D01*
X749257Y164936D01*
X749320Y165066D01*
X749379Y165197D01*
X749435Y165330D01*
X749487Y165465D01*
X749535Y165601D01*
X749580Y165738D01*
X749620Y165876D01*
X749657Y166015D01*
X749691Y166155D01*
X749720Y166296D01*
X749745Y166438D01*
X749767Y166581D01*
X749785Y166724D01*
X749798Y166867D01*
X749808Y167011D01*
X749814Y167155D01*
X749816Y167299D01*
X740079Y158860D02*
X739956Y158785D01*
X739835Y158707D01*
X739716Y158625D01*
X739600Y158541D01*
X739486Y158453D01*
X739374Y158362D01*
X739265Y158268D01*
X739158Y158171D01*
X739054Y158071D01*
X738953Y157969D01*
X738854Y157863D01*
X738759Y157755D01*
X738666Y157645D01*
X738577Y157532D01*
X738491Y157417D01*
X738408Y157299D01*
X738328Y157179D01*
X738251Y157057D01*
X738178Y156933D01*
X738108Y156807D01*
X738042Y156679D01*
X737979Y156549D01*
X737920Y156418D01*
X737864Y156285D01*
X737812Y156150D01*
X737764Y156014D01*
X737719Y155877D01*
X737679Y155739D01*
X737642Y155600D01*
X737609Y155460D01*
X737579Y155319D01*
X737554Y155177D01*
X737532Y155034D01*
X737514Y154891D01*
X737501Y154748D01*
X737491Y154604D01*
X737485Y154460D01*
X737483Y154316D01*
X740079Y158860D02*
X747219Y162755D01*
X729562Y149123D02*
X719176Y149123D01*
X729562Y149123D02*
X729562Y172491D01*
X719176Y172491D01*
X721772Y162106D02*
X729562Y162106D01*
X707301Y160807D02*
X707307Y160272D01*
X707327Y159738D01*
X707359Y159204D01*
X707404Y158671D01*
X707462Y158140D01*
X707532Y157610D01*
X707615Y157081D01*
X707711Y156555D01*
X707820Y156032D01*
X707941Y155511D01*
X708075Y154993D01*
X708221Y154479D01*
X708379Y153968D01*
X708550Y153461D01*
X708732Y152959D01*
X708927Y152461D01*
X709134Y151967D01*
X709352Y151479D01*
X709583Y150997D01*
X709824Y150520D01*
X710077Y150049D01*
X710342Y149584D01*
X710617Y149126D01*
X710904Y148674D01*
X711201Y148230D01*
X711509Y147792D01*
X711827Y147363D01*
X712155Y146941D01*
X712494Y146527D01*
X707301Y160807D02*
X707307Y161342D01*
X707327Y161876D01*
X707359Y162410D01*
X707404Y162943D01*
X707462Y163474D01*
X707532Y164004D01*
X707615Y164533D01*
X707711Y165059D01*
X707820Y165582D01*
X707941Y166103D01*
X708075Y166621D01*
X708221Y167135D01*
X708379Y167646D01*
X708550Y168153D01*
X708732Y168655D01*
X708927Y169153D01*
X709134Y169647D01*
X709352Y170135D01*
X709583Y170617D01*
X709824Y171094D01*
X710077Y171565D01*
X710342Y172030D01*
X710617Y172488D01*
X710904Y172940D01*
X711201Y173384D01*
X711509Y173822D01*
X711827Y174251D01*
X712155Y174673D01*
X712494Y175087D01*
D11*
X221807Y294510D02*
X221807Y295696D01*
X217856Y295696D01*
X217856Y293325D01*
X217858Y293247D01*
X217864Y293170D01*
X217873Y293093D01*
X217886Y293017D01*
X217903Y292941D01*
X217924Y292866D01*
X217948Y292793D01*
X217976Y292720D01*
X218008Y292649D01*
X218043Y292580D01*
X218081Y292513D01*
X218122Y292447D01*
X218167Y292384D01*
X218215Y292323D01*
X218265Y292264D01*
X218319Y292208D01*
X218375Y292154D01*
X218434Y292104D01*
X218495Y292056D01*
X218558Y292011D01*
X218624Y291970D01*
X218691Y291932D01*
X218760Y291897D01*
X218831Y291865D01*
X218904Y291837D01*
X218977Y291813D01*
X219052Y291792D01*
X219128Y291775D01*
X219204Y291762D01*
X219281Y291753D01*
X219358Y291747D01*
X219436Y291745D01*
X219436Y291744D02*
X223387Y291744D01*
X223387Y291745D02*
X223465Y291747D01*
X223542Y291753D01*
X223619Y291762D01*
X223695Y291775D01*
X223771Y291792D01*
X223846Y291813D01*
X223919Y291837D01*
X223992Y291865D01*
X224063Y291897D01*
X224132Y291932D01*
X224199Y291970D01*
X224265Y292011D01*
X224328Y292056D01*
X224389Y292104D01*
X224448Y292154D01*
X224504Y292208D01*
X224558Y292264D01*
X224608Y292323D01*
X224656Y292384D01*
X224701Y292447D01*
X224742Y292513D01*
X224780Y292580D01*
X224815Y292649D01*
X224847Y292720D01*
X224875Y292793D01*
X224899Y292866D01*
X224920Y292941D01*
X224937Y293017D01*
X224950Y293093D01*
X224959Y293170D01*
X224965Y293247D01*
X224967Y293325D01*
X224968Y293325D02*
X224968Y295696D01*
X224968Y299060D02*
X217856Y299060D01*
X217856Y303011D02*
X224968Y299060D01*
X224968Y303011D02*
X217856Y303011D01*
X217856Y306375D02*
X224968Y306375D01*
X224968Y308350D01*
X224966Y308436D01*
X224960Y308522D01*
X224951Y308608D01*
X224938Y308693D01*
X224921Y308778D01*
X224901Y308861D01*
X224877Y308944D01*
X224849Y309026D01*
X224818Y309106D01*
X224783Y309185D01*
X224745Y309262D01*
X224703Y309338D01*
X224659Y309412D01*
X224611Y309483D01*
X224560Y309553D01*
X224506Y309620D01*
X224449Y309685D01*
X224389Y309747D01*
X224327Y309807D01*
X224262Y309864D01*
X224195Y309918D01*
X224125Y309969D01*
X224054Y310017D01*
X223980Y310061D01*
X223904Y310103D01*
X223827Y310141D01*
X223748Y310176D01*
X223668Y310207D01*
X223586Y310235D01*
X223503Y310259D01*
X223420Y310279D01*
X223335Y310296D01*
X223250Y310309D01*
X223164Y310318D01*
X223078Y310324D01*
X222992Y310326D01*
X219831Y310326D01*
X219745Y310324D01*
X219659Y310318D01*
X219573Y310309D01*
X219488Y310296D01*
X219403Y310279D01*
X219320Y310259D01*
X219237Y310235D01*
X219155Y310207D01*
X219075Y310176D01*
X218996Y310141D01*
X218919Y310103D01*
X218843Y310061D01*
X218769Y310017D01*
X218698Y309969D01*
X218628Y309918D01*
X218561Y309864D01*
X218496Y309807D01*
X218434Y309747D01*
X218374Y309685D01*
X218317Y309620D01*
X218263Y309553D01*
X218212Y309483D01*
X218164Y309412D01*
X218120Y309338D01*
X218078Y309262D01*
X218040Y309185D01*
X218005Y309106D01*
X217974Y309026D01*
X217946Y308944D01*
X217922Y308861D01*
X217902Y308778D01*
X217885Y308693D01*
X217872Y308608D01*
X217863Y308522D01*
X217857Y308436D01*
X217855Y308350D01*
X217856Y308350D02*
X217856Y306375D01*
X220850Y275836D02*
X220850Y271094D01*
X218480Y273465D02*
X223221Y273465D01*
X225196Y278409D02*
X218084Y280780D01*
X225196Y283151D01*
X225298Y240242D02*
X218186Y237871D01*
X218186Y242612D02*
X225298Y240242D01*
X219964Y242020D02*
X219964Y238464D01*
X220162Y245124D02*
X223322Y245124D01*
X223409Y245126D01*
X223497Y245132D01*
X223584Y245141D01*
X223670Y245155D01*
X223756Y245172D01*
X223840Y245193D01*
X223924Y245218D01*
X224007Y245247D01*
X224088Y245279D01*
X224168Y245314D01*
X224246Y245353D01*
X224323Y245396D01*
X224397Y245442D01*
X224469Y245491D01*
X224539Y245543D01*
X224607Y245599D01*
X224672Y245657D01*
X224735Y245718D01*
X224794Y245782D01*
X224851Y245849D01*
X224905Y245917D01*
X224956Y245989D01*
X225003Y246062D01*
X225048Y246137D01*
X225089Y246215D01*
X225126Y246294D01*
X225160Y246374D01*
X225190Y246456D01*
X225217Y246539D01*
X225240Y246624D01*
X225259Y246709D01*
X225274Y246795D01*
X225286Y246882D01*
X225294Y246969D01*
X225298Y247056D01*
X225298Y247144D01*
X225294Y247231D01*
X225286Y247318D01*
X225274Y247405D01*
X225259Y247491D01*
X225240Y247576D01*
X225217Y247661D01*
X225190Y247744D01*
X225160Y247826D01*
X225126Y247906D01*
X225089Y247985D01*
X225048Y248063D01*
X225003Y248138D01*
X224956Y248211D01*
X224905Y248283D01*
X224851Y248351D01*
X224794Y248418D01*
X224735Y248482D01*
X224672Y248543D01*
X224607Y248601D01*
X224539Y248657D01*
X224469Y248709D01*
X224397Y248758D01*
X224323Y248804D01*
X224246Y248847D01*
X224168Y248886D01*
X224088Y248921D01*
X224007Y248953D01*
X223924Y248982D01*
X223840Y249007D01*
X223756Y249028D01*
X223670Y249045D01*
X223584Y249059D01*
X223497Y249068D01*
X223409Y249074D01*
X223322Y249076D01*
X223322Y249075D02*
X220162Y249075D01*
X220162Y249076D02*
X220075Y249074D01*
X219987Y249068D01*
X219900Y249059D01*
X219814Y249045D01*
X219728Y249028D01*
X219644Y249007D01*
X219560Y248982D01*
X219477Y248953D01*
X219396Y248921D01*
X219316Y248886D01*
X219238Y248847D01*
X219161Y248804D01*
X219087Y248758D01*
X219015Y248709D01*
X218945Y248657D01*
X218877Y248601D01*
X218812Y248543D01*
X218749Y248482D01*
X218690Y248418D01*
X218633Y248351D01*
X218579Y248283D01*
X218528Y248211D01*
X218481Y248138D01*
X218436Y248063D01*
X218395Y247985D01*
X218358Y247906D01*
X218324Y247826D01*
X218294Y247744D01*
X218267Y247661D01*
X218244Y247576D01*
X218225Y247491D01*
X218210Y247405D01*
X218198Y247318D01*
X218190Y247231D01*
X218186Y247144D01*
X218186Y247056D01*
X218190Y246969D01*
X218198Y246882D01*
X218210Y246795D01*
X218225Y246709D01*
X218244Y246624D01*
X218267Y246539D01*
X218294Y246456D01*
X218324Y246374D01*
X218358Y246294D01*
X218395Y246215D01*
X218436Y246137D01*
X218481Y246062D01*
X218528Y245989D01*
X218579Y245917D01*
X218633Y245849D01*
X218690Y245782D01*
X218749Y245718D01*
X218812Y245657D01*
X218877Y245599D01*
X218945Y245543D01*
X219015Y245491D01*
X219087Y245442D01*
X219161Y245396D01*
X219238Y245353D01*
X219316Y245314D01*
X219396Y245279D01*
X219477Y245247D01*
X219560Y245218D01*
X219644Y245193D01*
X219728Y245172D01*
X219814Y245155D01*
X219900Y245141D01*
X219987Y245132D01*
X220075Y245126D01*
X220162Y245124D01*
X220162Y252211D02*
X225298Y252211D01*
X220162Y252210D02*
X220075Y252212D01*
X219987Y252218D01*
X219900Y252227D01*
X219814Y252241D01*
X219728Y252258D01*
X219644Y252279D01*
X219560Y252304D01*
X219477Y252333D01*
X219396Y252365D01*
X219316Y252400D01*
X219238Y252439D01*
X219161Y252482D01*
X219087Y252528D01*
X219015Y252577D01*
X218945Y252629D01*
X218877Y252685D01*
X218812Y252743D01*
X218749Y252804D01*
X218690Y252868D01*
X218633Y252935D01*
X218579Y253003D01*
X218528Y253075D01*
X218481Y253148D01*
X218436Y253223D01*
X218395Y253301D01*
X218358Y253380D01*
X218324Y253460D01*
X218294Y253542D01*
X218267Y253625D01*
X218244Y253710D01*
X218225Y253795D01*
X218210Y253881D01*
X218198Y253968D01*
X218190Y254055D01*
X218186Y254142D01*
X218186Y254230D01*
X218190Y254317D01*
X218198Y254404D01*
X218210Y254491D01*
X218225Y254577D01*
X218244Y254662D01*
X218267Y254747D01*
X218294Y254830D01*
X218324Y254912D01*
X218358Y254992D01*
X218395Y255071D01*
X218436Y255149D01*
X218481Y255224D01*
X218528Y255297D01*
X218579Y255369D01*
X218633Y255437D01*
X218690Y255504D01*
X218749Y255568D01*
X218812Y255629D01*
X218877Y255687D01*
X218945Y255743D01*
X219015Y255795D01*
X219087Y255844D01*
X219161Y255890D01*
X219238Y255933D01*
X219316Y255972D01*
X219396Y256007D01*
X219477Y256039D01*
X219560Y256068D01*
X219644Y256093D01*
X219728Y256114D01*
X219814Y256131D01*
X219900Y256145D01*
X219987Y256154D01*
X220075Y256160D01*
X220162Y256162D01*
X225298Y256162D01*
X225298Y260816D02*
X218186Y260816D01*
X225298Y258840D02*
X225298Y262791D01*
X407735Y295018D02*
X407735Y296204D01*
X403784Y296204D01*
X403784Y293833D01*
X403786Y293755D01*
X403792Y293678D01*
X403801Y293601D01*
X403814Y293525D01*
X403831Y293449D01*
X403852Y293374D01*
X403876Y293301D01*
X403904Y293228D01*
X403936Y293157D01*
X403971Y293088D01*
X404009Y293021D01*
X404050Y292955D01*
X404095Y292892D01*
X404143Y292831D01*
X404193Y292772D01*
X404247Y292716D01*
X404303Y292662D01*
X404362Y292612D01*
X404423Y292564D01*
X404486Y292519D01*
X404552Y292478D01*
X404619Y292440D01*
X404688Y292405D01*
X404759Y292373D01*
X404832Y292345D01*
X404905Y292321D01*
X404980Y292300D01*
X405056Y292283D01*
X405132Y292270D01*
X405209Y292261D01*
X405286Y292255D01*
X405364Y292253D01*
X405364Y292252D02*
X409315Y292252D01*
X409315Y292253D02*
X409393Y292255D01*
X409470Y292261D01*
X409547Y292270D01*
X409623Y292283D01*
X409699Y292300D01*
X409774Y292321D01*
X409847Y292345D01*
X409920Y292373D01*
X409991Y292405D01*
X410060Y292440D01*
X410127Y292478D01*
X410193Y292519D01*
X410256Y292564D01*
X410317Y292612D01*
X410376Y292662D01*
X410432Y292716D01*
X410486Y292772D01*
X410536Y292831D01*
X410584Y292892D01*
X410629Y292955D01*
X410670Y293021D01*
X410708Y293088D01*
X410743Y293157D01*
X410775Y293228D01*
X410803Y293301D01*
X410827Y293374D01*
X410848Y293449D01*
X410865Y293525D01*
X410878Y293601D01*
X410887Y293678D01*
X410893Y293755D01*
X410895Y293833D01*
X410896Y293833D02*
X410896Y296204D01*
X410896Y299568D02*
X403784Y299568D01*
X403784Y303519D02*
X410896Y299568D01*
X410896Y303519D02*
X403784Y303519D01*
X403784Y306883D02*
X410896Y306883D01*
X410896Y308858D01*
X410894Y308944D01*
X410888Y309030D01*
X410879Y309116D01*
X410866Y309201D01*
X410849Y309286D01*
X410829Y309369D01*
X410805Y309452D01*
X410777Y309534D01*
X410746Y309614D01*
X410711Y309693D01*
X410673Y309770D01*
X410631Y309846D01*
X410587Y309920D01*
X410539Y309991D01*
X410488Y310061D01*
X410434Y310128D01*
X410377Y310193D01*
X410317Y310255D01*
X410255Y310315D01*
X410190Y310372D01*
X410123Y310426D01*
X410053Y310477D01*
X409982Y310525D01*
X409908Y310569D01*
X409832Y310611D01*
X409755Y310649D01*
X409676Y310684D01*
X409596Y310715D01*
X409514Y310743D01*
X409431Y310767D01*
X409348Y310787D01*
X409263Y310804D01*
X409178Y310817D01*
X409092Y310826D01*
X409006Y310832D01*
X408920Y310834D01*
X405759Y310834D01*
X405673Y310832D01*
X405587Y310826D01*
X405501Y310817D01*
X405416Y310804D01*
X405331Y310787D01*
X405248Y310767D01*
X405165Y310743D01*
X405083Y310715D01*
X405003Y310684D01*
X404924Y310649D01*
X404847Y310611D01*
X404771Y310569D01*
X404697Y310525D01*
X404626Y310477D01*
X404556Y310426D01*
X404489Y310372D01*
X404424Y310315D01*
X404362Y310255D01*
X404302Y310193D01*
X404245Y310128D01*
X404191Y310061D01*
X404140Y309991D01*
X404092Y309920D01*
X404048Y309846D01*
X404006Y309770D01*
X403968Y309693D01*
X403933Y309614D01*
X403902Y309534D01*
X403874Y309452D01*
X403850Y309369D01*
X403830Y309286D01*
X403813Y309201D01*
X403800Y309116D01*
X403791Y309030D01*
X403785Y308944D01*
X403783Y308858D01*
X403784Y308858D02*
X403784Y306883D01*
X406778Y276344D02*
X406778Y271602D01*
X404408Y273973D02*
X409149Y273973D01*
X411124Y278917D02*
X404012Y281288D01*
X411124Y283659D01*
X411226Y240750D02*
X404114Y238379D01*
X404114Y243120D02*
X411226Y240750D01*
X405892Y242528D02*
X405892Y238972D01*
X406090Y245632D02*
X409250Y245632D01*
X409337Y245634D01*
X409425Y245640D01*
X409512Y245649D01*
X409598Y245663D01*
X409684Y245680D01*
X409768Y245701D01*
X409852Y245726D01*
X409935Y245755D01*
X410016Y245787D01*
X410096Y245822D01*
X410174Y245861D01*
X410251Y245904D01*
X410325Y245950D01*
X410397Y245999D01*
X410467Y246051D01*
X410535Y246107D01*
X410600Y246165D01*
X410663Y246226D01*
X410722Y246290D01*
X410779Y246357D01*
X410833Y246425D01*
X410884Y246497D01*
X410931Y246570D01*
X410976Y246645D01*
X411017Y246723D01*
X411054Y246802D01*
X411088Y246882D01*
X411118Y246964D01*
X411145Y247047D01*
X411168Y247132D01*
X411187Y247217D01*
X411202Y247303D01*
X411214Y247390D01*
X411222Y247477D01*
X411226Y247564D01*
X411226Y247652D01*
X411222Y247739D01*
X411214Y247826D01*
X411202Y247913D01*
X411187Y247999D01*
X411168Y248084D01*
X411145Y248169D01*
X411118Y248252D01*
X411088Y248334D01*
X411054Y248414D01*
X411017Y248493D01*
X410976Y248571D01*
X410931Y248646D01*
X410884Y248719D01*
X410833Y248791D01*
X410779Y248859D01*
X410722Y248926D01*
X410663Y248990D01*
X410600Y249051D01*
X410535Y249109D01*
X410467Y249165D01*
X410397Y249217D01*
X410325Y249266D01*
X410251Y249312D01*
X410174Y249355D01*
X410096Y249394D01*
X410016Y249429D01*
X409935Y249461D01*
X409852Y249490D01*
X409768Y249515D01*
X409684Y249536D01*
X409598Y249553D01*
X409512Y249567D01*
X409425Y249576D01*
X409337Y249582D01*
X409250Y249584D01*
X409250Y249583D02*
X406090Y249583D01*
X406090Y249584D02*
X406003Y249582D01*
X405915Y249576D01*
X405828Y249567D01*
X405742Y249553D01*
X405656Y249536D01*
X405572Y249515D01*
X405488Y249490D01*
X405405Y249461D01*
X405324Y249429D01*
X405244Y249394D01*
X405166Y249355D01*
X405089Y249312D01*
X405015Y249266D01*
X404943Y249217D01*
X404873Y249165D01*
X404805Y249109D01*
X404740Y249051D01*
X404677Y248990D01*
X404618Y248926D01*
X404561Y248859D01*
X404507Y248791D01*
X404456Y248719D01*
X404409Y248646D01*
X404364Y248571D01*
X404323Y248493D01*
X404286Y248414D01*
X404252Y248334D01*
X404222Y248252D01*
X404195Y248169D01*
X404172Y248084D01*
X404153Y247999D01*
X404138Y247913D01*
X404126Y247826D01*
X404118Y247739D01*
X404114Y247652D01*
X404114Y247564D01*
X404118Y247477D01*
X404126Y247390D01*
X404138Y247303D01*
X404153Y247217D01*
X404172Y247132D01*
X404195Y247047D01*
X404222Y246964D01*
X404252Y246882D01*
X404286Y246802D01*
X404323Y246723D01*
X404364Y246645D01*
X404409Y246570D01*
X404456Y246497D01*
X404507Y246425D01*
X404561Y246357D01*
X404618Y246290D01*
X404677Y246226D01*
X404740Y246165D01*
X404805Y246107D01*
X404873Y246051D01*
X404943Y245999D01*
X405015Y245950D01*
X405089Y245904D01*
X405166Y245861D01*
X405244Y245822D01*
X405324Y245787D01*
X405405Y245755D01*
X405488Y245726D01*
X405572Y245701D01*
X405656Y245680D01*
X405742Y245663D01*
X405828Y245649D01*
X405915Y245640D01*
X406003Y245634D01*
X406090Y245632D01*
X406090Y252719D02*
X411226Y252719D01*
X406090Y252718D02*
X406003Y252720D01*
X405915Y252726D01*
X405828Y252735D01*
X405742Y252749D01*
X405656Y252766D01*
X405572Y252787D01*
X405488Y252812D01*
X405405Y252841D01*
X405324Y252873D01*
X405244Y252908D01*
X405166Y252947D01*
X405089Y252990D01*
X405015Y253036D01*
X404943Y253085D01*
X404873Y253137D01*
X404805Y253193D01*
X404740Y253251D01*
X404677Y253312D01*
X404618Y253376D01*
X404561Y253443D01*
X404507Y253511D01*
X404456Y253583D01*
X404409Y253656D01*
X404364Y253731D01*
X404323Y253809D01*
X404286Y253888D01*
X404252Y253968D01*
X404222Y254050D01*
X404195Y254133D01*
X404172Y254218D01*
X404153Y254303D01*
X404138Y254389D01*
X404126Y254476D01*
X404118Y254563D01*
X404114Y254650D01*
X404114Y254738D01*
X404118Y254825D01*
X404126Y254912D01*
X404138Y254999D01*
X404153Y255085D01*
X404172Y255170D01*
X404195Y255255D01*
X404222Y255338D01*
X404252Y255420D01*
X404286Y255500D01*
X404323Y255579D01*
X404364Y255657D01*
X404409Y255732D01*
X404456Y255805D01*
X404507Y255877D01*
X404561Y255945D01*
X404618Y256012D01*
X404677Y256076D01*
X404740Y256137D01*
X404805Y256195D01*
X404873Y256251D01*
X404943Y256303D01*
X405015Y256352D01*
X405089Y256398D01*
X405166Y256441D01*
X405244Y256480D01*
X405324Y256515D01*
X405405Y256547D01*
X405488Y256576D01*
X405572Y256601D01*
X405656Y256622D01*
X405742Y256639D01*
X405828Y256653D01*
X405915Y256662D01*
X406003Y256668D01*
X406090Y256670D01*
X411226Y256670D01*
X411226Y261324D02*
X404114Y261324D01*
X411226Y259348D02*
X411226Y263299D01*
X408243Y61000D02*
X408243Y59814D01*
X408243Y61000D02*
X404292Y61000D01*
X404292Y58629D01*
X404294Y58551D01*
X404300Y58474D01*
X404309Y58397D01*
X404322Y58321D01*
X404339Y58245D01*
X404360Y58170D01*
X404384Y58097D01*
X404412Y58024D01*
X404444Y57953D01*
X404479Y57884D01*
X404517Y57817D01*
X404558Y57751D01*
X404603Y57688D01*
X404651Y57627D01*
X404701Y57568D01*
X404755Y57512D01*
X404811Y57458D01*
X404870Y57408D01*
X404931Y57360D01*
X404994Y57315D01*
X405060Y57274D01*
X405127Y57236D01*
X405196Y57201D01*
X405267Y57169D01*
X405340Y57141D01*
X405413Y57117D01*
X405488Y57096D01*
X405564Y57079D01*
X405640Y57066D01*
X405717Y57057D01*
X405794Y57051D01*
X405872Y57049D01*
X405872Y57048D02*
X409823Y57048D01*
X409823Y57049D02*
X409901Y57051D01*
X409978Y57057D01*
X410055Y57066D01*
X410131Y57079D01*
X410207Y57096D01*
X410282Y57117D01*
X410355Y57141D01*
X410428Y57169D01*
X410499Y57201D01*
X410568Y57236D01*
X410635Y57274D01*
X410701Y57315D01*
X410764Y57360D01*
X410825Y57408D01*
X410884Y57458D01*
X410940Y57512D01*
X410994Y57568D01*
X411044Y57627D01*
X411092Y57688D01*
X411137Y57751D01*
X411178Y57817D01*
X411216Y57884D01*
X411251Y57953D01*
X411283Y58024D01*
X411311Y58097D01*
X411335Y58170D01*
X411356Y58245D01*
X411373Y58321D01*
X411386Y58397D01*
X411395Y58474D01*
X411401Y58551D01*
X411403Y58629D01*
X411404Y58629D02*
X411404Y61000D01*
X411404Y64364D02*
X404292Y64364D01*
X404292Y68315D02*
X411404Y64364D01*
X411404Y68315D02*
X404292Y68315D01*
X404292Y71679D02*
X411404Y71679D01*
X411404Y73654D01*
X411402Y73740D01*
X411396Y73826D01*
X411387Y73912D01*
X411374Y73997D01*
X411357Y74082D01*
X411337Y74165D01*
X411313Y74248D01*
X411285Y74330D01*
X411254Y74410D01*
X411219Y74489D01*
X411181Y74566D01*
X411139Y74642D01*
X411095Y74716D01*
X411047Y74787D01*
X410996Y74857D01*
X410942Y74924D01*
X410885Y74989D01*
X410825Y75051D01*
X410763Y75111D01*
X410698Y75168D01*
X410631Y75222D01*
X410561Y75273D01*
X410490Y75321D01*
X410416Y75365D01*
X410340Y75407D01*
X410263Y75445D01*
X410184Y75480D01*
X410104Y75511D01*
X410022Y75539D01*
X409939Y75563D01*
X409856Y75583D01*
X409771Y75600D01*
X409686Y75613D01*
X409600Y75622D01*
X409514Y75628D01*
X409428Y75630D01*
X406267Y75630D01*
X406181Y75628D01*
X406095Y75622D01*
X406009Y75613D01*
X405924Y75600D01*
X405839Y75583D01*
X405756Y75563D01*
X405673Y75539D01*
X405591Y75511D01*
X405511Y75480D01*
X405432Y75445D01*
X405355Y75407D01*
X405279Y75365D01*
X405205Y75321D01*
X405134Y75273D01*
X405064Y75222D01*
X404997Y75168D01*
X404932Y75111D01*
X404870Y75051D01*
X404810Y74989D01*
X404753Y74924D01*
X404699Y74857D01*
X404648Y74787D01*
X404600Y74716D01*
X404556Y74642D01*
X404514Y74566D01*
X404476Y74489D01*
X404441Y74410D01*
X404410Y74330D01*
X404382Y74248D01*
X404358Y74165D01*
X404338Y74082D01*
X404321Y73997D01*
X404308Y73912D01*
X404299Y73826D01*
X404293Y73740D01*
X404291Y73654D01*
X404292Y73654D02*
X404292Y71679D01*
X407286Y41140D02*
X407286Y36398D01*
X404916Y38769D02*
X409657Y38769D01*
X411632Y43713D02*
X404520Y46084D01*
X411632Y48455D01*
X411734Y5546D02*
X404622Y3175D01*
X404622Y7916D02*
X411734Y5546D01*
X406400Y7324D02*
X406400Y3768D01*
X406598Y10428D02*
X409758Y10428D01*
X409845Y10430D01*
X409933Y10436D01*
X410020Y10445D01*
X410106Y10459D01*
X410192Y10476D01*
X410276Y10497D01*
X410360Y10522D01*
X410443Y10551D01*
X410524Y10583D01*
X410604Y10618D01*
X410682Y10657D01*
X410759Y10700D01*
X410833Y10746D01*
X410905Y10795D01*
X410975Y10847D01*
X411043Y10903D01*
X411108Y10961D01*
X411171Y11022D01*
X411230Y11086D01*
X411287Y11153D01*
X411341Y11221D01*
X411392Y11293D01*
X411439Y11366D01*
X411484Y11441D01*
X411525Y11519D01*
X411562Y11598D01*
X411596Y11678D01*
X411626Y11760D01*
X411653Y11843D01*
X411676Y11928D01*
X411695Y12013D01*
X411710Y12099D01*
X411722Y12186D01*
X411730Y12273D01*
X411734Y12360D01*
X411734Y12448D01*
X411730Y12535D01*
X411722Y12622D01*
X411710Y12709D01*
X411695Y12795D01*
X411676Y12880D01*
X411653Y12965D01*
X411626Y13048D01*
X411596Y13130D01*
X411562Y13210D01*
X411525Y13289D01*
X411484Y13367D01*
X411439Y13442D01*
X411392Y13515D01*
X411341Y13587D01*
X411287Y13655D01*
X411230Y13722D01*
X411171Y13786D01*
X411108Y13847D01*
X411043Y13905D01*
X410975Y13961D01*
X410905Y14013D01*
X410833Y14062D01*
X410759Y14108D01*
X410682Y14151D01*
X410604Y14190D01*
X410524Y14225D01*
X410443Y14257D01*
X410360Y14286D01*
X410276Y14311D01*
X410192Y14332D01*
X410106Y14349D01*
X410020Y14363D01*
X409933Y14372D01*
X409845Y14378D01*
X409758Y14380D01*
X409758Y14379D02*
X406598Y14379D01*
X406598Y14380D02*
X406511Y14378D01*
X406423Y14372D01*
X406336Y14363D01*
X406250Y14349D01*
X406164Y14332D01*
X406080Y14311D01*
X405996Y14286D01*
X405913Y14257D01*
X405832Y14225D01*
X405752Y14190D01*
X405674Y14151D01*
X405597Y14108D01*
X405523Y14062D01*
X405451Y14013D01*
X405381Y13961D01*
X405313Y13905D01*
X405248Y13847D01*
X405185Y13786D01*
X405126Y13722D01*
X405069Y13655D01*
X405015Y13587D01*
X404964Y13515D01*
X404917Y13442D01*
X404872Y13367D01*
X404831Y13289D01*
X404794Y13210D01*
X404760Y13130D01*
X404730Y13048D01*
X404703Y12965D01*
X404680Y12880D01*
X404661Y12795D01*
X404646Y12709D01*
X404634Y12622D01*
X404626Y12535D01*
X404622Y12448D01*
X404622Y12360D01*
X404626Y12273D01*
X404634Y12186D01*
X404646Y12099D01*
X404661Y12013D01*
X404680Y11928D01*
X404703Y11843D01*
X404730Y11760D01*
X404760Y11678D01*
X404794Y11598D01*
X404831Y11519D01*
X404872Y11441D01*
X404917Y11366D01*
X404964Y11293D01*
X405015Y11221D01*
X405069Y11153D01*
X405126Y11086D01*
X405185Y11022D01*
X405248Y10961D01*
X405313Y10903D01*
X405381Y10847D01*
X405451Y10795D01*
X405523Y10746D01*
X405597Y10700D01*
X405674Y10657D01*
X405752Y10618D01*
X405832Y10583D01*
X405913Y10551D01*
X405996Y10522D01*
X406080Y10497D01*
X406164Y10476D01*
X406250Y10459D01*
X406336Y10445D01*
X406423Y10436D01*
X406511Y10430D01*
X406598Y10428D01*
X406598Y17515D02*
X411734Y17515D01*
X406598Y17514D02*
X406511Y17516D01*
X406423Y17522D01*
X406336Y17531D01*
X406250Y17545D01*
X406164Y17562D01*
X406080Y17583D01*
X405996Y17608D01*
X405913Y17637D01*
X405832Y17669D01*
X405752Y17704D01*
X405674Y17743D01*
X405597Y17786D01*
X405523Y17832D01*
X405451Y17881D01*
X405381Y17933D01*
X405313Y17989D01*
X405248Y18047D01*
X405185Y18108D01*
X405126Y18172D01*
X405069Y18239D01*
X405015Y18307D01*
X404964Y18379D01*
X404917Y18452D01*
X404872Y18527D01*
X404831Y18605D01*
X404794Y18684D01*
X404760Y18764D01*
X404730Y18846D01*
X404703Y18929D01*
X404680Y19014D01*
X404661Y19099D01*
X404646Y19185D01*
X404634Y19272D01*
X404626Y19359D01*
X404622Y19446D01*
X404622Y19534D01*
X404626Y19621D01*
X404634Y19708D01*
X404646Y19795D01*
X404661Y19881D01*
X404680Y19966D01*
X404703Y20051D01*
X404730Y20134D01*
X404760Y20216D01*
X404794Y20296D01*
X404831Y20375D01*
X404872Y20453D01*
X404917Y20528D01*
X404964Y20601D01*
X405015Y20673D01*
X405069Y20741D01*
X405126Y20808D01*
X405185Y20872D01*
X405248Y20933D01*
X405313Y20991D01*
X405381Y21047D01*
X405451Y21099D01*
X405523Y21148D01*
X405597Y21194D01*
X405674Y21237D01*
X405752Y21276D01*
X405832Y21311D01*
X405913Y21343D01*
X405996Y21372D01*
X406080Y21397D01*
X406164Y21418D01*
X406250Y21435D01*
X406336Y21449D01*
X406423Y21458D01*
X406511Y21464D01*
X406598Y21466D01*
X411734Y21466D01*
X411734Y26120D02*
X404622Y26120D01*
X411734Y24144D02*
X411734Y28095D01*
X591377Y294002D02*
X591377Y295188D01*
X587426Y295188D01*
X587426Y292817D01*
X587428Y292739D01*
X587434Y292662D01*
X587443Y292585D01*
X587456Y292509D01*
X587473Y292433D01*
X587494Y292358D01*
X587518Y292285D01*
X587546Y292212D01*
X587578Y292141D01*
X587613Y292072D01*
X587651Y292005D01*
X587692Y291939D01*
X587737Y291876D01*
X587785Y291815D01*
X587835Y291756D01*
X587889Y291700D01*
X587945Y291646D01*
X588004Y291596D01*
X588065Y291548D01*
X588128Y291503D01*
X588194Y291462D01*
X588261Y291424D01*
X588330Y291389D01*
X588401Y291357D01*
X588474Y291329D01*
X588547Y291305D01*
X588622Y291284D01*
X588698Y291267D01*
X588774Y291254D01*
X588851Y291245D01*
X588928Y291239D01*
X589006Y291237D01*
X589006Y291236D02*
X592957Y291236D01*
X592957Y291237D02*
X593035Y291239D01*
X593112Y291245D01*
X593189Y291254D01*
X593265Y291267D01*
X593341Y291284D01*
X593416Y291305D01*
X593489Y291329D01*
X593562Y291357D01*
X593633Y291389D01*
X593702Y291424D01*
X593769Y291462D01*
X593835Y291503D01*
X593898Y291548D01*
X593959Y291596D01*
X594018Y291646D01*
X594074Y291700D01*
X594128Y291756D01*
X594178Y291815D01*
X594226Y291876D01*
X594271Y291939D01*
X594312Y292005D01*
X594350Y292072D01*
X594385Y292141D01*
X594417Y292212D01*
X594445Y292285D01*
X594469Y292358D01*
X594490Y292433D01*
X594507Y292509D01*
X594520Y292585D01*
X594529Y292662D01*
X594535Y292739D01*
X594537Y292817D01*
X594538Y292817D02*
X594538Y295188D01*
X594538Y298552D02*
X587426Y298552D01*
X587426Y302503D02*
X594538Y298552D01*
X594538Y302503D02*
X587426Y302503D01*
X587426Y305867D02*
X594538Y305867D01*
X594538Y307842D01*
X594536Y307928D01*
X594530Y308014D01*
X594521Y308100D01*
X594508Y308185D01*
X594491Y308270D01*
X594471Y308353D01*
X594447Y308436D01*
X594419Y308518D01*
X594388Y308598D01*
X594353Y308677D01*
X594315Y308754D01*
X594273Y308830D01*
X594229Y308904D01*
X594181Y308975D01*
X594130Y309045D01*
X594076Y309112D01*
X594019Y309177D01*
X593959Y309239D01*
X593897Y309299D01*
X593832Y309356D01*
X593765Y309410D01*
X593695Y309461D01*
X593624Y309509D01*
X593550Y309553D01*
X593474Y309595D01*
X593397Y309633D01*
X593318Y309668D01*
X593238Y309699D01*
X593156Y309727D01*
X593073Y309751D01*
X592990Y309771D01*
X592905Y309788D01*
X592820Y309801D01*
X592734Y309810D01*
X592648Y309816D01*
X592562Y309818D01*
X589401Y309818D01*
X589315Y309816D01*
X589229Y309810D01*
X589143Y309801D01*
X589058Y309788D01*
X588973Y309771D01*
X588890Y309751D01*
X588807Y309727D01*
X588725Y309699D01*
X588645Y309668D01*
X588566Y309633D01*
X588489Y309595D01*
X588413Y309553D01*
X588339Y309509D01*
X588268Y309461D01*
X588198Y309410D01*
X588131Y309356D01*
X588066Y309299D01*
X588004Y309239D01*
X587944Y309177D01*
X587887Y309112D01*
X587833Y309045D01*
X587782Y308975D01*
X587734Y308904D01*
X587690Y308830D01*
X587648Y308754D01*
X587610Y308677D01*
X587575Y308598D01*
X587544Y308518D01*
X587516Y308436D01*
X587492Y308353D01*
X587472Y308270D01*
X587455Y308185D01*
X587442Y308100D01*
X587433Y308014D01*
X587427Y307928D01*
X587425Y307842D01*
X587426Y307842D02*
X587426Y305867D01*
X590420Y275328D02*
X590420Y270586D01*
X588050Y272957D02*
X592791Y272957D01*
X594766Y277901D02*
X587654Y280272D01*
X594766Y282643D01*
X594868Y239734D02*
X587756Y237363D01*
X587756Y242104D02*
X594868Y239734D01*
X589534Y241512D02*
X589534Y237956D01*
X589732Y244616D02*
X592892Y244616D01*
X592979Y244618D01*
X593067Y244624D01*
X593154Y244633D01*
X593240Y244647D01*
X593326Y244664D01*
X593410Y244685D01*
X593494Y244710D01*
X593577Y244739D01*
X593658Y244771D01*
X593738Y244806D01*
X593816Y244845D01*
X593893Y244888D01*
X593967Y244934D01*
X594039Y244983D01*
X594109Y245035D01*
X594177Y245091D01*
X594242Y245149D01*
X594305Y245210D01*
X594364Y245274D01*
X594421Y245341D01*
X594475Y245409D01*
X594526Y245481D01*
X594573Y245554D01*
X594618Y245629D01*
X594659Y245707D01*
X594696Y245786D01*
X594730Y245866D01*
X594760Y245948D01*
X594787Y246031D01*
X594810Y246116D01*
X594829Y246201D01*
X594844Y246287D01*
X594856Y246374D01*
X594864Y246461D01*
X594868Y246548D01*
X594868Y246636D01*
X594864Y246723D01*
X594856Y246810D01*
X594844Y246897D01*
X594829Y246983D01*
X594810Y247068D01*
X594787Y247153D01*
X594760Y247236D01*
X594730Y247318D01*
X594696Y247398D01*
X594659Y247477D01*
X594618Y247555D01*
X594573Y247630D01*
X594526Y247703D01*
X594475Y247775D01*
X594421Y247843D01*
X594364Y247910D01*
X594305Y247974D01*
X594242Y248035D01*
X594177Y248093D01*
X594109Y248149D01*
X594039Y248201D01*
X593967Y248250D01*
X593893Y248296D01*
X593816Y248339D01*
X593738Y248378D01*
X593658Y248413D01*
X593577Y248445D01*
X593494Y248474D01*
X593410Y248499D01*
X593326Y248520D01*
X593240Y248537D01*
X593154Y248551D01*
X593067Y248560D01*
X592979Y248566D01*
X592892Y248568D01*
X592892Y248567D02*
X589732Y248567D01*
X589732Y248568D02*
X589645Y248566D01*
X589557Y248560D01*
X589470Y248551D01*
X589384Y248537D01*
X589298Y248520D01*
X589214Y248499D01*
X589130Y248474D01*
X589047Y248445D01*
X588966Y248413D01*
X588886Y248378D01*
X588808Y248339D01*
X588731Y248296D01*
X588657Y248250D01*
X588585Y248201D01*
X588515Y248149D01*
X588447Y248093D01*
X588382Y248035D01*
X588319Y247974D01*
X588260Y247910D01*
X588203Y247843D01*
X588149Y247775D01*
X588098Y247703D01*
X588051Y247630D01*
X588006Y247555D01*
X587965Y247477D01*
X587928Y247398D01*
X587894Y247318D01*
X587864Y247236D01*
X587837Y247153D01*
X587814Y247068D01*
X587795Y246983D01*
X587780Y246897D01*
X587768Y246810D01*
X587760Y246723D01*
X587756Y246636D01*
X587756Y246548D01*
X587760Y246461D01*
X587768Y246374D01*
X587780Y246287D01*
X587795Y246201D01*
X587814Y246116D01*
X587837Y246031D01*
X587864Y245948D01*
X587894Y245866D01*
X587928Y245786D01*
X587965Y245707D01*
X588006Y245629D01*
X588051Y245554D01*
X588098Y245481D01*
X588149Y245409D01*
X588203Y245341D01*
X588260Y245274D01*
X588319Y245210D01*
X588382Y245149D01*
X588447Y245091D01*
X588515Y245035D01*
X588585Y244983D01*
X588657Y244934D01*
X588731Y244888D01*
X588808Y244845D01*
X588886Y244806D01*
X588966Y244771D01*
X589047Y244739D01*
X589130Y244710D01*
X589214Y244685D01*
X589298Y244664D01*
X589384Y244647D01*
X589470Y244633D01*
X589557Y244624D01*
X589645Y244618D01*
X589732Y244616D01*
X589732Y251703D02*
X594868Y251703D01*
X589732Y251702D02*
X589645Y251704D01*
X589557Y251710D01*
X589470Y251719D01*
X589384Y251733D01*
X589298Y251750D01*
X589214Y251771D01*
X589130Y251796D01*
X589047Y251825D01*
X588966Y251857D01*
X588886Y251892D01*
X588808Y251931D01*
X588731Y251974D01*
X588657Y252020D01*
X588585Y252069D01*
X588515Y252121D01*
X588447Y252177D01*
X588382Y252235D01*
X588319Y252296D01*
X588260Y252360D01*
X588203Y252427D01*
X588149Y252495D01*
X588098Y252567D01*
X588051Y252640D01*
X588006Y252715D01*
X587965Y252793D01*
X587928Y252872D01*
X587894Y252952D01*
X587864Y253034D01*
X587837Y253117D01*
X587814Y253202D01*
X587795Y253287D01*
X587780Y253373D01*
X587768Y253460D01*
X587760Y253547D01*
X587756Y253634D01*
X587756Y253722D01*
X587760Y253809D01*
X587768Y253896D01*
X587780Y253983D01*
X587795Y254069D01*
X587814Y254154D01*
X587837Y254239D01*
X587864Y254322D01*
X587894Y254404D01*
X587928Y254484D01*
X587965Y254563D01*
X588006Y254641D01*
X588051Y254716D01*
X588098Y254789D01*
X588149Y254861D01*
X588203Y254929D01*
X588260Y254996D01*
X588319Y255060D01*
X588382Y255121D01*
X588447Y255179D01*
X588515Y255235D01*
X588585Y255287D01*
X588657Y255336D01*
X588731Y255382D01*
X588808Y255425D01*
X588886Y255464D01*
X588966Y255499D01*
X589047Y255531D01*
X589130Y255560D01*
X589214Y255585D01*
X589298Y255606D01*
X589384Y255623D01*
X589470Y255637D01*
X589557Y255646D01*
X589645Y255652D01*
X589732Y255654D01*
X594868Y255654D01*
X594868Y260308D02*
X587756Y260308D01*
X594868Y258332D02*
X594868Y262283D01*
X590869Y61762D02*
X590869Y60576D01*
X590869Y61762D02*
X586918Y61762D01*
X586918Y59391D01*
X586920Y59313D01*
X586926Y59236D01*
X586935Y59159D01*
X586948Y59083D01*
X586965Y59007D01*
X586986Y58932D01*
X587010Y58859D01*
X587038Y58786D01*
X587070Y58715D01*
X587105Y58646D01*
X587143Y58579D01*
X587184Y58513D01*
X587229Y58450D01*
X587277Y58389D01*
X587327Y58330D01*
X587381Y58274D01*
X587437Y58220D01*
X587496Y58170D01*
X587557Y58122D01*
X587620Y58077D01*
X587686Y58036D01*
X587753Y57998D01*
X587822Y57963D01*
X587893Y57931D01*
X587966Y57903D01*
X588039Y57879D01*
X588114Y57858D01*
X588190Y57841D01*
X588266Y57828D01*
X588343Y57819D01*
X588420Y57813D01*
X588498Y57811D01*
X588498Y57810D02*
X592449Y57810D01*
X592449Y57811D02*
X592527Y57813D01*
X592604Y57819D01*
X592681Y57828D01*
X592757Y57841D01*
X592833Y57858D01*
X592908Y57879D01*
X592981Y57903D01*
X593054Y57931D01*
X593125Y57963D01*
X593194Y57998D01*
X593261Y58036D01*
X593327Y58077D01*
X593390Y58122D01*
X593451Y58170D01*
X593510Y58220D01*
X593566Y58274D01*
X593620Y58330D01*
X593670Y58389D01*
X593718Y58450D01*
X593763Y58513D01*
X593804Y58579D01*
X593842Y58646D01*
X593877Y58715D01*
X593909Y58786D01*
X593937Y58859D01*
X593961Y58932D01*
X593982Y59007D01*
X593999Y59083D01*
X594012Y59159D01*
X594021Y59236D01*
X594027Y59313D01*
X594029Y59391D01*
X594030Y59391D02*
X594030Y61762D01*
X594030Y65126D02*
X586918Y65126D01*
X586918Y69077D02*
X594030Y65126D01*
X594030Y69077D02*
X586918Y69077D01*
X586918Y72441D02*
X594030Y72441D01*
X594030Y74416D01*
X594028Y74502D01*
X594022Y74588D01*
X594013Y74674D01*
X594000Y74759D01*
X593983Y74844D01*
X593963Y74927D01*
X593939Y75010D01*
X593911Y75092D01*
X593880Y75172D01*
X593845Y75251D01*
X593807Y75328D01*
X593765Y75404D01*
X593721Y75478D01*
X593673Y75549D01*
X593622Y75619D01*
X593568Y75686D01*
X593511Y75751D01*
X593451Y75813D01*
X593389Y75873D01*
X593324Y75930D01*
X593257Y75984D01*
X593187Y76035D01*
X593116Y76083D01*
X593042Y76127D01*
X592966Y76169D01*
X592889Y76207D01*
X592810Y76242D01*
X592730Y76273D01*
X592648Y76301D01*
X592565Y76325D01*
X592482Y76345D01*
X592397Y76362D01*
X592312Y76375D01*
X592226Y76384D01*
X592140Y76390D01*
X592054Y76392D01*
X588893Y76392D01*
X588807Y76390D01*
X588721Y76384D01*
X588635Y76375D01*
X588550Y76362D01*
X588465Y76345D01*
X588382Y76325D01*
X588299Y76301D01*
X588217Y76273D01*
X588137Y76242D01*
X588058Y76207D01*
X587981Y76169D01*
X587905Y76127D01*
X587831Y76083D01*
X587760Y76035D01*
X587690Y75984D01*
X587623Y75930D01*
X587558Y75873D01*
X587496Y75813D01*
X587436Y75751D01*
X587379Y75686D01*
X587325Y75619D01*
X587274Y75549D01*
X587226Y75478D01*
X587182Y75404D01*
X587140Y75328D01*
X587102Y75251D01*
X587067Y75172D01*
X587036Y75092D01*
X587008Y75010D01*
X586984Y74927D01*
X586964Y74844D01*
X586947Y74759D01*
X586934Y74674D01*
X586925Y74588D01*
X586919Y74502D01*
X586917Y74416D01*
X586918Y74416D02*
X586918Y72441D01*
X589912Y41902D02*
X589912Y37160D01*
X587542Y39531D02*
X592283Y39531D01*
X594258Y44475D02*
X587146Y46846D01*
X594258Y49217D01*
X594360Y6308D02*
X587248Y3937D01*
X587248Y8678D02*
X594360Y6308D01*
X589026Y8086D02*
X589026Y4530D01*
X589224Y11190D02*
X592384Y11190D01*
X592471Y11192D01*
X592559Y11198D01*
X592646Y11207D01*
X592732Y11221D01*
X592818Y11238D01*
X592902Y11259D01*
X592986Y11284D01*
X593069Y11313D01*
X593150Y11345D01*
X593230Y11380D01*
X593308Y11419D01*
X593385Y11462D01*
X593459Y11508D01*
X593531Y11557D01*
X593601Y11609D01*
X593669Y11665D01*
X593734Y11723D01*
X593797Y11784D01*
X593856Y11848D01*
X593913Y11915D01*
X593967Y11983D01*
X594018Y12055D01*
X594065Y12128D01*
X594110Y12203D01*
X594151Y12281D01*
X594188Y12360D01*
X594222Y12440D01*
X594252Y12522D01*
X594279Y12605D01*
X594302Y12690D01*
X594321Y12775D01*
X594336Y12861D01*
X594348Y12948D01*
X594356Y13035D01*
X594360Y13122D01*
X594360Y13210D01*
X594356Y13297D01*
X594348Y13384D01*
X594336Y13471D01*
X594321Y13557D01*
X594302Y13642D01*
X594279Y13727D01*
X594252Y13810D01*
X594222Y13892D01*
X594188Y13972D01*
X594151Y14051D01*
X594110Y14129D01*
X594065Y14204D01*
X594018Y14277D01*
X593967Y14349D01*
X593913Y14417D01*
X593856Y14484D01*
X593797Y14548D01*
X593734Y14609D01*
X593669Y14667D01*
X593601Y14723D01*
X593531Y14775D01*
X593459Y14824D01*
X593385Y14870D01*
X593308Y14913D01*
X593230Y14952D01*
X593150Y14987D01*
X593069Y15019D01*
X592986Y15048D01*
X592902Y15073D01*
X592818Y15094D01*
X592732Y15111D01*
X592646Y15125D01*
X592559Y15134D01*
X592471Y15140D01*
X592384Y15142D01*
X592384Y15141D02*
X589224Y15141D01*
X589224Y15142D02*
X589137Y15140D01*
X589049Y15134D01*
X588962Y15125D01*
X588876Y15111D01*
X588790Y15094D01*
X588706Y15073D01*
X588622Y15048D01*
X588539Y15019D01*
X588458Y14987D01*
X588378Y14952D01*
X588300Y14913D01*
X588223Y14870D01*
X588149Y14824D01*
X588077Y14775D01*
X588007Y14723D01*
X587939Y14667D01*
X587874Y14609D01*
X587811Y14548D01*
X587752Y14484D01*
X587695Y14417D01*
X587641Y14349D01*
X587590Y14277D01*
X587543Y14204D01*
X587498Y14129D01*
X587457Y14051D01*
X587420Y13972D01*
X587386Y13892D01*
X587356Y13810D01*
X587329Y13727D01*
X587306Y13642D01*
X587287Y13557D01*
X587272Y13471D01*
X587260Y13384D01*
X587252Y13297D01*
X587248Y13210D01*
X587248Y13122D01*
X587252Y13035D01*
X587260Y12948D01*
X587272Y12861D01*
X587287Y12775D01*
X587306Y12690D01*
X587329Y12605D01*
X587356Y12522D01*
X587386Y12440D01*
X587420Y12360D01*
X587457Y12281D01*
X587498Y12203D01*
X587543Y12128D01*
X587590Y12055D01*
X587641Y11983D01*
X587695Y11915D01*
X587752Y11848D01*
X587811Y11784D01*
X587874Y11723D01*
X587939Y11665D01*
X588007Y11609D01*
X588077Y11557D01*
X588149Y11508D01*
X588223Y11462D01*
X588300Y11419D01*
X588378Y11380D01*
X588458Y11345D01*
X588539Y11313D01*
X588622Y11284D01*
X588706Y11259D01*
X588790Y11238D01*
X588876Y11221D01*
X588962Y11207D01*
X589049Y11198D01*
X589137Y11192D01*
X589224Y11190D01*
X589224Y18277D02*
X594360Y18277D01*
X589224Y18276D02*
X589137Y18278D01*
X589049Y18284D01*
X588962Y18293D01*
X588876Y18307D01*
X588790Y18324D01*
X588706Y18345D01*
X588622Y18370D01*
X588539Y18399D01*
X588458Y18431D01*
X588378Y18466D01*
X588300Y18505D01*
X588223Y18548D01*
X588149Y18594D01*
X588077Y18643D01*
X588007Y18695D01*
X587939Y18751D01*
X587874Y18809D01*
X587811Y18870D01*
X587752Y18934D01*
X587695Y19001D01*
X587641Y19069D01*
X587590Y19141D01*
X587543Y19214D01*
X587498Y19289D01*
X587457Y19367D01*
X587420Y19446D01*
X587386Y19526D01*
X587356Y19608D01*
X587329Y19691D01*
X587306Y19776D01*
X587287Y19861D01*
X587272Y19947D01*
X587260Y20034D01*
X587252Y20121D01*
X587248Y20208D01*
X587248Y20296D01*
X587252Y20383D01*
X587260Y20470D01*
X587272Y20557D01*
X587287Y20643D01*
X587306Y20728D01*
X587329Y20813D01*
X587356Y20896D01*
X587386Y20978D01*
X587420Y21058D01*
X587457Y21137D01*
X587498Y21215D01*
X587543Y21290D01*
X587590Y21363D01*
X587641Y21435D01*
X587695Y21503D01*
X587752Y21570D01*
X587811Y21634D01*
X587874Y21695D01*
X587939Y21753D01*
X588007Y21809D01*
X588077Y21861D01*
X588149Y21910D01*
X588223Y21956D01*
X588300Y21999D01*
X588378Y22038D01*
X588458Y22073D01*
X588539Y22105D01*
X588622Y22134D01*
X588706Y22159D01*
X588790Y22180D01*
X588876Y22197D01*
X588962Y22211D01*
X589049Y22220D01*
X589137Y22226D01*
X589224Y22228D01*
X594360Y22228D01*
X594360Y26882D02*
X587248Y26882D01*
X594360Y24906D02*
X594360Y28857D01*
X776289Y295272D02*
X776289Y296458D01*
X772338Y296458D01*
X772338Y294087D01*
X772340Y294009D01*
X772346Y293932D01*
X772355Y293855D01*
X772368Y293779D01*
X772385Y293703D01*
X772406Y293628D01*
X772430Y293555D01*
X772458Y293482D01*
X772490Y293411D01*
X772525Y293342D01*
X772563Y293275D01*
X772604Y293209D01*
X772649Y293146D01*
X772697Y293085D01*
X772747Y293026D01*
X772801Y292970D01*
X772857Y292916D01*
X772916Y292866D01*
X772977Y292818D01*
X773040Y292773D01*
X773106Y292732D01*
X773173Y292694D01*
X773242Y292659D01*
X773313Y292627D01*
X773386Y292599D01*
X773459Y292575D01*
X773534Y292554D01*
X773610Y292537D01*
X773686Y292524D01*
X773763Y292515D01*
X773840Y292509D01*
X773918Y292507D01*
X773918Y292506D02*
X777869Y292506D01*
X777869Y292507D02*
X777947Y292509D01*
X778024Y292515D01*
X778101Y292524D01*
X778177Y292537D01*
X778253Y292554D01*
X778328Y292575D01*
X778401Y292599D01*
X778474Y292627D01*
X778545Y292659D01*
X778614Y292694D01*
X778681Y292732D01*
X778747Y292773D01*
X778810Y292818D01*
X778871Y292866D01*
X778930Y292916D01*
X778986Y292970D01*
X779040Y293026D01*
X779090Y293085D01*
X779138Y293146D01*
X779183Y293209D01*
X779224Y293275D01*
X779262Y293342D01*
X779297Y293411D01*
X779329Y293482D01*
X779357Y293555D01*
X779381Y293628D01*
X779402Y293703D01*
X779419Y293779D01*
X779432Y293855D01*
X779441Y293932D01*
X779447Y294009D01*
X779449Y294087D01*
X779450Y294087D02*
X779450Y296458D01*
X779450Y299822D02*
X772338Y299822D01*
X772338Y303773D02*
X779450Y299822D01*
X779450Y303773D02*
X772338Y303773D01*
X772338Y307137D02*
X779450Y307137D01*
X779450Y309112D01*
X779448Y309198D01*
X779442Y309284D01*
X779433Y309370D01*
X779420Y309455D01*
X779403Y309540D01*
X779383Y309623D01*
X779359Y309706D01*
X779331Y309788D01*
X779300Y309868D01*
X779265Y309947D01*
X779227Y310024D01*
X779185Y310100D01*
X779141Y310174D01*
X779093Y310245D01*
X779042Y310315D01*
X778988Y310382D01*
X778931Y310447D01*
X778871Y310509D01*
X778809Y310569D01*
X778744Y310626D01*
X778677Y310680D01*
X778607Y310731D01*
X778536Y310779D01*
X778462Y310823D01*
X778386Y310865D01*
X778309Y310903D01*
X778230Y310938D01*
X778150Y310969D01*
X778068Y310997D01*
X777985Y311021D01*
X777902Y311041D01*
X777817Y311058D01*
X777732Y311071D01*
X777646Y311080D01*
X777560Y311086D01*
X777474Y311088D01*
X774313Y311088D01*
X774227Y311086D01*
X774141Y311080D01*
X774055Y311071D01*
X773970Y311058D01*
X773885Y311041D01*
X773802Y311021D01*
X773719Y310997D01*
X773637Y310969D01*
X773557Y310938D01*
X773478Y310903D01*
X773401Y310865D01*
X773325Y310823D01*
X773251Y310779D01*
X773180Y310731D01*
X773110Y310680D01*
X773043Y310626D01*
X772978Y310569D01*
X772916Y310509D01*
X772856Y310447D01*
X772799Y310382D01*
X772745Y310315D01*
X772694Y310245D01*
X772646Y310174D01*
X772602Y310100D01*
X772560Y310024D01*
X772522Y309947D01*
X772487Y309868D01*
X772456Y309788D01*
X772428Y309706D01*
X772404Y309623D01*
X772384Y309540D01*
X772367Y309455D01*
X772354Y309370D01*
X772345Y309284D01*
X772339Y309198D01*
X772337Y309112D01*
X772338Y309112D02*
X772338Y307137D01*
X775332Y276598D02*
X775332Y271856D01*
X772962Y274227D02*
X777703Y274227D01*
X779678Y279171D02*
X772566Y281542D01*
X779678Y283913D01*
X779780Y241004D02*
X772668Y238633D01*
X772668Y243374D02*
X779780Y241004D01*
X774446Y242782D02*
X774446Y239226D01*
X774644Y245886D02*
X777804Y245886D01*
X777891Y245888D01*
X777979Y245894D01*
X778066Y245903D01*
X778152Y245917D01*
X778238Y245934D01*
X778322Y245955D01*
X778406Y245980D01*
X778489Y246009D01*
X778570Y246041D01*
X778650Y246076D01*
X778728Y246115D01*
X778805Y246158D01*
X778879Y246204D01*
X778951Y246253D01*
X779021Y246305D01*
X779089Y246361D01*
X779154Y246419D01*
X779217Y246480D01*
X779276Y246544D01*
X779333Y246611D01*
X779387Y246679D01*
X779438Y246751D01*
X779485Y246824D01*
X779530Y246899D01*
X779571Y246977D01*
X779608Y247056D01*
X779642Y247136D01*
X779672Y247218D01*
X779699Y247301D01*
X779722Y247386D01*
X779741Y247471D01*
X779756Y247557D01*
X779768Y247644D01*
X779776Y247731D01*
X779780Y247818D01*
X779780Y247906D01*
X779776Y247993D01*
X779768Y248080D01*
X779756Y248167D01*
X779741Y248253D01*
X779722Y248338D01*
X779699Y248423D01*
X779672Y248506D01*
X779642Y248588D01*
X779608Y248668D01*
X779571Y248747D01*
X779530Y248825D01*
X779485Y248900D01*
X779438Y248973D01*
X779387Y249045D01*
X779333Y249113D01*
X779276Y249180D01*
X779217Y249244D01*
X779154Y249305D01*
X779089Y249363D01*
X779021Y249419D01*
X778951Y249471D01*
X778879Y249520D01*
X778805Y249566D01*
X778728Y249609D01*
X778650Y249648D01*
X778570Y249683D01*
X778489Y249715D01*
X778406Y249744D01*
X778322Y249769D01*
X778238Y249790D01*
X778152Y249807D01*
X778066Y249821D01*
X777979Y249830D01*
X777891Y249836D01*
X777804Y249838D01*
X777804Y249837D02*
X774644Y249837D01*
X774644Y249838D02*
X774557Y249836D01*
X774469Y249830D01*
X774382Y249821D01*
X774296Y249807D01*
X774210Y249790D01*
X774126Y249769D01*
X774042Y249744D01*
X773959Y249715D01*
X773878Y249683D01*
X773798Y249648D01*
X773720Y249609D01*
X773643Y249566D01*
X773569Y249520D01*
X773497Y249471D01*
X773427Y249419D01*
X773359Y249363D01*
X773294Y249305D01*
X773231Y249244D01*
X773172Y249180D01*
X773115Y249113D01*
X773061Y249045D01*
X773010Y248973D01*
X772963Y248900D01*
X772918Y248825D01*
X772877Y248747D01*
X772840Y248668D01*
X772806Y248588D01*
X772776Y248506D01*
X772749Y248423D01*
X772726Y248338D01*
X772707Y248253D01*
X772692Y248167D01*
X772680Y248080D01*
X772672Y247993D01*
X772668Y247906D01*
X772668Y247818D01*
X772672Y247731D01*
X772680Y247644D01*
X772692Y247557D01*
X772707Y247471D01*
X772726Y247386D01*
X772749Y247301D01*
X772776Y247218D01*
X772806Y247136D01*
X772840Y247056D01*
X772877Y246977D01*
X772918Y246899D01*
X772963Y246824D01*
X773010Y246751D01*
X773061Y246679D01*
X773115Y246611D01*
X773172Y246544D01*
X773231Y246480D01*
X773294Y246419D01*
X773359Y246361D01*
X773427Y246305D01*
X773497Y246253D01*
X773569Y246204D01*
X773643Y246158D01*
X773720Y246115D01*
X773798Y246076D01*
X773878Y246041D01*
X773959Y246009D01*
X774042Y245980D01*
X774126Y245955D01*
X774210Y245934D01*
X774296Y245917D01*
X774382Y245903D01*
X774469Y245894D01*
X774557Y245888D01*
X774644Y245886D01*
X774644Y252973D02*
X779780Y252973D01*
X774644Y252972D02*
X774557Y252974D01*
X774469Y252980D01*
X774382Y252989D01*
X774296Y253003D01*
X774210Y253020D01*
X774126Y253041D01*
X774042Y253066D01*
X773959Y253095D01*
X773878Y253127D01*
X773798Y253162D01*
X773720Y253201D01*
X773643Y253244D01*
X773569Y253290D01*
X773497Y253339D01*
X773427Y253391D01*
X773359Y253447D01*
X773294Y253505D01*
X773231Y253566D01*
X773172Y253630D01*
X773115Y253697D01*
X773061Y253765D01*
X773010Y253837D01*
X772963Y253910D01*
X772918Y253985D01*
X772877Y254063D01*
X772840Y254142D01*
X772806Y254222D01*
X772776Y254304D01*
X772749Y254387D01*
X772726Y254472D01*
X772707Y254557D01*
X772692Y254643D01*
X772680Y254730D01*
X772672Y254817D01*
X772668Y254904D01*
X772668Y254992D01*
X772672Y255079D01*
X772680Y255166D01*
X772692Y255253D01*
X772707Y255339D01*
X772726Y255424D01*
X772749Y255509D01*
X772776Y255592D01*
X772806Y255674D01*
X772840Y255754D01*
X772877Y255833D01*
X772918Y255911D01*
X772963Y255986D01*
X773010Y256059D01*
X773061Y256131D01*
X773115Y256199D01*
X773172Y256266D01*
X773231Y256330D01*
X773294Y256391D01*
X773359Y256449D01*
X773427Y256505D01*
X773497Y256557D01*
X773569Y256606D01*
X773643Y256652D01*
X773720Y256695D01*
X773798Y256734D01*
X773878Y256769D01*
X773959Y256801D01*
X774042Y256830D01*
X774126Y256855D01*
X774210Y256876D01*
X774296Y256893D01*
X774382Y256907D01*
X774469Y256916D01*
X774557Y256922D01*
X774644Y256924D01*
X779780Y256924D01*
X779780Y261578D02*
X772668Y261578D01*
X779780Y259602D02*
X779780Y263553D01*
X775781Y60238D02*
X775781Y59052D01*
X775781Y60238D02*
X771830Y60238D01*
X771830Y57867D01*
X771832Y57789D01*
X771838Y57712D01*
X771847Y57635D01*
X771860Y57559D01*
X771877Y57483D01*
X771898Y57408D01*
X771922Y57335D01*
X771950Y57262D01*
X771982Y57191D01*
X772017Y57122D01*
X772055Y57055D01*
X772096Y56989D01*
X772141Y56926D01*
X772189Y56865D01*
X772239Y56806D01*
X772293Y56750D01*
X772349Y56696D01*
X772408Y56646D01*
X772469Y56598D01*
X772532Y56553D01*
X772598Y56512D01*
X772665Y56474D01*
X772734Y56439D01*
X772805Y56407D01*
X772878Y56379D01*
X772951Y56355D01*
X773026Y56334D01*
X773102Y56317D01*
X773178Y56304D01*
X773255Y56295D01*
X773332Y56289D01*
X773410Y56287D01*
X773410Y56286D02*
X777361Y56286D01*
X777361Y56287D02*
X777439Y56289D01*
X777516Y56295D01*
X777593Y56304D01*
X777669Y56317D01*
X777745Y56334D01*
X777820Y56355D01*
X777893Y56379D01*
X777966Y56407D01*
X778037Y56439D01*
X778106Y56474D01*
X778173Y56512D01*
X778239Y56553D01*
X778302Y56598D01*
X778363Y56646D01*
X778422Y56696D01*
X778478Y56750D01*
X778532Y56806D01*
X778582Y56865D01*
X778630Y56926D01*
X778675Y56989D01*
X778716Y57055D01*
X778754Y57122D01*
X778789Y57191D01*
X778821Y57262D01*
X778849Y57335D01*
X778873Y57408D01*
X778894Y57483D01*
X778911Y57559D01*
X778924Y57635D01*
X778933Y57712D01*
X778939Y57789D01*
X778941Y57867D01*
X778942Y57867D02*
X778942Y60238D01*
X778942Y63602D02*
X771830Y63602D01*
X771830Y67553D02*
X778942Y63602D01*
X778942Y67553D02*
X771830Y67553D01*
X771830Y70917D02*
X778942Y70917D01*
X778942Y72892D01*
X778940Y72978D01*
X778934Y73064D01*
X778925Y73150D01*
X778912Y73235D01*
X778895Y73320D01*
X778875Y73403D01*
X778851Y73486D01*
X778823Y73568D01*
X778792Y73648D01*
X778757Y73727D01*
X778719Y73804D01*
X778677Y73880D01*
X778633Y73954D01*
X778585Y74025D01*
X778534Y74095D01*
X778480Y74162D01*
X778423Y74227D01*
X778363Y74289D01*
X778301Y74349D01*
X778236Y74406D01*
X778169Y74460D01*
X778099Y74511D01*
X778028Y74559D01*
X777954Y74603D01*
X777878Y74645D01*
X777801Y74683D01*
X777722Y74718D01*
X777642Y74749D01*
X777560Y74777D01*
X777477Y74801D01*
X777394Y74821D01*
X777309Y74838D01*
X777224Y74851D01*
X777138Y74860D01*
X777052Y74866D01*
X776966Y74868D01*
X773805Y74868D01*
X773719Y74866D01*
X773633Y74860D01*
X773547Y74851D01*
X773462Y74838D01*
X773377Y74821D01*
X773294Y74801D01*
X773211Y74777D01*
X773129Y74749D01*
X773049Y74718D01*
X772970Y74683D01*
X772893Y74645D01*
X772817Y74603D01*
X772743Y74559D01*
X772672Y74511D01*
X772602Y74460D01*
X772535Y74406D01*
X772470Y74349D01*
X772408Y74289D01*
X772348Y74227D01*
X772291Y74162D01*
X772237Y74095D01*
X772186Y74025D01*
X772138Y73954D01*
X772094Y73880D01*
X772052Y73804D01*
X772014Y73727D01*
X771979Y73648D01*
X771948Y73568D01*
X771920Y73486D01*
X771896Y73403D01*
X771876Y73320D01*
X771859Y73235D01*
X771846Y73150D01*
X771837Y73064D01*
X771831Y72978D01*
X771829Y72892D01*
X771830Y72892D02*
X771830Y70917D01*
X774824Y40378D02*
X774824Y35636D01*
X772454Y38007D02*
X777195Y38007D01*
X779170Y42951D02*
X772058Y45322D01*
X779170Y47693D01*
X779272Y4784D02*
X772160Y2413D01*
X772160Y7154D02*
X779272Y4784D01*
X773938Y6562D02*
X773938Y3006D01*
X774136Y9666D02*
X777296Y9666D01*
X777383Y9668D01*
X777471Y9674D01*
X777558Y9683D01*
X777644Y9697D01*
X777730Y9714D01*
X777814Y9735D01*
X777898Y9760D01*
X777981Y9789D01*
X778062Y9821D01*
X778142Y9856D01*
X778220Y9895D01*
X778297Y9938D01*
X778371Y9984D01*
X778443Y10033D01*
X778513Y10085D01*
X778581Y10141D01*
X778646Y10199D01*
X778709Y10260D01*
X778768Y10324D01*
X778825Y10391D01*
X778879Y10459D01*
X778930Y10531D01*
X778977Y10604D01*
X779022Y10679D01*
X779063Y10757D01*
X779100Y10836D01*
X779134Y10916D01*
X779164Y10998D01*
X779191Y11081D01*
X779214Y11166D01*
X779233Y11251D01*
X779248Y11337D01*
X779260Y11424D01*
X779268Y11511D01*
X779272Y11598D01*
X779272Y11686D01*
X779268Y11773D01*
X779260Y11860D01*
X779248Y11947D01*
X779233Y12033D01*
X779214Y12118D01*
X779191Y12203D01*
X779164Y12286D01*
X779134Y12368D01*
X779100Y12448D01*
X779063Y12527D01*
X779022Y12605D01*
X778977Y12680D01*
X778930Y12753D01*
X778879Y12825D01*
X778825Y12893D01*
X778768Y12960D01*
X778709Y13024D01*
X778646Y13085D01*
X778581Y13143D01*
X778513Y13199D01*
X778443Y13251D01*
X778371Y13300D01*
X778297Y13346D01*
X778220Y13389D01*
X778142Y13428D01*
X778062Y13463D01*
X777981Y13495D01*
X777898Y13524D01*
X777814Y13549D01*
X777730Y13570D01*
X777644Y13587D01*
X777558Y13601D01*
X777471Y13610D01*
X777383Y13616D01*
X777296Y13618D01*
X777296Y13617D02*
X774136Y13617D01*
X774136Y13618D02*
X774049Y13616D01*
X773961Y13610D01*
X773874Y13601D01*
X773788Y13587D01*
X773702Y13570D01*
X773618Y13549D01*
X773534Y13524D01*
X773451Y13495D01*
X773370Y13463D01*
X773290Y13428D01*
X773212Y13389D01*
X773135Y13346D01*
X773061Y13300D01*
X772989Y13251D01*
X772919Y13199D01*
X772851Y13143D01*
X772786Y13085D01*
X772723Y13024D01*
X772664Y12960D01*
X772607Y12893D01*
X772553Y12825D01*
X772502Y12753D01*
X772455Y12680D01*
X772410Y12605D01*
X772369Y12527D01*
X772332Y12448D01*
X772298Y12368D01*
X772268Y12286D01*
X772241Y12203D01*
X772218Y12118D01*
X772199Y12033D01*
X772184Y11947D01*
X772172Y11860D01*
X772164Y11773D01*
X772160Y11686D01*
X772160Y11598D01*
X772164Y11511D01*
X772172Y11424D01*
X772184Y11337D01*
X772199Y11251D01*
X772218Y11166D01*
X772241Y11081D01*
X772268Y10998D01*
X772298Y10916D01*
X772332Y10836D01*
X772369Y10757D01*
X772410Y10679D01*
X772455Y10604D01*
X772502Y10531D01*
X772553Y10459D01*
X772607Y10391D01*
X772664Y10324D01*
X772723Y10260D01*
X772786Y10199D01*
X772851Y10141D01*
X772919Y10085D01*
X772989Y10033D01*
X773061Y9984D01*
X773135Y9938D01*
X773212Y9895D01*
X773290Y9856D01*
X773370Y9821D01*
X773451Y9789D01*
X773534Y9760D01*
X773618Y9735D01*
X773702Y9714D01*
X773788Y9697D01*
X773874Y9683D01*
X773961Y9674D01*
X774049Y9668D01*
X774136Y9666D01*
X774136Y16753D02*
X779272Y16753D01*
X774136Y16752D02*
X774049Y16754D01*
X773961Y16760D01*
X773874Y16769D01*
X773788Y16783D01*
X773702Y16800D01*
X773618Y16821D01*
X773534Y16846D01*
X773451Y16875D01*
X773370Y16907D01*
X773290Y16942D01*
X773212Y16981D01*
X773135Y17024D01*
X773061Y17070D01*
X772989Y17119D01*
X772919Y17171D01*
X772851Y17227D01*
X772786Y17285D01*
X772723Y17346D01*
X772664Y17410D01*
X772607Y17477D01*
X772553Y17545D01*
X772502Y17617D01*
X772455Y17690D01*
X772410Y17765D01*
X772369Y17843D01*
X772332Y17922D01*
X772298Y18002D01*
X772268Y18084D01*
X772241Y18167D01*
X772218Y18252D01*
X772199Y18337D01*
X772184Y18423D01*
X772172Y18510D01*
X772164Y18597D01*
X772160Y18684D01*
X772160Y18772D01*
X772164Y18859D01*
X772172Y18946D01*
X772184Y19033D01*
X772199Y19119D01*
X772218Y19204D01*
X772241Y19289D01*
X772268Y19372D01*
X772298Y19454D01*
X772332Y19534D01*
X772369Y19613D01*
X772410Y19691D01*
X772455Y19766D01*
X772502Y19839D01*
X772553Y19911D01*
X772607Y19979D01*
X772664Y20046D01*
X772723Y20110D01*
X772786Y20171D01*
X772851Y20229D01*
X772919Y20285D01*
X772989Y20337D01*
X773061Y20386D01*
X773135Y20432D01*
X773212Y20475D01*
X773290Y20514D01*
X773370Y20549D01*
X773451Y20581D01*
X773534Y20610D01*
X773618Y20635D01*
X773702Y20656D01*
X773788Y20673D01*
X773874Y20687D01*
X773961Y20696D01*
X774049Y20702D01*
X774136Y20704D01*
X779272Y20704D01*
X779272Y25358D02*
X772160Y25358D01*
X779272Y23382D02*
X779272Y27333D01*
X958661Y294510D02*
X958661Y295696D01*
X954710Y295696D01*
X954710Y293325D01*
X954712Y293247D01*
X954718Y293170D01*
X954727Y293093D01*
X954740Y293017D01*
X954757Y292941D01*
X954778Y292866D01*
X954802Y292793D01*
X954830Y292720D01*
X954862Y292649D01*
X954897Y292580D01*
X954935Y292513D01*
X954976Y292447D01*
X955021Y292384D01*
X955069Y292323D01*
X955119Y292264D01*
X955173Y292208D01*
X955229Y292154D01*
X955288Y292104D01*
X955349Y292056D01*
X955412Y292011D01*
X955478Y291970D01*
X955545Y291932D01*
X955614Y291897D01*
X955685Y291865D01*
X955758Y291837D01*
X955831Y291813D01*
X955906Y291792D01*
X955982Y291775D01*
X956058Y291762D01*
X956135Y291753D01*
X956212Y291747D01*
X956290Y291745D01*
X956290Y291744D02*
X960241Y291744D01*
X960241Y291745D02*
X960319Y291747D01*
X960396Y291753D01*
X960473Y291762D01*
X960549Y291775D01*
X960625Y291792D01*
X960700Y291813D01*
X960773Y291837D01*
X960846Y291865D01*
X960917Y291897D01*
X960986Y291932D01*
X961053Y291970D01*
X961119Y292011D01*
X961182Y292056D01*
X961243Y292104D01*
X961302Y292154D01*
X961358Y292208D01*
X961412Y292264D01*
X961462Y292323D01*
X961510Y292384D01*
X961555Y292447D01*
X961596Y292513D01*
X961634Y292580D01*
X961669Y292649D01*
X961701Y292720D01*
X961729Y292793D01*
X961753Y292866D01*
X961774Y292941D01*
X961791Y293017D01*
X961804Y293093D01*
X961813Y293170D01*
X961819Y293247D01*
X961821Y293325D01*
X961822Y293325D02*
X961822Y295696D01*
X961822Y299060D02*
X954710Y299060D01*
X954710Y303011D02*
X961822Y299060D01*
X961822Y303011D02*
X954710Y303011D01*
X954710Y306375D02*
X961822Y306375D01*
X961822Y308350D01*
X961820Y308436D01*
X961814Y308522D01*
X961805Y308608D01*
X961792Y308693D01*
X961775Y308778D01*
X961755Y308861D01*
X961731Y308944D01*
X961703Y309026D01*
X961672Y309106D01*
X961637Y309185D01*
X961599Y309262D01*
X961557Y309338D01*
X961513Y309412D01*
X961465Y309483D01*
X961414Y309553D01*
X961360Y309620D01*
X961303Y309685D01*
X961243Y309747D01*
X961181Y309807D01*
X961116Y309864D01*
X961049Y309918D01*
X960979Y309969D01*
X960908Y310017D01*
X960834Y310061D01*
X960758Y310103D01*
X960681Y310141D01*
X960602Y310176D01*
X960522Y310207D01*
X960440Y310235D01*
X960357Y310259D01*
X960274Y310279D01*
X960189Y310296D01*
X960104Y310309D01*
X960018Y310318D01*
X959932Y310324D01*
X959846Y310326D01*
X956685Y310326D01*
X956599Y310324D01*
X956513Y310318D01*
X956427Y310309D01*
X956342Y310296D01*
X956257Y310279D01*
X956174Y310259D01*
X956091Y310235D01*
X956009Y310207D01*
X955929Y310176D01*
X955850Y310141D01*
X955773Y310103D01*
X955697Y310061D01*
X955623Y310017D01*
X955552Y309969D01*
X955482Y309918D01*
X955415Y309864D01*
X955350Y309807D01*
X955288Y309747D01*
X955228Y309685D01*
X955171Y309620D01*
X955117Y309553D01*
X955066Y309483D01*
X955018Y309412D01*
X954974Y309338D01*
X954932Y309262D01*
X954894Y309185D01*
X954859Y309106D01*
X954828Y309026D01*
X954800Y308944D01*
X954776Y308861D01*
X954756Y308778D01*
X954739Y308693D01*
X954726Y308608D01*
X954717Y308522D01*
X954711Y308436D01*
X954709Y308350D01*
X954710Y308350D02*
X954710Y306375D01*
X957704Y275836D02*
X957704Y271094D01*
X955334Y273465D02*
X960075Y273465D01*
X962050Y278409D02*
X954938Y280780D01*
X962050Y283151D01*
X962152Y240242D02*
X955040Y237871D01*
X955040Y242612D02*
X962152Y240242D01*
X956818Y242020D02*
X956818Y238464D01*
X957016Y245124D02*
X960176Y245124D01*
X960263Y245126D01*
X960351Y245132D01*
X960438Y245141D01*
X960524Y245155D01*
X960610Y245172D01*
X960694Y245193D01*
X960778Y245218D01*
X960861Y245247D01*
X960942Y245279D01*
X961022Y245314D01*
X961100Y245353D01*
X961177Y245396D01*
X961251Y245442D01*
X961323Y245491D01*
X961393Y245543D01*
X961461Y245599D01*
X961526Y245657D01*
X961589Y245718D01*
X961648Y245782D01*
X961705Y245849D01*
X961759Y245917D01*
X961810Y245989D01*
X961857Y246062D01*
X961902Y246137D01*
X961943Y246215D01*
X961980Y246294D01*
X962014Y246374D01*
X962044Y246456D01*
X962071Y246539D01*
X962094Y246624D01*
X962113Y246709D01*
X962128Y246795D01*
X962140Y246882D01*
X962148Y246969D01*
X962152Y247056D01*
X962152Y247144D01*
X962148Y247231D01*
X962140Y247318D01*
X962128Y247405D01*
X962113Y247491D01*
X962094Y247576D01*
X962071Y247661D01*
X962044Y247744D01*
X962014Y247826D01*
X961980Y247906D01*
X961943Y247985D01*
X961902Y248063D01*
X961857Y248138D01*
X961810Y248211D01*
X961759Y248283D01*
X961705Y248351D01*
X961648Y248418D01*
X961589Y248482D01*
X961526Y248543D01*
X961461Y248601D01*
X961393Y248657D01*
X961323Y248709D01*
X961251Y248758D01*
X961177Y248804D01*
X961100Y248847D01*
X961022Y248886D01*
X960942Y248921D01*
X960861Y248953D01*
X960778Y248982D01*
X960694Y249007D01*
X960610Y249028D01*
X960524Y249045D01*
X960438Y249059D01*
X960351Y249068D01*
X960263Y249074D01*
X960176Y249076D01*
X960176Y249075D02*
X957016Y249075D01*
X957016Y249076D02*
X956929Y249074D01*
X956841Y249068D01*
X956754Y249059D01*
X956668Y249045D01*
X956582Y249028D01*
X956498Y249007D01*
X956414Y248982D01*
X956331Y248953D01*
X956250Y248921D01*
X956170Y248886D01*
X956092Y248847D01*
X956015Y248804D01*
X955941Y248758D01*
X955869Y248709D01*
X955799Y248657D01*
X955731Y248601D01*
X955666Y248543D01*
X955603Y248482D01*
X955544Y248418D01*
X955487Y248351D01*
X955433Y248283D01*
X955382Y248211D01*
X955335Y248138D01*
X955290Y248063D01*
X955249Y247985D01*
X955212Y247906D01*
X955178Y247826D01*
X955148Y247744D01*
X955121Y247661D01*
X955098Y247576D01*
X955079Y247491D01*
X955064Y247405D01*
X955052Y247318D01*
X955044Y247231D01*
X955040Y247144D01*
X955040Y247056D01*
X955044Y246969D01*
X955052Y246882D01*
X955064Y246795D01*
X955079Y246709D01*
X955098Y246624D01*
X955121Y246539D01*
X955148Y246456D01*
X955178Y246374D01*
X955212Y246294D01*
X955249Y246215D01*
X955290Y246137D01*
X955335Y246062D01*
X955382Y245989D01*
X955433Y245917D01*
X955487Y245849D01*
X955544Y245782D01*
X955603Y245718D01*
X955666Y245657D01*
X955731Y245599D01*
X955799Y245543D01*
X955869Y245491D01*
X955941Y245442D01*
X956015Y245396D01*
X956092Y245353D01*
X956170Y245314D01*
X956250Y245279D01*
X956331Y245247D01*
X956414Y245218D01*
X956498Y245193D01*
X956582Y245172D01*
X956668Y245155D01*
X956754Y245141D01*
X956841Y245132D01*
X956929Y245126D01*
X957016Y245124D01*
X957016Y252211D02*
X962152Y252211D01*
X957016Y252210D02*
X956929Y252212D01*
X956841Y252218D01*
X956754Y252227D01*
X956668Y252241D01*
X956582Y252258D01*
X956498Y252279D01*
X956414Y252304D01*
X956331Y252333D01*
X956250Y252365D01*
X956170Y252400D01*
X956092Y252439D01*
X956015Y252482D01*
X955941Y252528D01*
X955869Y252577D01*
X955799Y252629D01*
X955731Y252685D01*
X955666Y252743D01*
X955603Y252804D01*
X955544Y252868D01*
X955487Y252935D01*
X955433Y253003D01*
X955382Y253075D01*
X955335Y253148D01*
X955290Y253223D01*
X955249Y253301D01*
X955212Y253380D01*
X955178Y253460D01*
X955148Y253542D01*
X955121Y253625D01*
X955098Y253710D01*
X955079Y253795D01*
X955064Y253881D01*
X955052Y253968D01*
X955044Y254055D01*
X955040Y254142D01*
X955040Y254230D01*
X955044Y254317D01*
X955052Y254404D01*
X955064Y254491D01*
X955079Y254577D01*
X955098Y254662D01*
X955121Y254747D01*
X955148Y254830D01*
X955178Y254912D01*
X955212Y254992D01*
X955249Y255071D01*
X955290Y255149D01*
X955335Y255224D01*
X955382Y255297D01*
X955433Y255369D01*
X955487Y255437D01*
X955544Y255504D01*
X955603Y255568D01*
X955666Y255629D01*
X955731Y255687D01*
X955799Y255743D01*
X955869Y255795D01*
X955941Y255844D01*
X956015Y255890D01*
X956092Y255933D01*
X956170Y255972D01*
X956250Y256007D01*
X956331Y256039D01*
X956414Y256068D01*
X956498Y256093D01*
X956582Y256114D01*
X956668Y256131D01*
X956754Y256145D01*
X956841Y256154D01*
X956929Y256160D01*
X957016Y256162D01*
X962152Y256162D01*
X962152Y260816D02*
X955040Y260816D01*
X962152Y258840D02*
X962152Y262791D01*
X958661Y59222D02*
X958661Y58036D01*
X958661Y59222D02*
X954710Y59222D01*
X954710Y56851D01*
X954712Y56773D01*
X954718Y56696D01*
X954727Y56619D01*
X954740Y56543D01*
X954757Y56467D01*
X954778Y56392D01*
X954802Y56319D01*
X954830Y56246D01*
X954862Y56175D01*
X954897Y56106D01*
X954935Y56039D01*
X954976Y55973D01*
X955021Y55910D01*
X955069Y55849D01*
X955119Y55790D01*
X955173Y55734D01*
X955229Y55680D01*
X955288Y55630D01*
X955349Y55582D01*
X955412Y55537D01*
X955478Y55496D01*
X955545Y55458D01*
X955614Y55423D01*
X955685Y55391D01*
X955758Y55363D01*
X955831Y55339D01*
X955906Y55318D01*
X955982Y55301D01*
X956058Y55288D01*
X956135Y55279D01*
X956212Y55273D01*
X956290Y55271D01*
X956290Y55270D02*
X960241Y55270D01*
X960241Y55271D02*
X960319Y55273D01*
X960396Y55279D01*
X960473Y55288D01*
X960549Y55301D01*
X960625Y55318D01*
X960700Y55339D01*
X960773Y55363D01*
X960846Y55391D01*
X960917Y55423D01*
X960986Y55458D01*
X961053Y55496D01*
X961119Y55537D01*
X961182Y55582D01*
X961243Y55630D01*
X961302Y55680D01*
X961358Y55734D01*
X961412Y55790D01*
X961462Y55849D01*
X961510Y55910D01*
X961555Y55973D01*
X961596Y56039D01*
X961634Y56106D01*
X961669Y56175D01*
X961701Y56246D01*
X961729Y56319D01*
X961753Y56392D01*
X961774Y56467D01*
X961791Y56543D01*
X961804Y56619D01*
X961813Y56696D01*
X961819Y56773D01*
X961821Y56851D01*
X961822Y56851D02*
X961822Y59222D01*
X961822Y62586D02*
X954710Y62586D01*
X954710Y66537D02*
X961822Y62586D01*
X961822Y66537D02*
X954710Y66537D01*
X954710Y69901D02*
X961822Y69901D01*
X961822Y71876D01*
X961820Y71962D01*
X961814Y72048D01*
X961805Y72134D01*
X961792Y72219D01*
X961775Y72304D01*
X961755Y72387D01*
X961731Y72470D01*
X961703Y72552D01*
X961672Y72632D01*
X961637Y72711D01*
X961599Y72788D01*
X961557Y72864D01*
X961513Y72938D01*
X961465Y73009D01*
X961414Y73079D01*
X961360Y73146D01*
X961303Y73211D01*
X961243Y73273D01*
X961181Y73333D01*
X961116Y73390D01*
X961049Y73444D01*
X960979Y73495D01*
X960908Y73543D01*
X960834Y73587D01*
X960758Y73629D01*
X960681Y73667D01*
X960602Y73702D01*
X960522Y73733D01*
X960440Y73761D01*
X960357Y73785D01*
X960274Y73805D01*
X960189Y73822D01*
X960104Y73835D01*
X960018Y73844D01*
X959932Y73850D01*
X959846Y73852D01*
X956685Y73852D01*
X956599Y73850D01*
X956513Y73844D01*
X956427Y73835D01*
X956342Y73822D01*
X956257Y73805D01*
X956174Y73785D01*
X956091Y73761D01*
X956009Y73733D01*
X955929Y73702D01*
X955850Y73667D01*
X955773Y73629D01*
X955697Y73587D01*
X955623Y73543D01*
X955552Y73495D01*
X955482Y73444D01*
X955415Y73390D01*
X955350Y73333D01*
X955288Y73273D01*
X955228Y73211D01*
X955171Y73146D01*
X955117Y73079D01*
X955066Y73009D01*
X955018Y72938D01*
X954974Y72864D01*
X954932Y72788D01*
X954894Y72711D01*
X954859Y72632D01*
X954828Y72552D01*
X954800Y72470D01*
X954776Y72387D01*
X954756Y72304D01*
X954739Y72219D01*
X954726Y72134D01*
X954717Y72048D01*
X954711Y71962D01*
X954709Y71876D01*
X954710Y71876D02*
X954710Y69901D01*
X957704Y39362D02*
X957704Y34620D01*
X955334Y36991D02*
X960075Y36991D01*
X962050Y41935D02*
X954938Y44306D01*
X962050Y46677D01*
X962152Y3768D02*
X955040Y1397D01*
X955040Y6138D02*
X962152Y3768D01*
X956818Y5546D02*
X956818Y1990D01*
X957016Y8650D02*
X960176Y8650D01*
X960263Y8652D01*
X960351Y8658D01*
X960438Y8667D01*
X960524Y8681D01*
X960610Y8698D01*
X960694Y8719D01*
X960778Y8744D01*
X960861Y8773D01*
X960942Y8805D01*
X961022Y8840D01*
X961100Y8879D01*
X961177Y8922D01*
X961251Y8968D01*
X961323Y9017D01*
X961393Y9069D01*
X961461Y9125D01*
X961526Y9183D01*
X961589Y9244D01*
X961648Y9308D01*
X961705Y9375D01*
X961759Y9443D01*
X961810Y9515D01*
X961857Y9588D01*
X961902Y9663D01*
X961943Y9741D01*
X961980Y9820D01*
X962014Y9900D01*
X962044Y9982D01*
X962071Y10065D01*
X962094Y10150D01*
X962113Y10235D01*
X962128Y10321D01*
X962140Y10408D01*
X962148Y10495D01*
X962152Y10582D01*
X962152Y10670D01*
X962148Y10757D01*
X962140Y10844D01*
X962128Y10931D01*
X962113Y11017D01*
X962094Y11102D01*
X962071Y11187D01*
X962044Y11270D01*
X962014Y11352D01*
X961980Y11432D01*
X961943Y11511D01*
X961902Y11589D01*
X961857Y11664D01*
X961810Y11737D01*
X961759Y11809D01*
X961705Y11877D01*
X961648Y11944D01*
X961589Y12008D01*
X961526Y12069D01*
X961461Y12127D01*
X961393Y12183D01*
X961323Y12235D01*
X961251Y12284D01*
X961177Y12330D01*
X961100Y12373D01*
X961022Y12412D01*
X960942Y12447D01*
X960861Y12479D01*
X960778Y12508D01*
X960694Y12533D01*
X960610Y12554D01*
X960524Y12571D01*
X960438Y12585D01*
X960351Y12594D01*
X960263Y12600D01*
X960176Y12602D01*
X960176Y12601D02*
X957016Y12601D01*
X957016Y12602D02*
X956929Y12600D01*
X956841Y12594D01*
X956754Y12585D01*
X956668Y12571D01*
X956582Y12554D01*
X956498Y12533D01*
X956414Y12508D01*
X956331Y12479D01*
X956250Y12447D01*
X956170Y12412D01*
X956092Y12373D01*
X956015Y12330D01*
X955941Y12284D01*
X955869Y12235D01*
X955799Y12183D01*
X955731Y12127D01*
X955666Y12069D01*
X955603Y12008D01*
X955544Y11944D01*
X955487Y11877D01*
X955433Y11809D01*
X955382Y11737D01*
X955335Y11664D01*
X955290Y11589D01*
X955249Y11511D01*
X955212Y11432D01*
X955178Y11352D01*
X955148Y11270D01*
X955121Y11187D01*
X955098Y11102D01*
X955079Y11017D01*
X955064Y10931D01*
X955052Y10844D01*
X955044Y10757D01*
X955040Y10670D01*
X955040Y10582D01*
X955044Y10495D01*
X955052Y10408D01*
X955064Y10321D01*
X955079Y10235D01*
X955098Y10150D01*
X955121Y10065D01*
X955148Y9982D01*
X955178Y9900D01*
X955212Y9820D01*
X955249Y9741D01*
X955290Y9663D01*
X955335Y9588D01*
X955382Y9515D01*
X955433Y9443D01*
X955487Y9375D01*
X955544Y9308D01*
X955603Y9244D01*
X955666Y9183D01*
X955731Y9125D01*
X955799Y9069D01*
X955869Y9017D01*
X955941Y8968D01*
X956015Y8922D01*
X956092Y8879D01*
X956170Y8840D01*
X956250Y8805D01*
X956331Y8773D01*
X956414Y8744D01*
X956498Y8719D01*
X956582Y8698D01*
X956668Y8681D01*
X956754Y8667D01*
X956841Y8658D01*
X956929Y8652D01*
X957016Y8650D01*
X957016Y15737D02*
X962152Y15737D01*
X957016Y15736D02*
X956929Y15738D01*
X956841Y15744D01*
X956754Y15753D01*
X956668Y15767D01*
X956582Y15784D01*
X956498Y15805D01*
X956414Y15830D01*
X956331Y15859D01*
X956250Y15891D01*
X956170Y15926D01*
X956092Y15965D01*
X956015Y16008D01*
X955941Y16054D01*
X955869Y16103D01*
X955799Y16155D01*
X955731Y16211D01*
X955666Y16269D01*
X955603Y16330D01*
X955544Y16394D01*
X955487Y16461D01*
X955433Y16529D01*
X955382Y16601D01*
X955335Y16674D01*
X955290Y16749D01*
X955249Y16827D01*
X955212Y16906D01*
X955178Y16986D01*
X955148Y17068D01*
X955121Y17151D01*
X955098Y17236D01*
X955079Y17321D01*
X955064Y17407D01*
X955052Y17494D01*
X955044Y17581D01*
X955040Y17668D01*
X955040Y17756D01*
X955044Y17843D01*
X955052Y17930D01*
X955064Y18017D01*
X955079Y18103D01*
X955098Y18188D01*
X955121Y18273D01*
X955148Y18356D01*
X955178Y18438D01*
X955212Y18518D01*
X955249Y18597D01*
X955290Y18675D01*
X955335Y18750D01*
X955382Y18823D01*
X955433Y18895D01*
X955487Y18963D01*
X955544Y19030D01*
X955603Y19094D01*
X955666Y19155D01*
X955731Y19213D01*
X955799Y19269D01*
X955869Y19321D01*
X955941Y19370D01*
X956015Y19416D01*
X956092Y19459D01*
X956170Y19498D01*
X956250Y19533D01*
X956331Y19565D01*
X956414Y19594D01*
X956498Y19619D01*
X956582Y19640D01*
X956668Y19657D01*
X956754Y19671D01*
X956841Y19680D01*
X956929Y19686D01*
X957016Y19688D01*
X962152Y19688D01*
X962152Y24342D02*
X955040Y24342D01*
X962152Y22366D02*
X962152Y26317D01*
X1144081Y294256D02*
X1144081Y295442D01*
X1140130Y295442D01*
X1140130Y293071D01*
X1140132Y292993D01*
X1140138Y292916D01*
X1140147Y292839D01*
X1140160Y292763D01*
X1140177Y292687D01*
X1140198Y292612D01*
X1140222Y292539D01*
X1140250Y292466D01*
X1140282Y292395D01*
X1140317Y292326D01*
X1140355Y292259D01*
X1140396Y292193D01*
X1140441Y292130D01*
X1140489Y292069D01*
X1140539Y292010D01*
X1140593Y291954D01*
X1140649Y291900D01*
X1140708Y291850D01*
X1140769Y291802D01*
X1140832Y291757D01*
X1140898Y291716D01*
X1140965Y291678D01*
X1141034Y291643D01*
X1141105Y291611D01*
X1141178Y291583D01*
X1141251Y291559D01*
X1141326Y291538D01*
X1141402Y291521D01*
X1141478Y291508D01*
X1141555Y291499D01*
X1141632Y291493D01*
X1141710Y291491D01*
X1141710Y291490D02*
X1145661Y291490D01*
X1145661Y291491D02*
X1145739Y291493D01*
X1145816Y291499D01*
X1145893Y291508D01*
X1145969Y291521D01*
X1146045Y291538D01*
X1146120Y291559D01*
X1146193Y291583D01*
X1146266Y291611D01*
X1146337Y291643D01*
X1146406Y291678D01*
X1146473Y291716D01*
X1146539Y291757D01*
X1146602Y291802D01*
X1146663Y291850D01*
X1146722Y291900D01*
X1146778Y291954D01*
X1146832Y292010D01*
X1146882Y292069D01*
X1146930Y292130D01*
X1146975Y292193D01*
X1147016Y292259D01*
X1147054Y292326D01*
X1147089Y292395D01*
X1147121Y292466D01*
X1147149Y292539D01*
X1147173Y292612D01*
X1147194Y292687D01*
X1147211Y292763D01*
X1147224Y292839D01*
X1147233Y292916D01*
X1147239Y292993D01*
X1147241Y293071D01*
X1147242Y293071D02*
X1147242Y295442D01*
X1147242Y298806D02*
X1140130Y298806D01*
X1140130Y302757D02*
X1147242Y298806D01*
X1147242Y302757D02*
X1140130Y302757D01*
X1140130Y306121D02*
X1147242Y306121D01*
X1147242Y308096D01*
X1147240Y308182D01*
X1147234Y308268D01*
X1147225Y308354D01*
X1147212Y308439D01*
X1147195Y308524D01*
X1147175Y308607D01*
X1147151Y308690D01*
X1147123Y308772D01*
X1147092Y308852D01*
X1147057Y308931D01*
X1147019Y309008D01*
X1146977Y309084D01*
X1146933Y309158D01*
X1146885Y309229D01*
X1146834Y309299D01*
X1146780Y309366D01*
X1146723Y309431D01*
X1146663Y309493D01*
X1146601Y309553D01*
X1146536Y309610D01*
X1146469Y309664D01*
X1146399Y309715D01*
X1146328Y309763D01*
X1146254Y309807D01*
X1146178Y309849D01*
X1146101Y309887D01*
X1146022Y309922D01*
X1145942Y309953D01*
X1145860Y309981D01*
X1145777Y310005D01*
X1145694Y310025D01*
X1145609Y310042D01*
X1145524Y310055D01*
X1145438Y310064D01*
X1145352Y310070D01*
X1145266Y310072D01*
X1142105Y310072D01*
X1142019Y310070D01*
X1141933Y310064D01*
X1141847Y310055D01*
X1141762Y310042D01*
X1141677Y310025D01*
X1141594Y310005D01*
X1141511Y309981D01*
X1141429Y309953D01*
X1141349Y309922D01*
X1141270Y309887D01*
X1141193Y309849D01*
X1141117Y309807D01*
X1141043Y309763D01*
X1140972Y309715D01*
X1140902Y309664D01*
X1140835Y309610D01*
X1140770Y309553D01*
X1140708Y309493D01*
X1140648Y309431D01*
X1140591Y309366D01*
X1140537Y309299D01*
X1140486Y309229D01*
X1140438Y309158D01*
X1140394Y309084D01*
X1140352Y309008D01*
X1140314Y308931D01*
X1140279Y308852D01*
X1140248Y308772D01*
X1140220Y308690D01*
X1140196Y308607D01*
X1140176Y308524D01*
X1140159Y308439D01*
X1140146Y308354D01*
X1140137Y308268D01*
X1140131Y308182D01*
X1140129Y308096D01*
X1140130Y308096D02*
X1140130Y306121D01*
X1143124Y275582D02*
X1143124Y270840D01*
X1140754Y273211D02*
X1145495Y273211D01*
X1147470Y278155D02*
X1140358Y280526D01*
X1147470Y282897D01*
X1147572Y239988D02*
X1140460Y237617D01*
X1140460Y242358D02*
X1147572Y239988D01*
X1142238Y241766D02*
X1142238Y238210D01*
X1142436Y244870D02*
X1145596Y244870D01*
X1145683Y244872D01*
X1145771Y244878D01*
X1145858Y244887D01*
X1145944Y244901D01*
X1146030Y244918D01*
X1146114Y244939D01*
X1146198Y244964D01*
X1146281Y244993D01*
X1146362Y245025D01*
X1146442Y245060D01*
X1146520Y245099D01*
X1146597Y245142D01*
X1146671Y245188D01*
X1146743Y245237D01*
X1146813Y245289D01*
X1146881Y245345D01*
X1146946Y245403D01*
X1147009Y245464D01*
X1147068Y245528D01*
X1147125Y245595D01*
X1147179Y245663D01*
X1147230Y245735D01*
X1147277Y245808D01*
X1147322Y245883D01*
X1147363Y245961D01*
X1147400Y246040D01*
X1147434Y246120D01*
X1147464Y246202D01*
X1147491Y246285D01*
X1147514Y246370D01*
X1147533Y246455D01*
X1147548Y246541D01*
X1147560Y246628D01*
X1147568Y246715D01*
X1147572Y246802D01*
X1147572Y246890D01*
X1147568Y246977D01*
X1147560Y247064D01*
X1147548Y247151D01*
X1147533Y247237D01*
X1147514Y247322D01*
X1147491Y247407D01*
X1147464Y247490D01*
X1147434Y247572D01*
X1147400Y247652D01*
X1147363Y247731D01*
X1147322Y247809D01*
X1147277Y247884D01*
X1147230Y247957D01*
X1147179Y248029D01*
X1147125Y248097D01*
X1147068Y248164D01*
X1147009Y248228D01*
X1146946Y248289D01*
X1146881Y248347D01*
X1146813Y248403D01*
X1146743Y248455D01*
X1146671Y248504D01*
X1146597Y248550D01*
X1146520Y248593D01*
X1146442Y248632D01*
X1146362Y248667D01*
X1146281Y248699D01*
X1146198Y248728D01*
X1146114Y248753D01*
X1146030Y248774D01*
X1145944Y248791D01*
X1145858Y248805D01*
X1145771Y248814D01*
X1145683Y248820D01*
X1145596Y248822D01*
X1145596Y248821D02*
X1142436Y248821D01*
X1142436Y248822D02*
X1142349Y248820D01*
X1142261Y248814D01*
X1142174Y248805D01*
X1142088Y248791D01*
X1142002Y248774D01*
X1141918Y248753D01*
X1141834Y248728D01*
X1141751Y248699D01*
X1141670Y248667D01*
X1141590Y248632D01*
X1141512Y248593D01*
X1141435Y248550D01*
X1141361Y248504D01*
X1141289Y248455D01*
X1141219Y248403D01*
X1141151Y248347D01*
X1141086Y248289D01*
X1141023Y248228D01*
X1140964Y248164D01*
X1140907Y248097D01*
X1140853Y248029D01*
X1140802Y247957D01*
X1140755Y247884D01*
X1140710Y247809D01*
X1140669Y247731D01*
X1140632Y247652D01*
X1140598Y247572D01*
X1140568Y247490D01*
X1140541Y247407D01*
X1140518Y247322D01*
X1140499Y247237D01*
X1140484Y247151D01*
X1140472Y247064D01*
X1140464Y246977D01*
X1140460Y246890D01*
X1140460Y246802D01*
X1140464Y246715D01*
X1140472Y246628D01*
X1140484Y246541D01*
X1140499Y246455D01*
X1140518Y246370D01*
X1140541Y246285D01*
X1140568Y246202D01*
X1140598Y246120D01*
X1140632Y246040D01*
X1140669Y245961D01*
X1140710Y245883D01*
X1140755Y245808D01*
X1140802Y245735D01*
X1140853Y245663D01*
X1140907Y245595D01*
X1140964Y245528D01*
X1141023Y245464D01*
X1141086Y245403D01*
X1141151Y245345D01*
X1141219Y245289D01*
X1141289Y245237D01*
X1141361Y245188D01*
X1141435Y245142D01*
X1141512Y245099D01*
X1141590Y245060D01*
X1141670Y245025D01*
X1141751Y244993D01*
X1141834Y244964D01*
X1141918Y244939D01*
X1142002Y244918D01*
X1142088Y244901D01*
X1142174Y244887D01*
X1142261Y244878D01*
X1142349Y244872D01*
X1142436Y244870D01*
X1142436Y251957D02*
X1147572Y251957D01*
X1142436Y251956D02*
X1142349Y251958D01*
X1142261Y251964D01*
X1142174Y251973D01*
X1142088Y251987D01*
X1142002Y252004D01*
X1141918Y252025D01*
X1141834Y252050D01*
X1141751Y252079D01*
X1141670Y252111D01*
X1141590Y252146D01*
X1141512Y252185D01*
X1141435Y252228D01*
X1141361Y252274D01*
X1141289Y252323D01*
X1141219Y252375D01*
X1141151Y252431D01*
X1141086Y252489D01*
X1141023Y252550D01*
X1140964Y252614D01*
X1140907Y252681D01*
X1140853Y252749D01*
X1140802Y252821D01*
X1140755Y252894D01*
X1140710Y252969D01*
X1140669Y253047D01*
X1140632Y253126D01*
X1140598Y253206D01*
X1140568Y253288D01*
X1140541Y253371D01*
X1140518Y253456D01*
X1140499Y253541D01*
X1140484Y253627D01*
X1140472Y253714D01*
X1140464Y253801D01*
X1140460Y253888D01*
X1140460Y253976D01*
X1140464Y254063D01*
X1140472Y254150D01*
X1140484Y254237D01*
X1140499Y254323D01*
X1140518Y254408D01*
X1140541Y254493D01*
X1140568Y254576D01*
X1140598Y254658D01*
X1140632Y254738D01*
X1140669Y254817D01*
X1140710Y254895D01*
X1140755Y254970D01*
X1140802Y255043D01*
X1140853Y255115D01*
X1140907Y255183D01*
X1140964Y255250D01*
X1141023Y255314D01*
X1141086Y255375D01*
X1141151Y255433D01*
X1141219Y255489D01*
X1141289Y255541D01*
X1141361Y255590D01*
X1141435Y255636D01*
X1141512Y255679D01*
X1141590Y255718D01*
X1141670Y255753D01*
X1141751Y255785D01*
X1141834Y255814D01*
X1141918Y255839D01*
X1142002Y255860D01*
X1142088Y255877D01*
X1142174Y255891D01*
X1142261Y255900D01*
X1142349Y255906D01*
X1142436Y255908D01*
X1147572Y255908D01*
X1147572Y260562D02*
X1140460Y260562D01*
X1147572Y258586D02*
X1147572Y262537D01*
X1143827Y59476D02*
X1143827Y58290D01*
X1143827Y59476D02*
X1139876Y59476D01*
X1139876Y57105D01*
X1139878Y57027D01*
X1139884Y56950D01*
X1139893Y56873D01*
X1139906Y56797D01*
X1139923Y56721D01*
X1139944Y56646D01*
X1139968Y56573D01*
X1139996Y56500D01*
X1140028Y56429D01*
X1140063Y56360D01*
X1140101Y56293D01*
X1140142Y56227D01*
X1140187Y56164D01*
X1140235Y56103D01*
X1140285Y56044D01*
X1140339Y55988D01*
X1140395Y55934D01*
X1140454Y55884D01*
X1140515Y55836D01*
X1140578Y55791D01*
X1140644Y55750D01*
X1140711Y55712D01*
X1140780Y55677D01*
X1140851Y55645D01*
X1140924Y55617D01*
X1140997Y55593D01*
X1141072Y55572D01*
X1141148Y55555D01*
X1141224Y55542D01*
X1141301Y55533D01*
X1141378Y55527D01*
X1141456Y55525D01*
X1141456Y55524D02*
X1145407Y55524D01*
X1145407Y55525D02*
X1145485Y55527D01*
X1145562Y55533D01*
X1145639Y55542D01*
X1145715Y55555D01*
X1145791Y55572D01*
X1145866Y55593D01*
X1145939Y55617D01*
X1146012Y55645D01*
X1146083Y55677D01*
X1146152Y55712D01*
X1146219Y55750D01*
X1146285Y55791D01*
X1146348Y55836D01*
X1146409Y55884D01*
X1146468Y55934D01*
X1146524Y55988D01*
X1146578Y56044D01*
X1146628Y56103D01*
X1146676Y56164D01*
X1146721Y56227D01*
X1146762Y56293D01*
X1146800Y56360D01*
X1146835Y56429D01*
X1146867Y56500D01*
X1146895Y56573D01*
X1146919Y56646D01*
X1146940Y56721D01*
X1146957Y56797D01*
X1146970Y56873D01*
X1146979Y56950D01*
X1146985Y57027D01*
X1146987Y57105D01*
X1146988Y57105D02*
X1146988Y59476D01*
X1146988Y62840D02*
X1139876Y62840D01*
X1139876Y66791D02*
X1146988Y62840D01*
X1146988Y66791D02*
X1139876Y66791D01*
X1139876Y70155D02*
X1146988Y70155D01*
X1146988Y72130D01*
X1146986Y72216D01*
X1146980Y72302D01*
X1146971Y72388D01*
X1146958Y72473D01*
X1146941Y72558D01*
X1146921Y72641D01*
X1146897Y72724D01*
X1146869Y72806D01*
X1146838Y72886D01*
X1146803Y72965D01*
X1146765Y73042D01*
X1146723Y73118D01*
X1146679Y73192D01*
X1146631Y73263D01*
X1146580Y73333D01*
X1146526Y73400D01*
X1146469Y73465D01*
X1146409Y73527D01*
X1146347Y73587D01*
X1146282Y73644D01*
X1146215Y73698D01*
X1146145Y73749D01*
X1146074Y73797D01*
X1146000Y73841D01*
X1145924Y73883D01*
X1145847Y73921D01*
X1145768Y73956D01*
X1145688Y73987D01*
X1145606Y74015D01*
X1145523Y74039D01*
X1145440Y74059D01*
X1145355Y74076D01*
X1145270Y74089D01*
X1145184Y74098D01*
X1145098Y74104D01*
X1145012Y74106D01*
X1141851Y74106D01*
X1141765Y74104D01*
X1141679Y74098D01*
X1141593Y74089D01*
X1141508Y74076D01*
X1141423Y74059D01*
X1141340Y74039D01*
X1141257Y74015D01*
X1141175Y73987D01*
X1141095Y73956D01*
X1141016Y73921D01*
X1140939Y73883D01*
X1140863Y73841D01*
X1140789Y73797D01*
X1140718Y73749D01*
X1140648Y73698D01*
X1140581Y73644D01*
X1140516Y73587D01*
X1140454Y73527D01*
X1140394Y73465D01*
X1140337Y73400D01*
X1140283Y73333D01*
X1140232Y73263D01*
X1140184Y73192D01*
X1140140Y73118D01*
X1140098Y73042D01*
X1140060Y72965D01*
X1140025Y72886D01*
X1139994Y72806D01*
X1139966Y72724D01*
X1139942Y72641D01*
X1139922Y72558D01*
X1139905Y72473D01*
X1139892Y72388D01*
X1139883Y72302D01*
X1139877Y72216D01*
X1139875Y72130D01*
X1139876Y72130D02*
X1139876Y70155D01*
X1142870Y39616D02*
X1142870Y34874D01*
X1140500Y37245D02*
X1145241Y37245D01*
X1147216Y42189D02*
X1140104Y44560D01*
X1147216Y46931D01*
X1147318Y4022D02*
X1140206Y1651D01*
X1140206Y6392D02*
X1147318Y4022D01*
X1141984Y5800D02*
X1141984Y2244D01*
X1142182Y8904D02*
X1145342Y8904D01*
X1145429Y8906D01*
X1145517Y8912D01*
X1145604Y8921D01*
X1145690Y8935D01*
X1145776Y8952D01*
X1145860Y8973D01*
X1145944Y8998D01*
X1146027Y9027D01*
X1146108Y9059D01*
X1146188Y9094D01*
X1146266Y9133D01*
X1146343Y9176D01*
X1146417Y9222D01*
X1146489Y9271D01*
X1146559Y9323D01*
X1146627Y9379D01*
X1146692Y9437D01*
X1146755Y9498D01*
X1146814Y9562D01*
X1146871Y9629D01*
X1146925Y9697D01*
X1146976Y9769D01*
X1147023Y9842D01*
X1147068Y9917D01*
X1147109Y9995D01*
X1147146Y10074D01*
X1147180Y10154D01*
X1147210Y10236D01*
X1147237Y10319D01*
X1147260Y10404D01*
X1147279Y10489D01*
X1147294Y10575D01*
X1147306Y10662D01*
X1147314Y10749D01*
X1147318Y10836D01*
X1147318Y10924D01*
X1147314Y11011D01*
X1147306Y11098D01*
X1147294Y11185D01*
X1147279Y11271D01*
X1147260Y11356D01*
X1147237Y11441D01*
X1147210Y11524D01*
X1147180Y11606D01*
X1147146Y11686D01*
X1147109Y11765D01*
X1147068Y11843D01*
X1147023Y11918D01*
X1146976Y11991D01*
X1146925Y12063D01*
X1146871Y12131D01*
X1146814Y12198D01*
X1146755Y12262D01*
X1146692Y12323D01*
X1146627Y12381D01*
X1146559Y12437D01*
X1146489Y12489D01*
X1146417Y12538D01*
X1146343Y12584D01*
X1146266Y12627D01*
X1146188Y12666D01*
X1146108Y12701D01*
X1146027Y12733D01*
X1145944Y12762D01*
X1145860Y12787D01*
X1145776Y12808D01*
X1145690Y12825D01*
X1145604Y12839D01*
X1145517Y12848D01*
X1145429Y12854D01*
X1145342Y12856D01*
X1145342Y12855D02*
X1142182Y12855D01*
X1142182Y12856D02*
X1142095Y12854D01*
X1142007Y12848D01*
X1141920Y12839D01*
X1141834Y12825D01*
X1141748Y12808D01*
X1141664Y12787D01*
X1141580Y12762D01*
X1141497Y12733D01*
X1141416Y12701D01*
X1141336Y12666D01*
X1141258Y12627D01*
X1141181Y12584D01*
X1141107Y12538D01*
X1141035Y12489D01*
X1140965Y12437D01*
X1140897Y12381D01*
X1140832Y12323D01*
X1140769Y12262D01*
X1140710Y12198D01*
X1140653Y12131D01*
X1140599Y12063D01*
X1140548Y11991D01*
X1140501Y11918D01*
X1140456Y11843D01*
X1140415Y11765D01*
X1140378Y11686D01*
X1140344Y11606D01*
X1140314Y11524D01*
X1140287Y11441D01*
X1140264Y11356D01*
X1140245Y11271D01*
X1140230Y11185D01*
X1140218Y11098D01*
X1140210Y11011D01*
X1140206Y10924D01*
X1140206Y10836D01*
X1140210Y10749D01*
X1140218Y10662D01*
X1140230Y10575D01*
X1140245Y10489D01*
X1140264Y10404D01*
X1140287Y10319D01*
X1140314Y10236D01*
X1140344Y10154D01*
X1140378Y10074D01*
X1140415Y9995D01*
X1140456Y9917D01*
X1140501Y9842D01*
X1140548Y9769D01*
X1140599Y9697D01*
X1140653Y9629D01*
X1140710Y9562D01*
X1140769Y9498D01*
X1140832Y9437D01*
X1140897Y9379D01*
X1140965Y9323D01*
X1141035Y9271D01*
X1141107Y9222D01*
X1141181Y9176D01*
X1141258Y9133D01*
X1141336Y9094D01*
X1141416Y9059D01*
X1141497Y9027D01*
X1141580Y8998D01*
X1141664Y8973D01*
X1141748Y8952D01*
X1141834Y8935D01*
X1141920Y8921D01*
X1142007Y8912D01*
X1142095Y8906D01*
X1142182Y8904D01*
X1142182Y15991D02*
X1147318Y15991D01*
X1142182Y15990D02*
X1142095Y15992D01*
X1142007Y15998D01*
X1141920Y16007D01*
X1141834Y16021D01*
X1141748Y16038D01*
X1141664Y16059D01*
X1141580Y16084D01*
X1141497Y16113D01*
X1141416Y16145D01*
X1141336Y16180D01*
X1141258Y16219D01*
X1141181Y16262D01*
X1141107Y16308D01*
X1141035Y16357D01*
X1140965Y16409D01*
X1140897Y16465D01*
X1140832Y16523D01*
X1140769Y16584D01*
X1140710Y16648D01*
X1140653Y16715D01*
X1140599Y16783D01*
X1140548Y16855D01*
X1140501Y16928D01*
X1140456Y17003D01*
X1140415Y17081D01*
X1140378Y17160D01*
X1140344Y17240D01*
X1140314Y17322D01*
X1140287Y17405D01*
X1140264Y17490D01*
X1140245Y17575D01*
X1140230Y17661D01*
X1140218Y17748D01*
X1140210Y17835D01*
X1140206Y17922D01*
X1140206Y18010D01*
X1140210Y18097D01*
X1140218Y18184D01*
X1140230Y18271D01*
X1140245Y18357D01*
X1140264Y18442D01*
X1140287Y18527D01*
X1140314Y18610D01*
X1140344Y18692D01*
X1140378Y18772D01*
X1140415Y18851D01*
X1140456Y18929D01*
X1140501Y19004D01*
X1140548Y19077D01*
X1140599Y19149D01*
X1140653Y19217D01*
X1140710Y19284D01*
X1140769Y19348D01*
X1140832Y19409D01*
X1140897Y19467D01*
X1140965Y19523D01*
X1141035Y19575D01*
X1141107Y19624D01*
X1141181Y19670D01*
X1141258Y19713D01*
X1141336Y19752D01*
X1141416Y19787D01*
X1141497Y19819D01*
X1141580Y19848D01*
X1141664Y19873D01*
X1141748Y19894D01*
X1141834Y19911D01*
X1141920Y19925D01*
X1142007Y19934D01*
X1142095Y19940D01*
X1142182Y19942D01*
X1147318Y19942D01*
X1147318Y24596D02*
X1140206Y24596D01*
X1147318Y22620D02*
X1147318Y26571D01*
X1327469Y293494D02*
X1327469Y294680D01*
X1323518Y294680D01*
X1323518Y292309D01*
X1323520Y292231D01*
X1323526Y292154D01*
X1323535Y292077D01*
X1323548Y292001D01*
X1323565Y291925D01*
X1323586Y291850D01*
X1323610Y291777D01*
X1323638Y291704D01*
X1323670Y291633D01*
X1323705Y291564D01*
X1323743Y291497D01*
X1323784Y291431D01*
X1323829Y291368D01*
X1323877Y291307D01*
X1323927Y291248D01*
X1323981Y291192D01*
X1324037Y291138D01*
X1324096Y291088D01*
X1324157Y291040D01*
X1324220Y290995D01*
X1324286Y290954D01*
X1324353Y290916D01*
X1324422Y290881D01*
X1324493Y290849D01*
X1324566Y290821D01*
X1324639Y290797D01*
X1324714Y290776D01*
X1324790Y290759D01*
X1324866Y290746D01*
X1324943Y290737D01*
X1325020Y290731D01*
X1325098Y290729D01*
X1325098Y290728D02*
X1329049Y290728D01*
X1329049Y290729D02*
X1329127Y290731D01*
X1329204Y290737D01*
X1329281Y290746D01*
X1329357Y290759D01*
X1329433Y290776D01*
X1329508Y290797D01*
X1329581Y290821D01*
X1329654Y290849D01*
X1329725Y290881D01*
X1329794Y290916D01*
X1329861Y290954D01*
X1329927Y290995D01*
X1329990Y291040D01*
X1330051Y291088D01*
X1330110Y291138D01*
X1330166Y291192D01*
X1330220Y291248D01*
X1330270Y291307D01*
X1330318Y291368D01*
X1330363Y291431D01*
X1330404Y291497D01*
X1330442Y291564D01*
X1330477Y291633D01*
X1330509Y291704D01*
X1330537Y291777D01*
X1330561Y291850D01*
X1330582Y291925D01*
X1330599Y292001D01*
X1330612Y292077D01*
X1330621Y292154D01*
X1330627Y292231D01*
X1330629Y292309D01*
X1330630Y292309D02*
X1330630Y294680D01*
X1330630Y298044D02*
X1323518Y298044D01*
X1323518Y301995D02*
X1330630Y298044D01*
X1330630Y301995D02*
X1323518Y301995D01*
X1323518Y305359D02*
X1330630Y305359D01*
X1330630Y307334D01*
X1330628Y307420D01*
X1330622Y307506D01*
X1330613Y307592D01*
X1330600Y307677D01*
X1330583Y307762D01*
X1330563Y307845D01*
X1330539Y307928D01*
X1330511Y308010D01*
X1330480Y308090D01*
X1330445Y308169D01*
X1330407Y308246D01*
X1330365Y308322D01*
X1330321Y308396D01*
X1330273Y308467D01*
X1330222Y308537D01*
X1330168Y308604D01*
X1330111Y308669D01*
X1330051Y308731D01*
X1329989Y308791D01*
X1329924Y308848D01*
X1329857Y308902D01*
X1329787Y308953D01*
X1329716Y309001D01*
X1329642Y309045D01*
X1329566Y309087D01*
X1329489Y309125D01*
X1329410Y309160D01*
X1329330Y309191D01*
X1329248Y309219D01*
X1329165Y309243D01*
X1329082Y309263D01*
X1328997Y309280D01*
X1328912Y309293D01*
X1328826Y309302D01*
X1328740Y309308D01*
X1328654Y309310D01*
X1325493Y309310D01*
X1325407Y309308D01*
X1325321Y309302D01*
X1325235Y309293D01*
X1325150Y309280D01*
X1325065Y309263D01*
X1324982Y309243D01*
X1324899Y309219D01*
X1324817Y309191D01*
X1324737Y309160D01*
X1324658Y309125D01*
X1324581Y309087D01*
X1324505Y309045D01*
X1324431Y309001D01*
X1324360Y308953D01*
X1324290Y308902D01*
X1324223Y308848D01*
X1324158Y308791D01*
X1324096Y308731D01*
X1324036Y308669D01*
X1323979Y308604D01*
X1323925Y308537D01*
X1323874Y308467D01*
X1323826Y308396D01*
X1323782Y308322D01*
X1323740Y308246D01*
X1323702Y308169D01*
X1323667Y308090D01*
X1323636Y308010D01*
X1323608Y307928D01*
X1323584Y307845D01*
X1323564Y307762D01*
X1323547Y307677D01*
X1323534Y307592D01*
X1323525Y307506D01*
X1323519Y307420D01*
X1323517Y307334D01*
X1323518Y307334D02*
X1323518Y305359D01*
X1326512Y274820D02*
X1326512Y270078D01*
X1324142Y272449D02*
X1328883Y272449D01*
X1330858Y277393D02*
X1323746Y279764D01*
X1330858Y282135D01*
X1330960Y239226D02*
X1323848Y236855D01*
X1323848Y241596D02*
X1330960Y239226D01*
X1325626Y241004D02*
X1325626Y237448D01*
X1325824Y244108D02*
X1328984Y244108D01*
X1329071Y244110D01*
X1329159Y244116D01*
X1329246Y244125D01*
X1329332Y244139D01*
X1329418Y244156D01*
X1329502Y244177D01*
X1329586Y244202D01*
X1329669Y244231D01*
X1329750Y244263D01*
X1329830Y244298D01*
X1329908Y244337D01*
X1329985Y244380D01*
X1330059Y244426D01*
X1330131Y244475D01*
X1330201Y244527D01*
X1330269Y244583D01*
X1330334Y244641D01*
X1330397Y244702D01*
X1330456Y244766D01*
X1330513Y244833D01*
X1330567Y244901D01*
X1330618Y244973D01*
X1330665Y245046D01*
X1330710Y245121D01*
X1330751Y245199D01*
X1330788Y245278D01*
X1330822Y245358D01*
X1330852Y245440D01*
X1330879Y245523D01*
X1330902Y245608D01*
X1330921Y245693D01*
X1330936Y245779D01*
X1330948Y245866D01*
X1330956Y245953D01*
X1330960Y246040D01*
X1330960Y246128D01*
X1330956Y246215D01*
X1330948Y246302D01*
X1330936Y246389D01*
X1330921Y246475D01*
X1330902Y246560D01*
X1330879Y246645D01*
X1330852Y246728D01*
X1330822Y246810D01*
X1330788Y246890D01*
X1330751Y246969D01*
X1330710Y247047D01*
X1330665Y247122D01*
X1330618Y247195D01*
X1330567Y247267D01*
X1330513Y247335D01*
X1330456Y247402D01*
X1330397Y247466D01*
X1330334Y247527D01*
X1330269Y247585D01*
X1330201Y247641D01*
X1330131Y247693D01*
X1330059Y247742D01*
X1329985Y247788D01*
X1329908Y247831D01*
X1329830Y247870D01*
X1329750Y247905D01*
X1329669Y247937D01*
X1329586Y247966D01*
X1329502Y247991D01*
X1329418Y248012D01*
X1329332Y248029D01*
X1329246Y248043D01*
X1329159Y248052D01*
X1329071Y248058D01*
X1328984Y248060D01*
X1328984Y248059D02*
X1325824Y248059D01*
X1325824Y248060D02*
X1325737Y248058D01*
X1325649Y248052D01*
X1325562Y248043D01*
X1325476Y248029D01*
X1325390Y248012D01*
X1325306Y247991D01*
X1325222Y247966D01*
X1325139Y247937D01*
X1325058Y247905D01*
X1324978Y247870D01*
X1324900Y247831D01*
X1324823Y247788D01*
X1324749Y247742D01*
X1324677Y247693D01*
X1324607Y247641D01*
X1324539Y247585D01*
X1324474Y247527D01*
X1324411Y247466D01*
X1324352Y247402D01*
X1324295Y247335D01*
X1324241Y247267D01*
X1324190Y247195D01*
X1324143Y247122D01*
X1324098Y247047D01*
X1324057Y246969D01*
X1324020Y246890D01*
X1323986Y246810D01*
X1323956Y246728D01*
X1323929Y246645D01*
X1323906Y246560D01*
X1323887Y246475D01*
X1323872Y246389D01*
X1323860Y246302D01*
X1323852Y246215D01*
X1323848Y246128D01*
X1323848Y246040D01*
X1323852Y245953D01*
X1323860Y245866D01*
X1323872Y245779D01*
X1323887Y245693D01*
X1323906Y245608D01*
X1323929Y245523D01*
X1323956Y245440D01*
X1323986Y245358D01*
X1324020Y245278D01*
X1324057Y245199D01*
X1324098Y245121D01*
X1324143Y245046D01*
X1324190Y244973D01*
X1324241Y244901D01*
X1324295Y244833D01*
X1324352Y244766D01*
X1324411Y244702D01*
X1324474Y244641D01*
X1324539Y244583D01*
X1324607Y244527D01*
X1324677Y244475D01*
X1324749Y244426D01*
X1324823Y244380D01*
X1324900Y244337D01*
X1324978Y244298D01*
X1325058Y244263D01*
X1325139Y244231D01*
X1325222Y244202D01*
X1325306Y244177D01*
X1325390Y244156D01*
X1325476Y244139D01*
X1325562Y244125D01*
X1325649Y244116D01*
X1325737Y244110D01*
X1325824Y244108D01*
X1325824Y251195D02*
X1330960Y251195D01*
X1325824Y251194D02*
X1325737Y251196D01*
X1325649Y251202D01*
X1325562Y251211D01*
X1325476Y251225D01*
X1325390Y251242D01*
X1325306Y251263D01*
X1325222Y251288D01*
X1325139Y251317D01*
X1325058Y251349D01*
X1324978Y251384D01*
X1324900Y251423D01*
X1324823Y251466D01*
X1324749Y251512D01*
X1324677Y251561D01*
X1324607Y251613D01*
X1324539Y251669D01*
X1324474Y251727D01*
X1324411Y251788D01*
X1324352Y251852D01*
X1324295Y251919D01*
X1324241Y251987D01*
X1324190Y252059D01*
X1324143Y252132D01*
X1324098Y252207D01*
X1324057Y252285D01*
X1324020Y252364D01*
X1323986Y252444D01*
X1323956Y252526D01*
X1323929Y252609D01*
X1323906Y252694D01*
X1323887Y252779D01*
X1323872Y252865D01*
X1323860Y252952D01*
X1323852Y253039D01*
X1323848Y253126D01*
X1323848Y253214D01*
X1323852Y253301D01*
X1323860Y253388D01*
X1323872Y253475D01*
X1323887Y253561D01*
X1323906Y253646D01*
X1323929Y253731D01*
X1323956Y253814D01*
X1323986Y253896D01*
X1324020Y253976D01*
X1324057Y254055D01*
X1324098Y254133D01*
X1324143Y254208D01*
X1324190Y254281D01*
X1324241Y254353D01*
X1324295Y254421D01*
X1324352Y254488D01*
X1324411Y254552D01*
X1324474Y254613D01*
X1324539Y254671D01*
X1324607Y254727D01*
X1324677Y254779D01*
X1324749Y254828D01*
X1324823Y254874D01*
X1324900Y254917D01*
X1324978Y254956D01*
X1325058Y254991D01*
X1325139Y255023D01*
X1325222Y255052D01*
X1325306Y255077D01*
X1325390Y255098D01*
X1325476Y255115D01*
X1325562Y255129D01*
X1325649Y255138D01*
X1325737Y255144D01*
X1325824Y255146D01*
X1330960Y255146D01*
X1330960Y259800D02*
X1323848Y259800D01*
X1330960Y257824D02*
X1330960Y261775D01*
X1327469Y59222D02*
X1327469Y58036D01*
X1327469Y59222D02*
X1323518Y59222D01*
X1323518Y56851D01*
X1323520Y56773D01*
X1323526Y56696D01*
X1323535Y56619D01*
X1323548Y56543D01*
X1323565Y56467D01*
X1323586Y56392D01*
X1323610Y56319D01*
X1323638Y56246D01*
X1323670Y56175D01*
X1323705Y56106D01*
X1323743Y56039D01*
X1323784Y55973D01*
X1323829Y55910D01*
X1323877Y55849D01*
X1323927Y55790D01*
X1323981Y55734D01*
X1324037Y55680D01*
X1324096Y55630D01*
X1324157Y55582D01*
X1324220Y55537D01*
X1324286Y55496D01*
X1324353Y55458D01*
X1324422Y55423D01*
X1324493Y55391D01*
X1324566Y55363D01*
X1324639Y55339D01*
X1324714Y55318D01*
X1324790Y55301D01*
X1324866Y55288D01*
X1324943Y55279D01*
X1325020Y55273D01*
X1325098Y55271D01*
X1325098Y55270D02*
X1329049Y55270D01*
X1329049Y55271D02*
X1329127Y55273D01*
X1329204Y55279D01*
X1329281Y55288D01*
X1329357Y55301D01*
X1329433Y55318D01*
X1329508Y55339D01*
X1329581Y55363D01*
X1329654Y55391D01*
X1329725Y55423D01*
X1329794Y55458D01*
X1329861Y55496D01*
X1329927Y55537D01*
X1329990Y55582D01*
X1330051Y55630D01*
X1330110Y55680D01*
X1330166Y55734D01*
X1330220Y55790D01*
X1330270Y55849D01*
X1330318Y55910D01*
X1330363Y55973D01*
X1330404Y56039D01*
X1330442Y56106D01*
X1330477Y56175D01*
X1330509Y56246D01*
X1330537Y56319D01*
X1330561Y56392D01*
X1330582Y56467D01*
X1330599Y56543D01*
X1330612Y56619D01*
X1330621Y56696D01*
X1330627Y56773D01*
X1330629Y56851D01*
X1330630Y56851D02*
X1330630Y59222D01*
X1330630Y62586D02*
X1323518Y62586D01*
X1323518Y66537D02*
X1330630Y62586D01*
X1330630Y66537D02*
X1323518Y66537D01*
X1323518Y69901D02*
X1330630Y69901D01*
X1330630Y71876D01*
X1330628Y71962D01*
X1330622Y72048D01*
X1330613Y72134D01*
X1330600Y72219D01*
X1330583Y72304D01*
X1330563Y72387D01*
X1330539Y72470D01*
X1330511Y72552D01*
X1330480Y72632D01*
X1330445Y72711D01*
X1330407Y72788D01*
X1330365Y72864D01*
X1330321Y72938D01*
X1330273Y73009D01*
X1330222Y73079D01*
X1330168Y73146D01*
X1330111Y73211D01*
X1330051Y73273D01*
X1329989Y73333D01*
X1329924Y73390D01*
X1329857Y73444D01*
X1329787Y73495D01*
X1329716Y73543D01*
X1329642Y73587D01*
X1329566Y73629D01*
X1329489Y73667D01*
X1329410Y73702D01*
X1329330Y73733D01*
X1329248Y73761D01*
X1329165Y73785D01*
X1329082Y73805D01*
X1328997Y73822D01*
X1328912Y73835D01*
X1328826Y73844D01*
X1328740Y73850D01*
X1328654Y73852D01*
X1325493Y73852D01*
X1325407Y73850D01*
X1325321Y73844D01*
X1325235Y73835D01*
X1325150Y73822D01*
X1325065Y73805D01*
X1324982Y73785D01*
X1324899Y73761D01*
X1324817Y73733D01*
X1324737Y73702D01*
X1324658Y73667D01*
X1324581Y73629D01*
X1324505Y73587D01*
X1324431Y73543D01*
X1324360Y73495D01*
X1324290Y73444D01*
X1324223Y73390D01*
X1324158Y73333D01*
X1324096Y73273D01*
X1324036Y73211D01*
X1323979Y73146D01*
X1323925Y73079D01*
X1323874Y73009D01*
X1323826Y72938D01*
X1323782Y72864D01*
X1323740Y72788D01*
X1323702Y72711D01*
X1323667Y72632D01*
X1323636Y72552D01*
X1323608Y72470D01*
X1323584Y72387D01*
X1323564Y72304D01*
X1323547Y72219D01*
X1323534Y72134D01*
X1323525Y72048D01*
X1323519Y71962D01*
X1323517Y71876D01*
X1323518Y71876D02*
X1323518Y69901D01*
X1326512Y39362D02*
X1326512Y34620D01*
X1324142Y36991D02*
X1328883Y36991D01*
X1330858Y41935D02*
X1323746Y44306D01*
X1330858Y46677D01*
X1330960Y3768D02*
X1323848Y1397D01*
X1323848Y6138D02*
X1330960Y3768D01*
X1325626Y5546D02*
X1325626Y1990D01*
X1325824Y8650D02*
X1328984Y8650D01*
X1329071Y8652D01*
X1329159Y8658D01*
X1329246Y8667D01*
X1329332Y8681D01*
X1329418Y8698D01*
X1329502Y8719D01*
X1329586Y8744D01*
X1329669Y8773D01*
X1329750Y8805D01*
X1329830Y8840D01*
X1329908Y8879D01*
X1329985Y8922D01*
X1330059Y8968D01*
X1330131Y9017D01*
X1330201Y9069D01*
X1330269Y9125D01*
X1330334Y9183D01*
X1330397Y9244D01*
X1330456Y9308D01*
X1330513Y9375D01*
X1330567Y9443D01*
X1330618Y9515D01*
X1330665Y9588D01*
X1330710Y9663D01*
X1330751Y9741D01*
X1330788Y9820D01*
X1330822Y9900D01*
X1330852Y9982D01*
X1330879Y10065D01*
X1330902Y10150D01*
X1330921Y10235D01*
X1330936Y10321D01*
X1330948Y10408D01*
X1330956Y10495D01*
X1330960Y10582D01*
X1330960Y10670D01*
X1330956Y10757D01*
X1330948Y10844D01*
X1330936Y10931D01*
X1330921Y11017D01*
X1330902Y11102D01*
X1330879Y11187D01*
X1330852Y11270D01*
X1330822Y11352D01*
X1330788Y11432D01*
X1330751Y11511D01*
X1330710Y11589D01*
X1330665Y11664D01*
X1330618Y11737D01*
X1330567Y11809D01*
X1330513Y11877D01*
X1330456Y11944D01*
X1330397Y12008D01*
X1330334Y12069D01*
X1330269Y12127D01*
X1330201Y12183D01*
X1330131Y12235D01*
X1330059Y12284D01*
X1329985Y12330D01*
X1329908Y12373D01*
X1329830Y12412D01*
X1329750Y12447D01*
X1329669Y12479D01*
X1329586Y12508D01*
X1329502Y12533D01*
X1329418Y12554D01*
X1329332Y12571D01*
X1329246Y12585D01*
X1329159Y12594D01*
X1329071Y12600D01*
X1328984Y12602D01*
X1328984Y12601D02*
X1325824Y12601D01*
X1325824Y12602D02*
X1325737Y12600D01*
X1325649Y12594D01*
X1325562Y12585D01*
X1325476Y12571D01*
X1325390Y12554D01*
X1325306Y12533D01*
X1325222Y12508D01*
X1325139Y12479D01*
X1325058Y12447D01*
X1324978Y12412D01*
X1324900Y12373D01*
X1324823Y12330D01*
X1324749Y12284D01*
X1324677Y12235D01*
X1324607Y12183D01*
X1324539Y12127D01*
X1324474Y12069D01*
X1324411Y12008D01*
X1324352Y11944D01*
X1324295Y11877D01*
X1324241Y11809D01*
X1324190Y11737D01*
X1324143Y11664D01*
X1324098Y11589D01*
X1324057Y11511D01*
X1324020Y11432D01*
X1323986Y11352D01*
X1323956Y11270D01*
X1323929Y11187D01*
X1323906Y11102D01*
X1323887Y11017D01*
X1323872Y10931D01*
X1323860Y10844D01*
X1323852Y10757D01*
X1323848Y10670D01*
X1323848Y10582D01*
X1323852Y10495D01*
X1323860Y10408D01*
X1323872Y10321D01*
X1323887Y10235D01*
X1323906Y10150D01*
X1323929Y10065D01*
X1323956Y9982D01*
X1323986Y9900D01*
X1324020Y9820D01*
X1324057Y9741D01*
X1324098Y9663D01*
X1324143Y9588D01*
X1324190Y9515D01*
X1324241Y9443D01*
X1324295Y9375D01*
X1324352Y9308D01*
X1324411Y9244D01*
X1324474Y9183D01*
X1324539Y9125D01*
X1324607Y9069D01*
X1324677Y9017D01*
X1324749Y8968D01*
X1324823Y8922D01*
X1324900Y8879D01*
X1324978Y8840D01*
X1325058Y8805D01*
X1325139Y8773D01*
X1325222Y8744D01*
X1325306Y8719D01*
X1325390Y8698D01*
X1325476Y8681D01*
X1325562Y8667D01*
X1325649Y8658D01*
X1325737Y8652D01*
X1325824Y8650D01*
X1325824Y15737D02*
X1330960Y15737D01*
X1325824Y15736D02*
X1325737Y15738D01*
X1325649Y15744D01*
X1325562Y15753D01*
X1325476Y15767D01*
X1325390Y15784D01*
X1325306Y15805D01*
X1325222Y15830D01*
X1325139Y15859D01*
X1325058Y15891D01*
X1324978Y15926D01*
X1324900Y15965D01*
X1324823Y16008D01*
X1324749Y16054D01*
X1324677Y16103D01*
X1324607Y16155D01*
X1324539Y16211D01*
X1324474Y16269D01*
X1324411Y16330D01*
X1324352Y16394D01*
X1324295Y16461D01*
X1324241Y16529D01*
X1324190Y16601D01*
X1324143Y16674D01*
X1324098Y16749D01*
X1324057Y16827D01*
X1324020Y16906D01*
X1323986Y16986D01*
X1323956Y17068D01*
X1323929Y17151D01*
X1323906Y17236D01*
X1323887Y17321D01*
X1323872Y17407D01*
X1323860Y17494D01*
X1323852Y17581D01*
X1323848Y17668D01*
X1323848Y17756D01*
X1323852Y17843D01*
X1323860Y17930D01*
X1323872Y18017D01*
X1323887Y18103D01*
X1323906Y18188D01*
X1323929Y18273D01*
X1323956Y18356D01*
X1323986Y18438D01*
X1324020Y18518D01*
X1324057Y18597D01*
X1324098Y18675D01*
X1324143Y18750D01*
X1324190Y18823D01*
X1324241Y18895D01*
X1324295Y18963D01*
X1324352Y19030D01*
X1324411Y19094D01*
X1324474Y19155D01*
X1324539Y19213D01*
X1324607Y19269D01*
X1324677Y19321D01*
X1324749Y19370D01*
X1324823Y19416D01*
X1324900Y19459D01*
X1324978Y19498D01*
X1325058Y19533D01*
X1325139Y19565D01*
X1325222Y19594D01*
X1325306Y19619D01*
X1325390Y19640D01*
X1325476Y19657D01*
X1325562Y19671D01*
X1325649Y19680D01*
X1325737Y19686D01*
X1325824Y19688D01*
X1330960Y19688D01*
X1330960Y24342D02*
X1323848Y24342D01*
X1330960Y22366D02*
X1330960Y26317D01*
X1515429Y293748D02*
X1515429Y294934D01*
X1511478Y294934D01*
X1511478Y292563D01*
X1511480Y292485D01*
X1511486Y292408D01*
X1511495Y292331D01*
X1511508Y292255D01*
X1511525Y292179D01*
X1511546Y292104D01*
X1511570Y292031D01*
X1511598Y291958D01*
X1511630Y291887D01*
X1511665Y291818D01*
X1511703Y291751D01*
X1511744Y291685D01*
X1511789Y291622D01*
X1511837Y291561D01*
X1511887Y291502D01*
X1511941Y291446D01*
X1511997Y291392D01*
X1512056Y291342D01*
X1512117Y291294D01*
X1512180Y291249D01*
X1512246Y291208D01*
X1512313Y291170D01*
X1512382Y291135D01*
X1512453Y291103D01*
X1512526Y291075D01*
X1512599Y291051D01*
X1512674Y291030D01*
X1512750Y291013D01*
X1512826Y291000D01*
X1512903Y290991D01*
X1512980Y290985D01*
X1513058Y290983D01*
X1513058Y290982D02*
X1517009Y290982D01*
X1517009Y290983D02*
X1517087Y290985D01*
X1517164Y290991D01*
X1517241Y291000D01*
X1517317Y291013D01*
X1517393Y291030D01*
X1517468Y291051D01*
X1517541Y291075D01*
X1517614Y291103D01*
X1517685Y291135D01*
X1517754Y291170D01*
X1517821Y291208D01*
X1517887Y291249D01*
X1517950Y291294D01*
X1518011Y291342D01*
X1518070Y291392D01*
X1518126Y291446D01*
X1518180Y291502D01*
X1518230Y291561D01*
X1518278Y291622D01*
X1518323Y291685D01*
X1518364Y291751D01*
X1518402Y291818D01*
X1518437Y291887D01*
X1518469Y291958D01*
X1518497Y292031D01*
X1518521Y292104D01*
X1518542Y292179D01*
X1518559Y292255D01*
X1518572Y292331D01*
X1518581Y292408D01*
X1518587Y292485D01*
X1518589Y292563D01*
X1518590Y292563D02*
X1518590Y294934D01*
X1518590Y298298D02*
X1511478Y298298D01*
X1511478Y302249D02*
X1518590Y298298D01*
X1518590Y302249D02*
X1511478Y302249D01*
X1511478Y305613D02*
X1518590Y305613D01*
X1518590Y307588D01*
X1518588Y307674D01*
X1518582Y307760D01*
X1518573Y307846D01*
X1518560Y307931D01*
X1518543Y308016D01*
X1518523Y308099D01*
X1518499Y308182D01*
X1518471Y308264D01*
X1518440Y308344D01*
X1518405Y308423D01*
X1518367Y308500D01*
X1518325Y308576D01*
X1518281Y308650D01*
X1518233Y308721D01*
X1518182Y308791D01*
X1518128Y308858D01*
X1518071Y308923D01*
X1518011Y308985D01*
X1517949Y309045D01*
X1517884Y309102D01*
X1517817Y309156D01*
X1517747Y309207D01*
X1517676Y309255D01*
X1517602Y309299D01*
X1517526Y309341D01*
X1517449Y309379D01*
X1517370Y309414D01*
X1517290Y309445D01*
X1517208Y309473D01*
X1517125Y309497D01*
X1517042Y309517D01*
X1516957Y309534D01*
X1516872Y309547D01*
X1516786Y309556D01*
X1516700Y309562D01*
X1516614Y309564D01*
X1513453Y309564D01*
X1513367Y309562D01*
X1513281Y309556D01*
X1513195Y309547D01*
X1513110Y309534D01*
X1513025Y309517D01*
X1512942Y309497D01*
X1512859Y309473D01*
X1512777Y309445D01*
X1512697Y309414D01*
X1512618Y309379D01*
X1512541Y309341D01*
X1512465Y309299D01*
X1512391Y309255D01*
X1512320Y309207D01*
X1512250Y309156D01*
X1512183Y309102D01*
X1512118Y309045D01*
X1512056Y308985D01*
X1511996Y308923D01*
X1511939Y308858D01*
X1511885Y308791D01*
X1511834Y308721D01*
X1511786Y308650D01*
X1511742Y308576D01*
X1511700Y308500D01*
X1511662Y308423D01*
X1511627Y308344D01*
X1511596Y308264D01*
X1511568Y308182D01*
X1511544Y308099D01*
X1511524Y308016D01*
X1511507Y307931D01*
X1511494Y307846D01*
X1511485Y307760D01*
X1511479Y307674D01*
X1511477Y307588D01*
X1511478Y307588D02*
X1511478Y305613D01*
X1514472Y275074D02*
X1514472Y270332D01*
X1512102Y272703D02*
X1516843Y272703D01*
X1518818Y277647D02*
X1511706Y280018D01*
X1518818Y282389D01*
X1518920Y239480D02*
X1511808Y237109D01*
X1511808Y241850D02*
X1518920Y239480D01*
X1513586Y241258D02*
X1513586Y237702D01*
X1513784Y244362D02*
X1516944Y244362D01*
X1517031Y244364D01*
X1517119Y244370D01*
X1517206Y244379D01*
X1517292Y244393D01*
X1517378Y244410D01*
X1517462Y244431D01*
X1517546Y244456D01*
X1517629Y244485D01*
X1517710Y244517D01*
X1517790Y244552D01*
X1517868Y244591D01*
X1517945Y244634D01*
X1518019Y244680D01*
X1518091Y244729D01*
X1518161Y244781D01*
X1518229Y244837D01*
X1518294Y244895D01*
X1518357Y244956D01*
X1518416Y245020D01*
X1518473Y245087D01*
X1518527Y245155D01*
X1518578Y245227D01*
X1518625Y245300D01*
X1518670Y245375D01*
X1518711Y245453D01*
X1518748Y245532D01*
X1518782Y245612D01*
X1518812Y245694D01*
X1518839Y245777D01*
X1518862Y245862D01*
X1518881Y245947D01*
X1518896Y246033D01*
X1518908Y246120D01*
X1518916Y246207D01*
X1518920Y246294D01*
X1518920Y246382D01*
X1518916Y246469D01*
X1518908Y246556D01*
X1518896Y246643D01*
X1518881Y246729D01*
X1518862Y246814D01*
X1518839Y246899D01*
X1518812Y246982D01*
X1518782Y247064D01*
X1518748Y247144D01*
X1518711Y247223D01*
X1518670Y247301D01*
X1518625Y247376D01*
X1518578Y247449D01*
X1518527Y247521D01*
X1518473Y247589D01*
X1518416Y247656D01*
X1518357Y247720D01*
X1518294Y247781D01*
X1518229Y247839D01*
X1518161Y247895D01*
X1518091Y247947D01*
X1518019Y247996D01*
X1517945Y248042D01*
X1517868Y248085D01*
X1517790Y248124D01*
X1517710Y248159D01*
X1517629Y248191D01*
X1517546Y248220D01*
X1517462Y248245D01*
X1517378Y248266D01*
X1517292Y248283D01*
X1517206Y248297D01*
X1517119Y248306D01*
X1517031Y248312D01*
X1516944Y248314D01*
X1516944Y248313D02*
X1513784Y248313D01*
X1513784Y248314D02*
X1513697Y248312D01*
X1513609Y248306D01*
X1513522Y248297D01*
X1513436Y248283D01*
X1513350Y248266D01*
X1513266Y248245D01*
X1513182Y248220D01*
X1513099Y248191D01*
X1513018Y248159D01*
X1512938Y248124D01*
X1512860Y248085D01*
X1512783Y248042D01*
X1512709Y247996D01*
X1512637Y247947D01*
X1512567Y247895D01*
X1512499Y247839D01*
X1512434Y247781D01*
X1512371Y247720D01*
X1512312Y247656D01*
X1512255Y247589D01*
X1512201Y247521D01*
X1512150Y247449D01*
X1512103Y247376D01*
X1512058Y247301D01*
X1512017Y247223D01*
X1511980Y247144D01*
X1511946Y247064D01*
X1511916Y246982D01*
X1511889Y246899D01*
X1511866Y246814D01*
X1511847Y246729D01*
X1511832Y246643D01*
X1511820Y246556D01*
X1511812Y246469D01*
X1511808Y246382D01*
X1511808Y246294D01*
X1511812Y246207D01*
X1511820Y246120D01*
X1511832Y246033D01*
X1511847Y245947D01*
X1511866Y245862D01*
X1511889Y245777D01*
X1511916Y245694D01*
X1511946Y245612D01*
X1511980Y245532D01*
X1512017Y245453D01*
X1512058Y245375D01*
X1512103Y245300D01*
X1512150Y245227D01*
X1512201Y245155D01*
X1512255Y245087D01*
X1512312Y245020D01*
X1512371Y244956D01*
X1512434Y244895D01*
X1512499Y244837D01*
X1512567Y244781D01*
X1512637Y244729D01*
X1512709Y244680D01*
X1512783Y244634D01*
X1512860Y244591D01*
X1512938Y244552D01*
X1513018Y244517D01*
X1513099Y244485D01*
X1513182Y244456D01*
X1513266Y244431D01*
X1513350Y244410D01*
X1513436Y244393D01*
X1513522Y244379D01*
X1513609Y244370D01*
X1513697Y244364D01*
X1513784Y244362D01*
X1513784Y251449D02*
X1518920Y251449D01*
X1513784Y251448D02*
X1513697Y251450D01*
X1513609Y251456D01*
X1513522Y251465D01*
X1513436Y251479D01*
X1513350Y251496D01*
X1513266Y251517D01*
X1513182Y251542D01*
X1513099Y251571D01*
X1513018Y251603D01*
X1512938Y251638D01*
X1512860Y251677D01*
X1512783Y251720D01*
X1512709Y251766D01*
X1512637Y251815D01*
X1512567Y251867D01*
X1512499Y251923D01*
X1512434Y251981D01*
X1512371Y252042D01*
X1512312Y252106D01*
X1512255Y252173D01*
X1512201Y252241D01*
X1512150Y252313D01*
X1512103Y252386D01*
X1512058Y252461D01*
X1512017Y252539D01*
X1511980Y252618D01*
X1511946Y252698D01*
X1511916Y252780D01*
X1511889Y252863D01*
X1511866Y252948D01*
X1511847Y253033D01*
X1511832Y253119D01*
X1511820Y253206D01*
X1511812Y253293D01*
X1511808Y253380D01*
X1511808Y253468D01*
X1511812Y253555D01*
X1511820Y253642D01*
X1511832Y253729D01*
X1511847Y253815D01*
X1511866Y253900D01*
X1511889Y253985D01*
X1511916Y254068D01*
X1511946Y254150D01*
X1511980Y254230D01*
X1512017Y254309D01*
X1512058Y254387D01*
X1512103Y254462D01*
X1512150Y254535D01*
X1512201Y254607D01*
X1512255Y254675D01*
X1512312Y254742D01*
X1512371Y254806D01*
X1512434Y254867D01*
X1512499Y254925D01*
X1512567Y254981D01*
X1512637Y255033D01*
X1512709Y255082D01*
X1512783Y255128D01*
X1512860Y255171D01*
X1512938Y255210D01*
X1513018Y255245D01*
X1513099Y255277D01*
X1513182Y255306D01*
X1513266Y255331D01*
X1513350Y255352D01*
X1513436Y255369D01*
X1513522Y255383D01*
X1513609Y255392D01*
X1513697Y255398D01*
X1513784Y255400D01*
X1518920Y255400D01*
X1518920Y260054D02*
X1511808Y260054D01*
X1518920Y258078D02*
X1518920Y262029D01*
X1513397Y57952D02*
X1513397Y56766D01*
X1513397Y57952D02*
X1509446Y57952D01*
X1509446Y55581D01*
X1509448Y55503D01*
X1509454Y55426D01*
X1509463Y55349D01*
X1509476Y55273D01*
X1509493Y55197D01*
X1509514Y55122D01*
X1509538Y55049D01*
X1509566Y54976D01*
X1509598Y54905D01*
X1509633Y54836D01*
X1509671Y54769D01*
X1509712Y54703D01*
X1509757Y54640D01*
X1509805Y54579D01*
X1509855Y54520D01*
X1509909Y54464D01*
X1509965Y54410D01*
X1510024Y54360D01*
X1510085Y54312D01*
X1510148Y54267D01*
X1510214Y54226D01*
X1510281Y54188D01*
X1510350Y54153D01*
X1510421Y54121D01*
X1510494Y54093D01*
X1510567Y54069D01*
X1510642Y54048D01*
X1510718Y54031D01*
X1510794Y54018D01*
X1510871Y54009D01*
X1510948Y54003D01*
X1511026Y54001D01*
X1511026Y54000D02*
X1514977Y54000D01*
X1514977Y54001D02*
X1515055Y54003D01*
X1515132Y54009D01*
X1515209Y54018D01*
X1515285Y54031D01*
X1515361Y54048D01*
X1515436Y54069D01*
X1515509Y54093D01*
X1515582Y54121D01*
X1515653Y54153D01*
X1515722Y54188D01*
X1515789Y54226D01*
X1515855Y54267D01*
X1515918Y54312D01*
X1515979Y54360D01*
X1516038Y54410D01*
X1516094Y54464D01*
X1516148Y54520D01*
X1516198Y54579D01*
X1516246Y54640D01*
X1516291Y54703D01*
X1516332Y54769D01*
X1516370Y54836D01*
X1516405Y54905D01*
X1516437Y54976D01*
X1516465Y55049D01*
X1516489Y55122D01*
X1516510Y55197D01*
X1516527Y55273D01*
X1516540Y55349D01*
X1516549Y55426D01*
X1516555Y55503D01*
X1516557Y55581D01*
X1516558Y55581D02*
X1516558Y57952D01*
X1516558Y61316D02*
X1509446Y61316D01*
X1509446Y65267D02*
X1516558Y61316D01*
X1516558Y65267D02*
X1509446Y65267D01*
X1509446Y68631D02*
X1516558Y68631D01*
X1516558Y70606D01*
X1516556Y70692D01*
X1516550Y70778D01*
X1516541Y70864D01*
X1516528Y70949D01*
X1516511Y71034D01*
X1516491Y71117D01*
X1516467Y71200D01*
X1516439Y71282D01*
X1516408Y71362D01*
X1516373Y71441D01*
X1516335Y71518D01*
X1516293Y71594D01*
X1516249Y71668D01*
X1516201Y71739D01*
X1516150Y71809D01*
X1516096Y71876D01*
X1516039Y71941D01*
X1515979Y72003D01*
X1515917Y72063D01*
X1515852Y72120D01*
X1515785Y72174D01*
X1515715Y72225D01*
X1515644Y72273D01*
X1515570Y72317D01*
X1515494Y72359D01*
X1515417Y72397D01*
X1515338Y72432D01*
X1515258Y72463D01*
X1515176Y72491D01*
X1515093Y72515D01*
X1515010Y72535D01*
X1514925Y72552D01*
X1514840Y72565D01*
X1514754Y72574D01*
X1514668Y72580D01*
X1514582Y72582D01*
X1511421Y72582D01*
X1511335Y72580D01*
X1511249Y72574D01*
X1511163Y72565D01*
X1511078Y72552D01*
X1510993Y72535D01*
X1510910Y72515D01*
X1510827Y72491D01*
X1510745Y72463D01*
X1510665Y72432D01*
X1510586Y72397D01*
X1510509Y72359D01*
X1510433Y72317D01*
X1510359Y72273D01*
X1510288Y72225D01*
X1510218Y72174D01*
X1510151Y72120D01*
X1510086Y72063D01*
X1510024Y72003D01*
X1509964Y71941D01*
X1509907Y71876D01*
X1509853Y71809D01*
X1509802Y71739D01*
X1509754Y71668D01*
X1509710Y71594D01*
X1509668Y71518D01*
X1509630Y71441D01*
X1509595Y71362D01*
X1509564Y71282D01*
X1509536Y71200D01*
X1509512Y71117D01*
X1509492Y71034D01*
X1509475Y70949D01*
X1509462Y70864D01*
X1509453Y70778D01*
X1509447Y70692D01*
X1509445Y70606D01*
X1509446Y70606D02*
X1509446Y68631D01*
X1512440Y38092D02*
X1512440Y33350D01*
X1510070Y35721D02*
X1514811Y35721D01*
X1516786Y40665D02*
X1509674Y43036D01*
X1516786Y45407D01*
X1516888Y2498D02*
X1509776Y127D01*
X1509776Y4868D02*
X1516888Y2498D01*
X1511554Y4276D02*
X1511554Y720D01*
X1511752Y7380D02*
X1514912Y7380D01*
X1514999Y7382D01*
X1515087Y7388D01*
X1515174Y7397D01*
X1515260Y7411D01*
X1515346Y7428D01*
X1515430Y7449D01*
X1515514Y7474D01*
X1515597Y7503D01*
X1515678Y7535D01*
X1515758Y7570D01*
X1515836Y7609D01*
X1515913Y7652D01*
X1515987Y7698D01*
X1516059Y7747D01*
X1516129Y7799D01*
X1516197Y7855D01*
X1516262Y7913D01*
X1516325Y7974D01*
X1516384Y8038D01*
X1516441Y8105D01*
X1516495Y8173D01*
X1516546Y8245D01*
X1516593Y8318D01*
X1516638Y8393D01*
X1516679Y8471D01*
X1516716Y8550D01*
X1516750Y8630D01*
X1516780Y8712D01*
X1516807Y8795D01*
X1516830Y8880D01*
X1516849Y8965D01*
X1516864Y9051D01*
X1516876Y9138D01*
X1516884Y9225D01*
X1516888Y9312D01*
X1516888Y9400D01*
X1516884Y9487D01*
X1516876Y9574D01*
X1516864Y9661D01*
X1516849Y9747D01*
X1516830Y9832D01*
X1516807Y9917D01*
X1516780Y10000D01*
X1516750Y10082D01*
X1516716Y10162D01*
X1516679Y10241D01*
X1516638Y10319D01*
X1516593Y10394D01*
X1516546Y10467D01*
X1516495Y10539D01*
X1516441Y10607D01*
X1516384Y10674D01*
X1516325Y10738D01*
X1516262Y10799D01*
X1516197Y10857D01*
X1516129Y10913D01*
X1516059Y10965D01*
X1515987Y11014D01*
X1515913Y11060D01*
X1515836Y11103D01*
X1515758Y11142D01*
X1515678Y11177D01*
X1515597Y11209D01*
X1515514Y11238D01*
X1515430Y11263D01*
X1515346Y11284D01*
X1515260Y11301D01*
X1515174Y11315D01*
X1515087Y11324D01*
X1514999Y11330D01*
X1514912Y11332D01*
X1514912Y11331D02*
X1511752Y11331D01*
X1511752Y11332D02*
X1511665Y11330D01*
X1511577Y11324D01*
X1511490Y11315D01*
X1511404Y11301D01*
X1511318Y11284D01*
X1511234Y11263D01*
X1511150Y11238D01*
X1511067Y11209D01*
X1510986Y11177D01*
X1510906Y11142D01*
X1510828Y11103D01*
X1510751Y11060D01*
X1510677Y11014D01*
X1510605Y10965D01*
X1510535Y10913D01*
X1510467Y10857D01*
X1510402Y10799D01*
X1510339Y10738D01*
X1510280Y10674D01*
X1510223Y10607D01*
X1510169Y10539D01*
X1510118Y10467D01*
X1510071Y10394D01*
X1510026Y10319D01*
X1509985Y10241D01*
X1509948Y10162D01*
X1509914Y10082D01*
X1509884Y10000D01*
X1509857Y9917D01*
X1509834Y9832D01*
X1509815Y9747D01*
X1509800Y9661D01*
X1509788Y9574D01*
X1509780Y9487D01*
X1509776Y9400D01*
X1509776Y9312D01*
X1509780Y9225D01*
X1509788Y9138D01*
X1509800Y9051D01*
X1509815Y8965D01*
X1509834Y8880D01*
X1509857Y8795D01*
X1509884Y8712D01*
X1509914Y8630D01*
X1509948Y8550D01*
X1509985Y8471D01*
X1510026Y8393D01*
X1510071Y8318D01*
X1510118Y8245D01*
X1510169Y8173D01*
X1510223Y8105D01*
X1510280Y8038D01*
X1510339Y7974D01*
X1510402Y7913D01*
X1510467Y7855D01*
X1510535Y7799D01*
X1510605Y7747D01*
X1510677Y7698D01*
X1510751Y7652D01*
X1510828Y7609D01*
X1510906Y7570D01*
X1510986Y7535D01*
X1511067Y7503D01*
X1511150Y7474D01*
X1511234Y7449D01*
X1511318Y7428D01*
X1511404Y7411D01*
X1511490Y7397D01*
X1511577Y7388D01*
X1511665Y7382D01*
X1511752Y7380D01*
X1511752Y14467D02*
X1516888Y14467D01*
X1511752Y14466D02*
X1511665Y14468D01*
X1511577Y14474D01*
X1511490Y14483D01*
X1511404Y14497D01*
X1511318Y14514D01*
X1511234Y14535D01*
X1511150Y14560D01*
X1511067Y14589D01*
X1510986Y14621D01*
X1510906Y14656D01*
X1510828Y14695D01*
X1510751Y14738D01*
X1510677Y14784D01*
X1510605Y14833D01*
X1510535Y14885D01*
X1510467Y14941D01*
X1510402Y14999D01*
X1510339Y15060D01*
X1510280Y15124D01*
X1510223Y15191D01*
X1510169Y15259D01*
X1510118Y15331D01*
X1510071Y15404D01*
X1510026Y15479D01*
X1509985Y15557D01*
X1509948Y15636D01*
X1509914Y15716D01*
X1509884Y15798D01*
X1509857Y15881D01*
X1509834Y15966D01*
X1509815Y16051D01*
X1509800Y16137D01*
X1509788Y16224D01*
X1509780Y16311D01*
X1509776Y16398D01*
X1509776Y16486D01*
X1509780Y16573D01*
X1509788Y16660D01*
X1509800Y16747D01*
X1509815Y16833D01*
X1509834Y16918D01*
X1509857Y17003D01*
X1509884Y17086D01*
X1509914Y17168D01*
X1509948Y17248D01*
X1509985Y17327D01*
X1510026Y17405D01*
X1510071Y17480D01*
X1510118Y17553D01*
X1510169Y17625D01*
X1510223Y17693D01*
X1510280Y17760D01*
X1510339Y17824D01*
X1510402Y17885D01*
X1510467Y17943D01*
X1510535Y17999D01*
X1510605Y18051D01*
X1510677Y18100D01*
X1510751Y18146D01*
X1510828Y18189D01*
X1510906Y18228D01*
X1510986Y18263D01*
X1511067Y18295D01*
X1511150Y18324D01*
X1511234Y18349D01*
X1511318Y18370D01*
X1511404Y18387D01*
X1511490Y18401D01*
X1511577Y18410D01*
X1511665Y18416D01*
X1511752Y18418D01*
X1516888Y18418D01*
X1516888Y23072D02*
X1509776Y23072D01*
X1516888Y21096D02*
X1516888Y25047D01*
X222061Y64386D02*
X222061Y65572D01*
X218110Y65572D01*
X218110Y63201D01*
X218112Y63123D01*
X218118Y63046D01*
X218127Y62969D01*
X218140Y62893D01*
X218157Y62817D01*
X218178Y62742D01*
X218202Y62669D01*
X218230Y62596D01*
X218262Y62525D01*
X218297Y62456D01*
X218335Y62389D01*
X218376Y62323D01*
X218421Y62260D01*
X218469Y62199D01*
X218519Y62140D01*
X218573Y62084D01*
X218629Y62030D01*
X218688Y61980D01*
X218749Y61932D01*
X218812Y61887D01*
X218878Y61846D01*
X218945Y61808D01*
X219014Y61773D01*
X219085Y61741D01*
X219158Y61713D01*
X219231Y61689D01*
X219306Y61668D01*
X219382Y61651D01*
X219458Y61638D01*
X219535Y61629D01*
X219612Y61623D01*
X219690Y61621D01*
X219690Y61620D02*
X223641Y61620D01*
X223641Y61621D02*
X223719Y61623D01*
X223796Y61629D01*
X223873Y61638D01*
X223949Y61651D01*
X224025Y61668D01*
X224100Y61689D01*
X224173Y61713D01*
X224246Y61741D01*
X224317Y61773D01*
X224386Y61808D01*
X224453Y61846D01*
X224519Y61887D01*
X224582Y61932D01*
X224643Y61980D01*
X224702Y62030D01*
X224758Y62084D01*
X224812Y62140D01*
X224862Y62199D01*
X224910Y62260D01*
X224955Y62323D01*
X224996Y62389D01*
X225034Y62456D01*
X225069Y62525D01*
X225101Y62596D01*
X225129Y62669D01*
X225153Y62742D01*
X225174Y62817D01*
X225191Y62893D01*
X225204Y62969D01*
X225213Y63046D01*
X225219Y63123D01*
X225221Y63201D01*
X225222Y63201D02*
X225222Y65572D01*
X225222Y68936D02*
X218110Y68936D01*
X218110Y72887D02*
X225222Y68936D01*
X225222Y72887D02*
X218110Y72887D01*
X218110Y76251D02*
X225222Y76251D01*
X225222Y78226D01*
X225220Y78312D01*
X225214Y78398D01*
X225205Y78484D01*
X225192Y78569D01*
X225175Y78654D01*
X225155Y78737D01*
X225131Y78820D01*
X225103Y78902D01*
X225072Y78982D01*
X225037Y79061D01*
X224999Y79138D01*
X224957Y79214D01*
X224913Y79288D01*
X224865Y79359D01*
X224814Y79429D01*
X224760Y79496D01*
X224703Y79561D01*
X224643Y79623D01*
X224581Y79683D01*
X224516Y79740D01*
X224449Y79794D01*
X224379Y79845D01*
X224308Y79893D01*
X224234Y79937D01*
X224158Y79979D01*
X224081Y80017D01*
X224002Y80052D01*
X223922Y80083D01*
X223840Y80111D01*
X223757Y80135D01*
X223674Y80155D01*
X223589Y80172D01*
X223504Y80185D01*
X223418Y80194D01*
X223332Y80200D01*
X223246Y80202D01*
X220085Y80202D01*
X219999Y80200D01*
X219913Y80194D01*
X219827Y80185D01*
X219742Y80172D01*
X219657Y80155D01*
X219574Y80135D01*
X219491Y80111D01*
X219409Y80083D01*
X219329Y80052D01*
X219250Y80017D01*
X219173Y79979D01*
X219097Y79937D01*
X219023Y79893D01*
X218952Y79845D01*
X218882Y79794D01*
X218815Y79740D01*
X218750Y79683D01*
X218688Y79623D01*
X218628Y79561D01*
X218571Y79496D01*
X218517Y79429D01*
X218466Y79359D01*
X218418Y79288D01*
X218374Y79214D01*
X218332Y79138D01*
X218294Y79061D01*
X218259Y78982D01*
X218228Y78902D01*
X218200Y78820D01*
X218176Y78737D01*
X218156Y78654D01*
X218139Y78569D01*
X218126Y78484D01*
X218117Y78398D01*
X218111Y78312D01*
X218109Y78226D01*
X218110Y78226D02*
X218110Y76251D01*
X221104Y45712D02*
X221104Y40970D01*
X218734Y43341D02*
X223475Y43341D01*
X225450Y48285D02*
X218338Y50656D01*
X225450Y53027D01*
X225552Y10118D02*
X218440Y7747D01*
X218440Y12488D02*
X225552Y10118D01*
X220218Y11896D02*
X220218Y8340D01*
X220416Y15000D02*
X223576Y15000D01*
X223663Y15002D01*
X223751Y15008D01*
X223838Y15017D01*
X223924Y15031D01*
X224010Y15048D01*
X224094Y15069D01*
X224178Y15094D01*
X224261Y15123D01*
X224342Y15155D01*
X224422Y15190D01*
X224500Y15229D01*
X224577Y15272D01*
X224651Y15318D01*
X224723Y15367D01*
X224793Y15419D01*
X224861Y15475D01*
X224926Y15533D01*
X224989Y15594D01*
X225048Y15658D01*
X225105Y15725D01*
X225159Y15793D01*
X225210Y15865D01*
X225257Y15938D01*
X225302Y16013D01*
X225343Y16091D01*
X225380Y16170D01*
X225414Y16250D01*
X225444Y16332D01*
X225471Y16415D01*
X225494Y16500D01*
X225513Y16585D01*
X225528Y16671D01*
X225540Y16758D01*
X225548Y16845D01*
X225552Y16932D01*
X225552Y17020D01*
X225548Y17107D01*
X225540Y17194D01*
X225528Y17281D01*
X225513Y17367D01*
X225494Y17452D01*
X225471Y17537D01*
X225444Y17620D01*
X225414Y17702D01*
X225380Y17782D01*
X225343Y17861D01*
X225302Y17939D01*
X225257Y18014D01*
X225210Y18087D01*
X225159Y18159D01*
X225105Y18227D01*
X225048Y18294D01*
X224989Y18358D01*
X224926Y18419D01*
X224861Y18477D01*
X224793Y18533D01*
X224723Y18585D01*
X224651Y18634D01*
X224577Y18680D01*
X224500Y18723D01*
X224422Y18762D01*
X224342Y18797D01*
X224261Y18829D01*
X224178Y18858D01*
X224094Y18883D01*
X224010Y18904D01*
X223924Y18921D01*
X223838Y18935D01*
X223751Y18944D01*
X223663Y18950D01*
X223576Y18952D01*
X223576Y18951D02*
X220416Y18951D01*
X220416Y18952D02*
X220329Y18950D01*
X220241Y18944D01*
X220154Y18935D01*
X220068Y18921D01*
X219982Y18904D01*
X219898Y18883D01*
X219814Y18858D01*
X219731Y18829D01*
X219650Y18797D01*
X219570Y18762D01*
X219492Y18723D01*
X219415Y18680D01*
X219341Y18634D01*
X219269Y18585D01*
X219199Y18533D01*
X219131Y18477D01*
X219066Y18419D01*
X219003Y18358D01*
X218944Y18294D01*
X218887Y18227D01*
X218833Y18159D01*
X218782Y18087D01*
X218735Y18014D01*
X218690Y17939D01*
X218649Y17861D01*
X218612Y17782D01*
X218578Y17702D01*
X218548Y17620D01*
X218521Y17537D01*
X218498Y17452D01*
X218479Y17367D01*
X218464Y17281D01*
X218452Y17194D01*
X218444Y17107D01*
X218440Y17020D01*
X218440Y16932D01*
X218444Y16845D01*
X218452Y16758D01*
X218464Y16671D01*
X218479Y16585D01*
X218498Y16500D01*
X218521Y16415D01*
X218548Y16332D01*
X218578Y16250D01*
X218612Y16170D01*
X218649Y16091D01*
X218690Y16013D01*
X218735Y15938D01*
X218782Y15865D01*
X218833Y15793D01*
X218887Y15725D01*
X218944Y15658D01*
X219003Y15594D01*
X219066Y15533D01*
X219131Y15475D01*
X219199Y15419D01*
X219269Y15367D01*
X219341Y15318D01*
X219415Y15272D01*
X219492Y15229D01*
X219570Y15190D01*
X219650Y15155D01*
X219731Y15123D01*
X219814Y15094D01*
X219898Y15069D01*
X219982Y15048D01*
X220068Y15031D01*
X220154Y15017D01*
X220241Y15008D01*
X220329Y15002D01*
X220416Y15000D01*
X220416Y22087D02*
X225552Y22087D01*
X220416Y22086D02*
X220329Y22088D01*
X220241Y22094D01*
X220154Y22103D01*
X220068Y22117D01*
X219982Y22134D01*
X219898Y22155D01*
X219814Y22180D01*
X219731Y22209D01*
X219650Y22241D01*
X219570Y22276D01*
X219492Y22315D01*
X219415Y22358D01*
X219341Y22404D01*
X219269Y22453D01*
X219199Y22505D01*
X219131Y22561D01*
X219066Y22619D01*
X219003Y22680D01*
X218944Y22744D01*
X218887Y22811D01*
X218833Y22879D01*
X218782Y22951D01*
X218735Y23024D01*
X218690Y23099D01*
X218649Y23177D01*
X218612Y23256D01*
X218578Y23336D01*
X218548Y23418D01*
X218521Y23501D01*
X218498Y23586D01*
X218479Y23671D01*
X218464Y23757D01*
X218452Y23844D01*
X218444Y23931D01*
X218440Y24018D01*
X218440Y24106D01*
X218444Y24193D01*
X218452Y24280D01*
X218464Y24367D01*
X218479Y24453D01*
X218498Y24538D01*
X218521Y24623D01*
X218548Y24706D01*
X218578Y24788D01*
X218612Y24868D01*
X218649Y24947D01*
X218690Y25025D01*
X218735Y25100D01*
X218782Y25173D01*
X218833Y25245D01*
X218887Y25313D01*
X218944Y25380D01*
X219003Y25444D01*
X219066Y25505D01*
X219131Y25563D01*
X219199Y25619D01*
X219269Y25671D01*
X219341Y25720D01*
X219415Y25766D01*
X219492Y25809D01*
X219570Y25848D01*
X219650Y25883D01*
X219731Y25915D01*
X219814Y25944D01*
X219898Y25969D01*
X219982Y25990D01*
X220068Y26007D01*
X220154Y26021D01*
X220241Y26030D01*
X220329Y26036D01*
X220416Y26038D01*
X225552Y26038D01*
X225552Y30692D02*
X218440Y30692D01*
X225552Y28716D02*
X225552Y32667D01*
M02*
