G04 EAGLE Gerber RS-274X export*
G75*
%MOMM*%
%FSLAX34Y34*%
%LPD*%
%INBottom Copper*%
%IPPOS*%
%AMOC8*
5,1,8,0,0,1.08239X$1,22.5*%
G01*
%ADD10P,1.539592X8X112.500000*%
%ADD11P,1.814519X8X292.500000*%
%ADD12P,2.089446X8X22.500000*%
%ADD13C,0.406400*%
%ADD14C,1.270000*%
%ADD15C,0.756400*%

G36*
X1626122Y-50543D02*
X1626122Y-50543D01*
X1626145Y-50544D01*
X1632241Y-50245D01*
X1632242Y-50245D01*
X1632243Y-50245D01*
X1632364Y-50218D01*
X1632482Y-50193D01*
X1632483Y-50193D01*
X1632484Y-50193D01*
X1632588Y-50130D01*
X1632693Y-50068D01*
X1632694Y-50067D01*
X1632695Y-50066D01*
X1632775Y-49972D01*
X1632854Y-49881D01*
X1632854Y-49880D01*
X1632855Y-49879D01*
X1632901Y-49766D01*
X1632946Y-49653D01*
X1632946Y-49652D01*
X1632947Y-49651D01*
X1632965Y-49485D01*
X1632965Y372364D01*
X1632962Y372384D01*
X1632964Y372403D01*
X1632942Y372505D01*
X1632926Y372607D01*
X1632916Y372624D01*
X1632912Y372644D01*
X1632859Y372733D01*
X1632810Y372824D01*
X1632796Y372838D01*
X1632786Y372855D01*
X1632707Y372922D01*
X1632632Y372994D01*
X1632614Y373002D01*
X1632599Y373015D01*
X1632503Y373054D01*
X1632409Y373097D01*
X1632389Y373099D01*
X1632371Y373107D01*
X1632204Y373125D01*
X191684Y373125D01*
X191643Y373119D01*
X191601Y373121D01*
X191448Y373087D01*
X191441Y373086D01*
X191440Y373085D01*
X191438Y373084D01*
X154361Y360400D01*
X154282Y360358D01*
X154200Y360323D01*
X154166Y360296D01*
X154144Y360284D01*
X154122Y360261D01*
X154069Y360218D01*
X153768Y359917D01*
X153076Y359917D01*
X153035Y359911D01*
X152993Y359913D01*
X152840Y359879D01*
X152833Y359878D01*
X152832Y359877D01*
X152830Y359876D01*
X152175Y359652D01*
X151793Y359840D01*
X151707Y359865D01*
X151624Y359899D01*
X151580Y359904D01*
X151557Y359911D01*
X151526Y359910D01*
X151457Y359917D01*
X-224377Y359917D01*
X-224467Y359903D01*
X-224558Y359895D01*
X-224587Y359883D01*
X-224619Y359878D01*
X-224700Y359835D01*
X-224784Y359799D01*
X-224816Y359773D01*
X-224837Y359762D01*
X-224859Y359739D01*
X-224915Y359694D01*
X-244378Y340231D01*
X-244431Y340157D01*
X-244491Y340088D01*
X-244503Y340057D01*
X-244522Y340031D01*
X-244549Y339944D01*
X-244583Y339859D01*
X-244587Y339818D01*
X-244594Y339796D01*
X-244593Y339764D01*
X-244601Y339693D01*
X-244601Y330302D01*
X-244598Y330282D01*
X-244600Y330263D01*
X-244578Y330161D01*
X-244562Y330059D01*
X-244552Y330042D01*
X-244548Y330022D01*
X-244495Y329933D01*
X-244446Y329842D01*
X-244432Y329828D01*
X-244422Y329811D01*
X-244343Y329744D01*
X-244268Y329672D01*
X-244250Y329664D01*
X-244235Y329651D01*
X-244139Y329612D01*
X-244045Y329569D01*
X-244025Y329567D01*
X-244007Y329559D01*
X-243840Y329541D01*
X-241511Y329541D01*
X-235064Y326870D01*
X-230130Y321936D01*
X-227459Y315489D01*
X-227459Y308511D01*
X-230130Y302064D01*
X-235064Y297130D01*
X-241511Y294459D01*
X-243840Y294459D01*
X-243860Y294456D01*
X-243879Y294458D01*
X-243981Y294436D01*
X-244083Y294420D01*
X-244100Y294410D01*
X-244120Y294406D01*
X-244209Y294353D01*
X-244300Y294304D01*
X-244314Y294290D01*
X-244331Y294280D01*
X-244398Y294201D01*
X-244470Y294126D01*
X-244478Y294108D01*
X-244491Y294093D01*
X-244530Y293997D01*
X-244573Y293903D01*
X-244575Y293883D01*
X-244583Y293865D01*
X-244601Y293698D01*
X-244601Y176302D01*
X-244598Y176284D01*
X-244600Y176268D01*
X-244600Y176266D01*
X-244600Y176263D01*
X-244578Y176161D01*
X-244562Y176059D01*
X-244552Y176042D01*
X-244548Y176022D01*
X-244495Y175933D01*
X-244446Y175842D01*
X-244432Y175828D01*
X-244422Y175811D01*
X-244343Y175744D01*
X-244268Y175672D01*
X-244250Y175664D01*
X-244235Y175651D01*
X-244139Y175612D01*
X-244045Y175569D01*
X-244025Y175567D01*
X-244007Y175559D01*
X-243840Y175541D01*
X-241511Y175541D01*
X-235064Y172870D01*
X-230130Y167936D01*
X-227459Y161489D01*
X-227459Y154511D01*
X-230130Y148064D01*
X-235064Y143130D01*
X-241511Y140459D01*
X-243840Y140459D01*
X-243860Y140456D01*
X-243879Y140458D01*
X-243981Y140436D01*
X-244083Y140420D01*
X-244100Y140410D01*
X-244120Y140406D01*
X-244209Y140353D01*
X-244300Y140304D01*
X-244314Y140290D01*
X-244331Y140280D01*
X-244398Y140201D01*
X-244470Y140126D01*
X-244478Y140108D01*
X-244491Y140093D01*
X-244530Y139997D01*
X-244573Y139903D01*
X-244575Y139883D01*
X-244583Y139865D01*
X-244601Y139698D01*
X-244601Y42302D01*
X-244600Y42293D01*
X-244600Y42288D01*
X-244598Y42279D01*
X-244600Y42263D01*
X-244578Y42161D01*
X-244562Y42059D01*
X-244552Y42042D01*
X-244548Y42022D01*
X-244495Y41933D01*
X-244446Y41842D01*
X-244432Y41828D01*
X-244422Y41811D01*
X-244343Y41744D01*
X-244268Y41672D01*
X-244250Y41664D01*
X-244235Y41651D01*
X-244139Y41612D01*
X-244045Y41569D01*
X-244025Y41567D01*
X-244007Y41559D01*
X-243840Y41541D01*
X-242511Y41541D01*
X-236064Y38870D01*
X-231130Y33936D01*
X-228459Y27489D01*
X-228459Y20511D01*
X-231130Y14064D01*
X-236064Y9130D01*
X-242511Y6459D01*
X-243840Y6459D01*
X-243860Y6456D01*
X-243879Y6458D01*
X-243981Y6436D01*
X-244083Y6420D01*
X-244100Y6410D01*
X-244120Y6406D01*
X-244209Y6353D01*
X-244300Y6304D01*
X-244314Y6290D01*
X-244331Y6280D01*
X-244398Y6201D01*
X-244470Y6126D01*
X-244478Y6108D01*
X-244491Y6093D01*
X-244530Y5997D01*
X-244573Y5903D01*
X-244575Y5883D01*
X-244583Y5865D01*
X-244601Y5698D01*
X-244601Y-4413D01*
X-244587Y-4503D01*
X-244579Y-4594D01*
X-244567Y-4623D01*
X-244562Y-4655D01*
X-244519Y-4736D01*
X-244483Y-4820D01*
X-244457Y-4852D01*
X-244446Y-4873D01*
X-244423Y-4895D01*
X-244378Y-4951D01*
X-217295Y-32034D01*
X-217221Y-32087D01*
X-217152Y-32147D01*
X-217121Y-32159D01*
X-217095Y-32178D01*
X-217008Y-32205D01*
X-216923Y-32239D01*
X-216882Y-32243D01*
X-216860Y-32250D01*
X-216828Y-32249D01*
X-216757Y-32257D01*
X146948Y-32257D01*
X147025Y-32245D01*
X147103Y-32241D01*
X147161Y-32222D01*
X147190Y-32218D01*
X147214Y-32205D01*
X147263Y-32189D01*
X147707Y-31987D01*
X148298Y-32209D01*
X148349Y-32219D01*
X148398Y-32239D01*
X148511Y-32251D01*
X148539Y-32257D01*
X148549Y-32256D01*
X148565Y-32257D01*
X149196Y-32257D01*
X149541Y-32602D01*
X149605Y-32648D01*
X149662Y-32701D01*
X149716Y-32728D01*
X149741Y-32746D01*
X149767Y-32754D01*
X149812Y-32777D01*
X190790Y-48143D01*
X190873Y-48160D01*
X190954Y-48185D01*
X190993Y-48184D01*
X191031Y-48191D01*
X191115Y-48181D01*
X191199Y-48178D01*
X191236Y-48165D01*
X191275Y-48160D01*
X191351Y-48123D01*
X191430Y-48094D01*
X191461Y-48069D01*
X191496Y-48052D01*
X191556Y-47993D01*
X191622Y-47940D01*
X191644Y-47907D01*
X191671Y-47880D01*
X191710Y-47804D01*
X191755Y-47733D01*
X191765Y-47695D01*
X191783Y-47661D01*
X191795Y-47577D01*
X191816Y-47495D01*
X191813Y-47456D01*
X191818Y-47417D01*
X191803Y-47334D01*
X191796Y-47250D01*
X191781Y-47214D01*
X191774Y-47175D01*
X191733Y-47101D01*
X191700Y-47023D01*
X191668Y-46984D01*
X191655Y-46960D01*
X191633Y-46939D01*
X191595Y-46892D01*
X161208Y-16505D01*
X161134Y-16452D01*
X161065Y-16393D01*
X161035Y-16380D01*
X161008Y-16362D01*
X160921Y-16335D01*
X160837Y-16301D01*
X160796Y-16296D01*
X160773Y-16289D01*
X160741Y-16290D01*
X160670Y-16282D01*
X-179984Y-16282D01*
X-220256Y23989D01*
X-222562Y26296D01*
X-222562Y113250D01*
X-201691Y134122D01*
X-201623Y134216D01*
X-201553Y134310D01*
X-201551Y134316D01*
X-201547Y134321D01*
X-201513Y134433D01*
X-201477Y134544D01*
X-201477Y134550D01*
X-201475Y134556D01*
X-201478Y134673D01*
X-201479Y134790D01*
X-201481Y134797D01*
X-201481Y134802D01*
X-201488Y134820D01*
X-201526Y134951D01*
X-201706Y135385D01*
X-201706Y138518D01*
X-200507Y141412D01*
X-193645Y148274D01*
X-193592Y148348D01*
X-193532Y148418D01*
X-193520Y148448D01*
X-193501Y148474D01*
X-193474Y148561D01*
X-193440Y148646D01*
X-193436Y148687D01*
X-193429Y148709D01*
X-193430Y148741D01*
X-193422Y148812D01*
X-193422Y149424D01*
X-188363Y154483D01*
X-181208Y154483D01*
X-176148Y149424D01*
X-176148Y142269D01*
X-181208Y137210D01*
X-182121Y137210D01*
X-182211Y137195D01*
X-182302Y137188D01*
X-182331Y137176D01*
X-182363Y137170D01*
X-182444Y137128D01*
X-182528Y137092D01*
X-182560Y137066D01*
X-182581Y137055D01*
X-182603Y137032D01*
X-182659Y136987D01*
X-189370Y130276D01*
X-192264Y129077D01*
X-195397Y129077D01*
X-195831Y129257D01*
X-195945Y129283D01*
X-196058Y129312D01*
X-196065Y129311D01*
X-196071Y129313D01*
X-196187Y129302D01*
X-196304Y129293D01*
X-196309Y129290D01*
X-196316Y129290D01*
X-196423Y129242D01*
X-196530Y129196D01*
X-196536Y129192D01*
X-196540Y129190D01*
X-196554Y129177D01*
X-196661Y129092D01*
X-215226Y110527D01*
X-215279Y110453D01*
X-215338Y110383D01*
X-215350Y110353D01*
X-215369Y110327D01*
X-215396Y110240D01*
X-215430Y110155D01*
X-215435Y110114D01*
X-215442Y110092D01*
X-215441Y110060D01*
X-215449Y109988D01*
X-215449Y96554D01*
X-215437Y96483D01*
X-215435Y96412D01*
X-215417Y96363D01*
X-215409Y96311D01*
X-215375Y96248D01*
X-215351Y96181D01*
X-215318Y96140D01*
X-215294Y96094D01*
X-215242Y96045D01*
X-215197Y95989D01*
X-215153Y95960D01*
X-215116Y95925D01*
X-215051Y95894D01*
X-214990Y95856D01*
X-214940Y95843D01*
X-214892Y95821D01*
X-214821Y95813D01*
X-214752Y95796D01*
X-214700Y95800D01*
X-214648Y95794D01*
X-214578Y95809D01*
X-214506Y95815D01*
X-214459Y95835D01*
X-214408Y95846D01*
X-214346Y95883D01*
X-214280Y95911D01*
X-214224Y95956D01*
X-214197Y95972D01*
X-214181Y95990D01*
X-214149Y96016D01*
X-201904Y108261D01*
X-201836Y108356D01*
X-201766Y108450D01*
X-201764Y108456D01*
X-201760Y108461D01*
X-201726Y108572D01*
X-201690Y108684D01*
X-201690Y108690D01*
X-201688Y108696D01*
X-201691Y108813D01*
X-201692Y108930D01*
X-201694Y108937D01*
X-201694Y108942D01*
X-201701Y108959D01*
X-201739Y109091D01*
X-201919Y109525D01*
X-201919Y112658D01*
X-200720Y115552D01*
X-193645Y122627D01*
X-193592Y122701D01*
X-193532Y122770D01*
X-193520Y122800D01*
X-193501Y122827D01*
X-193474Y122913D01*
X-193440Y122998D01*
X-193436Y123039D01*
X-193429Y123062D01*
X-193430Y123094D01*
X-193422Y123165D01*
X-193422Y124024D01*
X-188363Y129083D01*
X-181208Y129083D01*
X-176148Y124024D01*
X-176148Y116869D01*
X-181208Y111810D01*
X-181873Y111810D01*
X-181963Y111795D01*
X-182054Y111788D01*
X-182084Y111776D01*
X-182116Y111770D01*
X-182197Y111728D01*
X-182280Y111692D01*
X-182313Y111666D01*
X-182333Y111655D01*
X-182355Y111632D01*
X-182411Y111587D01*
X-189015Y104983D01*
X-189057Y104925D01*
X-189107Y104873D01*
X-189129Y104826D01*
X-189159Y104783D01*
X-189180Y104715D01*
X-189210Y104650D01*
X-189216Y104598D01*
X-189231Y104548D01*
X-189229Y104476D01*
X-189237Y104405D01*
X-189226Y104354D01*
X-189225Y104302D01*
X-189200Y104235D01*
X-189185Y104165D01*
X-189158Y104120D01*
X-189141Y104071D01*
X-189096Y104015D01*
X-189059Y103954D01*
X-189019Y103920D01*
X-188987Y103879D01*
X-188927Y103841D01*
X-188872Y103794D01*
X-188824Y103774D01*
X-188780Y103746D01*
X-188710Y103729D01*
X-188644Y103702D01*
X-188573Y103694D01*
X-188541Y103686D01*
X-188518Y103688D01*
X-188477Y103683D01*
X-181208Y103683D01*
X-176148Y98624D01*
X-176148Y91469D01*
X-181208Y86410D01*
X-185105Y86410D01*
X-185195Y86395D01*
X-185286Y86388D01*
X-185315Y86376D01*
X-185347Y86370D01*
X-185428Y86328D01*
X-185512Y86292D01*
X-185544Y86266D01*
X-185565Y86255D01*
X-185587Y86232D01*
X-185643Y86187D01*
X-190538Y81292D01*
X-193432Y80093D01*
X-196565Y80093D01*
X-196999Y80273D01*
X-197113Y80299D01*
X-197226Y80328D01*
X-197232Y80327D01*
X-197239Y80329D01*
X-197355Y80318D01*
X-197471Y80309D01*
X-197477Y80306D01*
X-197483Y80306D01*
X-197590Y80258D01*
X-197698Y80213D01*
X-197704Y80208D01*
X-197708Y80206D01*
X-197722Y80193D01*
X-197829Y80108D01*
X-200335Y77602D01*
X-200388Y77528D01*
X-200447Y77458D01*
X-200459Y77428D01*
X-200478Y77402D01*
X-200505Y77315D01*
X-200539Y77230D01*
X-200544Y77189D01*
X-200551Y77167D01*
X-200550Y77135D01*
X-200558Y77063D01*
X-200558Y71403D01*
X-200542Y71307D01*
X-200533Y71210D01*
X-200522Y71186D01*
X-200518Y71160D01*
X-200473Y71074D01*
X-200433Y70985D01*
X-200415Y70966D01*
X-200403Y70942D01*
X-200332Y70876D01*
X-200266Y70804D01*
X-200243Y70791D01*
X-200224Y70773D01*
X-200136Y70732D01*
X-200051Y70685D01*
X-200025Y70680D01*
X-200001Y70669D01*
X-199905Y70659D01*
X-199809Y70641D01*
X-199783Y70645D01*
X-199757Y70642D01*
X-199662Y70663D01*
X-199565Y70677D01*
X-199542Y70689D01*
X-199517Y70695D01*
X-199433Y70745D01*
X-199346Y70789D01*
X-199328Y70807D01*
X-199305Y70821D01*
X-199242Y70895D01*
X-199174Y70964D01*
X-199158Y70993D01*
X-199146Y71008D01*
X-199133Y71039D01*
X-199093Y71111D01*
X-198941Y71479D01*
X-196726Y73694D01*
X-193831Y74893D01*
X-192068Y74893D01*
X-191978Y74908D01*
X-191887Y74915D01*
X-191858Y74928D01*
X-191826Y74933D01*
X-191745Y74975D01*
X-191661Y75011D01*
X-191629Y75037D01*
X-191608Y75048D01*
X-191586Y75071D01*
X-191530Y75116D01*
X-188363Y78283D01*
X-181208Y78283D01*
X-176148Y73224D01*
X-176148Y66069D01*
X-181208Y61010D01*
X-181970Y61010D01*
X-182060Y60995D01*
X-182151Y60988D01*
X-182181Y60976D01*
X-182213Y60970D01*
X-182293Y60928D01*
X-182377Y60892D01*
X-182409Y60866D01*
X-182430Y60855D01*
X-182452Y60832D01*
X-182508Y60787D01*
X-182953Y60342D01*
X-185847Y59144D01*
X-193472Y59144D01*
X-193492Y59140D01*
X-193511Y59143D01*
X-193613Y59121D01*
X-193715Y59104D01*
X-193732Y59095D01*
X-193752Y59090D01*
X-193841Y59037D01*
X-193932Y58989D01*
X-193946Y58974D01*
X-193963Y58964D01*
X-194030Y58885D01*
X-194101Y58810D01*
X-194110Y58792D01*
X-194123Y58777D01*
X-194161Y58681D01*
X-194205Y58587D01*
X-194207Y58568D01*
X-194215Y58549D01*
X-194233Y58382D01*
X-194233Y48851D01*
X-194222Y48780D01*
X-194220Y48708D01*
X-194202Y48659D01*
X-194193Y48608D01*
X-194160Y48545D01*
X-194135Y48477D01*
X-194103Y48437D01*
X-194078Y48391D01*
X-194026Y48341D01*
X-193981Y48285D01*
X-193938Y48257D01*
X-193900Y48221D01*
X-193835Y48191D01*
X-193775Y48152D01*
X-193724Y48140D01*
X-193677Y48118D01*
X-193606Y48110D01*
X-193536Y48092D01*
X-193484Y48096D01*
X-193432Y48090D01*
X-193362Y48106D01*
X-193291Y48111D01*
X-193243Y48132D01*
X-193192Y48143D01*
X-193130Y48180D01*
X-193065Y48208D01*
X-193009Y48252D01*
X-192981Y48269D01*
X-192966Y48287D01*
X-192934Y48312D01*
X-188363Y52883D01*
X-181208Y52883D01*
X-176148Y47824D01*
X-176148Y40669D01*
X-181208Y35610D01*
X-187391Y35610D01*
X-187461Y35598D01*
X-187533Y35597D01*
X-187582Y35579D01*
X-187633Y35570D01*
X-187697Y35537D01*
X-187764Y35512D01*
X-187805Y35480D01*
X-187851Y35455D01*
X-187900Y35403D01*
X-187956Y35358D01*
X-187984Y35315D01*
X-188020Y35277D01*
X-188050Y35212D01*
X-188089Y35152D01*
X-188102Y35101D01*
X-188124Y35054D01*
X-188132Y34983D01*
X-188149Y34913D01*
X-188145Y34861D01*
X-188151Y34809D01*
X-188136Y34739D01*
X-188130Y34668D01*
X-188110Y34620D01*
X-188099Y34569D01*
X-188062Y34507D01*
X-188034Y34441D01*
X-187989Y34386D01*
X-187972Y34358D01*
X-187955Y34343D01*
X-187929Y34310D01*
X-170124Y16505D01*
X-170050Y16452D01*
X-169980Y16393D01*
X-169950Y16380D01*
X-169924Y16362D01*
X-169837Y16335D01*
X-169752Y16301D01*
X-169711Y16296D01*
X-169689Y16289D01*
X-169657Y16290D01*
X-169585Y16282D01*
X174066Y16282D01*
X176373Y13976D01*
X204882Y-14534D01*
X204956Y-14587D01*
X205026Y-14646D01*
X205056Y-14658D01*
X205082Y-14677D01*
X205169Y-14704D01*
X205254Y-14738D01*
X205295Y-14743D01*
X205317Y-14750D01*
X205349Y-14749D01*
X205420Y-14757D01*
X900851Y-14757D01*
X900941Y-14742D01*
X901032Y-14735D01*
X901062Y-14722D01*
X901094Y-14717D01*
X901175Y-14674D01*
X901259Y-14639D01*
X901291Y-14613D01*
X901311Y-14602D01*
X901334Y-14578D01*
X901389Y-14534D01*
X917811Y1888D01*
X917864Y1962D01*
X917924Y2031D01*
X917936Y2061D01*
X917955Y2088D01*
X917981Y2175D01*
X918016Y2259D01*
X918020Y2300D01*
X918027Y2323D01*
X918026Y2355D01*
X918034Y2426D01*
X918034Y4586D01*
X921143Y7694D01*
X925539Y7694D01*
X928648Y4586D01*
X928648Y189D01*
X925539Y-2919D01*
X923379Y-2919D01*
X923289Y-2934D01*
X923198Y-2941D01*
X923169Y-2954D01*
X923137Y-2959D01*
X923056Y-3002D01*
X922972Y-3037D01*
X922940Y-3063D01*
X922919Y-3074D01*
X922897Y-3097D01*
X922841Y-3142D01*
X904113Y-21870D01*
X203007Y-21870D01*
X202937Y-21882D01*
X202865Y-21884D01*
X202816Y-21901D01*
X202765Y-21910D01*
X202701Y-21943D01*
X202634Y-21968D01*
X202593Y-22001D01*
X202547Y-22025D01*
X202498Y-22077D01*
X202442Y-22122D01*
X202414Y-22166D01*
X202378Y-22203D01*
X202348Y-22268D01*
X202309Y-22329D01*
X202296Y-22379D01*
X202274Y-22426D01*
X202266Y-22498D01*
X202249Y-22567D01*
X202253Y-22619D01*
X202247Y-22671D01*
X202262Y-22741D01*
X202268Y-22812D01*
X202288Y-22860D01*
X202299Y-22911D01*
X202336Y-22973D01*
X202364Y-23039D01*
X202409Y-23095D01*
X202426Y-23122D01*
X202443Y-23138D01*
X202469Y-23170D01*
X202571Y-23271D01*
X202645Y-23324D01*
X202714Y-23384D01*
X202744Y-23396D01*
X202770Y-23415D01*
X202857Y-23442D01*
X202942Y-23476D01*
X202983Y-23480D01*
X203005Y-23487D01*
X203038Y-23486D01*
X203109Y-23494D01*
X1071438Y-23494D01*
X1071528Y-23480D01*
X1071619Y-23472D01*
X1071648Y-23460D01*
X1071680Y-23455D01*
X1071761Y-23412D01*
X1071845Y-23376D01*
X1071877Y-23350D01*
X1071898Y-23339D01*
X1071920Y-23316D01*
X1071976Y-23271D01*
X1104494Y9246D01*
X1108815Y9246D01*
X1108905Y9261D01*
X1108996Y9268D01*
X1109026Y9281D01*
X1109058Y9286D01*
X1109139Y9329D01*
X1109223Y9364D01*
X1109255Y9390D01*
X1109275Y9401D01*
X1109298Y9425D01*
X1109354Y9469D01*
X1110881Y10996D01*
X1115277Y10996D01*
X1118386Y7888D01*
X1118386Y3491D01*
X1115277Y383D01*
X1110881Y383D01*
X1109354Y1910D01*
X1109280Y1963D01*
X1109210Y2022D01*
X1109180Y2035D01*
X1109154Y2053D01*
X1109067Y2080D01*
X1108982Y2114D01*
X1108941Y2119D01*
X1108919Y2126D01*
X1108887Y2125D01*
X1108815Y2133D01*
X1107755Y2133D01*
X1107665Y2118D01*
X1107574Y2111D01*
X1107545Y2098D01*
X1107513Y2093D01*
X1107432Y2050D01*
X1107348Y2015D01*
X1107316Y1989D01*
X1107295Y1978D01*
X1107273Y1955D01*
X1107217Y1910D01*
X1077006Y-28301D01*
X1074699Y-30608D01*
X199807Y-30608D01*
X199736Y-30619D01*
X199664Y-30621D01*
X199615Y-30639D01*
X199564Y-30647D01*
X199501Y-30681D01*
X199433Y-30706D01*
X199393Y-30738D01*
X199347Y-30763D01*
X199297Y-30814D01*
X199241Y-30859D01*
X199213Y-30903D01*
X199177Y-30941D01*
X199147Y-31006D01*
X199108Y-31066D01*
X199096Y-31117D01*
X199074Y-31164D01*
X199066Y-31235D01*
X199048Y-31305D01*
X199052Y-31357D01*
X199047Y-31408D01*
X199062Y-31479D01*
X199068Y-31550D01*
X199088Y-31598D01*
X199099Y-31649D01*
X199136Y-31710D01*
X199164Y-31776D01*
X199209Y-31832D01*
X199225Y-31860D01*
X199243Y-31875D01*
X199269Y-31907D01*
X199574Y-32212D01*
X199648Y-32265D01*
X199717Y-32325D01*
X199747Y-32337D01*
X199773Y-32356D01*
X199860Y-32382D01*
X199945Y-32417D01*
X199986Y-32421D01*
X200008Y-32428D01*
X200041Y-32427D01*
X200112Y-32435D01*
X1247637Y-32435D01*
X1247728Y-32420D01*
X1247818Y-32413D01*
X1247848Y-32401D01*
X1247880Y-32395D01*
X1247961Y-32353D01*
X1248045Y-32317D01*
X1248077Y-32291D01*
X1248098Y-32280D01*
X1248120Y-32257D01*
X1248176Y-32212D01*
X1289972Y9584D01*
X1290025Y9658D01*
X1290084Y9727D01*
X1290097Y9758D01*
X1290115Y9784D01*
X1290142Y9871D01*
X1290176Y9956D01*
X1290181Y9997D01*
X1290188Y10019D01*
X1290187Y10051D01*
X1290195Y10122D01*
X1290195Y12257D01*
X1293303Y15365D01*
X1297700Y15365D01*
X1300808Y12257D01*
X1300808Y7860D01*
X1297700Y4752D01*
X1295515Y4752D01*
X1295425Y4737D01*
X1295334Y4730D01*
X1295304Y4717D01*
X1295272Y4712D01*
X1295191Y4669D01*
X1295107Y4634D01*
X1295075Y4608D01*
X1295055Y4597D01*
X1295032Y4573D01*
X1294977Y4529D01*
X1251184Y-39264D01*
X1251142Y-39322D01*
X1251093Y-39374D01*
X1251071Y-39421D01*
X1251041Y-39463D01*
X1251020Y-39532D01*
X1250989Y-39597D01*
X1250984Y-39649D01*
X1250968Y-39698D01*
X1250970Y-39770D01*
X1250962Y-39841D01*
X1250973Y-39892D01*
X1250975Y-39944D01*
X1250999Y-40012D01*
X1251015Y-40082D01*
X1251041Y-40126D01*
X1251059Y-40175D01*
X1251104Y-40231D01*
X1251141Y-40293D01*
X1251180Y-40327D01*
X1251213Y-40367D01*
X1251273Y-40406D01*
X1251328Y-40453D01*
X1251376Y-40472D01*
X1251420Y-40500D01*
X1251489Y-40518D01*
X1251556Y-40545D01*
X1251627Y-40553D01*
X1251658Y-40560D01*
X1251682Y-40559D01*
X1251723Y-40563D01*
X1426885Y-40563D01*
X1426975Y-40548D01*
X1427066Y-40541D01*
X1427096Y-40529D01*
X1427128Y-40523D01*
X1427209Y-40481D01*
X1427293Y-40445D01*
X1427325Y-40419D01*
X1427345Y-40408D01*
X1427368Y-40385D01*
X1427423Y-40340D01*
X1476662Y8898D01*
X1476715Y8972D01*
X1476774Y9042D01*
X1476787Y9072D01*
X1476805Y9098D01*
X1476832Y9185D01*
X1476866Y9270D01*
X1476871Y9311D01*
X1476878Y9333D01*
X1476877Y9365D01*
X1476885Y9437D01*
X1476885Y12003D01*
X1479993Y15111D01*
X1484390Y15111D01*
X1487498Y12003D01*
X1487498Y7606D01*
X1484390Y4498D01*
X1482637Y4498D01*
X1482546Y4483D01*
X1482456Y4476D01*
X1482426Y4463D01*
X1482394Y4458D01*
X1482313Y4415D01*
X1482229Y4380D01*
X1482197Y4354D01*
X1482176Y4343D01*
X1482154Y4319D01*
X1482098Y4275D01*
X1430147Y-47677D01*
X193743Y-47677D01*
X193635Y-47694D01*
X193525Y-47708D01*
X193513Y-47714D01*
X193500Y-47716D01*
X193403Y-47768D01*
X193304Y-47816D01*
X193294Y-47825D01*
X193283Y-47831D01*
X193207Y-47911D01*
X193129Y-47988D01*
X193123Y-48000D01*
X193113Y-48010D01*
X193067Y-48110D01*
X193017Y-48208D01*
X193015Y-48221D01*
X193010Y-48233D01*
X192998Y-48342D01*
X192982Y-48451D01*
X192984Y-48464D01*
X192983Y-48477D01*
X193006Y-48585D01*
X193026Y-48693D01*
X193032Y-48705D01*
X193035Y-48718D01*
X193092Y-48812D01*
X193145Y-48909D01*
X193154Y-48917D01*
X193161Y-48929D01*
X193245Y-49000D01*
X193326Y-49075D01*
X193340Y-49082D01*
X193348Y-49089D01*
X193374Y-49099D01*
X193476Y-49151D01*
X197066Y-50497D01*
X197117Y-50507D01*
X197166Y-50527D01*
X197279Y-50539D01*
X197307Y-50545D01*
X197317Y-50544D01*
X197333Y-50545D01*
X1626108Y-50545D01*
X1626122Y-50543D01*
G37*
%LPC*%
G36*
X-188363Y162610D02*
X-188363Y162610D01*
X-193422Y167669D01*
X-193422Y168381D01*
X-193437Y168471D01*
X-193444Y168562D01*
X-193456Y168592D01*
X-193462Y168624D01*
X-193504Y168704D01*
X-193540Y168788D01*
X-193566Y168820D01*
X-193577Y168841D01*
X-193600Y168863D01*
X-193645Y168919D01*
X-200656Y175930D01*
X-201855Y178824D01*
X-201855Y181957D01*
X-201675Y182391D01*
X-201648Y182505D01*
X-201620Y182618D01*
X-201620Y182625D01*
X-201619Y182631D01*
X-201630Y182747D01*
X-201639Y182863D01*
X-201641Y182869D01*
X-201642Y182875D01*
X-201689Y182983D01*
X-201735Y183090D01*
X-201740Y183096D01*
X-201742Y183100D01*
X-201754Y183114D01*
X-201840Y183221D01*
X-224264Y205645D01*
X-224264Y300152D01*
X-180855Y343561D01*
X159374Y343561D01*
X159465Y343576D01*
X159555Y343583D01*
X159585Y343596D01*
X159617Y343601D01*
X159698Y343644D01*
X159782Y343679D01*
X159814Y343705D01*
X159835Y343716D01*
X159857Y343739D01*
X159913Y343784D01*
X185242Y369114D01*
X1380744Y369114D01*
X1484892Y264965D01*
X1484966Y264912D01*
X1485036Y264853D01*
X1485066Y264841D01*
X1485092Y264822D01*
X1485179Y264795D01*
X1485264Y264761D01*
X1485305Y264756D01*
X1485327Y264749D01*
X1485359Y264750D01*
X1485431Y264742D01*
X1487387Y264742D01*
X1490496Y261634D01*
X1490496Y257237D01*
X1487387Y254129D01*
X1482991Y254129D01*
X1479882Y257237D01*
X1479882Y259600D01*
X1479867Y259690D01*
X1479860Y259781D01*
X1479848Y259811D01*
X1479842Y259843D01*
X1479800Y259924D01*
X1479764Y260008D01*
X1479738Y260040D01*
X1479727Y260060D01*
X1479704Y260083D01*
X1479659Y260139D01*
X1378020Y361777D01*
X1377947Y361830D01*
X1377877Y361890D01*
X1377847Y361902D01*
X1377821Y361921D01*
X1377734Y361947D01*
X1377649Y361982D01*
X1377608Y361986D01*
X1377586Y361993D01*
X1377553Y361992D01*
X1377482Y362000D01*
X1252688Y362000D01*
X1252617Y361989D01*
X1252545Y361987D01*
X1252496Y361969D01*
X1252445Y361960D01*
X1252382Y361927D01*
X1252314Y361902D01*
X1252274Y361870D01*
X1252228Y361845D01*
X1252178Y361793D01*
X1252122Y361748D01*
X1252094Y361705D01*
X1252058Y361667D01*
X1252028Y361602D01*
X1251989Y361542D01*
X1251977Y361491D01*
X1251955Y361444D01*
X1251947Y361373D01*
X1251929Y361303D01*
X1251933Y361251D01*
X1251927Y361199D01*
X1251943Y361129D01*
X1251948Y361058D01*
X1251969Y361010D01*
X1251980Y360959D01*
X1252017Y360897D01*
X1252045Y360832D01*
X1252089Y360776D01*
X1252106Y360748D01*
X1252124Y360733D01*
X1252149Y360701D01*
X1301751Y311099D01*
X1301751Y278154D01*
X1301765Y278064D01*
X1301773Y277973D01*
X1301785Y277943D01*
X1301790Y277912D01*
X1301833Y277831D01*
X1301869Y277747D01*
X1301895Y277715D01*
X1301906Y277694D01*
X1301929Y277672D01*
X1301974Y277616D01*
X1303755Y275835D01*
X1303755Y271439D01*
X1300646Y268330D01*
X1296250Y268330D01*
X1293141Y271439D01*
X1293141Y275835D01*
X1294414Y277108D01*
X1294467Y277182D01*
X1294527Y277251D01*
X1294539Y277282D01*
X1294558Y277308D01*
X1294585Y277395D01*
X1294619Y277480D01*
X1294623Y277520D01*
X1294630Y277543D01*
X1294629Y277575D01*
X1294637Y277646D01*
X1294637Y307837D01*
X1294623Y307928D01*
X1294615Y308018D01*
X1294603Y308048D01*
X1294598Y308080D01*
X1294555Y308161D01*
X1294519Y308245D01*
X1294493Y308277D01*
X1294482Y308298D01*
X1294459Y308320D01*
X1294414Y308376D01*
X1247465Y355325D01*
X1247391Y355379D01*
X1247321Y355438D01*
X1247291Y355450D01*
X1247265Y355469D01*
X1247178Y355496D01*
X1247093Y355530D01*
X1247052Y355535D01*
X1247030Y355541D01*
X1246998Y355541D01*
X1246926Y355548D01*
X1041969Y355548D01*
X1041899Y355537D01*
X1041827Y355535D01*
X1041778Y355517D01*
X1041727Y355509D01*
X1041663Y355475D01*
X1041596Y355451D01*
X1041555Y355418D01*
X1041509Y355394D01*
X1041460Y355342D01*
X1041404Y355297D01*
X1041376Y355253D01*
X1041340Y355215D01*
X1041310Y355150D01*
X1041271Y355090D01*
X1041258Y355039D01*
X1041236Y354992D01*
X1041228Y354921D01*
X1041211Y354851D01*
X1041215Y354799D01*
X1041209Y354748D01*
X1041224Y354678D01*
X1041230Y354606D01*
X1041250Y354558D01*
X1041261Y354507D01*
X1041298Y354446D01*
X1041326Y354380D01*
X1041371Y354324D01*
X1041388Y354296D01*
X1041405Y354281D01*
X1041431Y354249D01*
X1041700Y353980D01*
X1118878Y276802D01*
X1118952Y276749D01*
X1119022Y276689D01*
X1119052Y276677D01*
X1119078Y276658D01*
X1119165Y276631D01*
X1119250Y276597D01*
X1119291Y276593D01*
X1119313Y276586D01*
X1119345Y276587D01*
X1119417Y276579D01*
X1121576Y276579D01*
X1124685Y273470D01*
X1124685Y269074D01*
X1121576Y265965D01*
X1117180Y265965D01*
X1114071Y269074D01*
X1114071Y271233D01*
X1114057Y271324D01*
X1114049Y271414D01*
X1114037Y271444D01*
X1114032Y271476D01*
X1113989Y271557D01*
X1113953Y271641D01*
X1113927Y271673D01*
X1113916Y271694D01*
X1113893Y271716D01*
X1113848Y271772D01*
X1036670Y348950D01*
X1036596Y349003D01*
X1036527Y349063D01*
X1036496Y349075D01*
X1036470Y349094D01*
X1036383Y349120D01*
X1036298Y349155D01*
X1036257Y349159D01*
X1036235Y349166D01*
X1036203Y349165D01*
X1036132Y349173D01*
X860385Y349173D01*
X860314Y349161D01*
X860242Y349160D01*
X860193Y349142D01*
X860142Y349133D01*
X860079Y349100D01*
X860011Y349075D01*
X859971Y349043D01*
X859925Y349018D01*
X859875Y348966D01*
X859819Y348921D01*
X859791Y348878D01*
X859755Y348840D01*
X859725Y348775D01*
X859686Y348715D01*
X859674Y348664D01*
X859652Y348617D01*
X859644Y348546D01*
X859626Y348476D01*
X859630Y348424D01*
X859625Y348372D01*
X859640Y348302D01*
X859645Y348231D01*
X859666Y348183D01*
X859677Y348132D01*
X859714Y348070D01*
X859742Y348004D01*
X859786Y347948D01*
X859803Y347921D01*
X859821Y347906D01*
X859846Y347874D01*
X860776Y346944D01*
X928632Y279088D01*
X928706Y279035D01*
X928776Y278975D01*
X928806Y278963D01*
X928832Y278944D01*
X928919Y278917D01*
X929004Y278883D01*
X929045Y278879D01*
X929067Y278872D01*
X929099Y278873D01*
X929171Y278865D01*
X931330Y278865D01*
X934439Y275756D01*
X934439Y271360D01*
X931330Y268251D01*
X926934Y268251D01*
X923825Y271360D01*
X923825Y273519D01*
X923811Y273610D01*
X923803Y273700D01*
X923791Y273730D01*
X923786Y273762D01*
X923743Y273843D01*
X923707Y273927D01*
X923681Y273959D01*
X923670Y273980D01*
X923647Y274002D01*
X923602Y274058D01*
X855746Y341914D01*
X855672Y341967D01*
X855602Y342027D01*
X855572Y342039D01*
X855546Y342058D01*
X855459Y342085D01*
X855374Y342119D01*
X855333Y342123D01*
X855311Y342130D01*
X855279Y342129D01*
X855207Y342137D01*
X205827Y342137D01*
X205737Y342123D01*
X205646Y342115D01*
X205616Y342103D01*
X205584Y342098D01*
X205503Y342055D01*
X205419Y342019D01*
X205387Y341993D01*
X205367Y341982D01*
X205344Y341959D01*
X205289Y341914D01*
X172974Y309600D01*
X-169458Y309600D01*
X-169548Y309585D01*
X-169639Y309578D01*
X-169669Y309565D01*
X-169701Y309560D01*
X-169782Y309517D01*
X-169866Y309482D01*
X-169898Y309456D01*
X-169918Y309445D01*
X-169941Y309422D01*
X-169996Y309377D01*
X-195890Y283484D01*
X-195943Y283410D01*
X-196002Y283340D01*
X-196014Y283310D01*
X-196033Y283284D01*
X-196060Y283197D01*
X-196094Y283112D01*
X-196099Y283071D01*
X-196106Y283049D01*
X-196105Y283017D01*
X-196113Y282945D01*
X-196113Y265263D01*
X-196098Y265173D01*
X-196091Y265082D01*
X-196078Y265052D01*
X-196073Y265020D01*
X-196030Y264939D01*
X-195995Y264855D01*
X-195969Y264823D01*
X-195958Y264803D01*
X-195934Y264780D01*
X-195890Y264724D01*
X-195845Y264679D01*
X-195750Y264611D01*
X-195656Y264541D01*
X-195650Y264539D01*
X-195645Y264536D01*
X-195533Y264502D01*
X-195422Y264465D01*
X-195416Y264465D01*
X-195410Y264463D01*
X-195293Y264467D01*
X-195176Y264468D01*
X-195169Y264470D01*
X-195164Y264470D01*
X-195146Y264476D01*
X-195015Y264514D01*
X-194581Y264694D01*
X-191448Y264694D01*
X-190543Y264319D01*
X-190448Y264297D01*
X-190355Y264268D01*
X-190329Y264269D01*
X-190303Y264263D01*
X-190206Y264272D01*
X-190109Y264275D01*
X-190084Y264284D01*
X-190058Y264286D01*
X-189969Y264326D01*
X-189878Y264359D01*
X-189858Y264375D01*
X-189834Y264386D01*
X-189762Y264452D01*
X-189686Y264513D01*
X-189672Y264535D01*
X-189653Y264552D01*
X-189606Y264638D01*
X-189553Y264720D01*
X-189547Y264745D01*
X-189534Y264768D01*
X-189517Y264864D01*
X-189493Y264958D01*
X-189495Y264984D01*
X-189490Y265010D01*
X-189504Y265106D01*
X-189512Y265203D01*
X-189522Y265227D01*
X-189526Y265253D01*
X-189570Y265340D01*
X-189608Y265430D01*
X-189629Y265455D01*
X-189638Y265473D01*
X-189661Y265496D01*
X-189713Y265561D01*
X-193422Y269269D01*
X-193422Y276424D01*
X-188363Y281483D01*
X-181208Y281483D01*
X-176148Y276424D01*
X-176148Y269269D01*
X-181208Y264210D01*
X-187431Y264210D01*
X-187502Y264198D01*
X-187573Y264197D01*
X-187622Y264179D01*
X-187674Y264170D01*
X-187737Y264137D01*
X-187804Y264112D01*
X-187845Y264080D01*
X-187891Y264055D01*
X-187940Y264003D01*
X-187996Y263958D01*
X-188025Y263915D01*
X-188060Y263877D01*
X-188091Y263812D01*
X-188129Y263752D01*
X-188142Y263701D01*
X-188164Y263654D01*
X-188172Y263583D01*
X-188189Y263513D01*
X-188185Y263461D01*
X-188191Y263409D01*
X-188176Y263339D01*
X-188170Y263268D01*
X-188150Y263220D01*
X-188139Y263169D01*
X-188102Y263107D01*
X-188074Y263041D01*
X-188029Y262985D01*
X-188013Y262958D01*
X-187995Y262943D01*
X-187969Y262910D01*
X-186339Y261280D01*
X-185588Y259469D01*
X-185554Y259413D01*
X-185528Y259353D01*
X-185476Y259288D01*
X-185459Y259260D01*
X-185444Y259247D01*
X-185423Y259222D01*
X-182508Y256306D01*
X-182434Y256253D01*
X-182365Y256194D01*
X-182335Y256182D01*
X-182308Y256163D01*
X-182221Y256136D01*
X-182137Y256102D01*
X-182096Y256097D01*
X-182073Y256091D01*
X-182041Y256091D01*
X-181970Y256083D01*
X-181208Y256083D01*
X-176148Y251024D01*
X-176148Y243869D01*
X-181208Y238810D01*
X-188363Y238810D01*
X-193422Y243869D01*
X-193422Y244632D01*
X-193437Y244722D01*
X-193444Y244813D01*
X-193456Y244842D01*
X-193462Y244874D01*
X-193504Y244955D01*
X-193540Y245039D01*
X-193566Y245071D01*
X-193577Y245092D01*
X-193600Y245114D01*
X-193645Y245170D01*
X-199690Y251216D01*
X-200889Y254110D01*
X-200889Y258386D01*
X-200710Y258820D01*
X-200683Y258934D01*
X-200654Y259047D01*
X-200655Y259053D01*
X-200653Y259059D01*
X-200664Y259176D01*
X-200673Y259292D01*
X-200676Y259298D01*
X-200677Y259304D01*
X-200724Y259411D01*
X-200770Y259518D01*
X-200774Y259524D01*
X-200777Y259529D01*
X-200789Y259543D01*
X-200875Y259649D01*
X-200920Y259694D01*
X-202179Y260954D01*
X-202237Y260996D01*
X-202289Y261045D01*
X-202337Y261067D01*
X-202379Y261098D01*
X-202447Y261119D01*
X-202512Y261149D01*
X-202564Y261155D01*
X-202614Y261170D01*
X-202686Y261168D01*
X-202757Y261176D01*
X-202808Y261165D01*
X-202860Y261164D01*
X-202927Y261139D01*
X-202997Y261124D01*
X-203042Y261097D01*
X-203091Y261079D01*
X-203147Y261034D01*
X-203208Y260997D01*
X-203242Y260958D01*
X-203283Y260925D01*
X-203322Y260865D01*
X-203368Y260811D01*
X-203388Y260762D01*
X-203416Y260718D01*
X-203433Y260649D01*
X-203460Y260582D01*
X-203468Y260511D01*
X-203476Y260480D01*
X-203474Y260457D01*
X-203479Y260416D01*
X-203479Y245146D01*
X-203464Y245056D01*
X-203457Y244965D01*
X-203444Y244935D01*
X-203439Y244903D01*
X-203396Y244823D01*
X-203361Y244739D01*
X-203335Y244707D01*
X-203324Y244686D01*
X-203301Y244664D01*
X-203256Y244608D01*
X-198207Y239559D01*
X-198112Y239491D01*
X-198018Y239421D01*
X-198012Y239419D01*
X-198007Y239415D01*
X-197896Y239381D01*
X-197784Y239345D01*
X-197778Y239345D01*
X-197772Y239343D01*
X-197655Y239346D01*
X-197538Y239347D01*
X-197531Y239349D01*
X-197526Y239349D01*
X-197509Y239356D01*
X-197377Y239394D01*
X-196943Y239574D01*
X-193810Y239574D01*
X-190916Y238375D01*
X-183448Y230906D01*
X-183374Y230853D01*
X-183305Y230794D01*
X-183274Y230782D01*
X-183248Y230763D01*
X-183161Y230736D01*
X-183076Y230702D01*
X-183035Y230697D01*
X-183013Y230691D01*
X-182981Y230691D01*
X-182910Y230683D01*
X-181208Y230683D01*
X-176148Y225624D01*
X-176148Y218469D01*
X-181208Y213410D01*
X-188498Y213410D01*
X-188568Y213398D01*
X-188640Y213397D01*
X-188689Y213379D01*
X-188740Y213370D01*
X-188804Y213337D01*
X-188871Y213312D01*
X-188912Y213280D01*
X-188958Y213255D01*
X-189007Y213203D01*
X-189063Y213158D01*
X-189091Y213115D01*
X-189127Y213077D01*
X-189157Y213012D01*
X-189196Y212952D01*
X-189209Y212901D01*
X-189231Y212854D01*
X-189239Y212783D01*
X-189256Y212713D01*
X-189252Y212661D01*
X-189258Y212609D01*
X-189243Y212539D01*
X-189237Y212468D01*
X-189217Y212420D01*
X-189206Y212369D01*
X-189169Y212307D01*
X-189141Y212241D01*
X-189096Y212186D01*
X-189079Y212158D01*
X-189062Y212143D01*
X-189036Y212110D01*
X-182432Y205506D01*
X-182358Y205453D01*
X-182289Y205394D01*
X-182258Y205382D01*
X-182232Y205363D01*
X-182145Y205336D01*
X-182060Y205302D01*
X-182019Y205297D01*
X-181997Y205291D01*
X-181965Y205291D01*
X-181894Y205283D01*
X-181208Y205283D01*
X-176148Y200224D01*
X-176148Y193069D01*
X-181208Y188010D01*
X-188625Y188010D01*
X-188695Y187998D01*
X-188767Y187997D01*
X-188816Y187979D01*
X-188867Y187970D01*
X-188931Y187937D01*
X-188998Y187912D01*
X-189039Y187880D01*
X-189085Y187855D01*
X-189134Y187803D01*
X-189190Y187758D01*
X-189218Y187715D01*
X-189254Y187677D01*
X-189284Y187612D01*
X-189323Y187552D01*
X-189336Y187501D01*
X-189358Y187454D01*
X-189366Y187383D01*
X-189383Y187313D01*
X-189379Y187261D01*
X-189385Y187209D01*
X-189370Y187139D01*
X-189364Y187068D01*
X-189344Y187020D01*
X-189333Y186969D01*
X-189296Y186907D01*
X-189268Y186841D01*
X-189223Y186786D01*
X-189206Y186758D01*
X-189189Y186743D01*
X-189163Y186710D01*
X-182559Y180106D01*
X-182485Y180053D01*
X-182415Y179994D01*
X-182385Y179982D01*
X-182359Y179963D01*
X-182272Y179936D01*
X-182187Y179902D01*
X-182146Y179897D01*
X-182124Y179891D01*
X-182092Y179891D01*
X-182021Y179883D01*
X-181208Y179883D01*
X-176148Y174824D01*
X-176148Y167669D01*
X-181208Y162610D01*
X-188363Y162610D01*
G37*
%LPD*%
%LPC*%
G36*
X-162963Y162610D02*
X-162963Y162610D01*
X-168022Y167669D01*
X-168022Y174824D01*
X-162963Y179883D01*
X-162200Y179883D01*
X-162110Y179898D01*
X-162019Y179905D01*
X-161989Y179918D01*
X-161957Y179923D01*
X-161877Y179966D01*
X-161793Y180002D01*
X-161761Y180027D01*
X-161740Y180038D01*
X-161718Y180062D01*
X-161662Y180106D01*
X-156668Y185100D01*
X-155058Y186710D01*
X-155016Y186769D01*
X-154967Y186821D01*
X-154945Y186868D01*
X-154914Y186910D01*
X-154893Y186979D01*
X-154863Y187044D01*
X-154857Y187096D01*
X-154842Y187145D01*
X-154844Y187217D01*
X-154836Y187288D01*
X-154847Y187339D01*
X-154848Y187391D01*
X-154873Y187459D01*
X-154888Y187529D01*
X-154915Y187573D01*
X-154933Y187622D01*
X-154978Y187678D01*
X-155014Y187740D01*
X-155054Y187774D01*
X-155086Y187814D01*
X-155147Y187853D01*
X-155201Y187900D01*
X-155250Y187919D01*
X-155293Y187947D01*
X-155363Y187965D01*
X-155429Y187992D01*
X-155501Y187999D01*
X-155532Y188007D01*
X-155555Y188005D01*
X-155596Y188010D01*
X-162963Y188010D01*
X-168022Y193069D01*
X-168022Y200224D01*
X-162963Y205283D01*
X-162200Y205283D01*
X-162110Y205298D01*
X-162019Y205305D01*
X-161989Y205318D01*
X-161957Y205323D01*
X-161877Y205366D01*
X-161793Y205402D01*
X-161761Y205427D01*
X-161740Y205438D01*
X-161718Y205462D01*
X-161662Y205506D01*
X-157880Y209288D01*
X-157842Y209342D01*
X-157796Y209388D01*
X-157756Y209461D01*
X-157736Y209488D01*
X-157731Y209507D01*
X-157715Y209535D01*
X-157018Y211217D01*
X-156125Y212110D01*
X-156083Y212169D01*
X-156033Y212221D01*
X-156011Y212268D01*
X-155981Y212310D01*
X-155960Y212379D01*
X-155930Y212444D01*
X-155924Y212496D01*
X-155909Y212545D01*
X-155911Y212617D01*
X-155903Y212688D01*
X-155914Y212739D01*
X-155915Y212791D01*
X-155940Y212859D01*
X-155955Y212929D01*
X-155982Y212973D01*
X-156000Y213022D01*
X-156044Y213078D01*
X-156081Y213140D01*
X-156121Y213174D01*
X-156153Y213214D01*
X-156214Y213253D01*
X-156268Y213300D01*
X-156316Y213319D01*
X-156360Y213347D01*
X-156430Y213365D01*
X-156496Y213392D01*
X-156567Y213399D01*
X-156599Y213407D01*
X-156622Y213405D01*
X-156663Y213410D01*
X-162963Y213410D01*
X-168022Y218469D01*
X-168022Y225624D01*
X-162963Y230683D01*
X-162200Y230683D01*
X-162110Y230698D01*
X-162019Y230705D01*
X-161989Y230718D01*
X-161957Y230723D01*
X-161877Y230766D01*
X-161793Y230802D01*
X-161761Y230827D01*
X-161740Y230838D01*
X-161718Y230862D01*
X-161662Y230906D01*
X-155058Y237510D01*
X-155016Y237569D01*
X-154967Y237621D01*
X-154945Y237668D01*
X-154914Y237710D01*
X-154893Y237779D01*
X-154863Y237844D01*
X-154857Y237896D01*
X-154842Y237945D01*
X-154844Y238017D01*
X-154836Y238088D01*
X-154847Y238139D01*
X-154848Y238191D01*
X-154873Y238259D01*
X-154888Y238329D01*
X-154915Y238373D01*
X-154933Y238422D01*
X-154978Y238478D01*
X-155014Y238540D01*
X-155054Y238574D01*
X-155086Y238614D01*
X-155147Y238653D01*
X-155201Y238700D01*
X-155250Y238719D01*
X-155293Y238747D01*
X-155363Y238765D01*
X-155429Y238792D01*
X-155501Y238799D01*
X-155532Y238807D01*
X-155555Y238805D01*
X-155596Y238810D01*
X-162963Y238810D01*
X-168022Y243869D01*
X-168022Y251024D01*
X-162963Y256083D01*
X-162200Y256083D01*
X-162110Y256098D01*
X-162019Y256105D01*
X-161989Y256118D01*
X-161957Y256123D01*
X-161877Y256166D01*
X-161793Y256202D01*
X-161761Y256227D01*
X-161740Y256238D01*
X-161718Y256262D01*
X-161662Y256306D01*
X-156262Y261706D01*
X-156074Y261894D01*
X-156032Y261953D01*
X-155983Y262005D01*
X-155961Y262052D01*
X-155930Y262094D01*
X-155909Y262163D01*
X-155879Y262228D01*
X-155873Y262279D01*
X-155858Y262329D01*
X-155860Y262401D01*
X-155852Y262472D01*
X-155863Y262523D01*
X-155864Y262575D01*
X-155889Y262642D01*
X-155904Y262713D01*
X-155931Y262757D01*
X-155949Y262806D01*
X-155994Y262862D01*
X-156030Y262924D01*
X-156070Y262958D01*
X-156102Y262998D01*
X-156163Y263037D01*
X-156217Y263084D01*
X-156266Y263103D01*
X-156309Y263131D01*
X-156379Y263149D01*
X-156445Y263176D01*
X-156517Y263183D01*
X-156548Y263191D01*
X-156571Y263189D01*
X-156612Y263194D01*
X-157862Y263194D01*
X-157862Y271324D01*
X-149732Y271324D01*
X-149732Y268848D01*
X-152279Y266302D01*
X-152336Y266223D01*
X-152398Y266148D01*
X-152407Y266123D01*
X-152423Y266102D01*
X-152451Y266009D01*
X-152486Y265918D01*
X-152487Y265892D01*
X-152495Y265867D01*
X-152492Y265770D01*
X-152497Y265672D01*
X-152489Y265647D01*
X-152489Y265621D01*
X-152455Y265530D01*
X-152428Y265436D01*
X-152413Y265415D01*
X-152404Y265390D01*
X-152343Y265314D01*
X-152288Y265234D01*
X-152267Y265218D01*
X-152250Y265198D01*
X-152168Y265145D01*
X-152090Y265087D01*
X-152066Y265079D01*
X-152044Y265065D01*
X-151949Y265041D01*
X-151857Y265011D01*
X-151830Y265011D01*
X-151805Y265005D01*
X-151708Y265013D01*
X-151611Y265013D01*
X-151579Y265023D01*
X-151560Y265024D01*
X-151529Y265037D01*
X-151449Y265060D01*
X-151045Y265228D01*
X-147811Y265228D01*
X-147377Y265048D01*
X-147263Y265021D01*
X-147150Y264993D01*
X-147144Y264993D01*
X-147138Y264992D01*
X-147021Y265003D01*
X-146905Y265012D01*
X-146899Y265014D01*
X-146893Y265015D01*
X-146786Y265062D01*
X-146678Y265108D01*
X-146673Y265113D01*
X-146668Y265115D01*
X-146654Y265127D01*
X-146547Y265213D01*
X-146075Y265685D01*
X-91548Y265685D01*
X-91477Y265696D01*
X-91406Y265698D01*
X-91357Y265716D01*
X-91305Y265724D01*
X-91242Y265758D01*
X-91175Y265783D01*
X-91134Y265815D01*
X-91088Y265840D01*
X-91039Y265892D01*
X-90983Y265936D01*
X-90954Y265980D01*
X-90919Y266018D01*
X-90888Y266083D01*
X-90850Y266143D01*
X-90837Y266194D01*
X-90815Y266241D01*
X-90807Y266312D01*
X-90790Y266382D01*
X-90794Y266434D01*
X-90788Y266485D01*
X-90803Y266556D01*
X-90809Y266627D01*
X-90829Y266675D01*
X-90840Y266726D01*
X-90877Y266787D01*
X-90905Y266853D01*
X-90950Y266909D01*
X-90966Y266937D01*
X-90984Y266952D01*
X-91010Y266984D01*
X-94794Y270768D01*
X-94794Y277923D01*
X-89734Y282982D01*
X-82579Y282982D01*
X-77520Y277923D01*
X-77520Y270768D01*
X-81304Y266984D01*
X-81346Y266926D01*
X-81395Y266874D01*
X-81417Y266827D01*
X-81447Y266785D01*
X-81468Y266716D01*
X-81499Y266651D01*
X-81504Y266599D01*
X-81520Y266549D01*
X-81518Y266478D01*
X-81526Y266407D01*
X-81515Y266356D01*
X-81513Y266304D01*
X-81489Y266236D01*
X-81473Y266166D01*
X-81447Y266121D01*
X-81429Y266073D01*
X-81384Y266017D01*
X-81347Y265955D01*
X-81308Y265921D01*
X-81275Y265881D01*
X-81215Y265842D01*
X-81160Y265795D01*
X-81112Y265776D01*
X-81068Y265748D01*
X-80999Y265730D01*
X-80932Y265703D01*
X-80861Y265695D01*
X-80830Y265687D01*
X-80806Y265689D01*
X-80765Y265685D01*
X-66148Y265685D01*
X-66077Y265696D01*
X-66006Y265698D01*
X-65957Y265716D01*
X-65905Y265724D01*
X-65842Y265758D01*
X-65775Y265783D01*
X-65734Y265815D01*
X-65688Y265840D01*
X-65639Y265892D01*
X-65583Y265936D01*
X-65554Y265980D01*
X-65519Y266018D01*
X-65488Y266083D01*
X-65450Y266143D01*
X-65437Y266194D01*
X-65415Y266241D01*
X-65407Y266312D01*
X-65390Y266382D01*
X-65394Y266434D01*
X-65388Y266485D01*
X-65403Y266556D01*
X-65409Y266627D01*
X-65429Y266675D01*
X-65440Y266726D01*
X-65477Y266787D01*
X-65505Y266853D01*
X-65550Y266909D01*
X-65566Y266937D01*
X-65584Y266952D01*
X-65610Y266984D01*
X-69394Y270768D01*
X-69394Y277923D01*
X-64334Y282982D01*
X-57179Y282982D01*
X-52120Y277923D01*
X-52120Y270768D01*
X-55904Y266984D01*
X-55946Y266926D01*
X-55995Y266874D01*
X-56017Y266827D01*
X-56047Y266785D01*
X-56068Y266716D01*
X-56099Y266651D01*
X-56104Y266599D01*
X-56120Y266549D01*
X-56118Y266478D01*
X-56126Y266407D01*
X-56115Y266356D01*
X-56113Y266304D01*
X-56089Y266236D01*
X-56073Y266166D01*
X-56047Y266121D01*
X-56029Y266073D01*
X-55984Y266017D01*
X-55947Y265955D01*
X-55908Y265921D01*
X-55875Y265881D01*
X-55815Y265842D01*
X-55760Y265795D01*
X-55712Y265776D01*
X-55668Y265748D01*
X-55599Y265730D01*
X-55532Y265703D01*
X-55461Y265695D01*
X-55430Y265687D01*
X-55406Y265689D01*
X-55365Y265685D01*
X-45288Y265685D01*
X-42982Y263378D01*
X21367Y199030D01*
X21441Y198976D01*
X21510Y198917D01*
X21541Y198905D01*
X21567Y198886D01*
X21654Y198859D01*
X21739Y198825D01*
X21780Y198820D01*
X21802Y198814D01*
X21834Y198814D01*
X21905Y198807D01*
X169357Y198807D01*
X169447Y198821D01*
X169538Y198828D01*
X169567Y198841D01*
X169599Y198846D01*
X169680Y198889D01*
X169764Y198925D01*
X169796Y198950D01*
X169817Y198961D01*
X169839Y198985D01*
X169895Y199030D01*
X206329Y235464D01*
X206382Y235538D01*
X206442Y235607D01*
X206454Y235637D01*
X206473Y235663D01*
X206499Y235750D01*
X206534Y235835D01*
X206538Y235876D01*
X206545Y235898D01*
X206544Y235931D01*
X206552Y236002D01*
X206552Y237062D01*
X206537Y237152D01*
X206530Y237243D01*
X206518Y237273D01*
X206512Y237305D01*
X206470Y237385D01*
X206434Y237469D01*
X206408Y237501D01*
X206397Y237522D01*
X206374Y237544D01*
X206329Y237600D01*
X204802Y239127D01*
X204802Y243524D01*
X207911Y246632D01*
X212307Y246632D01*
X215416Y243524D01*
X215416Y239127D01*
X213889Y237600D01*
X213835Y237526D01*
X213776Y237457D01*
X213764Y237427D01*
X213745Y237400D01*
X213718Y237314D01*
X213684Y237229D01*
X213679Y237188D01*
X213673Y237165D01*
X213673Y237133D01*
X213666Y237062D01*
X213666Y232740D01*
X172619Y191693D01*
X18644Y191693D01*
X16337Y194000D01*
X-48012Y258348D01*
X-48086Y258401D01*
X-48155Y258461D01*
X-48185Y258473D01*
X-48211Y258492D01*
X-48298Y258519D01*
X-48383Y258553D01*
X-48424Y258557D01*
X-48447Y258564D01*
X-48479Y258563D01*
X-48550Y258571D01*
X-56331Y258571D01*
X-56401Y258560D01*
X-56473Y258558D01*
X-56522Y258540D01*
X-56573Y258532D01*
X-56637Y258498D01*
X-56704Y258473D01*
X-56745Y258441D01*
X-56791Y258416D01*
X-56840Y258364D01*
X-56896Y258320D01*
X-56924Y258276D01*
X-56960Y258238D01*
X-56990Y258173D01*
X-57029Y258113D01*
X-57042Y258062D01*
X-57064Y258015D01*
X-57072Y257944D01*
X-57089Y257874D01*
X-57085Y257822D01*
X-57091Y257771D01*
X-57076Y257700D01*
X-57070Y257629D01*
X-57050Y257581D01*
X-57039Y257530D01*
X-57002Y257469D01*
X-56974Y257403D01*
X-56929Y257347D01*
X-56913Y257319D01*
X-56895Y257304D01*
X-56869Y257272D01*
X-52120Y252523D01*
X-52120Y245368D01*
X-55980Y241508D01*
X-56022Y241450D01*
X-56071Y241398D01*
X-56093Y241351D01*
X-56123Y241308D01*
X-56145Y241240D01*
X-56175Y241175D01*
X-56180Y241123D01*
X-56196Y241073D01*
X-56194Y241001D01*
X-56202Y240930D01*
X-56191Y240879D01*
X-56189Y240827D01*
X-56165Y240760D01*
X-56150Y240690D01*
X-56123Y240645D01*
X-56105Y240596D01*
X-56060Y240540D01*
X-56023Y240479D01*
X-55984Y240445D01*
X-55951Y240404D01*
X-55891Y240366D01*
X-55837Y240319D01*
X-55788Y240299D01*
X-55744Y240271D01*
X-55675Y240254D01*
X-55608Y240227D01*
X-55537Y240219D01*
X-55506Y240211D01*
X-55483Y240213D01*
X-55442Y240209D01*
X-42494Y240209D01*
X-40188Y237902D01*
X7473Y190241D01*
X7547Y190188D01*
X7617Y190129D01*
X7647Y190116D01*
X7673Y190098D01*
X7760Y190071D01*
X7845Y190037D01*
X7886Y190032D01*
X7908Y190025D01*
X7940Y190026D01*
X8012Y190018D01*
X323154Y190018D01*
X323244Y190033D01*
X323335Y190040D01*
X323364Y190053D01*
X323396Y190058D01*
X323477Y190101D01*
X323561Y190136D01*
X323593Y190162D01*
X323614Y190173D01*
X323636Y190196D01*
X323692Y190241D01*
X378010Y244559D01*
X378063Y244633D01*
X378123Y244703D01*
X378135Y244733D01*
X378154Y244759D01*
X378181Y244846D01*
X378215Y244931D01*
X378219Y244972D01*
X378226Y244994D01*
X378225Y245026D01*
X378233Y245098D01*
X378233Y247257D01*
X381342Y250366D01*
X385738Y250366D01*
X388847Y247257D01*
X388847Y242861D01*
X385738Y239752D01*
X383579Y239752D01*
X383488Y239738D01*
X383398Y239731D01*
X383368Y239718D01*
X383336Y239713D01*
X383255Y239670D01*
X383171Y239634D01*
X383139Y239609D01*
X383118Y239598D01*
X383096Y239574D01*
X383040Y239529D01*
X326415Y182905D01*
X4750Y182905D01*
X-45218Y232872D01*
X-45292Y232925D01*
X-45361Y232985D01*
X-45391Y232997D01*
X-45417Y233016D01*
X-45504Y233042D01*
X-45589Y233077D01*
X-45630Y233081D01*
X-45652Y233088D01*
X-45685Y233087D01*
X-45756Y233095D01*
X-56255Y233095D01*
X-56325Y233083D01*
X-56397Y233082D01*
X-56446Y233064D01*
X-56497Y233055D01*
X-56561Y233022D01*
X-56628Y232997D01*
X-56669Y232965D01*
X-56715Y232940D01*
X-56764Y232888D01*
X-56820Y232843D01*
X-56848Y232800D01*
X-56884Y232762D01*
X-56914Y232697D01*
X-56953Y232637D01*
X-56966Y232586D01*
X-56988Y232539D01*
X-56996Y232468D01*
X-57013Y232398D01*
X-57009Y232346D01*
X-57015Y232294D01*
X-56999Y232224D01*
X-56994Y232153D01*
X-56974Y232105D01*
X-56962Y232054D01*
X-56926Y231992D01*
X-56898Y231926D01*
X-56853Y231871D01*
X-56836Y231843D01*
X-56819Y231828D01*
X-56793Y231796D01*
X-52120Y227123D01*
X-52120Y219968D01*
X-56081Y216006D01*
X-56123Y215948D01*
X-56173Y215896D01*
X-56195Y215849D01*
X-56225Y215807D01*
X-56246Y215738D01*
X-56276Y215673D01*
X-56282Y215621D01*
X-56297Y215572D01*
X-56296Y215500D01*
X-56303Y215429D01*
X-56292Y215378D01*
X-56291Y215326D01*
X-56266Y215258D01*
X-56251Y215188D01*
X-56224Y215144D01*
X-56207Y215095D01*
X-56162Y215039D01*
X-56125Y214977D01*
X-56085Y214943D01*
X-56053Y214903D01*
X-55993Y214864D01*
X-55938Y214817D01*
X-55890Y214798D01*
X-55846Y214770D01*
X-55776Y214752D01*
X-55710Y214725D01*
X-55639Y214718D01*
X-55607Y214710D01*
X-55584Y214711D01*
X-55543Y214707D01*
X-39218Y214707D01*
X-36911Y212401D01*
X-5786Y181275D01*
X-5712Y181222D01*
X-5642Y181162D01*
X-5612Y181150D01*
X-5586Y181131D01*
X-5499Y181105D01*
X-5414Y181070D01*
X-5373Y181066D01*
X-5351Y181059D01*
X-5319Y181060D01*
X-5247Y181052D01*
X488558Y181052D01*
X488649Y181067D01*
X488739Y181074D01*
X488769Y181086D01*
X488801Y181092D01*
X488882Y181134D01*
X488966Y181170D01*
X488998Y181196D01*
X489019Y181207D01*
X489041Y181230D01*
X489097Y181275D01*
X556572Y248750D01*
X556625Y248824D01*
X556685Y248894D01*
X556697Y248924D01*
X556716Y248950D01*
X556743Y249037D01*
X556777Y249122D01*
X556781Y249163D01*
X556788Y249185D01*
X556787Y249217D01*
X556795Y249289D01*
X556795Y250432D01*
X559904Y253541D01*
X564300Y253541D01*
X567409Y250432D01*
X567409Y246036D01*
X564300Y242927D01*
X561125Y242927D01*
X561034Y242913D01*
X560944Y242906D01*
X560914Y242893D01*
X560882Y242888D01*
X560801Y242845D01*
X560717Y242809D01*
X560685Y242784D01*
X560664Y242773D01*
X560642Y242749D01*
X560586Y242704D01*
X494127Y176245D01*
X491820Y173938D01*
X-8509Y173938D01*
X-10815Y176245D01*
X-41941Y207371D01*
X-42015Y207424D01*
X-42085Y207483D01*
X-42115Y207495D01*
X-42141Y207514D01*
X-42228Y207541D01*
X-42313Y207575D01*
X-42354Y207580D01*
X-42376Y207586D01*
X-42408Y207586D01*
X-42479Y207593D01*
X-56153Y207593D01*
X-56224Y207582D01*
X-56295Y207580D01*
X-56344Y207562D01*
X-56396Y207554D01*
X-56459Y207520D01*
X-56526Y207496D01*
X-56567Y207463D01*
X-56613Y207439D01*
X-56662Y207387D01*
X-56718Y207342D01*
X-56747Y207298D01*
X-56782Y207260D01*
X-56813Y207195D01*
X-56851Y207135D01*
X-56864Y207084D01*
X-56886Y207037D01*
X-56894Y206966D01*
X-56911Y206896D01*
X-56907Y206845D01*
X-56913Y206793D01*
X-56898Y206723D01*
X-56892Y206651D01*
X-56872Y206603D01*
X-56861Y206552D01*
X-56824Y206491D01*
X-56796Y206425D01*
X-56751Y206369D01*
X-56735Y206341D01*
X-56717Y206326D01*
X-56691Y206294D01*
X-52120Y201723D01*
X-52120Y194568D01*
X-56056Y190632D01*
X-56098Y190574D01*
X-56147Y190522D01*
X-56169Y190474D01*
X-56200Y190432D01*
X-56221Y190364D01*
X-56251Y190299D01*
X-56257Y190247D01*
X-56272Y190197D01*
X-56270Y190125D01*
X-56278Y190054D01*
X-56267Y190003D01*
X-56266Y189951D01*
X-56241Y189884D01*
X-56226Y189814D01*
X-56199Y189769D01*
X-56181Y189720D01*
X-56136Y189664D01*
X-56100Y189603D01*
X-56060Y189569D01*
X-56027Y189528D01*
X-55967Y189489D01*
X-55913Y189443D01*
X-55864Y189423D01*
X-55821Y189395D01*
X-55751Y189378D01*
X-55685Y189351D01*
X-55613Y189343D01*
X-55582Y189335D01*
X-55559Y189337D01*
X-55518Y189332D01*
X-41224Y189332D01*
X-24226Y172334D01*
X-24152Y172281D01*
X-24083Y172222D01*
X-24052Y172209D01*
X-24026Y172191D01*
X-23939Y172164D01*
X-23854Y172130D01*
X-23813Y172125D01*
X-23791Y172118D01*
X-23759Y172119D01*
X-23688Y172111D01*
X663437Y172111D01*
X663528Y172126D01*
X663618Y172133D01*
X663648Y172146D01*
X663680Y172151D01*
X663761Y172194D01*
X663845Y172229D01*
X663877Y172255D01*
X663898Y172266D01*
X663920Y172289D01*
X663976Y172334D01*
X738690Y247049D01*
X738743Y247123D01*
X738803Y247192D01*
X738815Y247222D01*
X738834Y247248D01*
X738861Y247335D01*
X738895Y247420D01*
X738899Y247461D01*
X738906Y247483D01*
X738905Y247516D01*
X738913Y247587D01*
X738913Y249747D01*
X742022Y252855D01*
X746418Y252855D01*
X749527Y249747D01*
X749527Y245350D01*
X746418Y242242D01*
X744259Y242242D01*
X744168Y242227D01*
X744078Y242220D01*
X744048Y242207D01*
X744016Y242202D01*
X743935Y242159D01*
X743851Y242124D01*
X743819Y242098D01*
X743798Y242087D01*
X743776Y242063D01*
X743720Y242019D01*
X669006Y167304D01*
X666699Y164998D01*
X-26949Y164998D01*
X-43948Y181996D01*
X-44022Y182049D01*
X-44091Y182108D01*
X-44121Y182121D01*
X-44147Y182139D01*
X-44234Y182166D01*
X-44319Y182200D01*
X-44360Y182205D01*
X-44383Y182212D01*
X-44415Y182211D01*
X-44486Y182219D01*
X-56178Y182219D01*
X-56249Y182207D01*
X-56321Y182205D01*
X-56370Y182188D01*
X-56421Y182179D01*
X-56484Y182146D01*
X-56552Y182121D01*
X-56592Y182088D01*
X-56638Y182064D01*
X-56688Y182012D01*
X-56744Y181967D01*
X-56772Y181923D01*
X-56808Y181886D01*
X-56838Y181821D01*
X-56877Y181760D01*
X-56890Y181710D01*
X-56911Y181663D01*
X-56919Y181591D01*
X-56937Y181522D01*
X-56933Y181470D01*
X-56939Y181418D01*
X-56923Y181348D01*
X-56918Y181277D01*
X-56897Y181229D01*
X-56886Y181178D01*
X-56849Y181116D01*
X-56821Y181050D01*
X-56777Y180994D01*
X-56760Y180967D01*
X-56742Y180951D01*
X-56717Y180919D01*
X-52120Y176323D01*
X-52120Y169168D01*
X-57179Y164109D01*
X-64334Y164109D01*
X-69394Y169168D01*
X-69394Y176323D01*
X-64797Y180919D01*
X-64755Y180978D01*
X-64706Y181030D01*
X-64684Y181077D01*
X-64653Y181119D01*
X-64632Y181188D01*
X-64602Y181253D01*
X-64596Y181304D01*
X-64581Y181354D01*
X-64583Y181426D01*
X-64575Y181497D01*
X-64586Y181548D01*
X-64587Y181600D01*
X-64612Y181667D01*
X-64627Y181737D01*
X-64654Y181782D01*
X-64672Y181831D01*
X-64717Y181887D01*
X-64753Y181949D01*
X-64793Y181982D01*
X-64826Y182023D01*
X-64886Y182062D01*
X-64940Y182108D01*
X-64989Y182128D01*
X-65032Y182156D01*
X-65102Y182174D01*
X-65169Y182200D01*
X-65240Y182208D01*
X-65271Y182216D01*
X-65294Y182214D01*
X-65335Y182219D01*
X-81578Y182219D01*
X-81649Y182207D01*
X-81721Y182205D01*
X-81770Y182188D01*
X-81821Y182179D01*
X-81884Y182146D01*
X-81952Y182121D01*
X-81992Y182088D01*
X-82038Y182064D01*
X-82088Y182012D01*
X-82144Y181967D01*
X-82172Y181923D01*
X-82208Y181886D01*
X-82238Y181821D01*
X-82277Y181760D01*
X-82290Y181710D01*
X-82311Y181663D01*
X-82319Y181591D01*
X-82337Y181522D01*
X-82333Y181470D01*
X-82339Y181418D01*
X-82323Y181348D01*
X-82318Y181277D01*
X-82297Y181229D01*
X-82286Y181178D01*
X-82249Y181116D01*
X-82221Y181050D01*
X-82177Y180994D01*
X-82160Y180967D01*
X-82142Y180951D01*
X-82117Y180919D01*
X-77520Y176323D01*
X-77520Y169168D01*
X-82579Y164109D01*
X-89734Y164109D01*
X-94794Y169168D01*
X-94794Y176323D01*
X-90197Y180919D01*
X-90155Y180978D01*
X-90106Y181030D01*
X-90084Y181077D01*
X-90053Y181119D01*
X-90032Y181188D01*
X-90002Y181253D01*
X-89996Y181304D01*
X-89981Y181354D01*
X-89983Y181426D01*
X-89975Y181497D01*
X-89986Y181548D01*
X-89987Y181600D01*
X-90012Y181667D01*
X-90027Y181737D01*
X-90054Y181782D01*
X-90072Y181831D01*
X-90117Y181887D01*
X-90153Y181949D01*
X-90193Y181982D01*
X-90226Y182023D01*
X-90286Y182062D01*
X-90340Y182108D01*
X-90389Y182128D01*
X-90432Y182156D01*
X-90502Y182174D01*
X-90569Y182200D01*
X-90640Y182208D01*
X-90671Y182216D01*
X-90694Y182214D01*
X-90735Y182219D01*
X-141072Y182219D01*
X-141091Y182216D01*
X-141111Y182218D01*
X-141212Y182196D01*
X-141314Y182179D01*
X-141332Y182170D01*
X-141351Y182166D01*
X-141440Y182112D01*
X-141532Y182064D01*
X-141545Y182050D01*
X-141563Y182039D01*
X-141630Y181961D01*
X-141701Y181886D01*
X-141709Y181868D01*
X-141722Y181852D01*
X-141761Y181756D01*
X-141805Y181663D01*
X-141807Y181643D01*
X-141814Y181624D01*
X-141833Y181458D01*
X-141833Y179180D01*
X-143032Y176286D01*
X-145247Y174071D01*
X-145411Y174003D01*
X-145466Y173968D01*
X-145527Y173943D01*
X-145592Y173891D01*
X-145620Y173873D01*
X-145632Y173858D01*
X-145658Y173838D01*
X-150525Y168970D01*
X-150579Y168896D01*
X-150638Y168826D01*
X-150650Y168796D01*
X-150669Y168770D01*
X-150696Y168683D01*
X-150730Y168598D01*
X-150734Y168557D01*
X-150741Y168535D01*
X-150740Y168503D01*
X-150748Y168432D01*
X-150748Y167669D01*
X-155808Y162610D01*
X-162963Y162610D01*
G37*
%LPD*%
%LPC*%
G36*
X746899Y27053D02*
X746899Y27053D01*
X743790Y30161D01*
X743790Y34558D01*
X745317Y36085D01*
X745370Y36159D01*
X745430Y36228D01*
X745442Y36258D01*
X745461Y36285D01*
X745487Y36371D01*
X745522Y36456D01*
X745526Y36497D01*
X745533Y36520D01*
X745532Y36552D01*
X745540Y36623D01*
X745540Y75123D01*
X745525Y75213D01*
X745518Y75304D01*
X745506Y75333D01*
X745500Y75365D01*
X745458Y75446D01*
X745422Y75530D01*
X745396Y75562D01*
X745385Y75583D01*
X745362Y75605D01*
X745317Y75661D01*
X673374Y147604D01*
X673300Y147657D01*
X673230Y147717D01*
X673200Y147729D01*
X673174Y147748D01*
X673087Y147775D01*
X673002Y147809D01*
X672961Y147813D01*
X672939Y147820D01*
X672907Y147819D01*
X672835Y147827D01*
X-20970Y147827D01*
X-21060Y147813D01*
X-21151Y147805D01*
X-21181Y147793D01*
X-21213Y147788D01*
X-21293Y147745D01*
X-21377Y147709D01*
X-21409Y147683D01*
X-21430Y147672D01*
X-21452Y147649D01*
X-21508Y147604D01*
X-38024Y131089D01*
X-55848Y131089D01*
X-55919Y131077D01*
X-55991Y131075D01*
X-56040Y131057D01*
X-56091Y131049D01*
X-56154Y131015D01*
X-56222Y130991D01*
X-56262Y130958D01*
X-56308Y130934D01*
X-56358Y130882D01*
X-56414Y130837D01*
X-56442Y130793D01*
X-56478Y130755D01*
X-56508Y130690D01*
X-56547Y130630D01*
X-56559Y130580D01*
X-56581Y130532D01*
X-56589Y130461D01*
X-56607Y130392D01*
X-56603Y130340D01*
X-56608Y130288D01*
X-56593Y130218D01*
X-56588Y130146D01*
X-56567Y130099D01*
X-56556Y130048D01*
X-56519Y129986D01*
X-56491Y129920D01*
X-56446Y129864D01*
X-56430Y129836D01*
X-56412Y129821D01*
X-56386Y129789D01*
X-52120Y125523D01*
X-52120Y118368D01*
X-56259Y114229D01*
X-56301Y114170D01*
X-56351Y114118D01*
X-56372Y114071D01*
X-56403Y114029D01*
X-56424Y113960D01*
X-56454Y113895D01*
X-56460Y113844D01*
X-56475Y113794D01*
X-56473Y113722D01*
X-56481Y113651D01*
X-56470Y113600D01*
X-56469Y113548D01*
X-56444Y113481D01*
X-56429Y113411D01*
X-56402Y113366D01*
X-56384Y113317D01*
X-56340Y113261D01*
X-56303Y113199D01*
X-56263Y113166D01*
X-56231Y113125D01*
X-56170Y113086D01*
X-56116Y113040D01*
X-56068Y113020D01*
X-56024Y112992D01*
X-55954Y112974D01*
X-55888Y112948D01*
X-55816Y112940D01*
X-55785Y112932D01*
X-55762Y112934D01*
X-55721Y112929D01*
X-42962Y112929D01*
X-42872Y112944D01*
X-42781Y112951D01*
X-42751Y112964D01*
X-42719Y112969D01*
X-42639Y113012D01*
X-42555Y113047D01*
X-42523Y113073D01*
X-42502Y113084D01*
X-42480Y113107D01*
X-42424Y113152D01*
X-9677Y145898D01*
X480924Y145898D01*
X564694Y62128D01*
X564694Y37385D01*
X564708Y37295D01*
X564715Y37204D01*
X564728Y37174D01*
X564733Y37142D01*
X564776Y37062D01*
X564812Y36978D01*
X564837Y36946D01*
X564848Y36925D01*
X564872Y36903D01*
X564916Y36847D01*
X566444Y35320D01*
X566444Y30923D01*
X563335Y27815D01*
X558939Y27815D01*
X555830Y30923D01*
X555830Y35320D01*
X557357Y36847D01*
X557410Y36921D01*
X557470Y36990D01*
X557482Y37020D01*
X557501Y37047D01*
X557527Y37133D01*
X557562Y37218D01*
X557566Y37259D01*
X557573Y37282D01*
X557572Y37314D01*
X557580Y37385D01*
X557580Y58867D01*
X557565Y58957D01*
X557558Y59048D01*
X557546Y59077D01*
X557540Y59109D01*
X557498Y59190D01*
X557462Y59274D01*
X557436Y59306D01*
X557425Y59327D01*
X557402Y59349D01*
X557357Y59405D01*
X478200Y138562D01*
X478126Y138615D01*
X478057Y138674D01*
X478027Y138687D01*
X478000Y138705D01*
X477913Y138732D01*
X477829Y138766D01*
X477788Y138771D01*
X477765Y138778D01*
X477733Y138777D01*
X477662Y138785D01*
X-6416Y138785D01*
X-6506Y138770D01*
X-6597Y138763D01*
X-6626Y138750D01*
X-6658Y138745D01*
X-6739Y138702D01*
X-6823Y138667D01*
X-6855Y138641D01*
X-6876Y138630D01*
X-6898Y138607D01*
X-6954Y138562D01*
X-39700Y105816D01*
X-55975Y105816D01*
X-56046Y105804D01*
X-56118Y105802D01*
X-56167Y105784D01*
X-56218Y105776D01*
X-56281Y105742D01*
X-56349Y105718D01*
X-56389Y105685D01*
X-56435Y105661D01*
X-56485Y105609D01*
X-56541Y105564D01*
X-56569Y105520D01*
X-56605Y105482D01*
X-56635Y105418D01*
X-56674Y105357D01*
X-56686Y105307D01*
X-56708Y105259D01*
X-56716Y105188D01*
X-56734Y105119D01*
X-56730Y105067D01*
X-56735Y105015D01*
X-56720Y104945D01*
X-56715Y104873D01*
X-56694Y104826D01*
X-56683Y104775D01*
X-56646Y104713D01*
X-56618Y104647D01*
X-56573Y104591D01*
X-56557Y104563D01*
X-56539Y104548D01*
X-56513Y104516D01*
X-52120Y100123D01*
X-52120Y92968D01*
X-56132Y88956D01*
X-56174Y88897D01*
X-56224Y88845D01*
X-56245Y88798D01*
X-56276Y88756D01*
X-56297Y88687D01*
X-56327Y88622D01*
X-56333Y88571D01*
X-56348Y88521D01*
X-56346Y88449D01*
X-56354Y88378D01*
X-56343Y88327D01*
X-56342Y88275D01*
X-56317Y88208D01*
X-56302Y88138D01*
X-56275Y88093D01*
X-56257Y88044D01*
X-56213Y87988D01*
X-56176Y87926D01*
X-56136Y87893D01*
X-56104Y87852D01*
X-56043Y87813D01*
X-55989Y87767D01*
X-55941Y87747D01*
X-55897Y87719D01*
X-55827Y87701D01*
X-55761Y87675D01*
X-55689Y87667D01*
X-55658Y87659D01*
X-55635Y87661D01*
X-55594Y87656D01*
X-44029Y87656D01*
X-43939Y87671D01*
X-43848Y87678D01*
X-43818Y87691D01*
X-43786Y87696D01*
X-43705Y87739D01*
X-43621Y87774D01*
X-43589Y87800D01*
X-43569Y87811D01*
X-43546Y87834D01*
X-43490Y87879D01*
X5080Y136450D01*
X315874Y136450D01*
X381306Y71018D01*
X381306Y37639D01*
X381320Y37549D01*
X381327Y37458D01*
X381340Y37428D01*
X381345Y37396D01*
X381388Y37316D01*
X381424Y37232D01*
X381449Y37200D01*
X381460Y37179D01*
X381484Y37157D01*
X381528Y37101D01*
X383056Y35574D01*
X383056Y31177D01*
X379947Y28069D01*
X375551Y28069D01*
X372442Y31177D01*
X372442Y35574D01*
X373969Y37101D01*
X374022Y37175D01*
X374082Y37244D01*
X374094Y37274D01*
X374113Y37301D01*
X374139Y37387D01*
X374174Y37472D01*
X374178Y37513D01*
X374185Y37536D01*
X374184Y37568D01*
X374192Y37639D01*
X374192Y67757D01*
X374177Y67847D01*
X374170Y67938D01*
X374158Y67967D01*
X374152Y67999D01*
X374110Y68080D01*
X374074Y68164D01*
X374048Y68196D01*
X374037Y68217D01*
X374014Y68239D01*
X373969Y68295D01*
X313151Y129113D01*
X313077Y129166D01*
X313007Y129226D01*
X312977Y129238D01*
X312951Y129257D01*
X312864Y129283D01*
X312779Y129318D01*
X312738Y129322D01*
X312716Y129329D01*
X312684Y129328D01*
X312613Y129336D01*
X140168Y129336D01*
X140097Y129325D01*
X140025Y129323D01*
X139976Y129305D01*
X139925Y129296D01*
X139862Y129263D01*
X139794Y129238D01*
X139754Y129206D01*
X139708Y129181D01*
X139658Y129129D01*
X139602Y129084D01*
X139574Y129041D01*
X139538Y129003D01*
X139508Y128938D01*
X139469Y128878D01*
X139457Y128827D01*
X139435Y128780D01*
X139427Y128709D01*
X139409Y128639D01*
X139413Y128587D01*
X139407Y128535D01*
X139423Y128465D01*
X139428Y128394D01*
X139449Y128346D01*
X139460Y128295D01*
X139497Y128233D01*
X139525Y128167D01*
X139569Y128112D01*
X139586Y128084D01*
X139604Y128069D01*
X139629Y128037D01*
X141905Y125761D01*
X192055Y75611D01*
X194362Y73304D01*
X194362Y42784D01*
X194376Y42694D01*
X194383Y42603D01*
X194396Y42573D01*
X194401Y42541D01*
X194444Y42461D01*
X194480Y42377D01*
X194505Y42345D01*
X194516Y42324D01*
X194540Y42302D01*
X194584Y42246D01*
X196401Y40429D01*
X196475Y40376D01*
X196544Y40317D01*
X196575Y40305D01*
X196601Y40286D01*
X196688Y40259D01*
X196773Y40225D01*
X196814Y40220D01*
X196836Y40213D01*
X196868Y40214D01*
X196939Y40206D01*
X199099Y40206D01*
X202208Y37098D01*
X202208Y32701D01*
X199099Y29593D01*
X194703Y29593D01*
X191594Y32701D01*
X191594Y34861D01*
X191579Y34951D01*
X191572Y35042D01*
X191560Y35072D01*
X191554Y35104D01*
X191512Y35184D01*
X191476Y35268D01*
X191450Y35300D01*
X191439Y35321D01*
X191416Y35343D01*
X191371Y35399D01*
X187248Y39522D01*
X187248Y70043D01*
X187233Y70133D01*
X187226Y70224D01*
X187214Y70253D01*
X187208Y70285D01*
X187166Y70366D01*
X187130Y70450D01*
X187104Y70482D01*
X187093Y70503D01*
X187070Y70525D01*
X187025Y70581D01*
X136875Y120731D01*
X136801Y120784D01*
X136732Y120844D01*
X136701Y120856D01*
X136675Y120875D01*
X136588Y120901D01*
X136503Y120936D01*
X136462Y120940D01*
X136440Y120947D01*
X136408Y120946D01*
X136337Y120954D01*
X16190Y120954D01*
X16100Y120939D01*
X16009Y120932D01*
X15980Y120920D01*
X15948Y120914D01*
X15867Y120872D01*
X15783Y120836D01*
X15751Y120810D01*
X15730Y120799D01*
X15708Y120776D01*
X15652Y120731D01*
X-47655Y57424D01*
X-49962Y55117D01*
X-56077Y55117D01*
X-56147Y55106D01*
X-56219Y55104D01*
X-56268Y55086D01*
X-56319Y55078D01*
X-56383Y55044D01*
X-56450Y55019D01*
X-56491Y54987D01*
X-56537Y54962D01*
X-56586Y54910D01*
X-56642Y54866D01*
X-56670Y54822D01*
X-56706Y54784D01*
X-56736Y54719D01*
X-56775Y54659D01*
X-56788Y54608D01*
X-56810Y54561D01*
X-56818Y54490D01*
X-56835Y54420D01*
X-56831Y54368D01*
X-56837Y54317D01*
X-56822Y54246D01*
X-56816Y54175D01*
X-56796Y54127D01*
X-56785Y54076D01*
X-56748Y54015D01*
X-56720Y53949D01*
X-56675Y53893D01*
X-56659Y53865D01*
X-56641Y53850D01*
X-56615Y53818D01*
X-52120Y49323D01*
X-52120Y42168D01*
X-57179Y37109D01*
X-64334Y37109D01*
X-69394Y42168D01*
X-69394Y49323D01*
X-64899Y53818D01*
X-64857Y53876D01*
X-64807Y53928D01*
X-64785Y53975D01*
X-64755Y54017D01*
X-64734Y54086D01*
X-64704Y54151D01*
X-64698Y54203D01*
X-64683Y54253D01*
X-64685Y54324D01*
X-64677Y54395D01*
X-64688Y54446D01*
X-64689Y54498D01*
X-64714Y54566D01*
X-64729Y54636D01*
X-64756Y54681D01*
X-64773Y54729D01*
X-64818Y54785D01*
X-64855Y54847D01*
X-64895Y54881D01*
X-64927Y54921D01*
X-64987Y54960D01*
X-65042Y55007D01*
X-65090Y55026D01*
X-65134Y55054D01*
X-65204Y55072D01*
X-65270Y55099D01*
X-65341Y55107D01*
X-65373Y55115D01*
X-65396Y55113D01*
X-65437Y55117D01*
X-81477Y55117D01*
X-81547Y55106D01*
X-81619Y55104D01*
X-81668Y55086D01*
X-81719Y55078D01*
X-81783Y55044D01*
X-81850Y55019D01*
X-81891Y54987D01*
X-81937Y54962D01*
X-81986Y54910D01*
X-82042Y54866D01*
X-82070Y54822D01*
X-82106Y54784D01*
X-82136Y54719D01*
X-82175Y54659D01*
X-82188Y54608D01*
X-82210Y54561D01*
X-82218Y54490D01*
X-82235Y54420D01*
X-82231Y54368D01*
X-82237Y54317D01*
X-82222Y54246D01*
X-82216Y54175D01*
X-82196Y54127D01*
X-82185Y54076D01*
X-82148Y54015D01*
X-82120Y53949D01*
X-82075Y53893D01*
X-82059Y53865D01*
X-82041Y53850D01*
X-82015Y53818D01*
X-77520Y49323D01*
X-77520Y42168D01*
X-82579Y37109D01*
X-89734Y37109D01*
X-94794Y42168D01*
X-94794Y49323D01*
X-90299Y53818D01*
X-90257Y53876D01*
X-90207Y53928D01*
X-90185Y53975D01*
X-90155Y54017D01*
X-90134Y54086D01*
X-90104Y54151D01*
X-90098Y54203D01*
X-90083Y54253D01*
X-90085Y54324D01*
X-90077Y54395D01*
X-90088Y54446D01*
X-90089Y54498D01*
X-90114Y54566D01*
X-90129Y54636D01*
X-90156Y54681D01*
X-90173Y54729D01*
X-90218Y54785D01*
X-90255Y54847D01*
X-90295Y54881D01*
X-90327Y54921D01*
X-90387Y54960D01*
X-90442Y55007D01*
X-90490Y55026D01*
X-90534Y55054D01*
X-90604Y55072D01*
X-90670Y55099D01*
X-90741Y55107D01*
X-90773Y55115D01*
X-90796Y55113D01*
X-90837Y55117D01*
X-145876Y55117D01*
X-145967Y55103D01*
X-146057Y55095D01*
X-146087Y55083D01*
X-146119Y55078D01*
X-146200Y55035D01*
X-146284Y54999D01*
X-146316Y54973D01*
X-146337Y54962D01*
X-146359Y54939D01*
X-146415Y54894D01*
X-146441Y54868D01*
X-149335Y53669D01*
X-152849Y53669D01*
X-153253Y53837D01*
X-153348Y53859D01*
X-153441Y53888D01*
X-153467Y53887D01*
X-153492Y53893D01*
X-153589Y53884D01*
X-153687Y53881D01*
X-153711Y53872D01*
X-153737Y53870D01*
X-153826Y53830D01*
X-153918Y53797D01*
X-153938Y53781D01*
X-153962Y53770D01*
X-154034Y53704D01*
X-154110Y53643D01*
X-154124Y53621D01*
X-154143Y53603D01*
X-154190Y53518D01*
X-154243Y53436D01*
X-154249Y53411D01*
X-154262Y53388D01*
X-154279Y53292D01*
X-154303Y53198D01*
X-154301Y53172D01*
X-154305Y53146D01*
X-154291Y53049D01*
X-154284Y52953D01*
X-154273Y52929D01*
X-154270Y52903D01*
X-154225Y52816D01*
X-154187Y52726D01*
X-154167Y52701D01*
X-154158Y52683D01*
X-154134Y52660D01*
X-154083Y52595D01*
X-149732Y48245D01*
X-149732Y45770D01*
X-157862Y45770D01*
X-157862Y53899D01*
X-156612Y53899D01*
X-156541Y53911D01*
X-156470Y53913D01*
X-156421Y53931D01*
X-156369Y53939D01*
X-156306Y53973D01*
X-156239Y53997D01*
X-156198Y54030D01*
X-156152Y54054D01*
X-156103Y54106D01*
X-156047Y54151D01*
X-156018Y54195D01*
X-155983Y54233D01*
X-155952Y54298D01*
X-155914Y54358D01*
X-155901Y54409D01*
X-155879Y54456D01*
X-155871Y54527D01*
X-155854Y54597D01*
X-155858Y54648D01*
X-155852Y54700D01*
X-155867Y54770D01*
X-155873Y54842D01*
X-155893Y54890D01*
X-155904Y54941D01*
X-155941Y55002D01*
X-155969Y55068D01*
X-156014Y55124D01*
X-156030Y55152D01*
X-156048Y55167D01*
X-156074Y55199D01*
X-158065Y57191D01*
X-161662Y60787D01*
X-161736Y60840D01*
X-161805Y60900D01*
X-161835Y60912D01*
X-161862Y60931D01*
X-161949Y60957D01*
X-162033Y60992D01*
X-162074Y60996D01*
X-162097Y61003D01*
X-162129Y61002D01*
X-162200Y61010D01*
X-162963Y61010D01*
X-168022Y66069D01*
X-168022Y73224D01*
X-162963Y78283D01*
X-155808Y78283D01*
X-150748Y73224D01*
X-150748Y72462D01*
X-150734Y72372D01*
X-150726Y72281D01*
X-150714Y72251D01*
X-150709Y72219D01*
X-150666Y72139D01*
X-150630Y72055D01*
X-150604Y72022D01*
X-150594Y72002D01*
X-150570Y71980D01*
X-150525Y71924D01*
X-147198Y68597D01*
X-147145Y68558D01*
X-147098Y68512D01*
X-147025Y68472D01*
X-146999Y68453D01*
X-146980Y68447D01*
X-146951Y68432D01*
X-146441Y68220D01*
X-144226Y66005D01*
X-143027Y63111D01*
X-143027Y62992D01*
X-143023Y62972D01*
X-143026Y62953D01*
X-143004Y62851D01*
X-142987Y62749D01*
X-142978Y62732D01*
X-142973Y62712D01*
X-142920Y62623D01*
X-142872Y62532D01*
X-142857Y62518D01*
X-142847Y62501D01*
X-142768Y62434D01*
X-142693Y62362D01*
X-142675Y62354D01*
X-142660Y62341D01*
X-142564Y62302D01*
X-142470Y62259D01*
X-142451Y62257D01*
X-142432Y62249D01*
X-142265Y62231D01*
X-91294Y62231D01*
X-91223Y62242D01*
X-91152Y62244D01*
X-91103Y62262D01*
X-91051Y62270D01*
X-90988Y62304D01*
X-90921Y62329D01*
X-90880Y62361D01*
X-90834Y62386D01*
X-90785Y62438D01*
X-90729Y62482D01*
X-90700Y62526D01*
X-90665Y62564D01*
X-90634Y62629D01*
X-90596Y62689D01*
X-90583Y62740D01*
X-90561Y62787D01*
X-90553Y62858D01*
X-90536Y62928D01*
X-90540Y62980D01*
X-90534Y63031D01*
X-90549Y63102D01*
X-90555Y63173D01*
X-90575Y63221D01*
X-90586Y63272D01*
X-90623Y63333D01*
X-90651Y63399D01*
X-90696Y63455D01*
X-90712Y63483D01*
X-90730Y63498D01*
X-90756Y63530D01*
X-94794Y67568D01*
X-94794Y74723D01*
X-90273Y79243D01*
X-90231Y79301D01*
X-90182Y79353D01*
X-90160Y79401D01*
X-90130Y79443D01*
X-90109Y79511D01*
X-90078Y79576D01*
X-90073Y79628D01*
X-90057Y79678D01*
X-90059Y79750D01*
X-90051Y79821D01*
X-90062Y79872D01*
X-90064Y79924D01*
X-90088Y79991D01*
X-90103Y80061D01*
X-90130Y80106D01*
X-90148Y80155D01*
X-90193Y80211D01*
X-90230Y80272D01*
X-90269Y80306D01*
X-90302Y80347D01*
X-90362Y80386D01*
X-90417Y80432D01*
X-90465Y80452D01*
X-90509Y80480D01*
X-90578Y80497D01*
X-90645Y80524D01*
X-90716Y80532D01*
X-90747Y80540D01*
X-90771Y80538D01*
X-90811Y80543D01*
X-147399Y80543D01*
X-147464Y80532D01*
X-147529Y80531D01*
X-147609Y80508D01*
X-147642Y80503D01*
X-147659Y80494D01*
X-147690Y80485D01*
X-149513Y79730D01*
X-153509Y79730D01*
X-156404Y80929D01*
X-158726Y83251D01*
X-161662Y86187D01*
X-161736Y86240D01*
X-161805Y86300D01*
X-161835Y86312D01*
X-161862Y86331D01*
X-161949Y86357D01*
X-162033Y86392D01*
X-162074Y86396D01*
X-162097Y86403D01*
X-162129Y86402D01*
X-162200Y86410D01*
X-162963Y86410D01*
X-168022Y91469D01*
X-168022Y98624D01*
X-162963Y103683D01*
X-155808Y103683D01*
X-150748Y98624D01*
X-150748Y97862D01*
X-150734Y97772D01*
X-150726Y97681D01*
X-150714Y97651D01*
X-150709Y97619D01*
X-150666Y97538D01*
X-150630Y97455D01*
X-150604Y97422D01*
X-150594Y97402D01*
X-150570Y97380D01*
X-150525Y97324D01*
X-148200Y94998D01*
X-148147Y94960D01*
X-148100Y94914D01*
X-148027Y94874D01*
X-148000Y94855D01*
X-147982Y94849D01*
X-147953Y94833D01*
X-146618Y94280D01*
X-144403Y92065D01*
X-143204Y89171D01*
X-143204Y88417D01*
X-143201Y88398D01*
X-143203Y88378D01*
X-143181Y88277D01*
X-143165Y88175D01*
X-143155Y88157D01*
X-143151Y88138D01*
X-143098Y88049D01*
X-143050Y87957D01*
X-143035Y87944D01*
X-143025Y87926D01*
X-142946Y87859D01*
X-142871Y87788D01*
X-142853Y87779D01*
X-142838Y87767D01*
X-142742Y87728D01*
X-142648Y87684D01*
X-142628Y87682D01*
X-142610Y87675D01*
X-142443Y87656D01*
X-91320Y87656D01*
X-91249Y87668D01*
X-91177Y87670D01*
X-91128Y87687D01*
X-91077Y87696D01*
X-91013Y87729D01*
X-90946Y87754D01*
X-90905Y87787D01*
X-90859Y87811D01*
X-90810Y87863D01*
X-90754Y87908D01*
X-90726Y87952D01*
X-90690Y87989D01*
X-90660Y88054D01*
X-90621Y88115D01*
X-90608Y88165D01*
X-90586Y88212D01*
X-90578Y88284D01*
X-90561Y88353D01*
X-90565Y88405D01*
X-90559Y88457D01*
X-90575Y88527D01*
X-90580Y88598D01*
X-90600Y88646D01*
X-90612Y88697D01*
X-90648Y88759D01*
X-90676Y88825D01*
X-90721Y88881D01*
X-90738Y88908D01*
X-90756Y88924D01*
X-90781Y88956D01*
X-94794Y92968D01*
X-94794Y100123D01*
X-90400Y104516D01*
X-90358Y104574D01*
X-90309Y104626D01*
X-90287Y104674D01*
X-90257Y104716D01*
X-90236Y104784D01*
X-90205Y104849D01*
X-90200Y104901D01*
X-90184Y104951D01*
X-90186Y105023D01*
X-90178Y105094D01*
X-90189Y105145D01*
X-90191Y105197D01*
X-90215Y105264D01*
X-90230Y105334D01*
X-90257Y105379D01*
X-90275Y105428D01*
X-90320Y105484D01*
X-90357Y105545D01*
X-90396Y105579D01*
X-90429Y105620D01*
X-90489Y105659D01*
X-90544Y105705D01*
X-90592Y105725D01*
X-90636Y105753D01*
X-90705Y105770D01*
X-90772Y105797D01*
X-90843Y105805D01*
X-90874Y105813D01*
X-90897Y105811D01*
X-90938Y105816D01*
X-147700Y105816D01*
X-147764Y105805D01*
X-147830Y105804D01*
X-147910Y105781D01*
X-147942Y105776D01*
X-147959Y105767D01*
X-147991Y105758D01*
X-149691Y105054D01*
X-153433Y105054D01*
X-156327Y106253D01*
X-158650Y108575D01*
X-161662Y111587D01*
X-161736Y111640D01*
X-161805Y111700D01*
X-161835Y111712D01*
X-161862Y111731D01*
X-161949Y111757D01*
X-162033Y111792D01*
X-162074Y111796D01*
X-162097Y111803D01*
X-162129Y111802D01*
X-162200Y111810D01*
X-162963Y111810D01*
X-168022Y116869D01*
X-168022Y124024D01*
X-162963Y129083D01*
X-155808Y129083D01*
X-150748Y124024D01*
X-150748Y123262D01*
X-150734Y123172D01*
X-150726Y123081D01*
X-150714Y123051D01*
X-150709Y123019D01*
X-150666Y122938D01*
X-150630Y122855D01*
X-150604Y122822D01*
X-150594Y122802D01*
X-150570Y122780D01*
X-150525Y122724D01*
X-147944Y120142D01*
X-147891Y120104D01*
X-147844Y120058D01*
X-147771Y120018D01*
X-147745Y119999D01*
X-147726Y119993D01*
X-147697Y119977D01*
X-146796Y119604D01*
X-144581Y117389D01*
X-143382Y114495D01*
X-143382Y113690D01*
X-143379Y113671D01*
X-143381Y113651D01*
X-143359Y113550D01*
X-143343Y113448D01*
X-143333Y113430D01*
X-143329Y113411D01*
X-143276Y113322D01*
X-143227Y113230D01*
X-143213Y113217D01*
X-143203Y113199D01*
X-143124Y113132D01*
X-143049Y113061D01*
X-143031Y113053D01*
X-143016Y113040D01*
X-142920Y113001D01*
X-142826Y112957D01*
X-142806Y112955D01*
X-142788Y112948D01*
X-142621Y112929D01*
X-91193Y112929D01*
X-91122Y112941D01*
X-91050Y112943D01*
X-91001Y112960D01*
X-90950Y112969D01*
X-90886Y113002D01*
X-90819Y113027D01*
X-90778Y113060D01*
X-90732Y113084D01*
X-90683Y113136D01*
X-90627Y113181D01*
X-90599Y113225D01*
X-90563Y113262D01*
X-90533Y113327D01*
X-90494Y113388D01*
X-90481Y113438D01*
X-90459Y113485D01*
X-90452Y113557D01*
X-90434Y113626D01*
X-90438Y113678D01*
X-90432Y113730D01*
X-90448Y113800D01*
X-90453Y113871D01*
X-90473Y113919D01*
X-90485Y113970D01*
X-90521Y114032D01*
X-90549Y114098D01*
X-90594Y114154D01*
X-90611Y114181D01*
X-90629Y114197D01*
X-90654Y114229D01*
X-94794Y118368D01*
X-94794Y125523D01*
X-90527Y129789D01*
X-90485Y129847D01*
X-90436Y129899D01*
X-90414Y129947D01*
X-90384Y129989D01*
X-90363Y130057D01*
X-90332Y130122D01*
X-90327Y130174D01*
X-90311Y130224D01*
X-90313Y130296D01*
X-90305Y130367D01*
X-90316Y130418D01*
X-90318Y130470D01*
X-90342Y130537D01*
X-90357Y130607D01*
X-90384Y130652D01*
X-90402Y130701D01*
X-90447Y130757D01*
X-90484Y130818D01*
X-90523Y130852D01*
X-90556Y130893D01*
X-90616Y130932D01*
X-90671Y130978D01*
X-90719Y130998D01*
X-90763Y131026D01*
X-90832Y131043D01*
X-90899Y131070D01*
X-90970Y131078D01*
X-91001Y131086D01*
X-91025Y131084D01*
X-91065Y131089D01*
X-146320Y131089D01*
X-146385Y131078D01*
X-146450Y131077D01*
X-146530Y131054D01*
X-146563Y131049D01*
X-146580Y131040D01*
X-146611Y131031D01*
X-148802Y130123D01*
X-153103Y130123D01*
X-155997Y131322D01*
X-161662Y136987D01*
X-161736Y137040D01*
X-161805Y137100D01*
X-161835Y137112D01*
X-161862Y137131D01*
X-161949Y137157D01*
X-162033Y137192D01*
X-162074Y137196D01*
X-162097Y137203D01*
X-162129Y137202D01*
X-162200Y137210D01*
X-162963Y137210D01*
X-168022Y142269D01*
X-168022Y149424D01*
X-162963Y154483D01*
X-155808Y154483D01*
X-150748Y149424D01*
X-150748Y148662D01*
X-150734Y148572D01*
X-150726Y148481D01*
X-150714Y148451D01*
X-150709Y148419D01*
X-150666Y148339D01*
X-150630Y148255D01*
X-150604Y148222D01*
X-150594Y148202D01*
X-150570Y148180D01*
X-150525Y148124D01*
X-148009Y145607D01*
X-147956Y145569D01*
X-147909Y145523D01*
X-147836Y145483D01*
X-147810Y145464D01*
X-147791Y145458D01*
X-147762Y145442D01*
X-145907Y144674D01*
X-143692Y142459D01*
X-142493Y139565D01*
X-142493Y138963D01*
X-142490Y138944D01*
X-142492Y138924D01*
X-142470Y138823D01*
X-142454Y138721D01*
X-142444Y138703D01*
X-142440Y138684D01*
X-142387Y138595D01*
X-142338Y138503D01*
X-142324Y138490D01*
X-142314Y138472D01*
X-142235Y138405D01*
X-142160Y138334D01*
X-142142Y138325D01*
X-142127Y138313D01*
X-142031Y138274D01*
X-141937Y138230D01*
X-141917Y138228D01*
X-141899Y138221D01*
X-141732Y138202D01*
X-91066Y138202D01*
X-90995Y138214D01*
X-90923Y138216D01*
X-90874Y138233D01*
X-90823Y138242D01*
X-90759Y138275D01*
X-90692Y138300D01*
X-90651Y138333D01*
X-90605Y138357D01*
X-90556Y138409D01*
X-90500Y138454D01*
X-90472Y138498D01*
X-90436Y138535D01*
X-90406Y138600D01*
X-90367Y138661D01*
X-90354Y138711D01*
X-90332Y138758D01*
X-90324Y138830D01*
X-90307Y138899D01*
X-90311Y138951D01*
X-90305Y139003D01*
X-90321Y139073D01*
X-90326Y139144D01*
X-90346Y139192D01*
X-90358Y139243D01*
X-90394Y139305D01*
X-90422Y139371D01*
X-90467Y139427D01*
X-90484Y139454D01*
X-90502Y139470D01*
X-90527Y139502D01*
X-94794Y143768D01*
X-94794Y150923D01*
X-89734Y155982D01*
X-82579Y155982D01*
X-77520Y150923D01*
X-77520Y143768D01*
X-81786Y139502D01*
X-81828Y139443D01*
X-81878Y139391D01*
X-81899Y139344D01*
X-81930Y139302D01*
X-81951Y139233D01*
X-81981Y139168D01*
X-81987Y139117D01*
X-82002Y139067D01*
X-82000Y138995D01*
X-82008Y138924D01*
X-81997Y138873D01*
X-81996Y138821D01*
X-81971Y138754D01*
X-81956Y138684D01*
X-81929Y138639D01*
X-81911Y138590D01*
X-81867Y138534D01*
X-81830Y138472D01*
X-81790Y138439D01*
X-81758Y138398D01*
X-81697Y138359D01*
X-81643Y138313D01*
X-81595Y138293D01*
X-81551Y138265D01*
X-81481Y138247D01*
X-81415Y138221D01*
X-81343Y138213D01*
X-81312Y138205D01*
X-81289Y138207D01*
X-81248Y138202D01*
X-65666Y138202D01*
X-65595Y138214D01*
X-65523Y138216D01*
X-65474Y138233D01*
X-65423Y138242D01*
X-65359Y138275D01*
X-65292Y138300D01*
X-65251Y138333D01*
X-65205Y138357D01*
X-65156Y138409D01*
X-65100Y138454D01*
X-65072Y138498D01*
X-65036Y138535D01*
X-65006Y138600D01*
X-64967Y138661D01*
X-64954Y138711D01*
X-64932Y138758D01*
X-64924Y138830D01*
X-64907Y138899D01*
X-64911Y138951D01*
X-64905Y139003D01*
X-64921Y139073D01*
X-64926Y139144D01*
X-64946Y139192D01*
X-64958Y139243D01*
X-64994Y139305D01*
X-65022Y139371D01*
X-65067Y139427D01*
X-65084Y139454D01*
X-65102Y139470D01*
X-65127Y139502D01*
X-69394Y143768D01*
X-69394Y150923D01*
X-64334Y155982D01*
X-57179Y155982D01*
X-52120Y150923D01*
X-52120Y143768D01*
X-56386Y139502D01*
X-56428Y139443D01*
X-56478Y139391D01*
X-56499Y139344D01*
X-56530Y139302D01*
X-56551Y139233D01*
X-56581Y139168D01*
X-56587Y139117D01*
X-56602Y139067D01*
X-56600Y138995D01*
X-56608Y138924D01*
X-56597Y138873D01*
X-56596Y138821D01*
X-56571Y138754D01*
X-56556Y138684D01*
X-56529Y138639D01*
X-56511Y138590D01*
X-56467Y138534D01*
X-56430Y138472D01*
X-56390Y138439D01*
X-56358Y138398D01*
X-56297Y138359D01*
X-56243Y138313D01*
X-56195Y138293D01*
X-56151Y138265D01*
X-56081Y138247D01*
X-56015Y138221D01*
X-55943Y138213D01*
X-55912Y138205D01*
X-55889Y138207D01*
X-55848Y138202D01*
X-41286Y138202D01*
X-41196Y138217D01*
X-41105Y138224D01*
X-41075Y138237D01*
X-41043Y138242D01*
X-40962Y138285D01*
X-40878Y138320D01*
X-40846Y138346D01*
X-40826Y138357D01*
X-40803Y138380D01*
X-40747Y138425D01*
X-24232Y154941D01*
X676097Y154941D01*
X752654Y78384D01*
X752654Y36623D01*
X752668Y36533D01*
X752675Y36442D01*
X752688Y36412D01*
X752693Y36380D01*
X752736Y36300D01*
X752772Y36216D01*
X752797Y36184D01*
X752808Y36163D01*
X752832Y36141D01*
X752876Y36085D01*
X754404Y34558D01*
X754404Y30161D01*
X751295Y27053D01*
X746899Y27053D01*
G37*
%LPD*%
%LPC*%
G36*
X-125489Y141459D02*
X-125489Y141459D01*
X-131936Y144130D01*
X-136870Y149064D01*
X-139541Y155511D01*
X-139541Y162489D01*
X-136870Y168936D01*
X-131936Y173870D01*
X-125489Y176541D01*
X-118511Y176541D01*
X-112064Y173870D01*
X-107130Y168936D01*
X-104459Y162489D01*
X-104459Y155511D01*
X-107130Y149064D01*
X-112064Y144130D01*
X-118511Y141459D01*
X-125489Y141459D01*
G37*
%LPD*%
%LPC*%
G36*
X491940Y32003D02*
X491940Y32003D01*
X485393Y38550D01*
X485393Y47810D01*
X491940Y54357D01*
X501200Y54357D01*
X507747Y47810D01*
X507747Y38550D01*
X501200Y32003D01*
X491940Y32003D01*
G37*
%LPD*%
%LPC*%
G36*
X254958Y31495D02*
X254958Y31495D01*
X248411Y38042D01*
X248411Y47302D01*
X254958Y53849D01*
X264218Y53849D01*
X270765Y47302D01*
X270765Y38042D01*
X264218Y31495D01*
X254958Y31495D01*
G37*
%LPD*%
%LPC*%
G36*
X1175708Y27685D02*
X1175708Y27685D01*
X1169161Y34232D01*
X1169161Y43492D01*
X1175708Y50039D01*
X1184968Y50039D01*
X1191515Y43492D01*
X1191515Y34232D01*
X1184968Y27685D01*
X1175708Y27685D01*
G37*
%LPD*%
%LPC*%
G36*
X1226762Y27939D02*
X1226762Y27939D01*
X1220215Y34486D01*
X1220215Y43746D01*
X1226762Y50293D01*
X1236022Y50293D01*
X1242569Y43746D01*
X1242569Y34486D01*
X1236022Y27939D01*
X1226762Y27939D01*
G37*
%LPD*%
%LPC*%
G36*
X1357318Y28701D02*
X1357318Y28701D01*
X1350771Y35248D01*
X1350771Y44508D01*
X1357318Y51055D01*
X1366578Y51055D01*
X1373125Y44508D01*
X1373125Y35248D01*
X1366578Y28701D01*
X1357318Y28701D01*
G37*
%LPD*%
%LPC*%
G36*
X809186Y28955D02*
X809186Y28955D01*
X802639Y35502D01*
X802639Y44762D01*
X809186Y51309D01*
X818446Y51309D01*
X824993Y44762D01*
X824993Y35502D01*
X818446Y28955D01*
X809186Y28955D01*
G37*
%LPD*%
%LPC*%
G36*
X1408372Y28955D02*
X1408372Y28955D01*
X1401825Y35502D01*
X1401825Y44762D01*
X1408372Y51309D01*
X1417632Y51309D01*
X1424179Y44762D01*
X1424179Y35502D01*
X1417632Y28955D01*
X1408372Y28955D01*
G37*
%LPD*%
%LPC*%
G36*
X860240Y29209D02*
X860240Y29209D01*
X853693Y35756D01*
X853693Y45016D01*
X860240Y51563D01*
X869500Y51563D01*
X876047Y45016D01*
X876047Y35756D01*
X869500Y29209D01*
X860240Y29209D01*
G37*
%LPD*%
%LPC*%
G36*
X1042104Y270001D02*
X1042104Y270001D01*
X1035557Y276548D01*
X1035557Y285808D01*
X1042104Y292355D01*
X1051364Y292355D01*
X1057911Y285808D01*
X1057911Y276548D01*
X1051364Y270001D01*
X1042104Y270001D01*
G37*
%LPD*%
%LPC*%
G36*
X991050Y269747D02*
X991050Y269747D01*
X984503Y276294D01*
X984503Y285554D01*
X991050Y292101D01*
X1000310Y292101D01*
X1006857Y285554D01*
X1006857Y276294D01*
X1000310Y269747D01*
X991050Y269747D01*
G37*
%LPD*%
%LPC*%
G36*
X620718Y29717D02*
X620718Y29717D01*
X614171Y36264D01*
X614171Y45524D01*
X620718Y52071D01*
X629978Y52071D01*
X636525Y45524D01*
X636525Y36264D01*
X629978Y29717D01*
X620718Y29717D01*
G37*
%LPD*%
%LPC*%
G36*
X254704Y269239D02*
X254704Y269239D01*
X248157Y275786D01*
X248157Y285046D01*
X254704Y291593D01*
X263964Y291593D01*
X270511Y285046D01*
X270511Y275786D01*
X263964Y269239D01*
X254704Y269239D01*
G37*
%LPD*%
%LPC*%
G36*
X306520Y268731D02*
X306520Y268731D01*
X299973Y275278D01*
X299973Y284538D01*
X306520Y291085D01*
X315780Y291085D01*
X322327Y284538D01*
X322327Y275278D01*
X315780Y268731D01*
X306520Y268731D01*
G37*
%LPD*%
%LPC*%
G36*
X1410912Y268731D02*
X1410912Y268731D01*
X1404365Y275278D01*
X1404365Y284538D01*
X1410912Y291085D01*
X1420172Y291085D01*
X1426719Y284538D01*
X1426719Y275278D01*
X1420172Y268731D01*
X1410912Y268731D01*
G37*
%LPD*%
%LPC*%
G36*
X673550Y268477D02*
X673550Y268477D01*
X667003Y275024D01*
X667003Y284284D01*
X673550Y290831D01*
X682810Y290831D01*
X689357Y284284D01*
X689357Y275024D01*
X682810Y268477D01*
X673550Y268477D01*
G37*
%LPD*%
%LPC*%
G36*
X1229302Y268477D02*
X1229302Y268477D01*
X1222755Y275024D01*
X1222755Y284284D01*
X1229302Y290831D01*
X1238562Y290831D01*
X1245109Y284284D01*
X1245109Y275024D01*
X1238562Y268477D01*
X1229302Y268477D01*
G37*
%LPD*%
%LPC*%
G36*
X1359858Y268477D02*
X1359858Y268477D01*
X1353311Y275024D01*
X1353311Y284284D01*
X1359858Y290831D01*
X1369118Y290831D01*
X1375665Y284284D01*
X1375665Y275024D01*
X1369118Y268477D01*
X1359858Y268477D01*
G37*
%LPD*%
%LPC*%
G36*
X987748Y29717D02*
X987748Y29717D01*
X981201Y36264D01*
X981201Y45524D01*
X987748Y52071D01*
X997008Y52071D01*
X1003555Y45524D01*
X1003555Y36264D01*
X997008Y29717D01*
X987748Y29717D01*
G37*
%LPD*%
%LPC*%
G36*
X808932Y268223D02*
X808932Y268223D01*
X802385Y274770D01*
X802385Y284030D01*
X808932Y290577D01*
X818192Y290577D01*
X824739Y284030D01*
X824739Y274770D01*
X818192Y268223D01*
X808932Y268223D01*
G37*
%LPD*%
%LPC*%
G36*
X622496Y268223D02*
X622496Y268223D01*
X615949Y274770D01*
X615949Y284030D01*
X622496Y290577D01*
X631756Y290577D01*
X638303Y284030D01*
X638303Y274770D01*
X631756Y268223D01*
X622496Y268223D01*
G37*
%LPD*%
%LPC*%
G36*
X492702Y268223D02*
X492702Y268223D01*
X486155Y274770D01*
X486155Y284030D01*
X492702Y290577D01*
X501962Y290577D01*
X508509Y284030D01*
X508509Y274770D01*
X501962Y268223D01*
X492702Y268223D01*
G37*
%LPD*%
%LPC*%
G36*
X1038802Y29971D02*
X1038802Y29971D01*
X1032255Y36518D01*
X1032255Y45778D01*
X1038802Y52325D01*
X1048062Y52325D01*
X1054609Y45778D01*
X1054609Y36518D01*
X1048062Y29971D01*
X1038802Y29971D01*
G37*
%LPD*%
%LPC*%
G36*
X671772Y29971D02*
X671772Y29971D01*
X665225Y36518D01*
X665225Y45778D01*
X671772Y52325D01*
X681032Y52325D01*
X687579Y45778D01*
X687579Y36518D01*
X681032Y29971D01*
X671772Y29971D01*
G37*
%LPD*%
%LPC*%
G36*
X1178248Y268223D02*
X1178248Y268223D01*
X1171701Y274770D01*
X1171701Y284030D01*
X1178248Y290577D01*
X1187508Y290577D01*
X1194055Y284030D01*
X1194055Y274770D01*
X1187508Y268223D01*
X1178248Y268223D01*
G37*
%LPD*%
%LPC*%
G36*
X1545024Y30479D02*
X1545024Y30479D01*
X1538477Y37026D01*
X1538477Y46286D01*
X1545024Y52833D01*
X1554284Y52833D01*
X1560831Y46286D01*
X1560831Y37026D01*
X1554284Y30479D01*
X1545024Y30479D01*
G37*
%LPD*%
%LPC*%
G36*
X1596078Y30733D02*
X1596078Y30733D01*
X1589531Y37280D01*
X1589531Y46540D01*
X1596078Y53087D01*
X1605338Y53087D01*
X1611885Y46540D01*
X1611885Y37280D01*
X1605338Y30733D01*
X1596078Y30733D01*
G37*
%LPD*%
%LPC*%
G36*
X440886Y31749D02*
X440886Y31749D01*
X434339Y38296D01*
X434339Y47556D01*
X440886Y54103D01*
X450146Y54103D01*
X456693Y47556D01*
X456693Y38296D01*
X450146Y31749D01*
X440886Y31749D01*
G37*
%LPD*%
%LPC*%
G36*
X441648Y267969D02*
X441648Y267969D01*
X435101Y274516D01*
X435101Y283776D01*
X441648Y290323D01*
X450908Y290323D01*
X457455Y283776D01*
X457455Y274516D01*
X450908Y267969D01*
X441648Y267969D01*
G37*
%LPD*%
%LPC*%
G36*
X1597348Y266191D02*
X1597348Y266191D01*
X1590801Y272738D01*
X1590801Y281998D01*
X1597348Y288545D01*
X1606608Y288545D01*
X1613155Y281998D01*
X1613155Y272738D01*
X1606608Y266191D01*
X1597348Y266191D01*
G37*
%LPD*%
%LPC*%
G36*
X1546294Y265937D02*
X1546294Y265937D01*
X1539747Y272484D01*
X1539747Y281744D01*
X1546294Y288291D01*
X1555554Y288291D01*
X1562101Y281744D01*
X1562101Y272484D01*
X1555554Y265937D01*
X1546294Y265937D01*
G37*
%LPD*%
%LPC*%
G36*
X306012Y31749D02*
X306012Y31749D01*
X299465Y38296D01*
X299465Y47556D01*
X306012Y54103D01*
X315272Y54103D01*
X321819Y47556D01*
X321819Y38296D01*
X315272Y31749D01*
X306012Y31749D01*
G37*
%LPD*%
%LPC*%
G36*
X859986Y268477D02*
X859986Y268477D01*
X853439Y275024D01*
X853439Y284284D01*
X859986Y290831D01*
X869246Y290831D01*
X875793Y284284D01*
X875793Y275024D01*
X869246Y268477D01*
X859986Y268477D01*
G37*
%LPD*%
%LPC*%
G36*
X761198Y245363D02*
X761198Y245363D01*
X755395Y251166D01*
X755395Y259374D01*
X761198Y265177D01*
X769406Y265177D01*
X775209Y259374D01*
X775209Y251166D01*
X769406Y245363D01*
X761198Y245363D01*
G37*
%LPD*%
%LPC*%
G36*
X574762Y245363D02*
X574762Y245363D01*
X568959Y251166D01*
X568959Y259374D01*
X574762Y265177D01*
X582970Y265177D01*
X588773Y259374D01*
X588773Y251166D01*
X582970Y245363D01*
X574762Y245363D01*
G37*
%LPD*%
%LPC*%
G36*
X1130514Y245363D02*
X1130514Y245363D01*
X1124711Y251166D01*
X1124711Y259374D01*
X1130514Y265177D01*
X1138722Y265177D01*
X1144525Y259374D01*
X1144525Y251166D01*
X1138722Y245363D01*
X1130514Y245363D01*
G37*
%LPD*%
%LPC*%
G36*
X393914Y245109D02*
X393914Y245109D01*
X388111Y250912D01*
X388111Y259120D01*
X393914Y264923D01*
X402122Y264923D01*
X407925Y259120D01*
X407925Y250912D01*
X402122Y245109D01*
X393914Y245109D01*
G37*
%LPD*%
%LPC*%
G36*
X1127974Y4825D02*
X1127974Y4825D01*
X1122171Y10628D01*
X1122171Y18836D01*
X1127974Y24639D01*
X1136182Y24639D01*
X1141985Y18836D01*
X1141985Y10628D01*
X1136182Y4825D01*
X1127974Y4825D01*
G37*
%LPD*%
%LPC*%
G36*
X393152Y8889D02*
X393152Y8889D01*
X387349Y14692D01*
X387349Y22900D01*
X393152Y28703D01*
X401360Y28703D01*
X407163Y22900D01*
X407163Y14692D01*
X401360Y8889D01*
X393152Y8889D01*
G37*
%LPD*%
%LPC*%
G36*
X207224Y8635D02*
X207224Y8635D01*
X201421Y14438D01*
X201421Y22646D01*
X207224Y28449D01*
X215432Y28449D01*
X221235Y22646D01*
X221235Y14438D01*
X215432Y8635D01*
X207224Y8635D01*
G37*
%LPD*%
%LPC*%
G36*
X1497290Y7619D02*
X1497290Y7619D01*
X1491487Y13422D01*
X1491487Y21630D01*
X1497290Y27433D01*
X1505498Y27433D01*
X1511301Y21630D01*
X1511301Y13422D01*
X1505498Y7619D01*
X1497290Y7619D01*
G37*
%LPD*%
%LPC*%
G36*
X572984Y6857D02*
X572984Y6857D01*
X567181Y12660D01*
X567181Y20868D01*
X572984Y26671D01*
X581192Y26671D01*
X586995Y20868D01*
X586995Y12660D01*
X581192Y6857D01*
X572984Y6857D01*
G37*
%LPD*%
%LPC*%
G36*
X940014Y6857D02*
X940014Y6857D01*
X934211Y12660D01*
X934211Y20868D01*
X940014Y26671D01*
X948222Y26671D01*
X954025Y20868D01*
X954025Y12660D01*
X948222Y6857D01*
X940014Y6857D01*
G37*
%LPD*%
%LPC*%
G36*
X761452Y6095D02*
X761452Y6095D01*
X755649Y11898D01*
X755649Y20106D01*
X761452Y25909D01*
X769660Y25909D01*
X775463Y20106D01*
X775463Y11898D01*
X769660Y6095D01*
X761452Y6095D01*
G37*
%LPD*%
%LPC*%
G36*
X1498560Y243077D02*
X1498560Y243077D01*
X1492757Y248880D01*
X1492757Y257088D01*
X1498560Y262891D01*
X1506768Y262891D01*
X1512571Y257088D01*
X1512571Y248880D01*
X1506768Y243077D01*
X1498560Y243077D01*
G37*
%LPD*%
%LPC*%
G36*
X1309584Y5841D02*
X1309584Y5841D01*
X1303781Y11644D01*
X1303781Y19852D01*
X1309584Y25655D01*
X1317792Y25655D01*
X1323595Y19852D01*
X1323595Y11644D01*
X1317792Y5841D01*
X1309584Y5841D01*
G37*
%LPD*%
%LPC*%
G36*
X206412Y250418D02*
X206412Y250418D01*
X200608Y256221D01*
X200608Y264428D01*
X206412Y270231D01*
X214619Y270231D01*
X220422Y264428D01*
X220422Y256221D01*
X214619Y250418D01*
X206412Y250418D01*
G37*
%LPD*%
%LPC*%
G36*
X943316Y246887D02*
X943316Y246887D01*
X937513Y252690D01*
X937513Y260898D01*
X943316Y266701D01*
X951524Y266701D01*
X957327Y260898D01*
X957327Y252690D01*
X951524Y246887D01*
X943316Y246887D01*
G37*
%LPD*%
%LPC*%
G36*
X1312124Y245617D02*
X1312124Y245617D01*
X1306321Y251420D01*
X1306321Y259628D01*
X1312124Y265431D01*
X1320332Y265431D01*
X1326135Y259628D01*
X1326135Y251420D01*
X1320332Y245617D01*
X1312124Y245617D01*
G37*
%LPD*%
%LPC*%
G36*
X1520169Y35559D02*
X1520169Y35559D01*
X1515109Y40619D01*
X1515109Y47773D01*
X1520169Y52833D01*
X1527323Y52833D01*
X1532383Y47773D01*
X1532383Y40619D01*
X1527323Y35559D01*
X1520169Y35559D01*
G37*
%LPD*%
%LPC*%
G36*
X784077Y273303D02*
X784077Y273303D01*
X779017Y278363D01*
X779017Y285517D01*
X784077Y290577D01*
X791231Y290577D01*
X796291Y285517D01*
X796291Y278363D01*
X791231Y273303D01*
X784077Y273303D01*
G37*
%LPD*%
%LPC*%
G36*
X597641Y273303D02*
X597641Y273303D01*
X592581Y278363D01*
X592581Y285517D01*
X597641Y290577D01*
X604795Y290577D01*
X609855Y285517D01*
X609855Y278363D01*
X604795Y273303D01*
X597641Y273303D01*
G37*
%LPD*%
%LPC*%
G36*
X595863Y34797D02*
X595863Y34797D01*
X590803Y39857D01*
X590803Y47011D01*
X595863Y52071D01*
X603017Y52071D01*
X608077Y47011D01*
X608077Y39857D01*
X603017Y34797D01*
X595863Y34797D01*
G37*
%LPD*%
%LPC*%
G36*
X962893Y34797D02*
X962893Y34797D01*
X957833Y39857D01*
X957833Y47011D01*
X962893Y52071D01*
X970047Y52071D01*
X975107Y47011D01*
X975107Y39857D01*
X970047Y34797D01*
X962893Y34797D01*
G37*
%LPD*%
%LPC*%
G36*
X784331Y34035D02*
X784331Y34035D01*
X779271Y39095D01*
X779271Y46249D01*
X784331Y51309D01*
X791485Y51309D01*
X796545Y46249D01*
X796545Y39095D01*
X791485Y34035D01*
X784331Y34035D01*
G37*
%LPD*%
%LPC*%
G36*
X1335003Y273557D02*
X1335003Y273557D01*
X1329943Y278617D01*
X1329943Y285771D01*
X1335003Y290831D01*
X1342157Y290831D01*
X1347217Y285771D01*
X1347217Y278617D01*
X1342157Y273557D01*
X1335003Y273557D01*
G37*
%LPD*%
%LPC*%
G36*
X416031Y36829D02*
X416031Y36829D01*
X410971Y41889D01*
X410971Y49043D01*
X416031Y54103D01*
X423185Y54103D01*
X428245Y49043D01*
X428245Y41889D01*
X423185Y36829D01*
X416031Y36829D01*
G37*
%LPD*%
%LPC*%
G36*
X966195Y274827D02*
X966195Y274827D01*
X961135Y279887D01*
X961135Y287041D01*
X966195Y292101D01*
X973349Y292101D01*
X978409Y287041D01*
X978409Y279887D01*
X973349Y274827D01*
X966195Y274827D01*
G37*
%LPD*%
%LPC*%
G36*
X1332463Y33781D02*
X1332463Y33781D01*
X1327403Y38841D01*
X1327403Y45995D01*
X1332463Y51055D01*
X1339617Y51055D01*
X1344677Y45995D01*
X1344677Y38841D01*
X1339617Y33781D01*
X1332463Y33781D01*
G37*
%LPD*%
%LPC*%
G36*
X1150853Y32765D02*
X1150853Y32765D01*
X1145793Y37825D01*
X1145793Y44979D01*
X1150853Y50039D01*
X1158007Y50039D01*
X1163067Y44979D01*
X1163067Y37825D01*
X1158007Y32765D01*
X1150853Y32765D01*
G37*
%LPD*%
%LPC*%
G36*
X1521439Y271017D02*
X1521439Y271017D01*
X1516379Y276077D01*
X1516379Y283231D01*
X1521439Y288291D01*
X1528593Y288291D01*
X1533653Y283231D01*
X1533653Y276077D01*
X1528593Y271017D01*
X1521439Y271017D01*
G37*
%LPD*%
%LPC*%
G36*
X416793Y273049D02*
X416793Y273049D01*
X411733Y278109D01*
X411733Y285263D01*
X416793Y290323D01*
X423947Y290323D01*
X429007Y285263D01*
X429007Y278109D01*
X423947Y273049D01*
X416793Y273049D01*
G37*
%LPD*%
%LPC*%
G36*
X230103Y36575D02*
X230103Y36575D01*
X225043Y41635D01*
X225043Y48789D01*
X230103Y53849D01*
X237257Y53849D01*
X242317Y48789D01*
X242317Y41635D01*
X237257Y36575D01*
X230103Y36575D01*
G37*
%LPD*%
%LPC*%
G36*
X229798Y273049D02*
X229798Y273049D01*
X224739Y278109D01*
X224739Y285263D01*
X229798Y290323D01*
X236953Y290323D01*
X242012Y285263D01*
X242012Y278109D01*
X236953Y273049D01*
X229798Y273049D01*
G37*
%LPD*%
%LPC*%
G36*
X1153393Y273303D02*
X1153393Y273303D01*
X1148333Y278363D01*
X1148333Y285517D01*
X1153393Y290577D01*
X1160547Y290577D01*
X1165607Y285517D01*
X1165607Y278363D01*
X1160547Y273303D01*
X1153393Y273303D01*
G37*
%LPD*%
%LPC*%
G36*
X212038Y312648D02*
X212038Y312648D01*
X212038Y322047D01*
X215040Y322047D01*
X221438Y315649D01*
X221438Y312648D01*
X212038Y312648D01*
G37*
%LPD*%
%LPC*%
G36*
X578611Y69087D02*
X578611Y69087D01*
X578611Y78487D01*
X581612Y78487D01*
X588011Y72088D01*
X588011Y69087D01*
X578611Y69087D01*
G37*
%LPD*%
%LPC*%
G36*
X767079Y68325D02*
X767079Y68325D01*
X767079Y77725D01*
X770080Y77725D01*
X776479Y71326D01*
X776479Y68325D01*
X767079Y68325D01*
G37*
%LPD*%
%LPC*%
G36*
X398779Y71119D02*
X398779Y71119D01*
X398779Y80519D01*
X401780Y80519D01*
X408179Y74120D01*
X408179Y71119D01*
X398779Y71119D01*
G37*
%LPD*%
%LPC*%
G36*
X948943Y309117D02*
X948943Y309117D01*
X948943Y318517D01*
X951944Y318517D01*
X958343Y312118D01*
X958343Y309117D01*
X948943Y309117D01*
G37*
%LPD*%
%LPC*%
G36*
X1133601Y67055D02*
X1133601Y67055D01*
X1133601Y76455D01*
X1136602Y76455D01*
X1143001Y70056D01*
X1143001Y67055D01*
X1133601Y67055D01*
G37*
%LPD*%
%LPC*%
G36*
X1317751Y307847D02*
X1317751Y307847D01*
X1317751Y317247D01*
X1320752Y317247D01*
X1327151Y310848D01*
X1327151Y307847D01*
X1317751Y307847D01*
G37*
%LPD*%
%LPC*%
G36*
X945641Y69087D02*
X945641Y69087D01*
X945641Y78487D01*
X948642Y78487D01*
X955041Y72088D01*
X955041Y69087D01*
X945641Y69087D01*
G37*
%LPD*%
%LPC*%
G36*
X580389Y307593D02*
X580389Y307593D01*
X580389Y316993D01*
X583390Y316993D01*
X589789Y310594D01*
X589789Y307593D01*
X580389Y307593D01*
G37*
%LPD*%
%LPC*%
G36*
X1315211Y68071D02*
X1315211Y68071D01*
X1315211Y77471D01*
X1318212Y77471D01*
X1324611Y71072D01*
X1324611Y68071D01*
X1315211Y68071D01*
G37*
%LPD*%
%LPC*%
G36*
X766825Y307593D02*
X766825Y307593D01*
X766825Y316993D01*
X769826Y316993D01*
X776225Y310594D01*
X776225Y307593D01*
X766825Y307593D01*
G37*
%LPD*%
%LPC*%
G36*
X212851Y70865D02*
X212851Y70865D01*
X212851Y80265D01*
X215852Y80265D01*
X222251Y73866D01*
X222251Y70865D01*
X212851Y70865D01*
G37*
%LPD*%
%LPC*%
G36*
X1136141Y307593D02*
X1136141Y307593D01*
X1136141Y316993D01*
X1139142Y316993D01*
X1145541Y310594D01*
X1145541Y307593D01*
X1136141Y307593D01*
G37*
%LPD*%
%LPC*%
G36*
X1502917Y69849D02*
X1502917Y69849D01*
X1502917Y79249D01*
X1505918Y79249D01*
X1512317Y72850D01*
X1512317Y69849D01*
X1502917Y69849D01*
G37*
%LPD*%
%LPC*%
G36*
X399541Y307339D02*
X399541Y307339D01*
X399541Y316739D01*
X402542Y316739D01*
X408941Y310340D01*
X408941Y307339D01*
X399541Y307339D01*
G37*
%LPD*%
%LPC*%
G36*
X1504187Y305307D02*
X1504187Y305307D01*
X1504187Y314707D01*
X1507188Y314707D01*
X1513587Y308308D01*
X1513587Y305307D01*
X1504187Y305307D01*
G37*
%LPD*%
%LPC*%
G36*
X199592Y312648D02*
X199592Y312648D01*
X199592Y315649D01*
X205991Y322047D01*
X208992Y322047D01*
X208992Y312648D01*
X199592Y312648D01*
G37*
%LPD*%
%LPC*%
G36*
X936497Y309117D02*
X936497Y309117D01*
X936497Y312118D01*
X942896Y318517D01*
X945897Y318517D01*
X945897Y309117D01*
X936497Y309117D01*
G37*
%LPD*%
%LPC*%
G36*
X580389Y295147D02*
X580389Y295147D01*
X580389Y304547D01*
X589789Y304547D01*
X589789Y301546D01*
X583390Y295147D01*
X580389Y295147D01*
G37*
%LPD*%
%LPC*%
G36*
X1302765Y68071D02*
X1302765Y68071D01*
X1302765Y71072D01*
X1309164Y77471D01*
X1312165Y77471D01*
X1312165Y68071D01*
X1302765Y68071D01*
G37*
%LPD*%
%LPC*%
G36*
X398779Y58673D02*
X398779Y58673D01*
X398779Y68073D01*
X408179Y68073D01*
X408179Y65072D01*
X401780Y58673D01*
X398779Y58673D01*
G37*
%LPD*%
%LPC*%
G36*
X212851Y58419D02*
X212851Y58419D01*
X212851Y67819D01*
X222251Y67819D01*
X222251Y64818D01*
X215852Y58419D01*
X212851Y58419D01*
G37*
%LPD*%
%LPC*%
G36*
X933195Y69087D02*
X933195Y69087D01*
X933195Y72088D01*
X939594Y78487D01*
X942595Y78487D01*
X942595Y69087D01*
X933195Y69087D01*
G37*
%LPD*%
%LPC*%
G36*
X1121155Y67055D02*
X1121155Y67055D01*
X1121155Y70056D01*
X1127554Y76455D01*
X1130555Y76455D01*
X1130555Y67055D01*
X1121155Y67055D01*
G37*
%LPD*%
%LPC*%
G36*
X386333Y71119D02*
X386333Y71119D01*
X386333Y74120D01*
X392732Y80519D01*
X395733Y80519D01*
X395733Y71119D01*
X386333Y71119D01*
G37*
%LPD*%
%LPC*%
G36*
X212038Y300202D02*
X212038Y300202D01*
X212038Y309601D01*
X221438Y309601D01*
X221438Y306600D01*
X215040Y300202D01*
X212038Y300202D01*
G37*
%LPD*%
%LPC*%
G36*
X566165Y69087D02*
X566165Y69087D01*
X566165Y72088D01*
X572564Y78487D01*
X575565Y78487D01*
X575565Y69087D01*
X566165Y69087D01*
G37*
%LPD*%
%LPC*%
G36*
X1491741Y305307D02*
X1491741Y305307D01*
X1491741Y308308D01*
X1498140Y314707D01*
X1501141Y314707D01*
X1501141Y305307D01*
X1491741Y305307D01*
G37*
%LPD*%
%LPC*%
G36*
X1504187Y292861D02*
X1504187Y292861D01*
X1504187Y302261D01*
X1513587Y302261D01*
X1513587Y299260D01*
X1507188Y292861D01*
X1504187Y292861D01*
G37*
%LPD*%
%LPC*%
G36*
X945641Y56641D02*
X945641Y56641D01*
X945641Y66041D01*
X955041Y66041D01*
X955041Y63040D01*
X948642Y56641D01*
X945641Y56641D01*
G37*
%LPD*%
%LPC*%
G36*
X1490471Y69849D02*
X1490471Y69849D01*
X1490471Y72850D01*
X1496870Y79249D01*
X1499871Y79249D01*
X1499871Y69849D01*
X1490471Y69849D01*
G37*
%LPD*%
%LPC*%
G36*
X387095Y307339D02*
X387095Y307339D01*
X387095Y310340D01*
X393494Y316739D01*
X396495Y316739D01*
X396495Y307339D01*
X387095Y307339D01*
G37*
%LPD*%
%LPC*%
G36*
X948943Y296671D02*
X948943Y296671D01*
X948943Y306071D01*
X958343Y306071D01*
X958343Y303070D01*
X951944Y296671D01*
X948943Y296671D01*
G37*
%LPD*%
%LPC*%
G36*
X754633Y68325D02*
X754633Y68325D01*
X754633Y71326D01*
X761032Y77725D01*
X764033Y77725D01*
X764033Y68325D01*
X754633Y68325D01*
G37*
%LPD*%
%LPC*%
G36*
X200405Y70865D02*
X200405Y70865D01*
X200405Y73866D01*
X206804Y80265D01*
X209805Y80265D01*
X209805Y70865D01*
X200405Y70865D01*
G37*
%LPD*%
%LPC*%
G36*
X754379Y307593D02*
X754379Y307593D01*
X754379Y310594D01*
X760778Y316993D01*
X763779Y316993D01*
X763779Y307593D01*
X754379Y307593D01*
G37*
%LPD*%
%LPC*%
G36*
X578611Y56641D02*
X578611Y56641D01*
X578611Y66041D01*
X588011Y66041D01*
X588011Y63040D01*
X581612Y56641D01*
X578611Y56641D01*
G37*
%LPD*%
%LPC*%
G36*
X1305305Y307847D02*
X1305305Y307847D01*
X1305305Y310848D01*
X1311704Y317247D01*
X1314705Y317247D01*
X1314705Y307847D01*
X1305305Y307847D01*
G37*
%LPD*%
%LPC*%
G36*
X567943Y307593D02*
X567943Y307593D01*
X567943Y310594D01*
X574342Y316993D01*
X577343Y316993D01*
X577343Y307593D01*
X567943Y307593D01*
G37*
%LPD*%
%LPC*%
G36*
X399541Y294893D02*
X399541Y294893D01*
X399541Y304293D01*
X408941Y304293D01*
X408941Y301292D01*
X402542Y294893D01*
X399541Y294893D01*
G37*
%LPD*%
%LPC*%
G36*
X766825Y295147D02*
X766825Y295147D01*
X766825Y304547D01*
X776225Y304547D01*
X776225Y301546D01*
X769826Y295147D01*
X766825Y295147D01*
G37*
%LPD*%
%LPC*%
G36*
X1502917Y57403D02*
X1502917Y57403D01*
X1502917Y66803D01*
X1512317Y66803D01*
X1512317Y63802D01*
X1505918Y57403D01*
X1502917Y57403D01*
G37*
%LPD*%
%LPC*%
G36*
X1123695Y307593D02*
X1123695Y307593D01*
X1123695Y310594D01*
X1130094Y316993D01*
X1133095Y316993D01*
X1133095Y307593D01*
X1123695Y307593D01*
G37*
%LPD*%
%LPC*%
G36*
X1315211Y55625D02*
X1315211Y55625D01*
X1315211Y65025D01*
X1324611Y65025D01*
X1324611Y62024D01*
X1318212Y55625D01*
X1315211Y55625D01*
G37*
%LPD*%
%LPC*%
G36*
X767079Y55879D02*
X767079Y55879D01*
X767079Y65279D01*
X776479Y65279D01*
X776479Y62278D01*
X770080Y55879D01*
X767079Y55879D01*
G37*
%LPD*%
%LPC*%
G36*
X1317751Y295401D02*
X1317751Y295401D01*
X1317751Y304801D01*
X1327151Y304801D01*
X1327151Y301800D01*
X1320752Y295401D01*
X1317751Y295401D01*
G37*
%LPD*%
%LPC*%
G36*
X1133601Y54609D02*
X1133601Y54609D01*
X1133601Y64009D01*
X1143001Y64009D01*
X1143001Y61008D01*
X1136602Y54609D01*
X1133601Y54609D01*
G37*
%LPD*%
%LPC*%
G36*
X1136141Y295147D02*
X1136141Y295147D01*
X1136141Y304547D01*
X1145541Y304547D01*
X1145541Y301546D01*
X1139142Y295147D01*
X1136141Y295147D01*
G37*
%LPD*%
%LPC*%
G36*
X1130094Y295147D02*
X1130094Y295147D01*
X1123695Y301546D01*
X1123695Y304547D01*
X1133095Y304547D01*
X1133095Y295147D01*
X1130094Y295147D01*
G37*
%LPD*%
%LPC*%
G36*
X1127554Y54609D02*
X1127554Y54609D01*
X1121155Y61008D01*
X1121155Y64009D01*
X1130555Y64009D01*
X1130555Y54609D01*
X1127554Y54609D01*
G37*
%LPD*%
%LPC*%
G36*
X206804Y58419D02*
X206804Y58419D01*
X200405Y64818D01*
X200405Y67819D01*
X209805Y67819D01*
X209805Y58419D01*
X206804Y58419D01*
G37*
%LPD*%
%LPC*%
G36*
X205991Y300202D02*
X205991Y300202D01*
X199592Y306600D01*
X199592Y309601D01*
X208992Y309601D01*
X208992Y300202D01*
X205991Y300202D01*
G37*
%LPD*%
%LPC*%
G36*
X1496870Y57403D02*
X1496870Y57403D01*
X1490471Y63802D01*
X1490471Y66803D01*
X1499871Y66803D01*
X1499871Y57403D01*
X1496870Y57403D01*
G37*
%LPD*%
%LPC*%
G36*
X939594Y56641D02*
X939594Y56641D01*
X933195Y63040D01*
X933195Y66041D01*
X942595Y66041D01*
X942595Y56641D01*
X939594Y56641D01*
G37*
%LPD*%
%LPC*%
G36*
X761032Y55879D02*
X761032Y55879D01*
X754633Y62278D01*
X754633Y65279D01*
X764033Y65279D01*
X764033Y55879D01*
X761032Y55879D01*
G37*
%LPD*%
%LPC*%
G36*
X1309164Y55625D02*
X1309164Y55625D01*
X1302765Y62024D01*
X1302765Y65025D01*
X1312165Y65025D01*
X1312165Y55625D01*
X1309164Y55625D01*
G37*
%LPD*%
%LPC*%
G36*
X1498140Y292861D02*
X1498140Y292861D01*
X1491741Y299260D01*
X1491741Y302261D01*
X1501141Y302261D01*
X1501141Y292861D01*
X1498140Y292861D01*
G37*
%LPD*%
%LPC*%
G36*
X393494Y294893D02*
X393494Y294893D01*
X387095Y301292D01*
X387095Y304293D01*
X396495Y304293D01*
X396495Y294893D01*
X393494Y294893D01*
G37*
%LPD*%
%LPC*%
G36*
X942896Y296671D02*
X942896Y296671D01*
X936497Y303070D01*
X936497Y306071D01*
X945897Y306071D01*
X945897Y296671D01*
X942896Y296671D01*
G37*
%LPD*%
%LPC*%
G36*
X1311704Y295401D02*
X1311704Y295401D01*
X1305305Y301800D01*
X1305305Y304801D01*
X1314705Y304801D01*
X1314705Y295401D01*
X1311704Y295401D01*
G37*
%LPD*%
%LPC*%
G36*
X760778Y295147D02*
X760778Y295147D01*
X754379Y301546D01*
X754379Y304547D01*
X763779Y304547D01*
X763779Y295147D01*
X760778Y295147D01*
G37*
%LPD*%
%LPC*%
G36*
X574342Y295147D02*
X574342Y295147D01*
X567943Y301546D01*
X567943Y304547D01*
X577343Y304547D01*
X577343Y295147D01*
X574342Y295147D01*
G37*
%LPD*%
%LPC*%
G36*
X572564Y56641D02*
X572564Y56641D01*
X566165Y63040D01*
X566165Y66041D01*
X575565Y66041D01*
X575565Y56641D01*
X572564Y56641D01*
G37*
%LPD*%
%LPC*%
G36*
X392732Y58673D02*
X392732Y58673D01*
X386333Y65072D01*
X386333Y68073D01*
X395733Y68073D01*
X395733Y58673D01*
X392732Y58673D01*
G37*
%LPD*%
%LPC*%
G36*
X1340103Y309117D02*
X1340103Y309117D01*
X1340103Y317247D01*
X1342578Y317247D01*
X1348233Y311592D01*
X1348233Y309117D01*
X1340103Y309117D01*
G37*
%LPD*%
%LPC*%
G36*
X1525269Y71119D02*
X1525269Y71119D01*
X1525269Y79249D01*
X1527744Y79249D01*
X1533399Y73594D01*
X1533399Y71119D01*
X1525269Y71119D01*
G37*
%LPD*%
%LPC*%
G36*
X-169038Y45770D02*
X-169038Y45770D01*
X-169038Y48245D01*
X-163383Y53899D01*
X-160908Y53899D01*
X-160908Y45770D01*
X-169038Y45770D01*
G37*
%LPD*%
%LPC*%
G36*
X1158493Y308863D02*
X1158493Y308863D01*
X1158493Y316993D01*
X1160968Y316993D01*
X1166623Y311338D01*
X1166623Y308863D01*
X1158493Y308863D01*
G37*
%LPD*%
%LPC*%
G36*
X1526539Y306577D02*
X1526539Y306577D01*
X1526539Y314707D01*
X1529014Y314707D01*
X1534669Y309052D01*
X1534669Y306577D01*
X1526539Y306577D01*
G37*
%LPD*%
%LPC*%
G36*
X1337563Y69341D02*
X1337563Y69341D01*
X1337563Y77471D01*
X1340038Y77471D01*
X1345693Y71816D01*
X1345693Y69341D01*
X1337563Y69341D01*
G37*
%LPD*%
%LPC*%
G36*
X1155953Y68325D02*
X1155953Y68325D01*
X1155953Y76455D01*
X1158428Y76455D01*
X1164083Y70800D01*
X1164083Y68325D01*
X1155953Y68325D01*
G37*
%LPD*%
%LPC*%
G36*
X789177Y308863D02*
X789177Y308863D01*
X789177Y316993D01*
X791652Y316993D01*
X797307Y311338D01*
X797307Y308863D01*
X789177Y308863D01*
G37*
%LPD*%
%LPC*%
G36*
X971295Y310387D02*
X971295Y310387D01*
X971295Y318517D01*
X973770Y318517D01*
X979425Y312862D01*
X979425Y310387D01*
X971295Y310387D01*
G37*
%LPD*%
%LPC*%
G36*
X234898Y308609D02*
X234898Y308609D01*
X234898Y316739D01*
X237374Y316739D01*
X243028Y311084D01*
X243028Y308609D01*
X234898Y308609D01*
G37*
%LPD*%
%LPC*%
G36*
X235203Y72135D02*
X235203Y72135D01*
X235203Y80265D01*
X237678Y80265D01*
X243333Y74610D01*
X243333Y72135D01*
X235203Y72135D01*
G37*
%LPD*%
%LPC*%
G36*
X967993Y70357D02*
X967993Y70357D01*
X967993Y78487D01*
X970468Y78487D01*
X976123Y72832D01*
X976123Y70357D01*
X967993Y70357D01*
G37*
%LPD*%
%LPC*%
G36*
X602741Y308863D02*
X602741Y308863D01*
X602741Y316993D01*
X605216Y316993D01*
X610871Y311338D01*
X610871Y308863D01*
X602741Y308863D01*
G37*
%LPD*%
%LPC*%
G36*
X421131Y72389D02*
X421131Y72389D01*
X421131Y80519D01*
X423606Y80519D01*
X429261Y74864D01*
X429261Y72389D01*
X421131Y72389D01*
G37*
%LPD*%
%LPC*%
G36*
X421893Y308609D02*
X421893Y308609D01*
X421893Y316739D01*
X424368Y316739D01*
X430023Y311084D01*
X430023Y308609D01*
X421893Y308609D01*
G37*
%LPD*%
%LPC*%
G36*
X-169038Y274370D02*
X-169038Y274370D01*
X-169038Y276845D01*
X-163383Y282499D01*
X-160908Y282499D01*
X-160908Y274370D01*
X-169038Y274370D01*
G37*
%LPD*%
%LPC*%
G36*
X789431Y69595D02*
X789431Y69595D01*
X789431Y77725D01*
X791906Y77725D01*
X797561Y72070D01*
X797561Y69595D01*
X789431Y69595D01*
G37*
%LPD*%
%LPC*%
G36*
X600963Y70357D02*
X600963Y70357D01*
X600963Y78487D01*
X603438Y78487D01*
X609093Y72832D01*
X609093Y70357D01*
X600963Y70357D01*
G37*
%LPD*%
%LPC*%
G36*
X778255Y69595D02*
X778255Y69595D01*
X778255Y72070D01*
X783910Y77725D01*
X786385Y77725D01*
X786385Y69595D01*
X778255Y69595D01*
G37*
%LPD*%
%LPC*%
G36*
X224027Y72135D02*
X224027Y72135D01*
X224027Y74610D01*
X229682Y80265D01*
X232157Y80265D01*
X232157Y72135D01*
X224027Y72135D01*
G37*
%LPD*%
%LPC*%
G36*
X409955Y72389D02*
X409955Y72389D01*
X409955Y74864D01*
X415610Y80519D01*
X418085Y80519D01*
X418085Y72389D01*
X409955Y72389D01*
G37*
%LPD*%
%LPC*%
G36*
X-163383Y263194D02*
X-163383Y263194D01*
X-169038Y268848D01*
X-169038Y271324D01*
X-160908Y271324D01*
X-160908Y263194D01*
X-163383Y263194D01*
G37*
%LPD*%
%LPC*%
G36*
X-163383Y34594D02*
X-163383Y34594D01*
X-169038Y40248D01*
X-169038Y42724D01*
X-160908Y42724D01*
X-160908Y34594D01*
X-163383Y34594D01*
G37*
%LPD*%
%LPC*%
G36*
X960119Y310387D02*
X960119Y310387D01*
X960119Y312862D01*
X965774Y318517D01*
X968249Y318517D01*
X968249Y310387D01*
X960119Y310387D01*
G37*
%LPD*%
%LPC*%
G36*
X410717Y308609D02*
X410717Y308609D01*
X410717Y311084D01*
X416372Y316739D01*
X418847Y316739D01*
X418847Y308609D01*
X410717Y308609D01*
G37*
%LPD*%
%LPC*%
G36*
X956817Y70357D02*
X956817Y70357D01*
X956817Y72832D01*
X962472Y78487D01*
X964947Y78487D01*
X964947Y70357D01*
X956817Y70357D01*
G37*
%LPD*%
%LPC*%
G36*
X591565Y308863D02*
X591565Y308863D01*
X591565Y311338D01*
X597220Y316993D01*
X599695Y316993D01*
X599695Y308863D01*
X591565Y308863D01*
G37*
%LPD*%
%LPC*%
G36*
X778001Y308863D02*
X778001Y308863D01*
X778001Y311338D01*
X783656Y316993D01*
X786131Y316993D01*
X786131Y308863D01*
X778001Y308863D01*
G37*
%LPD*%
%LPC*%
G36*
X223722Y308609D02*
X223722Y308609D01*
X223723Y311084D01*
X229377Y316739D01*
X231852Y316739D01*
X231852Y308609D01*
X223722Y308609D01*
G37*
%LPD*%
%LPC*%
G36*
X589787Y70357D02*
X589787Y70357D01*
X589787Y72832D01*
X595442Y78487D01*
X597917Y78487D01*
X597917Y70357D01*
X589787Y70357D01*
G37*
%LPD*%
%LPC*%
G36*
X1158493Y297687D02*
X1158493Y297687D01*
X1158493Y305817D01*
X1166623Y305817D01*
X1166623Y303342D01*
X1160968Y297687D01*
X1158493Y297687D01*
G37*
%LPD*%
%LPC*%
G36*
X1337563Y58165D02*
X1337563Y58165D01*
X1337563Y66295D01*
X1345693Y66295D01*
X1345693Y63820D01*
X1340038Y58165D01*
X1337563Y58165D01*
G37*
%LPD*%
%LPC*%
G36*
X602741Y297687D02*
X602741Y297687D01*
X602741Y305817D01*
X610871Y305817D01*
X610871Y303342D01*
X605216Y297687D01*
X602741Y297687D01*
G37*
%LPD*%
%LPC*%
G36*
X1525269Y59943D02*
X1525269Y59943D01*
X1525269Y68073D01*
X1533399Y68073D01*
X1533399Y65598D01*
X1527744Y59943D01*
X1525269Y59943D01*
G37*
%LPD*%
%LPC*%
G36*
X789177Y297687D02*
X789177Y297687D01*
X789177Y305817D01*
X797307Y305817D01*
X797307Y303342D01*
X791652Y297687D01*
X789177Y297687D01*
G37*
%LPD*%
%LPC*%
G36*
X789431Y58419D02*
X789431Y58419D01*
X789431Y66549D01*
X797561Y66549D01*
X797561Y64074D01*
X791906Y58419D01*
X789431Y58419D01*
G37*
%LPD*%
%LPC*%
G36*
X421131Y61213D02*
X421131Y61213D01*
X421131Y69343D01*
X429261Y69343D01*
X429261Y66868D01*
X423606Y61213D01*
X421131Y61213D01*
G37*
%LPD*%
%LPC*%
G36*
X1340103Y297941D02*
X1340103Y297941D01*
X1340103Y306071D01*
X1348233Y306071D01*
X1348233Y303596D01*
X1342578Y297941D01*
X1340103Y297941D01*
G37*
%LPD*%
%LPC*%
G36*
X235203Y60959D02*
X235203Y60959D01*
X235203Y69089D01*
X243333Y69089D01*
X243333Y66614D01*
X237678Y60959D01*
X235203Y60959D01*
G37*
%LPD*%
%LPC*%
G36*
X600963Y59181D02*
X600963Y59181D01*
X600963Y67311D01*
X609093Y67311D01*
X609093Y64836D01*
X603438Y59181D01*
X600963Y59181D01*
G37*
%LPD*%
%LPC*%
G36*
X234898Y297433D02*
X234898Y297433D01*
X234898Y305563D01*
X243028Y305563D01*
X243028Y303088D01*
X237374Y297433D01*
X234898Y297433D01*
G37*
%LPD*%
%LPC*%
G36*
X971295Y299211D02*
X971295Y299211D01*
X971295Y307341D01*
X979425Y307341D01*
X979425Y304866D01*
X973770Y299211D01*
X971295Y299211D01*
G37*
%LPD*%
%LPC*%
G36*
X1526539Y295401D02*
X1526539Y295401D01*
X1526539Y303531D01*
X1534669Y303531D01*
X1534669Y301056D01*
X1529014Y295401D01*
X1526539Y295401D01*
G37*
%LPD*%
%LPC*%
G36*
X967993Y59181D02*
X967993Y59181D01*
X967993Y67311D01*
X976123Y67311D01*
X976123Y64836D01*
X970468Y59181D01*
X967993Y59181D01*
G37*
%LPD*%
%LPC*%
G36*
X1155953Y57149D02*
X1155953Y57149D01*
X1155953Y65279D01*
X1164083Y65279D01*
X1164083Y62804D01*
X1158428Y57149D01*
X1155953Y57149D01*
G37*
%LPD*%
%LPC*%
G36*
X-157862Y274370D02*
X-157862Y274370D01*
X-157862Y282499D01*
X-155387Y282499D01*
X-149732Y276845D01*
X-149732Y274370D01*
X-157862Y274370D01*
G37*
%LPD*%
%LPC*%
G36*
X421893Y297433D02*
X421893Y297433D01*
X421893Y305563D01*
X430023Y305563D01*
X430023Y303088D01*
X424368Y297433D01*
X421893Y297433D01*
G37*
%LPD*%
%LPC*%
G36*
X1328927Y309117D02*
X1328927Y309117D01*
X1328927Y311592D01*
X1334582Y317247D01*
X1337057Y317247D01*
X1337057Y309117D01*
X1328927Y309117D01*
G37*
%LPD*%
%LPC*%
G36*
X1147317Y308863D02*
X1147317Y308863D01*
X1147317Y311338D01*
X1152972Y316993D01*
X1155447Y316993D01*
X1155447Y308863D01*
X1147317Y308863D01*
G37*
%LPD*%
%LPC*%
G36*
X1514093Y71119D02*
X1514093Y71119D01*
X1514093Y73594D01*
X1519748Y79249D01*
X1522223Y79249D01*
X1522223Y71119D01*
X1514093Y71119D01*
G37*
%LPD*%
%LPC*%
G36*
X1144777Y68325D02*
X1144777Y68325D01*
X1144777Y70800D01*
X1150432Y76455D01*
X1152907Y76455D01*
X1152907Y68325D01*
X1144777Y68325D01*
G37*
%LPD*%
%LPC*%
G36*
X1326387Y69341D02*
X1326387Y69341D01*
X1326387Y71816D01*
X1332042Y77471D01*
X1334517Y77471D01*
X1334517Y69341D01*
X1326387Y69341D01*
G37*
%LPD*%
%LPC*%
G36*
X1515363Y306577D02*
X1515363Y306577D01*
X1515363Y309052D01*
X1521018Y314707D01*
X1523493Y314707D01*
X1523493Y306577D01*
X1515363Y306577D01*
G37*
%LPD*%
%LPC*%
G36*
X783910Y58419D02*
X783910Y58419D01*
X778255Y64074D01*
X778255Y66549D01*
X786385Y66549D01*
X786385Y58419D01*
X783910Y58419D01*
G37*
%LPD*%
%LPC*%
G36*
X416372Y297433D02*
X416372Y297433D01*
X410717Y303088D01*
X410717Y305563D01*
X418847Y305563D01*
X418847Y297433D01*
X416372Y297433D01*
G37*
%LPD*%
%LPC*%
G36*
X1519748Y59943D02*
X1519748Y59943D01*
X1514093Y65598D01*
X1514093Y68073D01*
X1522223Y68073D01*
X1522223Y59943D01*
X1519748Y59943D01*
G37*
%LPD*%
%LPC*%
G36*
X1332042Y58165D02*
X1332042Y58165D01*
X1326387Y63820D01*
X1326387Y66295D01*
X1334517Y66295D01*
X1334517Y58165D01*
X1332042Y58165D01*
G37*
%LPD*%
%LPC*%
G36*
X229682Y60959D02*
X229682Y60959D01*
X224027Y66614D01*
X224027Y69089D01*
X232157Y69089D01*
X232157Y60959D01*
X229682Y60959D01*
G37*
%LPD*%
%LPC*%
G36*
X1152972Y297687D02*
X1152972Y297687D01*
X1147317Y303342D01*
X1147317Y305817D01*
X1155447Y305817D01*
X1155447Y297687D01*
X1152972Y297687D01*
G37*
%LPD*%
%LPC*%
G36*
X783656Y297687D02*
X783656Y297687D01*
X778001Y303342D01*
X778001Y305817D01*
X786131Y305817D01*
X786131Y297687D01*
X783656Y297687D01*
G37*
%LPD*%
%LPC*%
G36*
X595442Y59181D02*
X595442Y59181D01*
X589787Y64836D01*
X589787Y67311D01*
X597917Y67311D01*
X597917Y59181D01*
X595442Y59181D01*
G37*
%LPD*%
%LPC*%
G36*
X1150432Y57149D02*
X1150432Y57149D01*
X1144777Y62804D01*
X1144777Y65279D01*
X1152907Y65279D01*
X1152907Y57149D01*
X1150432Y57149D01*
G37*
%LPD*%
%LPC*%
G36*
X229377Y297433D02*
X229377Y297433D01*
X223723Y303088D01*
X223723Y305563D01*
X231852Y305563D01*
X231852Y297433D01*
X229377Y297433D01*
G37*
%LPD*%
%LPC*%
G36*
X962472Y59181D02*
X962472Y59181D01*
X956817Y64836D01*
X956817Y67311D01*
X964947Y67311D01*
X964947Y59181D01*
X962472Y59181D01*
G37*
%LPD*%
%LPC*%
G36*
X415610Y61213D02*
X415610Y61213D01*
X409955Y66868D01*
X409955Y69343D01*
X418085Y69343D01*
X418085Y61213D01*
X415610Y61213D01*
G37*
%LPD*%
%LPC*%
G36*
X1334582Y297941D02*
X1334582Y297941D01*
X1328927Y303596D01*
X1328927Y306071D01*
X1337057Y306071D01*
X1337057Y297941D01*
X1334582Y297941D01*
G37*
%LPD*%
%LPC*%
G36*
X1521018Y295401D02*
X1521018Y295401D01*
X1515363Y301056D01*
X1515363Y303531D01*
X1523493Y303531D01*
X1523493Y295401D01*
X1521018Y295401D01*
G37*
%LPD*%
%LPC*%
G36*
X597220Y297687D02*
X597220Y297687D01*
X591565Y303342D01*
X591565Y305817D01*
X599695Y305817D01*
X599695Y297687D01*
X597220Y297687D01*
G37*
%LPD*%
%LPC*%
G36*
X-157862Y34594D02*
X-157862Y34594D01*
X-157862Y42724D01*
X-149732Y42724D01*
X-149732Y40248D01*
X-155387Y34594D01*
X-157862Y34594D01*
G37*
%LPD*%
%LPC*%
G36*
X965774Y299211D02*
X965774Y299211D01*
X960119Y304866D01*
X960119Y307341D01*
X968249Y307341D01*
X968249Y299211D01*
X965774Y299211D01*
G37*
%LPD*%
%LPC*%
G36*
X1132077Y65531D02*
X1132077Y65531D01*
X1132077Y65533D01*
X1132079Y65533D01*
X1132079Y65531D01*
X1132077Y65531D01*
G37*
%LPD*%
%LPC*%
G36*
X577087Y67563D02*
X577087Y67563D01*
X577087Y67565D01*
X577089Y67565D01*
X577089Y67563D01*
X577087Y67563D01*
G37*
%LPD*%
%LPC*%
G36*
X944117Y67563D02*
X944117Y67563D01*
X944117Y67565D01*
X944119Y67565D01*
X944119Y67563D01*
X944117Y67563D01*
G37*
%LPD*%
%LPC*%
G36*
X1336039Y67817D02*
X1336039Y67817D01*
X1336039Y67819D01*
X1336041Y67819D01*
X1336041Y67817D01*
X1336039Y67817D01*
G37*
%LPD*%
%LPC*%
G36*
X787907Y68071D02*
X787907Y68071D01*
X787907Y68073D01*
X787909Y68073D01*
X787909Y68071D01*
X787907Y68071D01*
G37*
%LPD*%
%LPC*%
G36*
X1501393Y68325D02*
X1501393Y68325D01*
X1501393Y68327D01*
X1501395Y68327D01*
X1501395Y68325D01*
X1501393Y68325D01*
G37*
%LPD*%
%LPC*%
G36*
X599439Y68833D02*
X599439Y68833D01*
X599439Y68835D01*
X599441Y68835D01*
X599441Y68833D01*
X599439Y68833D01*
G37*
%LPD*%
%LPC*%
G36*
X966469Y68833D02*
X966469Y68833D01*
X966469Y68835D01*
X966471Y68835D01*
X966471Y68833D01*
X966469Y68833D01*
G37*
%LPD*%
%LPC*%
G36*
X398017Y305815D02*
X398017Y305815D01*
X398017Y305817D01*
X398019Y305817D01*
X398019Y305815D01*
X398017Y305815D01*
G37*
%LPD*%
%LPC*%
G36*
X969771Y308863D02*
X969771Y308863D01*
X969771Y308865D01*
X969773Y308865D01*
X969773Y308863D01*
X969771Y308863D01*
G37*
%LPD*%
%LPC*%
G36*
X211327Y69341D02*
X211327Y69341D01*
X211327Y69343D01*
X211329Y69343D01*
X211329Y69341D01*
X211327Y69341D01*
G37*
%LPD*%
%LPC*%
G36*
X1313687Y66547D02*
X1313687Y66547D01*
X1313687Y66549D01*
X1313689Y66549D01*
X1313689Y66547D01*
X1313687Y66547D01*
G37*
%LPD*%
%LPC*%
G36*
X765301Y306069D02*
X765301Y306069D01*
X765301Y306071D01*
X765303Y306071D01*
X765303Y306069D01*
X765301Y306069D01*
G37*
%LPD*%
%LPC*%
G36*
X578865Y306069D02*
X578865Y306069D01*
X578865Y306071D01*
X578867Y306071D01*
X578867Y306069D01*
X578865Y306069D01*
G37*
%LPD*%
%LPC*%
G36*
X1523745Y69595D02*
X1523745Y69595D01*
X1523745Y69597D01*
X1523747Y69597D01*
X1523747Y69595D01*
X1523745Y69595D01*
G37*
%LPD*%
%LPC*%
G36*
X1134617Y306069D02*
X1134617Y306069D01*
X1134617Y306071D01*
X1134619Y306071D01*
X1134619Y306069D01*
X1134617Y306069D01*
G37*
%LPD*%
%LPC*%
G36*
X1316227Y306323D02*
X1316227Y306323D01*
X1316227Y306325D01*
X1316229Y306325D01*
X1316229Y306323D01*
X1316227Y306323D01*
G37*
%LPD*%
%LPC*%
G36*
X765555Y66801D02*
X765555Y66801D01*
X765555Y66803D01*
X765557Y66803D01*
X765557Y66801D01*
X765555Y66801D01*
G37*
%LPD*%
%LPC*%
G36*
X397255Y69595D02*
X397255Y69595D01*
X397255Y69597D01*
X397257Y69597D01*
X397257Y69595D01*
X397255Y69595D01*
G37*
%LPD*%
%LPC*%
G36*
X420369Y307085D02*
X420369Y307085D01*
X420369Y307087D01*
X420371Y307087D01*
X420371Y307085D01*
X420369Y307085D01*
G37*
%LPD*%
%LPC*%
G36*
X1154429Y66801D02*
X1154429Y66801D01*
X1154429Y66803D01*
X1154431Y66803D01*
X1154431Y66801D01*
X1154429Y66801D01*
G37*
%LPD*%
%LPC*%
G36*
X233374Y307085D02*
X233374Y307085D01*
X233374Y307087D01*
X233376Y307087D01*
X233376Y307085D01*
X233374Y307085D01*
G37*
%LPD*%
%LPC*%
G36*
X419607Y70865D02*
X419607Y70865D01*
X419607Y70867D01*
X419609Y70867D01*
X419609Y70865D01*
X419607Y70865D01*
G37*
%LPD*%
%LPC*%
G36*
X-159386Y44246D02*
X-159386Y44246D01*
X-159386Y44248D01*
X-159384Y44248D01*
X-159384Y44246D01*
X-159386Y44246D01*
G37*
%LPD*%
%LPC*%
G36*
X210514Y311124D02*
X210514Y311124D01*
X210514Y311125D01*
X210516Y311125D01*
X210516Y311124D01*
X210514Y311124D01*
G37*
%LPD*%
%LPC*%
G36*
X233679Y70611D02*
X233679Y70611D01*
X233679Y70613D01*
X233681Y70613D01*
X233681Y70611D01*
X233679Y70611D01*
G37*
%LPD*%
%LPC*%
G36*
X1156969Y307339D02*
X1156969Y307339D01*
X1156969Y307341D01*
X1156971Y307341D01*
X1156971Y307339D01*
X1156969Y307339D01*
G37*
%LPD*%
%LPC*%
G36*
X-159386Y272846D02*
X-159386Y272846D01*
X-159386Y272848D01*
X-159384Y272848D01*
X-159384Y272846D01*
X-159386Y272846D01*
G37*
%LPD*%
%LPC*%
G36*
X787653Y307339D02*
X787653Y307339D01*
X787653Y307341D01*
X787655Y307341D01*
X787655Y307339D01*
X787653Y307339D01*
G37*
%LPD*%
%LPC*%
G36*
X1525015Y305053D02*
X1525015Y305053D01*
X1525015Y305055D01*
X1525017Y305055D01*
X1525017Y305053D01*
X1525015Y305053D01*
G37*
%LPD*%
%LPC*%
G36*
X601217Y307339D02*
X601217Y307339D01*
X601217Y307341D01*
X601219Y307341D01*
X601219Y307339D01*
X601217Y307339D01*
G37*
%LPD*%
%LPC*%
G36*
X947419Y307593D02*
X947419Y307593D01*
X947419Y307595D01*
X947421Y307595D01*
X947421Y307593D01*
X947419Y307593D01*
G37*
%LPD*%
%LPC*%
G36*
X1338579Y307593D02*
X1338579Y307593D01*
X1338579Y307595D01*
X1338581Y307595D01*
X1338581Y307593D01*
X1338579Y307593D01*
G37*
%LPD*%
%LPC*%
G36*
X1502663Y303783D02*
X1502663Y303783D01*
X1502663Y303785D01*
X1502665Y303785D01*
X1502665Y303783D01*
X1502663Y303783D01*
G37*
%LPD*%
D10*
X-86157Y45745D03*
X-60757Y45745D03*
X-86157Y71145D03*
X-60757Y71145D03*
X-86157Y96545D03*
X-60757Y96545D03*
X-86157Y121945D03*
X-60757Y121945D03*
X-86157Y147345D03*
X-60757Y147345D03*
X-86157Y172745D03*
X-60757Y172745D03*
X-86157Y198145D03*
X-60757Y198145D03*
X-86157Y223545D03*
X-60757Y223545D03*
X-86157Y248945D03*
X-60757Y248945D03*
X-86157Y274345D03*
X-60757Y274345D03*
X-184785Y44247D03*
X-159385Y44247D03*
X-184785Y69647D03*
X-159385Y69647D03*
X-184785Y95047D03*
X-159385Y95047D03*
X-184785Y120447D03*
X-159385Y120447D03*
X-184785Y145847D03*
X-159385Y145847D03*
X-184785Y171247D03*
X-159385Y171247D03*
X-184785Y196647D03*
X-159385Y196647D03*
X-184785Y222047D03*
X-159385Y222047D03*
X-184785Y247447D03*
X-159385Y247447D03*
X-184785Y272847D03*
X-159385Y272847D03*
X233375Y281686D03*
X233375Y307086D03*
D11*
X210515Y311125D03*
X210515Y260325D03*
D10*
X233680Y45212D03*
X233680Y70612D03*
D11*
X211328Y69342D03*
X211328Y18542D03*
D12*
X259588Y42672D03*
X310642Y42926D03*
D10*
X420370Y281686D03*
X420370Y307086D03*
D11*
X398018Y305816D03*
X398018Y255016D03*
D12*
X446278Y279146D03*
X497332Y279400D03*
D10*
X419608Y45466D03*
X419608Y70866D03*
D11*
X397256Y69596D03*
X397256Y18796D03*
D12*
X445516Y42926D03*
X496570Y43180D03*
D10*
X601218Y281940D03*
X601218Y307340D03*
D11*
X578866Y306070D03*
X578866Y255270D03*
D12*
X627126Y279400D03*
X678180Y279654D03*
D10*
X599440Y43434D03*
X599440Y68834D03*
D11*
X577088Y67564D03*
X577088Y16764D03*
D12*
X625348Y40894D03*
X676402Y41148D03*
D10*
X787654Y281940D03*
X787654Y307340D03*
D11*
X765302Y306070D03*
X765302Y255270D03*
D12*
X813562Y279400D03*
X864616Y279654D03*
D10*
X787908Y42672D03*
X787908Y68072D03*
D11*
X765556Y66802D03*
X765556Y16002D03*
D12*
X813816Y40132D03*
X864870Y40386D03*
D10*
X969772Y283464D03*
X969772Y308864D03*
D11*
X947420Y307594D03*
X947420Y256794D03*
D12*
X995680Y280924D03*
X1046734Y281178D03*
D10*
X966470Y43434D03*
X966470Y68834D03*
D11*
X944118Y67564D03*
X944118Y16764D03*
D12*
X992378Y40894D03*
X1043432Y41148D03*
D10*
X1156970Y281940D03*
X1156970Y307340D03*
D11*
X1134618Y306070D03*
X1134618Y255270D03*
D12*
X1182878Y279400D03*
X1233932Y279654D03*
D10*
X1154430Y41402D03*
X1154430Y66802D03*
D11*
X1132078Y65532D03*
X1132078Y14732D03*
D12*
X1180338Y38862D03*
X1231392Y39116D03*
D10*
X1338580Y282194D03*
X1338580Y307594D03*
D11*
X1316228Y306324D03*
X1316228Y255524D03*
D12*
X1364488Y279654D03*
X1415542Y279908D03*
D10*
X1336040Y42418D03*
X1336040Y67818D03*
D11*
X1313688Y66548D03*
X1313688Y15748D03*
D12*
X1361948Y39878D03*
X1413002Y40132D03*
D10*
X1525016Y279654D03*
X1525016Y305054D03*
D11*
X1502664Y303784D03*
X1502664Y252984D03*
D12*
X1550924Y277114D03*
X1601978Y277368D03*
D10*
X1523746Y44196D03*
X1523746Y69596D03*
D11*
X1501394Y68326D03*
X1501394Y17526D03*
D12*
X1549654Y41656D03*
X1600708Y41910D03*
X259334Y280416D03*
X311150Y279908D03*
D13*
X210109Y241325D02*
X210109Y234213D01*
X171145Y195250D01*
X-144602Y262128D02*
X-149377Y257353D01*
X-46761Y262128D02*
X20117Y195250D01*
X-46761Y262128D02*
X-144602Y262128D01*
X20117Y195250D02*
X171145Y195250D01*
D14*
X-149479Y257353D02*
X-159385Y247447D01*
X-149479Y257353D02*
X-149377Y257353D01*
D15*
X210109Y241325D03*
X-213106Y159258D03*
X1617726Y349504D03*
X1516380Y327406D03*
X1328928Y326898D03*
X1146556Y330454D03*
X957072Y328422D03*
X776732Y330200D03*
X591820Y327914D03*
X407670Y330454D03*
X209550Y330962D03*
X156972Y83566D03*
X395986Y93218D03*
X589788Y94234D03*
X775462Y93980D03*
X959104Y91440D03*
X1141476Y90932D03*
X1326896Y89408D03*
X1511554Y87630D03*
X1615186Y-31496D03*
X-200406Y344932D03*
X-206248Y-10160D03*
D14*
X-159385Y272847D02*
X-159385Y284632D01*
X-145555Y298463D01*
X-159385Y43282D02*
X-142900Y26797D01*
X-159385Y43282D02*
X-159385Y44247D01*
X-145555Y298463D02*
X177051Y298463D01*
X209550Y330962D01*
X156972Y83566D02*
X100203Y26797D01*
X-142900Y26797D01*
D15*
X225298Y91948D03*
D13*
X324942Y186461D02*
X383540Y245059D01*
X324942Y186461D02*
X6223Y186461D01*
X-43967Y236652D01*
X-144831Y236652D01*
D14*
X-144831Y236601D02*
X-159385Y222047D01*
X-144831Y236601D02*
X-144831Y236652D01*
D15*
X383540Y245059D03*
D13*
X561086Y248234D02*
X562102Y248234D01*
X561086Y248234D02*
X490347Y177495D01*
X-7036Y177495D02*
X-40691Y211150D01*
X-145948Y211150D01*
X-150343Y206756D01*
X-7036Y177495D02*
X490347Y177495D01*
D14*
X-150343Y205689D02*
X-159385Y196647D01*
X-150343Y205689D02*
X-150343Y206756D01*
D15*
X562102Y248234D03*
D13*
X665226Y168554D02*
X744220Y247548D01*
X-144678Y185776D02*
X-149708Y180746D01*
X-25476Y168554D02*
X665226Y168554D01*
X-25476Y168554D02*
X-42697Y185776D01*
X-144678Y185776D01*
D14*
X-149885Y180746D02*
X-159385Y171247D01*
X-149885Y180746D02*
X-149708Y180746D01*
D15*
X744220Y247548D03*
D13*
X856996Y345694D02*
X929132Y273558D01*
X856996Y345694D02*
X204038Y345694D01*
X171501Y313157D01*
X-171247Y313157D01*
X-199669Y263474D02*
X-193015Y256819D01*
X-199669Y284734D02*
X-171247Y313157D01*
X-199669Y284734D02*
X-199669Y263474D01*
D14*
X-193015Y255676D02*
X-184785Y247447D01*
X-193015Y255676D02*
X-193015Y256819D01*
D15*
X929132Y273558D03*
D13*
X1037920Y352730D02*
X1119378Y271272D01*
X1037920Y352730D02*
X197968Y352730D01*
X-195377Y231699D02*
X-207035Y243357D01*
X167996Y322758D02*
X197968Y352730D01*
X167996Y322758D02*
X-174473Y322758D01*
X-207035Y290195D01*
X-207035Y243357D01*
D14*
X-195377Y231699D02*
X-185725Y222047D01*
X-184785Y222047D01*
D15*
X1119378Y271272D03*
D13*
X-194818Y206756D02*
X-213757Y225695D01*
X192024Y359105D02*
X1248715Y359105D01*
X192024Y359105D02*
X164414Y331495D01*
X-176632Y331495D01*
X-213757Y294370D01*
X-213757Y225695D01*
D14*
X-194818Y206756D02*
X-184785Y196723D01*
X-184785Y196647D01*
D15*
X1298448Y273637D03*
D13*
X1298194Y273637D02*
X1298194Y309626D01*
X1298194Y273637D02*
X1298448Y273637D01*
X1298194Y309626D02*
X1248715Y359105D01*
X-193980Y180391D02*
X-220707Y207118D01*
X186715Y365557D02*
X1379271Y365557D01*
X186715Y365557D02*
X161163Y340004D01*
X-179381Y340004D01*
X-220707Y298679D01*
X-220707Y207118D01*
D14*
X-193980Y180391D02*
X-184836Y171247D01*
X-184785Y171247D01*
D13*
X1485189Y259436D02*
X1485189Y259639D01*
D15*
X1485189Y259436D03*
D13*
X1485189Y259639D02*
X1379271Y365557D01*
X-148031Y58674D02*
X-150901Y61544D01*
X14402Y124511D02*
X138125Y124511D01*
X14402Y124511D02*
X-51435Y58674D01*
X-148031Y58674D01*
D14*
X-151283Y61544D02*
X-159385Y69647D01*
X-151283Y61544D02*
X-150901Y61544D01*
D15*
X196901Y34900D03*
D13*
X190805Y40996D02*
X190805Y71831D01*
X190805Y40996D02*
X196901Y34900D01*
X190805Y71831D02*
X138125Y124511D01*
X-147574Y84099D02*
X-151079Y87605D01*
X6553Y132893D02*
X314401Y132893D01*
X6553Y132893D02*
X-42240Y84099D01*
X-147574Y84099D01*
D14*
X-151943Y87605D02*
X-159385Y95047D01*
X-151943Y87605D02*
X-151079Y87605D01*
D13*
X377749Y69545D02*
X377749Y33376D01*
D15*
X377749Y33376D03*
D13*
X377749Y69545D02*
X314401Y132893D01*
X-147701Y109372D02*
X-151257Y112928D01*
X-8204Y142342D02*
X479450Y142342D01*
X-8204Y142342D02*
X-41173Y109372D01*
X-147701Y109372D01*
D14*
X-151867Y112928D02*
X-159385Y120447D01*
X-151867Y112928D02*
X-151257Y112928D01*
D15*
X561137Y33122D03*
D13*
X561137Y60655D01*
X479450Y142342D01*
X-147015Y134645D02*
X-150368Y137998D01*
X-22758Y151384D02*
X674624Y151384D01*
X-22758Y151384D02*
X-39497Y134645D01*
X-147015Y134645D01*
D14*
X-151537Y137998D02*
X-159385Y145847D01*
X-151537Y137998D02*
X-150368Y137998D01*
D13*
X749097Y76911D02*
X749097Y32360D01*
D15*
X749097Y32360D03*
D13*
X749097Y76911D02*
X674624Y151384D01*
X203632Y-18313D02*
X172593Y12725D01*
X-171374Y12725D01*
X-197790Y61493D02*
X-192265Y67018D01*
X-197790Y39141D02*
X-171374Y12725D01*
X-197790Y39141D02*
X-197790Y61493D01*
D14*
X-187414Y67018D02*
X-184785Y69647D01*
X-187414Y67018D02*
X-192265Y67018D01*
D13*
X902640Y-18313D02*
X923341Y2388D01*
X902640Y-18313D02*
X203632Y-18313D01*
D15*
X923341Y2388D03*
D13*
X-194999Y87968D02*
X-204114Y78852D01*
X169240Y5029D02*
X201320Y-27051D01*
X169240Y5029D02*
X-174854Y5029D01*
X-204114Y34290D01*
X-204114Y78852D01*
D14*
X-194999Y87968D02*
X-187920Y95047D01*
X-184785Y95047D01*
D13*
X1105967Y5690D02*
X1113079Y5690D01*
X1105967Y5690D02*
X1073226Y-27051D01*
X201320Y-27051D01*
D15*
X1113079Y5690D03*
D13*
X-193831Y136952D02*
X-219005Y111777D01*
X193853Y-44120D02*
X1428674Y-44120D01*
X193853Y-44120D02*
X162458Y-12725D01*
X-178511Y-12725D01*
X-219005Y27769D01*
X-219005Y111777D01*
D14*
X-193831Y136952D02*
X-184936Y145847D01*
X-184785Y145847D01*
D13*
X1482192Y9804D02*
X1482192Y9398D01*
D15*
X1482192Y9804D03*
D13*
X1482192Y9398D02*
X1428674Y-44120D01*
X-175870Y-3861D02*
X-211776Y32045D01*
X-211776Y93359D01*
X-194044Y111091D01*
X198323Y-35992D02*
X1249426Y-35992D01*
X198323Y-35992D02*
X166192Y-3861D01*
X-175870Y-3861D01*
D14*
X-194044Y111091D02*
X-184785Y120350D01*
X-184785Y120447D01*
D15*
X1295502Y10058D03*
D13*
X1295476Y10058D01*
X1249426Y-35992D01*
M02*
