G04 EAGLE Gerber RS-274X export*
G75*
%MOMM*%
%FSLAX34Y34*%
%LPD*%
%INStiffener_Top*%
%IPPOS*%
%AMOC8*
5,1,8,0,0,1.08239X$1,22.5*%
G01*
%ADD10C,0.152400*%


D10*
X-193040Y287020D02*
X-193286Y287017D01*
X-193531Y287008D01*
X-193776Y286993D01*
X-194021Y286973D01*
X-194265Y286946D01*
X-194508Y286913D01*
X-194751Y286875D01*
X-194992Y286831D01*
X-195232Y286781D01*
X-195471Y286725D01*
X-195709Y286663D01*
X-195945Y286596D01*
X-196180Y286523D01*
X-196412Y286444D01*
X-196643Y286360D01*
X-196871Y286270D01*
X-197098Y286175D01*
X-197321Y286074D01*
X-197543Y285968D01*
X-197762Y285856D01*
X-197978Y285740D01*
X-198191Y285618D01*
X-198401Y285491D01*
X-198608Y285359D01*
X-198812Y285222D01*
X-199012Y285080D01*
X-199209Y284933D01*
X-199402Y284781D01*
X-199592Y284625D01*
X-199777Y284465D01*
X-199959Y284300D01*
X-200137Y284130D01*
X-200310Y283957D01*
X-200480Y283779D01*
X-200645Y283597D01*
X-200805Y283412D01*
X-200961Y283222D01*
X-201113Y283029D01*
X-201260Y282832D01*
X-201402Y282632D01*
X-201539Y282428D01*
X-201671Y282221D01*
X-201798Y282011D01*
X-201920Y281798D01*
X-202036Y281582D01*
X-202148Y281363D01*
X-202254Y281141D01*
X-202355Y280918D01*
X-202450Y280691D01*
X-202540Y280463D01*
X-202624Y280232D01*
X-202703Y280000D01*
X-202776Y279765D01*
X-202843Y279529D01*
X-202905Y279291D01*
X-202961Y279052D01*
X-203011Y278812D01*
X-203055Y278571D01*
X-203093Y278328D01*
X-203126Y278085D01*
X-203153Y277841D01*
X-203173Y277596D01*
X-203188Y277351D01*
X-203197Y277106D01*
X-203200Y276860D01*
X-193040Y287020D02*
X-152400Y287020D01*
X-152154Y287017D01*
X-151909Y287008D01*
X-151664Y286993D01*
X-151419Y286973D01*
X-151175Y286946D01*
X-150932Y286913D01*
X-150689Y286875D01*
X-150448Y286831D01*
X-150208Y286781D01*
X-149969Y286725D01*
X-149731Y286663D01*
X-149495Y286596D01*
X-149260Y286523D01*
X-149028Y286444D01*
X-148797Y286360D01*
X-148569Y286270D01*
X-148342Y286175D01*
X-148119Y286074D01*
X-147897Y285968D01*
X-147678Y285856D01*
X-147462Y285740D01*
X-147249Y285618D01*
X-147039Y285491D01*
X-146832Y285359D01*
X-146628Y285222D01*
X-146428Y285080D01*
X-146231Y284933D01*
X-146038Y284781D01*
X-145848Y284625D01*
X-145663Y284465D01*
X-145481Y284300D01*
X-145303Y284130D01*
X-145130Y283957D01*
X-144960Y283779D01*
X-144795Y283597D01*
X-144635Y283412D01*
X-144479Y283222D01*
X-144327Y283029D01*
X-144180Y282832D01*
X-144038Y282632D01*
X-143901Y282428D01*
X-143769Y282221D01*
X-143642Y282011D01*
X-143520Y281798D01*
X-143404Y281582D01*
X-143292Y281363D01*
X-143186Y281141D01*
X-143085Y280918D01*
X-142990Y280691D01*
X-142900Y280463D01*
X-142816Y280232D01*
X-142737Y280000D01*
X-142664Y279765D01*
X-142597Y279529D01*
X-142535Y279291D01*
X-142479Y279052D01*
X-142429Y278812D01*
X-142385Y278571D01*
X-142347Y278328D01*
X-142314Y278085D01*
X-142287Y277841D01*
X-142267Y277596D01*
X-142252Y277351D01*
X-142243Y277106D01*
X-142240Y276860D01*
X-142240Y40640D01*
X-142243Y40394D01*
X-142252Y40149D01*
X-142267Y39904D01*
X-142287Y39659D01*
X-142314Y39415D01*
X-142347Y39172D01*
X-142385Y38929D01*
X-142429Y38688D01*
X-142479Y38448D01*
X-142535Y38209D01*
X-142597Y37971D01*
X-142664Y37735D01*
X-142737Y37500D01*
X-142816Y37268D01*
X-142900Y37037D01*
X-142990Y36809D01*
X-143085Y36582D01*
X-143186Y36359D01*
X-143292Y36137D01*
X-143404Y35918D01*
X-143520Y35702D01*
X-143642Y35489D01*
X-143769Y35279D01*
X-143901Y35072D01*
X-144038Y34868D01*
X-144180Y34668D01*
X-144327Y34471D01*
X-144479Y34278D01*
X-144635Y34088D01*
X-144795Y33903D01*
X-144960Y33721D01*
X-145130Y33543D01*
X-145303Y33370D01*
X-145481Y33200D01*
X-145663Y33035D01*
X-145848Y32875D01*
X-146038Y32719D01*
X-146231Y32567D01*
X-146428Y32420D01*
X-146628Y32278D01*
X-146832Y32141D01*
X-147039Y32009D01*
X-147249Y31882D01*
X-147462Y31760D01*
X-147678Y31644D01*
X-147897Y31532D01*
X-148119Y31426D01*
X-148342Y31325D01*
X-148569Y31230D01*
X-148797Y31140D01*
X-149028Y31056D01*
X-149260Y30977D01*
X-149495Y30904D01*
X-149731Y30837D01*
X-149969Y30775D01*
X-150208Y30719D01*
X-150448Y30669D01*
X-150689Y30625D01*
X-150932Y30587D01*
X-151175Y30554D01*
X-151419Y30527D01*
X-151664Y30507D01*
X-151909Y30492D01*
X-152154Y30483D01*
X-152400Y30480D01*
X-193040Y30480D01*
X-193286Y30483D01*
X-193531Y30492D01*
X-193776Y30507D01*
X-194021Y30527D01*
X-194265Y30554D01*
X-194508Y30587D01*
X-194751Y30625D01*
X-194992Y30669D01*
X-195232Y30719D01*
X-195471Y30775D01*
X-195709Y30837D01*
X-195945Y30904D01*
X-196180Y30977D01*
X-196412Y31056D01*
X-196643Y31140D01*
X-196871Y31230D01*
X-197098Y31325D01*
X-197321Y31426D01*
X-197543Y31532D01*
X-197762Y31644D01*
X-197978Y31760D01*
X-198191Y31882D01*
X-198401Y32009D01*
X-198608Y32141D01*
X-198812Y32278D01*
X-199012Y32420D01*
X-199209Y32567D01*
X-199402Y32719D01*
X-199592Y32875D01*
X-199777Y33035D01*
X-199959Y33200D01*
X-200137Y33370D01*
X-200310Y33543D01*
X-200480Y33721D01*
X-200645Y33903D01*
X-200805Y34088D01*
X-200961Y34278D01*
X-201113Y34471D01*
X-201260Y34668D01*
X-201402Y34868D01*
X-201539Y35072D01*
X-201671Y35279D01*
X-201798Y35489D01*
X-201920Y35702D01*
X-202036Y35918D01*
X-202148Y36137D01*
X-202254Y36359D01*
X-202355Y36582D01*
X-202450Y36809D01*
X-202540Y37037D01*
X-202624Y37268D01*
X-202703Y37500D01*
X-202776Y37735D01*
X-202843Y37971D01*
X-202905Y38209D01*
X-202961Y38448D01*
X-203011Y38688D01*
X-203055Y38929D01*
X-203093Y39172D01*
X-203126Y39415D01*
X-203153Y39659D01*
X-203173Y39904D01*
X-203188Y40149D01*
X-203197Y40394D01*
X-203200Y40640D01*
X-203200Y276860D01*
X-104140Y280924D02*
X-104138Y281108D01*
X-104131Y281292D01*
X-104120Y281476D01*
X-104104Y281659D01*
X-104084Y281842D01*
X-104060Y282025D01*
X-104031Y282207D01*
X-103998Y282388D01*
X-103960Y282568D01*
X-103919Y282748D01*
X-103872Y282926D01*
X-103822Y283103D01*
X-103767Y283279D01*
X-103708Y283453D01*
X-103645Y283626D01*
X-103577Y283797D01*
X-103506Y283967D01*
X-103430Y284135D01*
X-103351Y284301D01*
X-103267Y284465D01*
X-103180Y284627D01*
X-103088Y284787D01*
X-102993Y284945D01*
X-102894Y285100D01*
X-102791Y285253D01*
X-102685Y285403D01*
X-102575Y285551D01*
X-102461Y285696D01*
X-102344Y285838D01*
X-102224Y285977D01*
X-102100Y286113D01*
X-101973Y286247D01*
X-101843Y286377D01*
X-101709Y286504D01*
X-101573Y286628D01*
X-101434Y286748D01*
X-101292Y286865D01*
X-101147Y286979D01*
X-100999Y287089D01*
X-100849Y287195D01*
X-100696Y287298D01*
X-100541Y287397D01*
X-100383Y287492D01*
X-100223Y287584D01*
X-100061Y287671D01*
X-99897Y287755D01*
X-99731Y287834D01*
X-99563Y287910D01*
X-99393Y287981D01*
X-99222Y288049D01*
X-99049Y288112D01*
X-98875Y288171D01*
X-98699Y288226D01*
X-98522Y288276D01*
X-98344Y288323D01*
X-98164Y288364D01*
X-97984Y288402D01*
X-97803Y288435D01*
X-97621Y288464D01*
X-97438Y288488D01*
X-97255Y288508D01*
X-97072Y288524D01*
X-96888Y288535D01*
X-96704Y288542D01*
X-96520Y288544D01*
X-50800Y288544D01*
X-50616Y288542D01*
X-50432Y288535D01*
X-50248Y288524D01*
X-50065Y288508D01*
X-49882Y288488D01*
X-49699Y288464D01*
X-49517Y288435D01*
X-49336Y288402D01*
X-49156Y288364D01*
X-48976Y288323D01*
X-48798Y288276D01*
X-48621Y288226D01*
X-48445Y288171D01*
X-48271Y288112D01*
X-48098Y288049D01*
X-47927Y287981D01*
X-47757Y287910D01*
X-47589Y287834D01*
X-47423Y287755D01*
X-47259Y287671D01*
X-47097Y287584D01*
X-46937Y287492D01*
X-46779Y287397D01*
X-46624Y287298D01*
X-46471Y287195D01*
X-46321Y287089D01*
X-46173Y286979D01*
X-46028Y286865D01*
X-45886Y286748D01*
X-45747Y286628D01*
X-45611Y286504D01*
X-45477Y286377D01*
X-45347Y286247D01*
X-45220Y286113D01*
X-45096Y285977D01*
X-44976Y285838D01*
X-44859Y285696D01*
X-44745Y285551D01*
X-44635Y285403D01*
X-44529Y285253D01*
X-44426Y285100D01*
X-44327Y284945D01*
X-44232Y284787D01*
X-44140Y284627D01*
X-44053Y284465D01*
X-43969Y284301D01*
X-43890Y284135D01*
X-43814Y283967D01*
X-43743Y283797D01*
X-43675Y283626D01*
X-43612Y283453D01*
X-43553Y283279D01*
X-43498Y283103D01*
X-43448Y282926D01*
X-43401Y282748D01*
X-43360Y282568D01*
X-43322Y282388D01*
X-43289Y282207D01*
X-43260Y282025D01*
X-43236Y281842D01*
X-43216Y281659D01*
X-43200Y281476D01*
X-43189Y281292D01*
X-43182Y281108D01*
X-43180Y280924D01*
X-43180Y39624D01*
X-43182Y39440D01*
X-43189Y39256D01*
X-43200Y39072D01*
X-43216Y38889D01*
X-43236Y38706D01*
X-43260Y38523D01*
X-43289Y38341D01*
X-43322Y38160D01*
X-43360Y37980D01*
X-43401Y37800D01*
X-43448Y37622D01*
X-43498Y37445D01*
X-43553Y37269D01*
X-43612Y37095D01*
X-43675Y36922D01*
X-43743Y36751D01*
X-43814Y36581D01*
X-43890Y36413D01*
X-43969Y36247D01*
X-44053Y36083D01*
X-44140Y35921D01*
X-44232Y35761D01*
X-44327Y35603D01*
X-44426Y35448D01*
X-44529Y35295D01*
X-44635Y35145D01*
X-44745Y34997D01*
X-44859Y34852D01*
X-44976Y34710D01*
X-45096Y34571D01*
X-45220Y34435D01*
X-45347Y34301D01*
X-45477Y34171D01*
X-45611Y34044D01*
X-45747Y33920D01*
X-45886Y33800D01*
X-46028Y33683D01*
X-46173Y33569D01*
X-46321Y33459D01*
X-46471Y33353D01*
X-46624Y33250D01*
X-46779Y33151D01*
X-46937Y33056D01*
X-47097Y32964D01*
X-47259Y32877D01*
X-47423Y32793D01*
X-47589Y32714D01*
X-47757Y32638D01*
X-47927Y32567D01*
X-48098Y32499D01*
X-48271Y32436D01*
X-48445Y32377D01*
X-48621Y32322D01*
X-48798Y32272D01*
X-48976Y32225D01*
X-49156Y32184D01*
X-49336Y32146D01*
X-49517Y32113D01*
X-49699Y32084D01*
X-49882Y32060D01*
X-50065Y32040D01*
X-50248Y32024D01*
X-50432Y32013D01*
X-50616Y32006D01*
X-50800Y32004D01*
X-96520Y32004D01*
X-96704Y32006D01*
X-96888Y32013D01*
X-97072Y32024D01*
X-97255Y32040D01*
X-97438Y32060D01*
X-97621Y32084D01*
X-97803Y32113D01*
X-97984Y32146D01*
X-98164Y32184D01*
X-98344Y32225D01*
X-98522Y32272D01*
X-98699Y32322D01*
X-98875Y32377D01*
X-99049Y32436D01*
X-99222Y32499D01*
X-99393Y32567D01*
X-99563Y32638D01*
X-99731Y32714D01*
X-99897Y32793D01*
X-100061Y32877D01*
X-100223Y32964D01*
X-100383Y33056D01*
X-100541Y33151D01*
X-100696Y33250D01*
X-100849Y33353D01*
X-100999Y33459D01*
X-101147Y33569D01*
X-101292Y33683D01*
X-101434Y33800D01*
X-101573Y33920D01*
X-101709Y34044D01*
X-101843Y34171D01*
X-101973Y34301D01*
X-102100Y34435D01*
X-102224Y34571D01*
X-102344Y34710D01*
X-102461Y34852D01*
X-102575Y34997D01*
X-102685Y35145D01*
X-102791Y35295D01*
X-102894Y35448D01*
X-102993Y35603D01*
X-103088Y35761D01*
X-103180Y35921D01*
X-103267Y36083D01*
X-103351Y36247D01*
X-103430Y36413D01*
X-103506Y36581D01*
X-103577Y36751D01*
X-103645Y36922D01*
X-103708Y37095D01*
X-103767Y37269D01*
X-103822Y37445D01*
X-103872Y37622D01*
X-103919Y37800D01*
X-103960Y37980D01*
X-103998Y38160D01*
X-104031Y38341D01*
X-104060Y38523D01*
X-104084Y38706D01*
X-104104Y38889D01*
X-104120Y39072D01*
X-104131Y39256D01*
X-104138Y39440D01*
X-104140Y39624D01*
X-104140Y280924D01*
X-91446Y274320D02*
X-91444Y274466D01*
X-91438Y274612D01*
X-91428Y274757D01*
X-91414Y274902D01*
X-91396Y275047D01*
X-91374Y275191D01*
X-91349Y275335D01*
X-91319Y275478D01*
X-91285Y275620D01*
X-91248Y275761D01*
X-91207Y275901D01*
X-91162Y276039D01*
X-91113Y276177D01*
X-91060Y276313D01*
X-91004Y276447D01*
X-90944Y276580D01*
X-90880Y276712D01*
X-90813Y276841D01*
X-90743Y276969D01*
X-90669Y277095D01*
X-90591Y277218D01*
X-90510Y277340D01*
X-90426Y277459D01*
X-90339Y277576D01*
X-90248Y277690D01*
X-90155Y277802D01*
X-90058Y277911D01*
X-89959Y278018D01*
X-89856Y278122D01*
X-89751Y278223D01*
X-89643Y278321D01*
X-89532Y278416D01*
X-89419Y278508D01*
X-89303Y278597D01*
X-89185Y278683D01*
X-89065Y278765D01*
X-88943Y278844D01*
X-88818Y278920D01*
X-88691Y278992D01*
X-88563Y279061D01*
X-88432Y279127D01*
X-88300Y279188D01*
X-88166Y279247D01*
X-88031Y279301D01*
X-87894Y279352D01*
X-87756Y279399D01*
X-87617Y279442D01*
X-87476Y279481D01*
X-87335Y279517D01*
X-87192Y279548D01*
X-87049Y279576D01*
X-86905Y279600D01*
X-86761Y279620D01*
X-86616Y279636D01*
X-86470Y279648D01*
X-86325Y279656D01*
X-86179Y279660D01*
X-86033Y279660D01*
X-85887Y279656D01*
X-85742Y279648D01*
X-85596Y279636D01*
X-85451Y279620D01*
X-85307Y279600D01*
X-85163Y279576D01*
X-85020Y279548D01*
X-84877Y279517D01*
X-84736Y279481D01*
X-84595Y279442D01*
X-84456Y279399D01*
X-84318Y279352D01*
X-84181Y279301D01*
X-84046Y279247D01*
X-83912Y279188D01*
X-83780Y279127D01*
X-83649Y279061D01*
X-83521Y278992D01*
X-83394Y278920D01*
X-83269Y278844D01*
X-83147Y278765D01*
X-83027Y278683D01*
X-82909Y278597D01*
X-82793Y278508D01*
X-82680Y278416D01*
X-82569Y278321D01*
X-82461Y278223D01*
X-82356Y278122D01*
X-82253Y278018D01*
X-82154Y277911D01*
X-82057Y277802D01*
X-81964Y277690D01*
X-81873Y277576D01*
X-81786Y277459D01*
X-81702Y277340D01*
X-81621Y277218D01*
X-81543Y277095D01*
X-81469Y276969D01*
X-81399Y276841D01*
X-81332Y276712D01*
X-81268Y276580D01*
X-81208Y276447D01*
X-81152Y276313D01*
X-81099Y276177D01*
X-81050Y276039D01*
X-81005Y275901D01*
X-80964Y275761D01*
X-80927Y275620D01*
X-80893Y275478D01*
X-80863Y275335D01*
X-80838Y275191D01*
X-80816Y275047D01*
X-80798Y274902D01*
X-80784Y274757D01*
X-80774Y274612D01*
X-80768Y274466D01*
X-80766Y274320D01*
X-80768Y274174D01*
X-80774Y274028D01*
X-80784Y273883D01*
X-80798Y273738D01*
X-80816Y273593D01*
X-80838Y273449D01*
X-80863Y273305D01*
X-80893Y273162D01*
X-80927Y273020D01*
X-80964Y272879D01*
X-81005Y272739D01*
X-81050Y272601D01*
X-81099Y272463D01*
X-81152Y272327D01*
X-81208Y272193D01*
X-81268Y272060D01*
X-81332Y271928D01*
X-81399Y271799D01*
X-81469Y271671D01*
X-81543Y271545D01*
X-81621Y271422D01*
X-81702Y271300D01*
X-81786Y271181D01*
X-81873Y271064D01*
X-81964Y270950D01*
X-82057Y270838D01*
X-82154Y270729D01*
X-82253Y270622D01*
X-82356Y270518D01*
X-82461Y270417D01*
X-82569Y270319D01*
X-82680Y270224D01*
X-82793Y270132D01*
X-82909Y270043D01*
X-83027Y269957D01*
X-83147Y269875D01*
X-83269Y269796D01*
X-83394Y269720D01*
X-83521Y269648D01*
X-83649Y269579D01*
X-83780Y269513D01*
X-83912Y269452D01*
X-84046Y269393D01*
X-84181Y269339D01*
X-84318Y269288D01*
X-84456Y269241D01*
X-84595Y269198D01*
X-84736Y269159D01*
X-84877Y269123D01*
X-85020Y269092D01*
X-85163Y269064D01*
X-85307Y269040D01*
X-85451Y269020D01*
X-85596Y269004D01*
X-85742Y268992D01*
X-85887Y268984D01*
X-86033Y268980D01*
X-86179Y268980D01*
X-86325Y268984D01*
X-86470Y268992D01*
X-86616Y269004D01*
X-86761Y269020D01*
X-86905Y269040D01*
X-87049Y269064D01*
X-87192Y269092D01*
X-87335Y269123D01*
X-87476Y269159D01*
X-87617Y269198D01*
X-87756Y269241D01*
X-87894Y269288D01*
X-88031Y269339D01*
X-88166Y269393D01*
X-88300Y269452D01*
X-88432Y269513D01*
X-88563Y269579D01*
X-88691Y269648D01*
X-88818Y269720D01*
X-88943Y269796D01*
X-89065Y269875D01*
X-89185Y269957D01*
X-89303Y270043D01*
X-89419Y270132D01*
X-89532Y270224D01*
X-89643Y270319D01*
X-89751Y270417D01*
X-89856Y270518D01*
X-89959Y270622D01*
X-90058Y270729D01*
X-90155Y270838D01*
X-90248Y270950D01*
X-90339Y271064D01*
X-90426Y271181D01*
X-90510Y271300D01*
X-90591Y271422D01*
X-90669Y271545D01*
X-90743Y271671D01*
X-90813Y271799D01*
X-90880Y271928D01*
X-90944Y272060D01*
X-91004Y272193D01*
X-91060Y272327D01*
X-91113Y272463D01*
X-91162Y272601D01*
X-91207Y272739D01*
X-91248Y272879D01*
X-91285Y273020D01*
X-91319Y273162D01*
X-91349Y273305D01*
X-91374Y273449D01*
X-91396Y273593D01*
X-91414Y273738D01*
X-91428Y273883D01*
X-91438Y274028D01*
X-91444Y274174D01*
X-91446Y274320D01*
X-65942Y274320D02*
X-65940Y274464D01*
X-65934Y274608D01*
X-65924Y274752D01*
X-65910Y274896D01*
X-65892Y275039D01*
X-65871Y275182D01*
X-65845Y275324D01*
X-65815Y275465D01*
X-65782Y275605D01*
X-65744Y275745D01*
X-65703Y275883D01*
X-65658Y276020D01*
X-65610Y276156D01*
X-65557Y276290D01*
X-65501Y276423D01*
X-65441Y276555D01*
X-65378Y276684D01*
X-65311Y276812D01*
X-65241Y276938D01*
X-65167Y277062D01*
X-65089Y277184D01*
X-65009Y277304D01*
X-64925Y277421D01*
X-64838Y277536D01*
X-64748Y277649D01*
X-64655Y277759D01*
X-64558Y277866D01*
X-64459Y277971D01*
X-64357Y278073D01*
X-64252Y278172D01*
X-64145Y278269D01*
X-64035Y278362D01*
X-63922Y278452D01*
X-63807Y278539D01*
X-63690Y278623D01*
X-63570Y278703D01*
X-63448Y278781D01*
X-63324Y278855D01*
X-63198Y278925D01*
X-63070Y278992D01*
X-62941Y279055D01*
X-62809Y279115D01*
X-62676Y279171D01*
X-62542Y279224D01*
X-62406Y279272D01*
X-62269Y279317D01*
X-62131Y279358D01*
X-61991Y279396D01*
X-61851Y279429D01*
X-61710Y279459D01*
X-61568Y279485D01*
X-61425Y279506D01*
X-61282Y279524D01*
X-61138Y279538D01*
X-60994Y279548D01*
X-60850Y279554D01*
X-60706Y279556D01*
X-60562Y279554D01*
X-60418Y279548D01*
X-60274Y279538D01*
X-60130Y279524D01*
X-59987Y279506D01*
X-59844Y279485D01*
X-59702Y279459D01*
X-59561Y279429D01*
X-59421Y279396D01*
X-59281Y279358D01*
X-59143Y279317D01*
X-59006Y279272D01*
X-58870Y279224D01*
X-58736Y279171D01*
X-58603Y279115D01*
X-58471Y279055D01*
X-58342Y278992D01*
X-58214Y278925D01*
X-58088Y278855D01*
X-57964Y278781D01*
X-57842Y278703D01*
X-57722Y278623D01*
X-57605Y278539D01*
X-57490Y278452D01*
X-57377Y278362D01*
X-57267Y278269D01*
X-57160Y278172D01*
X-57055Y278073D01*
X-56953Y277971D01*
X-56854Y277866D01*
X-56757Y277759D01*
X-56664Y277649D01*
X-56574Y277536D01*
X-56487Y277421D01*
X-56403Y277304D01*
X-56323Y277184D01*
X-56245Y277062D01*
X-56171Y276938D01*
X-56101Y276812D01*
X-56034Y276684D01*
X-55971Y276555D01*
X-55911Y276423D01*
X-55855Y276290D01*
X-55802Y276156D01*
X-55754Y276020D01*
X-55709Y275883D01*
X-55668Y275745D01*
X-55630Y275605D01*
X-55597Y275465D01*
X-55567Y275324D01*
X-55541Y275182D01*
X-55520Y275039D01*
X-55502Y274896D01*
X-55488Y274752D01*
X-55478Y274608D01*
X-55472Y274464D01*
X-55470Y274320D01*
X-55472Y274176D01*
X-55478Y274032D01*
X-55488Y273888D01*
X-55502Y273744D01*
X-55520Y273601D01*
X-55541Y273458D01*
X-55567Y273316D01*
X-55597Y273175D01*
X-55630Y273035D01*
X-55668Y272895D01*
X-55709Y272757D01*
X-55754Y272620D01*
X-55802Y272484D01*
X-55855Y272350D01*
X-55911Y272217D01*
X-55971Y272085D01*
X-56034Y271956D01*
X-56101Y271828D01*
X-56171Y271702D01*
X-56245Y271578D01*
X-56323Y271456D01*
X-56403Y271336D01*
X-56487Y271219D01*
X-56574Y271104D01*
X-56664Y270991D01*
X-56757Y270881D01*
X-56854Y270774D01*
X-56953Y270669D01*
X-57055Y270567D01*
X-57160Y270468D01*
X-57267Y270371D01*
X-57377Y270278D01*
X-57490Y270188D01*
X-57605Y270101D01*
X-57722Y270017D01*
X-57842Y269937D01*
X-57964Y269859D01*
X-58088Y269785D01*
X-58214Y269715D01*
X-58342Y269648D01*
X-58471Y269585D01*
X-58603Y269525D01*
X-58736Y269469D01*
X-58870Y269416D01*
X-59006Y269368D01*
X-59143Y269323D01*
X-59281Y269282D01*
X-59421Y269244D01*
X-59561Y269211D01*
X-59702Y269181D01*
X-59844Y269155D01*
X-59987Y269134D01*
X-60130Y269116D01*
X-60274Y269102D01*
X-60418Y269092D01*
X-60562Y269086D01*
X-60706Y269084D01*
X-60850Y269086D01*
X-60994Y269092D01*
X-61138Y269102D01*
X-61282Y269116D01*
X-61425Y269134D01*
X-61568Y269155D01*
X-61710Y269181D01*
X-61851Y269211D01*
X-61991Y269244D01*
X-62131Y269282D01*
X-62269Y269323D01*
X-62406Y269368D01*
X-62542Y269416D01*
X-62676Y269469D01*
X-62809Y269525D01*
X-62941Y269585D01*
X-63070Y269648D01*
X-63198Y269715D01*
X-63324Y269785D01*
X-63448Y269859D01*
X-63570Y269937D01*
X-63690Y270017D01*
X-63807Y270101D01*
X-63922Y270188D01*
X-64035Y270278D01*
X-64145Y270371D01*
X-64252Y270468D01*
X-64357Y270567D01*
X-64459Y270669D01*
X-64558Y270774D01*
X-64655Y270881D01*
X-64748Y270991D01*
X-64838Y271104D01*
X-64925Y271219D01*
X-65009Y271336D01*
X-65089Y271456D01*
X-65167Y271578D01*
X-65241Y271702D01*
X-65311Y271828D01*
X-65378Y271956D01*
X-65441Y272085D01*
X-65501Y272217D01*
X-65557Y272350D01*
X-65610Y272484D01*
X-65658Y272620D01*
X-65703Y272757D01*
X-65744Y272895D01*
X-65782Y273035D01*
X-65815Y273175D01*
X-65845Y273316D01*
X-65871Y273458D01*
X-65892Y273601D01*
X-65910Y273744D01*
X-65924Y273888D01*
X-65934Y274032D01*
X-65940Y274176D01*
X-65942Y274320D01*
X-91446Y248920D02*
X-91444Y249066D01*
X-91438Y249212D01*
X-91428Y249357D01*
X-91414Y249502D01*
X-91396Y249647D01*
X-91374Y249791D01*
X-91349Y249935D01*
X-91319Y250078D01*
X-91285Y250220D01*
X-91248Y250361D01*
X-91207Y250501D01*
X-91162Y250639D01*
X-91113Y250777D01*
X-91060Y250913D01*
X-91004Y251047D01*
X-90944Y251180D01*
X-90880Y251312D01*
X-90813Y251441D01*
X-90743Y251569D01*
X-90669Y251695D01*
X-90591Y251818D01*
X-90510Y251940D01*
X-90426Y252059D01*
X-90339Y252176D01*
X-90248Y252290D01*
X-90155Y252402D01*
X-90058Y252511D01*
X-89959Y252618D01*
X-89856Y252722D01*
X-89751Y252823D01*
X-89643Y252921D01*
X-89532Y253016D01*
X-89419Y253108D01*
X-89303Y253197D01*
X-89185Y253283D01*
X-89065Y253365D01*
X-88943Y253444D01*
X-88818Y253520D01*
X-88691Y253592D01*
X-88563Y253661D01*
X-88432Y253727D01*
X-88300Y253788D01*
X-88166Y253847D01*
X-88031Y253901D01*
X-87894Y253952D01*
X-87756Y253999D01*
X-87617Y254042D01*
X-87476Y254081D01*
X-87335Y254117D01*
X-87192Y254148D01*
X-87049Y254176D01*
X-86905Y254200D01*
X-86761Y254220D01*
X-86616Y254236D01*
X-86470Y254248D01*
X-86325Y254256D01*
X-86179Y254260D01*
X-86033Y254260D01*
X-85887Y254256D01*
X-85742Y254248D01*
X-85596Y254236D01*
X-85451Y254220D01*
X-85307Y254200D01*
X-85163Y254176D01*
X-85020Y254148D01*
X-84877Y254117D01*
X-84736Y254081D01*
X-84595Y254042D01*
X-84456Y253999D01*
X-84318Y253952D01*
X-84181Y253901D01*
X-84046Y253847D01*
X-83912Y253788D01*
X-83780Y253727D01*
X-83649Y253661D01*
X-83521Y253592D01*
X-83394Y253520D01*
X-83269Y253444D01*
X-83147Y253365D01*
X-83027Y253283D01*
X-82909Y253197D01*
X-82793Y253108D01*
X-82680Y253016D01*
X-82569Y252921D01*
X-82461Y252823D01*
X-82356Y252722D01*
X-82253Y252618D01*
X-82154Y252511D01*
X-82057Y252402D01*
X-81964Y252290D01*
X-81873Y252176D01*
X-81786Y252059D01*
X-81702Y251940D01*
X-81621Y251818D01*
X-81543Y251695D01*
X-81469Y251569D01*
X-81399Y251441D01*
X-81332Y251312D01*
X-81268Y251180D01*
X-81208Y251047D01*
X-81152Y250913D01*
X-81099Y250777D01*
X-81050Y250639D01*
X-81005Y250501D01*
X-80964Y250361D01*
X-80927Y250220D01*
X-80893Y250078D01*
X-80863Y249935D01*
X-80838Y249791D01*
X-80816Y249647D01*
X-80798Y249502D01*
X-80784Y249357D01*
X-80774Y249212D01*
X-80768Y249066D01*
X-80766Y248920D01*
X-80768Y248774D01*
X-80774Y248628D01*
X-80784Y248483D01*
X-80798Y248338D01*
X-80816Y248193D01*
X-80838Y248049D01*
X-80863Y247905D01*
X-80893Y247762D01*
X-80927Y247620D01*
X-80964Y247479D01*
X-81005Y247339D01*
X-81050Y247201D01*
X-81099Y247063D01*
X-81152Y246927D01*
X-81208Y246793D01*
X-81268Y246660D01*
X-81332Y246528D01*
X-81399Y246399D01*
X-81469Y246271D01*
X-81543Y246145D01*
X-81621Y246022D01*
X-81702Y245900D01*
X-81786Y245781D01*
X-81873Y245664D01*
X-81964Y245550D01*
X-82057Y245438D01*
X-82154Y245329D01*
X-82253Y245222D01*
X-82356Y245118D01*
X-82461Y245017D01*
X-82569Y244919D01*
X-82680Y244824D01*
X-82793Y244732D01*
X-82909Y244643D01*
X-83027Y244557D01*
X-83147Y244475D01*
X-83269Y244396D01*
X-83394Y244320D01*
X-83521Y244248D01*
X-83649Y244179D01*
X-83780Y244113D01*
X-83912Y244052D01*
X-84046Y243993D01*
X-84181Y243939D01*
X-84318Y243888D01*
X-84456Y243841D01*
X-84595Y243798D01*
X-84736Y243759D01*
X-84877Y243723D01*
X-85020Y243692D01*
X-85163Y243664D01*
X-85307Y243640D01*
X-85451Y243620D01*
X-85596Y243604D01*
X-85742Y243592D01*
X-85887Y243584D01*
X-86033Y243580D01*
X-86179Y243580D01*
X-86325Y243584D01*
X-86470Y243592D01*
X-86616Y243604D01*
X-86761Y243620D01*
X-86905Y243640D01*
X-87049Y243664D01*
X-87192Y243692D01*
X-87335Y243723D01*
X-87476Y243759D01*
X-87617Y243798D01*
X-87756Y243841D01*
X-87894Y243888D01*
X-88031Y243939D01*
X-88166Y243993D01*
X-88300Y244052D01*
X-88432Y244113D01*
X-88563Y244179D01*
X-88691Y244248D01*
X-88818Y244320D01*
X-88943Y244396D01*
X-89065Y244475D01*
X-89185Y244557D01*
X-89303Y244643D01*
X-89419Y244732D01*
X-89532Y244824D01*
X-89643Y244919D01*
X-89751Y245017D01*
X-89856Y245118D01*
X-89959Y245222D01*
X-90058Y245329D01*
X-90155Y245438D01*
X-90248Y245550D01*
X-90339Y245664D01*
X-90426Y245781D01*
X-90510Y245900D01*
X-90591Y246022D01*
X-90669Y246145D01*
X-90743Y246271D01*
X-90813Y246399D01*
X-90880Y246528D01*
X-90944Y246660D01*
X-91004Y246793D01*
X-91060Y246927D01*
X-91113Y247063D01*
X-91162Y247201D01*
X-91207Y247339D01*
X-91248Y247479D01*
X-91285Y247620D01*
X-91319Y247762D01*
X-91349Y247905D01*
X-91374Y248049D01*
X-91396Y248193D01*
X-91414Y248338D01*
X-91428Y248483D01*
X-91438Y248628D01*
X-91444Y248774D01*
X-91446Y248920D01*
X-65942Y248920D02*
X-65940Y249064D01*
X-65934Y249208D01*
X-65924Y249352D01*
X-65910Y249496D01*
X-65892Y249639D01*
X-65871Y249782D01*
X-65845Y249924D01*
X-65815Y250065D01*
X-65782Y250205D01*
X-65744Y250345D01*
X-65703Y250483D01*
X-65658Y250620D01*
X-65610Y250756D01*
X-65557Y250890D01*
X-65501Y251023D01*
X-65441Y251155D01*
X-65378Y251284D01*
X-65311Y251412D01*
X-65241Y251538D01*
X-65167Y251662D01*
X-65089Y251784D01*
X-65009Y251904D01*
X-64925Y252021D01*
X-64838Y252136D01*
X-64748Y252249D01*
X-64655Y252359D01*
X-64558Y252466D01*
X-64459Y252571D01*
X-64357Y252673D01*
X-64252Y252772D01*
X-64145Y252869D01*
X-64035Y252962D01*
X-63922Y253052D01*
X-63807Y253139D01*
X-63690Y253223D01*
X-63570Y253303D01*
X-63448Y253381D01*
X-63324Y253455D01*
X-63198Y253525D01*
X-63070Y253592D01*
X-62941Y253655D01*
X-62809Y253715D01*
X-62676Y253771D01*
X-62542Y253824D01*
X-62406Y253872D01*
X-62269Y253917D01*
X-62131Y253958D01*
X-61991Y253996D01*
X-61851Y254029D01*
X-61710Y254059D01*
X-61568Y254085D01*
X-61425Y254106D01*
X-61282Y254124D01*
X-61138Y254138D01*
X-60994Y254148D01*
X-60850Y254154D01*
X-60706Y254156D01*
X-60562Y254154D01*
X-60418Y254148D01*
X-60274Y254138D01*
X-60130Y254124D01*
X-59987Y254106D01*
X-59844Y254085D01*
X-59702Y254059D01*
X-59561Y254029D01*
X-59421Y253996D01*
X-59281Y253958D01*
X-59143Y253917D01*
X-59006Y253872D01*
X-58870Y253824D01*
X-58736Y253771D01*
X-58603Y253715D01*
X-58471Y253655D01*
X-58342Y253592D01*
X-58214Y253525D01*
X-58088Y253455D01*
X-57964Y253381D01*
X-57842Y253303D01*
X-57722Y253223D01*
X-57605Y253139D01*
X-57490Y253052D01*
X-57377Y252962D01*
X-57267Y252869D01*
X-57160Y252772D01*
X-57055Y252673D01*
X-56953Y252571D01*
X-56854Y252466D01*
X-56757Y252359D01*
X-56664Y252249D01*
X-56574Y252136D01*
X-56487Y252021D01*
X-56403Y251904D01*
X-56323Y251784D01*
X-56245Y251662D01*
X-56171Y251538D01*
X-56101Y251412D01*
X-56034Y251284D01*
X-55971Y251155D01*
X-55911Y251023D01*
X-55855Y250890D01*
X-55802Y250756D01*
X-55754Y250620D01*
X-55709Y250483D01*
X-55668Y250345D01*
X-55630Y250205D01*
X-55597Y250065D01*
X-55567Y249924D01*
X-55541Y249782D01*
X-55520Y249639D01*
X-55502Y249496D01*
X-55488Y249352D01*
X-55478Y249208D01*
X-55472Y249064D01*
X-55470Y248920D01*
X-55472Y248776D01*
X-55478Y248632D01*
X-55488Y248488D01*
X-55502Y248344D01*
X-55520Y248201D01*
X-55541Y248058D01*
X-55567Y247916D01*
X-55597Y247775D01*
X-55630Y247635D01*
X-55668Y247495D01*
X-55709Y247357D01*
X-55754Y247220D01*
X-55802Y247084D01*
X-55855Y246950D01*
X-55911Y246817D01*
X-55971Y246685D01*
X-56034Y246556D01*
X-56101Y246428D01*
X-56171Y246302D01*
X-56245Y246178D01*
X-56323Y246056D01*
X-56403Y245936D01*
X-56487Y245819D01*
X-56574Y245704D01*
X-56664Y245591D01*
X-56757Y245481D01*
X-56854Y245374D01*
X-56953Y245269D01*
X-57055Y245167D01*
X-57160Y245068D01*
X-57267Y244971D01*
X-57377Y244878D01*
X-57490Y244788D01*
X-57605Y244701D01*
X-57722Y244617D01*
X-57842Y244537D01*
X-57964Y244459D01*
X-58088Y244385D01*
X-58214Y244315D01*
X-58342Y244248D01*
X-58471Y244185D01*
X-58603Y244125D01*
X-58736Y244069D01*
X-58870Y244016D01*
X-59006Y243968D01*
X-59143Y243923D01*
X-59281Y243882D01*
X-59421Y243844D01*
X-59561Y243811D01*
X-59702Y243781D01*
X-59844Y243755D01*
X-59987Y243734D01*
X-60130Y243716D01*
X-60274Y243702D01*
X-60418Y243692D01*
X-60562Y243686D01*
X-60706Y243684D01*
X-60850Y243686D01*
X-60994Y243692D01*
X-61138Y243702D01*
X-61282Y243716D01*
X-61425Y243734D01*
X-61568Y243755D01*
X-61710Y243781D01*
X-61851Y243811D01*
X-61991Y243844D01*
X-62131Y243882D01*
X-62269Y243923D01*
X-62406Y243968D01*
X-62542Y244016D01*
X-62676Y244069D01*
X-62809Y244125D01*
X-62941Y244185D01*
X-63070Y244248D01*
X-63198Y244315D01*
X-63324Y244385D01*
X-63448Y244459D01*
X-63570Y244537D01*
X-63690Y244617D01*
X-63807Y244701D01*
X-63922Y244788D01*
X-64035Y244878D01*
X-64145Y244971D01*
X-64252Y245068D01*
X-64357Y245167D01*
X-64459Y245269D01*
X-64558Y245374D01*
X-64655Y245481D01*
X-64748Y245591D01*
X-64838Y245704D01*
X-64925Y245819D01*
X-65009Y245936D01*
X-65089Y246056D01*
X-65167Y246178D01*
X-65241Y246302D01*
X-65311Y246428D01*
X-65378Y246556D01*
X-65441Y246685D01*
X-65501Y246817D01*
X-65557Y246950D01*
X-65610Y247084D01*
X-65658Y247220D01*
X-65703Y247357D01*
X-65744Y247495D01*
X-65782Y247635D01*
X-65815Y247775D01*
X-65845Y247916D01*
X-65871Y248058D01*
X-65892Y248201D01*
X-65910Y248344D01*
X-65924Y248488D01*
X-65934Y248632D01*
X-65940Y248776D01*
X-65942Y248920D01*
X-91446Y223520D02*
X-91444Y223666D01*
X-91438Y223812D01*
X-91428Y223957D01*
X-91414Y224102D01*
X-91396Y224247D01*
X-91374Y224391D01*
X-91349Y224535D01*
X-91319Y224678D01*
X-91285Y224820D01*
X-91248Y224961D01*
X-91207Y225101D01*
X-91162Y225239D01*
X-91113Y225377D01*
X-91060Y225513D01*
X-91004Y225647D01*
X-90944Y225780D01*
X-90880Y225912D01*
X-90813Y226041D01*
X-90743Y226169D01*
X-90669Y226295D01*
X-90591Y226418D01*
X-90510Y226540D01*
X-90426Y226659D01*
X-90339Y226776D01*
X-90248Y226890D01*
X-90155Y227002D01*
X-90058Y227111D01*
X-89959Y227218D01*
X-89856Y227322D01*
X-89751Y227423D01*
X-89643Y227521D01*
X-89532Y227616D01*
X-89419Y227708D01*
X-89303Y227797D01*
X-89185Y227883D01*
X-89065Y227965D01*
X-88943Y228044D01*
X-88818Y228120D01*
X-88691Y228192D01*
X-88563Y228261D01*
X-88432Y228327D01*
X-88300Y228388D01*
X-88166Y228447D01*
X-88031Y228501D01*
X-87894Y228552D01*
X-87756Y228599D01*
X-87617Y228642D01*
X-87476Y228681D01*
X-87335Y228717D01*
X-87192Y228748D01*
X-87049Y228776D01*
X-86905Y228800D01*
X-86761Y228820D01*
X-86616Y228836D01*
X-86470Y228848D01*
X-86325Y228856D01*
X-86179Y228860D01*
X-86033Y228860D01*
X-85887Y228856D01*
X-85742Y228848D01*
X-85596Y228836D01*
X-85451Y228820D01*
X-85307Y228800D01*
X-85163Y228776D01*
X-85020Y228748D01*
X-84877Y228717D01*
X-84736Y228681D01*
X-84595Y228642D01*
X-84456Y228599D01*
X-84318Y228552D01*
X-84181Y228501D01*
X-84046Y228447D01*
X-83912Y228388D01*
X-83780Y228327D01*
X-83649Y228261D01*
X-83521Y228192D01*
X-83394Y228120D01*
X-83269Y228044D01*
X-83147Y227965D01*
X-83027Y227883D01*
X-82909Y227797D01*
X-82793Y227708D01*
X-82680Y227616D01*
X-82569Y227521D01*
X-82461Y227423D01*
X-82356Y227322D01*
X-82253Y227218D01*
X-82154Y227111D01*
X-82057Y227002D01*
X-81964Y226890D01*
X-81873Y226776D01*
X-81786Y226659D01*
X-81702Y226540D01*
X-81621Y226418D01*
X-81543Y226295D01*
X-81469Y226169D01*
X-81399Y226041D01*
X-81332Y225912D01*
X-81268Y225780D01*
X-81208Y225647D01*
X-81152Y225513D01*
X-81099Y225377D01*
X-81050Y225239D01*
X-81005Y225101D01*
X-80964Y224961D01*
X-80927Y224820D01*
X-80893Y224678D01*
X-80863Y224535D01*
X-80838Y224391D01*
X-80816Y224247D01*
X-80798Y224102D01*
X-80784Y223957D01*
X-80774Y223812D01*
X-80768Y223666D01*
X-80766Y223520D01*
X-80768Y223374D01*
X-80774Y223228D01*
X-80784Y223083D01*
X-80798Y222938D01*
X-80816Y222793D01*
X-80838Y222649D01*
X-80863Y222505D01*
X-80893Y222362D01*
X-80927Y222220D01*
X-80964Y222079D01*
X-81005Y221939D01*
X-81050Y221801D01*
X-81099Y221663D01*
X-81152Y221527D01*
X-81208Y221393D01*
X-81268Y221260D01*
X-81332Y221128D01*
X-81399Y220999D01*
X-81469Y220871D01*
X-81543Y220745D01*
X-81621Y220622D01*
X-81702Y220500D01*
X-81786Y220381D01*
X-81873Y220264D01*
X-81964Y220150D01*
X-82057Y220038D01*
X-82154Y219929D01*
X-82253Y219822D01*
X-82356Y219718D01*
X-82461Y219617D01*
X-82569Y219519D01*
X-82680Y219424D01*
X-82793Y219332D01*
X-82909Y219243D01*
X-83027Y219157D01*
X-83147Y219075D01*
X-83269Y218996D01*
X-83394Y218920D01*
X-83521Y218848D01*
X-83649Y218779D01*
X-83780Y218713D01*
X-83912Y218652D01*
X-84046Y218593D01*
X-84181Y218539D01*
X-84318Y218488D01*
X-84456Y218441D01*
X-84595Y218398D01*
X-84736Y218359D01*
X-84877Y218323D01*
X-85020Y218292D01*
X-85163Y218264D01*
X-85307Y218240D01*
X-85451Y218220D01*
X-85596Y218204D01*
X-85742Y218192D01*
X-85887Y218184D01*
X-86033Y218180D01*
X-86179Y218180D01*
X-86325Y218184D01*
X-86470Y218192D01*
X-86616Y218204D01*
X-86761Y218220D01*
X-86905Y218240D01*
X-87049Y218264D01*
X-87192Y218292D01*
X-87335Y218323D01*
X-87476Y218359D01*
X-87617Y218398D01*
X-87756Y218441D01*
X-87894Y218488D01*
X-88031Y218539D01*
X-88166Y218593D01*
X-88300Y218652D01*
X-88432Y218713D01*
X-88563Y218779D01*
X-88691Y218848D01*
X-88818Y218920D01*
X-88943Y218996D01*
X-89065Y219075D01*
X-89185Y219157D01*
X-89303Y219243D01*
X-89419Y219332D01*
X-89532Y219424D01*
X-89643Y219519D01*
X-89751Y219617D01*
X-89856Y219718D01*
X-89959Y219822D01*
X-90058Y219929D01*
X-90155Y220038D01*
X-90248Y220150D01*
X-90339Y220264D01*
X-90426Y220381D01*
X-90510Y220500D01*
X-90591Y220622D01*
X-90669Y220745D01*
X-90743Y220871D01*
X-90813Y220999D01*
X-90880Y221128D01*
X-90944Y221260D01*
X-91004Y221393D01*
X-91060Y221527D01*
X-91113Y221663D01*
X-91162Y221801D01*
X-91207Y221939D01*
X-91248Y222079D01*
X-91285Y222220D01*
X-91319Y222362D01*
X-91349Y222505D01*
X-91374Y222649D01*
X-91396Y222793D01*
X-91414Y222938D01*
X-91428Y223083D01*
X-91438Y223228D01*
X-91444Y223374D01*
X-91446Y223520D01*
X-65942Y223520D02*
X-65940Y223664D01*
X-65934Y223808D01*
X-65924Y223952D01*
X-65910Y224096D01*
X-65892Y224239D01*
X-65871Y224382D01*
X-65845Y224524D01*
X-65815Y224665D01*
X-65782Y224805D01*
X-65744Y224945D01*
X-65703Y225083D01*
X-65658Y225220D01*
X-65610Y225356D01*
X-65557Y225490D01*
X-65501Y225623D01*
X-65441Y225755D01*
X-65378Y225884D01*
X-65311Y226012D01*
X-65241Y226138D01*
X-65167Y226262D01*
X-65089Y226384D01*
X-65009Y226504D01*
X-64925Y226621D01*
X-64838Y226736D01*
X-64748Y226849D01*
X-64655Y226959D01*
X-64558Y227066D01*
X-64459Y227171D01*
X-64357Y227273D01*
X-64252Y227372D01*
X-64145Y227469D01*
X-64035Y227562D01*
X-63922Y227652D01*
X-63807Y227739D01*
X-63690Y227823D01*
X-63570Y227903D01*
X-63448Y227981D01*
X-63324Y228055D01*
X-63198Y228125D01*
X-63070Y228192D01*
X-62941Y228255D01*
X-62809Y228315D01*
X-62676Y228371D01*
X-62542Y228424D01*
X-62406Y228472D01*
X-62269Y228517D01*
X-62131Y228558D01*
X-61991Y228596D01*
X-61851Y228629D01*
X-61710Y228659D01*
X-61568Y228685D01*
X-61425Y228706D01*
X-61282Y228724D01*
X-61138Y228738D01*
X-60994Y228748D01*
X-60850Y228754D01*
X-60706Y228756D01*
X-60562Y228754D01*
X-60418Y228748D01*
X-60274Y228738D01*
X-60130Y228724D01*
X-59987Y228706D01*
X-59844Y228685D01*
X-59702Y228659D01*
X-59561Y228629D01*
X-59421Y228596D01*
X-59281Y228558D01*
X-59143Y228517D01*
X-59006Y228472D01*
X-58870Y228424D01*
X-58736Y228371D01*
X-58603Y228315D01*
X-58471Y228255D01*
X-58342Y228192D01*
X-58214Y228125D01*
X-58088Y228055D01*
X-57964Y227981D01*
X-57842Y227903D01*
X-57722Y227823D01*
X-57605Y227739D01*
X-57490Y227652D01*
X-57377Y227562D01*
X-57267Y227469D01*
X-57160Y227372D01*
X-57055Y227273D01*
X-56953Y227171D01*
X-56854Y227066D01*
X-56757Y226959D01*
X-56664Y226849D01*
X-56574Y226736D01*
X-56487Y226621D01*
X-56403Y226504D01*
X-56323Y226384D01*
X-56245Y226262D01*
X-56171Y226138D01*
X-56101Y226012D01*
X-56034Y225884D01*
X-55971Y225755D01*
X-55911Y225623D01*
X-55855Y225490D01*
X-55802Y225356D01*
X-55754Y225220D01*
X-55709Y225083D01*
X-55668Y224945D01*
X-55630Y224805D01*
X-55597Y224665D01*
X-55567Y224524D01*
X-55541Y224382D01*
X-55520Y224239D01*
X-55502Y224096D01*
X-55488Y223952D01*
X-55478Y223808D01*
X-55472Y223664D01*
X-55470Y223520D01*
X-55472Y223376D01*
X-55478Y223232D01*
X-55488Y223088D01*
X-55502Y222944D01*
X-55520Y222801D01*
X-55541Y222658D01*
X-55567Y222516D01*
X-55597Y222375D01*
X-55630Y222235D01*
X-55668Y222095D01*
X-55709Y221957D01*
X-55754Y221820D01*
X-55802Y221684D01*
X-55855Y221550D01*
X-55911Y221417D01*
X-55971Y221285D01*
X-56034Y221156D01*
X-56101Y221028D01*
X-56171Y220902D01*
X-56245Y220778D01*
X-56323Y220656D01*
X-56403Y220536D01*
X-56487Y220419D01*
X-56574Y220304D01*
X-56664Y220191D01*
X-56757Y220081D01*
X-56854Y219974D01*
X-56953Y219869D01*
X-57055Y219767D01*
X-57160Y219668D01*
X-57267Y219571D01*
X-57377Y219478D01*
X-57490Y219388D01*
X-57605Y219301D01*
X-57722Y219217D01*
X-57842Y219137D01*
X-57964Y219059D01*
X-58088Y218985D01*
X-58214Y218915D01*
X-58342Y218848D01*
X-58471Y218785D01*
X-58603Y218725D01*
X-58736Y218669D01*
X-58870Y218616D01*
X-59006Y218568D01*
X-59143Y218523D01*
X-59281Y218482D01*
X-59421Y218444D01*
X-59561Y218411D01*
X-59702Y218381D01*
X-59844Y218355D01*
X-59987Y218334D01*
X-60130Y218316D01*
X-60274Y218302D01*
X-60418Y218292D01*
X-60562Y218286D01*
X-60706Y218284D01*
X-60850Y218286D01*
X-60994Y218292D01*
X-61138Y218302D01*
X-61282Y218316D01*
X-61425Y218334D01*
X-61568Y218355D01*
X-61710Y218381D01*
X-61851Y218411D01*
X-61991Y218444D01*
X-62131Y218482D01*
X-62269Y218523D01*
X-62406Y218568D01*
X-62542Y218616D01*
X-62676Y218669D01*
X-62809Y218725D01*
X-62941Y218785D01*
X-63070Y218848D01*
X-63198Y218915D01*
X-63324Y218985D01*
X-63448Y219059D01*
X-63570Y219137D01*
X-63690Y219217D01*
X-63807Y219301D01*
X-63922Y219388D01*
X-64035Y219478D01*
X-64145Y219571D01*
X-64252Y219668D01*
X-64357Y219767D01*
X-64459Y219869D01*
X-64558Y219974D01*
X-64655Y220081D01*
X-64748Y220191D01*
X-64838Y220304D01*
X-64925Y220419D01*
X-65009Y220536D01*
X-65089Y220656D01*
X-65167Y220778D01*
X-65241Y220902D01*
X-65311Y221028D01*
X-65378Y221156D01*
X-65441Y221285D01*
X-65501Y221417D01*
X-65557Y221550D01*
X-65610Y221684D01*
X-65658Y221820D01*
X-65703Y221957D01*
X-65744Y222095D01*
X-65782Y222235D01*
X-65815Y222375D01*
X-65845Y222516D01*
X-65871Y222658D01*
X-65892Y222801D01*
X-65910Y222944D01*
X-65924Y223088D01*
X-65934Y223232D01*
X-65940Y223376D01*
X-65942Y223520D01*
X-91446Y198120D02*
X-91444Y198266D01*
X-91438Y198412D01*
X-91428Y198557D01*
X-91414Y198702D01*
X-91396Y198847D01*
X-91374Y198991D01*
X-91349Y199135D01*
X-91319Y199278D01*
X-91285Y199420D01*
X-91248Y199561D01*
X-91207Y199701D01*
X-91162Y199839D01*
X-91113Y199977D01*
X-91060Y200113D01*
X-91004Y200247D01*
X-90944Y200380D01*
X-90880Y200512D01*
X-90813Y200641D01*
X-90743Y200769D01*
X-90669Y200895D01*
X-90591Y201018D01*
X-90510Y201140D01*
X-90426Y201259D01*
X-90339Y201376D01*
X-90248Y201490D01*
X-90155Y201602D01*
X-90058Y201711D01*
X-89959Y201818D01*
X-89856Y201922D01*
X-89751Y202023D01*
X-89643Y202121D01*
X-89532Y202216D01*
X-89419Y202308D01*
X-89303Y202397D01*
X-89185Y202483D01*
X-89065Y202565D01*
X-88943Y202644D01*
X-88818Y202720D01*
X-88691Y202792D01*
X-88563Y202861D01*
X-88432Y202927D01*
X-88300Y202988D01*
X-88166Y203047D01*
X-88031Y203101D01*
X-87894Y203152D01*
X-87756Y203199D01*
X-87617Y203242D01*
X-87476Y203281D01*
X-87335Y203317D01*
X-87192Y203348D01*
X-87049Y203376D01*
X-86905Y203400D01*
X-86761Y203420D01*
X-86616Y203436D01*
X-86470Y203448D01*
X-86325Y203456D01*
X-86179Y203460D01*
X-86033Y203460D01*
X-85887Y203456D01*
X-85742Y203448D01*
X-85596Y203436D01*
X-85451Y203420D01*
X-85307Y203400D01*
X-85163Y203376D01*
X-85020Y203348D01*
X-84877Y203317D01*
X-84736Y203281D01*
X-84595Y203242D01*
X-84456Y203199D01*
X-84318Y203152D01*
X-84181Y203101D01*
X-84046Y203047D01*
X-83912Y202988D01*
X-83780Y202927D01*
X-83649Y202861D01*
X-83521Y202792D01*
X-83394Y202720D01*
X-83269Y202644D01*
X-83147Y202565D01*
X-83027Y202483D01*
X-82909Y202397D01*
X-82793Y202308D01*
X-82680Y202216D01*
X-82569Y202121D01*
X-82461Y202023D01*
X-82356Y201922D01*
X-82253Y201818D01*
X-82154Y201711D01*
X-82057Y201602D01*
X-81964Y201490D01*
X-81873Y201376D01*
X-81786Y201259D01*
X-81702Y201140D01*
X-81621Y201018D01*
X-81543Y200895D01*
X-81469Y200769D01*
X-81399Y200641D01*
X-81332Y200512D01*
X-81268Y200380D01*
X-81208Y200247D01*
X-81152Y200113D01*
X-81099Y199977D01*
X-81050Y199839D01*
X-81005Y199701D01*
X-80964Y199561D01*
X-80927Y199420D01*
X-80893Y199278D01*
X-80863Y199135D01*
X-80838Y198991D01*
X-80816Y198847D01*
X-80798Y198702D01*
X-80784Y198557D01*
X-80774Y198412D01*
X-80768Y198266D01*
X-80766Y198120D01*
X-80768Y197974D01*
X-80774Y197828D01*
X-80784Y197683D01*
X-80798Y197538D01*
X-80816Y197393D01*
X-80838Y197249D01*
X-80863Y197105D01*
X-80893Y196962D01*
X-80927Y196820D01*
X-80964Y196679D01*
X-81005Y196539D01*
X-81050Y196401D01*
X-81099Y196263D01*
X-81152Y196127D01*
X-81208Y195993D01*
X-81268Y195860D01*
X-81332Y195728D01*
X-81399Y195599D01*
X-81469Y195471D01*
X-81543Y195345D01*
X-81621Y195222D01*
X-81702Y195100D01*
X-81786Y194981D01*
X-81873Y194864D01*
X-81964Y194750D01*
X-82057Y194638D01*
X-82154Y194529D01*
X-82253Y194422D01*
X-82356Y194318D01*
X-82461Y194217D01*
X-82569Y194119D01*
X-82680Y194024D01*
X-82793Y193932D01*
X-82909Y193843D01*
X-83027Y193757D01*
X-83147Y193675D01*
X-83269Y193596D01*
X-83394Y193520D01*
X-83521Y193448D01*
X-83649Y193379D01*
X-83780Y193313D01*
X-83912Y193252D01*
X-84046Y193193D01*
X-84181Y193139D01*
X-84318Y193088D01*
X-84456Y193041D01*
X-84595Y192998D01*
X-84736Y192959D01*
X-84877Y192923D01*
X-85020Y192892D01*
X-85163Y192864D01*
X-85307Y192840D01*
X-85451Y192820D01*
X-85596Y192804D01*
X-85742Y192792D01*
X-85887Y192784D01*
X-86033Y192780D01*
X-86179Y192780D01*
X-86325Y192784D01*
X-86470Y192792D01*
X-86616Y192804D01*
X-86761Y192820D01*
X-86905Y192840D01*
X-87049Y192864D01*
X-87192Y192892D01*
X-87335Y192923D01*
X-87476Y192959D01*
X-87617Y192998D01*
X-87756Y193041D01*
X-87894Y193088D01*
X-88031Y193139D01*
X-88166Y193193D01*
X-88300Y193252D01*
X-88432Y193313D01*
X-88563Y193379D01*
X-88691Y193448D01*
X-88818Y193520D01*
X-88943Y193596D01*
X-89065Y193675D01*
X-89185Y193757D01*
X-89303Y193843D01*
X-89419Y193932D01*
X-89532Y194024D01*
X-89643Y194119D01*
X-89751Y194217D01*
X-89856Y194318D01*
X-89959Y194422D01*
X-90058Y194529D01*
X-90155Y194638D01*
X-90248Y194750D01*
X-90339Y194864D01*
X-90426Y194981D01*
X-90510Y195100D01*
X-90591Y195222D01*
X-90669Y195345D01*
X-90743Y195471D01*
X-90813Y195599D01*
X-90880Y195728D01*
X-90944Y195860D01*
X-91004Y195993D01*
X-91060Y196127D01*
X-91113Y196263D01*
X-91162Y196401D01*
X-91207Y196539D01*
X-91248Y196679D01*
X-91285Y196820D01*
X-91319Y196962D01*
X-91349Y197105D01*
X-91374Y197249D01*
X-91396Y197393D01*
X-91414Y197538D01*
X-91428Y197683D01*
X-91438Y197828D01*
X-91444Y197974D01*
X-91446Y198120D01*
X-65942Y198120D02*
X-65940Y198264D01*
X-65934Y198408D01*
X-65924Y198552D01*
X-65910Y198696D01*
X-65892Y198839D01*
X-65871Y198982D01*
X-65845Y199124D01*
X-65815Y199265D01*
X-65782Y199405D01*
X-65744Y199545D01*
X-65703Y199683D01*
X-65658Y199820D01*
X-65610Y199956D01*
X-65557Y200090D01*
X-65501Y200223D01*
X-65441Y200355D01*
X-65378Y200484D01*
X-65311Y200612D01*
X-65241Y200738D01*
X-65167Y200862D01*
X-65089Y200984D01*
X-65009Y201104D01*
X-64925Y201221D01*
X-64838Y201336D01*
X-64748Y201449D01*
X-64655Y201559D01*
X-64558Y201666D01*
X-64459Y201771D01*
X-64357Y201873D01*
X-64252Y201972D01*
X-64145Y202069D01*
X-64035Y202162D01*
X-63922Y202252D01*
X-63807Y202339D01*
X-63690Y202423D01*
X-63570Y202503D01*
X-63448Y202581D01*
X-63324Y202655D01*
X-63198Y202725D01*
X-63070Y202792D01*
X-62941Y202855D01*
X-62809Y202915D01*
X-62676Y202971D01*
X-62542Y203024D01*
X-62406Y203072D01*
X-62269Y203117D01*
X-62131Y203158D01*
X-61991Y203196D01*
X-61851Y203229D01*
X-61710Y203259D01*
X-61568Y203285D01*
X-61425Y203306D01*
X-61282Y203324D01*
X-61138Y203338D01*
X-60994Y203348D01*
X-60850Y203354D01*
X-60706Y203356D01*
X-60562Y203354D01*
X-60418Y203348D01*
X-60274Y203338D01*
X-60130Y203324D01*
X-59987Y203306D01*
X-59844Y203285D01*
X-59702Y203259D01*
X-59561Y203229D01*
X-59421Y203196D01*
X-59281Y203158D01*
X-59143Y203117D01*
X-59006Y203072D01*
X-58870Y203024D01*
X-58736Y202971D01*
X-58603Y202915D01*
X-58471Y202855D01*
X-58342Y202792D01*
X-58214Y202725D01*
X-58088Y202655D01*
X-57964Y202581D01*
X-57842Y202503D01*
X-57722Y202423D01*
X-57605Y202339D01*
X-57490Y202252D01*
X-57377Y202162D01*
X-57267Y202069D01*
X-57160Y201972D01*
X-57055Y201873D01*
X-56953Y201771D01*
X-56854Y201666D01*
X-56757Y201559D01*
X-56664Y201449D01*
X-56574Y201336D01*
X-56487Y201221D01*
X-56403Y201104D01*
X-56323Y200984D01*
X-56245Y200862D01*
X-56171Y200738D01*
X-56101Y200612D01*
X-56034Y200484D01*
X-55971Y200355D01*
X-55911Y200223D01*
X-55855Y200090D01*
X-55802Y199956D01*
X-55754Y199820D01*
X-55709Y199683D01*
X-55668Y199545D01*
X-55630Y199405D01*
X-55597Y199265D01*
X-55567Y199124D01*
X-55541Y198982D01*
X-55520Y198839D01*
X-55502Y198696D01*
X-55488Y198552D01*
X-55478Y198408D01*
X-55472Y198264D01*
X-55470Y198120D01*
X-55472Y197976D01*
X-55478Y197832D01*
X-55488Y197688D01*
X-55502Y197544D01*
X-55520Y197401D01*
X-55541Y197258D01*
X-55567Y197116D01*
X-55597Y196975D01*
X-55630Y196835D01*
X-55668Y196695D01*
X-55709Y196557D01*
X-55754Y196420D01*
X-55802Y196284D01*
X-55855Y196150D01*
X-55911Y196017D01*
X-55971Y195885D01*
X-56034Y195756D01*
X-56101Y195628D01*
X-56171Y195502D01*
X-56245Y195378D01*
X-56323Y195256D01*
X-56403Y195136D01*
X-56487Y195019D01*
X-56574Y194904D01*
X-56664Y194791D01*
X-56757Y194681D01*
X-56854Y194574D01*
X-56953Y194469D01*
X-57055Y194367D01*
X-57160Y194268D01*
X-57267Y194171D01*
X-57377Y194078D01*
X-57490Y193988D01*
X-57605Y193901D01*
X-57722Y193817D01*
X-57842Y193737D01*
X-57964Y193659D01*
X-58088Y193585D01*
X-58214Y193515D01*
X-58342Y193448D01*
X-58471Y193385D01*
X-58603Y193325D01*
X-58736Y193269D01*
X-58870Y193216D01*
X-59006Y193168D01*
X-59143Y193123D01*
X-59281Y193082D01*
X-59421Y193044D01*
X-59561Y193011D01*
X-59702Y192981D01*
X-59844Y192955D01*
X-59987Y192934D01*
X-60130Y192916D01*
X-60274Y192902D01*
X-60418Y192892D01*
X-60562Y192886D01*
X-60706Y192884D01*
X-60850Y192886D01*
X-60994Y192892D01*
X-61138Y192902D01*
X-61282Y192916D01*
X-61425Y192934D01*
X-61568Y192955D01*
X-61710Y192981D01*
X-61851Y193011D01*
X-61991Y193044D01*
X-62131Y193082D01*
X-62269Y193123D01*
X-62406Y193168D01*
X-62542Y193216D01*
X-62676Y193269D01*
X-62809Y193325D01*
X-62941Y193385D01*
X-63070Y193448D01*
X-63198Y193515D01*
X-63324Y193585D01*
X-63448Y193659D01*
X-63570Y193737D01*
X-63690Y193817D01*
X-63807Y193901D01*
X-63922Y193988D01*
X-64035Y194078D01*
X-64145Y194171D01*
X-64252Y194268D01*
X-64357Y194367D01*
X-64459Y194469D01*
X-64558Y194574D01*
X-64655Y194681D01*
X-64748Y194791D01*
X-64838Y194904D01*
X-64925Y195019D01*
X-65009Y195136D01*
X-65089Y195256D01*
X-65167Y195378D01*
X-65241Y195502D01*
X-65311Y195628D01*
X-65378Y195756D01*
X-65441Y195885D01*
X-65501Y196017D01*
X-65557Y196150D01*
X-65610Y196284D01*
X-65658Y196420D01*
X-65703Y196557D01*
X-65744Y196695D01*
X-65782Y196835D01*
X-65815Y196975D01*
X-65845Y197116D01*
X-65871Y197258D01*
X-65892Y197401D01*
X-65910Y197544D01*
X-65924Y197688D01*
X-65934Y197832D01*
X-65940Y197976D01*
X-65942Y198120D01*
X-91446Y198120D02*
X-91444Y198266D01*
X-91438Y198412D01*
X-91428Y198557D01*
X-91414Y198702D01*
X-91396Y198847D01*
X-91374Y198991D01*
X-91349Y199135D01*
X-91319Y199278D01*
X-91285Y199420D01*
X-91248Y199561D01*
X-91207Y199701D01*
X-91162Y199839D01*
X-91113Y199977D01*
X-91060Y200113D01*
X-91004Y200247D01*
X-90944Y200380D01*
X-90880Y200512D01*
X-90813Y200641D01*
X-90743Y200769D01*
X-90669Y200895D01*
X-90591Y201018D01*
X-90510Y201140D01*
X-90426Y201259D01*
X-90339Y201376D01*
X-90248Y201490D01*
X-90155Y201602D01*
X-90058Y201711D01*
X-89959Y201818D01*
X-89856Y201922D01*
X-89751Y202023D01*
X-89643Y202121D01*
X-89532Y202216D01*
X-89419Y202308D01*
X-89303Y202397D01*
X-89185Y202483D01*
X-89065Y202565D01*
X-88943Y202644D01*
X-88818Y202720D01*
X-88691Y202792D01*
X-88563Y202861D01*
X-88432Y202927D01*
X-88300Y202988D01*
X-88166Y203047D01*
X-88031Y203101D01*
X-87894Y203152D01*
X-87756Y203199D01*
X-87617Y203242D01*
X-87476Y203281D01*
X-87335Y203317D01*
X-87192Y203348D01*
X-87049Y203376D01*
X-86905Y203400D01*
X-86761Y203420D01*
X-86616Y203436D01*
X-86470Y203448D01*
X-86325Y203456D01*
X-86179Y203460D01*
X-86033Y203460D01*
X-85887Y203456D01*
X-85742Y203448D01*
X-85596Y203436D01*
X-85451Y203420D01*
X-85307Y203400D01*
X-85163Y203376D01*
X-85020Y203348D01*
X-84877Y203317D01*
X-84736Y203281D01*
X-84595Y203242D01*
X-84456Y203199D01*
X-84318Y203152D01*
X-84181Y203101D01*
X-84046Y203047D01*
X-83912Y202988D01*
X-83780Y202927D01*
X-83649Y202861D01*
X-83521Y202792D01*
X-83394Y202720D01*
X-83269Y202644D01*
X-83147Y202565D01*
X-83027Y202483D01*
X-82909Y202397D01*
X-82793Y202308D01*
X-82680Y202216D01*
X-82569Y202121D01*
X-82461Y202023D01*
X-82356Y201922D01*
X-82253Y201818D01*
X-82154Y201711D01*
X-82057Y201602D01*
X-81964Y201490D01*
X-81873Y201376D01*
X-81786Y201259D01*
X-81702Y201140D01*
X-81621Y201018D01*
X-81543Y200895D01*
X-81469Y200769D01*
X-81399Y200641D01*
X-81332Y200512D01*
X-81268Y200380D01*
X-81208Y200247D01*
X-81152Y200113D01*
X-81099Y199977D01*
X-81050Y199839D01*
X-81005Y199701D01*
X-80964Y199561D01*
X-80927Y199420D01*
X-80893Y199278D01*
X-80863Y199135D01*
X-80838Y198991D01*
X-80816Y198847D01*
X-80798Y198702D01*
X-80784Y198557D01*
X-80774Y198412D01*
X-80768Y198266D01*
X-80766Y198120D01*
X-80768Y197974D01*
X-80774Y197828D01*
X-80784Y197683D01*
X-80798Y197538D01*
X-80816Y197393D01*
X-80838Y197249D01*
X-80863Y197105D01*
X-80893Y196962D01*
X-80927Y196820D01*
X-80964Y196679D01*
X-81005Y196539D01*
X-81050Y196401D01*
X-81099Y196263D01*
X-81152Y196127D01*
X-81208Y195993D01*
X-81268Y195860D01*
X-81332Y195728D01*
X-81399Y195599D01*
X-81469Y195471D01*
X-81543Y195345D01*
X-81621Y195222D01*
X-81702Y195100D01*
X-81786Y194981D01*
X-81873Y194864D01*
X-81964Y194750D01*
X-82057Y194638D01*
X-82154Y194529D01*
X-82253Y194422D01*
X-82356Y194318D01*
X-82461Y194217D01*
X-82569Y194119D01*
X-82680Y194024D01*
X-82793Y193932D01*
X-82909Y193843D01*
X-83027Y193757D01*
X-83147Y193675D01*
X-83269Y193596D01*
X-83394Y193520D01*
X-83521Y193448D01*
X-83649Y193379D01*
X-83780Y193313D01*
X-83912Y193252D01*
X-84046Y193193D01*
X-84181Y193139D01*
X-84318Y193088D01*
X-84456Y193041D01*
X-84595Y192998D01*
X-84736Y192959D01*
X-84877Y192923D01*
X-85020Y192892D01*
X-85163Y192864D01*
X-85307Y192840D01*
X-85451Y192820D01*
X-85596Y192804D01*
X-85742Y192792D01*
X-85887Y192784D01*
X-86033Y192780D01*
X-86179Y192780D01*
X-86325Y192784D01*
X-86470Y192792D01*
X-86616Y192804D01*
X-86761Y192820D01*
X-86905Y192840D01*
X-87049Y192864D01*
X-87192Y192892D01*
X-87335Y192923D01*
X-87476Y192959D01*
X-87617Y192998D01*
X-87756Y193041D01*
X-87894Y193088D01*
X-88031Y193139D01*
X-88166Y193193D01*
X-88300Y193252D01*
X-88432Y193313D01*
X-88563Y193379D01*
X-88691Y193448D01*
X-88818Y193520D01*
X-88943Y193596D01*
X-89065Y193675D01*
X-89185Y193757D01*
X-89303Y193843D01*
X-89419Y193932D01*
X-89532Y194024D01*
X-89643Y194119D01*
X-89751Y194217D01*
X-89856Y194318D01*
X-89959Y194422D01*
X-90058Y194529D01*
X-90155Y194638D01*
X-90248Y194750D01*
X-90339Y194864D01*
X-90426Y194981D01*
X-90510Y195100D01*
X-90591Y195222D01*
X-90669Y195345D01*
X-90743Y195471D01*
X-90813Y195599D01*
X-90880Y195728D01*
X-90944Y195860D01*
X-91004Y195993D01*
X-91060Y196127D01*
X-91113Y196263D01*
X-91162Y196401D01*
X-91207Y196539D01*
X-91248Y196679D01*
X-91285Y196820D01*
X-91319Y196962D01*
X-91349Y197105D01*
X-91374Y197249D01*
X-91396Y197393D01*
X-91414Y197538D01*
X-91428Y197683D01*
X-91438Y197828D01*
X-91444Y197974D01*
X-91446Y198120D01*
X-65942Y198120D02*
X-65940Y198264D01*
X-65934Y198408D01*
X-65924Y198552D01*
X-65910Y198696D01*
X-65892Y198839D01*
X-65871Y198982D01*
X-65845Y199124D01*
X-65815Y199265D01*
X-65782Y199405D01*
X-65744Y199545D01*
X-65703Y199683D01*
X-65658Y199820D01*
X-65610Y199956D01*
X-65557Y200090D01*
X-65501Y200223D01*
X-65441Y200355D01*
X-65378Y200484D01*
X-65311Y200612D01*
X-65241Y200738D01*
X-65167Y200862D01*
X-65089Y200984D01*
X-65009Y201104D01*
X-64925Y201221D01*
X-64838Y201336D01*
X-64748Y201449D01*
X-64655Y201559D01*
X-64558Y201666D01*
X-64459Y201771D01*
X-64357Y201873D01*
X-64252Y201972D01*
X-64145Y202069D01*
X-64035Y202162D01*
X-63922Y202252D01*
X-63807Y202339D01*
X-63690Y202423D01*
X-63570Y202503D01*
X-63448Y202581D01*
X-63324Y202655D01*
X-63198Y202725D01*
X-63070Y202792D01*
X-62941Y202855D01*
X-62809Y202915D01*
X-62676Y202971D01*
X-62542Y203024D01*
X-62406Y203072D01*
X-62269Y203117D01*
X-62131Y203158D01*
X-61991Y203196D01*
X-61851Y203229D01*
X-61710Y203259D01*
X-61568Y203285D01*
X-61425Y203306D01*
X-61282Y203324D01*
X-61138Y203338D01*
X-60994Y203348D01*
X-60850Y203354D01*
X-60706Y203356D01*
X-60562Y203354D01*
X-60418Y203348D01*
X-60274Y203338D01*
X-60130Y203324D01*
X-59987Y203306D01*
X-59844Y203285D01*
X-59702Y203259D01*
X-59561Y203229D01*
X-59421Y203196D01*
X-59281Y203158D01*
X-59143Y203117D01*
X-59006Y203072D01*
X-58870Y203024D01*
X-58736Y202971D01*
X-58603Y202915D01*
X-58471Y202855D01*
X-58342Y202792D01*
X-58214Y202725D01*
X-58088Y202655D01*
X-57964Y202581D01*
X-57842Y202503D01*
X-57722Y202423D01*
X-57605Y202339D01*
X-57490Y202252D01*
X-57377Y202162D01*
X-57267Y202069D01*
X-57160Y201972D01*
X-57055Y201873D01*
X-56953Y201771D01*
X-56854Y201666D01*
X-56757Y201559D01*
X-56664Y201449D01*
X-56574Y201336D01*
X-56487Y201221D01*
X-56403Y201104D01*
X-56323Y200984D01*
X-56245Y200862D01*
X-56171Y200738D01*
X-56101Y200612D01*
X-56034Y200484D01*
X-55971Y200355D01*
X-55911Y200223D01*
X-55855Y200090D01*
X-55802Y199956D01*
X-55754Y199820D01*
X-55709Y199683D01*
X-55668Y199545D01*
X-55630Y199405D01*
X-55597Y199265D01*
X-55567Y199124D01*
X-55541Y198982D01*
X-55520Y198839D01*
X-55502Y198696D01*
X-55488Y198552D01*
X-55478Y198408D01*
X-55472Y198264D01*
X-55470Y198120D01*
X-55472Y197976D01*
X-55478Y197832D01*
X-55488Y197688D01*
X-55502Y197544D01*
X-55520Y197401D01*
X-55541Y197258D01*
X-55567Y197116D01*
X-55597Y196975D01*
X-55630Y196835D01*
X-55668Y196695D01*
X-55709Y196557D01*
X-55754Y196420D01*
X-55802Y196284D01*
X-55855Y196150D01*
X-55911Y196017D01*
X-55971Y195885D01*
X-56034Y195756D01*
X-56101Y195628D01*
X-56171Y195502D01*
X-56245Y195378D01*
X-56323Y195256D01*
X-56403Y195136D01*
X-56487Y195019D01*
X-56574Y194904D01*
X-56664Y194791D01*
X-56757Y194681D01*
X-56854Y194574D01*
X-56953Y194469D01*
X-57055Y194367D01*
X-57160Y194268D01*
X-57267Y194171D01*
X-57377Y194078D01*
X-57490Y193988D01*
X-57605Y193901D01*
X-57722Y193817D01*
X-57842Y193737D01*
X-57964Y193659D01*
X-58088Y193585D01*
X-58214Y193515D01*
X-58342Y193448D01*
X-58471Y193385D01*
X-58603Y193325D01*
X-58736Y193269D01*
X-58870Y193216D01*
X-59006Y193168D01*
X-59143Y193123D01*
X-59281Y193082D01*
X-59421Y193044D01*
X-59561Y193011D01*
X-59702Y192981D01*
X-59844Y192955D01*
X-59987Y192934D01*
X-60130Y192916D01*
X-60274Y192902D01*
X-60418Y192892D01*
X-60562Y192886D01*
X-60706Y192884D01*
X-60850Y192886D01*
X-60994Y192892D01*
X-61138Y192902D01*
X-61282Y192916D01*
X-61425Y192934D01*
X-61568Y192955D01*
X-61710Y192981D01*
X-61851Y193011D01*
X-61991Y193044D01*
X-62131Y193082D01*
X-62269Y193123D01*
X-62406Y193168D01*
X-62542Y193216D01*
X-62676Y193269D01*
X-62809Y193325D01*
X-62941Y193385D01*
X-63070Y193448D01*
X-63198Y193515D01*
X-63324Y193585D01*
X-63448Y193659D01*
X-63570Y193737D01*
X-63690Y193817D01*
X-63807Y193901D01*
X-63922Y193988D01*
X-64035Y194078D01*
X-64145Y194171D01*
X-64252Y194268D01*
X-64357Y194367D01*
X-64459Y194469D01*
X-64558Y194574D01*
X-64655Y194681D01*
X-64748Y194791D01*
X-64838Y194904D01*
X-64925Y195019D01*
X-65009Y195136D01*
X-65089Y195256D01*
X-65167Y195378D01*
X-65241Y195502D01*
X-65311Y195628D01*
X-65378Y195756D01*
X-65441Y195885D01*
X-65501Y196017D01*
X-65557Y196150D01*
X-65610Y196284D01*
X-65658Y196420D01*
X-65703Y196557D01*
X-65744Y196695D01*
X-65782Y196835D01*
X-65815Y196975D01*
X-65845Y197116D01*
X-65871Y197258D01*
X-65892Y197401D01*
X-65910Y197544D01*
X-65924Y197688D01*
X-65934Y197832D01*
X-65940Y197976D01*
X-65942Y198120D01*
X-91446Y172720D02*
X-91444Y172866D01*
X-91438Y173012D01*
X-91428Y173157D01*
X-91414Y173302D01*
X-91396Y173447D01*
X-91374Y173591D01*
X-91349Y173735D01*
X-91319Y173878D01*
X-91285Y174020D01*
X-91248Y174161D01*
X-91207Y174301D01*
X-91162Y174439D01*
X-91113Y174577D01*
X-91060Y174713D01*
X-91004Y174847D01*
X-90944Y174980D01*
X-90880Y175112D01*
X-90813Y175241D01*
X-90743Y175369D01*
X-90669Y175495D01*
X-90591Y175618D01*
X-90510Y175740D01*
X-90426Y175859D01*
X-90339Y175976D01*
X-90248Y176090D01*
X-90155Y176202D01*
X-90058Y176311D01*
X-89959Y176418D01*
X-89856Y176522D01*
X-89751Y176623D01*
X-89643Y176721D01*
X-89532Y176816D01*
X-89419Y176908D01*
X-89303Y176997D01*
X-89185Y177083D01*
X-89065Y177165D01*
X-88943Y177244D01*
X-88818Y177320D01*
X-88691Y177392D01*
X-88563Y177461D01*
X-88432Y177527D01*
X-88300Y177588D01*
X-88166Y177647D01*
X-88031Y177701D01*
X-87894Y177752D01*
X-87756Y177799D01*
X-87617Y177842D01*
X-87476Y177881D01*
X-87335Y177917D01*
X-87192Y177948D01*
X-87049Y177976D01*
X-86905Y178000D01*
X-86761Y178020D01*
X-86616Y178036D01*
X-86470Y178048D01*
X-86325Y178056D01*
X-86179Y178060D01*
X-86033Y178060D01*
X-85887Y178056D01*
X-85742Y178048D01*
X-85596Y178036D01*
X-85451Y178020D01*
X-85307Y178000D01*
X-85163Y177976D01*
X-85020Y177948D01*
X-84877Y177917D01*
X-84736Y177881D01*
X-84595Y177842D01*
X-84456Y177799D01*
X-84318Y177752D01*
X-84181Y177701D01*
X-84046Y177647D01*
X-83912Y177588D01*
X-83780Y177527D01*
X-83649Y177461D01*
X-83521Y177392D01*
X-83394Y177320D01*
X-83269Y177244D01*
X-83147Y177165D01*
X-83027Y177083D01*
X-82909Y176997D01*
X-82793Y176908D01*
X-82680Y176816D01*
X-82569Y176721D01*
X-82461Y176623D01*
X-82356Y176522D01*
X-82253Y176418D01*
X-82154Y176311D01*
X-82057Y176202D01*
X-81964Y176090D01*
X-81873Y175976D01*
X-81786Y175859D01*
X-81702Y175740D01*
X-81621Y175618D01*
X-81543Y175495D01*
X-81469Y175369D01*
X-81399Y175241D01*
X-81332Y175112D01*
X-81268Y174980D01*
X-81208Y174847D01*
X-81152Y174713D01*
X-81099Y174577D01*
X-81050Y174439D01*
X-81005Y174301D01*
X-80964Y174161D01*
X-80927Y174020D01*
X-80893Y173878D01*
X-80863Y173735D01*
X-80838Y173591D01*
X-80816Y173447D01*
X-80798Y173302D01*
X-80784Y173157D01*
X-80774Y173012D01*
X-80768Y172866D01*
X-80766Y172720D01*
X-80768Y172574D01*
X-80774Y172428D01*
X-80784Y172283D01*
X-80798Y172138D01*
X-80816Y171993D01*
X-80838Y171849D01*
X-80863Y171705D01*
X-80893Y171562D01*
X-80927Y171420D01*
X-80964Y171279D01*
X-81005Y171139D01*
X-81050Y171001D01*
X-81099Y170863D01*
X-81152Y170727D01*
X-81208Y170593D01*
X-81268Y170460D01*
X-81332Y170328D01*
X-81399Y170199D01*
X-81469Y170071D01*
X-81543Y169945D01*
X-81621Y169822D01*
X-81702Y169700D01*
X-81786Y169581D01*
X-81873Y169464D01*
X-81964Y169350D01*
X-82057Y169238D01*
X-82154Y169129D01*
X-82253Y169022D01*
X-82356Y168918D01*
X-82461Y168817D01*
X-82569Y168719D01*
X-82680Y168624D01*
X-82793Y168532D01*
X-82909Y168443D01*
X-83027Y168357D01*
X-83147Y168275D01*
X-83269Y168196D01*
X-83394Y168120D01*
X-83521Y168048D01*
X-83649Y167979D01*
X-83780Y167913D01*
X-83912Y167852D01*
X-84046Y167793D01*
X-84181Y167739D01*
X-84318Y167688D01*
X-84456Y167641D01*
X-84595Y167598D01*
X-84736Y167559D01*
X-84877Y167523D01*
X-85020Y167492D01*
X-85163Y167464D01*
X-85307Y167440D01*
X-85451Y167420D01*
X-85596Y167404D01*
X-85742Y167392D01*
X-85887Y167384D01*
X-86033Y167380D01*
X-86179Y167380D01*
X-86325Y167384D01*
X-86470Y167392D01*
X-86616Y167404D01*
X-86761Y167420D01*
X-86905Y167440D01*
X-87049Y167464D01*
X-87192Y167492D01*
X-87335Y167523D01*
X-87476Y167559D01*
X-87617Y167598D01*
X-87756Y167641D01*
X-87894Y167688D01*
X-88031Y167739D01*
X-88166Y167793D01*
X-88300Y167852D01*
X-88432Y167913D01*
X-88563Y167979D01*
X-88691Y168048D01*
X-88818Y168120D01*
X-88943Y168196D01*
X-89065Y168275D01*
X-89185Y168357D01*
X-89303Y168443D01*
X-89419Y168532D01*
X-89532Y168624D01*
X-89643Y168719D01*
X-89751Y168817D01*
X-89856Y168918D01*
X-89959Y169022D01*
X-90058Y169129D01*
X-90155Y169238D01*
X-90248Y169350D01*
X-90339Y169464D01*
X-90426Y169581D01*
X-90510Y169700D01*
X-90591Y169822D01*
X-90669Y169945D01*
X-90743Y170071D01*
X-90813Y170199D01*
X-90880Y170328D01*
X-90944Y170460D01*
X-91004Y170593D01*
X-91060Y170727D01*
X-91113Y170863D01*
X-91162Y171001D01*
X-91207Y171139D01*
X-91248Y171279D01*
X-91285Y171420D01*
X-91319Y171562D01*
X-91349Y171705D01*
X-91374Y171849D01*
X-91396Y171993D01*
X-91414Y172138D01*
X-91428Y172283D01*
X-91438Y172428D01*
X-91444Y172574D01*
X-91446Y172720D01*
X-65942Y172720D02*
X-65940Y172864D01*
X-65934Y173008D01*
X-65924Y173152D01*
X-65910Y173296D01*
X-65892Y173439D01*
X-65871Y173582D01*
X-65845Y173724D01*
X-65815Y173865D01*
X-65782Y174005D01*
X-65744Y174145D01*
X-65703Y174283D01*
X-65658Y174420D01*
X-65610Y174556D01*
X-65557Y174690D01*
X-65501Y174823D01*
X-65441Y174955D01*
X-65378Y175084D01*
X-65311Y175212D01*
X-65241Y175338D01*
X-65167Y175462D01*
X-65089Y175584D01*
X-65009Y175704D01*
X-64925Y175821D01*
X-64838Y175936D01*
X-64748Y176049D01*
X-64655Y176159D01*
X-64558Y176266D01*
X-64459Y176371D01*
X-64357Y176473D01*
X-64252Y176572D01*
X-64145Y176669D01*
X-64035Y176762D01*
X-63922Y176852D01*
X-63807Y176939D01*
X-63690Y177023D01*
X-63570Y177103D01*
X-63448Y177181D01*
X-63324Y177255D01*
X-63198Y177325D01*
X-63070Y177392D01*
X-62941Y177455D01*
X-62809Y177515D01*
X-62676Y177571D01*
X-62542Y177624D01*
X-62406Y177672D01*
X-62269Y177717D01*
X-62131Y177758D01*
X-61991Y177796D01*
X-61851Y177829D01*
X-61710Y177859D01*
X-61568Y177885D01*
X-61425Y177906D01*
X-61282Y177924D01*
X-61138Y177938D01*
X-60994Y177948D01*
X-60850Y177954D01*
X-60706Y177956D01*
X-60562Y177954D01*
X-60418Y177948D01*
X-60274Y177938D01*
X-60130Y177924D01*
X-59987Y177906D01*
X-59844Y177885D01*
X-59702Y177859D01*
X-59561Y177829D01*
X-59421Y177796D01*
X-59281Y177758D01*
X-59143Y177717D01*
X-59006Y177672D01*
X-58870Y177624D01*
X-58736Y177571D01*
X-58603Y177515D01*
X-58471Y177455D01*
X-58342Y177392D01*
X-58214Y177325D01*
X-58088Y177255D01*
X-57964Y177181D01*
X-57842Y177103D01*
X-57722Y177023D01*
X-57605Y176939D01*
X-57490Y176852D01*
X-57377Y176762D01*
X-57267Y176669D01*
X-57160Y176572D01*
X-57055Y176473D01*
X-56953Y176371D01*
X-56854Y176266D01*
X-56757Y176159D01*
X-56664Y176049D01*
X-56574Y175936D01*
X-56487Y175821D01*
X-56403Y175704D01*
X-56323Y175584D01*
X-56245Y175462D01*
X-56171Y175338D01*
X-56101Y175212D01*
X-56034Y175084D01*
X-55971Y174955D01*
X-55911Y174823D01*
X-55855Y174690D01*
X-55802Y174556D01*
X-55754Y174420D01*
X-55709Y174283D01*
X-55668Y174145D01*
X-55630Y174005D01*
X-55597Y173865D01*
X-55567Y173724D01*
X-55541Y173582D01*
X-55520Y173439D01*
X-55502Y173296D01*
X-55488Y173152D01*
X-55478Y173008D01*
X-55472Y172864D01*
X-55470Y172720D01*
X-55472Y172576D01*
X-55478Y172432D01*
X-55488Y172288D01*
X-55502Y172144D01*
X-55520Y172001D01*
X-55541Y171858D01*
X-55567Y171716D01*
X-55597Y171575D01*
X-55630Y171435D01*
X-55668Y171295D01*
X-55709Y171157D01*
X-55754Y171020D01*
X-55802Y170884D01*
X-55855Y170750D01*
X-55911Y170617D01*
X-55971Y170485D01*
X-56034Y170356D01*
X-56101Y170228D01*
X-56171Y170102D01*
X-56245Y169978D01*
X-56323Y169856D01*
X-56403Y169736D01*
X-56487Y169619D01*
X-56574Y169504D01*
X-56664Y169391D01*
X-56757Y169281D01*
X-56854Y169174D01*
X-56953Y169069D01*
X-57055Y168967D01*
X-57160Y168868D01*
X-57267Y168771D01*
X-57377Y168678D01*
X-57490Y168588D01*
X-57605Y168501D01*
X-57722Y168417D01*
X-57842Y168337D01*
X-57964Y168259D01*
X-58088Y168185D01*
X-58214Y168115D01*
X-58342Y168048D01*
X-58471Y167985D01*
X-58603Y167925D01*
X-58736Y167869D01*
X-58870Y167816D01*
X-59006Y167768D01*
X-59143Y167723D01*
X-59281Y167682D01*
X-59421Y167644D01*
X-59561Y167611D01*
X-59702Y167581D01*
X-59844Y167555D01*
X-59987Y167534D01*
X-60130Y167516D01*
X-60274Y167502D01*
X-60418Y167492D01*
X-60562Y167486D01*
X-60706Y167484D01*
X-60850Y167486D01*
X-60994Y167492D01*
X-61138Y167502D01*
X-61282Y167516D01*
X-61425Y167534D01*
X-61568Y167555D01*
X-61710Y167581D01*
X-61851Y167611D01*
X-61991Y167644D01*
X-62131Y167682D01*
X-62269Y167723D01*
X-62406Y167768D01*
X-62542Y167816D01*
X-62676Y167869D01*
X-62809Y167925D01*
X-62941Y167985D01*
X-63070Y168048D01*
X-63198Y168115D01*
X-63324Y168185D01*
X-63448Y168259D01*
X-63570Y168337D01*
X-63690Y168417D01*
X-63807Y168501D01*
X-63922Y168588D01*
X-64035Y168678D01*
X-64145Y168771D01*
X-64252Y168868D01*
X-64357Y168967D01*
X-64459Y169069D01*
X-64558Y169174D01*
X-64655Y169281D01*
X-64748Y169391D01*
X-64838Y169504D01*
X-64925Y169619D01*
X-65009Y169736D01*
X-65089Y169856D01*
X-65167Y169978D01*
X-65241Y170102D01*
X-65311Y170228D01*
X-65378Y170356D01*
X-65441Y170485D01*
X-65501Y170617D01*
X-65557Y170750D01*
X-65610Y170884D01*
X-65658Y171020D01*
X-65703Y171157D01*
X-65744Y171295D01*
X-65782Y171435D01*
X-65815Y171575D01*
X-65845Y171716D01*
X-65871Y171858D01*
X-65892Y172001D01*
X-65910Y172144D01*
X-65924Y172288D01*
X-65934Y172432D01*
X-65940Y172576D01*
X-65942Y172720D01*
X-91446Y147320D02*
X-91444Y147466D01*
X-91438Y147612D01*
X-91428Y147757D01*
X-91414Y147902D01*
X-91396Y148047D01*
X-91374Y148191D01*
X-91349Y148335D01*
X-91319Y148478D01*
X-91285Y148620D01*
X-91248Y148761D01*
X-91207Y148901D01*
X-91162Y149039D01*
X-91113Y149177D01*
X-91060Y149313D01*
X-91004Y149447D01*
X-90944Y149580D01*
X-90880Y149712D01*
X-90813Y149841D01*
X-90743Y149969D01*
X-90669Y150095D01*
X-90591Y150218D01*
X-90510Y150340D01*
X-90426Y150459D01*
X-90339Y150576D01*
X-90248Y150690D01*
X-90155Y150802D01*
X-90058Y150911D01*
X-89959Y151018D01*
X-89856Y151122D01*
X-89751Y151223D01*
X-89643Y151321D01*
X-89532Y151416D01*
X-89419Y151508D01*
X-89303Y151597D01*
X-89185Y151683D01*
X-89065Y151765D01*
X-88943Y151844D01*
X-88818Y151920D01*
X-88691Y151992D01*
X-88563Y152061D01*
X-88432Y152127D01*
X-88300Y152188D01*
X-88166Y152247D01*
X-88031Y152301D01*
X-87894Y152352D01*
X-87756Y152399D01*
X-87617Y152442D01*
X-87476Y152481D01*
X-87335Y152517D01*
X-87192Y152548D01*
X-87049Y152576D01*
X-86905Y152600D01*
X-86761Y152620D01*
X-86616Y152636D01*
X-86470Y152648D01*
X-86325Y152656D01*
X-86179Y152660D01*
X-86033Y152660D01*
X-85887Y152656D01*
X-85742Y152648D01*
X-85596Y152636D01*
X-85451Y152620D01*
X-85307Y152600D01*
X-85163Y152576D01*
X-85020Y152548D01*
X-84877Y152517D01*
X-84736Y152481D01*
X-84595Y152442D01*
X-84456Y152399D01*
X-84318Y152352D01*
X-84181Y152301D01*
X-84046Y152247D01*
X-83912Y152188D01*
X-83780Y152127D01*
X-83649Y152061D01*
X-83521Y151992D01*
X-83394Y151920D01*
X-83269Y151844D01*
X-83147Y151765D01*
X-83027Y151683D01*
X-82909Y151597D01*
X-82793Y151508D01*
X-82680Y151416D01*
X-82569Y151321D01*
X-82461Y151223D01*
X-82356Y151122D01*
X-82253Y151018D01*
X-82154Y150911D01*
X-82057Y150802D01*
X-81964Y150690D01*
X-81873Y150576D01*
X-81786Y150459D01*
X-81702Y150340D01*
X-81621Y150218D01*
X-81543Y150095D01*
X-81469Y149969D01*
X-81399Y149841D01*
X-81332Y149712D01*
X-81268Y149580D01*
X-81208Y149447D01*
X-81152Y149313D01*
X-81099Y149177D01*
X-81050Y149039D01*
X-81005Y148901D01*
X-80964Y148761D01*
X-80927Y148620D01*
X-80893Y148478D01*
X-80863Y148335D01*
X-80838Y148191D01*
X-80816Y148047D01*
X-80798Y147902D01*
X-80784Y147757D01*
X-80774Y147612D01*
X-80768Y147466D01*
X-80766Y147320D01*
X-80768Y147174D01*
X-80774Y147028D01*
X-80784Y146883D01*
X-80798Y146738D01*
X-80816Y146593D01*
X-80838Y146449D01*
X-80863Y146305D01*
X-80893Y146162D01*
X-80927Y146020D01*
X-80964Y145879D01*
X-81005Y145739D01*
X-81050Y145601D01*
X-81099Y145463D01*
X-81152Y145327D01*
X-81208Y145193D01*
X-81268Y145060D01*
X-81332Y144928D01*
X-81399Y144799D01*
X-81469Y144671D01*
X-81543Y144545D01*
X-81621Y144422D01*
X-81702Y144300D01*
X-81786Y144181D01*
X-81873Y144064D01*
X-81964Y143950D01*
X-82057Y143838D01*
X-82154Y143729D01*
X-82253Y143622D01*
X-82356Y143518D01*
X-82461Y143417D01*
X-82569Y143319D01*
X-82680Y143224D01*
X-82793Y143132D01*
X-82909Y143043D01*
X-83027Y142957D01*
X-83147Y142875D01*
X-83269Y142796D01*
X-83394Y142720D01*
X-83521Y142648D01*
X-83649Y142579D01*
X-83780Y142513D01*
X-83912Y142452D01*
X-84046Y142393D01*
X-84181Y142339D01*
X-84318Y142288D01*
X-84456Y142241D01*
X-84595Y142198D01*
X-84736Y142159D01*
X-84877Y142123D01*
X-85020Y142092D01*
X-85163Y142064D01*
X-85307Y142040D01*
X-85451Y142020D01*
X-85596Y142004D01*
X-85742Y141992D01*
X-85887Y141984D01*
X-86033Y141980D01*
X-86179Y141980D01*
X-86325Y141984D01*
X-86470Y141992D01*
X-86616Y142004D01*
X-86761Y142020D01*
X-86905Y142040D01*
X-87049Y142064D01*
X-87192Y142092D01*
X-87335Y142123D01*
X-87476Y142159D01*
X-87617Y142198D01*
X-87756Y142241D01*
X-87894Y142288D01*
X-88031Y142339D01*
X-88166Y142393D01*
X-88300Y142452D01*
X-88432Y142513D01*
X-88563Y142579D01*
X-88691Y142648D01*
X-88818Y142720D01*
X-88943Y142796D01*
X-89065Y142875D01*
X-89185Y142957D01*
X-89303Y143043D01*
X-89419Y143132D01*
X-89532Y143224D01*
X-89643Y143319D01*
X-89751Y143417D01*
X-89856Y143518D01*
X-89959Y143622D01*
X-90058Y143729D01*
X-90155Y143838D01*
X-90248Y143950D01*
X-90339Y144064D01*
X-90426Y144181D01*
X-90510Y144300D01*
X-90591Y144422D01*
X-90669Y144545D01*
X-90743Y144671D01*
X-90813Y144799D01*
X-90880Y144928D01*
X-90944Y145060D01*
X-91004Y145193D01*
X-91060Y145327D01*
X-91113Y145463D01*
X-91162Y145601D01*
X-91207Y145739D01*
X-91248Y145879D01*
X-91285Y146020D01*
X-91319Y146162D01*
X-91349Y146305D01*
X-91374Y146449D01*
X-91396Y146593D01*
X-91414Y146738D01*
X-91428Y146883D01*
X-91438Y147028D01*
X-91444Y147174D01*
X-91446Y147320D01*
X-65942Y147320D02*
X-65940Y147464D01*
X-65934Y147608D01*
X-65924Y147752D01*
X-65910Y147896D01*
X-65892Y148039D01*
X-65871Y148182D01*
X-65845Y148324D01*
X-65815Y148465D01*
X-65782Y148605D01*
X-65744Y148745D01*
X-65703Y148883D01*
X-65658Y149020D01*
X-65610Y149156D01*
X-65557Y149290D01*
X-65501Y149423D01*
X-65441Y149555D01*
X-65378Y149684D01*
X-65311Y149812D01*
X-65241Y149938D01*
X-65167Y150062D01*
X-65089Y150184D01*
X-65009Y150304D01*
X-64925Y150421D01*
X-64838Y150536D01*
X-64748Y150649D01*
X-64655Y150759D01*
X-64558Y150866D01*
X-64459Y150971D01*
X-64357Y151073D01*
X-64252Y151172D01*
X-64145Y151269D01*
X-64035Y151362D01*
X-63922Y151452D01*
X-63807Y151539D01*
X-63690Y151623D01*
X-63570Y151703D01*
X-63448Y151781D01*
X-63324Y151855D01*
X-63198Y151925D01*
X-63070Y151992D01*
X-62941Y152055D01*
X-62809Y152115D01*
X-62676Y152171D01*
X-62542Y152224D01*
X-62406Y152272D01*
X-62269Y152317D01*
X-62131Y152358D01*
X-61991Y152396D01*
X-61851Y152429D01*
X-61710Y152459D01*
X-61568Y152485D01*
X-61425Y152506D01*
X-61282Y152524D01*
X-61138Y152538D01*
X-60994Y152548D01*
X-60850Y152554D01*
X-60706Y152556D01*
X-60562Y152554D01*
X-60418Y152548D01*
X-60274Y152538D01*
X-60130Y152524D01*
X-59987Y152506D01*
X-59844Y152485D01*
X-59702Y152459D01*
X-59561Y152429D01*
X-59421Y152396D01*
X-59281Y152358D01*
X-59143Y152317D01*
X-59006Y152272D01*
X-58870Y152224D01*
X-58736Y152171D01*
X-58603Y152115D01*
X-58471Y152055D01*
X-58342Y151992D01*
X-58214Y151925D01*
X-58088Y151855D01*
X-57964Y151781D01*
X-57842Y151703D01*
X-57722Y151623D01*
X-57605Y151539D01*
X-57490Y151452D01*
X-57377Y151362D01*
X-57267Y151269D01*
X-57160Y151172D01*
X-57055Y151073D01*
X-56953Y150971D01*
X-56854Y150866D01*
X-56757Y150759D01*
X-56664Y150649D01*
X-56574Y150536D01*
X-56487Y150421D01*
X-56403Y150304D01*
X-56323Y150184D01*
X-56245Y150062D01*
X-56171Y149938D01*
X-56101Y149812D01*
X-56034Y149684D01*
X-55971Y149555D01*
X-55911Y149423D01*
X-55855Y149290D01*
X-55802Y149156D01*
X-55754Y149020D01*
X-55709Y148883D01*
X-55668Y148745D01*
X-55630Y148605D01*
X-55597Y148465D01*
X-55567Y148324D01*
X-55541Y148182D01*
X-55520Y148039D01*
X-55502Y147896D01*
X-55488Y147752D01*
X-55478Y147608D01*
X-55472Y147464D01*
X-55470Y147320D01*
X-55472Y147176D01*
X-55478Y147032D01*
X-55488Y146888D01*
X-55502Y146744D01*
X-55520Y146601D01*
X-55541Y146458D01*
X-55567Y146316D01*
X-55597Y146175D01*
X-55630Y146035D01*
X-55668Y145895D01*
X-55709Y145757D01*
X-55754Y145620D01*
X-55802Y145484D01*
X-55855Y145350D01*
X-55911Y145217D01*
X-55971Y145085D01*
X-56034Y144956D01*
X-56101Y144828D01*
X-56171Y144702D01*
X-56245Y144578D01*
X-56323Y144456D01*
X-56403Y144336D01*
X-56487Y144219D01*
X-56574Y144104D01*
X-56664Y143991D01*
X-56757Y143881D01*
X-56854Y143774D01*
X-56953Y143669D01*
X-57055Y143567D01*
X-57160Y143468D01*
X-57267Y143371D01*
X-57377Y143278D01*
X-57490Y143188D01*
X-57605Y143101D01*
X-57722Y143017D01*
X-57842Y142937D01*
X-57964Y142859D01*
X-58088Y142785D01*
X-58214Y142715D01*
X-58342Y142648D01*
X-58471Y142585D01*
X-58603Y142525D01*
X-58736Y142469D01*
X-58870Y142416D01*
X-59006Y142368D01*
X-59143Y142323D01*
X-59281Y142282D01*
X-59421Y142244D01*
X-59561Y142211D01*
X-59702Y142181D01*
X-59844Y142155D01*
X-59987Y142134D01*
X-60130Y142116D01*
X-60274Y142102D01*
X-60418Y142092D01*
X-60562Y142086D01*
X-60706Y142084D01*
X-60850Y142086D01*
X-60994Y142092D01*
X-61138Y142102D01*
X-61282Y142116D01*
X-61425Y142134D01*
X-61568Y142155D01*
X-61710Y142181D01*
X-61851Y142211D01*
X-61991Y142244D01*
X-62131Y142282D01*
X-62269Y142323D01*
X-62406Y142368D01*
X-62542Y142416D01*
X-62676Y142469D01*
X-62809Y142525D01*
X-62941Y142585D01*
X-63070Y142648D01*
X-63198Y142715D01*
X-63324Y142785D01*
X-63448Y142859D01*
X-63570Y142937D01*
X-63690Y143017D01*
X-63807Y143101D01*
X-63922Y143188D01*
X-64035Y143278D01*
X-64145Y143371D01*
X-64252Y143468D01*
X-64357Y143567D01*
X-64459Y143669D01*
X-64558Y143774D01*
X-64655Y143881D01*
X-64748Y143991D01*
X-64838Y144104D01*
X-64925Y144219D01*
X-65009Y144336D01*
X-65089Y144456D01*
X-65167Y144578D01*
X-65241Y144702D01*
X-65311Y144828D01*
X-65378Y144956D01*
X-65441Y145085D01*
X-65501Y145217D01*
X-65557Y145350D01*
X-65610Y145484D01*
X-65658Y145620D01*
X-65703Y145757D01*
X-65744Y145895D01*
X-65782Y146035D01*
X-65815Y146175D01*
X-65845Y146316D01*
X-65871Y146458D01*
X-65892Y146601D01*
X-65910Y146744D01*
X-65924Y146888D01*
X-65934Y147032D01*
X-65940Y147176D01*
X-65942Y147320D01*
X-91446Y121920D02*
X-91444Y122066D01*
X-91438Y122212D01*
X-91428Y122357D01*
X-91414Y122502D01*
X-91396Y122647D01*
X-91374Y122791D01*
X-91349Y122935D01*
X-91319Y123078D01*
X-91285Y123220D01*
X-91248Y123361D01*
X-91207Y123501D01*
X-91162Y123639D01*
X-91113Y123777D01*
X-91060Y123913D01*
X-91004Y124047D01*
X-90944Y124180D01*
X-90880Y124312D01*
X-90813Y124441D01*
X-90743Y124569D01*
X-90669Y124695D01*
X-90591Y124818D01*
X-90510Y124940D01*
X-90426Y125059D01*
X-90339Y125176D01*
X-90248Y125290D01*
X-90155Y125402D01*
X-90058Y125511D01*
X-89959Y125618D01*
X-89856Y125722D01*
X-89751Y125823D01*
X-89643Y125921D01*
X-89532Y126016D01*
X-89419Y126108D01*
X-89303Y126197D01*
X-89185Y126283D01*
X-89065Y126365D01*
X-88943Y126444D01*
X-88818Y126520D01*
X-88691Y126592D01*
X-88563Y126661D01*
X-88432Y126727D01*
X-88300Y126788D01*
X-88166Y126847D01*
X-88031Y126901D01*
X-87894Y126952D01*
X-87756Y126999D01*
X-87617Y127042D01*
X-87476Y127081D01*
X-87335Y127117D01*
X-87192Y127148D01*
X-87049Y127176D01*
X-86905Y127200D01*
X-86761Y127220D01*
X-86616Y127236D01*
X-86470Y127248D01*
X-86325Y127256D01*
X-86179Y127260D01*
X-86033Y127260D01*
X-85887Y127256D01*
X-85742Y127248D01*
X-85596Y127236D01*
X-85451Y127220D01*
X-85307Y127200D01*
X-85163Y127176D01*
X-85020Y127148D01*
X-84877Y127117D01*
X-84736Y127081D01*
X-84595Y127042D01*
X-84456Y126999D01*
X-84318Y126952D01*
X-84181Y126901D01*
X-84046Y126847D01*
X-83912Y126788D01*
X-83780Y126727D01*
X-83649Y126661D01*
X-83521Y126592D01*
X-83394Y126520D01*
X-83269Y126444D01*
X-83147Y126365D01*
X-83027Y126283D01*
X-82909Y126197D01*
X-82793Y126108D01*
X-82680Y126016D01*
X-82569Y125921D01*
X-82461Y125823D01*
X-82356Y125722D01*
X-82253Y125618D01*
X-82154Y125511D01*
X-82057Y125402D01*
X-81964Y125290D01*
X-81873Y125176D01*
X-81786Y125059D01*
X-81702Y124940D01*
X-81621Y124818D01*
X-81543Y124695D01*
X-81469Y124569D01*
X-81399Y124441D01*
X-81332Y124312D01*
X-81268Y124180D01*
X-81208Y124047D01*
X-81152Y123913D01*
X-81099Y123777D01*
X-81050Y123639D01*
X-81005Y123501D01*
X-80964Y123361D01*
X-80927Y123220D01*
X-80893Y123078D01*
X-80863Y122935D01*
X-80838Y122791D01*
X-80816Y122647D01*
X-80798Y122502D01*
X-80784Y122357D01*
X-80774Y122212D01*
X-80768Y122066D01*
X-80766Y121920D01*
X-80768Y121774D01*
X-80774Y121628D01*
X-80784Y121483D01*
X-80798Y121338D01*
X-80816Y121193D01*
X-80838Y121049D01*
X-80863Y120905D01*
X-80893Y120762D01*
X-80927Y120620D01*
X-80964Y120479D01*
X-81005Y120339D01*
X-81050Y120201D01*
X-81099Y120063D01*
X-81152Y119927D01*
X-81208Y119793D01*
X-81268Y119660D01*
X-81332Y119528D01*
X-81399Y119399D01*
X-81469Y119271D01*
X-81543Y119145D01*
X-81621Y119022D01*
X-81702Y118900D01*
X-81786Y118781D01*
X-81873Y118664D01*
X-81964Y118550D01*
X-82057Y118438D01*
X-82154Y118329D01*
X-82253Y118222D01*
X-82356Y118118D01*
X-82461Y118017D01*
X-82569Y117919D01*
X-82680Y117824D01*
X-82793Y117732D01*
X-82909Y117643D01*
X-83027Y117557D01*
X-83147Y117475D01*
X-83269Y117396D01*
X-83394Y117320D01*
X-83521Y117248D01*
X-83649Y117179D01*
X-83780Y117113D01*
X-83912Y117052D01*
X-84046Y116993D01*
X-84181Y116939D01*
X-84318Y116888D01*
X-84456Y116841D01*
X-84595Y116798D01*
X-84736Y116759D01*
X-84877Y116723D01*
X-85020Y116692D01*
X-85163Y116664D01*
X-85307Y116640D01*
X-85451Y116620D01*
X-85596Y116604D01*
X-85742Y116592D01*
X-85887Y116584D01*
X-86033Y116580D01*
X-86179Y116580D01*
X-86325Y116584D01*
X-86470Y116592D01*
X-86616Y116604D01*
X-86761Y116620D01*
X-86905Y116640D01*
X-87049Y116664D01*
X-87192Y116692D01*
X-87335Y116723D01*
X-87476Y116759D01*
X-87617Y116798D01*
X-87756Y116841D01*
X-87894Y116888D01*
X-88031Y116939D01*
X-88166Y116993D01*
X-88300Y117052D01*
X-88432Y117113D01*
X-88563Y117179D01*
X-88691Y117248D01*
X-88818Y117320D01*
X-88943Y117396D01*
X-89065Y117475D01*
X-89185Y117557D01*
X-89303Y117643D01*
X-89419Y117732D01*
X-89532Y117824D01*
X-89643Y117919D01*
X-89751Y118017D01*
X-89856Y118118D01*
X-89959Y118222D01*
X-90058Y118329D01*
X-90155Y118438D01*
X-90248Y118550D01*
X-90339Y118664D01*
X-90426Y118781D01*
X-90510Y118900D01*
X-90591Y119022D01*
X-90669Y119145D01*
X-90743Y119271D01*
X-90813Y119399D01*
X-90880Y119528D01*
X-90944Y119660D01*
X-91004Y119793D01*
X-91060Y119927D01*
X-91113Y120063D01*
X-91162Y120201D01*
X-91207Y120339D01*
X-91248Y120479D01*
X-91285Y120620D01*
X-91319Y120762D01*
X-91349Y120905D01*
X-91374Y121049D01*
X-91396Y121193D01*
X-91414Y121338D01*
X-91428Y121483D01*
X-91438Y121628D01*
X-91444Y121774D01*
X-91446Y121920D01*
X-65942Y121920D02*
X-65940Y122064D01*
X-65934Y122208D01*
X-65924Y122352D01*
X-65910Y122496D01*
X-65892Y122639D01*
X-65871Y122782D01*
X-65845Y122924D01*
X-65815Y123065D01*
X-65782Y123205D01*
X-65744Y123345D01*
X-65703Y123483D01*
X-65658Y123620D01*
X-65610Y123756D01*
X-65557Y123890D01*
X-65501Y124023D01*
X-65441Y124155D01*
X-65378Y124284D01*
X-65311Y124412D01*
X-65241Y124538D01*
X-65167Y124662D01*
X-65089Y124784D01*
X-65009Y124904D01*
X-64925Y125021D01*
X-64838Y125136D01*
X-64748Y125249D01*
X-64655Y125359D01*
X-64558Y125466D01*
X-64459Y125571D01*
X-64357Y125673D01*
X-64252Y125772D01*
X-64145Y125869D01*
X-64035Y125962D01*
X-63922Y126052D01*
X-63807Y126139D01*
X-63690Y126223D01*
X-63570Y126303D01*
X-63448Y126381D01*
X-63324Y126455D01*
X-63198Y126525D01*
X-63070Y126592D01*
X-62941Y126655D01*
X-62809Y126715D01*
X-62676Y126771D01*
X-62542Y126824D01*
X-62406Y126872D01*
X-62269Y126917D01*
X-62131Y126958D01*
X-61991Y126996D01*
X-61851Y127029D01*
X-61710Y127059D01*
X-61568Y127085D01*
X-61425Y127106D01*
X-61282Y127124D01*
X-61138Y127138D01*
X-60994Y127148D01*
X-60850Y127154D01*
X-60706Y127156D01*
X-60562Y127154D01*
X-60418Y127148D01*
X-60274Y127138D01*
X-60130Y127124D01*
X-59987Y127106D01*
X-59844Y127085D01*
X-59702Y127059D01*
X-59561Y127029D01*
X-59421Y126996D01*
X-59281Y126958D01*
X-59143Y126917D01*
X-59006Y126872D01*
X-58870Y126824D01*
X-58736Y126771D01*
X-58603Y126715D01*
X-58471Y126655D01*
X-58342Y126592D01*
X-58214Y126525D01*
X-58088Y126455D01*
X-57964Y126381D01*
X-57842Y126303D01*
X-57722Y126223D01*
X-57605Y126139D01*
X-57490Y126052D01*
X-57377Y125962D01*
X-57267Y125869D01*
X-57160Y125772D01*
X-57055Y125673D01*
X-56953Y125571D01*
X-56854Y125466D01*
X-56757Y125359D01*
X-56664Y125249D01*
X-56574Y125136D01*
X-56487Y125021D01*
X-56403Y124904D01*
X-56323Y124784D01*
X-56245Y124662D01*
X-56171Y124538D01*
X-56101Y124412D01*
X-56034Y124284D01*
X-55971Y124155D01*
X-55911Y124023D01*
X-55855Y123890D01*
X-55802Y123756D01*
X-55754Y123620D01*
X-55709Y123483D01*
X-55668Y123345D01*
X-55630Y123205D01*
X-55597Y123065D01*
X-55567Y122924D01*
X-55541Y122782D01*
X-55520Y122639D01*
X-55502Y122496D01*
X-55488Y122352D01*
X-55478Y122208D01*
X-55472Y122064D01*
X-55470Y121920D01*
X-55472Y121776D01*
X-55478Y121632D01*
X-55488Y121488D01*
X-55502Y121344D01*
X-55520Y121201D01*
X-55541Y121058D01*
X-55567Y120916D01*
X-55597Y120775D01*
X-55630Y120635D01*
X-55668Y120495D01*
X-55709Y120357D01*
X-55754Y120220D01*
X-55802Y120084D01*
X-55855Y119950D01*
X-55911Y119817D01*
X-55971Y119685D01*
X-56034Y119556D01*
X-56101Y119428D01*
X-56171Y119302D01*
X-56245Y119178D01*
X-56323Y119056D01*
X-56403Y118936D01*
X-56487Y118819D01*
X-56574Y118704D01*
X-56664Y118591D01*
X-56757Y118481D01*
X-56854Y118374D01*
X-56953Y118269D01*
X-57055Y118167D01*
X-57160Y118068D01*
X-57267Y117971D01*
X-57377Y117878D01*
X-57490Y117788D01*
X-57605Y117701D01*
X-57722Y117617D01*
X-57842Y117537D01*
X-57964Y117459D01*
X-58088Y117385D01*
X-58214Y117315D01*
X-58342Y117248D01*
X-58471Y117185D01*
X-58603Y117125D01*
X-58736Y117069D01*
X-58870Y117016D01*
X-59006Y116968D01*
X-59143Y116923D01*
X-59281Y116882D01*
X-59421Y116844D01*
X-59561Y116811D01*
X-59702Y116781D01*
X-59844Y116755D01*
X-59987Y116734D01*
X-60130Y116716D01*
X-60274Y116702D01*
X-60418Y116692D01*
X-60562Y116686D01*
X-60706Y116684D01*
X-60850Y116686D01*
X-60994Y116692D01*
X-61138Y116702D01*
X-61282Y116716D01*
X-61425Y116734D01*
X-61568Y116755D01*
X-61710Y116781D01*
X-61851Y116811D01*
X-61991Y116844D01*
X-62131Y116882D01*
X-62269Y116923D01*
X-62406Y116968D01*
X-62542Y117016D01*
X-62676Y117069D01*
X-62809Y117125D01*
X-62941Y117185D01*
X-63070Y117248D01*
X-63198Y117315D01*
X-63324Y117385D01*
X-63448Y117459D01*
X-63570Y117537D01*
X-63690Y117617D01*
X-63807Y117701D01*
X-63922Y117788D01*
X-64035Y117878D01*
X-64145Y117971D01*
X-64252Y118068D01*
X-64357Y118167D01*
X-64459Y118269D01*
X-64558Y118374D01*
X-64655Y118481D01*
X-64748Y118591D01*
X-64838Y118704D01*
X-64925Y118819D01*
X-65009Y118936D01*
X-65089Y119056D01*
X-65167Y119178D01*
X-65241Y119302D01*
X-65311Y119428D01*
X-65378Y119556D01*
X-65441Y119685D01*
X-65501Y119817D01*
X-65557Y119950D01*
X-65610Y120084D01*
X-65658Y120220D01*
X-65703Y120357D01*
X-65744Y120495D01*
X-65782Y120635D01*
X-65815Y120775D01*
X-65845Y120916D01*
X-65871Y121058D01*
X-65892Y121201D01*
X-65910Y121344D01*
X-65924Y121488D01*
X-65934Y121632D01*
X-65940Y121776D01*
X-65942Y121920D01*
X-189998Y120396D02*
X-189996Y120542D01*
X-189990Y120688D01*
X-189980Y120833D01*
X-189966Y120978D01*
X-189948Y121123D01*
X-189926Y121267D01*
X-189901Y121411D01*
X-189871Y121554D01*
X-189837Y121696D01*
X-189800Y121837D01*
X-189759Y121977D01*
X-189714Y122115D01*
X-189665Y122253D01*
X-189612Y122389D01*
X-189556Y122523D01*
X-189496Y122656D01*
X-189432Y122788D01*
X-189365Y122917D01*
X-189295Y123045D01*
X-189221Y123171D01*
X-189143Y123294D01*
X-189062Y123416D01*
X-188978Y123535D01*
X-188891Y123652D01*
X-188800Y123766D01*
X-188707Y123878D01*
X-188610Y123987D01*
X-188511Y124094D01*
X-188408Y124198D01*
X-188303Y124299D01*
X-188195Y124397D01*
X-188084Y124492D01*
X-187971Y124584D01*
X-187855Y124673D01*
X-187737Y124759D01*
X-187617Y124841D01*
X-187495Y124920D01*
X-187370Y124996D01*
X-187243Y125068D01*
X-187115Y125137D01*
X-186984Y125203D01*
X-186852Y125264D01*
X-186718Y125323D01*
X-186583Y125377D01*
X-186446Y125428D01*
X-186308Y125475D01*
X-186169Y125518D01*
X-186028Y125557D01*
X-185887Y125593D01*
X-185744Y125624D01*
X-185601Y125652D01*
X-185457Y125676D01*
X-185313Y125696D01*
X-185168Y125712D01*
X-185022Y125724D01*
X-184877Y125732D01*
X-184731Y125736D01*
X-184585Y125736D01*
X-184439Y125732D01*
X-184294Y125724D01*
X-184148Y125712D01*
X-184003Y125696D01*
X-183859Y125676D01*
X-183715Y125652D01*
X-183572Y125624D01*
X-183429Y125593D01*
X-183288Y125557D01*
X-183147Y125518D01*
X-183008Y125475D01*
X-182870Y125428D01*
X-182733Y125377D01*
X-182598Y125323D01*
X-182464Y125264D01*
X-182332Y125203D01*
X-182201Y125137D01*
X-182073Y125068D01*
X-181946Y124996D01*
X-181821Y124920D01*
X-181699Y124841D01*
X-181579Y124759D01*
X-181461Y124673D01*
X-181345Y124584D01*
X-181232Y124492D01*
X-181121Y124397D01*
X-181013Y124299D01*
X-180908Y124198D01*
X-180805Y124094D01*
X-180706Y123987D01*
X-180609Y123878D01*
X-180516Y123766D01*
X-180425Y123652D01*
X-180338Y123535D01*
X-180254Y123416D01*
X-180173Y123294D01*
X-180095Y123171D01*
X-180021Y123045D01*
X-179951Y122917D01*
X-179884Y122788D01*
X-179820Y122656D01*
X-179760Y122523D01*
X-179704Y122389D01*
X-179651Y122253D01*
X-179602Y122115D01*
X-179557Y121977D01*
X-179516Y121837D01*
X-179479Y121696D01*
X-179445Y121554D01*
X-179415Y121411D01*
X-179390Y121267D01*
X-179368Y121123D01*
X-179350Y120978D01*
X-179336Y120833D01*
X-179326Y120688D01*
X-179320Y120542D01*
X-179318Y120396D01*
X-179320Y120250D01*
X-179326Y120104D01*
X-179336Y119959D01*
X-179350Y119814D01*
X-179368Y119669D01*
X-179390Y119525D01*
X-179415Y119381D01*
X-179445Y119238D01*
X-179479Y119096D01*
X-179516Y118955D01*
X-179557Y118815D01*
X-179602Y118677D01*
X-179651Y118539D01*
X-179704Y118403D01*
X-179760Y118269D01*
X-179820Y118136D01*
X-179884Y118004D01*
X-179951Y117875D01*
X-180021Y117747D01*
X-180095Y117621D01*
X-180173Y117498D01*
X-180254Y117376D01*
X-180338Y117257D01*
X-180425Y117140D01*
X-180516Y117026D01*
X-180609Y116914D01*
X-180706Y116805D01*
X-180805Y116698D01*
X-180908Y116594D01*
X-181013Y116493D01*
X-181121Y116395D01*
X-181232Y116300D01*
X-181345Y116208D01*
X-181461Y116119D01*
X-181579Y116033D01*
X-181699Y115951D01*
X-181821Y115872D01*
X-181946Y115796D01*
X-182073Y115724D01*
X-182201Y115655D01*
X-182332Y115589D01*
X-182464Y115528D01*
X-182598Y115469D01*
X-182733Y115415D01*
X-182870Y115364D01*
X-183008Y115317D01*
X-183147Y115274D01*
X-183288Y115235D01*
X-183429Y115199D01*
X-183572Y115168D01*
X-183715Y115140D01*
X-183859Y115116D01*
X-184003Y115096D01*
X-184148Y115080D01*
X-184294Y115068D01*
X-184439Y115060D01*
X-184585Y115056D01*
X-184731Y115056D01*
X-184877Y115060D01*
X-185022Y115068D01*
X-185168Y115080D01*
X-185313Y115096D01*
X-185457Y115116D01*
X-185601Y115140D01*
X-185744Y115168D01*
X-185887Y115199D01*
X-186028Y115235D01*
X-186169Y115274D01*
X-186308Y115317D01*
X-186446Y115364D01*
X-186583Y115415D01*
X-186718Y115469D01*
X-186852Y115528D01*
X-186984Y115589D01*
X-187115Y115655D01*
X-187243Y115724D01*
X-187370Y115796D01*
X-187495Y115872D01*
X-187617Y115951D01*
X-187737Y116033D01*
X-187855Y116119D01*
X-187971Y116208D01*
X-188084Y116300D01*
X-188195Y116395D01*
X-188303Y116493D01*
X-188408Y116594D01*
X-188511Y116698D01*
X-188610Y116805D01*
X-188707Y116914D01*
X-188800Y117026D01*
X-188891Y117140D01*
X-188978Y117257D01*
X-189062Y117376D01*
X-189143Y117498D01*
X-189221Y117621D01*
X-189295Y117747D01*
X-189365Y117875D01*
X-189432Y118004D01*
X-189496Y118136D01*
X-189556Y118269D01*
X-189612Y118403D01*
X-189665Y118539D01*
X-189714Y118677D01*
X-189759Y118815D01*
X-189800Y118955D01*
X-189837Y119096D01*
X-189871Y119238D01*
X-189901Y119381D01*
X-189926Y119525D01*
X-189948Y119669D01*
X-189966Y119814D01*
X-189980Y119959D01*
X-189990Y120104D01*
X-189996Y120250D01*
X-189998Y120396D01*
X-164494Y120396D02*
X-164492Y120540D01*
X-164486Y120684D01*
X-164476Y120828D01*
X-164462Y120972D01*
X-164444Y121115D01*
X-164423Y121258D01*
X-164397Y121400D01*
X-164367Y121541D01*
X-164334Y121681D01*
X-164296Y121821D01*
X-164255Y121959D01*
X-164210Y122096D01*
X-164162Y122232D01*
X-164109Y122366D01*
X-164053Y122499D01*
X-163993Y122631D01*
X-163930Y122760D01*
X-163863Y122888D01*
X-163793Y123014D01*
X-163719Y123138D01*
X-163641Y123260D01*
X-163561Y123380D01*
X-163477Y123497D01*
X-163390Y123612D01*
X-163300Y123725D01*
X-163207Y123835D01*
X-163110Y123942D01*
X-163011Y124047D01*
X-162909Y124149D01*
X-162804Y124248D01*
X-162697Y124345D01*
X-162587Y124438D01*
X-162474Y124528D01*
X-162359Y124615D01*
X-162242Y124699D01*
X-162122Y124779D01*
X-162000Y124857D01*
X-161876Y124931D01*
X-161750Y125001D01*
X-161622Y125068D01*
X-161493Y125131D01*
X-161361Y125191D01*
X-161228Y125247D01*
X-161094Y125300D01*
X-160958Y125348D01*
X-160821Y125393D01*
X-160683Y125434D01*
X-160543Y125472D01*
X-160403Y125505D01*
X-160262Y125535D01*
X-160120Y125561D01*
X-159977Y125582D01*
X-159834Y125600D01*
X-159690Y125614D01*
X-159546Y125624D01*
X-159402Y125630D01*
X-159258Y125632D01*
X-159114Y125630D01*
X-158970Y125624D01*
X-158826Y125614D01*
X-158682Y125600D01*
X-158539Y125582D01*
X-158396Y125561D01*
X-158254Y125535D01*
X-158113Y125505D01*
X-157973Y125472D01*
X-157833Y125434D01*
X-157695Y125393D01*
X-157558Y125348D01*
X-157422Y125300D01*
X-157288Y125247D01*
X-157155Y125191D01*
X-157023Y125131D01*
X-156894Y125068D01*
X-156766Y125001D01*
X-156640Y124931D01*
X-156516Y124857D01*
X-156394Y124779D01*
X-156274Y124699D01*
X-156157Y124615D01*
X-156042Y124528D01*
X-155929Y124438D01*
X-155819Y124345D01*
X-155712Y124248D01*
X-155607Y124149D01*
X-155505Y124047D01*
X-155406Y123942D01*
X-155309Y123835D01*
X-155216Y123725D01*
X-155126Y123612D01*
X-155039Y123497D01*
X-154955Y123380D01*
X-154875Y123260D01*
X-154797Y123138D01*
X-154723Y123014D01*
X-154653Y122888D01*
X-154586Y122760D01*
X-154523Y122631D01*
X-154463Y122499D01*
X-154407Y122366D01*
X-154354Y122232D01*
X-154306Y122096D01*
X-154261Y121959D01*
X-154220Y121821D01*
X-154182Y121681D01*
X-154149Y121541D01*
X-154119Y121400D01*
X-154093Y121258D01*
X-154072Y121115D01*
X-154054Y120972D01*
X-154040Y120828D01*
X-154030Y120684D01*
X-154024Y120540D01*
X-154022Y120396D01*
X-154024Y120252D01*
X-154030Y120108D01*
X-154040Y119964D01*
X-154054Y119820D01*
X-154072Y119677D01*
X-154093Y119534D01*
X-154119Y119392D01*
X-154149Y119251D01*
X-154182Y119111D01*
X-154220Y118971D01*
X-154261Y118833D01*
X-154306Y118696D01*
X-154354Y118560D01*
X-154407Y118426D01*
X-154463Y118293D01*
X-154523Y118161D01*
X-154586Y118032D01*
X-154653Y117904D01*
X-154723Y117778D01*
X-154797Y117654D01*
X-154875Y117532D01*
X-154955Y117412D01*
X-155039Y117295D01*
X-155126Y117180D01*
X-155216Y117067D01*
X-155309Y116957D01*
X-155406Y116850D01*
X-155505Y116745D01*
X-155607Y116643D01*
X-155712Y116544D01*
X-155819Y116447D01*
X-155929Y116354D01*
X-156042Y116264D01*
X-156157Y116177D01*
X-156274Y116093D01*
X-156394Y116013D01*
X-156516Y115935D01*
X-156640Y115861D01*
X-156766Y115791D01*
X-156894Y115724D01*
X-157023Y115661D01*
X-157155Y115601D01*
X-157288Y115545D01*
X-157422Y115492D01*
X-157558Y115444D01*
X-157695Y115399D01*
X-157833Y115358D01*
X-157973Y115320D01*
X-158113Y115287D01*
X-158254Y115257D01*
X-158396Y115231D01*
X-158539Y115210D01*
X-158682Y115192D01*
X-158826Y115178D01*
X-158970Y115168D01*
X-159114Y115162D01*
X-159258Y115160D01*
X-159402Y115162D01*
X-159546Y115168D01*
X-159690Y115178D01*
X-159834Y115192D01*
X-159977Y115210D01*
X-160120Y115231D01*
X-160262Y115257D01*
X-160403Y115287D01*
X-160543Y115320D01*
X-160683Y115358D01*
X-160821Y115399D01*
X-160958Y115444D01*
X-161094Y115492D01*
X-161228Y115545D01*
X-161361Y115601D01*
X-161493Y115661D01*
X-161622Y115724D01*
X-161750Y115791D01*
X-161876Y115861D01*
X-162000Y115935D01*
X-162122Y116013D01*
X-162242Y116093D01*
X-162359Y116177D01*
X-162474Y116264D01*
X-162587Y116354D01*
X-162697Y116447D01*
X-162804Y116544D01*
X-162909Y116643D01*
X-163011Y116745D01*
X-163110Y116850D01*
X-163207Y116957D01*
X-163300Y117067D01*
X-163390Y117180D01*
X-163477Y117295D01*
X-163561Y117412D01*
X-163641Y117532D01*
X-163719Y117654D01*
X-163793Y117778D01*
X-163863Y117904D01*
X-163930Y118032D01*
X-163993Y118161D01*
X-164053Y118293D01*
X-164109Y118426D01*
X-164162Y118560D01*
X-164210Y118696D01*
X-164255Y118833D01*
X-164296Y118971D01*
X-164334Y119111D01*
X-164367Y119251D01*
X-164397Y119392D01*
X-164423Y119534D01*
X-164444Y119677D01*
X-164462Y119820D01*
X-164476Y119964D01*
X-164486Y120108D01*
X-164492Y120252D01*
X-164494Y120396D01*
X-189998Y94996D02*
X-189996Y95142D01*
X-189990Y95288D01*
X-189980Y95433D01*
X-189966Y95578D01*
X-189948Y95723D01*
X-189926Y95867D01*
X-189901Y96011D01*
X-189871Y96154D01*
X-189837Y96296D01*
X-189800Y96437D01*
X-189759Y96577D01*
X-189714Y96715D01*
X-189665Y96853D01*
X-189612Y96989D01*
X-189556Y97123D01*
X-189496Y97256D01*
X-189432Y97388D01*
X-189365Y97517D01*
X-189295Y97645D01*
X-189221Y97771D01*
X-189143Y97894D01*
X-189062Y98016D01*
X-188978Y98135D01*
X-188891Y98252D01*
X-188800Y98366D01*
X-188707Y98478D01*
X-188610Y98587D01*
X-188511Y98694D01*
X-188408Y98798D01*
X-188303Y98899D01*
X-188195Y98997D01*
X-188084Y99092D01*
X-187971Y99184D01*
X-187855Y99273D01*
X-187737Y99359D01*
X-187617Y99441D01*
X-187495Y99520D01*
X-187370Y99596D01*
X-187243Y99668D01*
X-187115Y99737D01*
X-186984Y99803D01*
X-186852Y99864D01*
X-186718Y99923D01*
X-186583Y99977D01*
X-186446Y100028D01*
X-186308Y100075D01*
X-186169Y100118D01*
X-186028Y100157D01*
X-185887Y100193D01*
X-185744Y100224D01*
X-185601Y100252D01*
X-185457Y100276D01*
X-185313Y100296D01*
X-185168Y100312D01*
X-185022Y100324D01*
X-184877Y100332D01*
X-184731Y100336D01*
X-184585Y100336D01*
X-184439Y100332D01*
X-184294Y100324D01*
X-184148Y100312D01*
X-184003Y100296D01*
X-183859Y100276D01*
X-183715Y100252D01*
X-183572Y100224D01*
X-183429Y100193D01*
X-183288Y100157D01*
X-183147Y100118D01*
X-183008Y100075D01*
X-182870Y100028D01*
X-182733Y99977D01*
X-182598Y99923D01*
X-182464Y99864D01*
X-182332Y99803D01*
X-182201Y99737D01*
X-182073Y99668D01*
X-181946Y99596D01*
X-181821Y99520D01*
X-181699Y99441D01*
X-181579Y99359D01*
X-181461Y99273D01*
X-181345Y99184D01*
X-181232Y99092D01*
X-181121Y98997D01*
X-181013Y98899D01*
X-180908Y98798D01*
X-180805Y98694D01*
X-180706Y98587D01*
X-180609Y98478D01*
X-180516Y98366D01*
X-180425Y98252D01*
X-180338Y98135D01*
X-180254Y98016D01*
X-180173Y97894D01*
X-180095Y97771D01*
X-180021Y97645D01*
X-179951Y97517D01*
X-179884Y97388D01*
X-179820Y97256D01*
X-179760Y97123D01*
X-179704Y96989D01*
X-179651Y96853D01*
X-179602Y96715D01*
X-179557Y96577D01*
X-179516Y96437D01*
X-179479Y96296D01*
X-179445Y96154D01*
X-179415Y96011D01*
X-179390Y95867D01*
X-179368Y95723D01*
X-179350Y95578D01*
X-179336Y95433D01*
X-179326Y95288D01*
X-179320Y95142D01*
X-179318Y94996D01*
X-179320Y94850D01*
X-179326Y94704D01*
X-179336Y94559D01*
X-179350Y94414D01*
X-179368Y94269D01*
X-179390Y94125D01*
X-179415Y93981D01*
X-179445Y93838D01*
X-179479Y93696D01*
X-179516Y93555D01*
X-179557Y93415D01*
X-179602Y93277D01*
X-179651Y93139D01*
X-179704Y93003D01*
X-179760Y92869D01*
X-179820Y92736D01*
X-179884Y92604D01*
X-179951Y92475D01*
X-180021Y92347D01*
X-180095Y92221D01*
X-180173Y92098D01*
X-180254Y91976D01*
X-180338Y91857D01*
X-180425Y91740D01*
X-180516Y91626D01*
X-180609Y91514D01*
X-180706Y91405D01*
X-180805Y91298D01*
X-180908Y91194D01*
X-181013Y91093D01*
X-181121Y90995D01*
X-181232Y90900D01*
X-181345Y90808D01*
X-181461Y90719D01*
X-181579Y90633D01*
X-181699Y90551D01*
X-181821Y90472D01*
X-181946Y90396D01*
X-182073Y90324D01*
X-182201Y90255D01*
X-182332Y90189D01*
X-182464Y90128D01*
X-182598Y90069D01*
X-182733Y90015D01*
X-182870Y89964D01*
X-183008Y89917D01*
X-183147Y89874D01*
X-183288Y89835D01*
X-183429Y89799D01*
X-183572Y89768D01*
X-183715Y89740D01*
X-183859Y89716D01*
X-184003Y89696D01*
X-184148Y89680D01*
X-184294Y89668D01*
X-184439Y89660D01*
X-184585Y89656D01*
X-184731Y89656D01*
X-184877Y89660D01*
X-185022Y89668D01*
X-185168Y89680D01*
X-185313Y89696D01*
X-185457Y89716D01*
X-185601Y89740D01*
X-185744Y89768D01*
X-185887Y89799D01*
X-186028Y89835D01*
X-186169Y89874D01*
X-186308Y89917D01*
X-186446Y89964D01*
X-186583Y90015D01*
X-186718Y90069D01*
X-186852Y90128D01*
X-186984Y90189D01*
X-187115Y90255D01*
X-187243Y90324D01*
X-187370Y90396D01*
X-187495Y90472D01*
X-187617Y90551D01*
X-187737Y90633D01*
X-187855Y90719D01*
X-187971Y90808D01*
X-188084Y90900D01*
X-188195Y90995D01*
X-188303Y91093D01*
X-188408Y91194D01*
X-188511Y91298D01*
X-188610Y91405D01*
X-188707Y91514D01*
X-188800Y91626D01*
X-188891Y91740D01*
X-188978Y91857D01*
X-189062Y91976D01*
X-189143Y92098D01*
X-189221Y92221D01*
X-189295Y92347D01*
X-189365Y92475D01*
X-189432Y92604D01*
X-189496Y92736D01*
X-189556Y92869D01*
X-189612Y93003D01*
X-189665Y93139D01*
X-189714Y93277D01*
X-189759Y93415D01*
X-189800Y93555D01*
X-189837Y93696D01*
X-189871Y93838D01*
X-189901Y93981D01*
X-189926Y94125D01*
X-189948Y94269D01*
X-189966Y94414D01*
X-189980Y94559D01*
X-189990Y94704D01*
X-189996Y94850D01*
X-189998Y94996D01*
X-164494Y94996D02*
X-164492Y95140D01*
X-164486Y95284D01*
X-164476Y95428D01*
X-164462Y95572D01*
X-164444Y95715D01*
X-164423Y95858D01*
X-164397Y96000D01*
X-164367Y96141D01*
X-164334Y96281D01*
X-164296Y96421D01*
X-164255Y96559D01*
X-164210Y96696D01*
X-164162Y96832D01*
X-164109Y96966D01*
X-164053Y97099D01*
X-163993Y97231D01*
X-163930Y97360D01*
X-163863Y97488D01*
X-163793Y97614D01*
X-163719Y97738D01*
X-163641Y97860D01*
X-163561Y97980D01*
X-163477Y98097D01*
X-163390Y98212D01*
X-163300Y98325D01*
X-163207Y98435D01*
X-163110Y98542D01*
X-163011Y98647D01*
X-162909Y98749D01*
X-162804Y98848D01*
X-162697Y98945D01*
X-162587Y99038D01*
X-162474Y99128D01*
X-162359Y99215D01*
X-162242Y99299D01*
X-162122Y99379D01*
X-162000Y99457D01*
X-161876Y99531D01*
X-161750Y99601D01*
X-161622Y99668D01*
X-161493Y99731D01*
X-161361Y99791D01*
X-161228Y99847D01*
X-161094Y99900D01*
X-160958Y99948D01*
X-160821Y99993D01*
X-160683Y100034D01*
X-160543Y100072D01*
X-160403Y100105D01*
X-160262Y100135D01*
X-160120Y100161D01*
X-159977Y100182D01*
X-159834Y100200D01*
X-159690Y100214D01*
X-159546Y100224D01*
X-159402Y100230D01*
X-159258Y100232D01*
X-159114Y100230D01*
X-158970Y100224D01*
X-158826Y100214D01*
X-158682Y100200D01*
X-158539Y100182D01*
X-158396Y100161D01*
X-158254Y100135D01*
X-158113Y100105D01*
X-157973Y100072D01*
X-157833Y100034D01*
X-157695Y99993D01*
X-157558Y99948D01*
X-157422Y99900D01*
X-157288Y99847D01*
X-157155Y99791D01*
X-157023Y99731D01*
X-156894Y99668D01*
X-156766Y99601D01*
X-156640Y99531D01*
X-156516Y99457D01*
X-156394Y99379D01*
X-156274Y99299D01*
X-156157Y99215D01*
X-156042Y99128D01*
X-155929Y99038D01*
X-155819Y98945D01*
X-155712Y98848D01*
X-155607Y98749D01*
X-155505Y98647D01*
X-155406Y98542D01*
X-155309Y98435D01*
X-155216Y98325D01*
X-155126Y98212D01*
X-155039Y98097D01*
X-154955Y97980D01*
X-154875Y97860D01*
X-154797Y97738D01*
X-154723Y97614D01*
X-154653Y97488D01*
X-154586Y97360D01*
X-154523Y97231D01*
X-154463Y97099D01*
X-154407Y96966D01*
X-154354Y96832D01*
X-154306Y96696D01*
X-154261Y96559D01*
X-154220Y96421D01*
X-154182Y96281D01*
X-154149Y96141D01*
X-154119Y96000D01*
X-154093Y95858D01*
X-154072Y95715D01*
X-154054Y95572D01*
X-154040Y95428D01*
X-154030Y95284D01*
X-154024Y95140D01*
X-154022Y94996D01*
X-154024Y94852D01*
X-154030Y94708D01*
X-154040Y94564D01*
X-154054Y94420D01*
X-154072Y94277D01*
X-154093Y94134D01*
X-154119Y93992D01*
X-154149Y93851D01*
X-154182Y93711D01*
X-154220Y93571D01*
X-154261Y93433D01*
X-154306Y93296D01*
X-154354Y93160D01*
X-154407Y93026D01*
X-154463Y92893D01*
X-154523Y92761D01*
X-154586Y92632D01*
X-154653Y92504D01*
X-154723Y92378D01*
X-154797Y92254D01*
X-154875Y92132D01*
X-154955Y92012D01*
X-155039Y91895D01*
X-155126Y91780D01*
X-155216Y91667D01*
X-155309Y91557D01*
X-155406Y91450D01*
X-155505Y91345D01*
X-155607Y91243D01*
X-155712Y91144D01*
X-155819Y91047D01*
X-155929Y90954D01*
X-156042Y90864D01*
X-156157Y90777D01*
X-156274Y90693D01*
X-156394Y90613D01*
X-156516Y90535D01*
X-156640Y90461D01*
X-156766Y90391D01*
X-156894Y90324D01*
X-157023Y90261D01*
X-157155Y90201D01*
X-157288Y90145D01*
X-157422Y90092D01*
X-157558Y90044D01*
X-157695Y89999D01*
X-157833Y89958D01*
X-157973Y89920D01*
X-158113Y89887D01*
X-158254Y89857D01*
X-158396Y89831D01*
X-158539Y89810D01*
X-158682Y89792D01*
X-158826Y89778D01*
X-158970Y89768D01*
X-159114Y89762D01*
X-159258Y89760D01*
X-159402Y89762D01*
X-159546Y89768D01*
X-159690Y89778D01*
X-159834Y89792D01*
X-159977Y89810D01*
X-160120Y89831D01*
X-160262Y89857D01*
X-160403Y89887D01*
X-160543Y89920D01*
X-160683Y89958D01*
X-160821Y89999D01*
X-160958Y90044D01*
X-161094Y90092D01*
X-161228Y90145D01*
X-161361Y90201D01*
X-161493Y90261D01*
X-161622Y90324D01*
X-161750Y90391D01*
X-161876Y90461D01*
X-162000Y90535D01*
X-162122Y90613D01*
X-162242Y90693D01*
X-162359Y90777D01*
X-162474Y90864D01*
X-162587Y90954D01*
X-162697Y91047D01*
X-162804Y91144D01*
X-162909Y91243D01*
X-163011Y91345D01*
X-163110Y91450D01*
X-163207Y91557D01*
X-163300Y91667D01*
X-163390Y91780D01*
X-163477Y91895D01*
X-163561Y92012D01*
X-163641Y92132D01*
X-163719Y92254D01*
X-163793Y92378D01*
X-163863Y92504D01*
X-163930Y92632D01*
X-163993Y92761D01*
X-164053Y92893D01*
X-164109Y93026D01*
X-164162Y93160D01*
X-164210Y93296D01*
X-164255Y93433D01*
X-164296Y93571D01*
X-164334Y93711D01*
X-164367Y93851D01*
X-164397Y93992D01*
X-164423Y94134D01*
X-164444Y94277D01*
X-164462Y94420D01*
X-164476Y94564D01*
X-164486Y94708D01*
X-164492Y94852D01*
X-164494Y94996D01*
X-189998Y69596D02*
X-189996Y69742D01*
X-189990Y69888D01*
X-189980Y70033D01*
X-189966Y70178D01*
X-189948Y70323D01*
X-189926Y70467D01*
X-189901Y70611D01*
X-189871Y70754D01*
X-189837Y70896D01*
X-189800Y71037D01*
X-189759Y71177D01*
X-189714Y71315D01*
X-189665Y71453D01*
X-189612Y71589D01*
X-189556Y71723D01*
X-189496Y71856D01*
X-189432Y71988D01*
X-189365Y72117D01*
X-189295Y72245D01*
X-189221Y72371D01*
X-189143Y72494D01*
X-189062Y72616D01*
X-188978Y72735D01*
X-188891Y72852D01*
X-188800Y72966D01*
X-188707Y73078D01*
X-188610Y73187D01*
X-188511Y73294D01*
X-188408Y73398D01*
X-188303Y73499D01*
X-188195Y73597D01*
X-188084Y73692D01*
X-187971Y73784D01*
X-187855Y73873D01*
X-187737Y73959D01*
X-187617Y74041D01*
X-187495Y74120D01*
X-187370Y74196D01*
X-187243Y74268D01*
X-187115Y74337D01*
X-186984Y74403D01*
X-186852Y74464D01*
X-186718Y74523D01*
X-186583Y74577D01*
X-186446Y74628D01*
X-186308Y74675D01*
X-186169Y74718D01*
X-186028Y74757D01*
X-185887Y74793D01*
X-185744Y74824D01*
X-185601Y74852D01*
X-185457Y74876D01*
X-185313Y74896D01*
X-185168Y74912D01*
X-185022Y74924D01*
X-184877Y74932D01*
X-184731Y74936D01*
X-184585Y74936D01*
X-184439Y74932D01*
X-184294Y74924D01*
X-184148Y74912D01*
X-184003Y74896D01*
X-183859Y74876D01*
X-183715Y74852D01*
X-183572Y74824D01*
X-183429Y74793D01*
X-183288Y74757D01*
X-183147Y74718D01*
X-183008Y74675D01*
X-182870Y74628D01*
X-182733Y74577D01*
X-182598Y74523D01*
X-182464Y74464D01*
X-182332Y74403D01*
X-182201Y74337D01*
X-182073Y74268D01*
X-181946Y74196D01*
X-181821Y74120D01*
X-181699Y74041D01*
X-181579Y73959D01*
X-181461Y73873D01*
X-181345Y73784D01*
X-181232Y73692D01*
X-181121Y73597D01*
X-181013Y73499D01*
X-180908Y73398D01*
X-180805Y73294D01*
X-180706Y73187D01*
X-180609Y73078D01*
X-180516Y72966D01*
X-180425Y72852D01*
X-180338Y72735D01*
X-180254Y72616D01*
X-180173Y72494D01*
X-180095Y72371D01*
X-180021Y72245D01*
X-179951Y72117D01*
X-179884Y71988D01*
X-179820Y71856D01*
X-179760Y71723D01*
X-179704Y71589D01*
X-179651Y71453D01*
X-179602Y71315D01*
X-179557Y71177D01*
X-179516Y71037D01*
X-179479Y70896D01*
X-179445Y70754D01*
X-179415Y70611D01*
X-179390Y70467D01*
X-179368Y70323D01*
X-179350Y70178D01*
X-179336Y70033D01*
X-179326Y69888D01*
X-179320Y69742D01*
X-179318Y69596D01*
X-179320Y69450D01*
X-179326Y69304D01*
X-179336Y69159D01*
X-179350Y69014D01*
X-179368Y68869D01*
X-179390Y68725D01*
X-179415Y68581D01*
X-179445Y68438D01*
X-179479Y68296D01*
X-179516Y68155D01*
X-179557Y68015D01*
X-179602Y67877D01*
X-179651Y67739D01*
X-179704Y67603D01*
X-179760Y67469D01*
X-179820Y67336D01*
X-179884Y67204D01*
X-179951Y67075D01*
X-180021Y66947D01*
X-180095Y66821D01*
X-180173Y66698D01*
X-180254Y66576D01*
X-180338Y66457D01*
X-180425Y66340D01*
X-180516Y66226D01*
X-180609Y66114D01*
X-180706Y66005D01*
X-180805Y65898D01*
X-180908Y65794D01*
X-181013Y65693D01*
X-181121Y65595D01*
X-181232Y65500D01*
X-181345Y65408D01*
X-181461Y65319D01*
X-181579Y65233D01*
X-181699Y65151D01*
X-181821Y65072D01*
X-181946Y64996D01*
X-182073Y64924D01*
X-182201Y64855D01*
X-182332Y64789D01*
X-182464Y64728D01*
X-182598Y64669D01*
X-182733Y64615D01*
X-182870Y64564D01*
X-183008Y64517D01*
X-183147Y64474D01*
X-183288Y64435D01*
X-183429Y64399D01*
X-183572Y64368D01*
X-183715Y64340D01*
X-183859Y64316D01*
X-184003Y64296D01*
X-184148Y64280D01*
X-184294Y64268D01*
X-184439Y64260D01*
X-184585Y64256D01*
X-184731Y64256D01*
X-184877Y64260D01*
X-185022Y64268D01*
X-185168Y64280D01*
X-185313Y64296D01*
X-185457Y64316D01*
X-185601Y64340D01*
X-185744Y64368D01*
X-185887Y64399D01*
X-186028Y64435D01*
X-186169Y64474D01*
X-186308Y64517D01*
X-186446Y64564D01*
X-186583Y64615D01*
X-186718Y64669D01*
X-186852Y64728D01*
X-186984Y64789D01*
X-187115Y64855D01*
X-187243Y64924D01*
X-187370Y64996D01*
X-187495Y65072D01*
X-187617Y65151D01*
X-187737Y65233D01*
X-187855Y65319D01*
X-187971Y65408D01*
X-188084Y65500D01*
X-188195Y65595D01*
X-188303Y65693D01*
X-188408Y65794D01*
X-188511Y65898D01*
X-188610Y66005D01*
X-188707Y66114D01*
X-188800Y66226D01*
X-188891Y66340D01*
X-188978Y66457D01*
X-189062Y66576D01*
X-189143Y66698D01*
X-189221Y66821D01*
X-189295Y66947D01*
X-189365Y67075D01*
X-189432Y67204D01*
X-189496Y67336D01*
X-189556Y67469D01*
X-189612Y67603D01*
X-189665Y67739D01*
X-189714Y67877D01*
X-189759Y68015D01*
X-189800Y68155D01*
X-189837Y68296D01*
X-189871Y68438D01*
X-189901Y68581D01*
X-189926Y68725D01*
X-189948Y68869D01*
X-189966Y69014D01*
X-189980Y69159D01*
X-189990Y69304D01*
X-189996Y69450D01*
X-189998Y69596D01*
X-164494Y69596D02*
X-164492Y69740D01*
X-164486Y69884D01*
X-164476Y70028D01*
X-164462Y70172D01*
X-164444Y70315D01*
X-164423Y70458D01*
X-164397Y70600D01*
X-164367Y70741D01*
X-164334Y70881D01*
X-164296Y71021D01*
X-164255Y71159D01*
X-164210Y71296D01*
X-164162Y71432D01*
X-164109Y71566D01*
X-164053Y71699D01*
X-163993Y71831D01*
X-163930Y71960D01*
X-163863Y72088D01*
X-163793Y72214D01*
X-163719Y72338D01*
X-163641Y72460D01*
X-163561Y72580D01*
X-163477Y72697D01*
X-163390Y72812D01*
X-163300Y72925D01*
X-163207Y73035D01*
X-163110Y73142D01*
X-163011Y73247D01*
X-162909Y73349D01*
X-162804Y73448D01*
X-162697Y73545D01*
X-162587Y73638D01*
X-162474Y73728D01*
X-162359Y73815D01*
X-162242Y73899D01*
X-162122Y73979D01*
X-162000Y74057D01*
X-161876Y74131D01*
X-161750Y74201D01*
X-161622Y74268D01*
X-161493Y74331D01*
X-161361Y74391D01*
X-161228Y74447D01*
X-161094Y74500D01*
X-160958Y74548D01*
X-160821Y74593D01*
X-160683Y74634D01*
X-160543Y74672D01*
X-160403Y74705D01*
X-160262Y74735D01*
X-160120Y74761D01*
X-159977Y74782D01*
X-159834Y74800D01*
X-159690Y74814D01*
X-159546Y74824D01*
X-159402Y74830D01*
X-159258Y74832D01*
X-159114Y74830D01*
X-158970Y74824D01*
X-158826Y74814D01*
X-158682Y74800D01*
X-158539Y74782D01*
X-158396Y74761D01*
X-158254Y74735D01*
X-158113Y74705D01*
X-157973Y74672D01*
X-157833Y74634D01*
X-157695Y74593D01*
X-157558Y74548D01*
X-157422Y74500D01*
X-157288Y74447D01*
X-157155Y74391D01*
X-157023Y74331D01*
X-156894Y74268D01*
X-156766Y74201D01*
X-156640Y74131D01*
X-156516Y74057D01*
X-156394Y73979D01*
X-156274Y73899D01*
X-156157Y73815D01*
X-156042Y73728D01*
X-155929Y73638D01*
X-155819Y73545D01*
X-155712Y73448D01*
X-155607Y73349D01*
X-155505Y73247D01*
X-155406Y73142D01*
X-155309Y73035D01*
X-155216Y72925D01*
X-155126Y72812D01*
X-155039Y72697D01*
X-154955Y72580D01*
X-154875Y72460D01*
X-154797Y72338D01*
X-154723Y72214D01*
X-154653Y72088D01*
X-154586Y71960D01*
X-154523Y71831D01*
X-154463Y71699D01*
X-154407Y71566D01*
X-154354Y71432D01*
X-154306Y71296D01*
X-154261Y71159D01*
X-154220Y71021D01*
X-154182Y70881D01*
X-154149Y70741D01*
X-154119Y70600D01*
X-154093Y70458D01*
X-154072Y70315D01*
X-154054Y70172D01*
X-154040Y70028D01*
X-154030Y69884D01*
X-154024Y69740D01*
X-154022Y69596D01*
X-154024Y69452D01*
X-154030Y69308D01*
X-154040Y69164D01*
X-154054Y69020D01*
X-154072Y68877D01*
X-154093Y68734D01*
X-154119Y68592D01*
X-154149Y68451D01*
X-154182Y68311D01*
X-154220Y68171D01*
X-154261Y68033D01*
X-154306Y67896D01*
X-154354Y67760D01*
X-154407Y67626D01*
X-154463Y67493D01*
X-154523Y67361D01*
X-154586Y67232D01*
X-154653Y67104D01*
X-154723Y66978D01*
X-154797Y66854D01*
X-154875Y66732D01*
X-154955Y66612D01*
X-155039Y66495D01*
X-155126Y66380D01*
X-155216Y66267D01*
X-155309Y66157D01*
X-155406Y66050D01*
X-155505Y65945D01*
X-155607Y65843D01*
X-155712Y65744D01*
X-155819Y65647D01*
X-155929Y65554D01*
X-156042Y65464D01*
X-156157Y65377D01*
X-156274Y65293D01*
X-156394Y65213D01*
X-156516Y65135D01*
X-156640Y65061D01*
X-156766Y64991D01*
X-156894Y64924D01*
X-157023Y64861D01*
X-157155Y64801D01*
X-157288Y64745D01*
X-157422Y64692D01*
X-157558Y64644D01*
X-157695Y64599D01*
X-157833Y64558D01*
X-157973Y64520D01*
X-158113Y64487D01*
X-158254Y64457D01*
X-158396Y64431D01*
X-158539Y64410D01*
X-158682Y64392D01*
X-158826Y64378D01*
X-158970Y64368D01*
X-159114Y64362D01*
X-159258Y64360D01*
X-159402Y64362D01*
X-159546Y64368D01*
X-159690Y64378D01*
X-159834Y64392D01*
X-159977Y64410D01*
X-160120Y64431D01*
X-160262Y64457D01*
X-160403Y64487D01*
X-160543Y64520D01*
X-160683Y64558D01*
X-160821Y64599D01*
X-160958Y64644D01*
X-161094Y64692D01*
X-161228Y64745D01*
X-161361Y64801D01*
X-161493Y64861D01*
X-161622Y64924D01*
X-161750Y64991D01*
X-161876Y65061D01*
X-162000Y65135D01*
X-162122Y65213D01*
X-162242Y65293D01*
X-162359Y65377D01*
X-162474Y65464D01*
X-162587Y65554D01*
X-162697Y65647D01*
X-162804Y65744D01*
X-162909Y65843D01*
X-163011Y65945D01*
X-163110Y66050D01*
X-163207Y66157D01*
X-163300Y66267D01*
X-163390Y66380D01*
X-163477Y66495D01*
X-163561Y66612D01*
X-163641Y66732D01*
X-163719Y66854D01*
X-163793Y66978D01*
X-163863Y67104D01*
X-163930Y67232D01*
X-163993Y67361D01*
X-164053Y67493D01*
X-164109Y67626D01*
X-164162Y67760D01*
X-164210Y67896D01*
X-164255Y68033D01*
X-164296Y68171D01*
X-164334Y68311D01*
X-164367Y68451D01*
X-164397Y68592D01*
X-164423Y68734D01*
X-164444Y68877D01*
X-164462Y69020D01*
X-164476Y69164D01*
X-164486Y69308D01*
X-164492Y69452D01*
X-164494Y69596D01*
X-189998Y44196D02*
X-189996Y44342D01*
X-189990Y44488D01*
X-189980Y44633D01*
X-189966Y44778D01*
X-189948Y44923D01*
X-189926Y45067D01*
X-189901Y45211D01*
X-189871Y45354D01*
X-189837Y45496D01*
X-189800Y45637D01*
X-189759Y45777D01*
X-189714Y45915D01*
X-189665Y46053D01*
X-189612Y46189D01*
X-189556Y46323D01*
X-189496Y46456D01*
X-189432Y46588D01*
X-189365Y46717D01*
X-189295Y46845D01*
X-189221Y46971D01*
X-189143Y47094D01*
X-189062Y47216D01*
X-188978Y47335D01*
X-188891Y47452D01*
X-188800Y47566D01*
X-188707Y47678D01*
X-188610Y47787D01*
X-188511Y47894D01*
X-188408Y47998D01*
X-188303Y48099D01*
X-188195Y48197D01*
X-188084Y48292D01*
X-187971Y48384D01*
X-187855Y48473D01*
X-187737Y48559D01*
X-187617Y48641D01*
X-187495Y48720D01*
X-187370Y48796D01*
X-187243Y48868D01*
X-187115Y48937D01*
X-186984Y49003D01*
X-186852Y49064D01*
X-186718Y49123D01*
X-186583Y49177D01*
X-186446Y49228D01*
X-186308Y49275D01*
X-186169Y49318D01*
X-186028Y49357D01*
X-185887Y49393D01*
X-185744Y49424D01*
X-185601Y49452D01*
X-185457Y49476D01*
X-185313Y49496D01*
X-185168Y49512D01*
X-185022Y49524D01*
X-184877Y49532D01*
X-184731Y49536D01*
X-184585Y49536D01*
X-184439Y49532D01*
X-184294Y49524D01*
X-184148Y49512D01*
X-184003Y49496D01*
X-183859Y49476D01*
X-183715Y49452D01*
X-183572Y49424D01*
X-183429Y49393D01*
X-183288Y49357D01*
X-183147Y49318D01*
X-183008Y49275D01*
X-182870Y49228D01*
X-182733Y49177D01*
X-182598Y49123D01*
X-182464Y49064D01*
X-182332Y49003D01*
X-182201Y48937D01*
X-182073Y48868D01*
X-181946Y48796D01*
X-181821Y48720D01*
X-181699Y48641D01*
X-181579Y48559D01*
X-181461Y48473D01*
X-181345Y48384D01*
X-181232Y48292D01*
X-181121Y48197D01*
X-181013Y48099D01*
X-180908Y47998D01*
X-180805Y47894D01*
X-180706Y47787D01*
X-180609Y47678D01*
X-180516Y47566D01*
X-180425Y47452D01*
X-180338Y47335D01*
X-180254Y47216D01*
X-180173Y47094D01*
X-180095Y46971D01*
X-180021Y46845D01*
X-179951Y46717D01*
X-179884Y46588D01*
X-179820Y46456D01*
X-179760Y46323D01*
X-179704Y46189D01*
X-179651Y46053D01*
X-179602Y45915D01*
X-179557Y45777D01*
X-179516Y45637D01*
X-179479Y45496D01*
X-179445Y45354D01*
X-179415Y45211D01*
X-179390Y45067D01*
X-179368Y44923D01*
X-179350Y44778D01*
X-179336Y44633D01*
X-179326Y44488D01*
X-179320Y44342D01*
X-179318Y44196D01*
X-179320Y44050D01*
X-179326Y43904D01*
X-179336Y43759D01*
X-179350Y43614D01*
X-179368Y43469D01*
X-179390Y43325D01*
X-179415Y43181D01*
X-179445Y43038D01*
X-179479Y42896D01*
X-179516Y42755D01*
X-179557Y42615D01*
X-179602Y42477D01*
X-179651Y42339D01*
X-179704Y42203D01*
X-179760Y42069D01*
X-179820Y41936D01*
X-179884Y41804D01*
X-179951Y41675D01*
X-180021Y41547D01*
X-180095Y41421D01*
X-180173Y41298D01*
X-180254Y41176D01*
X-180338Y41057D01*
X-180425Y40940D01*
X-180516Y40826D01*
X-180609Y40714D01*
X-180706Y40605D01*
X-180805Y40498D01*
X-180908Y40394D01*
X-181013Y40293D01*
X-181121Y40195D01*
X-181232Y40100D01*
X-181345Y40008D01*
X-181461Y39919D01*
X-181579Y39833D01*
X-181699Y39751D01*
X-181821Y39672D01*
X-181946Y39596D01*
X-182073Y39524D01*
X-182201Y39455D01*
X-182332Y39389D01*
X-182464Y39328D01*
X-182598Y39269D01*
X-182733Y39215D01*
X-182870Y39164D01*
X-183008Y39117D01*
X-183147Y39074D01*
X-183288Y39035D01*
X-183429Y38999D01*
X-183572Y38968D01*
X-183715Y38940D01*
X-183859Y38916D01*
X-184003Y38896D01*
X-184148Y38880D01*
X-184294Y38868D01*
X-184439Y38860D01*
X-184585Y38856D01*
X-184731Y38856D01*
X-184877Y38860D01*
X-185022Y38868D01*
X-185168Y38880D01*
X-185313Y38896D01*
X-185457Y38916D01*
X-185601Y38940D01*
X-185744Y38968D01*
X-185887Y38999D01*
X-186028Y39035D01*
X-186169Y39074D01*
X-186308Y39117D01*
X-186446Y39164D01*
X-186583Y39215D01*
X-186718Y39269D01*
X-186852Y39328D01*
X-186984Y39389D01*
X-187115Y39455D01*
X-187243Y39524D01*
X-187370Y39596D01*
X-187495Y39672D01*
X-187617Y39751D01*
X-187737Y39833D01*
X-187855Y39919D01*
X-187971Y40008D01*
X-188084Y40100D01*
X-188195Y40195D01*
X-188303Y40293D01*
X-188408Y40394D01*
X-188511Y40498D01*
X-188610Y40605D01*
X-188707Y40714D01*
X-188800Y40826D01*
X-188891Y40940D01*
X-188978Y41057D01*
X-189062Y41176D01*
X-189143Y41298D01*
X-189221Y41421D01*
X-189295Y41547D01*
X-189365Y41675D01*
X-189432Y41804D01*
X-189496Y41936D01*
X-189556Y42069D01*
X-189612Y42203D01*
X-189665Y42339D01*
X-189714Y42477D01*
X-189759Y42615D01*
X-189800Y42755D01*
X-189837Y42896D01*
X-189871Y43038D01*
X-189901Y43181D01*
X-189926Y43325D01*
X-189948Y43469D01*
X-189966Y43614D01*
X-189980Y43759D01*
X-189990Y43904D01*
X-189996Y44050D01*
X-189998Y44196D01*
X-164494Y44196D02*
X-164492Y44340D01*
X-164486Y44484D01*
X-164476Y44628D01*
X-164462Y44772D01*
X-164444Y44915D01*
X-164423Y45058D01*
X-164397Y45200D01*
X-164367Y45341D01*
X-164334Y45481D01*
X-164296Y45621D01*
X-164255Y45759D01*
X-164210Y45896D01*
X-164162Y46032D01*
X-164109Y46166D01*
X-164053Y46299D01*
X-163993Y46431D01*
X-163930Y46560D01*
X-163863Y46688D01*
X-163793Y46814D01*
X-163719Y46938D01*
X-163641Y47060D01*
X-163561Y47180D01*
X-163477Y47297D01*
X-163390Y47412D01*
X-163300Y47525D01*
X-163207Y47635D01*
X-163110Y47742D01*
X-163011Y47847D01*
X-162909Y47949D01*
X-162804Y48048D01*
X-162697Y48145D01*
X-162587Y48238D01*
X-162474Y48328D01*
X-162359Y48415D01*
X-162242Y48499D01*
X-162122Y48579D01*
X-162000Y48657D01*
X-161876Y48731D01*
X-161750Y48801D01*
X-161622Y48868D01*
X-161493Y48931D01*
X-161361Y48991D01*
X-161228Y49047D01*
X-161094Y49100D01*
X-160958Y49148D01*
X-160821Y49193D01*
X-160683Y49234D01*
X-160543Y49272D01*
X-160403Y49305D01*
X-160262Y49335D01*
X-160120Y49361D01*
X-159977Y49382D01*
X-159834Y49400D01*
X-159690Y49414D01*
X-159546Y49424D01*
X-159402Y49430D01*
X-159258Y49432D01*
X-159114Y49430D01*
X-158970Y49424D01*
X-158826Y49414D01*
X-158682Y49400D01*
X-158539Y49382D01*
X-158396Y49361D01*
X-158254Y49335D01*
X-158113Y49305D01*
X-157973Y49272D01*
X-157833Y49234D01*
X-157695Y49193D01*
X-157558Y49148D01*
X-157422Y49100D01*
X-157288Y49047D01*
X-157155Y48991D01*
X-157023Y48931D01*
X-156894Y48868D01*
X-156766Y48801D01*
X-156640Y48731D01*
X-156516Y48657D01*
X-156394Y48579D01*
X-156274Y48499D01*
X-156157Y48415D01*
X-156042Y48328D01*
X-155929Y48238D01*
X-155819Y48145D01*
X-155712Y48048D01*
X-155607Y47949D01*
X-155505Y47847D01*
X-155406Y47742D01*
X-155309Y47635D01*
X-155216Y47525D01*
X-155126Y47412D01*
X-155039Y47297D01*
X-154955Y47180D01*
X-154875Y47060D01*
X-154797Y46938D01*
X-154723Y46814D01*
X-154653Y46688D01*
X-154586Y46560D01*
X-154523Y46431D01*
X-154463Y46299D01*
X-154407Y46166D01*
X-154354Y46032D01*
X-154306Y45896D01*
X-154261Y45759D01*
X-154220Y45621D01*
X-154182Y45481D01*
X-154149Y45341D01*
X-154119Y45200D01*
X-154093Y45058D01*
X-154072Y44915D01*
X-154054Y44772D01*
X-154040Y44628D01*
X-154030Y44484D01*
X-154024Y44340D01*
X-154022Y44196D01*
X-154024Y44052D01*
X-154030Y43908D01*
X-154040Y43764D01*
X-154054Y43620D01*
X-154072Y43477D01*
X-154093Y43334D01*
X-154119Y43192D01*
X-154149Y43051D01*
X-154182Y42911D01*
X-154220Y42771D01*
X-154261Y42633D01*
X-154306Y42496D01*
X-154354Y42360D01*
X-154407Y42226D01*
X-154463Y42093D01*
X-154523Y41961D01*
X-154586Y41832D01*
X-154653Y41704D01*
X-154723Y41578D01*
X-154797Y41454D01*
X-154875Y41332D01*
X-154955Y41212D01*
X-155039Y41095D01*
X-155126Y40980D01*
X-155216Y40867D01*
X-155309Y40757D01*
X-155406Y40650D01*
X-155505Y40545D01*
X-155607Y40443D01*
X-155712Y40344D01*
X-155819Y40247D01*
X-155929Y40154D01*
X-156042Y40064D01*
X-156157Y39977D01*
X-156274Y39893D01*
X-156394Y39813D01*
X-156516Y39735D01*
X-156640Y39661D01*
X-156766Y39591D01*
X-156894Y39524D01*
X-157023Y39461D01*
X-157155Y39401D01*
X-157288Y39345D01*
X-157422Y39292D01*
X-157558Y39244D01*
X-157695Y39199D01*
X-157833Y39158D01*
X-157973Y39120D01*
X-158113Y39087D01*
X-158254Y39057D01*
X-158396Y39031D01*
X-158539Y39010D01*
X-158682Y38992D01*
X-158826Y38978D01*
X-158970Y38968D01*
X-159114Y38962D01*
X-159258Y38960D01*
X-159402Y38962D01*
X-159546Y38968D01*
X-159690Y38978D01*
X-159834Y38992D01*
X-159977Y39010D01*
X-160120Y39031D01*
X-160262Y39057D01*
X-160403Y39087D01*
X-160543Y39120D01*
X-160683Y39158D01*
X-160821Y39199D01*
X-160958Y39244D01*
X-161094Y39292D01*
X-161228Y39345D01*
X-161361Y39401D01*
X-161493Y39461D01*
X-161622Y39524D01*
X-161750Y39591D01*
X-161876Y39661D01*
X-162000Y39735D01*
X-162122Y39813D01*
X-162242Y39893D01*
X-162359Y39977D01*
X-162474Y40064D01*
X-162587Y40154D01*
X-162697Y40247D01*
X-162804Y40344D01*
X-162909Y40443D01*
X-163011Y40545D01*
X-163110Y40650D01*
X-163207Y40757D01*
X-163300Y40867D01*
X-163390Y40980D01*
X-163477Y41095D01*
X-163561Y41212D01*
X-163641Y41332D01*
X-163719Y41454D01*
X-163793Y41578D01*
X-163863Y41704D01*
X-163930Y41832D01*
X-163993Y41961D01*
X-164053Y42093D01*
X-164109Y42226D01*
X-164162Y42360D01*
X-164210Y42496D01*
X-164255Y42633D01*
X-164296Y42771D01*
X-164334Y42911D01*
X-164367Y43051D01*
X-164397Y43192D01*
X-164423Y43334D01*
X-164444Y43477D01*
X-164462Y43620D01*
X-164476Y43764D01*
X-164486Y43908D01*
X-164492Y44052D01*
X-164494Y44196D01*
X-189998Y221996D02*
X-189996Y222142D01*
X-189990Y222288D01*
X-189980Y222433D01*
X-189966Y222578D01*
X-189948Y222723D01*
X-189926Y222867D01*
X-189901Y223011D01*
X-189871Y223154D01*
X-189837Y223296D01*
X-189800Y223437D01*
X-189759Y223577D01*
X-189714Y223715D01*
X-189665Y223853D01*
X-189612Y223989D01*
X-189556Y224123D01*
X-189496Y224256D01*
X-189432Y224388D01*
X-189365Y224517D01*
X-189295Y224645D01*
X-189221Y224771D01*
X-189143Y224894D01*
X-189062Y225016D01*
X-188978Y225135D01*
X-188891Y225252D01*
X-188800Y225366D01*
X-188707Y225478D01*
X-188610Y225587D01*
X-188511Y225694D01*
X-188408Y225798D01*
X-188303Y225899D01*
X-188195Y225997D01*
X-188084Y226092D01*
X-187971Y226184D01*
X-187855Y226273D01*
X-187737Y226359D01*
X-187617Y226441D01*
X-187495Y226520D01*
X-187370Y226596D01*
X-187243Y226668D01*
X-187115Y226737D01*
X-186984Y226803D01*
X-186852Y226864D01*
X-186718Y226923D01*
X-186583Y226977D01*
X-186446Y227028D01*
X-186308Y227075D01*
X-186169Y227118D01*
X-186028Y227157D01*
X-185887Y227193D01*
X-185744Y227224D01*
X-185601Y227252D01*
X-185457Y227276D01*
X-185313Y227296D01*
X-185168Y227312D01*
X-185022Y227324D01*
X-184877Y227332D01*
X-184731Y227336D01*
X-184585Y227336D01*
X-184439Y227332D01*
X-184294Y227324D01*
X-184148Y227312D01*
X-184003Y227296D01*
X-183859Y227276D01*
X-183715Y227252D01*
X-183572Y227224D01*
X-183429Y227193D01*
X-183288Y227157D01*
X-183147Y227118D01*
X-183008Y227075D01*
X-182870Y227028D01*
X-182733Y226977D01*
X-182598Y226923D01*
X-182464Y226864D01*
X-182332Y226803D01*
X-182201Y226737D01*
X-182073Y226668D01*
X-181946Y226596D01*
X-181821Y226520D01*
X-181699Y226441D01*
X-181579Y226359D01*
X-181461Y226273D01*
X-181345Y226184D01*
X-181232Y226092D01*
X-181121Y225997D01*
X-181013Y225899D01*
X-180908Y225798D01*
X-180805Y225694D01*
X-180706Y225587D01*
X-180609Y225478D01*
X-180516Y225366D01*
X-180425Y225252D01*
X-180338Y225135D01*
X-180254Y225016D01*
X-180173Y224894D01*
X-180095Y224771D01*
X-180021Y224645D01*
X-179951Y224517D01*
X-179884Y224388D01*
X-179820Y224256D01*
X-179760Y224123D01*
X-179704Y223989D01*
X-179651Y223853D01*
X-179602Y223715D01*
X-179557Y223577D01*
X-179516Y223437D01*
X-179479Y223296D01*
X-179445Y223154D01*
X-179415Y223011D01*
X-179390Y222867D01*
X-179368Y222723D01*
X-179350Y222578D01*
X-179336Y222433D01*
X-179326Y222288D01*
X-179320Y222142D01*
X-179318Y221996D01*
X-179320Y221850D01*
X-179326Y221704D01*
X-179336Y221559D01*
X-179350Y221414D01*
X-179368Y221269D01*
X-179390Y221125D01*
X-179415Y220981D01*
X-179445Y220838D01*
X-179479Y220696D01*
X-179516Y220555D01*
X-179557Y220415D01*
X-179602Y220277D01*
X-179651Y220139D01*
X-179704Y220003D01*
X-179760Y219869D01*
X-179820Y219736D01*
X-179884Y219604D01*
X-179951Y219475D01*
X-180021Y219347D01*
X-180095Y219221D01*
X-180173Y219098D01*
X-180254Y218976D01*
X-180338Y218857D01*
X-180425Y218740D01*
X-180516Y218626D01*
X-180609Y218514D01*
X-180706Y218405D01*
X-180805Y218298D01*
X-180908Y218194D01*
X-181013Y218093D01*
X-181121Y217995D01*
X-181232Y217900D01*
X-181345Y217808D01*
X-181461Y217719D01*
X-181579Y217633D01*
X-181699Y217551D01*
X-181821Y217472D01*
X-181946Y217396D01*
X-182073Y217324D01*
X-182201Y217255D01*
X-182332Y217189D01*
X-182464Y217128D01*
X-182598Y217069D01*
X-182733Y217015D01*
X-182870Y216964D01*
X-183008Y216917D01*
X-183147Y216874D01*
X-183288Y216835D01*
X-183429Y216799D01*
X-183572Y216768D01*
X-183715Y216740D01*
X-183859Y216716D01*
X-184003Y216696D01*
X-184148Y216680D01*
X-184294Y216668D01*
X-184439Y216660D01*
X-184585Y216656D01*
X-184731Y216656D01*
X-184877Y216660D01*
X-185022Y216668D01*
X-185168Y216680D01*
X-185313Y216696D01*
X-185457Y216716D01*
X-185601Y216740D01*
X-185744Y216768D01*
X-185887Y216799D01*
X-186028Y216835D01*
X-186169Y216874D01*
X-186308Y216917D01*
X-186446Y216964D01*
X-186583Y217015D01*
X-186718Y217069D01*
X-186852Y217128D01*
X-186984Y217189D01*
X-187115Y217255D01*
X-187243Y217324D01*
X-187370Y217396D01*
X-187495Y217472D01*
X-187617Y217551D01*
X-187737Y217633D01*
X-187855Y217719D01*
X-187971Y217808D01*
X-188084Y217900D01*
X-188195Y217995D01*
X-188303Y218093D01*
X-188408Y218194D01*
X-188511Y218298D01*
X-188610Y218405D01*
X-188707Y218514D01*
X-188800Y218626D01*
X-188891Y218740D01*
X-188978Y218857D01*
X-189062Y218976D01*
X-189143Y219098D01*
X-189221Y219221D01*
X-189295Y219347D01*
X-189365Y219475D01*
X-189432Y219604D01*
X-189496Y219736D01*
X-189556Y219869D01*
X-189612Y220003D01*
X-189665Y220139D01*
X-189714Y220277D01*
X-189759Y220415D01*
X-189800Y220555D01*
X-189837Y220696D01*
X-189871Y220838D01*
X-189901Y220981D01*
X-189926Y221125D01*
X-189948Y221269D01*
X-189966Y221414D01*
X-189980Y221559D01*
X-189990Y221704D01*
X-189996Y221850D01*
X-189998Y221996D01*
X-164494Y221996D02*
X-164492Y222140D01*
X-164486Y222284D01*
X-164476Y222428D01*
X-164462Y222572D01*
X-164444Y222715D01*
X-164423Y222858D01*
X-164397Y223000D01*
X-164367Y223141D01*
X-164334Y223281D01*
X-164296Y223421D01*
X-164255Y223559D01*
X-164210Y223696D01*
X-164162Y223832D01*
X-164109Y223966D01*
X-164053Y224099D01*
X-163993Y224231D01*
X-163930Y224360D01*
X-163863Y224488D01*
X-163793Y224614D01*
X-163719Y224738D01*
X-163641Y224860D01*
X-163561Y224980D01*
X-163477Y225097D01*
X-163390Y225212D01*
X-163300Y225325D01*
X-163207Y225435D01*
X-163110Y225542D01*
X-163011Y225647D01*
X-162909Y225749D01*
X-162804Y225848D01*
X-162697Y225945D01*
X-162587Y226038D01*
X-162474Y226128D01*
X-162359Y226215D01*
X-162242Y226299D01*
X-162122Y226379D01*
X-162000Y226457D01*
X-161876Y226531D01*
X-161750Y226601D01*
X-161622Y226668D01*
X-161493Y226731D01*
X-161361Y226791D01*
X-161228Y226847D01*
X-161094Y226900D01*
X-160958Y226948D01*
X-160821Y226993D01*
X-160683Y227034D01*
X-160543Y227072D01*
X-160403Y227105D01*
X-160262Y227135D01*
X-160120Y227161D01*
X-159977Y227182D01*
X-159834Y227200D01*
X-159690Y227214D01*
X-159546Y227224D01*
X-159402Y227230D01*
X-159258Y227232D01*
X-159114Y227230D01*
X-158970Y227224D01*
X-158826Y227214D01*
X-158682Y227200D01*
X-158539Y227182D01*
X-158396Y227161D01*
X-158254Y227135D01*
X-158113Y227105D01*
X-157973Y227072D01*
X-157833Y227034D01*
X-157695Y226993D01*
X-157558Y226948D01*
X-157422Y226900D01*
X-157288Y226847D01*
X-157155Y226791D01*
X-157023Y226731D01*
X-156894Y226668D01*
X-156766Y226601D01*
X-156640Y226531D01*
X-156516Y226457D01*
X-156394Y226379D01*
X-156274Y226299D01*
X-156157Y226215D01*
X-156042Y226128D01*
X-155929Y226038D01*
X-155819Y225945D01*
X-155712Y225848D01*
X-155607Y225749D01*
X-155505Y225647D01*
X-155406Y225542D01*
X-155309Y225435D01*
X-155216Y225325D01*
X-155126Y225212D01*
X-155039Y225097D01*
X-154955Y224980D01*
X-154875Y224860D01*
X-154797Y224738D01*
X-154723Y224614D01*
X-154653Y224488D01*
X-154586Y224360D01*
X-154523Y224231D01*
X-154463Y224099D01*
X-154407Y223966D01*
X-154354Y223832D01*
X-154306Y223696D01*
X-154261Y223559D01*
X-154220Y223421D01*
X-154182Y223281D01*
X-154149Y223141D01*
X-154119Y223000D01*
X-154093Y222858D01*
X-154072Y222715D01*
X-154054Y222572D01*
X-154040Y222428D01*
X-154030Y222284D01*
X-154024Y222140D01*
X-154022Y221996D01*
X-154024Y221852D01*
X-154030Y221708D01*
X-154040Y221564D01*
X-154054Y221420D01*
X-154072Y221277D01*
X-154093Y221134D01*
X-154119Y220992D01*
X-154149Y220851D01*
X-154182Y220711D01*
X-154220Y220571D01*
X-154261Y220433D01*
X-154306Y220296D01*
X-154354Y220160D01*
X-154407Y220026D01*
X-154463Y219893D01*
X-154523Y219761D01*
X-154586Y219632D01*
X-154653Y219504D01*
X-154723Y219378D01*
X-154797Y219254D01*
X-154875Y219132D01*
X-154955Y219012D01*
X-155039Y218895D01*
X-155126Y218780D01*
X-155216Y218667D01*
X-155309Y218557D01*
X-155406Y218450D01*
X-155505Y218345D01*
X-155607Y218243D01*
X-155712Y218144D01*
X-155819Y218047D01*
X-155929Y217954D01*
X-156042Y217864D01*
X-156157Y217777D01*
X-156274Y217693D01*
X-156394Y217613D01*
X-156516Y217535D01*
X-156640Y217461D01*
X-156766Y217391D01*
X-156894Y217324D01*
X-157023Y217261D01*
X-157155Y217201D01*
X-157288Y217145D01*
X-157422Y217092D01*
X-157558Y217044D01*
X-157695Y216999D01*
X-157833Y216958D01*
X-157973Y216920D01*
X-158113Y216887D01*
X-158254Y216857D01*
X-158396Y216831D01*
X-158539Y216810D01*
X-158682Y216792D01*
X-158826Y216778D01*
X-158970Y216768D01*
X-159114Y216762D01*
X-159258Y216760D01*
X-159402Y216762D01*
X-159546Y216768D01*
X-159690Y216778D01*
X-159834Y216792D01*
X-159977Y216810D01*
X-160120Y216831D01*
X-160262Y216857D01*
X-160403Y216887D01*
X-160543Y216920D01*
X-160683Y216958D01*
X-160821Y216999D01*
X-160958Y217044D01*
X-161094Y217092D01*
X-161228Y217145D01*
X-161361Y217201D01*
X-161493Y217261D01*
X-161622Y217324D01*
X-161750Y217391D01*
X-161876Y217461D01*
X-162000Y217535D01*
X-162122Y217613D01*
X-162242Y217693D01*
X-162359Y217777D01*
X-162474Y217864D01*
X-162587Y217954D01*
X-162697Y218047D01*
X-162804Y218144D01*
X-162909Y218243D01*
X-163011Y218345D01*
X-163110Y218450D01*
X-163207Y218557D01*
X-163300Y218667D01*
X-163390Y218780D01*
X-163477Y218895D01*
X-163561Y219012D01*
X-163641Y219132D01*
X-163719Y219254D01*
X-163793Y219378D01*
X-163863Y219504D01*
X-163930Y219632D01*
X-163993Y219761D01*
X-164053Y219893D01*
X-164109Y220026D01*
X-164162Y220160D01*
X-164210Y220296D01*
X-164255Y220433D01*
X-164296Y220571D01*
X-164334Y220711D01*
X-164367Y220851D01*
X-164397Y220992D01*
X-164423Y221134D01*
X-164444Y221277D01*
X-164462Y221420D01*
X-164476Y221564D01*
X-164486Y221708D01*
X-164492Y221852D01*
X-164494Y221996D01*
X-189998Y196596D02*
X-189996Y196742D01*
X-189990Y196888D01*
X-189980Y197033D01*
X-189966Y197178D01*
X-189948Y197323D01*
X-189926Y197467D01*
X-189901Y197611D01*
X-189871Y197754D01*
X-189837Y197896D01*
X-189800Y198037D01*
X-189759Y198177D01*
X-189714Y198315D01*
X-189665Y198453D01*
X-189612Y198589D01*
X-189556Y198723D01*
X-189496Y198856D01*
X-189432Y198988D01*
X-189365Y199117D01*
X-189295Y199245D01*
X-189221Y199371D01*
X-189143Y199494D01*
X-189062Y199616D01*
X-188978Y199735D01*
X-188891Y199852D01*
X-188800Y199966D01*
X-188707Y200078D01*
X-188610Y200187D01*
X-188511Y200294D01*
X-188408Y200398D01*
X-188303Y200499D01*
X-188195Y200597D01*
X-188084Y200692D01*
X-187971Y200784D01*
X-187855Y200873D01*
X-187737Y200959D01*
X-187617Y201041D01*
X-187495Y201120D01*
X-187370Y201196D01*
X-187243Y201268D01*
X-187115Y201337D01*
X-186984Y201403D01*
X-186852Y201464D01*
X-186718Y201523D01*
X-186583Y201577D01*
X-186446Y201628D01*
X-186308Y201675D01*
X-186169Y201718D01*
X-186028Y201757D01*
X-185887Y201793D01*
X-185744Y201824D01*
X-185601Y201852D01*
X-185457Y201876D01*
X-185313Y201896D01*
X-185168Y201912D01*
X-185022Y201924D01*
X-184877Y201932D01*
X-184731Y201936D01*
X-184585Y201936D01*
X-184439Y201932D01*
X-184294Y201924D01*
X-184148Y201912D01*
X-184003Y201896D01*
X-183859Y201876D01*
X-183715Y201852D01*
X-183572Y201824D01*
X-183429Y201793D01*
X-183288Y201757D01*
X-183147Y201718D01*
X-183008Y201675D01*
X-182870Y201628D01*
X-182733Y201577D01*
X-182598Y201523D01*
X-182464Y201464D01*
X-182332Y201403D01*
X-182201Y201337D01*
X-182073Y201268D01*
X-181946Y201196D01*
X-181821Y201120D01*
X-181699Y201041D01*
X-181579Y200959D01*
X-181461Y200873D01*
X-181345Y200784D01*
X-181232Y200692D01*
X-181121Y200597D01*
X-181013Y200499D01*
X-180908Y200398D01*
X-180805Y200294D01*
X-180706Y200187D01*
X-180609Y200078D01*
X-180516Y199966D01*
X-180425Y199852D01*
X-180338Y199735D01*
X-180254Y199616D01*
X-180173Y199494D01*
X-180095Y199371D01*
X-180021Y199245D01*
X-179951Y199117D01*
X-179884Y198988D01*
X-179820Y198856D01*
X-179760Y198723D01*
X-179704Y198589D01*
X-179651Y198453D01*
X-179602Y198315D01*
X-179557Y198177D01*
X-179516Y198037D01*
X-179479Y197896D01*
X-179445Y197754D01*
X-179415Y197611D01*
X-179390Y197467D01*
X-179368Y197323D01*
X-179350Y197178D01*
X-179336Y197033D01*
X-179326Y196888D01*
X-179320Y196742D01*
X-179318Y196596D01*
X-179320Y196450D01*
X-179326Y196304D01*
X-179336Y196159D01*
X-179350Y196014D01*
X-179368Y195869D01*
X-179390Y195725D01*
X-179415Y195581D01*
X-179445Y195438D01*
X-179479Y195296D01*
X-179516Y195155D01*
X-179557Y195015D01*
X-179602Y194877D01*
X-179651Y194739D01*
X-179704Y194603D01*
X-179760Y194469D01*
X-179820Y194336D01*
X-179884Y194204D01*
X-179951Y194075D01*
X-180021Y193947D01*
X-180095Y193821D01*
X-180173Y193698D01*
X-180254Y193576D01*
X-180338Y193457D01*
X-180425Y193340D01*
X-180516Y193226D01*
X-180609Y193114D01*
X-180706Y193005D01*
X-180805Y192898D01*
X-180908Y192794D01*
X-181013Y192693D01*
X-181121Y192595D01*
X-181232Y192500D01*
X-181345Y192408D01*
X-181461Y192319D01*
X-181579Y192233D01*
X-181699Y192151D01*
X-181821Y192072D01*
X-181946Y191996D01*
X-182073Y191924D01*
X-182201Y191855D01*
X-182332Y191789D01*
X-182464Y191728D01*
X-182598Y191669D01*
X-182733Y191615D01*
X-182870Y191564D01*
X-183008Y191517D01*
X-183147Y191474D01*
X-183288Y191435D01*
X-183429Y191399D01*
X-183572Y191368D01*
X-183715Y191340D01*
X-183859Y191316D01*
X-184003Y191296D01*
X-184148Y191280D01*
X-184294Y191268D01*
X-184439Y191260D01*
X-184585Y191256D01*
X-184731Y191256D01*
X-184877Y191260D01*
X-185022Y191268D01*
X-185168Y191280D01*
X-185313Y191296D01*
X-185457Y191316D01*
X-185601Y191340D01*
X-185744Y191368D01*
X-185887Y191399D01*
X-186028Y191435D01*
X-186169Y191474D01*
X-186308Y191517D01*
X-186446Y191564D01*
X-186583Y191615D01*
X-186718Y191669D01*
X-186852Y191728D01*
X-186984Y191789D01*
X-187115Y191855D01*
X-187243Y191924D01*
X-187370Y191996D01*
X-187495Y192072D01*
X-187617Y192151D01*
X-187737Y192233D01*
X-187855Y192319D01*
X-187971Y192408D01*
X-188084Y192500D01*
X-188195Y192595D01*
X-188303Y192693D01*
X-188408Y192794D01*
X-188511Y192898D01*
X-188610Y193005D01*
X-188707Y193114D01*
X-188800Y193226D01*
X-188891Y193340D01*
X-188978Y193457D01*
X-189062Y193576D01*
X-189143Y193698D01*
X-189221Y193821D01*
X-189295Y193947D01*
X-189365Y194075D01*
X-189432Y194204D01*
X-189496Y194336D01*
X-189556Y194469D01*
X-189612Y194603D01*
X-189665Y194739D01*
X-189714Y194877D01*
X-189759Y195015D01*
X-189800Y195155D01*
X-189837Y195296D01*
X-189871Y195438D01*
X-189901Y195581D01*
X-189926Y195725D01*
X-189948Y195869D01*
X-189966Y196014D01*
X-189980Y196159D01*
X-189990Y196304D01*
X-189996Y196450D01*
X-189998Y196596D01*
X-164494Y196596D02*
X-164492Y196740D01*
X-164486Y196884D01*
X-164476Y197028D01*
X-164462Y197172D01*
X-164444Y197315D01*
X-164423Y197458D01*
X-164397Y197600D01*
X-164367Y197741D01*
X-164334Y197881D01*
X-164296Y198021D01*
X-164255Y198159D01*
X-164210Y198296D01*
X-164162Y198432D01*
X-164109Y198566D01*
X-164053Y198699D01*
X-163993Y198831D01*
X-163930Y198960D01*
X-163863Y199088D01*
X-163793Y199214D01*
X-163719Y199338D01*
X-163641Y199460D01*
X-163561Y199580D01*
X-163477Y199697D01*
X-163390Y199812D01*
X-163300Y199925D01*
X-163207Y200035D01*
X-163110Y200142D01*
X-163011Y200247D01*
X-162909Y200349D01*
X-162804Y200448D01*
X-162697Y200545D01*
X-162587Y200638D01*
X-162474Y200728D01*
X-162359Y200815D01*
X-162242Y200899D01*
X-162122Y200979D01*
X-162000Y201057D01*
X-161876Y201131D01*
X-161750Y201201D01*
X-161622Y201268D01*
X-161493Y201331D01*
X-161361Y201391D01*
X-161228Y201447D01*
X-161094Y201500D01*
X-160958Y201548D01*
X-160821Y201593D01*
X-160683Y201634D01*
X-160543Y201672D01*
X-160403Y201705D01*
X-160262Y201735D01*
X-160120Y201761D01*
X-159977Y201782D01*
X-159834Y201800D01*
X-159690Y201814D01*
X-159546Y201824D01*
X-159402Y201830D01*
X-159258Y201832D01*
X-159114Y201830D01*
X-158970Y201824D01*
X-158826Y201814D01*
X-158682Y201800D01*
X-158539Y201782D01*
X-158396Y201761D01*
X-158254Y201735D01*
X-158113Y201705D01*
X-157973Y201672D01*
X-157833Y201634D01*
X-157695Y201593D01*
X-157558Y201548D01*
X-157422Y201500D01*
X-157288Y201447D01*
X-157155Y201391D01*
X-157023Y201331D01*
X-156894Y201268D01*
X-156766Y201201D01*
X-156640Y201131D01*
X-156516Y201057D01*
X-156394Y200979D01*
X-156274Y200899D01*
X-156157Y200815D01*
X-156042Y200728D01*
X-155929Y200638D01*
X-155819Y200545D01*
X-155712Y200448D01*
X-155607Y200349D01*
X-155505Y200247D01*
X-155406Y200142D01*
X-155309Y200035D01*
X-155216Y199925D01*
X-155126Y199812D01*
X-155039Y199697D01*
X-154955Y199580D01*
X-154875Y199460D01*
X-154797Y199338D01*
X-154723Y199214D01*
X-154653Y199088D01*
X-154586Y198960D01*
X-154523Y198831D01*
X-154463Y198699D01*
X-154407Y198566D01*
X-154354Y198432D01*
X-154306Y198296D01*
X-154261Y198159D01*
X-154220Y198021D01*
X-154182Y197881D01*
X-154149Y197741D01*
X-154119Y197600D01*
X-154093Y197458D01*
X-154072Y197315D01*
X-154054Y197172D01*
X-154040Y197028D01*
X-154030Y196884D01*
X-154024Y196740D01*
X-154022Y196596D01*
X-154024Y196452D01*
X-154030Y196308D01*
X-154040Y196164D01*
X-154054Y196020D01*
X-154072Y195877D01*
X-154093Y195734D01*
X-154119Y195592D01*
X-154149Y195451D01*
X-154182Y195311D01*
X-154220Y195171D01*
X-154261Y195033D01*
X-154306Y194896D01*
X-154354Y194760D01*
X-154407Y194626D01*
X-154463Y194493D01*
X-154523Y194361D01*
X-154586Y194232D01*
X-154653Y194104D01*
X-154723Y193978D01*
X-154797Y193854D01*
X-154875Y193732D01*
X-154955Y193612D01*
X-155039Y193495D01*
X-155126Y193380D01*
X-155216Y193267D01*
X-155309Y193157D01*
X-155406Y193050D01*
X-155505Y192945D01*
X-155607Y192843D01*
X-155712Y192744D01*
X-155819Y192647D01*
X-155929Y192554D01*
X-156042Y192464D01*
X-156157Y192377D01*
X-156274Y192293D01*
X-156394Y192213D01*
X-156516Y192135D01*
X-156640Y192061D01*
X-156766Y191991D01*
X-156894Y191924D01*
X-157023Y191861D01*
X-157155Y191801D01*
X-157288Y191745D01*
X-157422Y191692D01*
X-157558Y191644D01*
X-157695Y191599D01*
X-157833Y191558D01*
X-157973Y191520D01*
X-158113Y191487D01*
X-158254Y191457D01*
X-158396Y191431D01*
X-158539Y191410D01*
X-158682Y191392D01*
X-158826Y191378D01*
X-158970Y191368D01*
X-159114Y191362D01*
X-159258Y191360D01*
X-159402Y191362D01*
X-159546Y191368D01*
X-159690Y191378D01*
X-159834Y191392D01*
X-159977Y191410D01*
X-160120Y191431D01*
X-160262Y191457D01*
X-160403Y191487D01*
X-160543Y191520D01*
X-160683Y191558D01*
X-160821Y191599D01*
X-160958Y191644D01*
X-161094Y191692D01*
X-161228Y191745D01*
X-161361Y191801D01*
X-161493Y191861D01*
X-161622Y191924D01*
X-161750Y191991D01*
X-161876Y192061D01*
X-162000Y192135D01*
X-162122Y192213D01*
X-162242Y192293D01*
X-162359Y192377D01*
X-162474Y192464D01*
X-162587Y192554D01*
X-162697Y192647D01*
X-162804Y192744D01*
X-162909Y192843D01*
X-163011Y192945D01*
X-163110Y193050D01*
X-163207Y193157D01*
X-163300Y193267D01*
X-163390Y193380D01*
X-163477Y193495D01*
X-163561Y193612D01*
X-163641Y193732D01*
X-163719Y193854D01*
X-163793Y193978D01*
X-163863Y194104D01*
X-163930Y194232D01*
X-163993Y194361D01*
X-164053Y194493D01*
X-164109Y194626D01*
X-164162Y194760D01*
X-164210Y194896D01*
X-164255Y195033D01*
X-164296Y195171D01*
X-164334Y195311D01*
X-164367Y195451D01*
X-164397Y195592D01*
X-164423Y195734D01*
X-164444Y195877D01*
X-164462Y196020D01*
X-164476Y196164D01*
X-164486Y196308D01*
X-164492Y196452D01*
X-164494Y196596D01*
X-189998Y171196D02*
X-189996Y171342D01*
X-189990Y171488D01*
X-189980Y171633D01*
X-189966Y171778D01*
X-189948Y171923D01*
X-189926Y172067D01*
X-189901Y172211D01*
X-189871Y172354D01*
X-189837Y172496D01*
X-189800Y172637D01*
X-189759Y172777D01*
X-189714Y172915D01*
X-189665Y173053D01*
X-189612Y173189D01*
X-189556Y173323D01*
X-189496Y173456D01*
X-189432Y173588D01*
X-189365Y173717D01*
X-189295Y173845D01*
X-189221Y173971D01*
X-189143Y174094D01*
X-189062Y174216D01*
X-188978Y174335D01*
X-188891Y174452D01*
X-188800Y174566D01*
X-188707Y174678D01*
X-188610Y174787D01*
X-188511Y174894D01*
X-188408Y174998D01*
X-188303Y175099D01*
X-188195Y175197D01*
X-188084Y175292D01*
X-187971Y175384D01*
X-187855Y175473D01*
X-187737Y175559D01*
X-187617Y175641D01*
X-187495Y175720D01*
X-187370Y175796D01*
X-187243Y175868D01*
X-187115Y175937D01*
X-186984Y176003D01*
X-186852Y176064D01*
X-186718Y176123D01*
X-186583Y176177D01*
X-186446Y176228D01*
X-186308Y176275D01*
X-186169Y176318D01*
X-186028Y176357D01*
X-185887Y176393D01*
X-185744Y176424D01*
X-185601Y176452D01*
X-185457Y176476D01*
X-185313Y176496D01*
X-185168Y176512D01*
X-185022Y176524D01*
X-184877Y176532D01*
X-184731Y176536D01*
X-184585Y176536D01*
X-184439Y176532D01*
X-184294Y176524D01*
X-184148Y176512D01*
X-184003Y176496D01*
X-183859Y176476D01*
X-183715Y176452D01*
X-183572Y176424D01*
X-183429Y176393D01*
X-183288Y176357D01*
X-183147Y176318D01*
X-183008Y176275D01*
X-182870Y176228D01*
X-182733Y176177D01*
X-182598Y176123D01*
X-182464Y176064D01*
X-182332Y176003D01*
X-182201Y175937D01*
X-182073Y175868D01*
X-181946Y175796D01*
X-181821Y175720D01*
X-181699Y175641D01*
X-181579Y175559D01*
X-181461Y175473D01*
X-181345Y175384D01*
X-181232Y175292D01*
X-181121Y175197D01*
X-181013Y175099D01*
X-180908Y174998D01*
X-180805Y174894D01*
X-180706Y174787D01*
X-180609Y174678D01*
X-180516Y174566D01*
X-180425Y174452D01*
X-180338Y174335D01*
X-180254Y174216D01*
X-180173Y174094D01*
X-180095Y173971D01*
X-180021Y173845D01*
X-179951Y173717D01*
X-179884Y173588D01*
X-179820Y173456D01*
X-179760Y173323D01*
X-179704Y173189D01*
X-179651Y173053D01*
X-179602Y172915D01*
X-179557Y172777D01*
X-179516Y172637D01*
X-179479Y172496D01*
X-179445Y172354D01*
X-179415Y172211D01*
X-179390Y172067D01*
X-179368Y171923D01*
X-179350Y171778D01*
X-179336Y171633D01*
X-179326Y171488D01*
X-179320Y171342D01*
X-179318Y171196D01*
X-179320Y171050D01*
X-179326Y170904D01*
X-179336Y170759D01*
X-179350Y170614D01*
X-179368Y170469D01*
X-179390Y170325D01*
X-179415Y170181D01*
X-179445Y170038D01*
X-179479Y169896D01*
X-179516Y169755D01*
X-179557Y169615D01*
X-179602Y169477D01*
X-179651Y169339D01*
X-179704Y169203D01*
X-179760Y169069D01*
X-179820Y168936D01*
X-179884Y168804D01*
X-179951Y168675D01*
X-180021Y168547D01*
X-180095Y168421D01*
X-180173Y168298D01*
X-180254Y168176D01*
X-180338Y168057D01*
X-180425Y167940D01*
X-180516Y167826D01*
X-180609Y167714D01*
X-180706Y167605D01*
X-180805Y167498D01*
X-180908Y167394D01*
X-181013Y167293D01*
X-181121Y167195D01*
X-181232Y167100D01*
X-181345Y167008D01*
X-181461Y166919D01*
X-181579Y166833D01*
X-181699Y166751D01*
X-181821Y166672D01*
X-181946Y166596D01*
X-182073Y166524D01*
X-182201Y166455D01*
X-182332Y166389D01*
X-182464Y166328D01*
X-182598Y166269D01*
X-182733Y166215D01*
X-182870Y166164D01*
X-183008Y166117D01*
X-183147Y166074D01*
X-183288Y166035D01*
X-183429Y165999D01*
X-183572Y165968D01*
X-183715Y165940D01*
X-183859Y165916D01*
X-184003Y165896D01*
X-184148Y165880D01*
X-184294Y165868D01*
X-184439Y165860D01*
X-184585Y165856D01*
X-184731Y165856D01*
X-184877Y165860D01*
X-185022Y165868D01*
X-185168Y165880D01*
X-185313Y165896D01*
X-185457Y165916D01*
X-185601Y165940D01*
X-185744Y165968D01*
X-185887Y165999D01*
X-186028Y166035D01*
X-186169Y166074D01*
X-186308Y166117D01*
X-186446Y166164D01*
X-186583Y166215D01*
X-186718Y166269D01*
X-186852Y166328D01*
X-186984Y166389D01*
X-187115Y166455D01*
X-187243Y166524D01*
X-187370Y166596D01*
X-187495Y166672D01*
X-187617Y166751D01*
X-187737Y166833D01*
X-187855Y166919D01*
X-187971Y167008D01*
X-188084Y167100D01*
X-188195Y167195D01*
X-188303Y167293D01*
X-188408Y167394D01*
X-188511Y167498D01*
X-188610Y167605D01*
X-188707Y167714D01*
X-188800Y167826D01*
X-188891Y167940D01*
X-188978Y168057D01*
X-189062Y168176D01*
X-189143Y168298D01*
X-189221Y168421D01*
X-189295Y168547D01*
X-189365Y168675D01*
X-189432Y168804D01*
X-189496Y168936D01*
X-189556Y169069D01*
X-189612Y169203D01*
X-189665Y169339D01*
X-189714Y169477D01*
X-189759Y169615D01*
X-189800Y169755D01*
X-189837Y169896D01*
X-189871Y170038D01*
X-189901Y170181D01*
X-189926Y170325D01*
X-189948Y170469D01*
X-189966Y170614D01*
X-189980Y170759D01*
X-189990Y170904D01*
X-189996Y171050D01*
X-189998Y171196D01*
X-164494Y171196D02*
X-164492Y171340D01*
X-164486Y171484D01*
X-164476Y171628D01*
X-164462Y171772D01*
X-164444Y171915D01*
X-164423Y172058D01*
X-164397Y172200D01*
X-164367Y172341D01*
X-164334Y172481D01*
X-164296Y172621D01*
X-164255Y172759D01*
X-164210Y172896D01*
X-164162Y173032D01*
X-164109Y173166D01*
X-164053Y173299D01*
X-163993Y173431D01*
X-163930Y173560D01*
X-163863Y173688D01*
X-163793Y173814D01*
X-163719Y173938D01*
X-163641Y174060D01*
X-163561Y174180D01*
X-163477Y174297D01*
X-163390Y174412D01*
X-163300Y174525D01*
X-163207Y174635D01*
X-163110Y174742D01*
X-163011Y174847D01*
X-162909Y174949D01*
X-162804Y175048D01*
X-162697Y175145D01*
X-162587Y175238D01*
X-162474Y175328D01*
X-162359Y175415D01*
X-162242Y175499D01*
X-162122Y175579D01*
X-162000Y175657D01*
X-161876Y175731D01*
X-161750Y175801D01*
X-161622Y175868D01*
X-161493Y175931D01*
X-161361Y175991D01*
X-161228Y176047D01*
X-161094Y176100D01*
X-160958Y176148D01*
X-160821Y176193D01*
X-160683Y176234D01*
X-160543Y176272D01*
X-160403Y176305D01*
X-160262Y176335D01*
X-160120Y176361D01*
X-159977Y176382D01*
X-159834Y176400D01*
X-159690Y176414D01*
X-159546Y176424D01*
X-159402Y176430D01*
X-159258Y176432D01*
X-159114Y176430D01*
X-158970Y176424D01*
X-158826Y176414D01*
X-158682Y176400D01*
X-158539Y176382D01*
X-158396Y176361D01*
X-158254Y176335D01*
X-158113Y176305D01*
X-157973Y176272D01*
X-157833Y176234D01*
X-157695Y176193D01*
X-157558Y176148D01*
X-157422Y176100D01*
X-157288Y176047D01*
X-157155Y175991D01*
X-157023Y175931D01*
X-156894Y175868D01*
X-156766Y175801D01*
X-156640Y175731D01*
X-156516Y175657D01*
X-156394Y175579D01*
X-156274Y175499D01*
X-156157Y175415D01*
X-156042Y175328D01*
X-155929Y175238D01*
X-155819Y175145D01*
X-155712Y175048D01*
X-155607Y174949D01*
X-155505Y174847D01*
X-155406Y174742D01*
X-155309Y174635D01*
X-155216Y174525D01*
X-155126Y174412D01*
X-155039Y174297D01*
X-154955Y174180D01*
X-154875Y174060D01*
X-154797Y173938D01*
X-154723Y173814D01*
X-154653Y173688D01*
X-154586Y173560D01*
X-154523Y173431D01*
X-154463Y173299D01*
X-154407Y173166D01*
X-154354Y173032D01*
X-154306Y172896D01*
X-154261Y172759D01*
X-154220Y172621D01*
X-154182Y172481D01*
X-154149Y172341D01*
X-154119Y172200D01*
X-154093Y172058D01*
X-154072Y171915D01*
X-154054Y171772D01*
X-154040Y171628D01*
X-154030Y171484D01*
X-154024Y171340D01*
X-154022Y171196D01*
X-154024Y171052D01*
X-154030Y170908D01*
X-154040Y170764D01*
X-154054Y170620D01*
X-154072Y170477D01*
X-154093Y170334D01*
X-154119Y170192D01*
X-154149Y170051D01*
X-154182Y169911D01*
X-154220Y169771D01*
X-154261Y169633D01*
X-154306Y169496D01*
X-154354Y169360D01*
X-154407Y169226D01*
X-154463Y169093D01*
X-154523Y168961D01*
X-154586Y168832D01*
X-154653Y168704D01*
X-154723Y168578D01*
X-154797Y168454D01*
X-154875Y168332D01*
X-154955Y168212D01*
X-155039Y168095D01*
X-155126Y167980D01*
X-155216Y167867D01*
X-155309Y167757D01*
X-155406Y167650D01*
X-155505Y167545D01*
X-155607Y167443D01*
X-155712Y167344D01*
X-155819Y167247D01*
X-155929Y167154D01*
X-156042Y167064D01*
X-156157Y166977D01*
X-156274Y166893D01*
X-156394Y166813D01*
X-156516Y166735D01*
X-156640Y166661D01*
X-156766Y166591D01*
X-156894Y166524D01*
X-157023Y166461D01*
X-157155Y166401D01*
X-157288Y166345D01*
X-157422Y166292D01*
X-157558Y166244D01*
X-157695Y166199D01*
X-157833Y166158D01*
X-157973Y166120D01*
X-158113Y166087D01*
X-158254Y166057D01*
X-158396Y166031D01*
X-158539Y166010D01*
X-158682Y165992D01*
X-158826Y165978D01*
X-158970Y165968D01*
X-159114Y165962D01*
X-159258Y165960D01*
X-159402Y165962D01*
X-159546Y165968D01*
X-159690Y165978D01*
X-159834Y165992D01*
X-159977Y166010D01*
X-160120Y166031D01*
X-160262Y166057D01*
X-160403Y166087D01*
X-160543Y166120D01*
X-160683Y166158D01*
X-160821Y166199D01*
X-160958Y166244D01*
X-161094Y166292D01*
X-161228Y166345D01*
X-161361Y166401D01*
X-161493Y166461D01*
X-161622Y166524D01*
X-161750Y166591D01*
X-161876Y166661D01*
X-162000Y166735D01*
X-162122Y166813D01*
X-162242Y166893D01*
X-162359Y166977D01*
X-162474Y167064D01*
X-162587Y167154D01*
X-162697Y167247D01*
X-162804Y167344D01*
X-162909Y167443D01*
X-163011Y167545D01*
X-163110Y167650D01*
X-163207Y167757D01*
X-163300Y167867D01*
X-163390Y167980D01*
X-163477Y168095D01*
X-163561Y168212D01*
X-163641Y168332D01*
X-163719Y168454D01*
X-163793Y168578D01*
X-163863Y168704D01*
X-163930Y168832D01*
X-163993Y168961D01*
X-164053Y169093D01*
X-164109Y169226D01*
X-164162Y169360D01*
X-164210Y169496D01*
X-164255Y169633D01*
X-164296Y169771D01*
X-164334Y169911D01*
X-164367Y170051D01*
X-164397Y170192D01*
X-164423Y170334D01*
X-164444Y170477D01*
X-164462Y170620D01*
X-164476Y170764D01*
X-164486Y170908D01*
X-164492Y171052D01*
X-164494Y171196D01*
X-189998Y145796D02*
X-189996Y145942D01*
X-189990Y146088D01*
X-189980Y146233D01*
X-189966Y146378D01*
X-189948Y146523D01*
X-189926Y146667D01*
X-189901Y146811D01*
X-189871Y146954D01*
X-189837Y147096D01*
X-189800Y147237D01*
X-189759Y147377D01*
X-189714Y147515D01*
X-189665Y147653D01*
X-189612Y147789D01*
X-189556Y147923D01*
X-189496Y148056D01*
X-189432Y148188D01*
X-189365Y148317D01*
X-189295Y148445D01*
X-189221Y148571D01*
X-189143Y148694D01*
X-189062Y148816D01*
X-188978Y148935D01*
X-188891Y149052D01*
X-188800Y149166D01*
X-188707Y149278D01*
X-188610Y149387D01*
X-188511Y149494D01*
X-188408Y149598D01*
X-188303Y149699D01*
X-188195Y149797D01*
X-188084Y149892D01*
X-187971Y149984D01*
X-187855Y150073D01*
X-187737Y150159D01*
X-187617Y150241D01*
X-187495Y150320D01*
X-187370Y150396D01*
X-187243Y150468D01*
X-187115Y150537D01*
X-186984Y150603D01*
X-186852Y150664D01*
X-186718Y150723D01*
X-186583Y150777D01*
X-186446Y150828D01*
X-186308Y150875D01*
X-186169Y150918D01*
X-186028Y150957D01*
X-185887Y150993D01*
X-185744Y151024D01*
X-185601Y151052D01*
X-185457Y151076D01*
X-185313Y151096D01*
X-185168Y151112D01*
X-185022Y151124D01*
X-184877Y151132D01*
X-184731Y151136D01*
X-184585Y151136D01*
X-184439Y151132D01*
X-184294Y151124D01*
X-184148Y151112D01*
X-184003Y151096D01*
X-183859Y151076D01*
X-183715Y151052D01*
X-183572Y151024D01*
X-183429Y150993D01*
X-183288Y150957D01*
X-183147Y150918D01*
X-183008Y150875D01*
X-182870Y150828D01*
X-182733Y150777D01*
X-182598Y150723D01*
X-182464Y150664D01*
X-182332Y150603D01*
X-182201Y150537D01*
X-182073Y150468D01*
X-181946Y150396D01*
X-181821Y150320D01*
X-181699Y150241D01*
X-181579Y150159D01*
X-181461Y150073D01*
X-181345Y149984D01*
X-181232Y149892D01*
X-181121Y149797D01*
X-181013Y149699D01*
X-180908Y149598D01*
X-180805Y149494D01*
X-180706Y149387D01*
X-180609Y149278D01*
X-180516Y149166D01*
X-180425Y149052D01*
X-180338Y148935D01*
X-180254Y148816D01*
X-180173Y148694D01*
X-180095Y148571D01*
X-180021Y148445D01*
X-179951Y148317D01*
X-179884Y148188D01*
X-179820Y148056D01*
X-179760Y147923D01*
X-179704Y147789D01*
X-179651Y147653D01*
X-179602Y147515D01*
X-179557Y147377D01*
X-179516Y147237D01*
X-179479Y147096D01*
X-179445Y146954D01*
X-179415Y146811D01*
X-179390Y146667D01*
X-179368Y146523D01*
X-179350Y146378D01*
X-179336Y146233D01*
X-179326Y146088D01*
X-179320Y145942D01*
X-179318Y145796D01*
X-179320Y145650D01*
X-179326Y145504D01*
X-179336Y145359D01*
X-179350Y145214D01*
X-179368Y145069D01*
X-179390Y144925D01*
X-179415Y144781D01*
X-179445Y144638D01*
X-179479Y144496D01*
X-179516Y144355D01*
X-179557Y144215D01*
X-179602Y144077D01*
X-179651Y143939D01*
X-179704Y143803D01*
X-179760Y143669D01*
X-179820Y143536D01*
X-179884Y143404D01*
X-179951Y143275D01*
X-180021Y143147D01*
X-180095Y143021D01*
X-180173Y142898D01*
X-180254Y142776D01*
X-180338Y142657D01*
X-180425Y142540D01*
X-180516Y142426D01*
X-180609Y142314D01*
X-180706Y142205D01*
X-180805Y142098D01*
X-180908Y141994D01*
X-181013Y141893D01*
X-181121Y141795D01*
X-181232Y141700D01*
X-181345Y141608D01*
X-181461Y141519D01*
X-181579Y141433D01*
X-181699Y141351D01*
X-181821Y141272D01*
X-181946Y141196D01*
X-182073Y141124D01*
X-182201Y141055D01*
X-182332Y140989D01*
X-182464Y140928D01*
X-182598Y140869D01*
X-182733Y140815D01*
X-182870Y140764D01*
X-183008Y140717D01*
X-183147Y140674D01*
X-183288Y140635D01*
X-183429Y140599D01*
X-183572Y140568D01*
X-183715Y140540D01*
X-183859Y140516D01*
X-184003Y140496D01*
X-184148Y140480D01*
X-184294Y140468D01*
X-184439Y140460D01*
X-184585Y140456D01*
X-184731Y140456D01*
X-184877Y140460D01*
X-185022Y140468D01*
X-185168Y140480D01*
X-185313Y140496D01*
X-185457Y140516D01*
X-185601Y140540D01*
X-185744Y140568D01*
X-185887Y140599D01*
X-186028Y140635D01*
X-186169Y140674D01*
X-186308Y140717D01*
X-186446Y140764D01*
X-186583Y140815D01*
X-186718Y140869D01*
X-186852Y140928D01*
X-186984Y140989D01*
X-187115Y141055D01*
X-187243Y141124D01*
X-187370Y141196D01*
X-187495Y141272D01*
X-187617Y141351D01*
X-187737Y141433D01*
X-187855Y141519D01*
X-187971Y141608D01*
X-188084Y141700D01*
X-188195Y141795D01*
X-188303Y141893D01*
X-188408Y141994D01*
X-188511Y142098D01*
X-188610Y142205D01*
X-188707Y142314D01*
X-188800Y142426D01*
X-188891Y142540D01*
X-188978Y142657D01*
X-189062Y142776D01*
X-189143Y142898D01*
X-189221Y143021D01*
X-189295Y143147D01*
X-189365Y143275D01*
X-189432Y143404D01*
X-189496Y143536D01*
X-189556Y143669D01*
X-189612Y143803D01*
X-189665Y143939D01*
X-189714Y144077D01*
X-189759Y144215D01*
X-189800Y144355D01*
X-189837Y144496D01*
X-189871Y144638D01*
X-189901Y144781D01*
X-189926Y144925D01*
X-189948Y145069D01*
X-189966Y145214D01*
X-189980Y145359D01*
X-189990Y145504D01*
X-189996Y145650D01*
X-189998Y145796D01*
X-164494Y145796D02*
X-164492Y145940D01*
X-164486Y146084D01*
X-164476Y146228D01*
X-164462Y146372D01*
X-164444Y146515D01*
X-164423Y146658D01*
X-164397Y146800D01*
X-164367Y146941D01*
X-164334Y147081D01*
X-164296Y147221D01*
X-164255Y147359D01*
X-164210Y147496D01*
X-164162Y147632D01*
X-164109Y147766D01*
X-164053Y147899D01*
X-163993Y148031D01*
X-163930Y148160D01*
X-163863Y148288D01*
X-163793Y148414D01*
X-163719Y148538D01*
X-163641Y148660D01*
X-163561Y148780D01*
X-163477Y148897D01*
X-163390Y149012D01*
X-163300Y149125D01*
X-163207Y149235D01*
X-163110Y149342D01*
X-163011Y149447D01*
X-162909Y149549D01*
X-162804Y149648D01*
X-162697Y149745D01*
X-162587Y149838D01*
X-162474Y149928D01*
X-162359Y150015D01*
X-162242Y150099D01*
X-162122Y150179D01*
X-162000Y150257D01*
X-161876Y150331D01*
X-161750Y150401D01*
X-161622Y150468D01*
X-161493Y150531D01*
X-161361Y150591D01*
X-161228Y150647D01*
X-161094Y150700D01*
X-160958Y150748D01*
X-160821Y150793D01*
X-160683Y150834D01*
X-160543Y150872D01*
X-160403Y150905D01*
X-160262Y150935D01*
X-160120Y150961D01*
X-159977Y150982D01*
X-159834Y151000D01*
X-159690Y151014D01*
X-159546Y151024D01*
X-159402Y151030D01*
X-159258Y151032D01*
X-159114Y151030D01*
X-158970Y151024D01*
X-158826Y151014D01*
X-158682Y151000D01*
X-158539Y150982D01*
X-158396Y150961D01*
X-158254Y150935D01*
X-158113Y150905D01*
X-157973Y150872D01*
X-157833Y150834D01*
X-157695Y150793D01*
X-157558Y150748D01*
X-157422Y150700D01*
X-157288Y150647D01*
X-157155Y150591D01*
X-157023Y150531D01*
X-156894Y150468D01*
X-156766Y150401D01*
X-156640Y150331D01*
X-156516Y150257D01*
X-156394Y150179D01*
X-156274Y150099D01*
X-156157Y150015D01*
X-156042Y149928D01*
X-155929Y149838D01*
X-155819Y149745D01*
X-155712Y149648D01*
X-155607Y149549D01*
X-155505Y149447D01*
X-155406Y149342D01*
X-155309Y149235D01*
X-155216Y149125D01*
X-155126Y149012D01*
X-155039Y148897D01*
X-154955Y148780D01*
X-154875Y148660D01*
X-154797Y148538D01*
X-154723Y148414D01*
X-154653Y148288D01*
X-154586Y148160D01*
X-154523Y148031D01*
X-154463Y147899D01*
X-154407Y147766D01*
X-154354Y147632D01*
X-154306Y147496D01*
X-154261Y147359D01*
X-154220Y147221D01*
X-154182Y147081D01*
X-154149Y146941D01*
X-154119Y146800D01*
X-154093Y146658D01*
X-154072Y146515D01*
X-154054Y146372D01*
X-154040Y146228D01*
X-154030Y146084D01*
X-154024Y145940D01*
X-154022Y145796D01*
X-154024Y145652D01*
X-154030Y145508D01*
X-154040Y145364D01*
X-154054Y145220D01*
X-154072Y145077D01*
X-154093Y144934D01*
X-154119Y144792D01*
X-154149Y144651D01*
X-154182Y144511D01*
X-154220Y144371D01*
X-154261Y144233D01*
X-154306Y144096D01*
X-154354Y143960D01*
X-154407Y143826D01*
X-154463Y143693D01*
X-154523Y143561D01*
X-154586Y143432D01*
X-154653Y143304D01*
X-154723Y143178D01*
X-154797Y143054D01*
X-154875Y142932D01*
X-154955Y142812D01*
X-155039Y142695D01*
X-155126Y142580D01*
X-155216Y142467D01*
X-155309Y142357D01*
X-155406Y142250D01*
X-155505Y142145D01*
X-155607Y142043D01*
X-155712Y141944D01*
X-155819Y141847D01*
X-155929Y141754D01*
X-156042Y141664D01*
X-156157Y141577D01*
X-156274Y141493D01*
X-156394Y141413D01*
X-156516Y141335D01*
X-156640Y141261D01*
X-156766Y141191D01*
X-156894Y141124D01*
X-157023Y141061D01*
X-157155Y141001D01*
X-157288Y140945D01*
X-157422Y140892D01*
X-157558Y140844D01*
X-157695Y140799D01*
X-157833Y140758D01*
X-157973Y140720D01*
X-158113Y140687D01*
X-158254Y140657D01*
X-158396Y140631D01*
X-158539Y140610D01*
X-158682Y140592D01*
X-158826Y140578D01*
X-158970Y140568D01*
X-159114Y140562D01*
X-159258Y140560D01*
X-159402Y140562D01*
X-159546Y140568D01*
X-159690Y140578D01*
X-159834Y140592D01*
X-159977Y140610D01*
X-160120Y140631D01*
X-160262Y140657D01*
X-160403Y140687D01*
X-160543Y140720D01*
X-160683Y140758D01*
X-160821Y140799D01*
X-160958Y140844D01*
X-161094Y140892D01*
X-161228Y140945D01*
X-161361Y141001D01*
X-161493Y141061D01*
X-161622Y141124D01*
X-161750Y141191D01*
X-161876Y141261D01*
X-162000Y141335D01*
X-162122Y141413D01*
X-162242Y141493D01*
X-162359Y141577D01*
X-162474Y141664D01*
X-162587Y141754D01*
X-162697Y141847D01*
X-162804Y141944D01*
X-162909Y142043D01*
X-163011Y142145D01*
X-163110Y142250D01*
X-163207Y142357D01*
X-163300Y142467D01*
X-163390Y142580D01*
X-163477Y142695D01*
X-163561Y142812D01*
X-163641Y142932D01*
X-163719Y143054D01*
X-163793Y143178D01*
X-163863Y143304D01*
X-163930Y143432D01*
X-163993Y143561D01*
X-164053Y143693D01*
X-164109Y143826D01*
X-164162Y143960D01*
X-164210Y144096D01*
X-164255Y144233D01*
X-164296Y144371D01*
X-164334Y144511D01*
X-164367Y144651D01*
X-164397Y144792D01*
X-164423Y144934D01*
X-164444Y145077D01*
X-164462Y145220D01*
X-164476Y145364D01*
X-164486Y145508D01*
X-164492Y145652D01*
X-164494Y145796D01*
X-189998Y272796D02*
X-189996Y272942D01*
X-189990Y273088D01*
X-189980Y273233D01*
X-189966Y273378D01*
X-189948Y273523D01*
X-189926Y273667D01*
X-189901Y273811D01*
X-189871Y273954D01*
X-189837Y274096D01*
X-189800Y274237D01*
X-189759Y274377D01*
X-189714Y274515D01*
X-189665Y274653D01*
X-189612Y274789D01*
X-189556Y274923D01*
X-189496Y275056D01*
X-189432Y275188D01*
X-189365Y275317D01*
X-189295Y275445D01*
X-189221Y275571D01*
X-189143Y275694D01*
X-189062Y275816D01*
X-188978Y275935D01*
X-188891Y276052D01*
X-188800Y276166D01*
X-188707Y276278D01*
X-188610Y276387D01*
X-188511Y276494D01*
X-188408Y276598D01*
X-188303Y276699D01*
X-188195Y276797D01*
X-188084Y276892D01*
X-187971Y276984D01*
X-187855Y277073D01*
X-187737Y277159D01*
X-187617Y277241D01*
X-187495Y277320D01*
X-187370Y277396D01*
X-187243Y277468D01*
X-187115Y277537D01*
X-186984Y277603D01*
X-186852Y277664D01*
X-186718Y277723D01*
X-186583Y277777D01*
X-186446Y277828D01*
X-186308Y277875D01*
X-186169Y277918D01*
X-186028Y277957D01*
X-185887Y277993D01*
X-185744Y278024D01*
X-185601Y278052D01*
X-185457Y278076D01*
X-185313Y278096D01*
X-185168Y278112D01*
X-185022Y278124D01*
X-184877Y278132D01*
X-184731Y278136D01*
X-184585Y278136D01*
X-184439Y278132D01*
X-184294Y278124D01*
X-184148Y278112D01*
X-184003Y278096D01*
X-183859Y278076D01*
X-183715Y278052D01*
X-183572Y278024D01*
X-183429Y277993D01*
X-183288Y277957D01*
X-183147Y277918D01*
X-183008Y277875D01*
X-182870Y277828D01*
X-182733Y277777D01*
X-182598Y277723D01*
X-182464Y277664D01*
X-182332Y277603D01*
X-182201Y277537D01*
X-182073Y277468D01*
X-181946Y277396D01*
X-181821Y277320D01*
X-181699Y277241D01*
X-181579Y277159D01*
X-181461Y277073D01*
X-181345Y276984D01*
X-181232Y276892D01*
X-181121Y276797D01*
X-181013Y276699D01*
X-180908Y276598D01*
X-180805Y276494D01*
X-180706Y276387D01*
X-180609Y276278D01*
X-180516Y276166D01*
X-180425Y276052D01*
X-180338Y275935D01*
X-180254Y275816D01*
X-180173Y275694D01*
X-180095Y275571D01*
X-180021Y275445D01*
X-179951Y275317D01*
X-179884Y275188D01*
X-179820Y275056D01*
X-179760Y274923D01*
X-179704Y274789D01*
X-179651Y274653D01*
X-179602Y274515D01*
X-179557Y274377D01*
X-179516Y274237D01*
X-179479Y274096D01*
X-179445Y273954D01*
X-179415Y273811D01*
X-179390Y273667D01*
X-179368Y273523D01*
X-179350Y273378D01*
X-179336Y273233D01*
X-179326Y273088D01*
X-179320Y272942D01*
X-179318Y272796D01*
X-179320Y272650D01*
X-179326Y272504D01*
X-179336Y272359D01*
X-179350Y272214D01*
X-179368Y272069D01*
X-179390Y271925D01*
X-179415Y271781D01*
X-179445Y271638D01*
X-179479Y271496D01*
X-179516Y271355D01*
X-179557Y271215D01*
X-179602Y271077D01*
X-179651Y270939D01*
X-179704Y270803D01*
X-179760Y270669D01*
X-179820Y270536D01*
X-179884Y270404D01*
X-179951Y270275D01*
X-180021Y270147D01*
X-180095Y270021D01*
X-180173Y269898D01*
X-180254Y269776D01*
X-180338Y269657D01*
X-180425Y269540D01*
X-180516Y269426D01*
X-180609Y269314D01*
X-180706Y269205D01*
X-180805Y269098D01*
X-180908Y268994D01*
X-181013Y268893D01*
X-181121Y268795D01*
X-181232Y268700D01*
X-181345Y268608D01*
X-181461Y268519D01*
X-181579Y268433D01*
X-181699Y268351D01*
X-181821Y268272D01*
X-181946Y268196D01*
X-182073Y268124D01*
X-182201Y268055D01*
X-182332Y267989D01*
X-182464Y267928D01*
X-182598Y267869D01*
X-182733Y267815D01*
X-182870Y267764D01*
X-183008Y267717D01*
X-183147Y267674D01*
X-183288Y267635D01*
X-183429Y267599D01*
X-183572Y267568D01*
X-183715Y267540D01*
X-183859Y267516D01*
X-184003Y267496D01*
X-184148Y267480D01*
X-184294Y267468D01*
X-184439Y267460D01*
X-184585Y267456D01*
X-184731Y267456D01*
X-184877Y267460D01*
X-185022Y267468D01*
X-185168Y267480D01*
X-185313Y267496D01*
X-185457Y267516D01*
X-185601Y267540D01*
X-185744Y267568D01*
X-185887Y267599D01*
X-186028Y267635D01*
X-186169Y267674D01*
X-186308Y267717D01*
X-186446Y267764D01*
X-186583Y267815D01*
X-186718Y267869D01*
X-186852Y267928D01*
X-186984Y267989D01*
X-187115Y268055D01*
X-187243Y268124D01*
X-187370Y268196D01*
X-187495Y268272D01*
X-187617Y268351D01*
X-187737Y268433D01*
X-187855Y268519D01*
X-187971Y268608D01*
X-188084Y268700D01*
X-188195Y268795D01*
X-188303Y268893D01*
X-188408Y268994D01*
X-188511Y269098D01*
X-188610Y269205D01*
X-188707Y269314D01*
X-188800Y269426D01*
X-188891Y269540D01*
X-188978Y269657D01*
X-189062Y269776D01*
X-189143Y269898D01*
X-189221Y270021D01*
X-189295Y270147D01*
X-189365Y270275D01*
X-189432Y270404D01*
X-189496Y270536D01*
X-189556Y270669D01*
X-189612Y270803D01*
X-189665Y270939D01*
X-189714Y271077D01*
X-189759Y271215D01*
X-189800Y271355D01*
X-189837Y271496D01*
X-189871Y271638D01*
X-189901Y271781D01*
X-189926Y271925D01*
X-189948Y272069D01*
X-189966Y272214D01*
X-189980Y272359D01*
X-189990Y272504D01*
X-189996Y272650D01*
X-189998Y272796D01*
X-164494Y272796D02*
X-164492Y272940D01*
X-164486Y273084D01*
X-164476Y273228D01*
X-164462Y273372D01*
X-164444Y273515D01*
X-164423Y273658D01*
X-164397Y273800D01*
X-164367Y273941D01*
X-164334Y274081D01*
X-164296Y274221D01*
X-164255Y274359D01*
X-164210Y274496D01*
X-164162Y274632D01*
X-164109Y274766D01*
X-164053Y274899D01*
X-163993Y275031D01*
X-163930Y275160D01*
X-163863Y275288D01*
X-163793Y275414D01*
X-163719Y275538D01*
X-163641Y275660D01*
X-163561Y275780D01*
X-163477Y275897D01*
X-163390Y276012D01*
X-163300Y276125D01*
X-163207Y276235D01*
X-163110Y276342D01*
X-163011Y276447D01*
X-162909Y276549D01*
X-162804Y276648D01*
X-162697Y276745D01*
X-162587Y276838D01*
X-162474Y276928D01*
X-162359Y277015D01*
X-162242Y277099D01*
X-162122Y277179D01*
X-162000Y277257D01*
X-161876Y277331D01*
X-161750Y277401D01*
X-161622Y277468D01*
X-161493Y277531D01*
X-161361Y277591D01*
X-161228Y277647D01*
X-161094Y277700D01*
X-160958Y277748D01*
X-160821Y277793D01*
X-160683Y277834D01*
X-160543Y277872D01*
X-160403Y277905D01*
X-160262Y277935D01*
X-160120Y277961D01*
X-159977Y277982D01*
X-159834Y278000D01*
X-159690Y278014D01*
X-159546Y278024D01*
X-159402Y278030D01*
X-159258Y278032D01*
X-159114Y278030D01*
X-158970Y278024D01*
X-158826Y278014D01*
X-158682Y278000D01*
X-158539Y277982D01*
X-158396Y277961D01*
X-158254Y277935D01*
X-158113Y277905D01*
X-157973Y277872D01*
X-157833Y277834D01*
X-157695Y277793D01*
X-157558Y277748D01*
X-157422Y277700D01*
X-157288Y277647D01*
X-157155Y277591D01*
X-157023Y277531D01*
X-156894Y277468D01*
X-156766Y277401D01*
X-156640Y277331D01*
X-156516Y277257D01*
X-156394Y277179D01*
X-156274Y277099D01*
X-156157Y277015D01*
X-156042Y276928D01*
X-155929Y276838D01*
X-155819Y276745D01*
X-155712Y276648D01*
X-155607Y276549D01*
X-155505Y276447D01*
X-155406Y276342D01*
X-155309Y276235D01*
X-155216Y276125D01*
X-155126Y276012D01*
X-155039Y275897D01*
X-154955Y275780D01*
X-154875Y275660D01*
X-154797Y275538D01*
X-154723Y275414D01*
X-154653Y275288D01*
X-154586Y275160D01*
X-154523Y275031D01*
X-154463Y274899D01*
X-154407Y274766D01*
X-154354Y274632D01*
X-154306Y274496D01*
X-154261Y274359D01*
X-154220Y274221D01*
X-154182Y274081D01*
X-154149Y273941D01*
X-154119Y273800D01*
X-154093Y273658D01*
X-154072Y273515D01*
X-154054Y273372D01*
X-154040Y273228D01*
X-154030Y273084D01*
X-154024Y272940D01*
X-154022Y272796D01*
X-154024Y272652D01*
X-154030Y272508D01*
X-154040Y272364D01*
X-154054Y272220D01*
X-154072Y272077D01*
X-154093Y271934D01*
X-154119Y271792D01*
X-154149Y271651D01*
X-154182Y271511D01*
X-154220Y271371D01*
X-154261Y271233D01*
X-154306Y271096D01*
X-154354Y270960D01*
X-154407Y270826D01*
X-154463Y270693D01*
X-154523Y270561D01*
X-154586Y270432D01*
X-154653Y270304D01*
X-154723Y270178D01*
X-154797Y270054D01*
X-154875Y269932D01*
X-154955Y269812D01*
X-155039Y269695D01*
X-155126Y269580D01*
X-155216Y269467D01*
X-155309Y269357D01*
X-155406Y269250D01*
X-155505Y269145D01*
X-155607Y269043D01*
X-155712Y268944D01*
X-155819Y268847D01*
X-155929Y268754D01*
X-156042Y268664D01*
X-156157Y268577D01*
X-156274Y268493D01*
X-156394Y268413D01*
X-156516Y268335D01*
X-156640Y268261D01*
X-156766Y268191D01*
X-156894Y268124D01*
X-157023Y268061D01*
X-157155Y268001D01*
X-157288Y267945D01*
X-157422Y267892D01*
X-157558Y267844D01*
X-157695Y267799D01*
X-157833Y267758D01*
X-157973Y267720D01*
X-158113Y267687D01*
X-158254Y267657D01*
X-158396Y267631D01*
X-158539Y267610D01*
X-158682Y267592D01*
X-158826Y267578D01*
X-158970Y267568D01*
X-159114Y267562D01*
X-159258Y267560D01*
X-159402Y267562D01*
X-159546Y267568D01*
X-159690Y267578D01*
X-159834Y267592D01*
X-159977Y267610D01*
X-160120Y267631D01*
X-160262Y267657D01*
X-160403Y267687D01*
X-160543Y267720D01*
X-160683Y267758D01*
X-160821Y267799D01*
X-160958Y267844D01*
X-161094Y267892D01*
X-161228Y267945D01*
X-161361Y268001D01*
X-161493Y268061D01*
X-161622Y268124D01*
X-161750Y268191D01*
X-161876Y268261D01*
X-162000Y268335D01*
X-162122Y268413D01*
X-162242Y268493D01*
X-162359Y268577D01*
X-162474Y268664D01*
X-162587Y268754D01*
X-162697Y268847D01*
X-162804Y268944D01*
X-162909Y269043D01*
X-163011Y269145D01*
X-163110Y269250D01*
X-163207Y269357D01*
X-163300Y269467D01*
X-163390Y269580D01*
X-163477Y269695D01*
X-163561Y269812D01*
X-163641Y269932D01*
X-163719Y270054D01*
X-163793Y270178D01*
X-163863Y270304D01*
X-163930Y270432D01*
X-163993Y270561D01*
X-164053Y270693D01*
X-164109Y270826D01*
X-164162Y270960D01*
X-164210Y271096D01*
X-164255Y271233D01*
X-164296Y271371D01*
X-164334Y271511D01*
X-164367Y271651D01*
X-164397Y271792D01*
X-164423Y271934D01*
X-164444Y272077D01*
X-164462Y272220D01*
X-164476Y272364D01*
X-164486Y272508D01*
X-164492Y272652D01*
X-164494Y272796D01*
X-189998Y247396D02*
X-189996Y247542D01*
X-189990Y247688D01*
X-189980Y247833D01*
X-189966Y247978D01*
X-189948Y248123D01*
X-189926Y248267D01*
X-189901Y248411D01*
X-189871Y248554D01*
X-189837Y248696D01*
X-189800Y248837D01*
X-189759Y248977D01*
X-189714Y249115D01*
X-189665Y249253D01*
X-189612Y249389D01*
X-189556Y249523D01*
X-189496Y249656D01*
X-189432Y249788D01*
X-189365Y249917D01*
X-189295Y250045D01*
X-189221Y250171D01*
X-189143Y250294D01*
X-189062Y250416D01*
X-188978Y250535D01*
X-188891Y250652D01*
X-188800Y250766D01*
X-188707Y250878D01*
X-188610Y250987D01*
X-188511Y251094D01*
X-188408Y251198D01*
X-188303Y251299D01*
X-188195Y251397D01*
X-188084Y251492D01*
X-187971Y251584D01*
X-187855Y251673D01*
X-187737Y251759D01*
X-187617Y251841D01*
X-187495Y251920D01*
X-187370Y251996D01*
X-187243Y252068D01*
X-187115Y252137D01*
X-186984Y252203D01*
X-186852Y252264D01*
X-186718Y252323D01*
X-186583Y252377D01*
X-186446Y252428D01*
X-186308Y252475D01*
X-186169Y252518D01*
X-186028Y252557D01*
X-185887Y252593D01*
X-185744Y252624D01*
X-185601Y252652D01*
X-185457Y252676D01*
X-185313Y252696D01*
X-185168Y252712D01*
X-185022Y252724D01*
X-184877Y252732D01*
X-184731Y252736D01*
X-184585Y252736D01*
X-184439Y252732D01*
X-184294Y252724D01*
X-184148Y252712D01*
X-184003Y252696D01*
X-183859Y252676D01*
X-183715Y252652D01*
X-183572Y252624D01*
X-183429Y252593D01*
X-183288Y252557D01*
X-183147Y252518D01*
X-183008Y252475D01*
X-182870Y252428D01*
X-182733Y252377D01*
X-182598Y252323D01*
X-182464Y252264D01*
X-182332Y252203D01*
X-182201Y252137D01*
X-182073Y252068D01*
X-181946Y251996D01*
X-181821Y251920D01*
X-181699Y251841D01*
X-181579Y251759D01*
X-181461Y251673D01*
X-181345Y251584D01*
X-181232Y251492D01*
X-181121Y251397D01*
X-181013Y251299D01*
X-180908Y251198D01*
X-180805Y251094D01*
X-180706Y250987D01*
X-180609Y250878D01*
X-180516Y250766D01*
X-180425Y250652D01*
X-180338Y250535D01*
X-180254Y250416D01*
X-180173Y250294D01*
X-180095Y250171D01*
X-180021Y250045D01*
X-179951Y249917D01*
X-179884Y249788D01*
X-179820Y249656D01*
X-179760Y249523D01*
X-179704Y249389D01*
X-179651Y249253D01*
X-179602Y249115D01*
X-179557Y248977D01*
X-179516Y248837D01*
X-179479Y248696D01*
X-179445Y248554D01*
X-179415Y248411D01*
X-179390Y248267D01*
X-179368Y248123D01*
X-179350Y247978D01*
X-179336Y247833D01*
X-179326Y247688D01*
X-179320Y247542D01*
X-179318Y247396D01*
X-179320Y247250D01*
X-179326Y247104D01*
X-179336Y246959D01*
X-179350Y246814D01*
X-179368Y246669D01*
X-179390Y246525D01*
X-179415Y246381D01*
X-179445Y246238D01*
X-179479Y246096D01*
X-179516Y245955D01*
X-179557Y245815D01*
X-179602Y245677D01*
X-179651Y245539D01*
X-179704Y245403D01*
X-179760Y245269D01*
X-179820Y245136D01*
X-179884Y245004D01*
X-179951Y244875D01*
X-180021Y244747D01*
X-180095Y244621D01*
X-180173Y244498D01*
X-180254Y244376D01*
X-180338Y244257D01*
X-180425Y244140D01*
X-180516Y244026D01*
X-180609Y243914D01*
X-180706Y243805D01*
X-180805Y243698D01*
X-180908Y243594D01*
X-181013Y243493D01*
X-181121Y243395D01*
X-181232Y243300D01*
X-181345Y243208D01*
X-181461Y243119D01*
X-181579Y243033D01*
X-181699Y242951D01*
X-181821Y242872D01*
X-181946Y242796D01*
X-182073Y242724D01*
X-182201Y242655D01*
X-182332Y242589D01*
X-182464Y242528D01*
X-182598Y242469D01*
X-182733Y242415D01*
X-182870Y242364D01*
X-183008Y242317D01*
X-183147Y242274D01*
X-183288Y242235D01*
X-183429Y242199D01*
X-183572Y242168D01*
X-183715Y242140D01*
X-183859Y242116D01*
X-184003Y242096D01*
X-184148Y242080D01*
X-184294Y242068D01*
X-184439Y242060D01*
X-184585Y242056D01*
X-184731Y242056D01*
X-184877Y242060D01*
X-185022Y242068D01*
X-185168Y242080D01*
X-185313Y242096D01*
X-185457Y242116D01*
X-185601Y242140D01*
X-185744Y242168D01*
X-185887Y242199D01*
X-186028Y242235D01*
X-186169Y242274D01*
X-186308Y242317D01*
X-186446Y242364D01*
X-186583Y242415D01*
X-186718Y242469D01*
X-186852Y242528D01*
X-186984Y242589D01*
X-187115Y242655D01*
X-187243Y242724D01*
X-187370Y242796D01*
X-187495Y242872D01*
X-187617Y242951D01*
X-187737Y243033D01*
X-187855Y243119D01*
X-187971Y243208D01*
X-188084Y243300D01*
X-188195Y243395D01*
X-188303Y243493D01*
X-188408Y243594D01*
X-188511Y243698D01*
X-188610Y243805D01*
X-188707Y243914D01*
X-188800Y244026D01*
X-188891Y244140D01*
X-188978Y244257D01*
X-189062Y244376D01*
X-189143Y244498D01*
X-189221Y244621D01*
X-189295Y244747D01*
X-189365Y244875D01*
X-189432Y245004D01*
X-189496Y245136D01*
X-189556Y245269D01*
X-189612Y245403D01*
X-189665Y245539D01*
X-189714Y245677D01*
X-189759Y245815D01*
X-189800Y245955D01*
X-189837Y246096D01*
X-189871Y246238D01*
X-189901Y246381D01*
X-189926Y246525D01*
X-189948Y246669D01*
X-189966Y246814D01*
X-189980Y246959D01*
X-189990Y247104D01*
X-189996Y247250D01*
X-189998Y247396D01*
X-164494Y247396D02*
X-164492Y247540D01*
X-164486Y247684D01*
X-164476Y247828D01*
X-164462Y247972D01*
X-164444Y248115D01*
X-164423Y248258D01*
X-164397Y248400D01*
X-164367Y248541D01*
X-164334Y248681D01*
X-164296Y248821D01*
X-164255Y248959D01*
X-164210Y249096D01*
X-164162Y249232D01*
X-164109Y249366D01*
X-164053Y249499D01*
X-163993Y249631D01*
X-163930Y249760D01*
X-163863Y249888D01*
X-163793Y250014D01*
X-163719Y250138D01*
X-163641Y250260D01*
X-163561Y250380D01*
X-163477Y250497D01*
X-163390Y250612D01*
X-163300Y250725D01*
X-163207Y250835D01*
X-163110Y250942D01*
X-163011Y251047D01*
X-162909Y251149D01*
X-162804Y251248D01*
X-162697Y251345D01*
X-162587Y251438D01*
X-162474Y251528D01*
X-162359Y251615D01*
X-162242Y251699D01*
X-162122Y251779D01*
X-162000Y251857D01*
X-161876Y251931D01*
X-161750Y252001D01*
X-161622Y252068D01*
X-161493Y252131D01*
X-161361Y252191D01*
X-161228Y252247D01*
X-161094Y252300D01*
X-160958Y252348D01*
X-160821Y252393D01*
X-160683Y252434D01*
X-160543Y252472D01*
X-160403Y252505D01*
X-160262Y252535D01*
X-160120Y252561D01*
X-159977Y252582D01*
X-159834Y252600D01*
X-159690Y252614D01*
X-159546Y252624D01*
X-159402Y252630D01*
X-159258Y252632D01*
X-159114Y252630D01*
X-158970Y252624D01*
X-158826Y252614D01*
X-158682Y252600D01*
X-158539Y252582D01*
X-158396Y252561D01*
X-158254Y252535D01*
X-158113Y252505D01*
X-157973Y252472D01*
X-157833Y252434D01*
X-157695Y252393D01*
X-157558Y252348D01*
X-157422Y252300D01*
X-157288Y252247D01*
X-157155Y252191D01*
X-157023Y252131D01*
X-156894Y252068D01*
X-156766Y252001D01*
X-156640Y251931D01*
X-156516Y251857D01*
X-156394Y251779D01*
X-156274Y251699D01*
X-156157Y251615D01*
X-156042Y251528D01*
X-155929Y251438D01*
X-155819Y251345D01*
X-155712Y251248D01*
X-155607Y251149D01*
X-155505Y251047D01*
X-155406Y250942D01*
X-155309Y250835D01*
X-155216Y250725D01*
X-155126Y250612D01*
X-155039Y250497D01*
X-154955Y250380D01*
X-154875Y250260D01*
X-154797Y250138D01*
X-154723Y250014D01*
X-154653Y249888D01*
X-154586Y249760D01*
X-154523Y249631D01*
X-154463Y249499D01*
X-154407Y249366D01*
X-154354Y249232D01*
X-154306Y249096D01*
X-154261Y248959D01*
X-154220Y248821D01*
X-154182Y248681D01*
X-154149Y248541D01*
X-154119Y248400D01*
X-154093Y248258D01*
X-154072Y248115D01*
X-154054Y247972D01*
X-154040Y247828D01*
X-154030Y247684D01*
X-154024Y247540D01*
X-154022Y247396D01*
X-154024Y247252D01*
X-154030Y247108D01*
X-154040Y246964D01*
X-154054Y246820D01*
X-154072Y246677D01*
X-154093Y246534D01*
X-154119Y246392D01*
X-154149Y246251D01*
X-154182Y246111D01*
X-154220Y245971D01*
X-154261Y245833D01*
X-154306Y245696D01*
X-154354Y245560D01*
X-154407Y245426D01*
X-154463Y245293D01*
X-154523Y245161D01*
X-154586Y245032D01*
X-154653Y244904D01*
X-154723Y244778D01*
X-154797Y244654D01*
X-154875Y244532D01*
X-154955Y244412D01*
X-155039Y244295D01*
X-155126Y244180D01*
X-155216Y244067D01*
X-155309Y243957D01*
X-155406Y243850D01*
X-155505Y243745D01*
X-155607Y243643D01*
X-155712Y243544D01*
X-155819Y243447D01*
X-155929Y243354D01*
X-156042Y243264D01*
X-156157Y243177D01*
X-156274Y243093D01*
X-156394Y243013D01*
X-156516Y242935D01*
X-156640Y242861D01*
X-156766Y242791D01*
X-156894Y242724D01*
X-157023Y242661D01*
X-157155Y242601D01*
X-157288Y242545D01*
X-157422Y242492D01*
X-157558Y242444D01*
X-157695Y242399D01*
X-157833Y242358D01*
X-157973Y242320D01*
X-158113Y242287D01*
X-158254Y242257D01*
X-158396Y242231D01*
X-158539Y242210D01*
X-158682Y242192D01*
X-158826Y242178D01*
X-158970Y242168D01*
X-159114Y242162D01*
X-159258Y242160D01*
X-159402Y242162D01*
X-159546Y242168D01*
X-159690Y242178D01*
X-159834Y242192D01*
X-159977Y242210D01*
X-160120Y242231D01*
X-160262Y242257D01*
X-160403Y242287D01*
X-160543Y242320D01*
X-160683Y242358D01*
X-160821Y242399D01*
X-160958Y242444D01*
X-161094Y242492D01*
X-161228Y242545D01*
X-161361Y242601D01*
X-161493Y242661D01*
X-161622Y242724D01*
X-161750Y242791D01*
X-161876Y242861D01*
X-162000Y242935D01*
X-162122Y243013D01*
X-162242Y243093D01*
X-162359Y243177D01*
X-162474Y243264D01*
X-162587Y243354D01*
X-162697Y243447D01*
X-162804Y243544D01*
X-162909Y243643D01*
X-163011Y243745D01*
X-163110Y243850D01*
X-163207Y243957D01*
X-163300Y244067D01*
X-163390Y244180D01*
X-163477Y244295D01*
X-163561Y244412D01*
X-163641Y244532D01*
X-163719Y244654D01*
X-163793Y244778D01*
X-163863Y244904D01*
X-163930Y245032D01*
X-163993Y245161D01*
X-164053Y245293D01*
X-164109Y245426D01*
X-164162Y245560D01*
X-164210Y245696D01*
X-164255Y245833D01*
X-164296Y245971D01*
X-164334Y246111D01*
X-164367Y246251D01*
X-164397Y246392D01*
X-164423Y246534D01*
X-164444Y246677D01*
X-164462Y246820D01*
X-164476Y246964D01*
X-164486Y247108D01*
X-164492Y247252D01*
X-164494Y247396D01*
X-91446Y96520D02*
X-91444Y96666D01*
X-91438Y96812D01*
X-91428Y96957D01*
X-91414Y97102D01*
X-91396Y97247D01*
X-91374Y97391D01*
X-91349Y97535D01*
X-91319Y97678D01*
X-91285Y97820D01*
X-91248Y97961D01*
X-91207Y98101D01*
X-91162Y98239D01*
X-91113Y98377D01*
X-91060Y98513D01*
X-91004Y98647D01*
X-90944Y98780D01*
X-90880Y98912D01*
X-90813Y99041D01*
X-90743Y99169D01*
X-90669Y99295D01*
X-90591Y99418D01*
X-90510Y99540D01*
X-90426Y99659D01*
X-90339Y99776D01*
X-90248Y99890D01*
X-90155Y100002D01*
X-90058Y100111D01*
X-89959Y100218D01*
X-89856Y100322D01*
X-89751Y100423D01*
X-89643Y100521D01*
X-89532Y100616D01*
X-89419Y100708D01*
X-89303Y100797D01*
X-89185Y100883D01*
X-89065Y100965D01*
X-88943Y101044D01*
X-88818Y101120D01*
X-88691Y101192D01*
X-88563Y101261D01*
X-88432Y101327D01*
X-88300Y101388D01*
X-88166Y101447D01*
X-88031Y101501D01*
X-87894Y101552D01*
X-87756Y101599D01*
X-87617Y101642D01*
X-87476Y101681D01*
X-87335Y101717D01*
X-87192Y101748D01*
X-87049Y101776D01*
X-86905Y101800D01*
X-86761Y101820D01*
X-86616Y101836D01*
X-86470Y101848D01*
X-86325Y101856D01*
X-86179Y101860D01*
X-86033Y101860D01*
X-85887Y101856D01*
X-85742Y101848D01*
X-85596Y101836D01*
X-85451Y101820D01*
X-85307Y101800D01*
X-85163Y101776D01*
X-85020Y101748D01*
X-84877Y101717D01*
X-84736Y101681D01*
X-84595Y101642D01*
X-84456Y101599D01*
X-84318Y101552D01*
X-84181Y101501D01*
X-84046Y101447D01*
X-83912Y101388D01*
X-83780Y101327D01*
X-83649Y101261D01*
X-83521Y101192D01*
X-83394Y101120D01*
X-83269Y101044D01*
X-83147Y100965D01*
X-83027Y100883D01*
X-82909Y100797D01*
X-82793Y100708D01*
X-82680Y100616D01*
X-82569Y100521D01*
X-82461Y100423D01*
X-82356Y100322D01*
X-82253Y100218D01*
X-82154Y100111D01*
X-82057Y100002D01*
X-81964Y99890D01*
X-81873Y99776D01*
X-81786Y99659D01*
X-81702Y99540D01*
X-81621Y99418D01*
X-81543Y99295D01*
X-81469Y99169D01*
X-81399Y99041D01*
X-81332Y98912D01*
X-81268Y98780D01*
X-81208Y98647D01*
X-81152Y98513D01*
X-81099Y98377D01*
X-81050Y98239D01*
X-81005Y98101D01*
X-80964Y97961D01*
X-80927Y97820D01*
X-80893Y97678D01*
X-80863Y97535D01*
X-80838Y97391D01*
X-80816Y97247D01*
X-80798Y97102D01*
X-80784Y96957D01*
X-80774Y96812D01*
X-80768Y96666D01*
X-80766Y96520D01*
X-80768Y96374D01*
X-80774Y96228D01*
X-80784Y96083D01*
X-80798Y95938D01*
X-80816Y95793D01*
X-80838Y95649D01*
X-80863Y95505D01*
X-80893Y95362D01*
X-80927Y95220D01*
X-80964Y95079D01*
X-81005Y94939D01*
X-81050Y94801D01*
X-81099Y94663D01*
X-81152Y94527D01*
X-81208Y94393D01*
X-81268Y94260D01*
X-81332Y94128D01*
X-81399Y93999D01*
X-81469Y93871D01*
X-81543Y93745D01*
X-81621Y93622D01*
X-81702Y93500D01*
X-81786Y93381D01*
X-81873Y93264D01*
X-81964Y93150D01*
X-82057Y93038D01*
X-82154Y92929D01*
X-82253Y92822D01*
X-82356Y92718D01*
X-82461Y92617D01*
X-82569Y92519D01*
X-82680Y92424D01*
X-82793Y92332D01*
X-82909Y92243D01*
X-83027Y92157D01*
X-83147Y92075D01*
X-83269Y91996D01*
X-83394Y91920D01*
X-83521Y91848D01*
X-83649Y91779D01*
X-83780Y91713D01*
X-83912Y91652D01*
X-84046Y91593D01*
X-84181Y91539D01*
X-84318Y91488D01*
X-84456Y91441D01*
X-84595Y91398D01*
X-84736Y91359D01*
X-84877Y91323D01*
X-85020Y91292D01*
X-85163Y91264D01*
X-85307Y91240D01*
X-85451Y91220D01*
X-85596Y91204D01*
X-85742Y91192D01*
X-85887Y91184D01*
X-86033Y91180D01*
X-86179Y91180D01*
X-86325Y91184D01*
X-86470Y91192D01*
X-86616Y91204D01*
X-86761Y91220D01*
X-86905Y91240D01*
X-87049Y91264D01*
X-87192Y91292D01*
X-87335Y91323D01*
X-87476Y91359D01*
X-87617Y91398D01*
X-87756Y91441D01*
X-87894Y91488D01*
X-88031Y91539D01*
X-88166Y91593D01*
X-88300Y91652D01*
X-88432Y91713D01*
X-88563Y91779D01*
X-88691Y91848D01*
X-88818Y91920D01*
X-88943Y91996D01*
X-89065Y92075D01*
X-89185Y92157D01*
X-89303Y92243D01*
X-89419Y92332D01*
X-89532Y92424D01*
X-89643Y92519D01*
X-89751Y92617D01*
X-89856Y92718D01*
X-89959Y92822D01*
X-90058Y92929D01*
X-90155Y93038D01*
X-90248Y93150D01*
X-90339Y93264D01*
X-90426Y93381D01*
X-90510Y93500D01*
X-90591Y93622D01*
X-90669Y93745D01*
X-90743Y93871D01*
X-90813Y93999D01*
X-90880Y94128D01*
X-90944Y94260D01*
X-91004Y94393D01*
X-91060Y94527D01*
X-91113Y94663D01*
X-91162Y94801D01*
X-91207Y94939D01*
X-91248Y95079D01*
X-91285Y95220D01*
X-91319Y95362D01*
X-91349Y95505D01*
X-91374Y95649D01*
X-91396Y95793D01*
X-91414Y95938D01*
X-91428Y96083D01*
X-91438Y96228D01*
X-91444Y96374D01*
X-91446Y96520D01*
X-65942Y96520D02*
X-65940Y96664D01*
X-65934Y96808D01*
X-65924Y96952D01*
X-65910Y97096D01*
X-65892Y97239D01*
X-65871Y97382D01*
X-65845Y97524D01*
X-65815Y97665D01*
X-65782Y97805D01*
X-65744Y97945D01*
X-65703Y98083D01*
X-65658Y98220D01*
X-65610Y98356D01*
X-65557Y98490D01*
X-65501Y98623D01*
X-65441Y98755D01*
X-65378Y98884D01*
X-65311Y99012D01*
X-65241Y99138D01*
X-65167Y99262D01*
X-65089Y99384D01*
X-65009Y99504D01*
X-64925Y99621D01*
X-64838Y99736D01*
X-64748Y99849D01*
X-64655Y99959D01*
X-64558Y100066D01*
X-64459Y100171D01*
X-64357Y100273D01*
X-64252Y100372D01*
X-64145Y100469D01*
X-64035Y100562D01*
X-63922Y100652D01*
X-63807Y100739D01*
X-63690Y100823D01*
X-63570Y100903D01*
X-63448Y100981D01*
X-63324Y101055D01*
X-63198Y101125D01*
X-63070Y101192D01*
X-62941Y101255D01*
X-62809Y101315D01*
X-62676Y101371D01*
X-62542Y101424D01*
X-62406Y101472D01*
X-62269Y101517D01*
X-62131Y101558D01*
X-61991Y101596D01*
X-61851Y101629D01*
X-61710Y101659D01*
X-61568Y101685D01*
X-61425Y101706D01*
X-61282Y101724D01*
X-61138Y101738D01*
X-60994Y101748D01*
X-60850Y101754D01*
X-60706Y101756D01*
X-60562Y101754D01*
X-60418Y101748D01*
X-60274Y101738D01*
X-60130Y101724D01*
X-59987Y101706D01*
X-59844Y101685D01*
X-59702Y101659D01*
X-59561Y101629D01*
X-59421Y101596D01*
X-59281Y101558D01*
X-59143Y101517D01*
X-59006Y101472D01*
X-58870Y101424D01*
X-58736Y101371D01*
X-58603Y101315D01*
X-58471Y101255D01*
X-58342Y101192D01*
X-58214Y101125D01*
X-58088Y101055D01*
X-57964Y100981D01*
X-57842Y100903D01*
X-57722Y100823D01*
X-57605Y100739D01*
X-57490Y100652D01*
X-57377Y100562D01*
X-57267Y100469D01*
X-57160Y100372D01*
X-57055Y100273D01*
X-56953Y100171D01*
X-56854Y100066D01*
X-56757Y99959D01*
X-56664Y99849D01*
X-56574Y99736D01*
X-56487Y99621D01*
X-56403Y99504D01*
X-56323Y99384D01*
X-56245Y99262D01*
X-56171Y99138D01*
X-56101Y99012D01*
X-56034Y98884D01*
X-55971Y98755D01*
X-55911Y98623D01*
X-55855Y98490D01*
X-55802Y98356D01*
X-55754Y98220D01*
X-55709Y98083D01*
X-55668Y97945D01*
X-55630Y97805D01*
X-55597Y97665D01*
X-55567Y97524D01*
X-55541Y97382D01*
X-55520Y97239D01*
X-55502Y97096D01*
X-55488Y96952D01*
X-55478Y96808D01*
X-55472Y96664D01*
X-55470Y96520D01*
X-55472Y96376D01*
X-55478Y96232D01*
X-55488Y96088D01*
X-55502Y95944D01*
X-55520Y95801D01*
X-55541Y95658D01*
X-55567Y95516D01*
X-55597Y95375D01*
X-55630Y95235D01*
X-55668Y95095D01*
X-55709Y94957D01*
X-55754Y94820D01*
X-55802Y94684D01*
X-55855Y94550D01*
X-55911Y94417D01*
X-55971Y94285D01*
X-56034Y94156D01*
X-56101Y94028D01*
X-56171Y93902D01*
X-56245Y93778D01*
X-56323Y93656D01*
X-56403Y93536D01*
X-56487Y93419D01*
X-56574Y93304D01*
X-56664Y93191D01*
X-56757Y93081D01*
X-56854Y92974D01*
X-56953Y92869D01*
X-57055Y92767D01*
X-57160Y92668D01*
X-57267Y92571D01*
X-57377Y92478D01*
X-57490Y92388D01*
X-57605Y92301D01*
X-57722Y92217D01*
X-57842Y92137D01*
X-57964Y92059D01*
X-58088Y91985D01*
X-58214Y91915D01*
X-58342Y91848D01*
X-58471Y91785D01*
X-58603Y91725D01*
X-58736Y91669D01*
X-58870Y91616D01*
X-59006Y91568D01*
X-59143Y91523D01*
X-59281Y91482D01*
X-59421Y91444D01*
X-59561Y91411D01*
X-59702Y91381D01*
X-59844Y91355D01*
X-59987Y91334D01*
X-60130Y91316D01*
X-60274Y91302D01*
X-60418Y91292D01*
X-60562Y91286D01*
X-60706Y91284D01*
X-60850Y91286D01*
X-60994Y91292D01*
X-61138Y91302D01*
X-61282Y91316D01*
X-61425Y91334D01*
X-61568Y91355D01*
X-61710Y91381D01*
X-61851Y91411D01*
X-61991Y91444D01*
X-62131Y91482D01*
X-62269Y91523D01*
X-62406Y91568D01*
X-62542Y91616D01*
X-62676Y91669D01*
X-62809Y91725D01*
X-62941Y91785D01*
X-63070Y91848D01*
X-63198Y91915D01*
X-63324Y91985D01*
X-63448Y92059D01*
X-63570Y92137D01*
X-63690Y92217D01*
X-63807Y92301D01*
X-63922Y92388D01*
X-64035Y92478D01*
X-64145Y92571D01*
X-64252Y92668D01*
X-64357Y92767D01*
X-64459Y92869D01*
X-64558Y92974D01*
X-64655Y93081D01*
X-64748Y93191D01*
X-64838Y93304D01*
X-64925Y93419D01*
X-65009Y93536D01*
X-65089Y93656D01*
X-65167Y93778D01*
X-65241Y93902D01*
X-65311Y94028D01*
X-65378Y94156D01*
X-65441Y94285D01*
X-65501Y94417D01*
X-65557Y94550D01*
X-65610Y94684D01*
X-65658Y94820D01*
X-65703Y94957D01*
X-65744Y95095D01*
X-65782Y95235D01*
X-65815Y95375D01*
X-65845Y95516D01*
X-65871Y95658D01*
X-65892Y95801D01*
X-65910Y95944D01*
X-65924Y96088D01*
X-65934Y96232D01*
X-65940Y96376D01*
X-65942Y96520D01*
X-91446Y71120D02*
X-91444Y71266D01*
X-91438Y71412D01*
X-91428Y71557D01*
X-91414Y71702D01*
X-91396Y71847D01*
X-91374Y71991D01*
X-91349Y72135D01*
X-91319Y72278D01*
X-91285Y72420D01*
X-91248Y72561D01*
X-91207Y72701D01*
X-91162Y72839D01*
X-91113Y72977D01*
X-91060Y73113D01*
X-91004Y73247D01*
X-90944Y73380D01*
X-90880Y73512D01*
X-90813Y73641D01*
X-90743Y73769D01*
X-90669Y73895D01*
X-90591Y74018D01*
X-90510Y74140D01*
X-90426Y74259D01*
X-90339Y74376D01*
X-90248Y74490D01*
X-90155Y74602D01*
X-90058Y74711D01*
X-89959Y74818D01*
X-89856Y74922D01*
X-89751Y75023D01*
X-89643Y75121D01*
X-89532Y75216D01*
X-89419Y75308D01*
X-89303Y75397D01*
X-89185Y75483D01*
X-89065Y75565D01*
X-88943Y75644D01*
X-88818Y75720D01*
X-88691Y75792D01*
X-88563Y75861D01*
X-88432Y75927D01*
X-88300Y75988D01*
X-88166Y76047D01*
X-88031Y76101D01*
X-87894Y76152D01*
X-87756Y76199D01*
X-87617Y76242D01*
X-87476Y76281D01*
X-87335Y76317D01*
X-87192Y76348D01*
X-87049Y76376D01*
X-86905Y76400D01*
X-86761Y76420D01*
X-86616Y76436D01*
X-86470Y76448D01*
X-86325Y76456D01*
X-86179Y76460D01*
X-86033Y76460D01*
X-85887Y76456D01*
X-85742Y76448D01*
X-85596Y76436D01*
X-85451Y76420D01*
X-85307Y76400D01*
X-85163Y76376D01*
X-85020Y76348D01*
X-84877Y76317D01*
X-84736Y76281D01*
X-84595Y76242D01*
X-84456Y76199D01*
X-84318Y76152D01*
X-84181Y76101D01*
X-84046Y76047D01*
X-83912Y75988D01*
X-83780Y75927D01*
X-83649Y75861D01*
X-83521Y75792D01*
X-83394Y75720D01*
X-83269Y75644D01*
X-83147Y75565D01*
X-83027Y75483D01*
X-82909Y75397D01*
X-82793Y75308D01*
X-82680Y75216D01*
X-82569Y75121D01*
X-82461Y75023D01*
X-82356Y74922D01*
X-82253Y74818D01*
X-82154Y74711D01*
X-82057Y74602D01*
X-81964Y74490D01*
X-81873Y74376D01*
X-81786Y74259D01*
X-81702Y74140D01*
X-81621Y74018D01*
X-81543Y73895D01*
X-81469Y73769D01*
X-81399Y73641D01*
X-81332Y73512D01*
X-81268Y73380D01*
X-81208Y73247D01*
X-81152Y73113D01*
X-81099Y72977D01*
X-81050Y72839D01*
X-81005Y72701D01*
X-80964Y72561D01*
X-80927Y72420D01*
X-80893Y72278D01*
X-80863Y72135D01*
X-80838Y71991D01*
X-80816Y71847D01*
X-80798Y71702D01*
X-80784Y71557D01*
X-80774Y71412D01*
X-80768Y71266D01*
X-80766Y71120D01*
X-80768Y70974D01*
X-80774Y70828D01*
X-80784Y70683D01*
X-80798Y70538D01*
X-80816Y70393D01*
X-80838Y70249D01*
X-80863Y70105D01*
X-80893Y69962D01*
X-80927Y69820D01*
X-80964Y69679D01*
X-81005Y69539D01*
X-81050Y69401D01*
X-81099Y69263D01*
X-81152Y69127D01*
X-81208Y68993D01*
X-81268Y68860D01*
X-81332Y68728D01*
X-81399Y68599D01*
X-81469Y68471D01*
X-81543Y68345D01*
X-81621Y68222D01*
X-81702Y68100D01*
X-81786Y67981D01*
X-81873Y67864D01*
X-81964Y67750D01*
X-82057Y67638D01*
X-82154Y67529D01*
X-82253Y67422D01*
X-82356Y67318D01*
X-82461Y67217D01*
X-82569Y67119D01*
X-82680Y67024D01*
X-82793Y66932D01*
X-82909Y66843D01*
X-83027Y66757D01*
X-83147Y66675D01*
X-83269Y66596D01*
X-83394Y66520D01*
X-83521Y66448D01*
X-83649Y66379D01*
X-83780Y66313D01*
X-83912Y66252D01*
X-84046Y66193D01*
X-84181Y66139D01*
X-84318Y66088D01*
X-84456Y66041D01*
X-84595Y65998D01*
X-84736Y65959D01*
X-84877Y65923D01*
X-85020Y65892D01*
X-85163Y65864D01*
X-85307Y65840D01*
X-85451Y65820D01*
X-85596Y65804D01*
X-85742Y65792D01*
X-85887Y65784D01*
X-86033Y65780D01*
X-86179Y65780D01*
X-86325Y65784D01*
X-86470Y65792D01*
X-86616Y65804D01*
X-86761Y65820D01*
X-86905Y65840D01*
X-87049Y65864D01*
X-87192Y65892D01*
X-87335Y65923D01*
X-87476Y65959D01*
X-87617Y65998D01*
X-87756Y66041D01*
X-87894Y66088D01*
X-88031Y66139D01*
X-88166Y66193D01*
X-88300Y66252D01*
X-88432Y66313D01*
X-88563Y66379D01*
X-88691Y66448D01*
X-88818Y66520D01*
X-88943Y66596D01*
X-89065Y66675D01*
X-89185Y66757D01*
X-89303Y66843D01*
X-89419Y66932D01*
X-89532Y67024D01*
X-89643Y67119D01*
X-89751Y67217D01*
X-89856Y67318D01*
X-89959Y67422D01*
X-90058Y67529D01*
X-90155Y67638D01*
X-90248Y67750D01*
X-90339Y67864D01*
X-90426Y67981D01*
X-90510Y68100D01*
X-90591Y68222D01*
X-90669Y68345D01*
X-90743Y68471D01*
X-90813Y68599D01*
X-90880Y68728D01*
X-90944Y68860D01*
X-91004Y68993D01*
X-91060Y69127D01*
X-91113Y69263D01*
X-91162Y69401D01*
X-91207Y69539D01*
X-91248Y69679D01*
X-91285Y69820D01*
X-91319Y69962D01*
X-91349Y70105D01*
X-91374Y70249D01*
X-91396Y70393D01*
X-91414Y70538D01*
X-91428Y70683D01*
X-91438Y70828D01*
X-91444Y70974D01*
X-91446Y71120D01*
X-65942Y71120D02*
X-65940Y71264D01*
X-65934Y71408D01*
X-65924Y71552D01*
X-65910Y71696D01*
X-65892Y71839D01*
X-65871Y71982D01*
X-65845Y72124D01*
X-65815Y72265D01*
X-65782Y72405D01*
X-65744Y72545D01*
X-65703Y72683D01*
X-65658Y72820D01*
X-65610Y72956D01*
X-65557Y73090D01*
X-65501Y73223D01*
X-65441Y73355D01*
X-65378Y73484D01*
X-65311Y73612D01*
X-65241Y73738D01*
X-65167Y73862D01*
X-65089Y73984D01*
X-65009Y74104D01*
X-64925Y74221D01*
X-64838Y74336D01*
X-64748Y74449D01*
X-64655Y74559D01*
X-64558Y74666D01*
X-64459Y74771D01*
X-64357Y74873D01*
X-64252Y74972D01*
X-64145Y75069D01*
X-64035Y75162D01*
X-63922Y75252D01*
X-63807Y75339D01*
X-63690Y75423D01*
X-63570Y75503D01*
X-63448Y75581D01*
X-63324Y75655D01*
X-63198Y75725D01*
X-63070Y75792D01*
X-62941Y75855D01*
X-62809Y75915D01*
X-62676Y75971D01*
X-62542Y76024D01*
X-62406Y76072D01*
X-62269Y76117D01*
X-62131Y76158D01*
X-61991Y76196D01*
X-61851Y76229D01*
X-61710Y76259D01*
X-61568Y76285D01*
X-61425Y76306D01*
X-61282Y76324D01*
X-61138Y76338D01*
X-60994Y76348D01*
X-60850Y76354D01*
X-60706Y76356D01*
X-60562Y76354D01*
X-60418Y76348D01*
X-60274Y76338D01*
X-60130Y76324D01*
X-59987Y76306D01*
X-59844Y76285D01*
X-59702Y76259D01*
X-59561Y76229D01*
X-59421Y76196D01*
X-59281Y76158D01*
X-59143Y76117D01*
X-59006Y76072D01*
X-58870Y76024D01*
X-58736Y75971D01*
X-58603Y75915D01*
X-58471Y75855D01*
X-58342Y75792D01*
X-58214Y75725D01*
X-58088Y75655D01*
X-57964Y75581D01*
X-57842Y75503D01*
X-57722Y75423D01*
X-57605Y75339D01*
X-57490Y75252D01*
X-57377Y75162D01*
X-57267Y75069D01*
X-57160Y74972D01*
X-57055Y74873D01*
X-56953Y74771D01*
X-56854Y74666D01*
X-56757Y74559D01*
X-56664Y74449D01*
X-56574Y74336D01*
X-56487Y74221D01*
X-56403Y74104D01*
X-56323Y73984D01*
X-56245Y73862D01*
X-56171Y73738D01*
X-56101Y73612D01*
X-56034Y73484D01*
X-55971Y73355D01*
X-55911Y73223D01*
X-55855Y73090D01*
X-55802Y72956D01*
X-55754Y72820D01*
X-55709Y72683D01*
X-55668Y72545D01*
X-55630Y72405D01*
X-55597Y72265D01*
X-55567Y72124D01*
X-55541Y71982D01*
X-55520Y71839D01*
X-55502Y71696D01*
X-55488Y71552D01*
X-55478Y71408D01*
X-55472Y71264D01*
X-55470Y71120D01*
X-55472Y70976D01*
X-55478Y70832D01*
X-55488Y70688D01*
X-55502Y70544D01*
X-55520Y70401D01*
X-55541Y70258D01*
X-55567Y70116D01*
X-55597Y69975D01*
X-55630Y69835D01*
X-55668Y69695D01*
X-55709Y69557D01*
X-55754Y69420D01*
X-55802Y69284D01*
X-55855Y69150D01*
X-55911Y69017D01*
X-55971Y68885D01*
X-56034Y68756D01*
X-56101Y68628D01*
X-56171Y68502D01*
X-56245Y68378D01*
X-56323Y68256D01*
X-56403Y68136D01*
X-56487Y68019D01*
X-56574Y67904D01*
X-56664Y67791D01*
X-56757Y67681D01*
X-56854Y67574D01*
X-56953Y67469D01*
X-57055Y67367D01*
X-57160Y67268D01*
X-57267Y67171D01*
X-57377Y67078D01*
X-57490Y66988D01*
X-57605Y66901D01*
X-57722Y66817D01*
X-57842Y66737D01*
X-57964Y66659D01*
X-58088Y66585D01*
X-58214Y66515D01*
X-58342Y66448D01*
X-58471Y66385D01*
X-58603Y66325D01*
X-58736Y66269D01*
X-58870Y66216D01*
X-59006Y66168D01*
X-59143Y66123D01*
X-59281Y66082D01*
X-59421Y66044D01*
X-59561Y66011D01*
X-59702Y65981D01*
X-59844Y65955D01*
X-59987Y65934D01*
X-60130Y65916D01*
X-60274Y65902D01*
X-60418Y65892D01*
X-60562Y65886D01*
X-60706Y65884D01*
X-60850Y65886D01*
X-60994Y65892D01*
X-61138Y65902D01*
X-61282Y65916D01*
X-61425Y65934D01*
X-61568Y65955D01*
X-61710Y65981D01*
X-61851Y66011D01*
X-61991Y66044D01*
X-62131Y66082D01*
X-62269Y66123D01*
X-62406Y66168D01*
X-62542Y66216D01*
X-62676Y66269D01*
X-62809Y66325D01*
X-62941Y66385D01*
X-63070Y66448D01*
X-63198Y66515D01*
X-63324Y66585D01*
X-63448Y66659D01*
X-63570Y66737D01*
X-63690Y66817D01*
X-63807Y66901D01*
X-63922Y66988D01*
X-64035Y67078D01*
X-64145Y67171D01*
X-64252Y67268D01*
X-64357Y67367D01*
X-64459Y67469D01*
X-64558Y67574D01*
X-64655Y67681D01*
X-64748Y67791D01*
X-64838Y67904D01*
X-64925Y68019D01*
X-65009Y68136D01*
X-65089Y68256D01*
X-65167Y68378D01*
X-65241Y68502D01*
X-65311Y68628D01*
X-65378Y68756D01*
X-65441Y68885D01*
X-65501Y69017D01*
X-65557Y69150D01*
X-65610Y69284D01*
X-65658Y69420D01*
X-65703Y69557D01*
X-65744Y69695D01*
X-65782Y69835D01*
X-65815Y69975D01*
X-65845Y70116D01*
X-65871Y70258D01*
X-65892Y70401D01*
X-65910Y70544D01*
X-65924Y70688D01*
X-65934Y70832D01*
X-65940Y70976D01*
X-65942Y71120D01*
X-91446Y45720D02*
X-91444Y45866D01*
X-91438Y46012D01*
X-91428Y46157D01*
X-91414Y46302D01*
X-91396Y46447D01*
X-91374Y46591D01*
X-91349Y46735D01*
X-91319Y46878D01*
X-91285Y47020D01*
X-91248Y47161D01*
X-91207Y47301D01*
X-91162Y47439D01*
X-91113Y47577D01*
X-91060Y47713D01*
X-91004Y47847D01*
X-90944Y47980D01*
X-90880Y48112D01*
X-90813Y48241D01*
X-90743Y48369D01*
X-90669Y48495D01*
X-90591Y48618D01*
X-90510Y48740D01*
X-90426Y48859D01*
X-90339Y48976D01*
X-90248Y49090D01*
X-90155Y49202D01*
X-90058Y49311D01*
X-89959Y49418D01*
X-89856Y49522D01*
X-89751Y49623D01*
X-89643Y49721D01*
X-89532Y49816D01*
X-89419Y49908D01*
X-89303Y49997D01*
X-89185Y50083D01*
X-89065Y50165D01*
X-88943Y50244D01*
X-88818Y50320D01*
X-88691Y50392D01*
X-88563Y50461D01*
X-88432Y50527D01*
X-88300Y50588D01*
X-88166Y50647D01*
X-88031Y50701D01*
X-87894Y50752D01*
X-87756Y50799D01*
X-87617Y50842D01*
X-87476Y50881D01*
X-87335Y50917D01*
X-87192Y50948D01*
X-87049Y50976D01*
X-86905Y51000D01*
X-86761Y51020D01*
X-86616Y51036D01*
X-86470Y51048D01*
X-86325Y51056D01*
X-86179Y51060D01*
X-86033Y51060D01*
X-85887Y51056D01*
X-85742Y51048D01*
X-85596Y51036D01*
X-85451Y51020D01*
X-85307Y51000D01*
X-85163Y50976D01*
X-85020Y50948D01*
X-84877Y50917D01*
X-84736Y50881D01*
X-84595Y50842D01*
X-84456Y50799D01*
X-84318Y50752D01*
X-84181Y50701D01*
X-84046Y50647D01*
X-83912Y50588D01*
X-83780Y50527D01*
X-83649Y50461D01*
X-83521Y50392D01*
X-83394Y50320D01*
X-83269Y50244D01*
X-83147Y50165D01*
X-83027Y50083D01*
X-82909Y49997D01*
X-82793Y49908D01*
X-82680Y49816D01*
X-82569Y49721D01*
X-82461Y49623D01*
X-82356Y49522D01*
X-82253Y49418D01*
X-82154Y49311D01*
X-82057Y49202D01*
X-81964Y49090D01*
X-81873Y48976D01*
X-81786Y48859D01*
X-81702Y48740D01*
X-81621Y48618D01*
X-81543Y48495D01*
X-81469Y48369D01*
X-81399Y48241D01*
X-81332Y48112D01*
X-81268Y47980D01*
X-81208Y47847D01*
X-81152Y47713D01*
X-81099Y47577D01*
X-81050Y47439D01*
X-81005Y47301D01*
X-80964Y47161D01*
X-80927Y47020D01*
X-80893Y46878D01*
X-80863Y46735D01*
X-80838Y46591D01*
X-80816Y46447D01*
X-80798Y46302D01*
X-80784Y46157D01*
X-80774Y46012D01*
X-80768Y45866D01*
X-80766Y45720D01*
X-80768Y45574D01*
X-80774Y45428D01*
X-80784Y45283D01*
X-80798Y45138D01*
X-80816Y44993D01*
X-80838Y44849D01*
X-80863Y44705D01*
X-80893Y44562D01*
X-80927Y44420D01*
X-80964Y44279D01*
X-81005Y44139D01*
X-81050Y44001D01*
X-81099Y43863D01*
X-81152Y43727D01*
X-81208Y43593D01*
X-81268Y43460D01*
X-81332Y43328D01*
X-81399Y43199D01*
X-81469Y43071D01*
X-81543Y42945D01*
X-81621Y42822D01*
X-81702Y42700D01*
X-81786Y42581D01*
X-81873Y42464D01*
X-81964Y42350D01*
X-82057Y42238D01*
X-82154Y42129D01*
X-82253Y42022D01*
X-82356Y41918D01*
X-82461Y41817D01*
X-82569Y41719D01*
X-82680Y41624D01*
X-82793Y41532D01*
X-82909Y41443D01*
X-83027Y41357D01*
X-83147Y41275D01*
X-83269Y41196D01*
X-83394Y41120D01*
X-83521Y41048D01*
X-83649Y40979D01*
X-83780Y40913D01*
X-83912Y40852D01*
X-84046Y40793D01*
X-84181Y40739D01*
X-84318Y40688D01*
X-84456Y40641D01*
X-84595Y40598D01*
X-84736Y40559D01*
X-84877Y40523D01*
X-85020Y40492D01*
X-85163Y40464D01*
X-85307Y40440D01*
X-85451Y40420D01*
X-85596Y40404D01*
X-85742Y40392D01*
X-85887Y40384D01*
X-86033Y40380D01*
X-86179Y40380D01*
X-86325Y40384D01*
X-86470Y40392D01*
X-86616Y40404D01*
X-86761Y40420D01*
X-86905Y40440D01*
X-87049Y40464D01*
X-87192Y40492D01*
X-87335Y40523D01*
X-87476Y40559D01*
X-87617Y40598D01*
X-87756Y40641D01*
X-87894Y40688D01*
X-88031Y40739D01*
X-88166Y40793D01*
X-88300Y40852D01*
X-88432Y40913D01*
X-88563Y40979D01*
X-88691Y41048D01*
X-88818Y41120D01*
X-88943Y41196D01*
X-89065Y41275D01*
X-89185Y41357D01*
X-89303Y41443D01*
X-89419Y41532D01*
X-89532Y41624D01*
X-89643Y41719D01*
X-89751Y41817D01*
X-89856Y41918D01*
X-89959Y42022D01*
X-90058Y42129D01*
X-90155Y42238D01*
X-90248Y42350D01*
X-90339Y42464D01*
X-90426Y42581D01*
X-90510Y42700D01*
X-90591Y42822D01*
X-90669Y42945D01*
X-90743Y43071D01*
X-90813Y43199D01*
X-90880Y43328D01*
X-90944Y43460D01*
X-91004Y43593D01*
X-91060Y43727D01*
X-91113Y43863D01*
X-91162Y44001D01*
X-91207Y44139D01*
X-91248Y44279D01*
X-91285Y44420D01*
X-91319Y44562D01*
X-91349Y44705D01*
X-91374Y44849D01*
X-91396Y44993D01*
X-91414Y45138D01*
X-91428Y45283D01*
X-91438Y45428D01*
X-91444Y45574D01*
X-91446Y45720D01*
X-65942Y45720D02*
X-65940Y45864D01*
X-65934Y46008D01*
X-65924Y46152D01*
X-65910Y46296D01*
X-65892Y46439D01*
X-65871Y46582D01*
X-65845Y46724D01*
X-65815Y46865D01*
X-65782Y47005D01*
X-65744Y47145D01*
X-65703Y47283D01*
X-65658Y47420D01*
X-65610Y47556D01*
X-65557Y47690D01*
X-65501Y47823D01*
X-65441Y47955D01*
X-65378Y48084D01*
X-65311Y48212D01*
X-65241Y48338D01*
X-65167Y48462D01*
X-65089Y48584D01*
X-65009Y48704D01*
X-64925Y48821D01*
X-64838Y48936D01*
X-64748Y49049D01*
X-64655Y49159D01*
X-64558Y49266D01*
X-64459Y49371D01*
X-64357Y49473D01*
X-64252Y49572D01*
X-64145Y49669D01*
X-64035Y49762D01*
X-63922Y49852D01*
X-63807Y49939D01*
X-63690Y50023D01*
X-63570Y50103D01*
X-63448Y50181D01*
X-63324Y50255D01*
X-63198Y50325D01*
X-63070Y50392D01*
X-62941Y50455D01*
X-62809Y50515D01*
X-62676Y50571D01*
X-62542Y50624D01*
X-62406Y50672D01*
X-62269Y50717D01*
X-62131Y50758D01*
X-61991Y50796D01*
X-61851Y50829D01*
X-61710Y50859D01*
X-61568Y50885D01*
X-61425Y50906D01*
X-61282Y50924D01*
X-61138Y50938D01*
X-60994Y50948D01*
X-60850Y50954D01*
X-60706Y50956D01*
X-60562Y50954D01*
X-60418Y50948D01*
X-60274Y50938D01*
X-60130Y50924D01*
X-59987Y50906D01*
X-59844Y50885D01*
X-59702Y50859D01*
X-59561Y50829D01*
X-59421Y50796D01*
X-59281Y50758D01*
X-59143Y50717D01*
X-59006Y50672D01*
X-58870Y50624D01*
X-58736Y50571D01*
X-58603Y50515D01*
X-58471Y50455D01*
X-58342Y50392D01*
X-58214Y50325D01*
X-58088Y50255D01*
X-57964Y50181D01*
X-57842Y50103D01*
X-57722Y50023D01*
X-57605Y49939D01*
X-57490Y49852D01*
X-57377Y49762D01*
X-57267Y49669D01*
X-57160Y49572D01*
X-57055Y49473D01*
X-56953Y49371D01*
X-56854Y49266D01*
X-56757Y49159D01*
X-56664Y49049D01*
X-56574Y48936D01*
X-56487Y48821D01*
X-56403Y48704D01*
X-56323Y48584D01*
X-56245Y48462D01*
X-56171Y48338D01*
X-56101Y48212D01*
X-56034Y48084D01*
X-55971Y47955D01*
X-55911Y47823D01*
X-55855Y47690D01*
X-55802Y47556D01*
X-55754Y47420D01*
X-55709Y47283D01*
X-55668Y47145D01*
X-55630Y47005D01*
X-55597Y46865D01*
X-55567Y46724D01*
X-55541Y46582D01*
X-55520Y46439D01*
X-55502Y46296D01*
X-55488Y46152D01*
X-55478Y46008D01*
X-55472Y45864D01*
X-55470Y45720D01*
X-55472Y45576D01*
X-55478Y45432D01*
X-55488Y45288D01*
X-55502Y45144D01*
X-55520Y45001D01*
X-55541Y44858D01*
X-55567Y44716D01*
X-55597Y44575D01*
X-55630Y44435D01*
X-55668Y44295D01*
X-55709Y44157D01*
X-55754Y44020D01*
X-55802Y43884D01*
X-55855Y43750D01*
X-55911Y43617D01*
X-55971Y43485D01*
X-56034Y43356D01*
X-56101Y43228D01*
X-56171Y43102D01*
X-56245Y42978D01*
X-56323Y42856D01*
X-56403Y42736D01*
X-56487Y42619D01*
X-56574Y42504D01*
X-56664Y42391D01*
X-56757Y42281D01*
X-56854Y42174D01*
X-56953Y42069D01*
X-57055Y41967D01*
X-57160Y41868D01*
X-57267Y41771D01*
X-57377Y41678D01*
X-57490Y41588D01*
X-57605Y41501D01*
X-57722Y41417D01*
X-57842Y41337D01*
X-57964Y41259D01*
X-58088Y41185D01*
X-58214Y41115D01*
X-58342Y41048D01*
X-58471Y40985D01*
X-58603Y40925D01*
X-58736Y40869D01*
X-58870Y40816D01*
X-59006Y40768D01*
X-59143Y40723D01*
X-59281Y40682D01*
X-59421Y40644D01*
X-59561Y40611D01*
X-59702Y40581D01*
X-59844Y40555D01*
X-59987Y40534D01*
X-60130Y40516D01*
X-60274Y40502D01*
X-60418Y40492D01*
X-60562Y40486D01*
X-60706Y40484D01*
X-60850Y40486D01*
X-60994Y40492D01*
X-61138Y40502D01*
X-61282Y40516D01*
X-61425Y40534D01*
X-61568Y40555D01*
X-61710Y40581D01*
X-61851Y40611D01*
X-61991Y40644D01*
X-62131Y40682D01*
X-62269Y40723D01*
X-62406Y40768D01*
X-62542Y40816D01*
X-62676Y40869D01*
X-62809Y40925D01*
X-62941Y40985D01*
X-63070Y41048D01*
X-63198Y41115D01*
X-63324Y41185D01*
X-63448Y41259D01*
X-63570Y41337D01*
X-63690Y41417D01*
X-63807Y41501D01*
X-63922Y41588D01*
X-64035Y41678D01*
X-64145Y41771D01*
X-64252Y41868D01*
X-64357Y41967D01*
X-64459Y42069D01*
X-64558Y42174D01*
X-64655Y42281D01*
X-64748Y42391D01*
X-64838Y42504D01*
X-64925Y42619D01*
X-65009Y42736D01*
X-65089Y42856D01*
X-65167Y42978D01*
X-65241Y43102D01*
X-65311Y43228D01*
X-65378Y43356D01*
X-65441Y43485D01*
X-65501Y43617D01*
X-65557Y43750D01*
X-65610Y43884D01*
X-65658Y44020D01*
X-65703Y44157D01*
X-65744Y44295D01*
X-65782Y44435D01*
X-65815Y44575D01*
X-65845Y44716D01*
X-65871Y44858D01*
X-65892Y45001D01*
X-65910Y45144D01*
X-65924Y45288D01*
X-65934Y45432D01*
X-65940Y45576D01*
X-65942Y45720D01*
M02*
