G04 EAGLE Gerber RS-274X export*
G75*
%MOMM*%
%FSLAX34Y34*%
%LPD*%
%INSolderpaste Top*%
%IPPOS*%
%AMOC8*
5,1,8,0,0,1.08239X$1,22.5*%
G01*
%ADD10R,1.200000X1.400000*%
%ADD11R,1.900000X1.300000*%
%ADD12R,1.100000X1.300000*%


D10*
X179564Y170434D03*
X209564Y170434D03*
X179818Y148336D03*
X209818Y148336D03*
X362698Y170180D03*
X392698Y170180D03*
X362698Y148082D03*
X392698Y148082D03*
X546086Y170688D03*
X576086Y170688D03*
X546086Y148082D03*
X576086Y148082D03*
X731252Y170434D03*
X761252Y170434D03*
X731252Y148336D03*
X761252Y148336D03*
X913878Y170180D03*
X943878Y170180D03*
X913878Y148336D03*
X943878Y148336D03*
X1099298Y170434D03*
X1129298Y170434D03*
X1099298Y148336D03*
X1129298Y148336D03*
X1282432Y170180D03*
X1312432Y170180D03*
X1282432Y148082D03*
X1312432Y148082D03*
X1468106Y170180D03*
X1498106Y170180D03*
X1468106Y147828D03*
X1498106Y147828D03*
X1652739Y169850D03*
X1682739Y169850D03*
X1652739Y147752D03*
X1682739Y147752D03*
D11*
X285525Y249914D03*
D12*
X285525Y310914D03*
D11*
X285242Y12172D03*
D12*
X285242Y73172D03*
D11*
X471932Y248646D03*
D12*
X471932Y309646D03*
D11*
X471170Y12426D03*
D12*
X471170Y73426D03*
D11*
X652780Y248900D03*
D12*
X652780Y309900D03*
D11*
X651002Y10394D03*
D12*
X651002Y71394D03*
D11*
X839216Y248900D03*
D12*
X839216Y309900D03*
D11*
X839470Y9632D03*
D12*
X839470Y70632D03*
D11*
X1021334Y250424D03*
D12*
X1021334Y311424D03*
D11*
X1018032Y10394D03*
D12*
X1018032Y71394D03*
D11*
X1208532Y248900D03*
D12*
X1208532Y309900D03*
D11*
X1205992Y8362D03*
D12*
X1205992Y69362D03*
D11*
X1390142Y249154D03*
D12*
X1390142Y310154D03*
D11*
X1387602Y9378D03*
D12*
X1387602Y70378D03*
D11*
X1576578Y246614D03*
D12*
X1576578Y307614D03*
D11*
X1575308Y11156D03*
D12*
X1575308Y72156D03*
M02*
