M48
;GenerationSoftware,Autodesk,EAGLE,9.6.2*%
;CreationDate,2021-07-24T19:55:25Z*%
FMAT,2
ICI,OFF
METRIC,TZ,000.000
T3C0.350
T2C0.813
T1C1.016
%
G90
M71
T1
X-6350Y20574
X-6350Y23114
X-3810Y20574
X-3810Y23114
X-1270Y20574
X-1270Y23114
X1270Y20574
X1270Y23114
X3810Y20574
X3810Y23114
X6350Y20574
X11430Y25654
X6350Y23114
X8890Y20574
X8890Y23114
X11430Y20574
X11430Y23114
X13970Y20574
X13970Y23114
X16510Y20574
X16510Y23114
X19050Y20574
X19050Y23114
X21590Y20574
X24130Y20574
X24130Y23114
X15291Y2769
X12751Y2769
X10211Y2769
X7671Y2769
X5131Y2769
X2591Y2769
X-5563Y12065
X-6350Y25654
X-6350Y28194
X-3810Y25654
X-3810Y28194
X-1270Y25654
X-1270Y28194
X1270Y25654
X1270Y28194
X3810Y25654
X3810Y28194
X6350Y25654
X6350Y28194
X8890Y25654
X8890Y28194
X21590Y23114
X11430Y28194
X13970Y25654
X13970Y28194
X16510Y25654
X16510Y28194
X19050Y25654
X19050Y28194
X21590Y25654
X21590Y28194
X24130Y25654
X24130Y28194
T2
X20625Y11735
X20625Y13767
T3
X6401Y1524
X17577Y14681
X3861Y1499
X18158Y15517
X203Y1829
X-3124Y11252
X23724Y11557
X14151Y6186
X13214Y4722
X11014Y4436
X10105Y4722
X10767Y5345
X6388Y3772
X5361Y5316
X5849Y4518
X3454Y4775
X2057Y5563
X2515Y4750
X12633Y5582
X11509Y3646
X12306Y4674
X9501Y5905
X8725Y4182
X9196Y4996
X7980Y4722
X7071Y4636
X7424Y5545
X4671Y4722
X3889Y3925
X4144Y5801
X8966Y1575
X16916Y13919
X13944Y5277
M30