M48
;GenerationSoftware,Autodesk,EAGLE,9.6.2*%
;CreationDate,2021-02-18T05:32:59Z*%
FMAT,2
ICI,OFF
METRIC,TZ,000.000
T3C0.350
T2C0.900
T1C1.016
%
G90
M71
T1
X82855Y32715
X66243Y-49530
X63703Y-49530
X61163Y-49530
X61163Y-40005
X63703Y-40005
X66243Y-40005
X68783Y-40005
X50927Y-49530
X48387Y-49530
X45847Y-49530
X43307Y-49530
X43307Y-40005
X45847Y-40005
X48387Y-40005
X50927Y-40005
X31979Y-49505
X29439Y-49505
X26899Y-49505
X24359Y-49505
X24359Y-39980
X26899Y-39980
X29439Y-39980
X31979Y-39980
X142545Y-25705
X140005Y-25705
X137465Y-25705
X134925Y-25705
X134925Y-16180
X137465Y-16180
X140005Y-16180
X142545Y-16180
X124714Y-25654
X122174Y-25654
X119634Y-25654
X117094Y-25654
X117094Y-16129
X119634Y-16129
X122174Y-16129
X124714Y-16129
X105766Y-25629
X103226Y-25629
X100686Y-25629
X98146Y-25629
X98146Y-16104
X100686Y-16104
X103226Y-16104
X43510Y-16002
X105766Y-16104
X87935Y-25578
X85395Y-25578
X82855Y-25578
X80315Y-25578
X80315Y-16053
X82855Y-16053
X85395Y-16053
X87935Y-16053
X68986Y-25552
X66446Y-25552
X63906Y-25552
X61366Y-25552
X61366Y-16027
X63906Y-16027
X66446Y-16027
X68986Y-16027
X51130Y-25527
X48590Y-25527
X46050Y-25527
X32182Y32791
X29642Y32791
X27102Y32791
X24562Y32791
X24562Y23266
X27102Y23266
X29642Y23266
X32182Y23266
X51130Y32766
X48590Y32766
X46050Y32766
X43510Y32766
X43510Y23241
X46050Y23241
X48590Y23241
X51130Y23241
X68986Y32741
X66446Y32741
X63906Y32741
X61366Y32741
X61366Y23216
X63906Y23216
X66446Y23216
X68986Y23216
X87935Y32715
X85395Y32715
X43510Y-25527
X80315Y32715
X80366Y23190
X82906Y23190
X85446Y23190
X87986Y23190
X105766Y32664
X103226Y32664
X100686Y32664
X98146Y32664
X98146Y23139
X100686Y23139
X103226Y23139
X105766Y23139
X124714Y32639
X122174Y32639
X119634Y32639
X117094Y32639
X117094Y23114
X119634Y23114
X122174Y23114
X124714Y23114
X142545Y32588
X140005Y32588
X137465Y32588
X134925Y32588
X134925Y23063
X137465Y23063
X140005Y23063
X142545Y23063
X31979Y8788
X29439Y8788
X26899Y8788
X24359Y8788
X24359Y-737
X26899Y-737
X29439Y-737
X31979Y-737
X50927Y8788
X48387Y8788
X45847Y8788
X43307Y8788
X43307Y-737
X45847Y-737
X48387Y-737
X50927Y-737
X68783Y8788
X66243Y8788
X63703Y8788
X61163Y8788
X61163Y-762
X63703Y-762
X66243Y-762
X68783Y-762
X87732Y8738
X85192Y8738
X82652Y8738
X80112Y8738
X80112Y-787
X82652Y-787
X85192Y-787
X87732Y-787
X105562Y8763
X103022Y8763
X100482Y8763
X97942Y8763
X97942Y-762
X100482Y-762
X103022Y-762
X105562Y-762
X124511Y8738
X121971Y8738
X119431Y8738
X116891Y8738
X116891Y-762
X119431Y-762
X121971Y-762
X124511Y-762
X142342Y8763
X139802Y8763
X137262Y8763
X134722Y8763
X134722Y-762
X137262Y-762
X139802Y-762
X142342Y-762
X32156Y-15926
X29616Y-15926
X27076Y-15926
X24536Y-15926
X24562Y-25502
X27102Y-25502
X29642Y-25502
X32182Y-25502
X51130Y-16002
X48590Y-16002
X46050Y-16002
X68783Y-49530
X87732Y-40030
X85192Y-40030
X82652Y-40030
X80112Y-40030
X80112Y-49555
X82652Y-49555
X85192Y-49555
X87732Y-49555
X105562Y-40005
X103022Y-40005
X100482Y-40005
X97942Y-40005
X97942Y-49530
X100482Y-49530
X103022Y-49530
X105562Y-49530
X124511Y-40030
X121971Y-40030
X119431Y-40030
X116891Y-40030
X116891Y-49555
X119431Y-49555
X121971Y-49555
X124511Y-49555
X142342Y-40005
X139802Y-40005
X137262Y-40005
X134722Y-40005
X134722Y-49530
X137262Y-49530
X139802Y-49530
X142342Y-49530
T2
X102150Y-94726
X60150Y-94726
X60150Y-92726
X62150Y-94726
X62150Y-92726
X64150Y-94726
X64150Y-92726
X66150Y-94726
X66150Y-92726
X68150Y-94726
X68150Y-92726
X70150Y-94726
X70150Y-92726
X72150Y-94726
X72150Y-92726
X74150Y-94726
X74150Y-92726
X76150Y-94726
X76150Y-92726
X78150Y-94726
X78150Y-92726
X80150Y-94726
X80150Y-92726
X82150Y-94726
X82150Y-92726
X84150Y-94726
X84150Y-92726
X86150Y-94726
X86150Y-92726
X88150Y-94726
X88150Y-92726
X90150Y-94726
X90150Y-92726
X92150Y-94726
X92150Y-92726
X94150Y-94726
X94150Y-92726
X96150Y-94726
X96150Y-92726
X98150Y-94726
X98150Y-92726
X100150Y-94726
X100150Y-92726
X102150Y-92726
X104150Y-94726
X104150Y-92726
X106150Y-94726
X106150Y-92726
X108150Y-94726
X108150Y-92726
X65099Y-77327
X65099Y-75327
X67099Y-77327
X67099Y-75327
X69099Y-77327
X69099Y-75327
X71099Y-77327
X71099Y-75327
X73099Y-77327
X73099Y-75327
X75099Y-77327
X75099Y-75327
X77099Y-77327
X77099Y-75327
X79099Y-77327
X79099Y-75327
X81099Y-77327
X81099Y-75327
X83099Y-77327
X83099Y-75327
X85099Y-77327
X85099Y-75327
X87099Y-77327
X87099Y-75327
X89099Y-77327
X89099Y-75327
X91099Y-77327
X91099Y-75327
X93099Y-77327
X93099Y-75327
X95099Y-77327
X95099Y-75327
X97099Y-77327
X97099Y-75327
X99099Y-77327
X99099Y-75327
X101099Y-77327
X101099Y-75327
X103099Y-77327
X103099Y-75327
T3
X119101Y-75006
X108077Y-74905
X90526Y-60858
X94968Y-58064
X68326Y-64338
X76987Y-64211
X49403Y-75260
X62992Y-75006
X40132Y-65989
X40132Y-58191
X143840Y-49565
X49022Y-77292
X144094Y23015
X125959Y-49591
X107112Y-49565
X89332Y-49591
X70256Y-49565
X52400Y-49565
X33630Y-49540
X143993Y-25753
X33757Y32827
X126263Y-25702
X107391Y-25677
X89510Y-25626
X70721Y-25586
X52553Y-25575
X33930Y-25522
X143942Y-797
X125857Y-823
X107213Y-797
X89205Y-823
X70333Y-797
X52578Y-797
X33680Y-772
X126136Y23066
X107526Y23132
X89560Y23142
X70434Y23168
X52865Y23208
X33942Y23259
X143916Y-39957
X126162Y-39982
X107137Y-39957
X89154Y-39982
X70518Y-39972
X52299Y-39957
X33579Y-39932
X144094Y-16144
X126263Y-16094
X107290Y-16068
X89586Y-16017
X70587Y-15992
X52680Y-15967
X35179Y-16281
X143942Y8811
X125959Y8786
X107086Y8811
X89281Y8786
X70180Y8811
X52273Y8811
X33604Y8836
X144221Y32623
X126314Y32674
X107315Y32700
X89676Y32729
X70612Y32776
X52730Y32801
X55397Y-83083
M30