M48
;GenerationSoftware,Autodesk,EAGLE,9.6.2*%
;CreationDate,2021-06-28T23:56:39Z*%
FMAT,2
ICI,OFF
METRIC,TZ,000.000
T4C0.350
T3C0.914
T2C1.016
T1C3.000
%
G90
M71
T1
X-24500Y15800
X-24600Y2400
X169100Y28000
X169100Y23400
X169100Y8400
X-24500Y31200
X-12200Y15900
X169100Y3500
T2
X137262Y8763
X139802Y8763
X142342Y8763
X124511Y-762
X121971Y-762
X119431Y-762
X116891Y-762
X116891Y8738
X119431Y8738
X121971Y8738
X124511Y8738
X105562Y-762
X103022Y-762
X100482Y-762
X97942Y-762
X97942Y8763
X100482Y8763
X103022Y8763
X105562Y8763
X87732Y-787
X85192Y-787
X82652Y-787
X80112Y-787
X80112Y8738
X82652Y8738
X85192Y8738
X87732Y8738
X137465Y23063
X68783Y-762
X66243Y-762
X63703Y-762
X61163Y-762
X61163Y8788
X63703Y8788
X66243Y8788
X68783Y8788
X50927Y-737
X48387Y-737
X45847Y-737
X43307Y-737
X43307Y8788
X45847Y8788
X48387Y8788
X50927Y8788
X31979Y-737
X29439Y-737
X26899Y-737
X24359Y-737
X24359Y8788
X26899Y8788
X29439Y8788
X31979Y8788
X142545Y23063
X140005Y23063
X32182Y32791
X29642Y32791
X27102Y32791
X24562Y32791
X24562Y23266
X27102Y23266
X29642Y23266
X32182Y23266
X51130Y32766
X48590Y32766
X46050Y32766
X43510Y32766
X43510Y23241
X46050Y23241
X48590Y23241
X51130Y23241
X68986Y32741
X66446Y32741
X63906Y32741
X61366Y32741
X61366Y23216
X63906Y23216
X66446Y23216
X68986Y23216
X87935Y32715
X85395Y32715
X82855Y32715
X80315Y32715
X80366Y23190
X82906Y23190
X85446Y23190
X87986Y23190
X105766Y32664
X103226Y32664
X100686Y32664
X98146Y32664
X98146Y23139
X100686Y23139
X103226Y23139
X105766Y23139
X124714Y32639
X122174Y32639
X119634Y32639
X117094Y32639
X117094Y23114
X119634Y23114
X122174Y23114
X124714Y23114
X142545Y32588
X140005Y32588
X137465Y32588
X134925Y32588
X134925Y23063
X134722Y8763
X134722Y-762
X137262Y-762
X139802Y-762
X142342Y-762
X161407Y8354
X158867Y8354
X156327Y8354
X153787Y8354
X153812Y-1222
X156352Y-1222
X158892Y-1222
X161432Y-1222
X161463Y32908
X158923Y32908
X156383Y32908
X153843Y32908
X153843Y23383
X156383Y23383
X158923Y23383
X161463Y23383
T3
X-6076Y17275
X-8616Y4575
X-6076Y4575
X-8616Y7115
X-6076Y7115
X-8616Y9655
X-6076Y9655
X-8616Y12195
X-6076Y12195
X-8616Y14735
X-6076Y14735
X-8616Y17275
X-8616Y19815
X-6076Y19815
X-8616Y22355
X-6076Y22355
X-8616Y24895
X-6076Y24895
X-8616Y27435
X-6076Y27435
X-18479Y4425
X-15939Y4425
X-18479Y6965
X-15939Y6965
X-18479Y9505
X-15939Y9505
X-18479Y12045
X-15939Y12045
X-18479Y14585
X-15939Y14585
X-18479Y17125
X-15939Y17125
X-18479Y19665
X-15939Y19665
X-18479Y22205
X-15939Y22205
X-18479Y24745
X-15939Y24745
X-18479Y27285
X-15939Y27285
T4
X89205Y-823
X70333Y-797
X52578Y-797
X33680Y-772
X144094Y23015
X126136Y23066
X107526Y23132
X89560Y23142
X70434Y23168
X52865Y23208
X33942Y23259
X164429Y7998
X125959Y8786
X107086Y8811
X89281Y8786
X70180Y8811
X52273Y8811
X33604Y8836
X163063Y32956
X126314Y32674
X107315Y32700
X89676Y32729
X70612Y32776
X52730Y32801
X-20625Y-1016
X33757Y32827
X-20041Y34493
X166548Y-4318
X148666Y-1600
X130048Y0
X111633Y4572
X92735Y4343
X74473Y5486
X56261Y4521
X38100Y6833
X12344Y5690
X6223Y5563
X14554Y27889
X38151Y27711
X56566Y28423
X74981Y28600
X93497Y27838
X111328Y27762
X129997Y28905
X148412Y27762
X166319Y34544
X-21311Y15926
X144221Y32623
X143942Y8811
X163114Y23348
X163180Y-1242
X143942Y-797
X125857Y-823
X107213Y-797
M30