G04 EAGLE Gerber RS-274X export*
G75*
%MOMM*%
%FSLAX34Y34*%
%LPD*%
%INTop Copper*%
%IPPOS*%
%AMOC8*
5,1,8,0,0,1.08239X$1,22.5*%
G01*
%ADD10R,1.200000X1.400000*%
%ADD11C,1.524000*%
%ADD12C,1.408000*%
%ADD13C,0.609600*%
%ADD14C,0.756400*%
%ADD15C,1.270000*%
%ADD16C,0.812800*%
%ADD17C,0.508000*%
%ADD18C,0.304800*%
%ADD19C,0.254000*%
%ADD20C,0.203200*%


D10*
X179564Y170434D03*
X209564Y170434D03*
X179818Y148336D03*
X209818Y148336D03*
D11*
X321818Y320294D02*
X321818Y335534D01*
X296418Y335534D02*
X296418Y320294D01*
X271018Y320294D02*
X271018Y335534D01*
X245618Y335534D02*
X245618Y320294D01*
X245618Y240284D02*
X245618Y225044D01*
X271018Y225044D02*
X271018Y240284D01*
X296418Y240284D02*
X296418Y225044D01*
X321818Y225044D02*
X321818Y240284D01*
D10*
X362698Y170180D03*
X392698Y170180D03*
X362698Y148082D03*
X392698Y148082D03*
D11*
X511302Y320040D02*
X511302Y335280D01*
X485902Y335280D02*
X485902Y320040D01*
X460502Y320040D02*
X460502Y335280D01*
X435102Y335280D02*
X435102Y320040D01*
X435102Y240030D02*
X435102Y224790D01*
X460502Y224790D02*
X460502Y240030D01*
X485902Y240030D02*
X485902Y224790D01*
X511302Y224790D02*
X511302Y240030D01*
D10*
X546086Y170688D03*
X576086Y170688D03*
X546086Y148082D03*
X576086Y148082D03*
D11*
X689864Y319786D02*
X689864Y335026D01*
X664464Y335026D02*
X664464Y319786D01*
X639064Y319786D02*
X639064Y335026D01*
X613664Y335026D02*
X613664Y319786D01*
X613664Y239776D02*
X613664Y224536D01*
X639064Y224536D02*
X639064Y239776D01*
X664464Y239776D02*
X664464Y224536D01*
X689864Y224536D02*
X689864Y239776D01*
D10*
X731252Y170434D03*
X761252Y170434D03*
X731252Y148336D03*
X761252Y148336D03*
D11*
X879348Y319532D02*
X879348Y334772D01*
X853948Y334772D02*
X853948Y319532D01*
X828548Y319532D02*
X828548Y334772D01*
X803148Y334772D02*
X803148Y319532D01*
X803656Y239522D02*
X803656Y224282D01*
X829056Y224282D02*
X829056Y239522D01*
X854456Y239522D02*
X854456Y224282D01*
X879856Y224282D02*
X879856Y239522D01*
D10*
X913878Y170180D03*
X943878Y170180D03*
X913878Y148336D03*
X943878Y148336D03*
D11*
X1057656Y319024D02*
X1057656Y334264D01*
X1032256Y334264D02*
X1032256Y319024D01*
X1006856Y319024D02*
X1006856Y334264D01*
X981456Y334264D02*
X981456Y319024D01*
X981456Y239014D02*
X981456Y223774D01*
X1006856Y223774D02*
X1006856Y239014D01*
X1032256Y239014D02*
X1032256Y223774D01*
X1057656Y223774D02*
X1057656Y239014D01*
D10*
X1099298Y170434D03*
X1129298Y170434D03*
X1099298Y148336D03*
X1129298Y148336D03*
D11*
X1247140Y318770D02*
X1247140Y334010D01*
X1221740Y334010D02*
X1221740Y318770D01*
X1196340Y318770D02*
X1196340Y334010D01*
X1170940Y334010D02*
X1170940Y318770D01*
X1170940Y238760D02*
X1170940Y223520D01*
X1196340Y223520D02*
X1196340Y238760D01*
X1221740Y238760D02*
X1221740Y223520D01*
X1247140Y223520D02*
X1247140Y238760D01*
D10*
X1282432Y170180D03*
X1312432Y170180D03*
X1282432Y148082D03*
X1312432Y148082D03*
D11*
X1425448Y318262D02*
X1425448Y333502D01*
X1400048Y333502D02*
X1400048Y318262D01*
X1374648Y318262D02*
X1374648Y333502D01*
X1349248Y333502D02*
X1349248Y318262D01*
X1349248Y238252D02*
X1349248Y223012D01*
X1374648Y223012D02*
X1374648Y238252D01*
X1400048Y238252D02*
X1400048Y223012D01*
X1425448Y223012D02*
X1425448Y238252D01*
D10*
X1468106Y170180D03*
X1498106Y170180D03*
X1468106Y147828D03*
X1498106Y147828D03*
X179818Y-73660D03*
X209818Y-73660D03*
X179818Y-96012D03*
X209818Y-96012D03*
D11*
X319786Y80264D02*
X319786Y95504D01*
X294386Y95504D02*
X294386Y80264D01*
X268986Y80264D02*
X268986Y95504D01*
X243586Y95504D02*
X243586Y80264D01*
X243586Y254D02*
X243586Y-14986D01*
X268986Y-14986D02*
X268986Y254D01*
X294386Y254D02*
X294386Y-14986D01*
X319786Y-14986D02*
X319786Y254D01*
D10*
X363206Y-73406D03*
X393206Y-73406D03*
X363714Y-95758D03*
X393714Y-95758D03*
D11*
X509270Y80264D02*
X509270Y95504D01*
X483870Y95504D02*
X483870Y80264D01*
X458470Y80264D02*
X458470Y95504D01*
X433070Y95504D02*
X433070Y80264D01*
X433070Y254D02*
X433070Y-14986D01*
X458470Y-14986D02*
X458470Y254D01*
X483870Y254D02*
X483870Y-14986D01*
X509270Y-14986D02*
X509270Y254D01*
D10*
X545578Y-73406D03*
X575578Y-73406D03*
X545578Y-95504D03*
X575578Y-95504D03*
D11*
X687832Y80264D02*
X687832Y95504D01*
X662432Y95504D02*
X662432Y80264D01*
X637032Y80264D02*
X637032Y95504D01*
X611632Y95504D02*
X611632Y80264D01*
X611632Y0D02*
X611632Y-15240D01*
X637032Y-15240D02*
X637032Y0D01*
X662432Y0D02*
X662432Y-15240D01*
X687832Y-15240D02*
X687832Y0D01*
D10*
X730998Y-73152D03*
X760998Y-73152D03*
X730998Y-95250D03*
X760998Y-95250D03*
D11*
X877316Y79756D02*
X877316Y94996D01*
X851916Y94996D02*
X851916Y79756D01*
X826516Y79756D02*
X826516Y94996D01*
X801116Y94996D02*
X801116Y79756D01*
X801116Y-254D02*
X801116Y-15494D01*
X826516Y-15494D02*
X826516Y-254D01*
X851916Y-254D02*
X851916Y-15494D01*
X877316Y-15494D02*
X877316Y-254D01*
D10*
X914386Y-73660D03*
X944386Y-73660D03*
X914386Y-95504D03*
X944386Y-95504D03*
D11*
X1055624Y80010D02*
X1055624Y95250D01*
X1030224Y95250D02*
X1030224Y80010D01*
X1004824Y80010D02*
X1004824Y95250D01*
X979424Y95250D02*
X979424Y80010D01*
X979424Y0D02*
X979424Y-15240D01*
X1004824Y-15240D02*
X1004824Y0D01*
X1030224Y0D02*
X1030224Y-15240D01*
X1055624Y-15240D02*
X1055624Y0D01*
D10*
X1096758Y-73660D03*
X1126758Y-73660D03*
X1096758Y-95504D03*
X1126758Y-95504D03*
D11*
X1245108Y79756D02*
X1245108Y94996D01*
X1219708Y94996D02*
X1219708Y79756D01*
X1194308Y79756D02*
X1194308Y94996D01*
X1168908Y94996D02*
X1168908Y79756D01*
X1168908Y0D02*
X1168908Y-15240D01*
X1194308Y-15240D02*
X1194308Y0D01*
X1219708Y0D02*
X1219708Y-15240D01*
X1245108Y-15240D02*
X1245108Y0D01*
D10*
X1282178Y-73406D03*
X1312178Y-73406D03*
X1282178Y-95504D03*
X1312178Y-95504D03*
D11*
X1423416Y80010D02*
X1423416Y95250D01*
X1398016Y95250D02*
X1398016Y80010D01*
X1372616Y80010D02*
X1372616Y95250D01*
X1347216Y95250D02*
X1347216Y80010D01*
X1347216Y0D02*
X1347216Y-15240D01*
X1372616Y-15240D02*
X1372616Y0D01*
X1398016Y0D02*
X1398016Y-15240D01*
X1423416Y-15240D02*
X1423416Y0D01*
D10*
X1467852Y-73406D03*
X1497852Y-73406D03*
X1467852Y-95250D03*
X1497852Y-95250D03*
X179818Y-314706D03*
X209818Y-314706D03*
X179818Y-336804D03*
X209818Y-336804D03*
D11*
X321564Y-166878D02*
X321564Y-151638D01*
X296164Y-151638D02*
X296164Y-166878D01*
X270764Y-166878D02*
X270764Y-151638D01*
X245364Y-151638D02*
X245364Y-166878D01*
X245618Y-247396D02*
X245618Y-262636D01*
X271018Y-262636D02*
X271018Y-247396D01*
X296418Y-247396D02*
X296418Y-262636D01*
X321818Y-262636D02*
X321818Y-247396D01*
D10*
X360412Y-314198D03*
X390412Y-314198D03*
X360412Y-336550D03*
X390412Y-336550D03*
D11*
X511302Y-167640D02*
X511302Y-152400D01*
X485902Y-152400D02*
X485902Y-167640D01*
X460502Y-167640D02*
X460502Y-152400D01*
X435102Y-152400D02*
X435102Y-167640D01*
X435102Y-247650D02*
X435102Y-262890D01*
X460502Y-262890D02*
X460502Y-247650D01*
X485902Y-247650D02*
X485902Y-262890D01*
X511302Y-262890D02*
X511302Y-247650D01*
D10*
X545578Y-317754D03*
X575578Y-317754D03*
X545578Y-339598D03*
X575578Y-339598D03*
D11*
X689864Y-167894D02*
X689864Y-152654D01*
X664464Y-152654D02*
X664464Y-167894D01*
X639064Y-167894D02*
X639064Y-152654D01*
X613664Y-152654D02*
X613664Y-167894D01*
X613664Y-247904D02*
X613664Y-263144D01*
X639064Y-263144D02*
X639064Y-247904D01*
X664464Y-247904D02*
X664464Y-263144D01*
X689864Y-263144D02*
X689864Y-247904D01*
D10*
X731252Y-317754D03*
X761252Y-317754D03*
X731506Y-339852D03*
X761506Y-339852D03*
D11*
X879348Y-168148D02*
X879348Y-152908D01*
X853948Y-152908D02*
X853948Y-168148D01*
X828548Y-168148D02*
X828548Y-152908D01*
X803148Y-152908D02*
X803148Y-168148D01*
X803148Y-248158D02*
X803148Y-263398D01*
X828548Y-263398D02*
X828548Y-248158D01*
X853948Y-248158D02*
X853948Y-263398D01*
X879348Y-263398D02*
X879348Y-248158D01*
D10*
X914132Y-317500D03*
X944132Y-317500D03*
X914132Y-339344D03*
X944132Y-339344D03*
D11*
X1057656Y-168656D02*
X1057656Y-153416D01*
X1032256Y-153416D02*
X1032256Y-168656D01*
X1006856Y-168656D02*
X1006856Y-153416D01*
X981456Y-153416D02*
X981456Y-168656D01*
X981456Y-248666D02*
X981456Y-263906D01*
X1006856Y-263906D02*
X1006856Y-248666D01*
X1032256Y-248666D02*
X1032256Y-263906D01*
X1057656Y-263906D02*
X1057656Y-248666D01*
D10*
X1096758Y-320040D03*
X1126758Y-320040D03*
X1096758Y-341884D03*
X1126758Y-341884D03*
D11*
X1247140Y-168910D02*
X1247140Y-153670D01*
X1221740Y-153670D02*
X1221740Y-168910D01*
X1196340Y-168910D02*
X1196340Y-153670D01*
X1170940Y-153670D02*
X1170940Y-168910D01*
X1170940Y-248920D02*
X1170940Y-264160D01*
X1196340Y-264160D02*
X1196340Y-248920D01*
X1221740Y-248920D02*
X1221740Y-264160D01*
X1247140Y-264160D02*
X1247140Y-248920D01*
D10*
X1282178Y-317500D03*
X1312178Y-317500D03*
X1282178Y-339344D03*
X1312178Y-339344D03*
D11*
X1425448Y-169418D02*
X1425448Y-154178D01*
X1400048Y-154178D02*
X1400048Y-169418D01*
X1374648Y-169418D02*
X1374648Y-154178D01*
X1349248Y-154178D02*
X1349248Y-169418D01*
X1349248Y-249428D02*
X1349248Y-264668D01*
X1374648Y-264668D02*
X1374648Y-249428D01*
X1400048Y-249428D02*
X1400048Y-264668D01*
X1425448Y-264668D02*
X1425448Y-249428D01*
D10*
X1467598Y-315214D03*
X1497598Y-315214D03*
X1467598Y-337312D03*
X1497598Y-337312D03*
D11*
X319786Y-392176D02*
X319786Y-407416D01*
X294386Y-407416D02*
X294386Y-392176D01*
X268986Y-392176D02*
X268986Y-407416D01*
X243586Y-407416D02*
X243586Y-392176D01*
X243586Y-487426D02*
X243586Y-502666D01*
X268986Y-502666D02*
X268986Y-487426D01*
X294386Y-487426D02*
X294386Y-502666D01*
X319786Y-502666D02*
X319786Y-487426D01*
X509270Y-407670D02*
X509270Y-392430D01*
X483870Y-392430D02*
X483870Y-407670D01*
X458470Y-407670D02*
X458470Y-392430D01*
X433070Y-392430D02*
X433070Y-407670D01*
X433070Y-487680D02*
X433070Y-502920D01*
X458470Y-502920D02*
X458470Y-487680D01*
X483870Y-487680D02*
X483870Y-502920D01*
X509270Y-502920D02*
X509270Y-487680D01*
X687832Y-407670D02*
X687832Y-392430D01*
X662432Y-392430D02*
X662432Y-407670D01*
X637032Y-407670D02*
X637032Y-392430D01*
X611632Y-392430D02*
X611632Y-407670D01*
X611632Y-487680D02*
X611632Y-502920D01*
X637032Y-502920D02*
X637032Y-487680D01*
X662432Y-487680D02*
X662432Y-502920D01*
X687832Y-502920D02*
X687832Y-487680D01*
X877316Y-407924D02*
X877316Y-392684D01*
X851916Y-392684D02*
X851916Y-407924D01*
X826516Y-407924D02*
X826516Y-392684D01*
X801116Y-392684D02*
X801116Y-407924D01*
X801116Y-487934D02*
X801116Y-503174D01*
X826516Y-503174D02*
X826516Y-487934D01*
X851916Y-487934D02*
X851916Y-503174D01*
X877316Y-503174D02*
X877316Y-487934D01*
X1055624Y-407670D02*
X1055624Y-392430D01*
X1030224Y-392430D02*
X1030224Y-407670D01*
X1004824Y-407670D02*
X1004824Y-392430D01*
X979424Y-392430D02*
X979424Y-407670D01*
X979424Y-487680D02*
X979424Y-502920D01*
X1004824Y-502920D02*
X1004824Y-487680D01*
X1030224Y-487680D02*
X1030224Y-502920D01*
X1055624Y-502920D02*
X1055624Y-487680D01*
X1245108Y-407924D02*
X1245108Y-392684D01*
X1219708Y-392684D02*
X1219708Y-407924D01*
X1194308Y-407924D02*
X1194308Y-392684D01*
X1168908Y-392684D02*
X1168908Y-407924D01*
X1168908Y-487934D02*
X1168908Y-503174D01*
X1194308Y-503174D02*
X1194308Y-487934D01*
X1219708Y-487934D02*
X1219708Y-503174D01*
X1245108Y-503174D02*
X1245108Y-487934D01*
X1423416Y-407670D02*
X1423416Y-392430D01*
X1398016Y-392430D02*
X1398016Y-407670D01*
X1372616Y-407670D02*
X1372616Y-392430D01*
X1347216Y-392430D02*
X1347216Y-407670D01*
X1347216Y-487680D02*
X1347216Y-502920D01*
X1372616Y-502920D02*
X1372616Y-487680D01*
X1398016Y-487680D02*
X1398016Y-502920D01*
X1423416Y-502920D02*
X1423416Y-487680D01*
D12*
X601502Y-947260D03*
X601502Y-927260D03*
X621502Y-947260D03*
X621502Y-927260D03*
X641502Y-947260D03*
X641502Y-927260D03*
X661502Y-947260D03*
X661502Y-927260D03*
X681502Y-947260D03*
X681502Y-927260D03*
X701502Y-947260D03*
X701502Y-927260D03*
X721502Y-947260D03*
X721502Y-927260D03*
X741502Y-947260D03*
X741502Y-927260D03*
X761502Y-947260D03*
X761502Y-927260D03*
X781502Y-947260D03*
X781502Y-927260D03*
X801502Y-947260D03*
X801502Y-927260D03*
X821502Y-947260D03*
X821502Y-927260D03*
X841502Y-947260D03*
X841502Y-927260D03*
X861502Y-947260D03*
X861502Y-927260D03*
X881502Y-947260D03*
X881502Y-927260D03*
X901502Y-947260D03*
X901502Y-927260D03*
X921502Y-947260D03*
X921502Y-927260D03*
X941502Y-947260D03*
X941502Y-927260D03*
X961502Y-947260D03*
X961502Y-927260D03*
X981502Y-947260D03*
X981502Y-927260D03*
X1001502Y-947260D03*
X1001502Y-927260D03*
X1021502Y-947260D03*
X1021502Y-927260D03*
X1041502Y-947260D03*
X1041502Y-927260D03*
X1061502Y-947260D03*
X1061502Y-927260D03*
X1081502Y-947260D03*
X1081502Y-927260D03*
X650994Y-773270D03*
X650994Y-753270D03*
X670994Y-773270D03*
X670994Y-753270D03*
X690994Y-773270D03*
X690994Y-753270D03*
X710994Y-773270D03*
X710994Y-753270D03*
X730994Y-773270D03*
X730994Y-753270D03*
X750994Y-773270D03*
X750994Y-753270D03*
X770994Y-773270D03*
X770994Y-753270D03*
X790994Y-773270D03*
X790994Y-753270D03*
X810994Y-773270D03*
X810994Y-753270D03*
X830994Y-773270D03*
X830994Y-753270D03*
X850994Y-773270D03*
X850994Y-753270D03*
X870994Y-773270D03*
X870994Y-753270D03*
X890994Y-773270D03*
X890994Y-753270D03*
X910994Y-773270D03*
X910994Y-753270D03*
X930994Y-773270D03*
X930994Y-753270D03*
X950994Y-773270D03*
X950994Y-753270D03*
X970994Y-773270D03*
X970994Y-753270D03*
X990994Y-773270D03*
X990994Y-753270D03*
X1010994Y-773270D03*
X1010994Y-753270D03*
X1030994Y-773270D03*
X1030994Y-753270D03*
D13*
X337566Y327914D02*
X321818Y327914D01*
X337566Y327914D02*
X337566Y328267D01*
D14*
X337566Y328267D03*
D15*
X243586Y-495046D02*
X243586Y-525272D01*
X433070Y-524510D02*
X433070Y-498221D01*
X612140Y-498221D02*
X612140Y-526034D01*
X801116Y-525272D02*
X801116Y-498475D01*
X979424Y-524764D02*
X979678Y-525018D01*
X979424Y-524764D02*
X979424Y-498221D01*
X1168654Y-525018D02*
X1168908Y-524764D01*
X1168908Y-498475D01*
X1346200Y-525018D02*
X1347216Y-524002D01*
X1347216Y-498221D01*
D16*
X245618Y-255016D02*
X224028Y-276606D01*
X224282Y-278892D02*
X224282Y-505968D01*
X224028Y-276606D02*
X224028Y-25654D01*
X224028Y206502D01*
X224028Y211074D01*
X245618Y232664D01*
X243586Y-7366D02*
X225298Y-25654D01*
X224028Y-25654D01*
X224028Y206502D02*
X409194Y206502D01*
X434340Y231648D01*
X409194Y206502D02*
X588010Y206502D01*
X612902Y231394D01*
X588010Y206502D02*
X778256Y206502D01*
X780034Y208280D01*
X802894Y231140D01*
X778256Y206502D02*
X956564Y206502D01*
X959358Y209296D01*
X980694Y230632D01*
X956564Y206502D02*
X1146302Y206502D01*
X1147572Y207772D01*
X1170178Y230378D01*
X1146302Y206502D02*
X1325118Y206502D01*
X1327404Y208788D01*
X1348486Y229870D01*
X435102Y-255270D02*
X435102Y-343916D01*
X410972Y-368046D01*
X410972Y-29464D01*
X433070Y-7366D01*
X613664Y-255524D02*
X592328Y-276860D01*
X592328Y-506222D02*
X612140Y-526034D01*
X592328Y-506222D02*
X592328Y-276860D01*
X592328Y-26924D02*
X611632Y-7620D01*
X592328Y-26924D02*
X592328Y-276860D01*
X780034Y-278892D02*
X803148Y-255778D01*
X780034Y-504190D02*
X801116Y-525272D01*
X780034Y-504190D02*
X780034Y-278892D01*
X780034Y-28956D02*
X801116Y-7874D01*
X780034Y-28956D02*
X780034Y-278892D01*
X959358Y-27686D02*
X979424Y-7620D01*
X959358Y-27686D02*
X959358Y-278384D01*
X959358Y-504698D01*
X979678Y-525018D01*
X959358Y-278384D02*
X981456Y-256286D01*
X1147572Y-279908D02*
X1170940Y-256540D01*
X1147572Y-503936D02*
X1168654Y-525018D01*
X1147572Y-503936D02*
X1147572Y-279908D01*
X1147572Y-28956D02*
X1168908Y-7620D01*
X1147572Y-28956D02*
X1147572Y-279908D01*
X1328166Y-278130D02*
X1349248Y-257048D01*
X1328166Y-506984D02*
X1346200Y-525018D01*
X1328166Y-506984D02*
X1328166Y-278130D01*
X1328166Y-26670D02*
X1347216Y-7620D01*
X1328166Y-26670D02*
X1328166Y-278130D01*
X410972Y-29464D02*
X410972Y204724D01*
X409194Y206502D01*
X780034Y208280D02*
X780034Y-28956D01*
X959358Y-27686D02*
X959358Y209296D01*
X1147572Y207772D02*
X1147572Y-28956D01*
X1327404Y-25908D02*
X1328166Y-26670D01*
X1327404Y-25908D02*
X1327404Y208788D01*
X410972Y-368046D02*
X410972Y-498348D01*
X433070Y-520446D01*
X433070Y-524510D01*
X244602Y-526288D02*
X224282Y-505968D01*
X243586Y-525272D02*
X243586Y-526288D01*
X490220Y-772922D01*
D14*
X490220Y-772922D03*
D13*
X1423416Y-495300D02*
X1438402Y-495300D01*
X1438402Y-495653D01*
D14*
X1438402Y-495653D03*
D17*
X209564Y148590D02*
X209564Y170434D01*
X209564Y148590D02*
X209818Y148336D01*
X209818Y-73660D01*
X209818Y-96012D01*
X209818Y-314706D01*
X209818Y-336804D01*
X209818Y-517666D01*
X392698Y148082D02*
X392698Y170180D01*
X392698Y148082D02*
X392698Y-79262D01*
X394462Y-81026D01*
X394716Y-80772D01*
X394716Y-94756D01*
X393714Y-95758D01*
X393714Y-310896D01*
X390412Y-314198D01*
X390412Y-336550D01*
X401320Y-347458D01*
X576086Y148082D02*
X576086Y170688D01*
X576086Y148082D02*
X576086Y-72898D01*
X575578Y-73406D01*
X575578Y-95504D01*
X575578Y-110504D01*
X579628Y-114554D01*
X579628Y-313704D01*
X575578Y-317754D01*
X575578Y-339598D01*
X582168Y-346188D01*
X582168Y-548640D01*
X761252Y148336D02*
X761252Y170434D01*
X761252Y148336D02*
X761252Y-72898D01*
X760998Y-73152D01*
X760998Y-95250D01*
X760998Y-317500D01*
X761252Y-317754D01*
X761252Y-339598D01*
X761506Y-339852D01*
X770382Y-348728D01*
X943878Y148336D02*
X943878Y170180D01*
X943878Y148336D02*
X943878Y-73152D01*
X944386Y-73660D01*
X944386Y-95504D01*
X944386Y-110504D01*
X949452Y-115570D01*
X949452Y-312180D01*
X944132Y-317500D01*
X944132Y-339344D01*
X944132Y-355106D01*
X949452Y-360426D01*
X1129298Y148336D02*
X1129298Y170434D01*
X1129298Y148336D02*
X1129298Y-71120D01*
X1126758Y-73660D01*
X1126758Y-95504D01*
X1126758Y-114060D01*
X1128776Y-116078D01*
X1128776Y-318022D01*
X1126758Y-320040D01*
X1126758Y-341884D01*
X1137920Y-353046D01*
X1312432Y148082D02*
X1312432Y170180D01*
X1312432Y148082D02*
X1312432Y-79742D01*
X1311656Y-80518D01*
X1311148Y-80010D01*
X1311148Y-94474D01*
X1312178Y-95504D01*
X1312178Y-109488D01*
X1315974Y-113284D01*
X1315974Y-313704D01*
X1312178Y-317500D01*
X1312178Y-339344D01*
X1312178Y-348248D01*
X1317498Y-353568D01*
X1498106Y147828D02*
X1498106Y170180D01*
X1498106Y147828D02*
X1498106Y-73152D01*
X1497852Y-73406D01*
X1497852Y-95250D01*
X1497852Y-314960D01*
X1497598Y-315214D01*
X1497598Y-337312D01*
X1497598Y-348756D01*
X1506220Y-357378D01*
X522224Y-830072D02*
X209818Y-517666D01*
D14*
X401320Y-581914D03*
X401320Y-659892D03*
D17*
X494030Y-752602D01*
X545846Y-804418D01*
X545846Y-830072D01*
X401320Y-581914D02*
X401320Y-347458D01*
X522224Y-830072D02*
X545846Y-830072D01*
X629920Y-696722D02*
X629920Y-596392D01*
D14*
X629920Y-750062D03*
D17*
X629920Y-696722D01*
D14*
X494030Y-752602D03*
D17*
X629920Y-596392D02*
X582168Y-548640D01*
X769874Y-642112D02*
X770382Y-641604D01*
D14*
X769874Y-642112D03*
X683260Y-643382D03*
D17*
X629920Y-696722D01*
X770382Y-641604D02*
X770382Y-348728D01*
X949452Y-580418D02*
X949678Y-580644D01*
D14*
X949678Y-580644D03*
X905256Y-608584D03*
D17*
X803402Y-608584D01*
X770382Y-641604D01*
X949452Y-580418D02*
X949452Y-360426D01*
X1137920Y-691896D02*
X1080770Y-749046D01*
D14*
X1080770Y-749046D03*
D17*
X1137920Y-691896D02*
X1137920Y-353046D01*
X1317498Y-623570D02*
X1191006Y-750062D01*
D14*
X1191006Y-750062D03*
D17*
X1317498Y-623570D02*
X1317498Y-353568D01*
X1506220Y-574577D02*
X1133537Y-947260D01*
X1097788Y-947260D01*
X1506220Y-574577D02*
X1506220Y-357378D01*
X553212Y-830072D02*
X545846Y-830072D01*
X553212Y-830072D02*
X553974Y-830834D01*
D14*
X553974Y-830834D03*
D16*
X1081502Y-947260D02*
X1097788Y-947260D01*
D18*
X1496060Y-365774D02*
X1467598Y-337312D01*
X1496060Y-365774D02*
X1496060Y-565150D01*
X1160018Y-901192D02*
X1067308Y-901192D01*
X1061502Y-906998D01*
X1160018Y-901192D02*
X1496060Y-565150D01*
D16*
X1061502Y-906998D02*
X1061502Y-927260D01*
D13*
X527304Y327660D02*
X511302Y327660D01*
X527304Y327660D02*
X527304Y328013D01*
D14*
X527304Y328013D03*
D13*
X689864Y327406D02*
X706120Y327406D01*
X706120Y327759D01*
D14*
X706120Y327759D03*
D13*
X879348Y327152D02*
X896762Y327152D01*
X896762Y327294D01*
D14*
X896762Y327294D03*
D13*
X1057656Y326644D02*
X1073150Y326644D01*
X1073150Y326997D01*
D14*
X1073150Y326997D03*
D13*
X1247140Y326390D02*
X1263142Y326390D01*
X1263142Y326743D01*
D14*
X1263142Y326743D03*
D13*
X1425448Y325882D02*
X1442212Y325882D01*
X1442212Y326235D01*
D14*
X1442212Y326235D03*
D13*
X336042Y87884D02*
X319786Y87884D01*
X336042Y87884D02*
X336042Y88364D01*
D14*
X336042Y88364D03*
D13*
X509270Y87884D02*
X522732Y87884D01*
X522732Y88110D01*
D14*
X522732Y88110D03*
D13*
X687832Y87884D02*
X701802Y87884D01*
X701802Y88110D01*
D14*
X701802Y88110D03*
D13*
X877316Y87376D02*
X892810Y87376D01*
X892810Y87856D01*
D14*
X892810Y87856D03*
D13*
X1055624Y87630D02*
X1070864Y87630D01*
X1070864Y88110D01*
D14*
X1070864Y88110D03*
D13*
X1245108Y87376D02*
X1259586Y87376D01*
X1259586Y87856D01*
D14*
X1259586Y87856D03*
D13*
X1423416Y87630D02*
X1439418Y87630D01*
X1439418Y88110D01*
D14*
X1439418Y88110D03*
D13*
X321818Y-159512D02*
X321564Y-159258D01*
X321818Y-159512D02*
X348488Y-159512D01*
X351790Y-162814D01*
D14*
X351790Y-162814D03*
D13*
X511302Y-160020D02*
X526796Y-160020D01*
X526796Y-159667D01*
D14*
X526796Y-159667D03*
D13*
X689864Y-160274D02*
X705866Y-160274D01*
X705866Y-159921D01*
D14*
X705866Y-159921D03*
D13*
X879348Y-160528D02*
X895858Y-160528D01*
X895858Y-160175D01*
D14*
X895858Y-160175D03*
D13*
X1057656Y-161036D02*
X1072896Y-161036D01*
X1072896Y-160683D01*
D14*
X1072896Y-160683D03*
D13*
X1247140Y-161290D02*
X1262634Y-161290D01*
X1262634Y-160937D01*
D14*
X1262634Y-160937D03*
D13*
X1425448Y-161798D02*
X1440942Y-161798D01*
X1440942Y-161445D01*
D14*
X1440942Y-161445D03*
D13*
X335788Y-399796D02*
X319786Y-399796D01*
X335788Y-399796D02*
X335788Y-399316D01*
D14*
X335788Y-399316D03*
D13*
X509270Y-400050D02*
X522986Y-400050D01*
X522986Y-399570D01*
D14*
X522986Y-399570D03*
D13*
X687832Y-400050D02*
X705183Y-400050D01*
X705183Y-399717D01*
D14*
X705183Y-399717D03*
D13*
X877316Y-400304D02*
X891540Y-400304D01*
X891540Y-399824D01*
D14*
X891540Y-399824D03*
D13*
X1055624Y-400050D02*
X1071372Y-400050D01*
X1071372Y-399570D01*
D14*
X1071372Y-399570D03*
D13*
X1245108Y-400304D02*
X1261618Y-400304D01*
X1261618Y-399824D01*
D14*
X1261618Y-399824D03*
D18*
X179564Y170434D02*
X149606Y140476D01*
X149606Y-556006D01*
X540860Y-947260D01*
X586486Y-947260D01*
D16*
X601502Y-947260D01*
D18*
X154178Y122696D02*
X179818Y148336D01*
X154178Y122696D02*
X154178Y-553720D01*
X527718Y-927260D02*
X585216Y-927260D01*
X527718Y-927260D02*
X154178Y-553720D01*
D16*
X585216Y-927260D02*
X601502Y-927260D01*
D18*
X353650Y139820D02*
X353650Y156345D01*
X362698Y165393D02*
X362698Y170180D01*
X362698Y165393D02*
X353650Y156345D01*
X353650Y139820D02*
X372858Y120612D01*
X372858Y-39978D02*
X345522Y-67314D01*
X345522Y-107808D01*
X371334Y-133620D01*
X371334Y-266568D02*
X328676Y-309226D01*
X328676Y-359365D01*
X369048Y-399737D01*
X372858Y-39978D02*
X372858Y120612D01*
X371334Y-133620D02*
X371334Y-266568D01*
X369048Y-399737D02*
X369048Y-606030D01*
X651256Y-888238D02*
X651256Y-900176D01*
X651256Y-888238D02*
X369048Y-606030D01*
D19*
X651256Y-900176D02*
X651668Y-900588D01*
X651668Y-937429D01*
D16*
X661499Y-947260D02*
X661502Y-947260D01*
X661499Y-947260D02*
X651668Y-937429D01*
D18*
X377430Y133350D02*
X362698Y148082D01*
X377430Y133350D02*
X377430Y-41872D01*
X350094Y-69208D01*
X350094Y-105914D02*
X376160Y-131980D01*
X376160Y-268208D02*
X333248Y-311120D01*
X333248Y-357471D01*
X373620Y-397843D01*
X350094Y-105914D02*
X350094Y-69208D01*
X376160Y-131980D02*
X376160Y-268208D01*
X373620Y-397843D02*
X373620Y-602728D01*
X661416Y-890524D02*
X661416Y-899668D01*
X661416Y-890524D02*
X373620Y-602728D01*
D19*
X661416Y-905002D02*
X661502Y-905088D01*
D16*
X661502Y-927260D01*
X661502Y-905088D02*
X661502Y-899754D01*
X661416Y-899668D01*
D18*
X535686Y160288D02*
X546086Y170688D01*
X535686Y137160D02*
X556754Y116092D01*
X556754Y-38454D02*
X525780Y-69428D01*
X525780Y-107674D01*
X535686Y137160D02*
X535686Y160288D01*
X556754Y116092D02*
X556754Y-38454D01*
X525780Y-107674D02*
X556754Y-138648D01*
X516890Y-305723D02*
X516890Y-356063D01*
X552196Y-391369D02*
X552196Y-593968D01*
X570992Y-612764D02*
X570992Y-612902D01*
X570992Y-612764D02*
X552196Y-593968D01*
X556754Y-265859D02*
X556754Y-138648D01*
X556754Y-265859D02*
X516890Y-305723D01*
X516890Y-356063D02*
X552196Y-391369D01*
X570992Y-612764D02*
X591566Y-633338D01*
X591566Y-775970D01*
X711708Y-896112D02*
X711708Y-901700D01*
X711708Y-896112D02*
X591566Y-775970D01*
D19*
X711668Y-923187D02*
X711668Y-937175D01*
X711668Y-923187D02*
X711708Y-923147D01*
X711708Y-901700D01*
D16*
X711668Y-937426D02*
X721502Y-947260D01*
X711668Y-937426D02*
X711668Y-937175D01*
D18*
X561580Y-137008D02*
X530352Y-105780D01*
X561326Y132842D02*
X546086Y148082D01*
X561326Y132842D02*
X561326Y-40348D01*
X530352Y-71322D01*
X530352Y-105780D01*
X561580Y-267498D02*
X521462Y-307616D01*
X521462Y-354169D01*
X557022Y-389729D01*
X561580Y-267498D02*
X561580Y-137008D01*
X557022Y-389729D02*
X557022Y-592328D01*
X596900Y-632206D02*
X596900Y-773176D01*
X721614Y-897890D01*
X721614Y-901700D01*
X596900Y-632206D02*
X557022Y-592328D01*
D16*
X721360Y-927118D02*
X721502Y-927260D01*
X721360Y-901954D02*
X721614Y-901700D01*
X721360Y-901954D02*
X721360Y-927118D01*
D18*
X719836Y159018D02*
X731252Y170434D01*
X719836Y139192D02*
X750302Y108726D01*
X711454Y-68920D02*
X711454Y-111738D01*
X738124Y-138408D01*
X738124Y-272142D02*
X701548Y-308718D01*
X701548Y-361950D01*
X737870Y-398272D01*
X719836Y139192D02*
X719836Y159018D01*
X750302Y108726D02*
X750302Y-30072D01*
X711454Y-68920D01*
X738124Y-138408D02*
X738124Y-272142D01*
X737870Y-398272D02*
X737870Y-591659D01*
D19*
X737870Y-647954D01*
X661160Y-724664D02*
X661160Y-787398D01*
X661160Y-724664D02*
X737870Y-647954D01*
X661160Y-787398D02*
X771668Y-897906D01*
X771668Y-936413D02*
X772972Y-937718D01*
X771668Y-936413D02*
X771668Y-897906D01*
D16*
X772972Y-938730D02*
X781502Y-947260D01*
X772972Y-938730D02*
X772972Y-937718D01*
D18*
X742696Y-136514D02*
X716026Y-109844D01*
X755128Y124460D02*
X731252Y148336D01*
X755128Y124460D02*
X755128Y-31712D01*
X716026Y-70814D01*
X716026Y-109844D01*
X742696Y-274036D02*
X706120Y-310612D01*
X706120Y-359757D01*
X742442Y-396079D02*
X742442Y-589258D01*
X742696Y-274036D02*
X742696Y-136514D01*
X706120Y-359757D02*
X742442Y-396079D01*
D19*
X742442Y-589258D02*
X742442Y-655320D01*
X681160Y-777343D02*
X681228Y-777411D01*
X681228Y-796290D01*
X681160Y-777343D02*
X681160Y-716602D01*
X781812Y-896874D02*
X781812Y-905002D01*
X681160Y-716602D02*
X742442Y-655320D01*
X681228Y-796290D02*
X781812Y-896874D01*
X781812Y-909066D02*
X781502Y-909376D01*
D16*
X781502Y-927260D01*
X781502Y-909376D02*
X781502Y-905312D01*
X781812Y-905002D01*
D18*
X912368Y170180D02*
X913878Y170180D01*
X912368Y170180D02*
X902970Y160782D01*
X902970Y136652D01*
X927340Y112282D01*
X927340Y-36930D02*
X893826Y-70444D01*
X893826Y-106912D01*
X884174Y-308263D02*
X884174Y-356063D01*
X926275Y-139360D02*
X893826Y-106912D01*
X926275Y-139360D02*
X926275Y-266162D01*
X884174Y-308263D01*
X884174Y-356063D02*
X918972Y-390861D01*
X927340Y-36930D02*
X927340Y112282D01*
X918972Y-390861D02*
X918972Y-585795D01*
D19*
X918972Y-610108D01*
X781050Y-748030D01*
X781050Y-837184D01*
X831342Y-887476D01*
X831668Y-909483D02*
X831668Y-936159D01*
X831668Y-909483D02*
X831342Y-909157D01*
X831342Y-887476D01*
D16*
X831668Y-937426D02*
X841502Y-947260D01*
X831668Y-937426D02*
X831668Y-936159D01*
D18*
X931487Y-138107D02*
X898398Y-105018D01*
X932420Y129794D02*
X913878Y148336D01*
X932420Y129794D02*
X932420Y-38316D01*
X898398Y-72338D01*
X898398Y-105018D01*
X923544Y-388967D02*
X923544Y-584454D01*
X888746Y-354169D02*
X888746Y-310156D01*
X888746Y-354169D02*
X923544Y-388967D01*
X931487Y-267415D02*
X931487Y-138107D01*
X931487Y-267415D02*
X888746Y-310156D01*
D19*
X923544Y-584454D02*
X923544Y-615950D01*
X800862Y-738632D01*
X800862Y-839216D01*
D20*
X841502Y-879856D02*
X841502Y-904494D01*
X841502Y-879856D02*
X800862Y-839216D01*
D16*
X841502Y-904494D02*
X841502Y-927260D01*
D18*
X1096772Y170434D02*
X1099298Y170434D01*
X1096772Y170434D02*
X1087882Y161544D01*
X1087882Y131826D01*
X1112506Y107202D01*
X1076706Y-65416D02*
X1076706Y-109198D01*
X1107694Y-140186D01*
X1067816Y-308718D02*
X1067816Y-360381D01*
X1107440Y-400005D01*
X1107440Y-549077D02*
X1093942Y-562574D01*
X1112506Y-29616D02*
X1112506Y107202D01*
X1112506Y-29616D02*
X1076706Y-65416D01*
X1107694Y-140186D02*
X1107694Y-268840D01*
X1067816Y-308718D01*
X1107440Y-400005D02*
X1107440Y-549077D01*
D19*
X1093942Y-562574D02*
X1018723Y-637794D01*
X960628Y-637794D01*
X901160Y-777343D02*
X901954Y-778137D01*
X901160Y-697262D02*
X960628Y-637794D01*
X901160Y-697262D02*
X901160Y-777343D01*
X901954Y-823468D02*
X891540Y-833882D01*
X891540Y-902462D01*
X901954Y-823468D02*
X901954Y-778137D01*
X891540Y-902462D02*
X891668Y-902590D01*
X891668Y-936413D01*
D16*
X891668Y-937426D02*
X901502Y-947260D01*
X891668Y-937426D02*
X891668Y-936413D01*
D18*
X1117332Y130302D02*
X1099298Y148336D01*
X1117332Y130302D02*
X1117332Y-31256D01*
X1112266Y-270734D02*
X1072388Y-310612D01*
X1072388Y-358487D01*
X1112012Y-398111D02*
X1112012Y-550971D01*
X1098064Y-564918D01*
X1081278Y-67310D02*
X1117332Y-31256D01*
X1081278Y-67310D02*
X1081278Y-107304D01*
X1112266Y-138292D01*
X1112266Y-270734D01*
X1072388Y-358487D02*
X1112012Y-398111D01*
D19*
X1098064Y-564918D02*
X1019855Y-643128D01*
X966470Y-643128D01*
X920828Y-777343D02*
X920750Y-777421D01*
X920828Y-688770D02*
X966470Y-643128D01*
X920828Y-688770D02*
X920828Y-777343D01*
X901446Y-836676D02*
X901446Y-903732D01*
X920750Y-817372D02*
X920750Y-777421D01*
X920750Y-817372D02*
X901446Y-836676D01*
X901446Y-908558D02*
X901502Y-908614D01*
D16*
X901502Y-927260D01*
X901502Y-908614D02*
X901502Y-903788D01*
X901446Y-903732D01*
D18*
X1270762Y158510D02*
X1282432Y170180D01*
X1270762Y138176D02*
X1298434Y110504D01*
X1259840Y-67956D02*
X1259840Y-107420D01*
X1293876Y-141456D01*
X1293876Y-265337D02*
X1251712Y-307501D01*
X1251712Y-357841D01*
X1288288Y-394417D01*
X1270762Y138176D02*
X1270762Y158510D01*
X1298434Y110504D02*
X1298434Y-29362D01*
X1259840Y-67956D01*
X1293876Y-141456D02*
X1293876Y-265337D01*
X1288288Y-394417D02*
X1288288Y-561269D01*
X951484Y-898073D02*
X951484Y-903732D01*
X951484Y-898073D02*
X1288288Y-561269D01*
D19*
X951484Y-903732D02*
X951668Y-903916D01*
X951668Y-935905D01*
D16*
X951668Y-937426D02*
X961502Y-947260D01*
X951668Y-937426D02*
X951668Y-935905D01*
D18*
X1303514Y127000D02*
X1282432Y148082D01*
X1303514Y127000D02*
X1303514Y-30748D01*
X1264412Y-105526D02*
X1298448Y-139562D01*
X1298448Y-267230D01*
X1256284Y-309394D01*
X1256284Y-355947D01*
X1292860Y-392523D01*
X1264412Y-69850D02*
X1303514Y-30748D01*
X1264412Y-69850D02*
X1264412Y-105526D01*
X1292860Y-392523D02*
X1292860Y-565957D01*
X961390Y-897427D02*
X961390Y-905764D01*
X961390Y-897427D02*
X1292860Y-565957D01*
D16*
X961502Y-911210D02*
X961502Y-927260D01*
X961502Y-911210D02*
X961390Y-911098D01*
X961390Y-905764D01*
D18*
X1455674Y157748D02*
X1468106Y170180D01*
X1455674Y136652D02*
X1476742Y115584D01*
X1476742Y-31394D02*
X1447546Y-60590D01*
X1447546Y-108690D02*
X1476190Y-137334D01*
X1476190Y-265902D02*
X1437386Y-304707D01*
X1437386Y-356825D02*
X1473095Y-392535D01*
X1473095Y-545835D01*
X1455674Y136652D02*
X1455674Y157748D01*
X1476742Y115584D02*
X1476742Y-31394D01*
X1447546Y-60590D02*
X1447546Y-108690D01*
X1476190Y-137334D02*
X1476190Y-265902D01*
X1437386Y-304707D02*
X1437386Y-356825D01*
X1011174Y-896112D02*
X1011174Y-907034D01*
X1149234Y-869696D02*
X1473095Y-545835D01*
X1149234Y-869696D02*
X1037590Y-869696D01*
X1011174Y-896112D01*
D19*
X1011668Y-935143D02*
X1011717Y-935193D01*
X1011668Y-935143D02*
X1011668Y-907528D01*
X1011174Y-907034D01*
D16*
X1011717Y-937475D02*
X1021502Y-947260D01*
X1011717Y-937475D02*
X1011717Y-935334D01*
X1011647Y-935263D01*
D18*
X1481314Y134620D02*
X1468106Y147828D01*
X1481314Y134620D02*
X1481314Y-33288D01*
X1452118Y-106796D02*
X1481016Y-135694D01*
X1441958Y-306600D02*
X1441958Y-354931D01*
X1477772Y-390745D01*
X1481016Y-267542D02*
X1481016Y-135694D01*
X1481016Y-267542D02*
X1441958Y-306600D01*
X1452118Y-62484D02*
X1481314Y-33288D01*
X1452118Y-62484D02*
X1452118Y-106796D01*
X1477772Y-390745D02*
X1477772Y-549910D01*
X1021080Y-896112D02*
X1021080Y-905510D01*
X1151128Y-876554D02*
X1477772Y-549910D01*
X1151128Y-876554D02*
X1040638Y-876554D01*
X1021080Y-896112D01*
D16*
X1021502Y-911266D02*
X1021502Y-927260D01*
X1021080Y-910844D02*
X1021080Y-905510D01*
X1021080Y-910844D02*
X1021502Y-911266D01*
D18*
X179818Y-73660D02*
X159004Y-94474D01*
X159004Y-551688D01*
X494538Y-887222D01*
X611886Y-897128D02*
X611886Y-899922D01*
X601980Y-887222D02*
X494538Y-887222D01*
X601980Y-887222D02*
X611886Y-897128D01*
D19*
X611632Y-937393D02*
X613978Y-939740D01*
X611632Y-900176D02*
X611886Y-899922D01*
X611632Y-900176D02*
X611632Y-937393D01*
D16*
X621499Y-947260D02*
X621502Y-947260D01*
X621499Y-947260D02*
X613978Y-939740D01*
D18*
X163830Y-112000D02*
X179818Y-96012D01*
X163830Y-112000D02*
X163830Y-549402D01*
X495554Y-881126D01*
X621538Y-893572D02*
X621538Y-899922D01*
X609092Y-881126D02*
X495554Y-881126D01*
X609092Y-881126D02*
X621538Y-893572D01*
D19*
X621538Y-904494D02*
X621502Y-904530D01*
D16*
X621502Y-927260D01*
X621502Y-904530D02*
X621502Y-899958D01*
X621538Y-899922D01*
D18*
X354666Y-104021D02*
X354666Y-87496D01*
X363206Y-78956D02*
X363206Y-73406D01*
X363206Y-78956D02*
X354666Y-87496D01*
X354666Y-104021D02*
X381240Y-130595D01*
X381240Y-269594D02*
X337820Y-313014D01*
X381240Y-269594D02*
X381240Y-130595D01*
X337820Y-355578D02*
X378700Y-396458D01*
X337820Y-355578D02*
X337820Y-313014D01*
X378700Y-396458D02*
X378700Y-599542D01*
X671576Y-892418D02*
X671576Y-900176D01*
X671576Y-892418D02*
X378700Y-599542D01*
D19*
X681502Y-947009D02*
X681502Y-947260D01*
X681502Y-947009D02*
X671668Y-937175D01*
X671668Y-900268D02*
X671576Y-900176D01*
X671668Y-900268D02*
X671668Y-937175D01*
D18*
X383526Y-394818D02*
X342392Y-353684D01*
X386066Y-118110D02*
X363714Y-95758D01*
X386066Y-118110D02*
X386066Y-271234D01*
X342392Y-314908D01*
X342392Y-353684D01*
X383526Y-394818D02*
X383526Y-596886D01*
X681482Y-894842D01*
X681482Y-901192D01*
D19*
X681482Y-906018D02*
X681502Y-906038D01*
D16*
X681502Y-927260D01*
X681502Y-906038D02*
X681502Y-901212D01*
X681482Y-901192D01*
D18*
X534924Y-84060D02*
X545578Y-73406D01*
X534924Y-103886D02*
X566914Y-135876D01*
X566914Y-268630D02*
X526034Y-309510D01*
X526034Y-352276D01*
X561594Y-387836D01*
X561594Y-590296D01*
X534924Y-103886D02*
X534924Y-84060D01*
X566914Y-135876D02*
X566914Y-268630D01*
X602234Y-770382D02*
X731774Y-899922D01*
X731774Y-901446D01*
X602234Y-630936D02*
X561594Y-590296D01*
X602234Y-630936D02*
X602234Y-770382D01*
D19*
X731668Y-923187D02*
X731668Y-936921D01*
X733160Y-938414D01*
X731668Y-923187D02*
X731774Y-923081D01*
X731774Y-901446D01*
D16*
X733160Y-938918D02*
X741502Y-947260D01*
X733160Y-938918D02*
X733160Y-938414D01*
D18*
X572502Y-122428D02*
X545578Y-95504D01*
X572502Y-122428D02*
X572502Y-269508D01*
X566166Y-385942D02*
X566166Y-588380D01*
X573416Y-595630D02*
X573532Y-595630D01*
X530606Y-311404D02*
X572502Y-269508D01*
X530606Y-311404D02*
X530606Y-350382D01*
X566166Y-385942D01*
X566166Y-588380D02*
X573416Y-595630D01*
X607822Y-630036D01*
X740410Y-900938D02*
X740410Y-902970D01*
X607822Y-768350D02*
X607822Y-630036D01*
X607822Y-768350D02*
X740410Y-900938D01*
D19*
X741426Y-907034D02*
X741502Y-907110D01*
D16*
X741502Y-927260D01*
X741502Y-907110D02*
X741502Y-906500D01*
X741477Y-906475D01*
X741502Y-906500D02*
X741502Y-904062D01*
X740410Y-902970D01*
D18*
X720598Y-83552D02*
X730998Y-73152D01*
X720598Y-107950D02*
X747522Y-134874D01*
X710692Y-312760D02*
X710692Y-357864D01*
X747337Y-394509D01*
X747522Y-275930D02*
X747522Y-134874D01*
X747522Y-275930D02*
X710692Y-312760D01*
X720598Y-107950D02*
X720598Y-83552D01*
X747337Y-394509D02*
X747337Y-587687D01*
D19*
X747337Y-669475D01*
X700828Y-715984D01*
X700828Y-806746D01*
X791718Y-897636D02*
X791718Y-923137D01*
X791718Y-897636D02*
X700828Y-806746D01*
X791668Y-923187D02*
X791668Y-935651D01*
X793513Y-937497D01*
X791668Y-923187D02*
X791718Y-923137D01*
D16*
X793513Y-939271D02*
X801502Y-947260D01*
X793513Y-939271D02*
X793513Y-937497D01*
D18*
X752588Y-116840D02*
X730998Y-95250D01*
X752588Y-116840D02*
X752588Y-277584D01*
X715264Y-314908D01*
X715264Y-355970D01*
X752094Y-392800D02*
X752094Y-584454D01*
X752094Y-392800D02*
X715264Y-355970D01*
D19*
X752094Y-584454D02*
X752094Y-682498D01*
X721160Y-713432D02*
X721160Y-815902D01*
X801624Y-896366D02*
X801624Y-903732D01*
X721160Y-713432D02*
X752094Y-682498D01*
X721160Y-815902D02*
X801624Y-896366D01*
X801370Y-908558D02*
X801502Y-908690D01*
D16*
X801502Y-927260D01*
X801502Y-908690D02*
X801624Y-908568D01*
X801624Y-903732D01*
D18*
X902970Y-85076D02*
X914386Y-73660D01*
X902970Y-103124D02*
X936244Y-136398D01*
X928577Y-387535D02*
X928577Y-581453D01*
X893318Y-352276D02*
X893318Y-312050D01*
X893318Y-352276D02*
X928577Y-387535D01*
X902970Y-103124D02*
X902970Y-85076D01*
X936244Y-136398D02*
X936244Y-269124D01*
X893318Y-312050D01*
D19*
X928577Y-581453D02*
X928577Y-619045D01*
X821160Y-777343D02*
X821182Y-777365D01*
X821160Y-777343D02*
X821160Y-726462D01*
X928577Y-619045D01*
X821182Y-777365D02*
X821182Y-846328D01*
D20*
X851408Y-876554D01*
X851408Y-905256D01*
D19*
X851408Y-937166D01*
D16*
X861502Y-947260D01*
D18*
X940816Y-121934D02*
X914386Y-95504D01*
X897890Y-350382D02*
X933588Y-386080D01*
X933588Y-576950D01*
X940816Y-271018D02*
X940816Y-121934D01*
X940816Y-271018D02*
X897890Y-313944D01*
X897890Y-350382D01*
D19*
X933588Y-576950D02*
X933588Y-624448D01*
X841160Y-777343D02*
X841248Y-777431D01*
X841160Y-777343D02*
X841160Y-716876D01*
X933588Y-624448D01*
X841248Y-777431D02*
X841248Y-848868D01*
D20*
X861314Y-868934D01*
X861314Y-905510D01*
D16*
X861502Y-909386D02*
X861502Y-927260D01*
X861502Y-909386D02*
X861568Y-909320D01*
X861502Y-909386D02*
X861502Y-905698D01*
X861314Y-905510D01*
D18*
X1085850Y-84568D02*
X1096758Y-73660D01*
X1085850Y-105410D02*
X1116838Y-136398D01*
X1076960Y-312506D02*
X1076960Y-356594D01*
X1116584Y-552865D02*
X1102186Y-567262D01*
X1085850Y-105410D02*
X1085850Y-84568D01*
X1116838Y-136398D02*
X1116838Y-272628D01*
X1076960Y-312506D01*
X1076960Y-356594D02*
X1116584Y-396218D01*
X1116584Y-552865D01*
D19*
X1102186Y-567262D02*
X1020479Y-648970D01*
X972312Y-648970D01*
X941070Y-680212D01*
X912114Y-840232D02*
X912114Y-903732D01*
X941070Y-811276D02*
X941070Y-680212D01*
X941070Y-811276D02*
X912114Y-840232D01*
X912114Y-903732D02*
X911606Y-904240D01*
X911606Y-937006D01*
D16*
X911606Y-937364D02*
X921502Y-947260D01*
X911606Y-937364D02*
X911606Y-937006D01*
D18*
X1096758Y-102856D02*
X1096758Y-95504D01*
X1096758Y-102856D02*
X1121410Y-127508D01*
X1121410Y-274522D01*
X1081532Y-314400D01*
X1081532Y-354700D02*
X1121410Y-394578D01*
X1121410Y-554504D01*
X1105546Y-570368D01*
X1081532Y-354700D02*
X1081532Y-314400D01*
D19*
X1105546Y-570368D02*
X1020086Y-655828D01*
X983488Y-655828D01*
X960882Y-678434D01*
X921258Y-849376D02*
X921258Y-903732D01*
X960882Y-809752D02*
X960882Y-678434D01*
X960882Y-809752D02*
X921258Y-849376D01*
X921512Y-909320D02*
X921502Y-909330D01*
D16*
X921502Y-927260D01*
X921502Y-909330D02*
X921258Y-909086D01*
X921258Y-903732D01*
D18*
X1280668Y-73406D02*
X1282178Y-73406D01*
X1280668Y-73406D02*
X1268984Y-85090D01*
X1268984Y-103632D01*
X1260856Y-311288D02*
X1260856Y-354054D01*
X1297432Y-390630D01*
X1303528Y-138176D02*
X1268984Y-103632D01*
X1303528Y-138176D02*
X1303528Y-268616D01*
X1260856Y-311288D01*
X1297432Y-390630D02*
X1297432Y-571915D01*
X971296Y-898051D02*
X971296Y-906272D01*
X971296Y-898051D02*
X1297432Y-571915D01*
D19*
X971296Y-906272D02*
X971550Y-906526D01*
X971550Y-937308D01*
D16*
X981502Y-947260D01*
D18*
X1308100Y-121426D02*
X1282178Y-95504D01*
X1265428Y-313182D02*
X1265428Y-352160D01*
X1308100Y-270510D02*
X1308100Y-121426D01*
X1308100Y-270510D02*
X1265428Y-313182D01*
X1265428Y-352160D02*
X1302004Y-388736D01*
X1302004Y-576348D01*
X981456Y-896896D02*
X981456Y-906272D01*
X981456Y-896896D02*
X1302004Y-576348D01*
D16*
X981502Y-910636D02*
X981502Y-927260D01*
X981502Y-910636D02*
X981456Y-910590D01*
X981456Y-906272D01*
D18*
X1456690Y-84568D02*
X1467852Y-73406D01*
X1456690Y-104902D02*
X1486154Y-134366D01*
X1486154Y-268870D02*
X1446530Y-308494D01*
X1446530Y-353038D01*
X1482344Y-388852D01*
X1456690Y-104902D02*
X1456690Y-84568D01*
X1486154Y-134366D02*
X1486154Y-268870D01*
X1482344Y-388852D02*
X1482344Y-553858D01*
X1153552Y-882650D01*
X1046734Y-882650D01*
X1031494Y-897890D01*
D19*
X1031494Y-935223D01*
D16*
X1031494Y-937252D02*
X1041502Y-947260D01*
X1031494Y-937252D02*
X1031494Y-935223D01*
D18*
X1490726Y-118124D02*
X1467852Y-95250D01*
X1451102Y-351144D02*
X1486916Y-386958D01*
X1490726Y-270764D02*
X1490726Y-118124D01*
X1490726Y-270764D02*
X1451102Y-310388D01*
X1451102Y-351144D01*
X1486916Y-386958D02*
X1486916Y-557784D01*
X1041146Y-899414D02*
X1041146Y-906018D01*
X1154938Y-889762D02*
X1486916Y-557784D01*
X1154938Y-889762D02*
X1050798Y-889762D01*
X1041146Y-899414D01*
D16*
X1041502Y-906374D02*
X1041502Y-927260D01*
X1041502Y-906374D02*
X1041146Y-906018D01*
D18*
X179818Y-317716D02*
X179818Y-314706D01*
X179818Y-317716D02*
X168738Y-328796D01*
X168738Y-546944D01*
X496316Y-874522D01*
X631444Y-891794D02*
X631444Y-900176D01*
X614172Y-874522D02*
X496316Y-874522D01*
X614172Y-874522D02*
X631444Y-891794D01*
D19*
X631668Y-923187D02*
X631668Y-937429D01*
X631668Y-923187D02*
X631698Y-923157D01*
X631698Y-900430D01*
X631444Y-900176D01*
D16*
X641499Y-947260D02*
X641502Y-947260D01*
X641499Y-947260D02*
X631668Y-937429D01*
D18*
X174484Y-342138D02*
X179818Y-336804D01*
X174484Y-342138D02*
X174484Y-545578D01*
X497078Y-868172D01*
X641350Y-890778D02*
X641350Y-900684D01*
X618744Y-868172D02*
X497078Y-868172D01*
X618744Y-868172D02*
X641350Y-890778D01*
D19*
X641604Y-905002D02*
X641502Y-905104D01*
D16*
X641502Y-927260D01*
X641502Y-905104D02*
X641502Y-900836D01*
X641350Y-900684D01*
D18*
X346964Y-327646D02*
X360412Y-314198D01*
X346964Y-351790D02*
X388181Y-393007D01*
X346964Y-351790D02*
X346964Y-327646D01*
X691642Y-894842D02*
X691642Y-900938D01*
X388181Y-591381D02*
X388181Y-393007D01*
X388181Y-591381D02*
X691642Y-894842D01*
D19*
X691642Y-900938D02*
X691668Y-900964D01*
X691668Y-937175D01*
D16*
X691668Y-937426D02*
X701502Y-947260D01*
X691668Y-937426D02*
X691668Y-937175D01*
D18*
X392938Y-369076D02*
X360412Y-336550D01*
X392938Y-369076D02*
X392938Y-585978D01*
X701548Y-894588D01*
X701548Y-901192D01*
D19*
X701548Y-906526D02*
X701502Y-906572D01*
D16*
X701502Y-927260D01*
X701502Y-906572D02*
X701502Y-901238D01*
X701548Y-901192D01*
D18*
X535178Y-328154D02*
X545578Y-317754D01*
X535178Y-348488D02*
X570738Y-384048D01*
X535178Y-348488D02*
X535178Y-328154D01*
X570738Y-384048D02*
X570738Y-586486D01*
X575310Y-591058D02*
X575426Y-591058D01*
X613410Y-629042D01*
X613410Y-764794D02*
X751668Y-903052D01*
X575310Y-591058D02*
X570738Y-586486D01*
X613410Y-629042D02*
X613410Y-764794D01*
D19*
X751668Y-936159D02*
X753955Y-938447D01*
X751668Y-936159D02*
X751668Y-903052D01*
D16*
X753955Y-939713D02*
X761502Y-947260D01*
X753955Y-939713D02*
X753955Y-938447D01*
D18*
X575310Y-369330D02*
X545578Y-339598D01*
X575310Y-582676D02*
X620014Y-627380D01*
X575310Y-582676D02*
X575310Y-369330D01*
X620014Y-627380D02*
X620014Y-762508D01*
X760476Y-902970D01*
D19*
X761492Y-908304D02*
X761502Y-908314D01*
D16*
X761502Y-927260D01*
X761502Y-908314D02*
X761502Y-903996D01*
X760476Y-902970D01*
D18*
X719836Y-329170D02*
X731252Y-317754D01*
X719836Y-354076D02*
X756666Y-390906D01*
X719836Y-354076D02*
X719836Y-329170D01*
X756666Y-390906D02*
X756666Y-580644D01*
D19*
X756666Y-695706D01*
X741160Y-711212D02*
X741160Y-822948D01*
X741160Y-711212D02*
X756666Y-695706D01*
X741160Y-822948D02*
X811530Y-893318D01*
X811668Y-936159D02*
X812149Y-936641D01*
X811668Y-936159D02*
X811668Y-909204D01*
X811530Y-909066D01*
X811530Y-893318D01*
D16*
X812149Y-937907D02*
X821502Y-947260D01*
X812149Y-937907D02*
X812149Y-936641D01*
D18*
X761492Y-369838D02*
X731506Y-339852D01*
X761492Y-369838D02*
X761492Y-577088D01*
D19*
X761492Y-707644D01*
X761160Y-707976D02*
X761160Y-834058D01*
X821944Y-894842D02*
X821944Y-902970D01*
X761160Y-707976D02*
X761492Y-707644D01*
X761160Y-834058D02*
X821944Y-894842D01*
D16*
X821436Y-927194D02*
X821502Y-927260D01*
X821436Y-903478D02*
X821944Y-902970D01*
X821436Y-903478D02*
X821436Y-927194D01*
D18*
X902462Y-329170D02*
X914132Y-317500D01*
X902462Y-348488D02*
X938345Y-384371D01*
X902462Y-348488D02*
X902462Y-329170D01*
X938345Y-384371D02*
X938345Y-574733D01*
D19*
X938345Y-628073D01*
X861060Y-705358D01*
X861060Y-834644D01*
X861060Y-834898D01*
D20*
X861060Y-834644D02*
X861060Y-848614D01*
X871474Y-859028D02*
X871474Y-905002D01*
X871474Y-859028D02*
X861060Y-848614D01*
D19*
X871474Y-909320D02*
X871668Y-909514D01*
X871668Y-936921D01*
X871668Y-909514D02*
X871668Y-905196D01*
X871474Y-905002D01*
D16*
X871668Y-937426D02*
X881502Y-947260D01*
X871668Y-937426D02*
X871668Y-936921D01*
D18*
X943102Y-368314D02*
X914132Y-339344D01*
X943102Y-368314D02*
X943102Y-573278D01*
D19*
X943102Y-634746D01*
X881126Y-696722D02*
X881126Y-902981D01*
X881126Y-696722D02*
X943102Y-634746D01*
D16*
X881380Y-927138D02*
X881502Y-927260D01*
X881380Y-903235D02*
X881126Y-902981D01*
X881380Y-903235D02*
X881380Y-927138D01*
D18*
X1086104Y-330694D02*
X1096758Y-320040D01*
X1086104Y-352806D02*
X1125982Y-392684D01*
X1125982Y-556398D02*
X1106239Y-576141D01*
X1086104Y-352806D02*
X1086104Y-330694D01*
X1125982Y-392684D02*
X1125982Y-556398D01*
D19*
X1106239Y-576141D02*
X1020964Y-661416D01*
X992124Y-661416D01*
X980948Y-672592D01*
X980948Y-804672D01*
X931668Y-853952D01*
X931668Y-910078D02*
X931672Y-910082D01*
X931668Y-935143D02*
X931839Y-935315D01*
X931668Y-935143D02*
X931668Y-910078D01*
X931668Y-853952D01*
D16*
X931839Y-937597D02*
X941502Y-947260D01*
X931839Y-937597D02*
X931839Y-935456D01*
X931769Y-935385D01*
D18*
X1130554Y-375680D02*
X1096758Y-341884D01*
X1130554Y-558292D02*
X1108710Y-580136D01*
X1130554Y-558292D02*
X1130554Y-375680D01*
D19*
X1108710Y-580136D02*
X1020826Y-668020D01*
X1005078Y-668020D01*
X1001014Y-672084D01*
X1001014Y-798830D01*
X941578Y-858266D01*
X941578Y-904494D01*
X941324Y-910082D02*
X941502Y-910260D01*
D16*
X941502Y-927260D01*
X941502Y-910260D02*
X941578Y-910184D01*
X941578Y-904494D01*
D18*
X1270000Y-329678D02*
X1282178Y-317500D01*
X1270000Y-350266D02*
X1306830Y-387096D01*
X1270000Y-350266D02*
X1270000Y-329678D01*
X1306830Y-387096D02*
X1306830Y-579766D01*
X991616Y-894980D02*
X991616Y-906018D01*
X991616Y-894980D02*
X1306830Y-579766D01*
D19*
X991616Y-906018D02*
X991616Y-937260D01*
D16*
X991616Y-937374D02*
X1001502Y-947260D01*
X991616Y-937374D02*
X991616Y-937260D01*
X1001502Y-927260D02*
X1001502Y-913618D01*
X1001522Y-913638D01*
D18*
X1311910Y-369076D02*
X1282178Y-339344D01*
X1311910Y-369076D02*
X1311910Y-584200D01*
X1001522Y-894588D02*
X1001522Y-906272D01*
X1001522Y-894588D02*
X1311910Y-584200D01*
D16*
X1001502Y-906292D02*
X1001502Y-913618D01*
X1001502Y-906292D02*
X1001522Y-906272D01*
D18*
X1455674Y-327138D02*
X1467598Y-315214D01*
X1455674Y-349250D02*
X1491488Y-385064D01*
X1455674Y-349250D02*
X1455674Y-327138D01*
X1491488Y-385064D02*
X1491488Y-561478D01*
D19*
X1051668Y-911206D02*
X1051560Y-911098D01*
X1051668Y-911206D02*
X1051668Y-937175D01*
D18*
X1051560Y-911098D02*
X1051560Y-904748D01*
X1156854Y-896112D02*
X1491488Y-561478D01*
X1156854Y-896112D02*
X1060196Y-896112D01*
X1051560Y-904748D01*
D16*
X1051668Y-937426D02*
X1061502Y-947260D01*
X1051668Y-937426D02*
X1051668Y-937175D01*
D13*
X1423416Y-400050D02*
X1439164Y-400050D01*
X1439164Y-399570D01*
D14*
X1439164Y-399570D03*
D13*
X339423Y232664D02*
X321818Y232664D01*
X339423Y232664D02*
X339423Y232585D01*
D14*
X339423Y232585D03*
D13*
X511302Y232410D02*
X528653Y232410D01*
X528653Y232077D01*
D14*
X528653Y232077D03*
D13*
X689864Y232156D02*
X704342Y232156D01*
X704342Y231676D01*
D14*
X704342Y231676D03*
D13*
X879856Y231902D02*
X895604Y231902D01*
X895604Y231422D01*
D14*
X895604Y231422D03*
D13*
X1057656Y231394D02*
X1075261Y231394D01*
X1075261Y231315D01*
D14*
X1075261Y231315D03*
D13*
X1247140Y231140D02*
X1261364Y231140D01*
X1261364Y230660D01*
D14*
X1261364Y230660D03*
D13*
X1425448Y230632D02*
X1440942Y230632D01*
X1440942Y230152D01*
D14*
X1440942Y230152D03*
D13*
X336804Y-7366D02*
X319786Y-7366D01*
X336804Y-7366D02*
X336804Y-7719D01*
D14*
X336804Y-7719D03*
D13*
X509270Y-7366D02*
X525780Y-7366D01*
X525780Y-7973D01*
D14*
X525780Y-7973D03*
D13*
X687832Y-7620D02*
X703326Y-7620D01*
X703326Y-7973D01*
D14*
X703326Y-7973D03*
D13*
X877316Y-7874D02*
X892048Y-7874D01*
X892048Y-8227D01*
D14*
X892048Y-8227D03*
D13*
X1055624Y-7620D02*
X1072134Y-7620D01*
X1072134Y-7973D01*
D14*
X1072134Y-7973D03*
D13*
X1245108Y-7620D02*
X1258570Y-7620D01*
X1258570Y-8227D01*
D14*
X1258570Y-8227D03*
D13*
X1423416Y-7620D02*
X1439418Y-7620D01*
X1439418Y-7973D01*
D14*
X1439418Y-7973D03*
D13*
X339296Y-255016D02*
X321818Y-255016D01*
X339296Y-255016D02*
X339296Y-255222D01*
D14*
X339296Y-255222D03*
D13*
X511302Y-255270D02*
X525526Y-255270D01*
X525526Y-255750D01*
D14*
X525526Y-255750D03*
D13*
X689864Y-255524D02*
X707215Y-255524D01*
X707215Y-255857D01*
D14*
X707215Y-255857D03*
D13*
X879348Y-255778D02*
X895096Y-255778D01*
X895096Y-256258D01*
D14*
X895096Y-256258D03*
D13*
X1057656Y-256286D02*
X1057656Y-256766D01*
X1073912Y-256766D01*
D14*
X1073912Y-256766D03*
D13*
X1247140Y-256540D02*
X1262634Y-256540D01*
X1262634Y-257020D01*
D14*
X1262634Y-257020D03*
D13*
X1425448Y-257048D02*
X1439926Y-257048D01*
X1439926Y-257528D01*
D14*
X1439926Y-257528D03*
D13*
X336296Y-495046D02*
X319786Y-495046D01*
X336296Y-495046D02*
X336296Y-495399D01*
D14*
X336296Y-495399D03*
D13*
X509270Y-495300D02*
X524002Y-495300D01*
X524002Y-495653D01*
D14*
X524002Y-495653D03*
D13*
X687832Y-495300D02*
X702564Y-495300D01*
X702564Y-495653D01*
D14*
X702564Y-495653D03*
D13*
X877316Y-495554D02*
X893318Y-495554D01*
X893318Y-495907D01*
D14*
X893318Y-495907D03*
D13*
X1055624Y-495300D02*
X1071118Y-495300D01*
X1071118Y-495653D01*
D14*
X1071118Y-495653D03*
D13*
X1245108Y-495554D02*
X1259586Y-495554D01*
X1259586Y-495907D01*
D14*
X1259586Y-495907D03*
M02*
