G04 EAGLE Gerber RS-274X export*
G75*
%MOMM*%
%FSLAX34Y34*%
%LPD*%
%INBottom Copper*%
%IPPOS*%
%AMOC8*
5,1,8,0,0,1.08239X$1,22.5*%
G01*
%ADD10C,1.524000*%
%ADD11R,0.600000X0.600000*%
%ADD12C,1.408000*%
%ADD13C,0.609600*%
%ADD14C,0.508000*%
%ADD15C,0.812800*%
%ADD16C,0.756400*%
%ADD17C,1.270000*%
%ADD18C,0.254000*%


D10*
X321818Y335534D02*
X321818Y320294D01*
X296418Y320294D02*
X296418Y335534D01*
X271018Y335534D02*
X271018Y320294D01*
X245618Y320294D02*
X245618Y335534D01*
X245618Y240284D02*
X245618Y225044D01*
X271018Y225044D02*
X271018Y240284D01*
X296418Y240284D02*
X296418Y225044D01*
X321818Y225044D02*
X321818Y240284D01*
D11*
X349250Y274384D03*
X349250Y282384D03*
D10*
X511302Y320040D02*
X511302Y335280D01*
X485902Y335280D02*
X485902Y320040D01*
X460502Y320040D02*
X460502Y335280D01*
X435102Y335280D02*
X435102Y320040D01*
X435102Y240030D02*
X435102Y224790D01*
X460502Y224790D02*
X460502Y240030D01*
X485902Y240030D02*
X485902Y224790D01*
X511302Y224790D02*
X511302Y240030D01*
D11*
X537210Y277178D03*
X537210Y285178D03*
D10*
X689864Y319786D02*
X689864Y335026D01*
X664464Y335026D02*
X664464Y319786D01*
X639064Y319786D02*
X639064Y335026D01*
X613664Y335026D02*
X613664Y319786D01*
X613664Y239776D02*
X613664Y224536D01*
X639064Y224536D02*
X639064Y239776D01*
X664464Y239776D02*
X664464Y224536D01*
X689864Y224536D02*
X689864Y239776D01*
D11*
X717550Y272606D03*
X717550Y280606D03*
D10*
X879348Y319532D02*
X879348Y334772D01*
X853948Y334772D02*
X853948Y319532D01*
X828548Y319532D02*
X828548Y334772D01*
X803148Y334772D02*
X803148Y319532D01*
X803656Y239522D02*
X803656Y224282D01*
X829056Y224282D02*
X829056Y239522D01*
X854456Y239522D02*
X854456Y224282D01*
X879856Y224282D02*
X879856Y239522D01*
D11*
X905002Y275908D03*
X905002Y283908D03*
D10*
X1057656Y319024D02*
X1057656Y334264D01*
X1032256Y334264D02*
X1032256Y319024D01*
X1006856Y319024D02*
X1006856Y334264D01*
X981456Y334264D02*
X981456Y319024D01*
X981456Y239014D02*
X981456Y223774D01*
X1006856Y223774D02*
X1006856Y239014D01*
X1032256Y239014D02*
X1032256Y223774D01*
X1057656Y223774D02*
X1057656Y239014D01*
D11*
X1084580Y273114D03*
X1084580Y281114D03*
D10*
X1247140Y318770D02*
X1247140Y334010D01*
X1221740Y334010D02*
X1221740Y318770D01*
X1196340Y318770D02*
X1196340Y334010D01*
X1170940Y334010D02*
X1170940Y318770D01*
X1170940Y238760D02*
X1170940Y223520D01*
X1196340Y223520D02*
X1196340Y238760D01*
X1221740Y238760D02*
X1221740Y223520D01*
X1247140Y223520D02*
X1247140Y238760D01*
D11*
X1272794Y274892D03*
X1272794Y282892D03*
D10*
X1425448Y318262D02*
X1425448Y333502D01*
X1400048Y333502D02*
X1400048Y318262D01*
X1374648Y318262D02*
X1374648Y333502D01*
X1349248Y333502D02*
X1349248Y318262D01*
X1349248Y238252D02*
X1349248Y223012D01*
X1374648Y223012D02*
X1374648Y238252D01*
X1400048Y238252D02*
X1400048Y223012D01*
X1425448Y223012D02*
X1425448Y238252D01*
D11*
X1451864Y274638D03*
X1451864Y282638D03*
D10*
X319786Y95504D02*
X319786Y80264D01*
X294386Y80264D02*
X294386Y95504D01*
X268986Y95504D02*
X268986Y80264D01*
X243586Y80264D02*
X243586Y95504D01*
X243586Y254D02*
X243586Y-14986D01*
X268986Y-14986D02*
X268986Y254D01*
X294386Y254D02*
X294386Y-14986D01*
X319786Y-14986D02*
X319786Y254D01*
D11*
X347472Y39434D03*
X347472Y47434D03*
D10*
X509270Y80264D02*
X509270Y95504D01*
X483870Y95504D02*
X483870Y80264D01*
X458470Y80264D02*
X458470Y95504D01*
X433070Y95504D02*
X433070Y80264D01*
X433070Y254D02*
X433070Y-14986D01*
X458470Y-14986D02*
X458470Y254D01*
X483870Y254D02*
X483870Y-14986D01*
X509270Y-14986D02*
X509270Y254D01*
D11*
X535178Y32322D03*
X535178Y40322D03*
D10*
X687832Y80264D02*
X687832Y95504D01*
X662432Y95504D02*
X662432Y80264D01*
X637032Y80264D02*
X637032Y95504D01*
X611632Y95504D02*
X611632Y80264D01*
X611632Y0D02*
X611632Y-15240D01*
X637032Y-15240D02*
X637032Y0D01*
X662432Y0D02*
X662432Y-15240D01*
X687832Y-15240D02*
X687832Y0D01*
D11*
X715772Y34100D03*
X715772Y42100D03*
D10*
X877316Y79756D02*
X877316Y94996D01*
X851916Y94996D02*
X851916Y79756D01*
X826516Y79756D02*
X826516Y94996D01*
X801116Y94996D02*
X801116Y79756D01*
X801116Y-254D02*
X801116Y-15494D01*
X826516Y-15494D02*
X826516Y-254D01*
X851916Y-254D02*
X851916Y-15494D01*
X877316Y-15494D02*
X877316Y-254D01*
D11*
X902970Y33846D03*
X902970Y41846D03*
D10*
X1055624Y80010D02*
X1055624Y95250D01*
X1030224Y95250D02*
X1030224Y80010D01*
X1004824Y80010D02*
X1004824Y95250D01*
X979424Y95250D02*
X979424Y80010D01*
X979424Y0D02*
X979424Y-15240D01*
X1004824Y-15240D02*
X1004824Y0D01*
X1030224Y0D02*
X1030224Y-15240D01*
X1055624Y-15240D02*
X1055624Y0D01*
D11*
X1082294Y35116D03*
X1082294Y43116D03*
D10*
X1245108Y79756D02*
X1245108Y94996D01*
X1219708Y94996D02*
X1219708Y79756D01*
X1194308Y79756D02*
X1194308Y94996D01*
X1168908Y94996D02*
X1168908Y79756D01*
X1168908Y0D02*
X1168908Y-15240D01*
X1194308Y-15240D02*
X1194308Y0D01*
X1219708Y0D02*
X1219708Y-15240D01*
X1245108Y-15240D02*
X1245108Y0D01*
D11*
X1271270Y35370D03*
X1271270Y43370D03*
D10*
X1423416Y80010D02*
X1423416Y95250D01*
X1398016Y95250D02*
X1398016Y80010D01*
X1372616Y80010D02*
X1372616Y95250D01*
X1347216Y95250D02*
X1347216Y80010D01*
X1347216Y0D02*
X1347216Y-15240D01*
X1372616Y-15240D02*
X1372616Y0D01*
X1398016Y0D02*
X1398016Y-15240D01*
X1423416Y-15240D02*
X1423416Y0D01*
D11*
X1449832Y34100D03*
X1449832Y42100D03*
D10*
X321564Y-151638D02*
X321564Y-166878D01*
X296164Y-166878D02*
X296164Y-151638D01*
X270764Y-151638D02*
X270764Y-166878D01*
X245364Y-166878D02*
X245364Y-151638D01*
X245618Y-247396D02*
X245618Y-262636D01*
X271018Y-262636D02*
X271018Y-247396D01*
X296418Y-247396D02*
X296418Y-262636D01*
X321818Y-262636D02*
X321818Y-247396D01*
D11*
X349250Y-212280D03*
X349250Y-204280D03*
D10*
X511302Y-167640D02*
X511302Y-152400D01*
X485902Y-152400D02*
X485902Y-167640D01*
X460502Y-167640D02*
X460502Y-152400D01*
X435102Y-152400D02*
X435102Y-167640D01*
X435102Y-247650D02*
X435102Y-262890D01*
X460502Y-262890D02*
X460502Y-247650D01*
X485902Y-247650D02*
X485902Y-262890D01*
X511302Y-262890D02*
X511302Y-247650D01*
D11*
X536702Y-211772D03*
X536702Y-203772D03*
D10*
X689864Y-167894D02*
X689864Y-152654D01*
X664464Y-152654D02*
X664464Y-167894D01*
X639064Y-167894D02*
X639064Y-152654D01*
X613664Y-152654D02*
X613664Y-167894D01*
X613664Y-247904D02*
X613664Y-263144D01*
X639064Y-263144D02*
X639064Y-247904D01*
X664464Y-247904D02*
X664464Y-263144D01*
X689864Y-263144D02*
X689864Y-247904D01*
D11*
X717804Y-213042D03*
X717804Y-205042D03*
D10*
X879348Y-168148D02*
X879348Y-152908D01*
X853948Y-152908D02*
X853948Y-168148D01*
X828548Y-168148D02*
X828548Y-152908D01*
X803148Y-152908D02*
X803148Y-168148D01*
X803148Y-248158D02*
X803148Y-263398D01*
X828548Y-263398D02*
X828548Y-248158D01*
X853948Y-248158D02*
X853948Y-263398D01*
X879348Y-263398D02*
X879348Y-248158D01*
D11*
X905002Y-214312D03*
X905002Y-206312D03*
D10*
X1057656Y-168656D02*
X1057656Y-153416D01*
X1032256Y-153416D02*
X1032256Y-168656D01*
X1006856Y-168656D02*
X1006856Y-153416D01*
X981456Y-153416D02*
X981456Y-168656D01*
X981456Y-248666D02*
X981456Y-263906D01*
X1006856Y-263906D02*
X1006856Y-248666D01*
X1032256Y-248666D02*
X1032256Y-263906D01*
X1057656Y-263906D02*
X1057656Y-248666D01*
D11*
X1085342Y-212280D03*
X1085342Y-204280D03*
D10*
X1247140Y-168910D02*
X1247140Y-153670D01*
X1221740Y-153670D02*
X1221740Y-168910D01*
X1196340Y-168910D02*
X1196340Y-153670D01*
X1170940Y-153670D02*
X1170940Y-168910D01*
X1170940Y-248920D02*
X1170940Y-264160D01*
X1196340Y-264160D02*
X1196340Y-248920D01*
X1221740Y-248920D02*
X1221740Y-264160D01*
X1247140Y-264160D02*
X1247140Y-248920D01*
D11*
X1273810Y-212534D03*
X1273810Y-204534D03*
D10*
X1425448Y-169418D02*
X1425448Y-154178D01*
X1400048Y-154178D02*
X1400048Y-169418D01*
X1374648Y-169418D02*
X1374648Y-154178D01*
X1349248Y-154178D02*
X1349248Y-169418D01*
X1349248Y-249428D02*
X1349248Y-264668D01*
X1374648Y-264668D02*
X1374648Y-249428D01*
X1400048Y-249428D02*
X1400048Y-264668D01*
X1425448Y-264668D02*
X1425448Y-249428D01*
D11*
X1453388Y-215582D03*
X1453388Y-207582D03*
D10*
X319786Y-392176D02*
X319786Y-407416D01*
X294386Y-407416D02*
X294386Y-392176D01*
X268986Y-392176D02*
X268986Y-407416D01*
X243586Y-407416D02*
X243586Y-392176D01*
X243586Y-487426D02*
X243586Y-502666D01*
X268986Y-502666D02*
X268986Y-487426D01*
X294386Y-487426D02*
X294386Y-502666D01*
X319786Y-502666D02*
X319786Y-487426D01*
D11*
X346710Y-452564D03*
X346710Y-444564D03*
D10*
X509270Y-407670D02*
X509270Y-392430D01*
X483870Y-392430D02*
X483870Y-407670D01*
X458470Y-407670D02*
X458470Y-392430D01*
X433070Y-392430D02*
X433070Y-407670D01*
X433070Y-487680D02*
X433070Y-502920D01*
X458470Y-502920D02*
X458470Y-487680D01*
X483870Y-487680D02*
X483870Y-502920D01*
X509270Y-502920D02*
X509270Y-487680D01*
D11*
X534416Y-449262D03*
X534416Y-441262D03*
D10*
X687832Y-407670D02*
X687832Y-392430D01*
X662432Y-392430D02*
X662432Y-407670D01*
X637032Y-407670D02*
X637032Y-392430D01*
X611632Y-392430D02*
X611632Y-407670D01*
X611632Y-487680D02*
X611632Y-502920D01*
X637032Y-502920D02*
X637032Y-487680D01*
X662432Y-487680D02*
X662432Y-502920D01*
X687832Y-502920D02*
X687832Y-487680D01*
D11*
X714756Y-454342D03*
X714756Y-446342D03*
D10*
X877316Y-407924D02*
X877316Y-392684D01*
X851916Y-392684D02*
X851916Y-407924D01*
X826516Y-407924D02*
X826516Y-392684D01*
X801116Y-392684D02*
X801116Y-407924D01*
X801116Y-487934D02*
X801116Y-503174D01*
X826516Y-503174D02*
X826516Y-487934D01*
X851916Y-487934D02*
X851916Y-503174D01*
X877316Y-503174D02*
X877316Y-487934D01*
D11*
X902462Y-452056D03*
X902462Y-444056D03*
D10*
X1055624Y-407670D02*
X1055624Y-392430D01*
X1030224Y-392430D02*
X1030224Y-407670D01*
X1004824Y-407670D02*
X1004824Y-392430D01*
X979424Y-392430D02*
X979424Y-407670D01*
X979424Y-487680D02*
X979424Y-502920D01*
X1004824Y-502920D02*
X1004824Y-487680D01*
X1030224Y-487680D02*
X1030224Y-502920D01*
X1055624Y-502920D02*
X1055624Y-487680D01*
D11*
X1082294Y-448246D03*
X1082294Y-440246D03*
D10*
X1245108Y-407924D02*
X1245108Y-392684D01*
X1219708Y-392684D02*
X1219708Y-407924D01*
X1194308Y-407924D02*
X1194308Y-392684D01*
X1168908Y-392684D02*
X1168908Y-407924D01*
X1168908Y-487934D02*
X1168908Y-503174D01*
X1194308Y-503174D02*
X1194308Y-487934D01*
X1219708Y-487934D02*
X1219708Y-503174D01*
X1245108Y-503174D02*
X1245108Y-487934D01*
D11*
X1271270Y-448500D03*
X1271270Y-440500D03*
D10*
X1423416Y-407670D02*
X1423416Y-392430D01*
X1398016Y-392430D02*
X1398016Y-407670D01*
X1372616Y-407670D02*
X1372616Y-392430D01*
X1347216Y-392430D02*
X1347216Y-407670D01*
X1347216Y-487680D02*
X1347216Y-502920D01*
X1372616Y-502920D02*
X1372616Y-487680D01*
X1398016Y-487680D02*
X1398016Y-502920D01*
X1423416Y-502920D02*
X1423416Y-487680D01*
D11*
X1451102Y-452564D03*
X1451102Y-444564D03*
D12*
X601502Y-947260D03*
X601502Y-927260D03*
X621502Y-947260D03*
X621502Y-927260D03*
X641502Y-947260D03*
X641502Y-927260D03*
X661502Y-947260D03*
X661502Y-927260D03*
X681502Y-947260D03*
X681502Y-927260D03*
X701502Y-947260D03*
X701502Y-927260D03*
X721502Y-947260D03*
X721502Y-927260D03*
X741502Y-947260D03*
X741502Y-927260D03*
X761502Y-947260D03*
X761502Y-927260D03*
X781502Y-947260D03*
X781502Y-927260D03*
X801502Y-947260D03*
X801502Y-927260D03*
X821502Y-947260D03*
X821502Y-927260D03*
X841502Y-947260D03*
X841502Y-927260D03*
X861502Y-947260D03*
X861502Y-927260D03*
X881502Y-947260D03*
X881502Y-927260D03*
X901502Y-947260D03*
X901502Y-927260D03*
X921502Y-947260D03*
X921502Y-927260D03*
X941502Y-947260D03*
X941502Y-927260D03*
X961502Y-947260D03*
X961502Y-927260D03*
X981502Y-947260D03*
X981502Y-927260D03*
X1001502Y-947260D03*
X1001502Y-927260D03*
X1021502Y-947260D03*
X1021502Y-927260D03*
X1041502Y-947260D03*
X1041502Y-927260D03*
X1061502Y-947260D03*
X1061502Y-927260D03*
X1081502Y-947260D03*
X1081502Y-927260D03*
X650994Y-773270D03*
X650994Y-753270D03*
X670994Y-773270D03*
X670994Y-753270D03*
X690994Y-773270D03*
X690994Y-753270D03*
X710994Y-773270D03*
X710994Y-753270D03*
X730994Y-773270D03*
X730994Y-753270D03*
X750994Y-773270D03*
X750994Y-753270D03*
X770994Y-773270D03*
X770994Y-753270D03*
X790994Y-773270D03*
X790994Y-753270D03*
X810994Y-773270D03*
X810994Y-753270D03*
X830994Y-773270D03*
X830994Y-753270D03*
X850994Y-773270D03*
X850994Y-753270D03*
X870994Y-773270D03*
X870994Y-753270D03*
X890994Y-773270D03*
X890994Y-753270D03*
X910994Y-773270D03*
X910994Y-753270D03*
X930994Y-773270D03*
X930994Y-753270D03*
X950994Y-773270D03*
X950994Y-753270D03*
X970994Y-773270D03*
X970994Y-753270D03*
X990994Y-773270D03*
X990994Y-753270D03*
X1010994Y-773270D03*
X1010994Y-753270D03*
X1030994Y-773270D03*
X1030994Y-753270D03*
D13*
X349250Y282384D02*
X349250Y329184D01*
X350520Y327914D02*
X321818Y327914D01*
X349250Y329184D02*
X350520Y327914D01*
X393446Y284988D01*
X393446Y-515620D01*
D14*
X393446Y-522224D01*
X412242Y-541020D02*
X505714Y-541020D01*
X664972Y-700278D02*
X684276Y-700278D01*
X710692Y-726694D01*
X710692Y-727710D01*
X412242Y-541020D02*
X393446Y-522224D01*
X505714Y-541020D02*
X664972Y-700278D01*
D15*
X710994Y-728012D02*
X710994Y-753270D01*
X710994Y-728012D02*
X710692Y-727710D01*
D16*
X337566Y328267D03*
D17*
X243586Y-399796D02*
X196088Y-399796D01*
X196088Y-389128D02*
X196088Y-159258D01*
X196088Y-389128D02*
X196088Y-399796D01*
X196088Y-159258D02*
X196088Y-134366D01*
X196088Y86614D02*
X196088Y105156D01*
X196088Y301244D02*
X222758Y327914D01*
X245618Y327914D01*
X243586Y87884D02*
X242316Y86614D01*
X196088Y86614D01*
X196088Y-159258D02*
X245364Y-159258D01*
X407924Y-400050D02*
X433070Y-400050D01*
X407924Y-400050D02*
X404368Y-396494D01*
X404368Y318262D02*
X404368Y377952D01*
X404368Y318262D02*
X404368Y194564D01*
X404368Y87884D01*
X404368Y-48260D01*
X404368Y-159766D01*
X404368Y-298196D01*
X404368Y-396494D01*
X413766Y327660D02*
X435102Y327660D01*
X413766Y327660D02*
X404368Y318262D01*
X404368Y87884D02*
X433070Y87884D01*
X435102Y-160020D02*
X404622Y-160020D01*
X404368Y-159766D01*
X586232Y-400050D02*
X611632Y-400050D01*
X586232Y-47498D02*
X586232Y87884D01*
X586232Y-47498D02*
X586232Y-159766D01*
X586232Y-160274D02*
X586232Y-296164D01*
X586232Y-400050D01*
X592074Y327406D02*
X613664Y327406D01*
X592074Y327406D02*
X586232Y321564D01*
X586232Y87884D02*
X611632Y87884D01*
X613664Y-160274D02*
X586232Y-160274D01*
X778764Y-400304D02*
X801116Y-400304D01*
X778510Y188214D02*
X778510Y326644D01*
X778510Y188214D02*
X778510Y87376D01*
X778764Y-160528D02*
X778764Y-300736D01*
X778764Y-400304D01*
X779018Y327152D02*
X803148Y327152D01*
X779018Y327152D02*
X778510Y326644D01*
X778510Y87376D02*
X801116Y87376D01*
X803148Y-160528D02*
X778764Y-160528D01*
X955040Y-400050D02*
X979424Y-400050D01*
X955040Y87630D02*
X955040Y191770D01*
X955040Y326644D01*
X955040Y-161036D02*
X955040Y-299466D01*
X955040Y-400050D01*
X955040Y326644D02*
X981456Y326644D01*
X979424Y87630D02*
X955040Y87630D01*
X955040Y-161036D02*
X981456Y-161036D01*
X1137158Y87376D02*
X1137158Y186182D01*
X1137158Y320040D01*
X1137158Y87376D02*
X1137158Y-58166D01*
X1137158Y-161290D01*
X1137158Y-298450D01*
X1137158Y-400304D01*
X1168908Y-400304D01*
X1170940Y326390D02*
X1143508Y326390D01*
X1137158Y320040D01*
X1137158Y87376D02*
X1168908Y87376D01*
X1170940Y-161290D02*
X1137158Y-161290D01*
X1323086Y-400050D02*
X1347216Y-400050D01*
X1323086Y188722D02*
X1323086Y319532D01*
X1323086Y188722D02*
X1323086Y87630D01*
X1329436Y325882D02*
X1349248Y325882D01*
X1329436Y325882D02*
X1323086Y319532D01*
X1323086Y87630D02*
X1347216Y87630D01*
X1349248Y-161798D02*
X1323086Y-161798D01*
X196088Y-399796D02*
X196088Y-525272D01*
X480060Y-809244D02*
X716788Y-809244D01*
X730994Y-795038D01*
X730994Y-773270D01*
X294386Y-623570D02*
X196088Y-525272D01*
X294386Y-623570D02*
X480060Y-809244D01*
X404368Y377952D02*
X403352Y378968D01*
X239014Y378968D01*
X196088Y336042D01*
X196088Y301244D01*
X403352Y378968D02*
X586232Y378968D01*
X778764Y378968D01*
X955040Y378968D01*
X1137158Y378968D01*
X1288288Y378968D01*
X1323086Y344170D02*
X1323086Y319532D01*
X1323086Y344170D02*
X1288288Y378968D01*
X1137158Y378968D02*
X1137158Y320040D01*
X586232Y321564D02*
X586232Y189738D01*
X586232Y87884D01*
X586232Y321564D02*
X586232Y378968D01*
X778510Y-160274D02*
X778764Y-160528D01*
X778510Y-160274D02*
X778510Y-51308D01*
X778510Y87376D01*
X779018Y327152D02*
X778764Y327406D01*
X778764Y378968D01*
X955040Y378968D02*
X955040Y326644D01*
X955040Y-50292D02*
X955040Y-161036D01*
X955040Y-50292D02*
X955040Y87630D01*
X1323086Y87630D02*
X1323086Y-65024D01*
X1323086Y-161798D01*
X1323086Y-294386D01*
X1323086Y-400050D01*
X296418Y205486D02*
X296418Y232664D01*
X296418Y205486D02*
X196088Y105156D01*
X294386Y-7366D02*
X294386Y-36068D01*
X196088Y-134366D01*
X196088Y105156D02*
X196088Y301244D01*
X296418Y-255016D02*
X296418Y-288798D01*
X196088Y-389128D01*
X294386Y-495046D02*
X294386Y-623570D01*
X404368Y-508508D02*
X404368Y-396494D01*
X404368Y-508508D02*
X423418Y-527558D01*
X467614Y-527558D01*
X483870Y-511302D02*
X483870Y-495300D01*
X483870Y-511302D02*
X467614Y-527558D01*
X662432Y-515112D02*
X662432Y-495300D01*
X662432Y-515112D02*
X637286Y-540258D01*
X606044Y-540258D01*
X586232Y-520446D02*
X586232Y-400050D01*
X586232Y-520446D02*
X606044Y-540258D01*
X778764Y-516636D02*
X778764Y-400304D01*
X778764Y-516636D02*
X796036Y-533908D01*
X833628Y-533908D01*
X851916Y-515620D01*
X851916Y-495554D01*
X955040Y-525526D02*
X955040Y-400050D01*
X968248Y-538734D02*
X1013206Y-538734D01*
X1030224Y-521716D01*
X1030224Y-495300D01*
X968248Y-538734D02*
X955040Y-525526D01*
X1137158Y-524002D02*
X1137158Y-400304D01*
X1137158Y-524002D02*
X1156208Y-543052D01*
X1203452Y-543052D01*
X1219708Y-526796D02*
X1219708Y-495554D01*
X1219708Y-526796D02*
X1203452Y-543052D01*
X1323086Y-524510D02*
X1323086Y-400050D01*
X1340866Y-542290D02*
X1379982Y-542290D01*
X1398016Y-524256D01*
X1398016Y-495300D01*
X1340866Y-542290D02*
X1323086Y-524510D01*
X1400048Y-275590D02*
X1400048Y-257048D01*
X1381252Y-294386D02*
X1323086Y-294386D01*
X1381252Y-294386D02*
X1400048Y-275590D01*
X1398016Y-48260D02*
X1398016Y-7620D01*
X1381252Y-65024D02*
X1323086Y-65024D01*
X1381252Y-65024D02*
X1398016Y-48260D01*
X1400048Y204724D02*
X1400048Y230632D01*
X1384046Y188722D02*
X1323086Y188722D01*
X1384046Y188722D02*
X1400048Y204724D01*
X1221740Y205232D02*
X1221740Y231140D01*
X1221740Y205232D02*
X1202690Y186182D01*
X1137158Y186182D01*
X1219708Y-7620D02*
X1219708Y-40132D01*
X1201674Y-58166D01*
X1137158Y-58166D01*
X1221740Y-256540D02*
X1221740Y-284480D01*
X1207770Y-298450D02*
X1137158Y-298450D01*
X1207770Y-298450D02*
X1221740Y-284480D01*
X1032256Y206248D02*
X1032256Y231394D01*
X1017778Y191770D02*
X955040Y191770D01*
X1017778Y191770D02*
X1032256Y206248D01*
X854456Y202946D02*
X854456Y231902D01*
X854456Y202946D02*
X839724Y188214D01*
X778510Y188214D01*
X851916Y-7874D02*
X851916Y-29972D01*
X830580Y-51308D02*
X778510Y-51308D01*
X830580Y-51308D02*
X851916Y-29972D01*
X853948Y-255778D02*
X853948Y-281686D01*
X834898Y-300736D02*
X778764Y-300736D01*
X834898Y-300736D02*
X853948Y-281686D01*
X1032256Y-285750D02*
X1032256Y-256286D01*
X1018540Y-299466D02*
X955040Y-299466D01*
X1018540Y-299466D02*
X1032256Y-285750D01*
X1030224Y-32004D02*
X1030224Y-7620D01*
X1011936Y-50292D02*
X955040Y-50292D01*
X1011936Y-50292D02*
X1030224Y-32004D01*
X664464Y210820D02*
X664464Y232156D01*
X643382Y189738D02*
X586232Y189738D01*
X643382Y189738D02*
X664464Y210820D01*
X485902Y207772D02*
X485902Y232410D01*
X472694Y194564D02*
X404368Y194564D01*
X472694Y194564D02*
X485902Y207772D01*
X483870Y-7366D02*
X483870Y-35560D01*
X470154Y-49276D01*
X405384Y-49276D01*
X404368Y-48260D01*
X485902Y-255270D02*
X485902Y-279654D01*
X467360Y-298196D01*
X404368Y-298196D01*
X664464Y-279400D02*
X664464Y-255524D01*
X647700Y-296164D02*
X586232Y-296164D01*
X647700Y-296164D02*
X664464Y-279400D01*
X662432Y-32766D02*
X662432Y-7620D01*
X647700Y-47498D02*
X586232Y-47498D01*
X647700Y-47498D02*
X662432Y-32766D01*
X716788Y-809244D02*
X737870Y-809244D01*
X750994Y-796120D02*
X750994Y-773270D01*
X750994Y-796120D02*
X737870Y-809244D01*
X757936Y-809244D01*
X770994Y-796186D02*
X770994Y-773270D01*
X770994Y-796186D02*
X757936Y-809244D01*
X778510Y-809244D01*
X790994Y-796760D02*
X790994Y-773270D01*
X790994Y-796760D02*
X778510Y-809244D01*
X196088Y-134366D02*
X196088Y86614D01*
D16*
X490220Y-772922D03*
D15*
X624078Y-773176D02*
X650900Y-773176D01*
X624078Y-773176D02*
X490474Y-773176D01*
X490220Y-772922D01*
X650900Y-773176D02*
X650994Y-773270D01*
X638810Y-787908D02*
X624078Y-773176D01*
X638810Y-787908D02*
X661944Y-787908D01*
X681690Y-787908D01*
X680674Y-787908D02*
X705104Y-787908D01*
X710994Y-782018D01*
X710994Y-773270D01*
X690994Y-773270D02*
X690994Y-778604D01*
X681690Y-787908D01*
X670994Y-778858D02*
X661944Y-787908D01*
X670994Y-778858D02*
X670994Y-773270D01*
D13*
X1423416Y-495300D02*
X1442720Y-495300D01*
X1451102Y-486918D02*
X1451102Y-452564D01*
X1451102Y-486918D02*
X1442720Y-495300D01*
D16*
X1438402Y-495653D03*
X401320Y-581914D03*
D14*
X401320Y-659892D01*
D16*
X401320Y-659892D03*
X629920Y-750062D03*
D14*
X627380Y-752602D01*
X494030Y-752602D01*
D16*
X494030Y-752602D03*
X769874Y-642112D03*
D14*
X684530Y-642112D01*
X683260Y-643382D01*
D16*
X683260Y-643382D03*
X949678Y-580644D03*
D14*
X921738Y-608584D01*
X905256Y-608584D01*
D16*
X905256Y-608584D03*
X1080770Y-749046D03*
X1191006Y-750062D03*
D14*
X1081024Y-749300D02*
X1080770Y-749046D01*
X1081024Y-749300D02*
X1081024Y-858774D01*
X1081024Y-860044D02*
X1081024Y-914146D01*
X1081024Y-860044D02*
X1081024Y-858774D01*
X1081024Y-860044D02*
X1191006Y-750062D01*
D16*
X553974Y-830834D03*
D14*
X1053084Y-830834D01*
X1081024Y-858774D01*
D15*
X1081502Y-927260D02*
X1081502Y-947260D01*
X1081502Y-927260D02*
X1081024Y-926782D01*
X1081024Y-914146D01*
D13*
X538480Y286448D02*
X538480Y327406D01*
X538480Y286448D02*
X537210Y285178D01*
X538480Y327406D02*
X538226Y327660D01*
X511302Y327660D01*
X538480Y327406D02*
X575310Y290576D01*
X575310Y-554482D01*
D14*
X575310Y-556768D01*
X675640Y-657098D02*
X726440Y-657098D01*
X790194Y-720852D01*
X790194Y-727964D01*
X675640Y-657098D02*
X575310Y-556768D01*
D15*
X790994Y-728764D02*
X790994Y-753270D01*
X790994Y-728764D02*
X790194Y-727964D01*
D16*
X527304Y328013D03*
D13*
X717550Y324358D02*
X717550Y280606D01*
X714502Y327406D02*
X689864Y327406D01*
X714502Y327406D02*
X717550Y324358D01*
X767588Y274320D01*
X767588Y-583438D01*
D14*
X767588Y-583692D01*
X830834Y-646938D02*
X830834Y-731266D01*
X830834Y-646938D02*
X767588Y-583692D01*
D15*
X830994Y-731426D02*
X830994Y-753270D01*
X830994Y-731426D02*
X830834Y-731266D01*
D16*
X706120Y327759D03*
D13*
X905510Y327406D02*
X905510Y284416D01*
X905002Y283908D01*
X905764Y327152D02*
X906018Y327152D01*
X905764Y327152D02*
X879348Y327152D01*
X916178Y316992D02*
X916178Y316738D01*
X916178Y316992D02*
X906018Y327152D01*
X905764Y327152D02*
X905510Y327406D01*
X916178Y316738D02*
X944118Y288798D01*
X944118Y-555752D01*
D14*
X870458Y-629412D02*
X870458Y-730250D01*
X870458Y-629412D02*
X944118Y-555752D01*
D15*
X870994Y-730786D02*
X870994Y-753270D01*
X870994Y-730786D02*
X870458Y-730250D01*
D16*
X896762Y327294D03*
D13*
X1084580Y323850D02*
X1084580Y281114D01*
X1081786Y326644D02*
X1057656Y326644D01*
X1081786Y326644D02*
X1084580Y323850D01*
X1126236Y282194D01*
X1126236Y-577596D01*
D14*
X1126236Y-579018D01*
X1071778Y-633476D01*
X911098Y-695706D02*
X911098Y-728218D01*
X973328Y-633476D02*
X1071778Y-633476D01*
X973328Y-633476D02*
X911098Y-695706D01*
D15*
X910994Y-728322D02*
X910994Y-753270D01*
X910994Y-728322D02*
X911098Y-728218D01*
D16*
X1073150Y326997D03*
D13*
X1272794Y322834D02*
X1272794Y282892D01*
X1269238Y326390D02*
X1247140Y326390D01*
X1269238Y326390D02*
X1272794Y322834D01*
X1312164Y283464D01*
X1312164Y-571246D01*
D14*
X1216406Y-667004D01*
X1004062Y-667004D02*
X952500Y-718566D01*
X1004062Y-667004D02*
X1216406Y-667004D01*
D15*
X950994Y-720072D02*
X950994Y-753270D01*
X950994Y-720072D02*
X952500Y-718566D01*
D16*
X1263142Y326743D03*
D13*
X1451864Y321056D02*
X1451864Y282638D01*
X1451864Y321056D02*
X1447038Y325882D01*
X1425448Y325882D01*
X1451864Y321056D02*
X1500378Y272542D01*
X1500378Y-507746D01*
D14*
X1311402Y-696722D01*
X1018286Y-696722D02*
X990600Y-724408D01*
X1018286Y-696722D02*
X1311402Y-696722D01*
D15*
X990994Y-724802D02*
X990994Y-753270D01*
X990994Y-724802D02*
X990886Y-724694D01*
D16*
X1442212Y326235D03*
D13*
X347472Y84582D02*
X347472Y47434D01*
X344170Y87884D02*
X319786Y87884D01*
X344170Y87884D02*
X347472Y84582D01*
X385318Y46736D01*
X385318Y-520192D01*
D14*
X385318Y-530860D01*
X675640Y-712978D02*
X690626Y-727964D01*
X405130Y-550672D02*
X385318Y-530860D01*
X405130Y-550672D02*
X501650Y-550672D01*
X663956Y-712978D01*
X675640Y-712978D01*
D15*
X690994Y-728332D02*
X690994Y-753270D01*
X690994Y-728332D02*
X690626Y-727964D01*
D16*
X336042Y88364D03*
D13*
X535178Y80772D02*
X535178Y40322D01*
X535178Y80772D02*
X528066Y87884D01*
X509270Y87884D01*
X535178Y80772D02*
X567690Y48260D01*
X567690Y-537718D01*
D14*
X567690Y-561594D01*
X717042Y-667004D02*
X771144Y-721106D01*
X771144Y-729996D01*
X673100Y-667004D02*
X567690Y-561594D01*
X673100Y-667004D02*
X717042Y-667004D01*
D15*
X770994Y-730146D02*
X770994Y-753270D01*
X770994Y-730146D02*
X771144Y-729996D01*
D16*
X522732Y88110D03*
D13*
X715772Y81280D02*
X715772Y42100D01*
X715772Y81280D02*
X709168Y87884D01*
X687832Y87884D01*
X715772Y81280D02*
X759460Y37592D01*
X759460Y-577596D01*
X759460Y-580898D01*
D14*
X759460Y-577596D02*
X759460Y-589026D01*
X820928Y-650494D02*
X820928Y-730758D01*
X820928Y-650494D02*
X759460Y-589026D01*
D18*
X820928Y-763204D02*
X821850Y-764126D01*
X820928Y-763204D02*
X820928Y-730758D01*
D15*
X821850Y-764126D02*
X830994Y-773270D01*
D16*
X701802Y88110D03*
D13*
X902970Y86360D02*
X902970Y41846D01*
X901954Y87376D02*
X877316Y87376D01*
X901954Y87376D02*
X902970Y86360D01*
X936498Y52832D01*
X936498Y-548894D01*
D14*
X860552Y-624840D02*
X860552Y-729996D01*
X860552Y-624840D02*
X936498Y-548894D01*
D18*
X861060Y-763336D02*
X863186Y-765462D01*
X861060Y-730504D02*
X860552Y-729996D01*
X861060Y-730504D02*
X861060Y-763336D01*
D15*
X863186Y-765462D02*
X870994Y-773270D01*
D16*
X892810Y87856D03*
D13*
X1082294Y80264D02*
X1082294Y43116D01*
X1082294Y80264D02*
X1074928Y87630D01*
X1055624Y87630D01*
X1082294Y80264D02*
X1118616Y43942D01*
X1118616Y-576580D01*
D14*
X1071372Y-623824D01*
X901446Y-689864D02*
X901446Y-728726D01*
X967486Y-623824D02*
X1071372Y-623824D01*
X967486Y-623824D02*
X901446Y-689864D01*
D18*
X900938Y-763214D02*
X902998Y-765274D01*
X900938Y-729234D02*
X901446Y-728726D01*
X900938Y-729234D02*
X900938Y-763214D01*
D15*
X902998Y-765274D02*
X910994Y-773270D01*
D16*
X1070864Y88110D03*
D13*
X1271270Y80264D02*
X1271270Y43370D01*
X1271270Y80264D02*
X1264158Y87376D01*
X1245108Y87376D01*
X1271270Y80264D02*
X1304544Y46990D01*
X1304544Y-556768D01*
D14*
X1201928Y-659384D01*
X999236Y-659384D02*
X940562Y-718058D01*
X999236Y-659384D02*
X1201928Y-659384D01*
D18*
X943064Y-765340D02*
X941070Y-763346D01*
X941070Y-718566D02*
X940562Y-718058D01*
X941070Y-718566D02*
X941070Y-763346D01*
D15*
X943064Y-765340D02*
X950994Y-773270D01*
D16*
X1259586Y87856D03*
D13*
X1449832Y87122D02*
X1449832Y42100D01*
X1449324Y87630D02*
X1423416Y87630D01*
X1449324Y87630D02*
X1449832Y87122D01*
X1491996Y44958D01*
X1491996Y-505460D01*
D14*
X1308608Y-688848D01*
X1015238Y-688848D02*
X980694Y-723392D01*
X1015238Y-688848D02*
X1308608Y-688848D01*
D18*
X983511Y-765787D02*
X980948Y-763224D01*
X980948Y-723646D02*
X980694Y-723392D01*
X980948Y-723646D02*
X980948Y-763224D01*
D15*
X983511Y-765787D02*
X990994Y-773270D01*
D16*
X1439418Y88110D03*
D13*
X349250Y-160274D02*
X349250Y-204280D01*
X349250Y-160274D02*
X348234Y-159258D01*
X321564Y-159258D01*
X349250Y-160274D02*
X351790Y-162814D01*
X377698Y-188722D01*
X377698Y-535432D01*
D14*
X401574Y-559308D01*
X496570Y-559308D01*
X670306Y-733044D01*
D15*
X670994Y-733732D02*
X670994Y-753270D01*
X670994Y-733732D02*
X670306Y-733044D01*
D16*
X351790Y-162814D03*
D13*
X533146Y-160020D02*
X536702Y-163576D01*
X533146Y-160020D02*
X511302Y-160020D01*
X536702Y-163576D02*
X536702Y-203772D01*
X560070Y-186944D02*
X536702Y-163576D01*
X560070Y-186944D02*
X560070Y-565658D01*
D14*
X560070Y-566928D01*
X672846Y-679704D02*
X716280Y-679704D01*
X751332Y-714756D01*
X751332Y-729996D01*
X672846Y-679704D02*
X560070Y-566928D01*
D15*
X750994Y-730334D02*
X750994Y-753270D01*
X750994Y-730334D02*
X751332Y-729996D01*
D16*
X526796Y-159667D03*
D13*
X717804Y-165354D02*
X717804Y-205042D01*
X712724Y-160274D02*
X689864Y-160274D01*
X712724Y-160274D02*
X717804Y-165354D01*
X751840Y-199390D01*
X751840Y-581660D01*
D14*
X751840Y-594360D01*
X811276Y-653796D02*
X811276Y-729742D01*
X811276Y-653796D02*
X751840Y-594360D01*
D15*
X810994Y-730024D02*
X810994Y-753270D01*
X810994Y-730024D02*
X811276Y-729742D01*
D16*
X705866Y-159921D03*
D13*
X905002Y-165100D02*
X905002Y-206312D01*
X900430Y-160528D02*
X879348Y-160528D01*
X900430Y-160528D02*
X905002Y-165100D01*
X928878Y-188976D01*
X928878Y-541020D01*
D14*
X851154Y-618744D02*
X851154Y-730250D01*
X851154Y-618744D02*
X928878Y-541020D01*
D15*
X850994Y-730410D02*
X850994Y-753270D01*
X850994Y-730410D02*
X851154Y-730250D01*
D16*
X895858Y-160175D03*
D13*
X1085342Y-165354D02*
X1085342Y-204280D01*
X1085342Y-165354D02*
X1081024Y-161036D01*
X1057656Y-161036D01*
X1085342Y-165354D02*
X1110996Y-191008D01*
X1110996Y-572262D01*
D14*
X1110996Y-574040D01*
X1069340Y-615696D02*
X953770Y-615696D01*
X891032Y-678434D01*
X891032Y-727456D01*
X1069340Y-615696D02*
X1110996Y-574040D01*
D15*
X890994Y-727494D02*
X890994Y-753270D01*
X890994Y-727494D02*
X891032Y-727456D01*
D16*
X1072896Y-160683D03*
D13*
X1273810Y-163068D02*
X1273810Y-204534D01*
X1273810Y-163068D02*
X1272032Y-161290D01*
X1247140Y-161290D01*
X1273810Y-163068D02*
X1296924Y-186182D01*
X1296924Y-551434D01*
D14*
X1197864Y-650494D01*
X930910Y-708660D02*
X930910Y-726440D01*
X989076Y-650494D02*
X1197864Y-650494D01*
X989076Y-650494D02*
X930910Y-708660D01*
D15*
X930994Y-726524D02*
X930994Y-753270D01*
X930994Y-726524D02*
X930910Y-726440D01*
D16*
X1262634Y-160937D03*
D13*
X1453388Y-166116D02*
X1453388Y-207582D01*
X1449070Y-161798D02*
X1425448Y-161798D01*
X1449070Y-161798D02*
X1453388Y-166116D01*
X1483106Y-195834D01*
X1483106Y-503174D01*
D14*
X1305052Y-681228D01*
X1011878Y-681228D02*
X970222Y-722884D01*
X1011878Y-681228D02*
X1305052Y-681228D01*
D15*
X970994Y-723657D02*
X970994Y-753270D01*
X970994Y-723657D02*
X970918Y-723581D01*
D16*
X1440942Y-161445D03*
D13*
X346710Y-403860D02*
X346710Y-444564D01*
X346710Y-403860D02*
X342646Y-399796D01*
X319786Y-399796D01*
X346710Y-403860D02*
X369824Y-426974D01*
X369824Y-539604D01*
X370786Y-540566D01*
D14*
X369932Y-539604D02*
X369824Y-539604D01*
X369932Y-539604D02*
X399034Y-568706D01*
X487680Y-568706D01*
X651002Y-732028D01*
D15*
X650994Y-732036D02*
X650994Y-753270D01*
X650994Y-732036D02*
X651002Y-732028D01*
D16*
X335788Y-399316D03*
D13*
X534416Y-405892D02*
X534416Y-441262D01*
X534416Y-405892D02*
X528574Y-400050D01*
X534416Y-405892D02*
X552450Y-423926D01*
X528574Y-400050D02*
X509270Y-400050D01*
X552450Y-423926D02*
X552450Y-558038D01*
X552450Y-561340D01*
D14*
X552450Y-558038D02*
X552450Y-571246D01*
X669798Y-688594D02*
X705104Y-688594D01*
X730504Y-713994D01*
X730504Y-726694D01*
X669798Y-688594D02*
X552450Y-571246D01*
D15*
X730994Y-727184D02*
X730994Y-753270D01*
X730994Y-727184D02*
X730504Y-726694D01*
D16*
X522986Y-399570D03*
D13*
X714756Y-400558D02*
X714756Y-446342D01*
X714756Y-400558D02*
X714248Y-400050D01*
X687832Y-400050D01*
X714756Y-400558D02*
X744220Y-430022D01*
X744220Y-576580D01*
D14*
X744220Y-601218D01*
X800862Y-657860D02*
X800862Y-728980D01*
X800862Y-657860D02*
X744220Y-601218D01*
D18*
X801116Y-763392D02*
X803087Y-765363D01*
X801116Y-729234D02*
X800862Y-728980D01*
X801116Y-729234D02*
X801116Y-763392D01*
D15*
X803087Y-765363D02*
X810994Y-773270D01*
D16*
X705183Y-399717D03*
D13*
X902462Y-402844D02*
X902462Y-444056D01*
X899922Y-400304D02*
X877316Y-400304D01*
X899922Y-400304D02*
X902462Y-402844D01*
X921258Y-421640D01*
X921258Y-535686D01*
D14*
X840486Y-616458D02*
X840486Y-731266D01*
X840486Y-616458D02*
X921258Y-535686D01*
D18*
X840994Y-763270D02*
X842899Y-765175D01*
X840994Y-731774D02*
X840486Y-731266D01*
X840994Y-731774D02*
X840994Y-763270D01*
D15*
X842899Y-765175D02*
X850994Y-773270D01*
D16*
X891540Y-399824D03*
D13*
X1082294Y-399796D02*
X1082294Y-440246D01*
X1082548Y-400050D02*
X1055624Y-400050D01*
X1082548Y-400050D02*
X1103376Y-420878D01*
X1082548Y-400050D02*
X1082294Y-399796D01*
X1103376Y-420878D02*
X1103376Y-569976D01*
D14*
X1068324Y-605028D01*
X880618Y-670306D02*
X880618Y-727964D01*
X945896Y-605028D02*
X1068324Y-605028D01*
X945896Y-605028D02*
X880618Y-670306D01*
D18*
X880872Y-763148D02*
X882457Y-764733D01*
X880872Y-728218D02*
X880618Y-727964D01*
X880872Y-728218D02*
X880872Y-763148D01*
D15*
X882457Y-764733D02*
X890994Y-773270D01*
D16*
X1071372Y-399570D03*
D13*
X1271270Y-400050D02*
X1271270Y-440500D01*
X1271524Y-400304D02*
X1245108Y-400304D01*
X1271524Y-400304D02*
X1289304Y-418084D01*
X1271524Y-400304D02*
X1271270Y-400050D01*
X1289304Y-418084D02*
X1289304Y-547878D01*
D14*
X1195070Y-642112D01*
X920750Y-702818D02*
X920750Y-727964D01*
X981456Y-642112D02*
X1195070Y-642112D01*
X981456Y-642112D02*
X920750Y-702818D01*
D18*
X921004Y-763280D02*
X922904Y-765180D01*
X921004Y-728218D02*
X920750Y-727964D01*
X921004Y-728218D02*
X921004Y-763280D01*
D15*
X922904Y-765180D02*
X930994Y-773270D01*
D16*
X1261618Y-399824D03*
D13*
X1451102Y-444564D02*
X1452118Y-443548D01*
X1452118Y-399288D01*
X1452880Y-400050D02*
X1423416Y-400050D01*
X1452118Y-399288D02*
X1452880Y-400050D01*
X1474724Y-421894D01*
X1474724Y-500380D01*
D14*
X1300734Y-674370D01*
X1008634Y-674370D01*
X961390Y-721614D01*
D18*
X961136Y-763412D02*
X964748Y-767024D01*
X961136Y-721868D02*
X961390Y-721614D01*
X961136Y-721868D02*
X961136Y-763412D01*
D15*
X964748Y-767024D02*
X970994Y-773270D01*
D16*
X1439164Y-399570D03*
D13*
X349250Y232664D02*
X321818Y232664D01*
X349250Y232664D02*
X349250Y274384D01*
D16*
X339423Y232585D03*
D13*
X511302Y232410D02*
X532638Y232410D01*
X537210Y236982D02*
X537210Y277178D01*
X537210Y236982D02*
X532638Y232410D01*
D16*
X528653Y232077D03*
D13*
X689864Y232156D02*
X711200Y232156D01*
X717550Y238506D02*
X717550Y272606D01*
X717550Y238506D02*
X711200Y232156D01*
D16*
X704342Y231676D03*
D13*
X879856Y231902D02*
X900684Y231902D01*
X905002Y236220D01*
X905002Y275908D01*
D16*
X895604Y231422D03*
D13*
X1057656Y231394D02*
X1075182Y231394D01*
X1084580Y240792D02*
X1084580Y273114D01*
X1084580Y240792D02*
X1075182Y231394D01*
D16*
X1075261Y231315D03*
D13*
X1247140Y231140D02*
X1265682Y231140D01*
X1272794Y238252D02*
X1272794Y274892D01*
X1272794Y238252D02*
X1265682Y231140D01*
D16*
X1261364Y230660D03*
D13*
X1425448Y230632D02*
X1444498Y230632D01*
X1451864Y237998D02*
X1451864Y274638D01*
X1451864Y237998D02*
X1444498Y230632D01*
D16*
X1440942Y230152D03*
D13*
X341122Y-7366D02*
X319786Y-7366D01*
X347472Y-1016D02*
X347472Y39434D01*
X347472Y-1016D02*
X341122Y-7366D01*
D16*
X336804Y-7719D03*
D13*
X509270Y-7366D02*
X533400Y-7366D01*
X535178Y-5588D02*
X535178Y32322D01*
X535178Y-5588D02*
X533400Y-7366D01*
D16*
X525780Y-7973D03*
D13*
X687832Y-7620D02*
X706628Y-7620D01*
X715772Y1524D02*
X715772Y34100D01*
X715772Y1524D02*
X706628Y-7620D01*
D16*
X703326Y-7973D03*
D13*
X877316Y-7874D02*
X898144Y-7874D01*
X902970Y-3048D02*
X902970Y33846D01*
X902970Y-3048D02*
X898144Y-7874D01*
D16*
X892048Y-8227D03*
D13*
X1055624Y-7620D02*
X1075690Y-7620D01*
X1082294Y-1016D02*
X1082294Y35116D01*
X1082294Y-1016D02*
X1075690Y-7620D01*
D16*
X1072134Y-7973D03*
D13*
X1245108Y-7620D02*
X1262126Y-7620D01*
X1271270Y1524D02*
X1271270Y35370D01*
X1271270Y1524D02*
X1262126Y-7620D01*
D16*
X1258570Y-8227D03*
D13*
X1423416Y-7620D02*
X1447292Y-7620D01*
X1449832Y-5080D02*
X1449832Y34100D01*
X1449832Y-5080D02*
X1447292Y-7620D01*
D16*
X1439418Y-7973D03*
D13*
X348742Y-255016D02*
X321818Y-255016D01*
X349250Y-254508D02*
X349250Y-212280D01*
X349250Y-254508D02*
X348742Y-255016D01*
D16*
X339296Y-255222D03*
D13*
X511302Y-255270D02*
X529844Y-255270D01*
X536702Y-248412D02*
X536702Y-211772D01*
X536702Y-248412D02*
X529844Y-255270D01*
D16*
X525526Y-255750D03*
D13*
X689864Y-255524D02*
X715264Y-255524D01*
X717804Y-252984D02*
X717804Y-213042D01*
X717804Y-252984D02*
X715264Y-255524D01*
D16*
X707215Y-255857D03*
D13*
X879348Y-255778D02*
X899668Y-255778D01*
X905002Y-250444D02*
X905002Y-214312D01*
X905002Y-250444D02*
X899668Y-255778D01*
D16*
X895096Y-256258D03*
D13*
X1057656Y-256286D02*
X1079500Y-256286D01*
X1085342Y-250444D02*
X1085342Y-212280D01*
X1085342Y-250444D02*
X1079500Y-256286D01*
D16*
X1073912Y-256766D03*
D13*
X1247140Y-256540D02*
X1266698Y-256540D01*
X1273810Y-249428D02*
X1273810Y-212534D01*
X1273810Y-249428D02*
X1266698Y-256540D01*
D16*
X1262634Y-257020D03*
D13*
X1425448Y-257048D02*
X1444498Y-257048D01*
X1453388Y-248158D02*
X1453388Y-215582D01*
X1453388Y-248158D02*
X1444498Y-257048D01*
D16*
X1439926Y-257528D03*
D13*
X341630Y-495046D02*
X319786Y-495046D01*
X346710Y-489966D02*
X346710Y-452564D01*
X346710Y-489966D02*
X341630Y-495046D01*
D16*
X336296Y-495399D03*
D13*
X509270Y-495300D02*
X527812Y-495300D01*
X534416Y-488696D02*
X534416Y-449262D01*
X534416Y-488696D02*
X527812Y-495300D01*
D16*
X524002Y-495653D03*
D13*
X687832Y-495300D02*
X707644Y-495300D01*
X714756Y-488188D02*
X714756Y-454342D01*
X714756Y-488188D02*
X707644Y-495300D01*
D16*
X702564Y-495653D03*
D13*
X877316Y-495554D02*
X901192Y-495554D01*
X902462Y-494284D02*
X902462Y-452056D01*
X902462Y-494284D02*
X901192Y-495554D01*
D16*
X893318Y-495907D03*
D13*
X1055624Y-495300D02*
X1078738Y-495300D01*
X1082294Y-491744D02*
X1082294Y-448246D01*
X1082294Y-491744D02*
X1078738Y-495300D01*
D16*
X1071118Y-495653D03*
D13*
X1245108Y-495554D02*
X1266190Y-495554D01*
X1271270Y-490474D02*
X1271270Y-448500D01*
X1271270Y-490474D02*
X1266190Y-495554D01*
D16*
X1259586Y-495907D03*
M02*
