G04 EAGLE Gerber RS-274X export*
G75*
%MOMM*%
%FSLAX34Y34*%
%LPD*%
%INSoldermask Top*%
%IPPOS*%
%AMOC8*
5,1,8,0,0,1.08239X$1,22.5*%
G01*
%ADD10R,1.403200X1.603200*%
%ADD11C,1.727200*%
%ADD12C,1.611200*%
%ADD13C,0.959600*%


D10*
X179564Y170434D03*
X209564Y170434D03*
X179818Y148336D03*
X209818Y148336D03*
D11*
X321818Y320294D02*
X321818Y335534D01*
X296418Y335534D02*
X296418Y320294D01*
X271018Y320294D02*
X271018Y335534D01*
X245618Y335534D02*
X245618Y320294D01*
X245618Y240284D02*
X245618Y225044D01*
X271018Y225044D02*
X271018Y240284D01*
X296418Y240284D02*
X296418Y225044D01*
X321818Y225044D02*
X321818Y240284D01*
D10*
X362698Y170180D03*
X392698Y170180D03*
X362698Y148082D03*
X392698Y148082D03*
D11*
X511302Y320040D02*
X511302Y335280D01*
X485902Y335280D02*
X485902Y320040D01*
X460502Y320040D02*
X460502Y335280D01*
X435102Y335280D02*
X435102Y320040D01*
X435102Y240030D02*
X435102Y224790D01*
X460502Y224790D02*
X460502Y240030D01*
X485902Y240030D02*
X485902Y224790D01*
X511302Y224790D02*
X511302Y240030D01*
D10*
X546086Y170688D03*
X576086Y170688D03*
X546086Y148082D03*
X576086Y148082D03*
D11*
X689864Y319786D02*
X689864Y335026D01*
X664464Y335026D02*
X664464Y319786D01*
X639064Y319786D02*
X639064Y335026D01*
X613664Y335026D02*
X613664Y319786D01*
X613664Y239776D02*
X613664Y224536D01*
X639064Y224536D02*
X639064Y239776D01*
X664464Y239776D02*
X664464Y224536D01*
X689864Y224536D02*
X689864Y239776D01*
D10*
X731252Y170434D03*
X761252Y170434D03*
X731252Y148336D03*
X761252Y148336D03*
D11*
X879348Y319532D02*
X879348Y334772D01*
X853948Y334772D02*
X853948Y319532D01*
X828548Y319532D02*
X828548Y334772D01*
X803148Y334772D02*
X803148Y319532D01*
X803656Y239522D02*
X803656Y224282D01*
X829056Y224282D02*
X829056Y239522D01*
X854456Y239522D02*
X854456Y224282D01*
X879856Y224282D02*
X879856Y239522D01*
D10*
X913878Y170180D03*
X943878Y170180D03*
X913878Y148336D03*
X943878Y148336D03*
D11*
X1057656Y319024D02*
X1057656Y334264D01*
X1032256Y334264D02*
X1032256Y319024D01*
X1006856Y319024D02*
X1006856Y334264D01*
X981456Y334264D02*
X981456Y319024D01*
X981456Y239014D02*
X981456Y223774D01*
X1006856Y223774D02*
X1006856Y239014D01*
X1032256Y239014D02*
X1032256Y223774D01*
X1057656Y223774D02*
X1057656Y239014D01*
D10*
X1099298Y170434D03*
X1129298Y170434D03*
X1099298Y148336D03*
X1129298Y148336D03*
D11*
X1247140Y318770D02*
X1247140Y334010D01*
X1221740Y334010D02*
X1221740Y318770D01*
X1196340Y318770D02*
X1196340Y334010D01*
X1170940Y334010D02*
X1170940Y318770D01*
X1170940Y238760D02*
X1170940Y223520D01*
X1196340Y223520D02*
X1196340Y238760D01*
X1221740Y238760D02*
X1221740Y223520D01*
X1247140Y223520D02*
X1247140Y238760D01*
D10*
X1282432Y170180D03*
X1312432Y170180D03*
X1282432Y148082D03*
X1312432Y148082D03*
D11*
X1425448Y318262D02*
X1425448Y333502D01*
X1400048Y333502D02*
X1400048Y318262D01*
X1374648Y318262D02*
X1374648Y333502D01*
X1349248Y333502D02*
X1349248Y318262D01*
X1349248Y238252D02*
X1349248Y223012D01*
X1374648Y223012D02*
X1374648Y238252D01*
X1400048Y238252D02*
X1400048Y223012D01*
X1425448Y223012D02*
X1425448Y238252D01*
D10*
X1468106Y170180D03*
X1498106Y170180D03*
X1468106Y147828D03*
X1498106Y147828D03*
X179818Y-73660D03*
X209818Y-73660D03*
X179818Y-96012D03*
X209818Y-96012D03*
D11*
X319786Y80264D02*
X319786Y95504D01*
X294386Y95504D02*
X294386Y80264D01*
X268986Y80264D02*
X268986Y95504D01*
X243586Y95504D02*
X243586Y80264D01*
X243586Y254D02*
X243586Y-14986D01*
X268986Y-14986D02*
X268986Y254D01*
X294386Y254D02*
X294386Y-14986D01*
X319786Y-14986D02*
X319786Y254D01*
D10*
X363206Y-73406D03*
X393206Y-73406D03*
X363714Y-95758D03*
X393714Y-95758D03*
D11*
X509270Y80264D02*
X509270Y95504D01*
X483870Y95504D02*
X483870Y80264D01*
X458470Y80264D02*
X458470Y95504D01*
X433070Y95504D02*
X433070Y80264D01*
X433070Y254D02*
X433070Y-14986D01*
X458470Y-14986D02*
X458470Y254D01*
X483870Y254D02*
X483870Y-14986D01*
X509270Y-14986D02*
X509270Y254D01*
D10*
X545578Y-73406D03*
X575578Y-73406D03*
X545578Y-95504D03*
X575578Y-95504D03*
D11*
X687832Y80264D02*
X687832Y95504D01*
X662432Y95504D02*
X662432Y80264D01*
X637032Y80264D02*
X637032Y95504D01*
X611632Y95504D02*
X611632Y80264D01*
X611632Y0D02*
X611632Y-15240D01*
X637032Y-15240D02*
X637032Y0D01*
X662432Y0D02*
X662432Y-15240D01*
X687832Y-15240D02*
X687832Y0D01*
D10*
X730998Y-73152D03*
X760998Y-73152D03*
X730998Y-95250D03*
X760998Y-95250D03*
D11*
X877316Y79756D02*
X877316Y94996D01*
X851916Y94996D02*
X851916Y79756D01*
X826516Y79756D02*
X826516Y94996D01*
X801116Y94996D02*
X801116Y79756D01*
X801116Y-254D02*
X801116Y-15494D01*
X826516Y-15494D02*
X826516Y-254D01*
X851916Y-254D02*
X851916Y-15494D01*
X877316Y-15494D02*
X877316Y-254D01*
D10*
X914386Y-73660D03*
X944386Y-73660D03*
X914386Y-95504D03*
X944386Y-95504D03*
D11*
X1055624Y80010D02*
X1055624Y95250D01*
X1030224Y95250D02*
X1030224Y80010D01*
X1004824Y80010D02*
X1004824Y95250D01*
X979424Y95250D02*
X979424Y80010D01*
X979424Y0D02*
X979424Y-15240D01*
X1004824Y-15240D02*
X1004824Y0D01*
X1030224Y0D02*
X1030224Y-15240D01*
X1055624Y-15240D02*
X1055624Y0D01*
D10*
X1096758Y-73660D03*
X1126758Y-73660D03*
X1096758Y-95504D03*
X1126758Y-95504D03*
D11*
X1245108Y79756D02*
X1245108Y94996D01*
X1219708Y94996D02*
X1219708Y79756D01*
X1194308Y79756D02*
X1194308Y94996D01*
X1168908Y94996D02*
X1168908Y79756D01*
X1168908Y0D02*
X1168908Y-15240D01*
X1194308Y-15240D02*
X1194308Y0D01*
X1219708Y0D02*
X1219708Y-15240D01*
X1245108Y-15240D02*
X1245108Y0D01*
D10*
X1282178Y-73406D03*
X1312178Y-73406D03*
X1282178Y-95504D03*
X1312178Y-95504D03*
D11*
X1423416Y80010D02*
X1423416Y95250D01*
X1398016Y95250D02*
X1398016Y80010D01*
X1372616Y80010D02*
X1372616Y95250D01*
X1347216Y95250D02*
X1347216Y80010D01*
X1347216Y0D02*
X1347216Y-15240D01*
X1372616Y-15240D02*
X1372616Y0D01*
X1398016Y0D02*
X1398016Y-15240D01*
X1423416Y-15240D02*
X1423416Y0D01*
D10*
X1467852Y-73406D03*
X1497852Y-73406D03*
X1467852Y-95250D03*
X1497852Y-95250D03*
X179818Y-314706D03*
X209818Y-314706D03*
X179818Y-336804D03*
X209818Y-336804D03*
D11*
X321564Y-166878D02*
X321564Y-151638D01*
X296164Y-151638D02*
X296164Y-166878D01*
X270764Y-166878D02*
X270764Y-151638D01*
X245364Y-151638D02*
X245364Y-166878D01*
X245618Y-247396D02*
X245618Y-262636D01*
X271018Y-262636D02*
X271018Y-247396D01*
X296418Y-247396D02*
X296418Y-262636D01*
X321818Y-262636D02*
X321818Y-247396D01*
D10*
X360412Y-314198D03*
X390412Y-314198D03*
X360412Y-336550D03*
X390412Y-336550D03*
D11*
X511302Y-167640D02*
X511302Y-152400D01*
X485902Y-152400D02*
X485902Y-167640D01*
X460502Y-167640D02*
X460502Y-152400D01*
X435102Y-152400D02*
X435102Y-167640D01*
X435102Y-247650D02*
X435102Y-262890D01*
X460502Y-262890D02*
X460502Y-247650D01*
X485902Y-247650D02*
X485902Y-262890D01*
X511302Y-262890D02*
X511302Y-247650D01*
D10*
X545578Y-317754D03*
X575578Y-317754D03*
X545578Y-339598D03*
X575578Y-339598D03*
D11*
X689864Y-167894D02*
X689864Y-152654D01*
X664464Y-152654D02*
X664464Y-167894D01*
X639064Y-167894D02*
X639064Y-152654D01*
X613664Y-152654D02*
X613664Y-167894D01*
X613664Y-247904D02*
X613664Y-263144D01*
X639064Y-263144D02*
X639064Y-247904D01*
X664464Y-247904D02*
X664464Y-263144D01*
X689864Y-263144D02*
X689864Y-247904D01*
D10*
X731252Y-317754D03*
X761252Y-317754D03*
X731506Y-339852D03*
X761506Y-339852D03*
D11*
X879348Y-168148D02*
X879348Y-152908D01*
X853948Y-152908D02*
X853948Y-168148D01*
X828548Y-168148D02*
X828548Y-152908D01*
X803148Y-152908D02*
X803148Y-168148D01*
X803148Y-248158D02*
X803148Y-263398D01*
X828548Y-263398D02*
X828548Y-248158D01*
X853948Y-248158D02*
X853948Y-263398D01*
X879348Y-263398D02*
X879348Y-248158D01*
D10*
X914132Y-317500D03*
X944132Y-317500D03*
X914132Y-339344D03*
X944132Y-339344D03*
D11*
X1057656Y-168656D02*
X1057656Y-153416D01*
X1032256Y-153416D02*
X1032256Y-168656D01*
X1006856Y-168656D02*
X1006856Y-153416D01*
X981456Y-153416D02*
X981456Y-168656D01*
X981456Y-248666D02*
X981456Y-263906D01*
X1006856Y-263906D02*
X1006856Y-248666D01*
X1032256Y-248666D02*
X1032256Y-263906D01*
X1057656Y-263906D02*
X1057656Y-248666D01*
D10*
X1096758Y-320040D03*
X1126758Y-320040D03*
X1096758Y-341884D03*
X1126758Y-341884D03*
D11*
X1247140Y-168910D02*
X1247140Y-153670D01*
X1221740Y-153670D02*
X1221740Y-168910D01*
X1196340Y-168910D02*
X1196340Y-153670D01*
X1170940Y-153670D02*
X1170940Y-168910D01*
X1170940Y-248920D02*
X1170940Y-264160D01*
X1196340Y-264160D02*
X1196340Y-248920D01*
X1221740Y-248920D02*
X1221740Y-264160D01*
X1247140Y-264160D02*
X1247140Y-248920D01*
D10*
X1282178Y-317500D03*
X1312178Y-317500D03*
X1282178Y-339344D03*
X1312178Y-339344D03*
D11*
X1425448Y-169418D02*
X1425448Y-154178D01*
X1400048Y-154178D02*
X1400048Y-169418D01*
X1374648Y-169418D02*
X1374648Y-154178D01*
X1349248Y-154178D02*
X1349248Y-169418D01*
X1349248Y-249428D02*
X1349248Y-264668D01*
X1374648Y-264668D02*
X1374648Y-249428D01*
X1400048Y-249428D02*
X1400048Y-264668D01*
X1425448Y-264668D02*
X1425448Y-249428D01*
D10*
X1467598Y-315214D03*
X1497598Y-315214D03*
X1467598Y-337312D03*
X1497598Y-337312D03*
D11*
X319786Y-392176D02*
X319786Y-407416D01*
X294386Y-407416D02*
X294386Y-392176D01*
X268986Y-392176D02*
X268986Y-407416D01*
X243586Y-407416D02*
X243586Y-392176D01*
X243586Y-487426D02*
X243586Y-502666D01*
X268986Y-502666D02*
X268986Y-487426D01*
X294386Y-487426D02*
X294386Y-502666D01*
X319786Y-502666D02*
X319786Y-487426D01*
X509270Y-407670D02*
X509270Y-392430D01*
X483870Y-392430D02*
X483870Y-407670D01*
X458470Y-407670D02*
X458470Y-392430D01*
X433070Y-392430D02*
X433070Y-407670D01*
X433070Y-487680D02*
X433070Y-502920D01*
X458470Y-502920D02*
X458470Y-487680D01*
X483870Y-487680D02*
X483870Y-502920D01*
X509270Y-502920D02*
X509270Y-487680D01*
X687832Y-407670D02*
X687832Y-392430D01*
X662432Y-392430D02*
X662432Y-407670D01*
X637032Y-407670D02*
X637032Y-392430D01*
X611632Y-392430D02*
X611632Y-407670D01*
X611632Y-487680D02*
X611632Y-502920D01*
X637032Y-502920D02*
X637032Y-487680D01*
X662432Y-487680D02*
X662432Y-502920D01*
X687832Y-502920D02*
X687832Y-487680D01*
X877316Y-407924D02*
X877316Y-392684D01*
X851916Y-392684D02*
X851916Y-407924D01*
X826516Y-407924D02*
X826516Y-392684D01*
X801116Y-392684D02*
X801116Y-407924D01*
X801116Y-487934D02*
X801116Y-503174D01*
X826516Y-503174D02*
X826516Y-487934D01*
X851916Y-487934D02*
X851916Y-503174D01*
X877316Y-503174D02*
X877316Y-487934D01*
X1055624Y-407670D02*
X1055624Y-392430D01*
X1030224Y-392430D02*
X1030224Y-407670D01*
X1004824Y-407670D02*
X1004824Y-392430D01*
X979424Y-392430D02*
X979424Y-407670D01*
X979424Y-487680D02*
X979424Y-502920D01*
X1004824Y-502920D02*
X1004824Y-487680D01*
X1030224Y-487680D02*
X1030224Y-502920D01*
X1055624Y-502920D02*
X1055624Y-487680D01*
X1245108Y-407924D02*
X1245108Y-392684D01*
X1219708Y-392684D02*
X1219708Y-407924D01*
X1194308Y-407924D02*
X1194308Y-392684D01*
X1168908Y-392684D02*
X1168908Y-407924D01*
X1168908Y-487934D02*
X1168908Y-503174D01*
X1194308Y-503174D02*
X1194308Y-487934D01*
X1219708Y-487934D02*
X1219708Y-503174D01*
X1245108Y-503174D02*
X1245108Y-487934D01*
X1423416Y-407670D02*
X1423416Y-392430D01*
X1398016Y-392430D02*
X1398016Y-407670D01*
X1372616Y-407670D02*
X1372616Y-392430D01*
X1347216Y-392430D02*
X1347216Y-407670D01*
X1347216Y-487680D02*
X1347216Y-502920D01*
X1372616Y-502920D02*
X1372616Y-487680D01*
X1398016Y-487680D02*
X1398016Y-502920D01*
X1423416Y-502920D02*
X1423416Y-487680D01*
D12*
X601502Y-947260D03*
X601502Y-927260D03*
X621502Y-947260D03*
X621502Y-927260D03*
X641502Y-947260D03*
X641502Y-927260D03*
X661502Y-947260D03*
X661502Y-927260D03*
X681502Y-947260D03*
X681502Y-927260D03*
X701502Y-947260D03*
X701502Y-927260D03*
X721502Y-947260D03*
X721502Y-927260D03*
X741502Y-947260D03*
X741502Y-927260D03*
X761502Y-947260D03*
X761502Y-927260D03*
X781502Y-947260D03*
X781502Y-927260D03*
X801502Y-947260D03*
X801502Y-927260D03*
X821502Y-947260D03*
X821502Y-927260D03*
X841502Y-947260D03*
X841502Y-927260D03*
X861502Y-947260D03*
X861502Y-927260D03*
X881502Y-947260D03*
X881502Y-927260D03*
X901502Y-947260D03*
X901502Y-927260D03*
X921502Y-947260D03*
X921502Y-927260D03*
X941502Y-947260D03*
X941502Y-927260D03*
X961502Y-947260D03*
X961502Y-927260D03*
X981502Y-947260D03*
X981502Y-927260D03*
X1001502Y-947260D03*
X1001502Y-927260D03*
X1021502Y-947260D03*
X1021502Y-927260D03*
X1041502Y-947260D03*
X1041502Y-927260D03*
X1061502Y-947260D03*
X1061502Y-927260D03*
X1081502Y-947260D03*
X1081502Y-927260D03*
X650994Y-773270D03*
X650994Y-753270D03*
X670994Y-773270D03*
X670994Y-753270D03*
X690994Y-773270D03*
X690994Y-753270D03*
X710994Y-773270D03*
X710994Y-753270D03*
X730994Y-773270D03*
X730994Y-753270D03*
X750994Y-773270D03*
X750994Y-753270D03*
X770994Y-773270D03*
X770994Y-753270D03*
X790994Y-773270D03*
X790994Y-753270D03*
X810994Y-773270D03*
X810994Y-753270D03*
X830994Y-773270D03*
X830994Y-753270D03*
X850994Y-773270D03*
X850994Y-753270D03*
X870994Y-773270D03*
X870994Y-753270D03*
X890994Y-773270D03*
X890994Y-753270D03*
X910994Y-773270D03*
X910994Y-753270D03*
X930994Y-773270D03*
X930994Y-753270D03*
X950994Y-773270D03*
X950994Y-753270D03*
X970994Y-773270D03*
X970994Y-753270D03*
X990994Y-773270D03*
X990994Y-753270D03*
X1010994Y-773270D03*
X1010994Y-753270D03*
X1030994Y-773270D03*
X1030994Y-753270D03*
D13*
X337566Y328267D03*
X490220Y-772922D03*
X1438402Y-495653D03*
X401320Y-581914D03*
X401320Y-659892D03*
X629920Y-750062D03*
X494030Y-752602D03*
X769874Y-642112D03*
X683260Y-643382D03*
X949678Y-580644D03*
X905256Y-608584D03*
X1080770Y-749046D03*
X1191006Y-750062D03*
X553974Y-830834D03*
X527304Y328013D03*
X706120Y327759D03*
X896762Y327294D03*
X1073150Y326997D03*
X1263142Y326743D03*
X1442212Y326235D03*
X336042Y88364D03*
X522732Y88110D03*
X701802Y88110D03*
X892810Y87856D03*
X1070864Y88110D03*
X1259586Y87856D03*
X1439418Y88110D03*
X351790Y-162814D03*
X526796Y-159667D03*
X705866Y-159921D03*
X895858Y-160175D03*
X1072896Y-160683D03*
X1262634Y-160937D03*
X1440942Y-161445D03*
X335788Y-399316D03*
X522986Y-399570D03*
X705183Y-399717D03*
X891540Y-399824D03*
X1071372Y-399570D03*
X1261618Y-399824D03*
X1439164Y-399570D03*
X339423Y232585D03*
X528653Y232077D03*
X704342Y231676D03*
X895604Y231422D03*
X1075261Y231315D03*
X1261364Y230660D03*
X1440942Y230152D03*
X336804Y-7719D03*
X525780Y-7973D03*
X703326Y-7973D03*
X892048Y-8227D03*
X1072134Y-7973D03*
X1258570Y-8227D03*
X1439418Y-7973D03*
X339296Y-255222D03*
X525526Y-255750D03*
X707215Y-255857D03*
X895096Y-256258D03*
X1073912Y-256766D03*
X1262634Y-257020D03*
X1439926Y-257528D03*
X336296Y-495399D03*
X524002Y-495653D03*
X702564Y-495653D03*
X893318Y-495907D03*
X1071118Y-495653D03*
X1259586Y-495907D03*
M02*
