M48
;GenerationSoftware,Autodesk,EAGLE,9.6.2*%
;CreationDate,2023-03-28T17:34:03Z*%
FMAT,2
ICI,OFF
METRIC,TZ,000.000
T3C0.350
T2C0.914
T1C3.000
%
G90
M71
T1
X-24500Y15800
X169100Y23400
X-24600Y2400
X169100Y28000
X169100Y3500
X169100Y8400
X-24500Y31200
X-12200Y15900
T2
X-8616Y9655
X-6076Y9655
X-8616Y12195
X-8616Y14735
X-6076Y14735
X-8616Y17275
X-6076Y17275
X-8616Y19815
X-6076Y19815
X-8616Y22355
X-6076Y12195
X-6076Y22355
X-8616Y24895
X-6076Y24895
X-8616Y27435
X-6076Y27435
X-18479Y4425
X-15939Y4425
X-18479Y6965
X-15939Y6965
X-18479Y9505
X-15939Y9505
X-18479Y12045
X-15939Y12045
X-18479Y14585
X-18479Y17125
X-15939Y17125
X-18479Y19665
X-15939Y19665
X-18479Y22205
X-15939Y22205
X-18479Y24745
X-15939Y24745
X-18479Y27285
X-15939Y27285
X-15939Y14585
X-8616Y4575
X-6076Y4575
X-8616Y7115
X-6076Y7115
T3
X22103Y27536
X-21311Y15926
X161773Y34950
X151638Y32741
X132893Y32690
X114656Y33045
X95707Y32842
X77673Y33020
X59182Y32791
X40767Y33045
X15697Y8357
X39599Y9322
X58979Y9423
X77546Y9398
X95910Y9144
X114148Y9093
X132690Y8941
X151333Y8814
X161519Y-3150
X-20041Y34493
X-20625Y-1016
X22530Y9195
X39853Y27173
X58395Y27008
X76937Y27142
X95555Y28194
X114173Y28245
X132690Y28126
X151821Y28052
X21824Y4506
X41102Y4658
X59365Y4735
X96144Y4481
X114661Y4506
X77856Y4582
X22352Y32969
X151115Y3851
X132522Y3978
M30